<svg width="124" height="52" viewBox="0 0 124 52" fill="none" xmlns="http://www.w3.org/2000/svg">
<path fill-rule="evenodd" clip-rule="evenodd" d="M84.1045 34.5053H92.8369L96.589 23.6518L100.489 20.325L103.562 30.1404C104.513 33.1742 105.491 34.5053 107.625 34.5053H114.31L107.413 15.2447L124 0.000976562H113.288L103.219 10.8547C102.047 12.1182 100.86 13.3618 99.6701 14.8473H99.5689L104.596 0.000976562H95.8637L84.1045 34.5053Z" fill="#1AB248"/>
<path fill-rule="evenodd" clip-rule="evenodd" d="M83.36 0.394895C86.1236 0.395339 88.8039 0.395771 91.0489 0.395966L89.2299 5.97948C88.6585 7.73377 87.2073 8.57305 84.0093 8.57305C78.4564 8.57305 70.2399 8.57209 64.6865 8.57113L66.5055 2.98761C67.0769 1.23236 68.5277 0.393555 71.7259 0.393555C75.0341 0.393555 79.2875 0.394239 83.36 0.394895ZM67.2409 13.2133C72.7935 13.2133 81.0103 13.2143 86.5637 13.2157L84.7447 18.799C84.1733 20.5538 82.7225 21.3926 79.524 21.3926C73.9711 21.3926 65.7547 21.3916 60.2013 21.3902L62.0202 15.8074C62.5917 14.0524 64.0427 13.2133 67.2409 13.2133ZM81.859 26.0344C76.3056 26.0334 68.0891 26.0324 62.5362 26.0324C59.3375 26.0324 57.887 26.8717 57.3155 28.6255L55.4966 34.2098C61.05 34.2103 69.2664 34.2119 74.8196 34.2119C78.0176 34.2119 79.4686 33.3724 80.04 31.6176L81.859 26.0344Z" fill="#1AB248"/>
<path fill-rule="evenodd" clip-rule="evenodd" d="M43.9743 8.31159L48.724 8.31355C52.771 8.31454 51.8472 13.2839 49.7991 18.1271C47.9945 22.396 44.796 26.163 40.9802 26.1625L33.062 26.1615C29.9038 26.1615 28.4477 27.0178 27.8334 28.8071L25.8784 34.5043L31.6847 34.5053L37.3604 34.4588C42.3938 34.418 46.5146 34.0603 51.3333 29.8023C56.4258 25.3042 62.3635 13.619 61.3462 6.86027C60.5493 1.56397 57.6548 0.00343641 50.6458 0.00294444L37.8733 0.000976562L30.4365 21.4012L35.1617 21.4071C37.9739 21.4103 39.3852 21.445 40.8812 17.4871L43.9743 8.31159Z" fill="#1AB248"/>
<path d="M7.40625 49.8926C7.09766 50.2949 6.66992 50.5996 6.12305 50.8066C5.57617 51.0137 4.95508 51.1172 4.25977 51.1172C3.54492 51.1172 2.91211 50.9551 2.36133 50.6309C1.81055 50.3066 1.38477 49.8438 1.08398 49.2422C0.787109 48.6367 0.632812 47.9316 0.621094 47.127V46.459C0.621094 45.1699 0.929688 44.1641 1.54688 43.4414C2.16406 42.7148 3.02539 42.3516 4.13086 42.3516C5.08008 42.3516 5.83398 42.5859 6.39258 43.0547C6.95117 43.5234 7.28711 44.1992 7.40039 45.082H5.94727C5.7832 44.0547 5.1875 43.541 4.16016 43.541C3.49609 43.541 2.99023 43.7812 2.64258 44.2617C2.29883 44.7383 2.12109 45.4395 2.10938 46.3652V47.0215C2.10938 47.9434 2.30273 48.6602 2.68945 49.1719C3.08008 49.6797 3.62109 49.9336 4.3125 49.9336C5.07031 49.9336 5.60938 49.7617 5.92969 49.418V47.748H4.17188V46.623H7.40625V49.8926ZM12.5299 47.7129H10.8776V51H9.39516V42.4688H12.3952C13.3795 42.4688 14.1393 42.6895 14.6745 43.1309C15.2096 43.5723 15.4772 44.2109 15.4772 45.0469C15.4772 45.6172 15.3385 46.0957 15.0612 46.4824C14.7877 46.8652 14.4049 47.1602 13.9127 47.3672L15.8287 50.9238V51H14.2409L12.5299 47.7129ZM10.8776 46.5234H12.401C12.901 46.5234 13.2916 46.3984 13.5729 46.1484C13.8541 45.8945 13.9948 45.5488 13.9948 45.1113C13.9948 44.6543 13.8639 44.3008 13.6022 44.0508C13.3444 43.8008 12.9577 43.6719 12.442 43.6641H10.8776V46.5234ZM22.2298 47.1914H18.7259V49.8164H22.8216V51H17.2434V42.4688H22.7805V43.6641H18.7259V46.0195H22.2298V47.1914ZM29.164 49.0137H25.8593L25.1679 51H23.6269L26.8495 42.4688H28.1796L31.4081 51H29.8612L29.164 49.0137ZM26.2753 47.8184H28.748L27.5116 44.2793L26.2753 47.8184ZM38.2017 43.6641H35.5416V51H34.0709V43.6641H31.4341V42.4688H38.2017V43.6641ZM42.6834 51V42.4688H45.6073C46.5721 42.4688 47.3065 42.6621 47.8104 43.0488C48.3143 43.4355 48.5662 44.0117 48.5662 44.7773C48.5662 45.168 48.4608 45.5195 48.2498 45.832C48.0389 46.1445 47.7303 46.3867 47.3241 46.5586C47.785 46.6836 48.1405 46.9199 48.3905 47.2676C48.6444 47.6113 48.7713 48.0254 48.7713 48.5098C48.7713 49.3105 48.5135 49.9258 47.9979 50.3555C47.4862 50.7852 46.7518 51 45.7948 51H42.6834ZM44.1659 47.1504V49.8164H45.8123C46.2772 49.8164 46.6405 49.7012 46.9022 49.4707C47.1639 49.2402 47.2948 48.9199 47.2948 48.5098C47.2948 47.623 46.8416 47.1699 45.9354 47.1504H44.1659ZM44.1659 46.0605H45.619C46.0799 46.0605 46.4393 45.957 46.6971 45.75C46.9588 45.5391 47.0897 45.2422 47.0897 44.8594C47.0897 44.4375 46.9686 44.1328 46.7264 43.9453C46.4881 43.7578 46.1151 43.6641 45.6073 43.6641H44.1659V46.0605ZM53.7485 47.7129H52.0962V51H50.6138V42.4688H53.6138C54.5981 42.4688 55.3579 42.6895 55.893 43.1309C56.4282 43.5723 56.6958 44.2109 56.6958 45.0469C56.6958 45.6172 56.5571 46.0957 56.2798 46.4824C56.0063 46.8652 55.6235 47.1602 55.1313 47.3672L57.0473 50.9238V51H55.4595L53.7485 47.7129ZM52.0962 46.5234H53.6196C54.1196 46.5234 54.5102 46.3984 54.7915 46.1484C55.0727 45.8945 55.2134 45.5488 55.2134 45.1113C55.2134 44.6543 55.0825 44.3008 54.8208 44.0508C54.563 43.8008 54.1763 43.6719 53.6606 43.6641H52.0962V46.5234ZM60.0265 51H58.5499V42.4688H60.0265V51ZM68.197 43.6641H65.5369V51H64.0662V43.6641H61.4295V42.4688H68.197V43.6641ZM73.7543 49.0137H70.4496L69.7582 51H68.2172L71.4398 42.4688H72.7699L75.9984 51H74.4516L73.7543 49.0137ZM70.8656 47.8184H73.3383L72.102 44.2793L70.8656 47.8184ZM78.8955 51H77.419V42.4688H78.8955V51ZM87.8454 51H86.363L82.5602 44.9473V51H81.0778V42.4688H82.5602L86.3747 48.5449V42.4688H87.8454V51Z" fill="#1AB248"/>
<path fill-rule="evenodd" clip-rule="evenodd" d="M21.7874 8.34135L18.2717 8.34233C11.2289 8.34578 5.1938 26.1654 13.5212 26.1625L18.8717 26.1615C21.9576 26.1615 24.2484 27.2874 23.234 30.3231L21.8363 34.5043L16.1616 34.5053L11.5457 34.4588C5.64072 34.3998 1.83019 31.4915 0.458148 27.0756C-1.0266 22.2968 1.0696 12.3298 7.15359 5.94496C10.6837 2.24092 15.5736 0.00343641 21.8432 0.00294444L33.4261 0.000976562L31.6154 5.22324C30.4456 8.59742 28.0555 8.34578 26.6915 8.34529L21.7874 8.34135Z" fill="#1AB248"/>
</svg>
