<svg width="115" height="48" viewBox="0 0 115 48" fill="none" xmlns="http://www.w3.org/2000/svg">
<path fill-rule="evenodd" clip-rule="evenodd" d="M74.6089 30.6087H82.3554L85.6839 20.9806L89.1438 18.0294L91.8699 26.7366C92.7131 29.4279 93.5804 30.6087 95.4736 30.6087H101.404L95.286 13.5227L110 0H100.497L91.5654 9.62833C90.5253 10.7492 89.4727 11.8524 88.4171 13.1701H88.3273L92.7869 0H85.0404L74.6089 30.6087Z" fill="#1AB248"/>
<path fill-rule="evenodd" clip-rule="evenodd" d="M73.9485 0.348986C76.4001 0.34938 78.7777 0.349763 80.7693 0.349936L79.1557 5.30306C78.6488 6.85927 77.3614 7.6038 74.5245 7.6038C69.5985 7.6038 62.3097 7.60295 57.3833 7.60209L58.9969 2.64897C59.5038 1.0919 60.7908 0.347797 63.6279 0.347797C66.5626 0.347797 70.3358 0.348404 73.9485 0.348986ZM59.6493 11.7202C64.575 11.7202 71.864 11.721 76.7904 11.7223L75.1769 16.6752C74.6699 18.2319 73.383 18.976 70.5456 18.976C65.6197 18.976 58.3309 18.9751 53.4045 18.9738L55.018 14.0214C55.525 12.4645 56.8121 11.7202 59.6493 11.7202ZM72.6169 23.0939C67.6905 23.0931 60.4017 23.0922 55.4758 23.0922C52.6382 23.0922 51.3514 23.8368 50.8445 25.3925L49.2309 30.3463C54.1574 30.3467 61.4461 30.3482 66.3723 30.3482C69.2092 30.3482 70.4964 29.6035 71.0033 28.0468L72.6169 23.0939Z" fill="#1AB248"/>
<path fill-rule="evenodd" clip-rule="evenodd" d="M39.0094 7.37232L43.2228 7.37406C46.8128 7.37493 45.9934 11.7833 44.1765 16.0797C42.5756 19.8665 39.7382 23.2082 36.3533 23.2078L29.3291 23.2069C26.5275 23.2069 25.2357 23.9665 24.6908 25.5538L22.9565 30.6078L28.1073 30.6087L33.1422 30.5675C37.6073 30.5312 41.2628 30.2139 45.5375 26.4367C50.055 22.4464 55.3223 12.0805 54.4199 6.08486C53.713 1.38652 51.1453 0.00218213 44.9276 0.0017457L33.5972 0L27 18.9841L31.1917 18.9893C33.6864 18.9921 34.9384 19.0229 36.2654 15.5119L39.0094 7.37232Z" fill="#1AB248"/>
<path fill-rule="evenodd" clip-rule="evenodd" d="M19.3276 7.39872L16.2088 7.39959C9.96111 7.40265 4.60741 23.2104 11.9946 23.2078L16.741 23.2069C19.4785 23.2069 21.5107 24.2057 20.6108 26.8986L19.3709 30.6078L14.3369 30.6087L10.2422 30.5675C5.00387 30.5151 1.62356 27.9352 0.406422 24.0178C-0.910697 19.7786 0.948841 10.9368 6.34592 5.27289C9.47747 1.98704 13.8153 0.00218213 19.377 0.0017457L29.6522 0L28.046 4.63266C27.0082 7.62588 24.8879 7.40265 23.678 7.40221L19.3276 7.39872Z" fill="#1AB248"/>
<path d="M7.40625 45.8926C7.09766 46.2949 6.66992 46.5996 6.12305 46.8066C5.57617 47.0137 4.95508 47.1172 4.25977 47.1172C3.54492 47.1172 2.91211 46.9551 2.36133 46.6309C1.81055 46.3066 1.38477 45.8438 1.08398 45.2422C0.787109 44.6367 0.632812 43.9316 0.621094 43.127V42.459C0.621094 41.1699 0.929688 40.1641 1.54688 39.4414C2.16406 38.7148 3.02539 38.3516 4.13086 38.3516C5.08008 38.3516 5.83398 38.5859 6.39258 39.0547C6.95117 39.5234 7.28711 40.1992 7.40039 41.082H5.94727C5.7832 40.0547 5.1875 39.541 4.16016 39.541C3.49609 39.541 2.99023 39.7812 2.64258 40.2617C2.29883 40.7383 2.12109 41.4395 2.10938 42.3652V43.0215C2.10938 43.9434 2.30273 44.6602 2.68945 45.1719C3.08008 45.6797 3.62109 45.9336 4.3125 45.9336C5.07031 45.9336 5.60938 45.7617 5.92969 45.418V43.748H4.17188V42.623H7.40625V45.8926ZM12.5299 43.7129H10.8776V47H9.39516V38.4688H12.3952C13.3795 38.4688 14.1393 38.6895 14.6745 39.1309C15.2096 39.5723 15.4772 40.2109 15.4772 41.0469C15.4772 41.6172 15.3385 42.0957 15.0612 42.4824C14.7877 42.8652 14.4049 43.1602 13.9127 43.3672L15.8287 46.9238V47H14.2409L12.5299 43.7129ZM10.8776 42.5234H12.401C12.901 42.5234 13.2916 42.3984 13.5729 42.1484C13.8541 41.8945 13.9948 41.5488 13.9948 41.1113C13.9948 40.6543 13.8639 40.3008 13.6022 40.0508C13.3444 39.8008 12.9577 39.6719 12.442 39.6641H10.8776V42.5234ZM22.2298 43.1914H18.7259V45.8164H22.8216V47H17.2434V38.4688H22.7805V39.6641H18.7259V42.0195H22.2298V43.1914ZM29.164 45.0137H25.8593L25.1679 47H23.6269L26.8495 38.4688H28.1796L31.4081 47H29.8612L29.164 45.0137ZM26.2753 43.8184H28.748L27.5116 40.2793L26.2753 43.8184ZM38.2017 39.6641H35.5416V47H34.0709V39.6641H31.4341V38.4688H38.2017V39.6641ZM42.6834 47V38.4688H45.6073C46.5721 38.4688 47.3065 38.6621 47.8104 39.0488C48.3143 39.4355 48.5662 40.0117 48.5662 40.7773C48.5662 41.168 48.4608 41.5195 48.2498 41.832C48.0389 42.1445 47.7303 42.3867 47.3241 42.5586C47.785 42.6836 48.1405 42.9199 48.3905 43.2676C48.6444 43.6113 48.7713 44.0254 48.7713 44.5098C48.7713 45.3105 48.5135 45.9258 47.9979 46.3555C47.4862 46.7852 46.7518 47 45.7948 47H42.6834ZM44.1659 43.1504V45.8164H45.8123C46.2772 45.8164 46.6405 45.7012 46.9022 45.4707C47.1639 45.2402 47.2948 44.9199 47.2948 44.5098C47.2948 43.623 46.8416 43.1699 45.9354 43.1504H44.1659ZM44.1659 42.0605H45.619C46.0799 42.0605 46.4393 41.957 46.6971 41.75C46.9588 41.5391 47.0897 41.2422 47.0897 40.8594C47.0897 40.4375 46.9686 40.1328 46.7264 39.9453C46.4881 39.7578 46.1151 39.6641 45.6073 39.6641H44.1659V42.0605ZM53.7485 43.7129H52.0962V47H50.6138V38.4688H53.6138C54.5981 38.4688 55.3579 38.6895 55.893 39.1309C56.4282 39.5723 56.6958 40.2109 56.6958 41.0469C56.6958 41.6172 56.5571 42.0957 56.2798 42.4824C56.0063 42.8652 55.6235 43.1602 55.1313 43.3672L57.0473 46.9238V47H55.4595L53.7485 43.7129ZM52.0962 42.5234H53.6196C54.1196 42.5234 54.5102 42.3984 54.7915 42.1484C55.0727 41.8945 55.2134 41.5488 55.2134 41.1113C55.2134 40.6543 55.0825 40.3008 54.8208 40.0508C54.563 39.8008 54.1763 39.6719 53.6606 39.6641H52.0962V42.5234ZM60.0265 47H58.5499V38.4688H60.0265V47ZM68.197 39.6641H65.5369V47H64.0662V39.6641H61.4295V38.4688H68.197V39.6641ZM73.7543 45.0137H70.4496L69.7582 47H68.2172L71.4398 38.4688H72.7699L75.9984 47H74.4516L73.7543 45.0137ZM70.8656 43.8184H73.3383L72.102 40.2793L70.8656 43.8184ZM78.8955 47H77.419V38.4688H78.8955V47ZM87.8454 47H86.363L82.5602 40.9473V47H81.0778V38.4688H82.5602L86.3747 44.5449V38.4688H87.8454V47Z" fill="#1AB248"/>
</svg>
