<svg width="210" height="662" viewBox="0 0 210 662" fill="none" xmlns="http://www.w3.org/2000/svg">
<mask id="mask0" mask-type="alpha" maskUnits="userSpaceOnUse" x="0" y="0" width="210" height="662">
<rect width="210" height="662" rx="25" fill="#FFDA44"/>
</mask>
<g mask="url(#mask0)">
<path fill-rule="evenodd" clip-rule="evenodd" d="M132.773 712.051L155.415 684.179C178.056 656.308 223.34 600.564 205.414 561.757C187.488 522.95 106.353 501.08 74.3811 466.036C42.4088 430.993 59.5992 382.777 83.8129 332.679C108.027 282.58 139.263 230.6 128.361 189.911C117.458 149.222 64.4163 119.825 32.4441 84.7816C0.471818 49.7383 -10.4307 9.04947 -14.31 -33.5213C-18.1893 -76.092 -15.0454 -120.545 -39.9944 -157.47C-64.9435 -194.395 -117.985 -223.793 -178.051 -251.308C-238.116 -278.824 -305.204 -304.458 -330.153 -341.383C-355.102 -378.308 -337.912 -426.525 -329.317 -450.633L-320.722 -474.741L-405 -452.158L-399.549 -431.814C-394.098 -411.47 -383.195 -370.781 -372.293 -330.092C-361.39 -289.403 -350.488 -248.714 -339.585 -208.025C-328.683 -167.336 -317.78 -126.648 -306.877 -85.9587C-295.975 -45.2698 -285.072 -4.58092 -274.17 36.1079C-263.267 76.7968 -252.365 117.486 -241.462 158.175C-230.56 198.863 -219.657 239.552 -208.755 280.241C-197.852 320.93 -186.949 361.619 -176.047 402.308C-165.144 442.997 -154.242 483.685 -143.339 524.374C-132.437 565.063 -121.534 605.752 -110.632 646.441C-99.7291 687.13 -88.8265 727.819 -83.3753 748.163L-77.924 768.508L132.773 712.051Z" fill="#FFDA44"/>
</g>
</svg>
