<svg width="48" height="59" viewBox="0 0 48 59" fill="none" xmlns="http://www.w3.org/2000/svg">
<path d="M5.90033 32.4506H41.3008C42.3865 32.4493 43.2663 31.5695 43.2676 30.4838V14.7503C43.2663 13.6647 42.3865 12.7848 41.3008 12.7836H5.90033C4.81469 12.7848 3.93486 13.6645 3.93359 14.7503V30.4838C3.93486 31.5696 4.81469 32.4493 5.90033 32.4506ZM5.90033 14.7503H41.3008L41.3019 30.4838H5.90033V14.7503Z" fill="#1AB248"/>
<path d="M11.8015 20.6505C11.8015 20.3898 11.6979 20.1397 11.5134 19.9553C11.329 19.7708 11.079 19.6672 10.8182 19.6672C10.5574 19.6672 10.3074 19.7708 10.123 19.9553L8.15625 21.9221C7.97176 22.1064 7.86816 22.3565 7.86816 22.6173C7.86816 22.8781 7.97176 23.1281 8.15625 23.3125L10.123 25.2792C10.507 25.6632 11.1295 25.6632 11.5135 25.2792C11.8975 24.8953 11.8975 24.2726 11.5135 23.8887L10.2421 22.6172L11.5137 21.3456C11.6979 21.1614 11.8015 20.9113 11.8015 20.6505Z" fill="#1AB248"/>
<path d="M37.0803 19.9558C36.6953 19.5777 36.0776 19.5806 35.6961 19.962C35.3145 20.3436 35.3118 20.9612 35.6898 21.3462L36.9612 22.6177L35.6898 23.8891C35.4389 24.137 35.3399 24.5004 35.4305 24.8412C35.521 25.1821 35.7873 25.4484 36.1282 25.539C36.4691 25.6296 36.8324 25.5306 37.0803 25.2796L39.047 23.3128C39.2315 23.1285 39.3351 22.8784 39.3351 22.6176C39.3351 22.3569 39.2315 22.1068 39.047 21.9224L37.0803 19.9558Z" fill="#1AB248"/>
<path d="M4.91702 54.0839H16.7172C16.978 54.084 17.2281 53.9804 17.4126 53.7959C17.597 53.6115 17.7006 53.3613 17.7006 53.1004V35.4003C17.7007 35.1395 17.5971 34.8893 17.4126 34.7048C17.2283 34.5205 16.9781 34.4169 16.7172 34.4169H4.91702C4.65624 34.4168 4.40606 34.5204 4.22157 34.7048C4.03719 34.8892 3.93359 35.1394 3.93359 35.4003V53.1006C3.93348 53.3613 4.03708 53.6115 4.22157 53.796C4.40595 53.9804 4.65612 54.084 4.91702 54.0839ZM5.90033 36.3836H15.7338V52.1171H5.90033V36.3836Z" fill="#1AB248"/>
<path d="M41.3007 34.4182H20.6504C20.3896 34.4181 20.1395 34.5217 19.955 34.7062C19.7706 34.8906 19.667 35.1407 19.667 35.4016V41.3017C19.6669 41.5625 19.7705 41.8127 19.955 41.9972C20.1393 42.1816 20.3895 42.2851 20.6504 42.2851H41.3007C41.5615 42.2853 41.8117 42.1817 41.9962 41.9972C42.1805 41.8128 42.2841 41.5626 42.2841 41.3017V35.4016C42.2843 35.1409 42.1807 34.8907 41.9962 34.7062C41.8117 34.5217 41.5615 34.4181 41.3007 34.4182ZM40.3174 40.3183H21.6337V36.3849H40.3173V40.3183H40.3174Z" fill="#1AB248"/>
<path d="M41.3006 44.2512H20.6503C20.1072 44.2512 19.667 44.6915 19.667 45.2345C19.667 45.7776 20.1073 46.2178 20.6503 46.2178H41.3006C41.8437 46.2178 42.2839 45.7775 42.2839 45.2345C42.2839 44.6915 41.8437 44.2512 41.3006 44.2512Z" fill="#1AB248"/>
<path d="M41.3006 52.1184H20.6503C20.1072 52.1184 19.667 52.5587 19.667 53.1017C19.667 53.6447 20.1073 54.085 20.6503 54.085H41.3006C41.8437 54.085 42.2839 53.6448 42.2839 53.1017C42.2839 52.5586 41.8437 52.1184 41.3006 52.1184Z" fill="#1AB248"/>
<path d="M20.6503 50.1505H28.5171C29.0602 50.1505 29.5004 49.7103 29.5004 49.1671C29.5004 48.624 29.0602 48.1838 28.5171 48.1838H20.6503C20.1072 48.1838 19.667 48.624 19.667 49.1671C19.667 49.7103 20.1072 50.1505 20.6503 50.1505Z" fill="#1AB248"/>
<path d="M41.3002 48.184H32.4501C31.907 48.184 31.4668 48.6242 31.4668 49.1673C31.4668 49.7104 31.907 50.1506 32.4501 50.1506H41.3002C41.8433 50.1506 42.2835 49.7104 42.2835 49.1673C42.2835 48.6242 41.8433 48.184 41.3002 48.184Z" fill="#1AB248"/>
<path d="M42.2839 0H4.91678C2.20262 0.00322661 0.00322661 2.20262 0 4.91678V54.0842C0.00322661 56.7984 2.20262 58.9977 4.91678 59.001H42.284C44.9982 58.9977 47.1976 56.7984 47.2008 54.0842V4.91678C47.1975 2.20262 44.9981 0.00322661 42.2839 0ZM45.234 54.0841C45.2322 55.7126 43.9124 57.0324 42.2839 57.0341H4.91678C3.28826 57.0324 1.96846 55.7126 1.96673 54.0841V9.83344H45.2341V54.0841H45.234ZM45.234 7.86682H1.96673V4.91678C1.96846 3.28826 3.28826 1.96846 4.91678 1.96673H42.284C43.9125 1.96846 45.2323 3.28826 45.2341 4.91678V7.86682H45.234Z" fill="#1AB248"/>
<path d="M5.52682 4.01143C5.40755 4.06132 5.29773 4.13127 5.2022 4.21828C5.02082 4.40553 4.91861 4.65571 4.91699 4.91649C4.91861 5.04498 4.94534 5.17185 4.9957 5.29009C5.04318 5.41039 5.11324 5.52067 5.20209 5.61471C5.29773 5.70148 5.40755 5.77131 5.52671 5.82121C5.64494 5.87157 5.77181 5.8983 5.9003 5.89991C5.96276 5.89807 6.0251 5.8915 6.08664 5.88021C6.15186 5.87076 6.21513 5.85082 6.2739 5.82109C6.33647 5.79943 6.39593 5.76958 6.45055 5.73225C6.49953 5.6933 6.54943 5.654 6.59852 5.61459C6.9788 5.22682 6.9788 4.60604 6.59852 4.21828C6.31596 3.93894 5.89304 3.85724 5.52682 4.01143Z" fill="#1AB248"/>
<path d="M10.3746 4.10031C10.3245 4.06124 10.2679 4.03117 10.2075 4.01146C10.1487 3.98173 10.0855 3.96191 10.0202 3.95281C9.83205 3.91317 9.63627 3.93368 9.46042 4.01135C9.34115 4.06124 9.23133 4.13119 9.1358 4.21831C8.75552 4.60608 8.75552 5.22686 9.1358 5.61463C9.23156 5.7014 9.34126 5.77123 9.46042 5.82113C9.57853 5.8716 9.70552 5.89834 9.83401 5.89984C9.89647 5.89799 9.95881 5.89142 10.0203 5.88013C10.0856 5.87068 10.1488 5.85074 10.2076 5.82101C10.268 5.80131 10.3246 5.77123 10.3747 5.73217C10.4277 5.69794 10.4773 5.65853 10.5225 5.61451C10.7348 5.40812 10.8416 5.11635 10.8128 4.8218C10.784 4.52726 10.6228 4.26175 10.3746 4.10031Z" fill="#1AB248"/>
<path d="M14.391 4.15196C14.1615 3.96458 13.8595 3.89152 13.5697 3.95318C13.5082 3.96366 13.4486 3.98348 13.393 4.01171C13.3301 4.03326 13.2704 4.06323 13.2153 4.10056L13.0684 4.21868C12.6881 4.60645 12.6881 5.22722 13.0684 5.61499C13.1174 5.6544 13.1664 5.6937 13.2153 5.73265C13.2703 5.76999 13.3301 5.79983 13.393 5.8215C13.4487 5.84973 13.5083 5.86967 13.5697 5.88061C13.6348 5.89145 13.7006 5.89801 13.7665 5.90032C14.0281 5.90285 14.2797 5.80006 14.4646 5.61511C14.6496 5.43016 14.7524 5.1786 14.7498 4.91701C14.7525 4.62062 14.6204 4.33933 14.391 4.15196Z" fill="#1AB248"/>
<path d="M27.5337 3.93311H19.6669C19.1238 3.93311 18.6836 4.37331 18.6836 4.91641C18.6836 5.45952 19.1238 5.89972 19.6669 5.89972H27.5337C28.0768 5.89972 28.517 5.45952 28.517 4.91641C28.517 4.37331 28.0768 3.93311 27.5337 3.93311Z" fill="#1AB248"/>
</svg>
