<svg width="66" height="64" viewBox="0 0 66 64" fill="none" xmlns="http://www.w3.org/2000/svg">
<path d="M63.9044 44.2972C62.5565 45.6418 60.7293 46.3954 58.8253 46.3919H7.17379C5.26982 46.3953 3.44264 45.6418 2.09473 44.2972L25.5101 20.8818L29.47 23.7513C31.5678 25.3011 34.4313 25.3011 36.5291 23.7513L40.489 20.8818L63.9044 44.2972Z" fill="#F7B40A"/>
<path d="M64.6217 3.43412L40.489 20.8809L36.5291 23.7504C34.4313 25.3002 31.5679 25.3002 29.4701 23.7504L25.5101 20.8809L1.34863 3.46291C2.69251 1.58354 4.86336 0.471287 7.17382 0.478551H58.8253C61.1189 0.480569 63.2731 1.57897 64.6217 3.43412Z" fill="#FFDA44"/>
<path d="M1.34879 3.46359L25.5103 20.8816L2.09491 44.2969C0.750355 42.949 -0.00330008 41.1218 6.26526e-05 39.2179V7.65301C-0.00625928 6.1488 0.466002 4.68157 1.34879 3.46359Z" fill="#FFCB07"/>
<path d="M66.0003 7.65272V39.2176C66.0037 41.1216 65.2502 42.9487 63.9056 44.2966L40.4902 20.8813L64.6229 3.43451C65.5189 4.65841 66.0013 6.13599 66.0003 7.65272Z" fill="#FFCB07"/>
<path d="M32.9992 63.6085C41.7155 63.6085 48.7815 56.5425 48.7815 47.8261C48.7815 39.1098 41.7155 32.0438 32.9992 32.0438C24.2828 32.0438 17.2168 39.1098 17.2168 47.8261C17.2168 56.5425 24.2828 63.6085 32.9992 63.6085Z" fill="#1AB248"/>
<path d="M30.1294 55.0002C29.7486 55.0009 29.3831 54.8502 29.1136 54.5812L23.3745 48.8421C22.8239 48.2722 22.8398 47.3639 23.4097 46.8133C23.9658 46.2762 24.8472 46.2762 25.4033 46.8133L30.1294 51.5367L39.1569 42.5092C39.7269 41.9586 40.6352 41.9745 41.1857 42.5444C41.7228 43.1005 41.7228 43.9819 41.1857 44.538L31.1424 54.5813C30.8735 54.8496 30.5092 55.0002 30.1294 55.0002Z" fill="#FAFAFA"/>
</svg>
