<svg width="58" height="60" viewBox="0 0 58 60" fill="none" xmlns="http://www.w3.org/2000/svg">
<path d="M57.0767 29.0458C56.804 28.7368 56.4687 28.4893 56.0931 28.3198C55.7175 28.1503 55.3101 28.0626 54.898 28.0625H43.8281L42.713 15.2207C42.6547 14.4946 42.3243 13.8174 41.7879 13.3245C41.2515 12.8316 40.5488 12.5594 39.8204 12.5625H36.7494V5.78125C36.7479 4.49708 36.2371 3.26595 35.329 2.3579C34.421 1.44985 33.1898 0.939038 31.9057 0.9375H14.4682C13.184 0.939038 11.9529 1.44985 11.0448 2.3579C10.1368 3.26595 9.62595 4.49708 9.62441 5.78125V12.5625H6.55348C5.82504 12.5594 5.12231 12.8316 4.58594 13.3245C4.04958 13.8174 3.71915 14.4946 3.66079 15.2207L0.123882 55.9082C0.0895449 56.3092 0.138838 56.7129 0.268639 57.0937C0.39844 57.4746 0.605922 57.8244 0.877942 58.1209C1.14996 58.4174 1.48059 58.6542 1.8489 58.8163C2.2172 58.9784 2.61515 59.0622 3.01754 59.0625H43.3563C43.7587 59.0621 44.1566 58.9781 44.5249 58.8159C44.8931 58.6537 45.2237 58.4168 45.4956 58.1202C45.7676 57.8236 45.9749 57.4738 46.1046 57.0928C46.2343 56.7119 46.2835 56.3082 46.249 55.9073L45.6803 49.375H53.2182V47.4375H45.5118L45.3432 45.5H53.4449C54.1533 45.5 54.8373 45.2413 55.3684 44.7725C55.8994 44.3037 56.241 43.6571 56.3288 42.9541L57.7819 31.3291C57.833 30.9203 57.7965 30.5053 57.6749 30.1116C57.5533 29.718 57.3494 29.3546 57.0767 29.0458ZM11.5619 5.78125C11.5619 5.01046 11.8681 4.27125 12.4131 3.72622C12.9582 3.18119 13.6974 2.875 14.4682 2.875H31.9057C32.6765 2.875 33.4157 3.18119 33.9607 3.72622C34.5057 4.27125 34.8119 5.01046 34.8119 5.78125V12.5625H11.5619V5.78125ZM44.3183 56.0749C44.3302 56.2084 44.3143 56.3429 44.2714 56.4698C44.2284 56.5968 44.1595 56.7134 44.069 56.8122C43.9785 56.911 43.8683 56.9899 43.7456 57.0437C43.6229 57.0976 43.4903 57.1253 43.3563 57.125H3.01754C2.88375 57.1247 2.75149 57.0966 2.62908 57.0426C2.50667 56.9886 2.39677 56.9099 2.3063 56.8113C2.21584 56.7127 2.14677 56.5965 2.10345 56.4699C2.06013 56.3433 2.0435 56.2092 2.0546 56.0758L5.59054 15.3883C5.61217 15.1472 5.72272 14.9227 5.9007 14.7585C6.07867 14.5943 6.31135 14.5022 6.55348 14.5H9.62441V23.2188H11.5619V14.5H34.8119V23.2188H36.7494V14.5H39.8204C40.0625 14.5022 40.2952 14.5943 40.4731 14.7585C40.6511 14.9227 40.7617 15.1472 40.7833 15.3883L41.8838 28.0625H32.6041L30.8875 22.9126C30.8232 22.7196 30.6998 22.5518 30.5348 22.4329C30.3698 22.3139 30.1716 22.25 29.9682 22.25H26.0932V24.1875H29.2697L30.9563 29.2473L32.8744 44.5913V48.4062C32.8744 48.6632 32.9765 48.9096 33.1582 49.0913C33.3398 49.2729 33.5862 49.375 33.8432 49.375H43.7351L44.3183 56.0749ZM43.5665 47.4375H34.8119V45.5H43.3979L43.5665 47.4375ZM54.4068 42.7139C54.3775 42.9483 54.2636 43.1639 54.0864 43.3202C53.9093 43.4765 53.6811 43.5627 53.4449 43.5625H34.6986L33.0033 30H54.897C55.0344 29.9999 55.1703 30.029 55.2956 30.0855C55.4209 30.1419 55.5327 30.2244 55.6237 30.3274C55.7147 30.4303 55.7827 30.5515 55.8233 30.6828C55.8639 30.8141 55.876 30.9525 55.859 31.0889L54.4068 42.7139Z" fill="#1AB248"/>
<path d="M47.4072 52.2816C47.4072 52.8564 47.5777 53.4183 47.897 53.8962C48.2164 54.3741 48.6703 54.7466 49.2013 54.9666C49.7324 55.1865 50.3167 55.2441 50.8805 55.132C51.4442 55.0198 51.9621 54.743 52.3685 54.3366C52.775 53.9301 53.0517 53.4123 53.1639 52.8485C53.276 52.2848 53.2185 51.7004 52.9985 51.1694C52.7785 50.6383 52.406 50.1844 51.9281 49.8651C51.4502 49.5458 50.8883 49.3753 50.3135 49.3753C49.5427 49.3753 48.8035 49.6815 48.2584 50.2265C47.7134 50.7716 47.4072 51.5108 47.4072 52.2816ZM50.3135 51.3128C50.5051 51.3128 50.6924 51.3696 50.8517 51.4761C51.011 51.5825 51.1352 51.7338 51.2085 51.9108C51.2818 52.0878 51.301 52.2826 51.2636 52.4706C51.2262 52.6585 51.134 52.8311 50.9985 52.9666C50.863 53.102 50.6904 53.1943 50.5025 53.2317C50.3146 53.2691 50.1198 53.2499 49.9428 53.1766C49.7657 53.1032 49.6144 52.9791 49.508 52.8198C49.4015 52.6605 49.3447 52.4732 49.3447 52.2816C49.3447 52.0246 49.4468 51.7782 49.6285 51.5965C49.8101 51.4149 50.0565 51.3128 50.3135 51.3128Z" fill="#1AB248" stroke="#1AB248" stroke-width="0.1"/>
<path d="M34.8135 52.2816C34.8135 52.8564 34.9839 53.4183 35.3033 53.8962C35.6226 54.3741 36.0765 54.7466 36.6076 54.9666C37.1386 55.1865 37.723 55.2441 38.2867 55.132C38.8505 55.0198 39.3683 54.743 39.7748 54.3366C40.1812 53.9301 40.458 53.4123 40.5701 52.8485C40.6823 52.2848 40.6247 51.7004 40.4048 51.1694C40.1848 50.6383 39.8123 50.1844 39.3344 49.8651C38.8564 49.5458 38.2945 49.3753 37.7197 49.3753C36.9489 49.3753 36.2097 49.6815 35.6647 50.2265C35.1197 50.7716 34.8135 51.5108 34.8135 52.2816ZM37.7197 51.3128C37.9113 51.3128 38.0986 51.3696 38.2579 51.4761C38.4172 51.5825 38.5414 51.7338 38.6147 51.9108C38.6881 52.0878 38.7072 52.2826 38.6699 52.4706C38.6325 52.6585 38.5402 52.8311 38.4047 52.9666C38.2693 53.102 38.0966 53.1943 37.9087 53.2317C37.7208 53.2691 37.526 53.2499 37.349 53.1766C37.172 53.1032 37.0207 52.9791 36.9142 52.8198C36.8078 52.6605 36.751 52.4732 36.751 52.2816C36.751 52.0246 36.853 51.7782 37.0347 51.5965C37.2164 51.4149 37.4628 51.3128 37.7197 51.3128Z" fill="#1AB248" stroke="#1AB248" stroke-width="0.1"/>
</svg>
