<svg width="66" height="66" viewBox="0 0 66 66" fill="none" xmlns="http://www.w3.org/2000/svg">
<path d="M33 66C51.2254 66 66 51.2254 66 33C66 14.7746 51.2254 0 33 0C14.7746 0 0 14.7746 0 33C0 51.2254 14.7746 66 33 66Z" fill="#1AB248"/>
<path d="M33.002 18.3069C16.1673 18.3069 6.21191 33.0007 6.21191 33.0007C6.21191 33.0007 16.1673 47.6946 33.002 47.6946C49.8368 47.6946 59.7921 33.0007 59.7921 33.0007C59.7924 33.0007 49.8369 18.3069 33.002 18.3069Z" fill="white"/>
<path d="M32.9998 44.7301C39.4783 44.7301 44.7301 39.4783 44.7301 32.9998C44.7301 26.5214 39.4783 21.2695 32.9998 21.2695C26.5214 21.2695 21.2695 26.5214 21.2695 32.9998C21.2695 39.4783 26.5214 44.7301 32.9998 44.7301Z" fill="#00C379"/>
<path d="M32.9999 39.0486C36.3405 39.0486 39.0486 36.3405 39.0486 32.9999C39.0486 29.6593 36.3405 26.9512 32.9999 26.9512C29.6593 26.9512 26.9512 29.6593 26.9512 32.9999C26.9512 36.3405 29.6593 39.0486 32.9999 39.0486Z" fill="#3C3B41"/>
<path d="M33 26.9521V39.0484C36.3403 39.0484 39.0481 36.3405 39.0481 33.0003C39.0481 29.6602 36.3404 26.9521 33 26.9521Z" fill="#29292B"/>
<path d="M37.401 32.7719C39.2485 32.7719 40.7463 31.2742 40.7463 29.4266C40.7463 27.5791 39.2485 26.0813 37.401 26.0813C35.5534 26.0813 34.0557 27.5791 34.0557 29.4266C34.0557 31.2742 35.5534 32.7719 37.401 32.7719Z" fill="#D8D8DA"/>
</svg>
