<svg width="57" height="57" viewBox="0 0 57 57" fill="none" xmlns="http://www.w3.org/2000/svg">
<path d="M2.85 51.3H47.7196L49.692 55.3982C50.0233 56.0775 50.6108 56.5974 51.3253 56.8437C52.0398 57.09 52.8229 57.0424 53.5023 56.7116C54.1811 56.3808 54.7008 55.7942 54.9475 55.0805C55.1941 54.3669 55.1475 53.5846 54.8178 52.9053L54.0454 51.3H54.15C54.9056 51.2991 55.63 50.9986 56.1643 50.4643C56.6986 49.93 56.9991 49.2056 57 48.45V2.85C56.9991 2.0944 56.6986 1.37001 56.1643 0.835718C55.63 0.30143 54.9056 0.000879991 54.15 0H2.85C2.0944 0.000879991 1.37001 0.30143 0.835718 0.835718C0.30143 1.37001 0.000879991 2.0944 0 2.85V48.45C0.000879991 49.2056 0.30143 49.93 0.835718 50.4643C1.37001 50.9986 2.0944 51.2991 2.85 51.3ZM53.1525 54.4588C53.0914 54.636 52.9792 54.7912 52.83 54.9049C52.6809 55.0185 52.5014 55.0854 52.3143 55.0973C52.1272 55.1091 51.9407 55.0653 51.7784 54.9714C51.6162 54.8774 51.4853 54.7376 51.4024 54.5694L47.3387 46.1263L49.0467 45.294L53.108 53.7328C53.163 53.8449 53.1953 53.9667 53.2029 54.0913C53.2106 54.2159 53.1934 54.3408 53.1525 54.4588ZM45.6908 42.7025L47.3988 41.8701L48.2228 43.5822L46.5144 44.4149L45.6908 42.7025ZM54.15 49.4H53.1309L50.4256 43.7791C50.4097 43.7166 50.3873 43.656 50.359 43.5981C50.3323 43.5438 50.3005 43.4921 50.264 43.4437L48.6965 40.1863C48.6423 40.0735 48.5662 39.9726 48.4728 39.8893C48.3794 39.806 48.2705 39.742 48.1523 39.7009C48.0341 39.6599 47.9089 39.6426 47.784 39.65C47.6591 39.6574 47.5369 39.6895 47.4244 39.7443L46.5704 40.1599L45.8019 38.5829C47.4428 37.772 48.8986 36.631 50.0781 35.2315C51.2577 33.8319 52.1356 32.2039 52.6569 30.4493C53.1782 28.6948 53.3316 26.8515 53.1076 25.0349C52.8836 23.2184 52.287 21.4676 51.355 19.8922C50.4231 18.3169 49.176 16.9509 47.6918 15.8798C46.2076 14.8088 44.5182 14.0556 42.7295 13.6676C40.9407 13.2796 39.0911 13.2651 37.2965 13.6249C35.5019 13.9847 33.8009 14.7112 32.3 15.7588V12.35C32.3 12.098 32.1999 11.8564 32.0218 11.6782C31.8436 11.5001 31.602 11.4 31.35 11.4H4.75C4.49804 11.4 4.25641 11.5001 4.07825 11.6782C3.90009 11.8564 3.8 12.098 3.8 12.35V23.75C3.8 24.002 3.90009 24.2436 4.07825 24.4218C4.25641 24.5999 4.49804 24.7 4.75 24.7H26.7457C26.4104 26.9437 26.6546 29.2358 27.455 31.3585C28.2553 33.4812 29.5853 35.3639 31.3185 36.8277C33.0517 38.2915 35.1304 39.2876 37.3572 39.7214C39.5839 40.1552 41.8845 40.0123 44.0405 39.3062L44.8623 40.9925L44.0083 41.4081C43.7826 41.5182 43.6097 41.7132 43.5273 41.9505C43.445 42.1877 43.4599 42.4479 43.5689 42.6741L46.8052 49.4H2.85C2.59813 49.3997 2.35666 49.2995 2.17856 49.1214C2.00046 48.9433 1.90028 48.7019 1.9 48.45V9.5H55.1V48.45C55.0997 48.7019 54.9995 48.9433 54.8214 49.1214C54.6433 49.2995 54.4019 49.3997 54.15 49.4ZM27.174 22.8H5.7V20.9H21.85C22.102 20.9 22.3436 20.7999 22.5218 20.6218C22.6999 20.4436 22.8 20.202 22.8 19.95C22.8 19.698 22.6999 19.4564 22.5218 19.2782C22.3436 19.1001 22.102 19 21.85 19H5.7V17.1H12.35C12.602 17.1 12.8436 16.9999 13.0218 16.8218C13.1999 16.6436 13.3 16.402 13.3 16.15C13.3 15.898 13.1999 15.6564 13.0218 15.4782C12.8436 15.3001 12.602 15.2 12.35 15.2H5.7V13.3H30.4V17.3692C28.9045 18.8944 27.7981 20.7571 27.174 22.8ZM39.9 15.267C42.1547 15.267 44.3588 15.9356 46.2335 17.1882C48.1082 18.4409 49.5694 20.2213 50.4322 22.3044C51.2951 24.3875 51.5208 26.6796 51.081 28.891C50.6411 31.1024 49.5553 33.1337 47.961 34.728C46.3667 36.3223 44.3354 37.4081 42.124 37.8479C39.9126 38.2878 37.6205 38.062 35.5374 37.1992C33.4543 36.3364 31.6739 34.8752 30.4212 33.0005C29.1686 31.1258 28.5 28.9217 28.5 26.667C28.5034 23.6446 29.7056 20.7469 31.8428 18.6097C33.9799 16.4726 36.8776 15.2704 39.9 15.267ZM2.85 1.9H54.15C54.4019 1.90028 54.6433 2.00046 54.8214 2.17856C54.9995 2.35666 55.0997 2.59813 55.1 2.85V7.6H1.9V2.85C1.90028 2.59813 2.00046 2.35666 2.17856 2.17856C2.35666 2.00046 2.59813 1.90028 2.85 1.9Z" fill="#1AB248"/>
<path d="M12.3514 5.70005C12.876 5.70005 13.3014 5.27472 13.3014 4.75005C13.3014 4.22538 12.876 3.80005 12.3514 3.80005C11.8267 3.80005 11.4014 4.22538 11.4014 4.75005C11.4014 5.27472 11.8267 5.70005 12.3514 5.70005Z" fill="#1AB248"/>
<path d="M8.54961 5.70005C9.07428 5.70005 9.49961 5.27472 9.49961 4.75005C9.49961 4.22538 9.07428 3.80005 8.54961 3.80005C8.02494 3.80005 7.59961 4.22538 7.59961 4.75005C7.59961 5.27472 8.02494 5.70005 8.54961 5.70005Z" fill="#1AB248"/>
<path d="M4.75176 5.70005C5.27643 5.70005 5.70176 5.27472 5.70176 4.75005C5.70176 4.22538 5.27643 3.80005 4.75176 3.80005C4.22709 3.80005 3.80176 4.22538 3.80176 4.75005C3.80176 5.27472 4.22709 5.70005 4.75176 5.70005Z" fill="#1AB248"/>
<path d="M4.75176 29.4999H12.3518C12.6037 29.4999 12.8453 29.3998 13.0235 29.2216C13.2017 29.0434 13.3018 28.8018 13.3018 28.5499C13.3018 28.2979 13.2017 28.0563 13.0235 27.8781C12.8453 27.6999 12.6037 27.5999 12.3518 27.5999H4.75176C4.4998 27.5999 4.25817 27.6999 4.08001 27.8781C3.90185 28.0563 3.80176 28.2979 3.80176 28.5499C3.80176 28.8018 3.90185 29.0434 4.08001 29.2216C4.25817 29.3998 4.4998 29.4999 4.75176 29.4999Z" fill="#1AB248"/>
<path d="M3.80176 32.3506C3.80176 32.6026 3.90185 32.8442 4.08001 33.0224C4.25817 33.2005 4.4998 33.3006 4.75176 33.3006H21.8518C22.1037 33.3006 22.3454 33.2005 22.5235 33.0224C22.7017 32.8442 22.8018 32.6026 22.8018 32.3506C22.8018 32.0987 22.7017 31.857 22.5235 31.6789C22.3454 31.5007 22.1037 31.4006 21.8518 31.4006H4.75176C4.4998 31.4006 4.25817 31.5007 4.08001 31.6789C3.90185 31.857 3.80176 32.0987 3.80176 32.3506Z" fill="#1AB248"/>
<path d="M4.75176 37.1004H12.3518C12.6037 37.1004 12.8453 37.0004 13.0235 36.8222C13.2017 36.644 13.3018 36.4024 13.3018 36.1504C13.3018 35.8985 13.2017 35.6568 13.0235 35.4787C12.8453 35.3005 12.6037 35.2004 12.3518 35.2004H4.75176C4.4998 35.2004 4.25817 35.3005 4.08001 35.4787C3.90185 35.6568 3.80176 35.8985 3.80176 36.1504C3.80176 36.4024 3.90185 36.644 4.08001 36.8222C4.25817 37.0004 4.4998 37.1004 4.75176 37.1004Z" fill="#1AB248"/>
<path d="M3.80176 39.9502C3.80176 40.2022 3.90185 40.4438 4.08001 40.622C4.25817 40.8002 4.4998 40.9002 4.75176 40.9002H26.6018C26.8537 40.9002 27.0953 40.8002 27.2735 40.622C27.4517 40.4438 27.5518 40.2022 27.5518 39.9502C27.5518 39.6983 27.4517 39.4567 27.2735 39.2785C27.0953 39.1003 26.8537 39.0002 26.6018 39.0002H4.75176C4.4998 39.0002 4.25817 39.1003 4.08001 39.2785C3.90185 39.4567 3.80176 39.6983 3.80176 39.9502Z" fill="#1AB248"/>
<path d="M4.75176 44.7H12.3518C12.6037 44.7 12.8453 44.6 13.0235 44.4218C13.2017 44.2436 13.3018 44.002 13.3018 43.75C13.3018 43.4981 13.2017 43.2565 13.0235 43.0783C12.8453 42.9001 12.6037 42.8 12.3518 42.8H4.75176C4.4998 42.8 4.25817 42.9001 4.08001 43.0783C3.90185 43.2565 3.80176 43.4981 3.80176 43.75C3.80176 44.002 3.90185 44.2436 4.08001 44.4218C4.25817 44.6 4.4998 44.7 4.75176 44.7Z" fill="#1AB248"/>
<path d="M39.9002 28.5004C40.1522 28.5004 40.3938 28.4004 40.5719 28.2222C40.7501 28.044 40.8502 27.8024 40.8502 27.5504V25.6504C40.8502 25.3985 40.7501 25.1568 40.5719 24.9787C40.3938 24.8005 40.1522 24.7004 39.9002 24.7004C39.6482 24.7004 39.4066 24.8005 39.2284 24.9787C39.0503 25.1568 38.9502 25.3985 38.9502 25.6504V27.5504C38.9502 27.8024 39.0503 28.044 39.2284 28.2222C39.4066 28.4004 39.6482 28.5004 39.9002 28.5004Z" fill="#1AB248"/>
<path d="M36.1014 28.5004C36.3533 28.5004 36.595 28.4004 36.7731 28.2222C36.9513 28.044 37.0514 27.8024 37.0514 27.5504V25.6504C37.0514 25.3985 36.9513 25.1568 36.7731 24.9787C36.595 24.8005 36.3533 24.7004 36.1014 24.7004C35.8494 24.7004 35.6078 24.8005 35.4296 24.9787C35.2515 25.1568 35.1514 25.3985 35.1514 25.6504V27.5504C35.1514 27.8024 35.2515 28.044 35.4296 28.2222C35.6078 28.4004 35.8494 28.5004 36.1014 28.5004Z" fill="#1AB248"/>
<path d="M43.7 28.4999C43.952 28.4999 44.1936 28.3998 44.3718 28.2217C44.5499 28.0435 44.65 27.8019 44.65 27.5499V23.7499C44.65 23.498 44.5499 23.2563 44.3718 23.0782C44.1936 22.9 43.952 22.7999 43.7 22.7999C43.448 22.7999 43.2064 22.9 43.0282 23.0782C42.8501 23.2563 42.75 23.498 42.75 23.7499V27.5499C42.75 27.8019 42.8501 28.0435 43.0282 28.2217C43.2064 28.3998 43.448 28.4999 43.7 28.4999Z" fill="#1AB248"/>
<path d="M39.8975 36.1702C41.7764 36.1702 43.6131 35.613 45.1754 34.5691C46.7376 33.5253 47.9553 32.0416 48.6743 30.3057C49.3934 28.5698 49.5815 26.6596 49.2149 24.8168C48.8484 22.974 47.9436 21.2813 46.615 19.9527C45.2864 18.6241 43.5936 17.7193 41.7508 17.3527C39.908 16.9862 37.9979 17.1743 36.262 17.8933C34.5261 18.6123 33.0424 19.83 31.9985 21.3923C30.9546 22.9545 30.3975 24.7912 30.3975 26.6702C30.4003 29.1888 31.4021 31.6035 33.1831 33.3845C34.9641 35.1655 37.3788 36.1673 39.8975 36.1702ZM39.8975 19.0702C41.4006 19.0702 42.87 19.5159 44.1198 20.351C45.3696 21.1861 46.3437 22.3731 46.9189 23.7618C47.4942 25.1505 47.6447 26.6786 47.3514 28.1529C47.0582 29.6271 46.3344 30.9813 45.2715 32.0442C44.2086 33.1071 42.8544 33.8309 41.3801 34.1241C39.9059 34.4174 38.3778 34.2669 36.9891 33.6917C35.6003 33.1164 34.4134 32.1423 33.5783 30.8925C32.7432 29.6427 32.2975 28.1733 32.2975 26.6702C32.2998 24.6552 33.1012 22.7235 34.526 21.2987C35.9508 19.8739 37.8825 19.0725 39.8975 19.0702Z" fill="#1AB248"/>
</svg>
