<svg width="62" height="60" viewBox="0 0 62 60" fill="none" xmlns="http://www.w3.org/2000/svg">
<path d="M50.1359 20.8692C54.1687 17.5673 52.7757 11.0377 47.7364 9.68443C46.4197 9.33083 45.0565 9.40438 43.807 9.88149L39.8029 2.92988C38.1736 0.100998 34.1325 0.0260323 32.3975 2.78422C27.4726 10.6141 20.9116 17.2734 13.1221 22.327C12.6785 22.6141 12.5141 23.2076 12.7766 23.6907C12.8187 23.768 19.451 35.2812 19.495 35.3575C19.7802 35.8526 20.4118 36.0227 20.9065 35.7366C21.4007 35.4506 21.5701 34.8171 21.2847 34.3217L15.0652 23.5236C22.4926 18.5466 29.0707 11.9575 34.1458 3.88903C35.0535 2.44578 37.1633 2.49058 38.013 3.96568L52.3504 28.8573C53.2011 30.3343 52.1812 32.1863 50.483 32.2526C40.9558 32.6247 31.628 35.0672 23.0998 39.4393C23.0635 39.4578 13.3944 45.0544 12.7285 45.4397C11.0001 46.44 8.78224 45.8443 7.78453 44.1118L2.55043 35.0244C1.55259 33.292 2.1469 31.0689 3.87519 30.0687L10.1747 26.4231C10.6689 26.1371 10.8382 25.5036 10.5529 25.0082C10.2676 24.5127 9.6354 24.3431 9.14133 24.6291L2.84183 28.2747C0.12668 29.8459 -0.806961 33.3385 0.760647 36.0602L5.99487 45.1475C7.56261 47.8693 11.047 48.8048 13.7621 47.2335L14.0004 47.0957L20.4627 58.315C21.3909 59.9266 23.4434 60.4785 25.0521 59.5477L27.3187 58.236C28.9268 57.3054 29.4768 55.2479 28.5484 53.6358L23.9684 45.6844C23.683 45.189 23.051 45.0193 22.5568 45.3053C22.0626 45.5913 21.8933 46.2248 22.1786 46.7202L26.7586 54.6716C27.1159 55.2919 26.9043 56.0838 26.2853 56.4419L24.0187 57.7536C23.3999 58.1117 22.6099 57.8995 22.2526 57.2792L15.7904 46.0599L24.0643 41.2715C32.1609 37.125 41.1681 34.6893 50.5636 34.3225C53.8197 34.1952 55.7672 30.6455 54.1402 27.8213L50.1359 20.8692ZM49.8407 13.7152C50.8609 15.4864 50.4945 17.6844 49.0823 19.0399L44.8603 11.7099C46.7112 11.1657 48.8042 11.9154 49.8407 13.7152ZM59.9478 9.11021L57.2741 10.6576C56.7795 10.9437 56.1477 10.7737 55.8625 10.2785C55.5771 9.78309 55.7465 9.14957 56.2407 8.86356L58.9144 7.31621C59.409 7.03008 60.0408 7.20008 60.326 7.69532C60.6113 8.19068 60.442 8.8242 59.9478 9.11021ZM48.4493 3.2067L49.1014 0.76792C49.2491 0.215324 49.8154 -0.112376 50.3671 0.035484C50.9184 0.183603 51.2455 0.751607 51.0977 1.30407L50.4456 3.74285C50.2983 4.29402 49.733 4.62341 49.1799 4.47529C48.6287 4.32717 48.3017 3.7593 48.4493 3.2067ZM61.9645 20.1703C61.8408 20.633 61.4233 20.9382 60.9669 20.9382C60.7799 20.9382 60.9107 20.9596 58.2657 20.2491C57.7144 20.101 57.3872 19.5332 57.535 18.9806C57.6828 18.428 58.2495 18.1004 58.8006 18.2481L61.2338 18.9016C61.785 19.0497 62.1123 19.6177 61.9645 20.1703Z" fill="#1AB248"/>
</svg>
