<svg width="68" height="49" viewBox="0 0 68 49" fill="none" xmlns="http://www.w3.org/2000/svg">
<path d="M53.7423 0.0183556C45.1808 -0.398844 38.0894 6.32569 37.9076 14.752C37.9072 14.7704 37.9008 14.7704 37.9006 14.752C37.7188 6.32569 30.6274 -0.398711 22.0659 0.0183556C12.663 0.476622 6.42228 9.67342 8.07335 18.9414C10.8504 34.5289 30.0344 45.2613 36.0822 48.2878C37.23 48.8622 38.5782 48.8622 39.726 48.2878C45.7738 45.2613 64.9578 34.5289 67.7347 18.9414C69.3859 9.67342 63.1451 0.476622 53.7423 0.0183556Z" fill="#1AB248"/>
<path d="M25.0101 16.7717C20.3487 16.5446 16.4875 20.2059 16.3884 24.7938C16.3883 24.8038 16.3847 24.8038 16.3845 24.7938C16.2856 20.2058 12.4244 16.5446 7.76281 16.7717C2.64308 17.0211 -0.754789 22.0286 0.144145 27.0749C1.65614 35.562 12.1015 41.4056 15.3944 43.0534C16.0193 43.3662 16.7535 43.3662 17.3784 43.0534C20.6713 41.4056 31.1167 35.562 32.6287 27.0749C33.5278 22.0286 30.1299 17.0211 25.0101 16.7717Z" fill="#FFDA44"/>
</svg>
