<svg width="183" height="115" viewBox="0 0 183 115" fill="none" xmlns="http://www.w3.org/2000/svg">
<path d="M173.485 72.5587V74.4368C173.485 75.3759 172.92 76.2523 171.77 76.9201L109.139 113.021C106.588 114.482 102.155 114.315 99.206 112.604L2.42578 56.8454C0.815564 55.9272 0 54.7377 0 53.6109V51.7328C0 51.8997 0.0209119 52.0875 0.0627357 52.2545C0.271855 53.2144 1.06651 54.1743 2.42578 54.9673L99.206 110.726C102.134 112.416 106.588 112.604 109.139 111.143L171.77 75.0628C172.711 74.5203 173.255 73.8316 173.422 73.1013C173.464 72.9135 173.485 72.7465 173.485 72.5587Z" fill="url(#paint0_linear)"/>
<path d="M173.485 72.5585C173.485 72.7254 173.464 72.8924 173.422 73.0802C173.255 73.8106 172.711 74.4992 171.77 75.0418L109.139 111.143C106.588 112.604 102.155 112.437 99.206 110.725L2.42578 54.9671C1.06651 54.195 0.271855 53.2142 0.0627357 52.2543C0.0209119 52.0873 0 51.8995 0 51.7326C0 50.7935 0.564621 49.9171 1.71478 49.2493L64.3668 13.1691C66.9181 11.7084 71.3514 11.8962 74.3 13.5865L171.059 69.324C172.67 70.2631 173.485 71.4525 173.485 72.5585Z" fill="#B78B60"/>
<path d="M102.678 104.487L17.4619 55.5936L75.7225 22.0385L160.938 71.1192L102.678 104.487Z" fill="#EBEBEB"/>
<path d="M101.423 104.695L16.625 55.5936L74.8855 22.0385L160.102 71.1192L101.423 104.695Z" fill="#D4D4D4"/>
<path d="M101.632 104.278L16.416 55.176L74.6765 21.6208L159.893 70.7016L101.632 104.278Z" fill="white"/>
<path d="M130.756 72.8628H126.207V74.7353H133.779V67.1353H130.756V72.8628Z" fill="#1AB248"/>
<path d="M122.143 66.6347C117.465 69.3451 117.465 73.7658 122.143 76.5025C126.822 79.2129 134.427 79.2129 139.105 76.5025C143.784 73.7921 143.784 69.3714 139.105 66.6347C134.427 63.9243 126.822 63.9243 122.143 66.6347ZM137.276 75.4499C133.617 77.5814 127.658 77.5814 123.973 75.4499C120.314 73.3185 120.314 69.845 123.973 67.7136C127.632 65.5821 133.591 65.5821 137.276 67.7136C140.935 69.845 140.935 73.3185 137.276 75.4499Z" fill="#1AB248"/>
<path d="M81.4521 85.5384L82.2468 85.9975L86.6174 83.4725L85.8227 83.0134L81.4521 85.5384Z" fill="#555555"/>
<path d="M87.6413 82.8882C89.2306 81.97 98.6619 76.5235 100.251 75.6262L99.4565 75.1671C99.0801 75.3758 87.2022 82.2204 86.8467 82.4291L87.6413 82.8882Z" fill="#555555"/>
<path d="M92.2843 83.431L85.0488 87.6046L85.8644 88.0637L93.0999 83.911L92.2843 83.431Z" fill="#555555"/>
<path d="M104.998 71.9536L100.481 74.5829L101.276 75.042L105.814 72.4336L104.998 71.9536Z" fill="#555555"/>
<path d="M93.3086 82.8466L94.1032 83.3057C95.1488 82.7005 106.734 76.0229 107.152 75.7933L106.358 75.3342C105.918 75.5846 94.2915 82.2831 93.3086 82.8466Z" fill="#555555"/>
<path d="M106.818 71.8283C108.073 71.0979 116.626 66.1731 117.734 65.5262L116.939 65.0671C115.831 65.714 107.195 70.6805 106.023 71.3692L106.818 71.8283Z" fill="#555555"/>
<path d="M56.9643 66.4026L52.5938 68.9067L53.4093 69.3658L57.759 66.8617L56.9643 66.4026Z" fill="#555555"/>
<path d="M62.0245 67.634L56.2109 70.9937L57.0056 71.4528L62.84 68.0931L62.0245 67.634Z" fill="#555555"/>
<path d="M63.6763 70.8477L59.8076 73.0596L60.6232 73.5187L64.471 71.3067L63.6763 70.8477Z" fill="#555555"/>
<path d="M65.4958 70.7224L73.3587 66.1941L72.5641 65.7141L64.7012 70.2633L65.4958 70.7224Z" fill="#555555"/>
<path d="M69.9921 71.3693L63.4258 75.1463L64.2204 75.6054L70.7868 71.8284L69.9921 71.3693Z" fill="#555555"/>
<path d="M90.4443 47.1003L91.239 47.5594C92.1173 47.0377 98.0563 43.6362 99.311 42.9059L98.5163 42.4468C97.2825 43.1771 91.3435 46.5995 90.4443 47.1003Z" fill="#555555"/>
<path d="M81.87 52.0454L72.627 57.3875L73.4216 57.8466L82.6647 52.5045L81.87 52.0454Z" fill="#555555"/>
<path d="M89.4191 47.6847L82.8945 51.4617L83.6892 51.9208L90.2346 48.1646L89.4191 47.6847Z" fill="#555555"/>
<path d="M72.3966 58.4316L71.6019 57.9725C70.8909 58.3899 58.6993 65.4014 57.9883 65.8188L58.7829 66.2779C59.5985 65.7979 71.6856 58.849 72.3966 58.4316Z" fill="#555555"/>
<path d="M98.5372 47.5384L102.929 44.9925L102.113 44.5334L97.7217 47.0584L98.5372 47.5384Z" fill="#555555"/>
<path d="M88.9383 52.1294L79.5488 57.5341L80.3644 57.9932L89.7329 52.5885L88.9383 52.1294Z" fill="#555555"/>
<path d="M96.6965 47.6637L89.9629 51.5451L90.7575 52.0042L97.5121 48.1228L96.6965 47.6637Z" fill="#555555"/>
<path d="M63.0498 67.0499L63.8445 67.509C64.4718 67.1542 78.2737 59.2036 79.3402 58.5776L78.5455 58.1185C77.8136 58.5359 63.719 66.6534 63.0498 67.0499Z" fill="#555555"/>
<path d="M87.7048 57.9307L98.2026 51.8791L97.408 51.3992L86.9102 57.4508L87.7048 57.9307Z" fill="#555555"/>
<path d="M73.5684 65.1302L74.363 65.5892C75.0949 65.1719 85.9482 58.9116 86.6592 58.4942L85.8646 58.0352C85.4882 58.2647 74.844 64.4207 73.5684 65.1302Z" fill="#555555"/>
<path d="M105.773 51.6704L110.143 49.1454L109.328 48.6863L104.957 51.2113L105.773 51.6704Z" fill="#555555"/>
<path d="M92.8486 58.1811L93.6642 58.6401L99.7287 55.1344L98.934 54.6753L92.8486 58.1811Z" fill="#555555"/>
<path d="M91.8454 58.7655L83.5225 63.5651L84.3171 64.0241L92.64 59.2246L91.8454 58.7655Z" fill="#555555"/>
<path d="M83.2919 64.6079L82.4972 64.1488C82.0372 64.4201 71.4558 70.5134 71.0166 70.7638L71.8113 71.2229C72.2504 70.9725 82.8318 64.8792 83.2919 64.6079Z" fill="#555555"/>
<path d="M100.754 54.5499L104.748 52.2545L103.953 51.7954L99.959 54.0909L100.754 54.5499Z" fill="#555555"/>
<path d="M80.6364 69.3658L77.416 71.2231L78.2316 71.6822L81.452 69.8458L80.6364 69.3658Z" fill="#555555"/>
<path d="M82.4558 69.2409L91.1133 64.2744L90.3186 63.8153L81.6611 68.7818L82.4558 69.2409Z" fill="#555555"/>
<path d="M76.4119 71.8075C75.6382 72.2457 68.5281 76.3566 67.0225 77.2122L67.8171 77.6713C69.3019 76.8157 76.4328 72.7048 77.2066 72.2666L76.4119 71.8075Z" fill="#555555"/>
<path d="M91.7404 67.1329L83.041 72.162L83.8357 72.6211L92.5559 67.592L91.7404 67.1329Z" fill="#555555"/>
<path d="M76.7673 76.6906L82.8109 73.2057L82.0162 72.7466L75.9727 76.2315L76.7673 76.6906Z" fill="#555555"/>
<path d="M74.9485 76.8159L70.6406 79.2992L71.4353 79.7583L75.7641 77.275L74.9485 76.8159Z" fill="#555555"/>
<path d="M91.447 71.4528L85.5498 74.8542L86.3654 75.3133L92.2625 71.9119L91.447 71.4528Z" fill="#555555"/>
<path d="M84.526 75.4384C83.3131 76.127 75.4502 80.6761 74.2373 81.3648L75.032 81.8239C77.2486 80.5509 83.0412 77.2121 85.3206 75.8974L84.526 75.4384Z" fill="#555555"/>
<path d="M84.7976 80.3635L92.9742 75.6474L92.1795 75.1884L84.0029 79.9044L84.7976 80.3635Z" fill="#555555"/>
<path d="M105.626 67.446L93.2041 74.6037L93.9988 75.0627L106.42 67.926L105.626 67.446Z" fill="#555555"/>
<path d="M82.9783 80.4885L77.834 83.4517L78.6495 83.9108L83.7939 80.9476L82.9783 80.4885Z" fill="#555555"/>
<path d="M109.097 52.9845C108.888 53.1097 91.5314 63.1053 91.3223 63.2305L92.1169 63.6896C92.5142 63.4601 107.968 54.5704 109.892 53.4436L109.097 52.9845Z" fill="#555555"/>
<path d="M110.917 52.8597L113.74 51.232L112.945 50.7729L110.122 52.4006L110.917 52.8597Z" fill="#555555"/>
<path d="M92.7646 66.5488L93.5593 67.0079C94.0612 66.7158 106.295 59.6833 106.943 59.3077L106.148 58.8486C105.437 59.2451 93.5175 66.1106 92.7646 66.5488Z" fill="#555555"/>
<path d="M107.988 61.9371C107.486 62.2293 92.9108 70.6181 92.4717 70.8685L93.2663 71.3276C93.9146 70.952 108.218 62.7092 108.783 62.3962L107.988 61.9371Z" fill="#555555"/>
<path d="M112.38 59.412L109.014 61.3318L109.808 61.8118L113.175 59.8711L112.38 59.412Z" fill="#555555"/>
<path d="M114.199 59.2868L120.954 55.3845L120.159 54.9254L113.384 58.8277L114.199 59.2868Z" fill="#555555"/>
<path d="M119.972 60.1221L124.572 57.4719L123.757 56.9919L119.156 59.6421L119.972 60.1221Z" fill="#555555"/>
<path d="M115.182 62.8763L118.946 60.706L118.131 60.2469L114.388 62.3963L115.182 62.8763Z" fill="#555555"/>
<path d="M113.363 63.0011C111.816 63.8984 108.177 65.9852 106.65 66.8825L107.445 67.3416C107.842 67.112 113.468 63.8775 114.158 63.4602L113.363 63.0011Z" fill="#555555"/>
<path d="M64.3822 34.749C64.8842 35.0343 64.8864 35.757 64.3862 36.0453L40.7385 49.6782C40.5039 49.8135 40.2151 49.8137 39.9803 49.6789C39.4716 49.3868 39.4713 48.6531 39.9798 48.3606L63.6408 34.751C63.8701 34.6191 64.1521 34.6183 64.3822 34.749Z" fill="#555555"/>
<path d="M62.0697 41.0993C62.5782 41.3913 62.5784 42.1248 62.07 42.417L51.751 48.3479C51.5215 48.4798 51.2394 48.4805 51.0093 48.3497C50.5071 48.0644 50.5046 47.3416 51.0048 47.0527L61.3113 41.1003C61.5459 40.9648 61.8348 40.9645 62.0697 41.0993Z" fill="#555555"/>
<path d="M84.3166 34.2874L83.7311 33.9535L37.8086 60.3928L38.3941 60.7267L40.9454 59.266L42.5556 60.205L40.0043 61.6658L40.5899 61.9996L43.1411 60.5389L44.7513 61.4779L42.2001 62.9387L42.7856 63.2726L45.3369 61.8118L46.9471 62.7509L44.3958 64.2116L44.9814 64.5455L47.5326 63.0848L49.1428 64.0238L46.5916 65.4845L47.1771 65.8184L49.7284 64.3577L51.3386 65.2967L48.7873 66.7575L49.3729 67.0913L95.3581 40.652L94.7726 40.3181L92.2213 41.7789L90.6111 40.8398L93.1624 39.3791L92.5768 39.0452L90.0256 40.5059L88.4154 39.5669L90.9666 38.1062L90.3811 37.7723L87.8298 39.233L86.2196 38.294L88.7709 36.8332L88.1853 36.4993L85.6341 37.9601L84.0239 37.021L86.5751 35.5603L85.9896 35.2264L83.4383 36.6872L81.8281 35.7481L84.3166 34.2874ZM65.2659 55.4263L66.8761 56.3654L64.3667 57.8052L62.7565 56.8662L65.2659 55.4263ZM63.0492 54.1743L64.6595 55.1133L62.15 56.5532L60.5398 55.6141L63.0492 54.1743ZM60.8326 52.9013L62.4428 53.8404L59.9334 55.2802L58.3232 54.3412L60.8326 52.9013ZM58.6368 51.6284L60.2471 52.5674L57.7376 54.0073L56.1274 53.0683L58.6368 51.6284ZM55.5419 52.7135L53.9317 51.7745L56.4411 50.3346L58.0513 51.2737L55.5419 52.7135ZM74.5299 50.0842L76.1401 51.0232L67.4617 56.0315L65.8514 55.0924L74.5299 50.0842ZM65.2659 54.7586L63.6557 53.8195L72.3341 48.8113L73.9443 49.7503L65.2659 54.7586ZM63.0492 53.4856L61.439 52.5466L70.1175 47.5383L71.7277 48.4774L63.0492 53.4856ZM60.8326 52.2127L59.2224 51.2737L67.9008 46.2654L69.511 47.2045L60.8326 52.2127ZM58.6368 50.9398L57.0266 50.0007L65.7051 44.9925L67.3153 45.9315L58.6368 50.9398ZM77.6248 48.3104L79.2351 49.2495L76.7256 50.6894L75.1154 49.7503L77.6248 48.3104ZM75.4291 47.0375L77.0393 47.9766L74.5299 49.4164L72.9197 48.4774L75.4291 47.0375ZM73.2124 45.7646L74.8226 46.7036L72.3132 48.1435L70.703 47.2045L73.2124 45.7646ZM70.9958 44.4917L72.606 45.4307L70.0966 46.8706L68.4863 45.9315L70.9958 44.4917ZM67.9008 45.5976L66.2906 44.6586L68.8 43.2187L70.4102 44.1578L67.9008 45.5976ZM90.0047 41.1737L91.6149 42.1128L79.8415 48.8947L78.2313 47.9557L90.0047 41.1737ZM77.6248 47.6218L76.0146 46.6828L87.788 39.9008L89.3982 40.8398L77.6248 47.6218ZM75.4291 46.3489L73.8189 45.4098L85.5923 38.6279L87.2025 39.5669L75.4291 46.3489ZM83.3756 37.3758L84.9858 38.3148L73.2124 45.076L71.6022 44.1369L83.3756 37.3758ZM81.1589 36.1029L82.7692 37.0419L70.9958 43.8239L69.3855 42.8849L81.1589 36.1029ZM49.7911 63.6691L48.1809 62.73L59.9543 55.948L61.5645 56.8871L49.7911 63.6691ZM47.5954 62.3961L45.9851 61.4571L57.7585 54.6751L59.3688 55.6141L47.5954 62.3961ZM45.3787 61.1232L43.7685 60.1841L55.5419 53.4022L57.1521 54.3412L45.3787 61.1232ZM43.162 59.8503L41.5518 58.9112L53.3252 52.1292L54.9354 53.0683L43.162 59.8503ZM52.0078 64.942L50.3976 64.0029L62.1709 57.2209L63.7812 58.16L52.0078 64.942Z" fill="#ACB0B8"/>
<path d="M65.8925 28.3818C64.5332 26.7124 61.7729 26.2325 59.5144 27.2967L54.1819 29.8008C53.7845 29.9886 53.2826 29.9052 53.0526 29.613L49.393 25.1056C49.2048 24.8761 48.8493 24.7717 48.5147 24.8343C44.9597 25.523 44.3742 25.9403 39.9618 23.3527C38.6443 22.5806 36.7832 22.5806 35.2984 23.4153C33.8137 24.2709 33.1654 25.7316 33.5209 27.0463C34.7756 31.4703 34.1273 31.7415 32.0362 34.2874C31.827 34.5378 31.827 34.8508 32.0152 35.0804L35.6748 39.6086C35.9258 39.9008 35.8212 40.3181 35.4866 40.5685L30.7814 43.8448C28.7948 45.222 28.3138 47.5592 29.6731 49.2495L30.4469 50.2094L39.8572 44.7838L57.2141 34.7882L66.6244 29.3626L65.8925 28.3818ZM36.1767 24.5005C37.285 23.8536 38.7489 24.0414 39.4599 24.9178C40.1709 25.7942 39.8363 27.0046 38.728 27.6515C37.6196 28.2984 36.1558 28.1106 35.4448 27.2341C34.7547 26.3577 35.0684 25.1473 36.1767 24.5005Z" fill="#FFDA44"/>
<path d="M183 48.6237V51.3782C183 53.1311 181.85 54.884 179.529 56.1986C177.208 57.5341 174.175 58.2019 171.143 58.2019C168.111 58.2019 165.079 57.5341 162.757 56.1986C160.436 54.8631 159.286 53.1102 159.286 51.3782V48.6237C159.286 50.3765 160.436 52.1086 162.757 53.4441C165.079 54.7796 168.111 55.4474 171.143 55.4474C174.175 55.4474 177.208 54.7796 179.529 53.4441C181.85 52.1294 183 50.3765 183 48.6237Z" fill="url(#paint1_linear)"/>
<path d="M183 48.6232C183 50.376 181.85 52.1081 179.529 53.4436C177.208 54.7791 174.175 55.4469 171.143 55.4469C168.111 55.4469 165.079 54.7791 162.757 53.4436C160.436 52.1081 159.286 50.3552 159.286 48.6232C159.286 47.9554 159.453 47.2876 159.788 46.6407C160.332 45.5973 161.315 44.6166 162.757 43.7819C162.988 43.6358 163.238 43.5106 163.489 43.3854C162.339 44.1783 161.607 45.1174 161.315 46.0982C160.792 47.8719 161.733 49.75 164.096 51.1064C167.985 53.3392 174.28 53.3392 178.17 51.1064C180.533 49.75 181.474 47.8719 180.951 46.0982C180.658 45.1174 179.947 44.1783 178.776 43.3854C179.027 43.5106 179.278 43.6358 179.508 43.7819C180.658 44.4496 181.536 45.2217 182.101 46.0356C182.247 46.2234 182.352 46.4321 182.456 46.6407C182.833 47.2876 183 47.9554 183 48.6232Z" fill="url(#paint2_linear)"/>
<path d="M178.191 51.1274C174.301 53.3602 168.006 53.3602 164.117 51.1274C161.754 49.771 160.813 47.8929 161.336 46.1191C161.628 45.1383 162.339 44.1993 163.51 43.4063C164.242 42.9055 165.121 42.5925 165.978 42.3003C169.157 41.1735 173.172 41.1735 176.35 42.3003C177.208 42.5925 178.086 42.9055 178.818 43.4063C179.989 44.1993 180.7 45.1383 180.993 46.1191C181.495 47.8929 180.554 49.771 178.191 51.1274Z" fill="#8B6C41"/>
<path d="M166.458 35.665C166.458 33.0774 168.549 30.9906 171.142 30.9906C173.735 30.9906 175.827 33.0982 175.827 35.665C175.827 35.9571 175.806 36.2701 175.743 36.5414L173.84 46.4327C173.777 46.7665 173.505 47.1004 173.066 47.3717C172 47.9769 170.285 47.9769 169.218 47.3717C168.758 47.1004 168.507 46.7874 168.445 46.4327L166.542 36.5414C166.479 36.2701 166.458 35.9571 166.458 35.665Z" fill="url(#paint3_linear)"/>
<path d="M152.636 36.0404C152.447 35.8317 152.092 35.5396 151.841 35.3935L90.4018 0.00195312L88.8125 0.92013L150.712 36.583L155.312 39.7131C155.396 39.6088 155.48 39.5253 155.584 39.4627C155.626 39.4418 155.668 39.421 155.71 39.4001L152.636 36.0404Z" fill="#EAB17B"/>
<path d="M155.312 39.713L150.711 36.5829L88.8122 0.920044L88.0176 2.94421L149.917 38.607L155.082 40.2556C155.103 40.0678 155.187 39.88 155.312 39.713Z" fill="#E8A76A"/>
<path d="M155.124 40.5475C155.103 40.4849 155.082 40.4223 155.082 40.3388C155.082 40.318 155.082 40.2971 155.082 40.2762L149.917 38.6277L88.0176 2.96484L88.8122 4.0917L150.272 39.5041C150.523 39.6502 150.941 39.7963 151.213 39.8589L155.124 40.5475Z" fill="#E08837"/>
<path d="M88.0176 2.94421L148.955 38.0436C149.478 38.3566 150.105 38.1271 150.335 37.5636C150.544 37.0211 150.314 36.3325 149.791 36.0403L88.8122 0.920044L88.0176 2.94421Z" fill="url(#paint4_linear)"/>
<path d="M88.0176 2.94446L88.8122 4.07131L150.063 39.3585C150.419 39.5672 150.523 39.4629 150.293 39.1081C150.105 38.8368 149.708 38.4612 149.415 38.2943L88.0176 2.94446Z" fill="#178D54"/>
<path d="M88.8125 0.92013L90.4018 0.00195312L151.653 35.2892C152.008 35.4978 152.008 35.8317 151.653 36.0404C151.151 36.3325 150.314 36.3325 149.812 36.0404L88.8125 0.92013Z" fill="#34D550"/>
<path d="M155.709 39.4C155.668 39.4209 155.626 39.4209 155.584 39.4626C155.479 39.5252 155.396 39.6087 155.312 39.713C155.187 39.88 155.103 40.0887 155.082 40.2765C155.082 40.2973 155.082 40.3182 155.082 40.3391C155.082 40.4225 155.103 40.4851 155.124 40.5477L157.09 40.9025L155.709 39.4Z" fill="#3B3B3B"/>
<path d="M183 48.6237C183 48.6237 183 48.7489 183 48.9575C182.979 49.1662 182.958 49.5001 182.833 49.8966C182.707 50.2931 182.519 50.7522 182.184 51.2321C181.871 51.7121 181.431 52.192 180.888 52.6511C180.344 53.1102 179.696 53.5484 178.985 53.9032C178.253 54.2788 177.458 54.6127 176.622 54.8631C175.764 55.1135 174.886 55.3222 173.966 55.4474C173.046 55.5726 172.105 55.6352 171.164 55.6561C170.223 55.6561 169.282 55.5935 168.362 55.4474C167.441 55.3222 166.542 55.1135 165.706 54.8631C164.848 54.6127 164.054 54.2788 163.343 53.9032C162.987 53.7154 162.632 53.5067 162.318 53.3189C162.004 53.1102 161.691 52.8807 161.419 52.6511C160.875 52.192 160.436 51.7121 160.122 51.2321C159.809 50.7522 159.599 50.2931 159.474 49.8966C159.348 49.5001 159.328 49.1662 159.307 48.9575C159.307 48.7489 159.307 48.6237 159.307 48.6237C159.307 48.6237 159.307 48.7489 159.328 48.9575C159.369 49.1662 159.411 49.5001 159.537 49.8757C159.662 50.2513 159.892 50.7104 160.227 51.1486C160.561 51.6077 161.001 52.046 161.544 52.4842C161.816 52.6928 162.109 52.9015 162.423 53.0893C162.757 53.2771 163.071 53.465 163.447 53.6319C164.158 53.9658 164.953 54.2788 165.768 54.5083C166.605 54.7379 167.483 54.9257 168.382 55.0509C169.282 55.1761 170.202 55.2387 171.143 55.2387C172.063 55.2387 172.983 55.1761 173.882 55.0509C174.781 54.9257 175.66 54.7587 176.496 54.5083C177.333 54.2788 178.106 53.9658 178.817 53.6319C179.528 53.2771 180.177 52.9015 180.72 52.4633C181.264 52.0459 181.703 51.5869 182.038 51.1278C182.372 50.6687 182.582 50.2305 182.728 49.8548C182.874 49.4792 182.916 49.1453 182.937 48.9367C183 48.7489 183 48.6237 183 48.6237Z" fill="url(#paint5_linear)"/>
<path d="M161.336 46.1194C161.231 46.6202 161.273 46.3907 161.231 46.7663C161.231 47.0793 161.231 47.1002 161.252 47.2462C161.378 48.9156 162.779 50.2094 164.242 51.0024C166.334 52.0041 167.923 52.5049 171.143 52.5884C174.406 52.5049 175.911 52.0249 178.044 51.0024C179.508 50.2303 180.909 48.8739 181.056 47.2462C181.077 47.0793 181.077 47.0584 181.077 46.7663C181.035 46.3698 181.077 46.5993 180.972 46.1194C180.972 46.1194 180.993 46.2237 181.056 46.4115C181.118 46.6202 181.16 47.0376 181.139 47.2671C181.139 47.6427 181.056 48.1018 180.847 48.5818C180.366 49.7086 179.299 50.6894 178.212 51.2946C175.765 52.5466 174.134 52.9222 171.143 53.0266C168.216 52.9431 166.585 52.5884 164.096 51.2946C163.009 50.6685 161.942 49.7295 161.461 48.5818C161.147 47.8305 161.147 47.3088 161.189 46.7663C161.21 46.6202 161.231 46.495 161.252 46.4115C161.294 46.2237 161.336 46.1194 161.336 46.1194Z" fill="url(#paint6_linear)"/>
<defs>
<linearGradient id="paint0_linear" x1="0" y1="82.8745" x2="173.489" y2="82.8745" gradientUnits="userSpaceOnUse">
<stop stop-color="#987350"/>
<stop offset="0.3367" stop-color="#96724F"/>
<stop offset="0.4581" stop-color="#8F6C4B"/>
<stop offset="0.5442" stop-color="#846345"/>
<stop offset="0.6137" stop-color="#73573C"/>
<stop offset="0.629" stop-color="#6E5339"/>
<stop offset="1" stop-color="#6E5339"/>
</linearGradient>
<linearGradient id="paint1_linear" x1="159.297" y1="53.4218" x2="183.004" y2="53.4218" gradientUnits="userSpaceOnUse">
<stop stop-color="#715128"/>
<stop offset="1" stop-color="#634521"/>
</linearGradient>
<linearGradient id="paint2_linear" x1="159.297" y1="49.4331" x2="183.004" y2="49.4331" gradientUnits="userSpaceOnUse">
<stop stop-color="#836238"/>
<stop offset="1" stop-color="#735631"/>
</linearGradient>
<linearGradient id="paint3_linear" x1="166.448" y1="39.404" x2="175.834" y2="39.404" gradientUnits="userSpaceOnUse">
<stop stop-color="#836238"/>
<stop offset="1" stop-color="#6B502E"/>
</linearGradient>
<linearGradient id="paint4_linear" x1="119.215" y1="0.920044" x2="119.215" y2="38.1845" gradientUnits="userSpaceOnUse">
<stop stop-color="#36BD4D"/>
<stop offset="1" stop-color="#21A637"/>
</linearGradient>
<linearGradient id="paint5_linear" x1="159.296" y1="52.1472" x2="183.004" y2="52.1472" gradientUnits="userSpaceOnUse">
<stop stop-color="#836238"/>
<stop offset="0.2087" stop-color="#795B34"/>
<stop offset="0.5803" stop-color="#6F532F"/>
<stop offset="1" stop-color="#6B502E"/>
</linearGradient>
<linearGradient id="paint6_linear" x1="161.168" y1="49.5753" x2="181.142" y2="49.5753" gradientUnits="userSpaceOnUse">
<stop stop-color="#836238"/>
<stop offset="0.4138" stop-color="#7F5F36"/>
<stop offset="0.8008" stop-color="#745732"/>
<stop offset="1" stop-color="#6B502E"/>
</linearGradient>
</defs>
</svg>
