<svg width="137" height="139" viewBox="0 0 137 139" fill="none" xmlns="http://www.w3.org/2000/svg">
<path d="M56.8969 19.5154L0.0830078 65.4229V73.9783H60.0007H119.918V65.4229L63.1046 19.5154C61.294 18.0525 58.7075 18.0525 56.8969 19.5154Z" fill="#F7DFC7"/>
<path d="M110.041 121.426H9.95879C7.2316 121.426 5.02051 119.215 5.02051 116.488V22.9416C5.02051 20.2144 7.23137 18.0033 9.95879 18.0033H110.041C112.768 18.0033 114.979 20.2144 114.979 22.9416V116.488C114.979 119.215 112.769 121.426 110.041 121.426Z" fill="white"/>
<path d="M114.979 113.737V115.659C114.979 118.843 112.395 121.426 109.212 121.426H10.7875C7.60402 121.426 5.02051 118.843 5.02051 115.659V113.737H114.979Z" fill="url(#paint0_linear)"/>
<path d="M90.5195 36.641H29.4795C28.7891 36.641 28.2295 37.2006 28.2295 37.891C28.2295 38.5813 28.7891 39.141 29.4795 39.141H90.5195C91.2099 39.141 91.7695 38.5813 91.7695 37.891C91.7695 37.2006 91.2099 36.641 90.5195 36.641Z" fill="#2C2D30"/>
<path d="M81.9795 46.1263H29.4795C28.7891 46.1263 28.2295 46.686 28.2295 47.3763C28.2295 48.0667 28.7891 48.6263 29.4795 48.6263H81.9795C82.6698 48.6263 83.2295 48.0667 83.2295 47.3763C83.2295 46.686 82.6698 46.1263 81.9795 46.1263Z" fill="#2C2D30"/>
<path d="M61.9795 56.9408H29.4795C28.7891 56.9408 28.2295 57.5004 28.2295 58.1908C28.2295 58.8812 28.7891 59.4408 29.4795 59.4408H61.9795C62.6698 59.4408 63.2295 58.8812 63.2295 58.1908C63.2295 57.5004 62.6698 56.9408 61.9795 56.9408Z" fill="#2C2D30"/>
<path d="M76.9795 67.7562H29.4795C28.7891 67.7562 28.2295 68.3159 28.2295 69.0062C28.2295 69.6966 28.7891 70.2562 29.4795 70.2562H76.9795C77.6698 70.2562 78.2295 69.6966 78.2295 69.0062C78.2295 68.3159 77.6698 67.7562 76.9795 67.7562Z" fill="#2C2D30"/>
<path d="M119.918 65.5325V133.065C119.918 135.791 117.706 138.003 114.98 138.003H5.02129C2.29527 138.003 0.0830078 135.791 0.0830078 133.065V65.5325L60.6593 113.312L119.918 65.5325Z" fill="url(#paint1_linear)"/>
<path d="M119.251 135.534L63.7577 90.7907C61.9488 89.3321 59.3674 89.3321 57.5585 90.7907L1.21875 136.216C2.12484 137.308 3.49102 138.003 5.02031 138.003H114.979C116.806 138.003 118.397 137.009 119.251 135.534Z" fill="#D8AC81"/>
<path d="M119.67 1.83247L119.763 6.38574C119.766 6.55438 119.895 6.72047 120.104 6.71622C120.271 6.71281 120.394 6.58378 120.39 6.37298L120.297 1.81971C120.293 1.65107 120.165 1.48498 119.997 1.48838C119.788 1.49264 119.667 1.66383 119.67 1.83247Z" fill="#1AB248" stroke="#13182B" stroke-width="1.5"/>
<path d="M135.65 14.611L131.099 14.7689C130.93 14.7748 130.766 14.906 130.773 15.1148C130.779 15.2819 130.91 15.4029 131.121 15.3956L135.672 15.2377C135.841 15.2318 136.005 15.1007 135.999 14.9336C135.992 14.7247 135.819 14.6052 135.65 14.611Z" fill="#1AB248" stroke="#13182B" stroke-width="1.5"/>
<path d="M131.778 3.6123L125.901 9.6407C125.83 9.71311 125.85 9.87306 125.999 10.0189C126.119 10.1357 126.292 10.1981 126.38 10.1075L132.256 4.07915C132.327 4.00674 132.308 3.84679 132.158 3.7009C132.009 3.555 131.848 3.53988 131.778 3.6123Z" fill="#1AB248" stroke="#13182B" stroke-width="1.5"/>
<path d="M112 42.0033C120.837 42.0033 128 34.8399 128 26.0033C128 17.1667 120.837 10.0033 112 10.0033C103.163 10.0033 96 17.1667 96 26.0033C96 34.8399 103.163 42.0033 112 42.0033Z" fill="url(#paint2_linear)"/>
<path d="M114 33.0033H111.576V21.8014L108 22.9704V21.006L113.689 19.0033H114V33.0033Z" fill="white"/>
<defs>
<linearGradient id="paint0_linear" x1="115.94" y1="112.855" x2="-0.236399" y2="122.207" gradientUnits="userSpaceOnUse">
<stop stop-color="#C2CECE" stop-opacity="0"/>
<stop offset="0.179" stop-color="#AFBCBC" stop-opacity="0.179"/>
<stop offset="1" stop-color="#5B6A6A"/>
</linearGradient>
<linearGradient id="paint1_linear" x1="60.0007" y1="65.5325" x2="60.0007" y2="138.003" gradientUnits="userSpaceOnUse">
<stop stop-color="#EBBD8C"/>
<stop offset="1" stop-color="#C5996A"/>
</linearGradient>
<linearGradient id="paint2_linear" x1="105.334" y1="10.1125" x2="118.601" y2="41.7214" gradientUnits="userSpaceOnUse">
<stop stop-color="#1CAA35"/>
<stop offset="1" stop-color="#22A637"/>
</linearGradient>
</defs>
</svg>
