<svg width="120" height="115" viewBox="0 0 120 115" fill="none" xmlns="http://www.w3.org/2000/svg">
<path d="M45.6833 110.875L105.393 76.3377L75.1931 58.9045L37.1393 102.906L45.6833 110.875Z" fill="#B3B3B3"/>
<path d="M115.383 54.4521L116.5 53.8113C116.714 53.6798 116.977 53.6798 117.207 53.7948L117.322 53.5648L115.383 52.4475V54.4521ZM116.664 53.4827C116.566 53.4991 116.467 53.5484 116.369 53.5977L115.646 54.0084V52.8911L116.664 53.4827Z" fill="#808080"/>
<path d="M1.13928 97.0081C1.15571 97.2217 1.205 97.4025 1.28716 97.5504C1.36931 97.6982 1.46791 97.8133 1.59935 97.879L6.62718 100.771L27.2479 112.7L30.2712 114.441C30.5669 114.671 31.0105 114.655 31.5035 114.376L32.5386 113.784L32.9001 113.57C32.9001 113.57 32.9165 113.57 32.9165 113.554L38.6673 110.235V108C38.6673 107.902 38.6673 107.803 38.6673 107.688C38.6673 107.524 38.6837 107.343 38.7002 107.179C38.7166 106.998 38.733 106.817 38.7659 106.62C38.7988 106.357 38.8481 106.078 38.8973 105.799V105.782C38.9466 105.503 39.0288 105.224 39.0945 104.928C39.1274 104.829 39.1438 104.747 39.1767 104.648C39.2095 104.55 39.226 104.451 39.2588 104.369C39.2917 104.287 39.3081 104.188 39.341 104.106V104.09C39.3738 103.991 39.4067 103.909 39.4396 103.811C39.4724 103.728 39.5053 103.63 39.5381 103.548C39.7024 103.104 39.8996 102.66 40.1132 102.217C40.1461 102.151 40.1789 102.085 40.2118 102.003C40.2447 101.937 40.2775 101.872 40.3104 101.806C40.409 101.609 40.524 101.395 40.639 101.198C40.6719 101.132 40.7212 101.067 40.754 101.001C40.8362 100.869 40.9019 100.738 40.9841 100.606C41.0333 100.524 41.0826 100.442 41.1319 100.36C41.1648 100.311 41.1977 100.261 41.2305 100.212C41.2962 100.097 41.3784 99.9986 41.4441 99.8835C41.477 99.8343 41.5098 99.785 41.5427 99.7521C41.592 99.6699 41.6577 99.6042 41.707 99.5221C41.7727 99.4399 41.822 99.3578 41.8878 99.2756C42.5121 98.4541 43.2187 97.6982 43.958 97.041C44.5167 96.5645 45.0918 96.1537 45.6833 95.8087C45.7326 95.7758 45.7819 95.743 45.8476 95.7265C45.8804 95.7101 45.9133 95.6937 45.9462 95.6772C46.0283 95.628 46.1105 95.5787 46.2091 95.5458C46.2584 95.5294 46.3076 95.4965 46.3569 95.4801C46.4062 95.4472 46.472 95.4308 46.5212 95.3979C46.587 95.3651 46.6527 95.3486 46.702 95.3158C46.7513 95.2993 46.7841 95.2829 46.817 95.2665C46.8499 95.25 46.8992 95.2336 46.932 95.2172C46.9485 95.2172 46.9649 95.2008 46.9813 95.2008C47.0142 95.1843 47.0635 95.1679 47.0963 95.1679C47.1128 95.1679 47.1456 95.1515 47.1621 95.1515C47.1785 95.1515 47.1785 95.1515 47.1949 95.135C47.2442 95.1186 47.2935 95.1022 47.3592 95.0857C47.3921 95.0693 47.425 95.0693 47.4414 95.0529C47.4907 95.0364 47.5235 95.0364 47.5728 95.02C47.6057 95.02 47.6221 95.0036 47.655 95.0036C47.6878 94.9872 47.7207 94.9872 47.77 94.9707C47.8029 94.9707 47.8357 94.9543 47.8686 94.9543C47.9014 94.9543 47.9343 94.9379 47.9672 94.9379C48 94.9379 48.0165 94.9214 48.0493 94.9214C48.115 94.905 48.1643 94.905 48.2301 94.8886C48.2958 94.8721 48.3615 94.8721 48.4272 94.8721C48.4765 94.8721 48.5258 94.8721 48.5587 94.8557C48.5915 94.8557 48.608 94.8557 48.6408 94.8557C48.9202 94.8393 49.1995 94.8557 49.4624 94.905C51.4176 95.2172 52.6992 97.0081 52.6992 99.8835V102.118L63.7901 95.7101L68.0292 93.2619V91.0273C68.0292 90.9452 68.0292 90.863 68.0292 90.7973C68.0456 90.2386 68.0949 89.68 68.2099 89.1049C68.2264 89.0228 68.2428 88.9406 68.2592 88.842C68.2757 88.727 68.3085 88.612 68.325 88.497C68.3414 88.4148 68.3578 88.3327 68.3907 88.2505C68.5879 87.4618 68.8508 86.6896 69.1794 85.9173C69.2122 85.8352 69.2451 85.753 69.2944 85.6544C69.3108 85.6216 69.3272 85.5887 69.3437 85.5559C69.393 85.4408 69.4423 85.3423 69.4916 85.2272C69.5901 85.0136 69.6887 84.8165 69.8037 84.6193C69.853 84.5371 69.9023 84.4386 69.9516 84.3564C70.0173 84.2414 70.0666 84.1428 70.1324 84.0442C70.2638 83.8306 70.3953 83.6006 70.5267 83.387C70.5924 83.2884 70.6417 83.2062 70.7074 83.1077C70.7732 82.9926 70.8553 82.8941 70.9375 82.779C70.9868 82.6969 71.0525 82.6312 71.1018 82.549C71.1675 82.4669 71.2168 82.3847 71.2825 82.3025C71.9069 81.481 72.6134 80.7252 73.3528 80.0844C73.9115 79.6079 74.4865 79.1807 75.078 78.8521C75.2259 78.7699 75.3738 78.6878 75.5217 78.6056C75.571 78.5727 75.6203 78.5563 75.6695 78.5399C75.7353 78.507 75.801 78.4742 75.8667 78.4577C76.1132 78.3427 76.3432 78.2606 76.5732 78.1784C76.6225 78.162 76.6883 78.1455 76.7376 78.1291H76.754C76.7868 78.1127 76.8197 78.1127 76.8361 78.0963C76.8854 78.0798 76.9183 78.0798 76.9676 78.0634C77.0004 78.0634 77.0169 78.047 77.0497 78.047C77.0826 78.047 77.1155 78.0305 77.1483 78.0305C77.2469 78.0141 77.3455 77.9812 77.4441 77.9648C77.5098 77.9484 77.5591 77.9484 77.6248 77.9319C77.6905 77.9155 77.7563 77.9155 77.822 77.9155C77.8713 77.9155 77.9041 77.9155 77.9534 77.8991C77.9863 77.8991 78.0192 77.8991 78.0356 77.8991C78.3149 77.8827 78.5942 77.8991 78.8571 77.9484C80.8124 78.2606 82.094 80.0515 82.094 82.9269V85.1615L92.3633 79.23L97.424 76.3053V74.0707C97.424 73.9885 97.424 73.9064 97.424 73.8407C97.424 73.7421 97.424 73.6599 97.4404 73.5613C97.4404 73.4956 97.4568 73.4299 97.4568 73.3642C97.4568 73.2985 97.4568 73.2492 97.4733 73.1834C97.4733 73.1506 97.4733 73.1341 97.4733 73.1013C97.4733 73.052 97.4897 73.0027 97.4897 72.9534C97.5061 72.8712 97.5061 72.7891 97.5226 72.6905C97.539 72.5426 97.5719 72.3948 97.5883 72.2469C97.6047 72.1976 97.6047 72.1319 97.6211 72.0826C97.6376 72.0168 97.6376 71.9511 97.654 71.8854V71.869C97.6704 71.7704 97.6869 71.6882 97.7197 71.5896C97.7362 71.4911 97.769 71.4089 97.7854 71.3103C97.8019 71.2446 97.8183 71.1953 97.8347 71.1296C97.9005 70.8831 97.9662 70.6202 98.0483 70.3738L98.0976 70.2095C98.1634 70.0123 98.2291 69.8151 98.3112 69.6179C98.3441 69.5358 98.3605 69.4701 98.3934 69.3879C98.4427 69.2565 98.5084 69.1086 98.5577 68.9771C98.5741 68.9278 98.5906 68.895 98.6234 68.8457C98.722 68.6157 98.837 68.3856 98.952 68.1392C98.9849 68.057 99.0342 67.9913 99.0671 67.9091C99.0999 67.827 99.1492 67.7613 99.1821 67.6791C99.2314 67.5969 99.2642 67.5312 99.2971 67.4491C99.3792 67.3012 99.4614 67.1533 99.5436 67.0054C99.5928 66.9397 99.6257 66.8576 99.675 66.7918C99.7243 66.7261 99.7572 66.644 99.8064 66.5782C100.02 66.2496 100.234 65.921 100.464 65.6088C100.529 65.5267 100.579 65.4445 100.644 65.3624C101.269 64.5408 101.975 63.785 102.715 63.1278C103.273 62.6513 103.848 62.2405 104.44 61.8955C104.637 61.7804 104.834 61.6818 105.031 61.5833C105.245 61.4847 105.459 61.3861 105.672 61.3039C105.722 61.2875 105.771 61.2711 105.837 61.2546C105.869 61.2382 105.919 61.2218 105.952 61.2218C106.017 61.2054 106.099 61.1725 106.165 61.1561C106.231 61.1396 106.313 61.1068 106.379 61.0903C106.428 61.0739 106.494 61.0575 106.543 61.0575C106.56 61.0575 106.576 61.041 106.609 61.041C106.675 61.0246 106.74 61.0082 106.79 61.0082C106.855 60.9918 106.921 60.9918 106.987 60.9753C107.003 60.9753 107.003 60.9753 107.02 60.9753C107.052 60.9753 107.102 60.9589 107.135 60.9589H107.151C107.167 60.9589 107.2 60.9589 107.217 60.9589C107.25 60.9589 107.282 60.9589 107.299 60.9589C107.332 60.9589 107.365 60.9589 107.397 60.9589C107.693 60.9425 107.956 60.9589 108.219 61.0082C110.174 61.3204 111.456 63.1113 111.456 65.9703V68.1885L116.04 65.5595C117.108 64.9516 117.765 63.8179 117.765 62.5855V54.4523C117.765 54.0908 117.568 53.8115 117.289 53.6636H117.272C117.026 53.5486 116.714 53.5322 116.451 53.6965L115.531 54.2223L101.45 62.3555L72.0548 79.3286L64.628 83.617L42.66 96.3016L31.2242 102.907L1.0407 85.4737C0.958544 87.1004 1.13928 97.0081 1.13928 97.0081Z" fill="url(#paint0_linear_2217_3069)"/>
<path d="M6.62739 100.771C6.80813 100.902 7.0053 101.017 7.20247 101.132L24.9149 111.352L27.2152 112.683C27.2317 112.683 27.2317 112.7 27.2481 112.7L6.62739 100.771Z" fill="url(#paint1_linear_2217_3069)"/>
<path d="M76.5733 78.1784L79.0379 79.5914C80.2538 80.1501 81.0096 81.5303 81.0096 83.5513C81.0096 83.847 80.9932 84.1592 80.9603 84.4714L82.1269 85.1451V82.9105C82.1269 80.0351 80.8289 78.2605 78.89 77.9319C78.6271 77.8826 78.3478 77.8662 78.0685 77.8826C78.0356 77.8826 78.0028 77.8826 77.9863 77.8826C77.9371 77.8826 77.9042 77.8826 77.8549 77.8991C77.7892 77.8991 77.7234 77.9155 77.6577 77.9155C77.592 77.9155 77.5427 77.9319 77.477 77.9483C77.3784 77.9648 77.2798 77.9812 77.1812 78.0141C77.1484 78.0141 77.1155 78.0305 77.0991 78.0305C77.0662 78.0305 77.0498 78.0469 77.0169 78.0469C76.9676 78.0634 76.9348 78.0634 76.8855 78.0798C76.8526 78.0798 76.8198 78.0962 76.7869 78.1127H76.7705C76.6883 78.1455 76.6226 78.1619 76.5733 78.1784Z" fill="black"/>
<path d="M47.1785 95.1517L49.561 96.5319V96.5483C50.8261 97.0741 51.6148 98.4707 51.6148 100.541C51.6148 100.837 51.5984 101.149 51.5655 101.461L52.7157 102.135V99.9002C52.7157 97.0248 51.4177 95.2503 49.4788 94.9217C49.2159 94.8724 48.9366 94.8559 48.6573 94.8724C48.6244 94.8724 48.608 94.8724 48.5751 94.8724C48.5258 94.8724 48.493 94.8724 48.4437 94.8888C48.378 94.8888 48.3122 94.9052 48.2465 94.9052C48.1808 94.9052 48.1315 94.9217 48.0658 94.9381C48.0329 94.9381 48.0165 94.9545 47.9836 94.9545C47.9508 94.9545 47.9179 94.971 47.885 94.971C47.8522 94.971 47.8193 94.9874 47.7864 94.9874C47.7536 94.9874 47.7207 95.0038 47.6714 95.0202C47.655 95.0202 47.6221 95.0367 47.5893 95.0367C47.54 95.0531 47.5071 95.0531 47.4578 95.0695C47.425 95.0695 47.3921 95.086 47.3592 95.1024C47.31 95.1188 47.2607 95.1353 47.1949 95.1517H47.1785Z" fill="black"/>
<path d="M38.651 108.017V109.578L39.2425 109.923L41.4442 111.188C40.8363 110.826 40.3762 110.235 40.0969 109.43C39.8833 108.855 39.7683 108.165 39.7683 107.392C39.7683 107.064 39.7847 106.735 39.834 106.39C40.2119 103.153 42.2986 99.5548 44.9276 97.6324C45.174 97.4517 45.4369 97.2709 45.6998 97.1231C45.8806 97.0245 46.0449 96.9259 46.2092 96.8438C47.4908 96.2358 48.6409 96.1536 49.5611 96.548V96.5316L47.1786 95.1514C47.1622 95.1514 47.1293 95.1678 47.1129 95.1678C47.08 95.1842 47.0307 95.2007 46.9979 95.2007C46.9814 95.2007 46.965 95.2171 46.9486 95.2171C46.8993 95.2335 46.8664 95.25 46.8336 95.2664C46.7843 95.2828 46.7514 95.2992 46.7185 95.3157C46.6528 95.3321 46.6035 95.365 46.5378 95.3978C46.4885 95.4143 46.4228 95.4471 46.3735 95.48C46.3242 95.4964 46.2749 95.5293 46.2256 95.5457C46.1435 95.595 46.0613 95.6279 45.9627 95.6772C45.9299 95.6936 45.897 95.71 45.8641 95.7264C45.8148 95.7593 45.7656 95.7922 45.6998 95.8086C45.1083 96.1536 44.5332 96.5644 43.9746 97.0409C43.2352 97.6817 42.5287 98.4375 41.9043 99.2755C41.8386 99.3577 41.7893 99.4398 41.7236 99.522C41.6743 99.6041 41.6085 99.6698 41.5593 99.752C41.5264 99.8013 41.4935 99.8506 41.4607 99.8835C41.3949 99.9985 41.3128 100.097 41.2471 100.212C41.2142 100.261 41.1813 100.311 41.1485 100.36C41.0992 100.442 41.0499 100.524 41.0006 100.606C40.9185 100.738 40.8363 100.869 40.7706 101.001C40.7377 101.066 40.6884 101.132 40.6556 101.198C40.5405 101.395 40.4255 101.609 40.3269 101.806C40.2941 101.872 40.2612 101.937 40.2284 102.003C40.1955 102.069 40.1626 102.134 40.1298 102.217C39.9162 102.644 39.7354 103.087 39.5547 103.548C39.5218 103.63 39.489 103.728 39.4561 103.81C39.4232 103.909 39.3904 103.991 39.3575 104.09V104.106C39.3247 104.188 39.3082 104.287 39.2754 104.369C39.2425 104.468 39.2097 104.55 39.1932 104.648C39.1604 104.747 39.1439 104.829 39.1111 104.928C39.0289 105.207 38.9632 105.486 38.9139 105.782V105.799C38.8646 106.078 38.8153 106.341 38.7824 106.62C38.766 106.801 38.7332 106.998 38.7167 107.179C38.7003 107.343 38.7003 107.524 38.6839 107.688C38.651 107.82 38.651 107.918 38.651 108.017Z" fill="url(#paint2_linear_2217_3069)"/>
<path d="M68.0459 91.044V92.6049L68.6374 92.95L70.8227 94.2151C70.2312 93.8537 69.7547 93.2621 69.4754 92.457C69.2618 91.882 69.1468 91.1919 69.1468 90.4196C69.1468 90.091 69.1632 89.7459 69.2125 89.4173C69.5904 86.1805 71.6771 82.5821 74.306 80.6597C74.5525 80.479 74.8154 80.2982 75.0783 80.1503C75.2755 80.0353 75.4726 79.9367 75.6698 79.8382C76.9514 79.2466 78.118 79.1974 79.0217 79.6081L76.5571 78.1951C76.327 78.2772 76.097 78.3594 75.8505 78.4744C75.7848 78.5073 75.7191 78.5237 75.6534 78.5565C75.6041 78.573 75.5548 78.6058 75.5055 78.6223C75.3576 78.688 75.2097 78.7866 75.0619 78.8687C74.4704 79.2138 73.8953 79.6246 73.3366 80.101C72.5972 80.7418 71.8907 81.4977 71.2663 82.3192C71.2006 82.4014 71.1513 82.4835 71.0856 82.5657C71.0363 82.6478 70.9706 82.7135 70.9213 82.7957C70.8391 82.9107 70.7734 83.0093 70.6913 83.1243C70.6255 83.2229 70.5598 83.3051 70.5105 83.4036C70.3791 83.6172 70.2476 83.8308 70.1162 84.0609C70.0505 84.1595 70.0012 84.2745 69.9354 84.3731C69.8862 84.4552 69.8369 84.5538 69.7876 84.636C69.6726 84.8331 69.574 85.0467 69.4754 85.2439C69.4261 85.3589 69.3768 85.4575 69.3275 85.5725C69.3111 85.6054 69.2946 85.6382 69.2782 85.6547C69.2453 85.7368 69.1961 85.819 69.1632 85.9176C68.8346 86.6898 68.5717 87.4785 68.3745 88.2507C68.3581 88.3329 68.3417 88.415 68.3088 88.4972C68.2759 88.6122 68.2595 88.7272 68.2431 88.8423C68.2266 88.9244 68.2102 89.0066 68.1938 89.1051C68.0952 89.6802 68.0295 90.2389 68.013 90.7975C68.0459 90.8797 68.0459 90.9618 68.0459 91.044Z" fill="url(#paint3_linear_2217_3069)"/>
<path d="M105.968 61.2054L108.416 62.6185L108.449 62.6349C109.648 63.1935 110.404 64.5737 110.404 66.5783C110.404 66.874 110.388 67.1862 110.355 67.4984L111.522 68.1721V65.9375C111.522 63.0621 110.224 61.2876 108.285 60.9754C108.022 60.9261 107.743 60.9097 107.463 60.9261C107.43 60.9261 107.397 60.9261 107.365 60.9261C107.332 60.9261 107.299 60.9261 107.282 60.9261C107.266 60.9261 107.233 60.9261 107.217 60.9261H107.2C107.167 60.9261 107.135 60.9261 107.085 60.9425C107.069 60.9425 107.069 60.9425 107.052 60.9425C106.987 60.9589 106.921 60.9589 106.855 60.9754C106.79 60.9918 106.724 60.9918 106.674 61.0082C106.658 61.0082 106.642 61.0247 106.609 61.0247C106.559 61.0411 106.494 61.0575 106.444 61.0575C106.379 61.074 106.297 61.0904 106.231 61.1233C106.165 61.1561 106.05 61.189 105.968 61.2054Z" fill="black"/>
<path d="M97.4406 74.0708V75.6153L98.0321 75.9604L100.119 77.1598C99.5766 76.7984 99.1494 76.2233 98.8701 75.4839C98.6565 74.9088 98.5414 74.2187 98.5414 73.4465C98.5414 73.1178 98.5579 72.7728 98.6072 72.4442C98.9851 69.2073 101.072 65.609 103.701 63.703C103.947 63.5222 104.21 63.3415 104.473 63.1936C104.67 63.0786 104.867 62.98 105.064 62.8814C106.346 62.2899 107.513 62.2242 108.416 62.635C108.433 62.635 108.433 62.6514 108.449 62.6514L108.416 62.635L105.968 61.2219C105.935 61.2384 105.886 61.2384 105.853 61.2548C105.804 61.2712 105.755 61.2876 105.689 61.3041C105.475 61.3862 105.262 61.4684 105.048 61.5834C104.851 61.682 104.654 61.7806 104.457 61.8956C103.865 62.2406 103.29 62.6514 102.731 63.1279C101.992 63.7687 101.285 64.5245 100.661 65.3625C100.595 65.4446 100.546 65.5268 100.48 65.609C100.25 65.9211 100.037 66.2498 99.823 66.5784C99.7738 66.6441 99.7245 66.7263 99.6916 66.792C99.6423 66.8577 99.6094 66.9399 99.5602 67.0056C99.478 67.1535 99.3794 67.3013 99.3137 67.4492C99.2808 67.5149 99.2315 67.5971 99.1987 67.6792C99.1658 67.7614 99.1165 67.8271 99.0837 67.9093C99.0508 67.9914 99.0015 68.0572 98.9686 68.1393C98.8536 68.3693 98.7386 68.5994 98.64 68.8458C98.6236 68.8951 98.6072 68.928 98.5743 68.9773C98.5086 69.1087 98.4593 69.2566 98.41 69.388C98.3771 69.4538 98.3443 69.5359 98.3278 69.6181C98.2457 69.8153 98.18 70.0124 98.1142 70.2096L98.0649 70.3739C97.9828 70.6204 97.9006 70.8833 97.8513 71.1297C97.8349 71.1954 97.8185 71.2447 97.802 71.3105C97.7856 71.409 97.7528 71.4912 97.7363 71.5898C97.7199 71.6884 97.687 71.7705 97.6706 71.8691V71.8855C97.6542 71.9513 97.6377 72.017 97.6377 72.0827C97.6213 72.132 97.6213 72.1977 97.6049 72.247C97.572 72.3949 97.5556 72.5428 97.5392 72.6906C97.5227 72.7728 97.5227 72.855 97.5063 72.9535C97.5063 73.0028 97.4899 73.0521 97.4899 73.1014C97.4899 73.1343 97.4899 73.1507 97.4899 73.1836C97.4899 73.2493 97.4734 73.2986 97.4734 73.3643C97.4734 73.43 97.457 73.4958 97.457 73.5615C97.457 73.6601 97.457 73.7422 97.4406 73.8408C97.4406 73.923 97.4406 73.9887 97.4406 74.0708Z" fill="url(#paint4_linear_2217_3069)"/>
<path d="M19.6895 104.04L10.176 98.5519L9.07516 94.855L22.0719 102.364L19.6895 104.04Z" fill="#333333"/>
<path d="M30.1561 110.119V105.831L24.1424 102.364C23.4687 101.969 22.565 101.936 21.6285 102.298C20.6919 102.659 19.854 103.349 19.6732 103.908L19.6239 104.04L30.1561 110.119ZM29.7946 106.028V109.478L20.0675 103.859C20.2811 103.465 20.922 102.922 21.7435 102.61C22.2364 102.429 23.1565 102.183 23.9452 102.643L29.7946 106.028Z" fill="#666666"/>
<path d="M10.3569 98.6833V98.3711C10.3569 95.8407 9.15745 93.7047 7.07074 92.4889L0.991327 88.9727V93.2611L10.3569 98.6833ZM1.33637 89.6135L6.87356 92.8175C8.76311 93.9019 9.88041 95.8079 9.979 98.0753L1.33637 93.0804V89.6135Z" fill="#666666"/>
<path d="M23.8958 102.593L28.365 105.173V109.051L20.544 104.532L19.6896 104.039C19.9525 103.185 22.1377 101.657 23.8958 102.593Z" fill="#F7F7F7"/>
<path d="M2.35495 90.1558L6.82414 92.7354C8.89443 93.9349 10.176 96.153 10.176 98.5519L2.35495 94.0334V90.1558Z" fill="#F7F7F7"/>
<path d="M29.8767 109.922L28.3815 109.051V105.173L29.8767 106.044V109.922Z" fill="#FFAC00"/>
<path d="M2.35501 94.0334L0.843372 93.1626V89.2849L2.35501 90.1557V94.0334Z" fill="#FFAC00"/>
<path d="M11.4906 100.606L19.3281 105.141V106.455L11.4906 101.92V100.606Z" fill="#333333"/>
<path d="M23.4852 107.541L24.8161 108.314C25.079 108.478 25.309 108.889 25.309 109.25C25.309 109.612 25.0954 109.776 24.8161 109.628L23.4852 108.856C23.2223 108.691 22.9923 108.281 22.9923 107.919C22.9923 107.541 23.2223 107.377 23.4852 107.541Z" fill="#333333"/>
<path d="M6.0027 97.4358L7.3336 98.208C7.59649 98.3723 7.82652 98.7831 7.82652 99.1446C7.82652 99.5061 7.61292 99.6704 7.3336 99.5225L6.0027 98.7502C5.73981 98.5859 5.50978 98.1752 5.50978 97.8137C5.50978 97.4522 5.72338 97.2879 6.0027 97.4358Z" fill="#333333"/>
<path d="M27.7901 110.678C27.7901 111.04 28.0366 111.483 28.3652 111.664C28.6774 111.845 28.9403 111.697 28.9403 111.335C28.9403 110.974 28.6938 110.53 28.3652 110.35C28.053 110.169 27.7901 110.317 27.7901 110.678Z" fill="#D6D6D6"/>
<path d="M1.89514 95.7258C1.89514 96.0873 2.14161 96.5309 2.47022 96.7117C2.78241 96.8924 3.0453 96.7445 3.0453 96.3831C3.0453 96.0216 2.79884 95.5779 2.47022 95.3972C2.14161 95.2165 1.89514 95.3643 1.89514 95.7258Z" fill="#D6D6D6"/>
<path d="M51.6643 100.492C51.6643 100.804 51.6479 101.116 51.615 101.428C51.5657 101.921 51.4671 102.431 51.3357 102.94C50.5306 106.127 48.296 109.348 45.6671 110.876C43.9747 111.845 42.463 111.928 41.3786 111.254C40.7707 110.876 40.2942 110.284 40.0149 109.479C39.8012 108.888 39.6862 108.198 39.6862 107.409C39.6862 107.08 39.7027 106.735 39.752 106.39C40.1299 103.121 42.233 99.473 44.8948 97.5341C45.1577 97.3534 45.4206 97.1727 45.6835 97.0248C45.8642 96.9262 46.0285 96.8276 46.2093 96.7455C47.4909 96.1375 48.6739 96.0554 49.594 96.4333C50.8592 96.9919 51.6643 98.405 51.6643 100.492Z" fill="#1A1A1A"/>
<path d="M49.7091 101.624C49.7091 101.838 49.6926 102.035 49.6762 102.249C49.6433 102.577 49.5776 102.922 49.4955 103.267C48.9533 105.403 47.458 107.572 45.6999 108.591C44.5991 109.232 43.5968 109.298 42.8738 108.887L42.8081 108.854C42.3973 108.607 42.0852 108.197 41.888 107.671C41.7401 107.277 41.6744 106.816 41.6744 106.291C41.6744 106.061 41.6908 105.831 41.7073 105.601C41.9537 103.399 43.3832 100.967 45.1577 99.6526C45.3385 99.5212 45.5028 99.4062 45.6835 99.3076C45.815 99.2254 45.9628 99.1597 46.0943 99.094C46.9651 98.6832 47.7538 98.6503 48.3782 98.9461C49.1833 99.324 49.7091 100.261 49.7091 101.624Z" fill="#D6D6D6"/>
<path d="M43.8925 109.331C44.4676 109.331 45.1084 109.133 45.7656 108.755C47.5237 107.737 49.0846 105.551 49.6433 103.317C49.7419 102.955 49.7912 102.61 49.8405 102.282C49.8569 102.068 49.8733 101.855 49.8733 101.641C49.8733 100.244 49.3475 99.2092 48.4274 98.7984C47.7373 98.4862 46.8993 98.5355 46.0121 98.9463C45.8806 99.012 45.7328 99.0777 45.6013 99.1599C45.437 99.2585 45.2727 99.3571 45.1084 99.4885L45.0591 99.5214C43.2353 100.852 41.7894 103.333 41.5265 105.584C41.4936 105.831 41.4772 106.061 41.4772 106.291C41.4772 106.817 41.5593 107.293 41.6908 107.704L41.7072 107.737C41.9044 108.295 42.2494 108.739 42.693 109.018L42.7588 109.051C43.1038 109.232 43.4817 109.331 43.8925 109.331ZM47.4744 98.9298C47.7702 98.9298 48.0495 98.9791 48.296 99.0942C49.0846 99.4556 49.5447 100.376 49.5447 101.625C49.5447 101.822 49.5283 102.035 49.5118 102.232C49.479 102.545 49.4133 102.89 49.3311 103.218C48.7889 105.371 47.2937 107.474 45.6013 108.443C44.5826 109.035 43.646 109.133 42.9395 108.739L42.8738 108.706C42.4959 108.476 42.2166 108.115 42.0358 107.622V107.605C41.9044 107.211 41.8222 106.767 41.8222 106.274C41.8222 106.061 41.8386 105.831 41.8551 105.617C42.1015 103.481 43.4817 101.099 45.207 99.8171L45.2398 99.8007C45.4041 99.6692 45.5849 99.5707 45.7492 99.4721C45.8806 99.3899 46.0121 99.3242 46.1435 99.2749C46.62 99.0284 47.0636 98.9298 47.4744 98.9298Z" fill="#808080"/>
<path d="M45.4368 101.034C45.4368 101.198 45.5518 101.248 45.6832 101.182C45.8147 101.1 45.9297 100.919 45.9297 100.755C45.9297 100.59 45.8147 100.541 45.6832 100.607C45.5353 100.689 45.4368 100.886 45.4368 101.034Z" fill="#808080"/>
<path d="M46.7843 100.524C46.7185 100.705 46.7514 100.853 46.8664 100.853C46.9814 100.869 47.1293 100.738 47.195 100.557C47.2608 100.377 47.2279 100.229 47.1129 100.229C47.0143 100.212 46.8664 100.344 46.7843 100.524Z" fill="#808080"/>
<path d="M47.8522 100.919C47.7372 101.066 47.6879 101.264 47.7701 101.362C47.8358 101.461 47.9837 101.411 48.0987 101.28C48.2137 101.132 48.263 100.935 48.1809 100.836C48.1151 100.738 47.9673 100.771 47.8522 100.919Z" fill="#808080"/>
<path d="M48.3287 102.135C48.1972 102.217 48.0822 102.398 48.0822 102.562C48.0822 102.726 48.1972 102.775 48.3287 102.71C48.4601 102.628 48.5751 102.447 48.5751 102.282C48.5751 102.118 48.4601 102.069 48.3287 102.135Z" fill="#808080"/>
<path d="M48.0987 103.843C47.9837 103.827 47.8358 103.958 47.7701 104.139C47.7044 104.32 47.7372 104.468 47.8522 104.468C47.9673 104.484 48.1151 104.353 48.1809 104.172C48.263 104.008 48.2137 103.86 48.0987 103.843Z" fill="#808080"/>
<path d="M47.2113 105.569C47.1455 105.47 46.9977 105.52 46.8826 105.651C46.7676 105.799 46.7183 105.996 46.8005 106.095C46.8662 106.193 47.0141 106.144 47.1291 106.013C47.2441 105.865 47.2934 105.667 47.2113 105.569Z" fill="#808080"/>
<path d="M45.9297 106.866C45.9297 106.702 45.8147 106.653 45.6832 106.719C45.5518 106.801 45.4368 106.981 45.4368 107.146C45.4368 107.31 45.5518 107.359 45.6832 107.294C45.8147 107.228 45.9297 107.031 45.9297 106.866Z" fill="#808080"/>
<path d="M44.5661 107.392C44.6318 107.212 44.599 107.064 44.484 107.064C44.3689 107.047 44.2211 107.179 44.1553 107.359C44.0896 107.54 44.1225 107.688 44.2375 107.688C44.3525 107.704 44.5004 107.557 44.5661 107.392Z" fill="#808080"/>
<path d="M43.5145 106.982C43.6295 106.834 43.6788 106.637 43.5967 106.538C43.5309 106.44 43.3831 106.489 43.2681 106.621C43.153 106.768 43.1037 106.966 43.1859 107.064C43.2352 107.179 43.3831 107.13 43.5145 106.982Z" fill="#808080"/>
<path d="M43.0214 105.766C43.1529 105.684 43.2679 105.503 43.2679 105.339C43.2679 105.174 43.1529 105.125 43.0214 105.191C42.89 105.273 42.775 105.454 42.775 105.618C42.775 105.782 42.89 105.848 43.0214 105.766Z" fill="#808080"/>
<path d="M43.2679 104.074C43.3829 104.09 43.5308 103.958 43.5965 103.778C43.6622 103.597 43.6294 103.449 43.5144 103.449C43.3993 103.433 43.2515 103.564 43.1857 103.745C43.1036 103.909 43.1365 104.057 43.2679 104.074Z" fill="#808080"/>
<path d="M44.1389 102.332C44.2047 102.431 44.3525 102.381 44.4676 102.25C44.5826 102.102 44.6319 101.905 44.5497 101.806C44.484 101.708 44.3361 101.757 44.2211 101.888C44.1061 102.036 44.0732 102.233 44.1389 102.332Z" fill="#808080"/>
<path d="M81.059 83.5186C81.059 83.8307 81.0426 84.1429 81.0097 84.4551C80.9604 84.948 80.8618 85.4574 80.7304 85.9667C79.9253 89.1543 77.6907 92.3748 75.0617 93.9028C73.4186 94.8558 71.9234 94.9544 70.8554 94.33L70.7733 94.2807C70.1653 93.9028 69.7053 93.3113 69.4095 92.5062C69.1959 91.9147 69.0809 91.2246 69.0809 90.4359C69.0809 90.1073 69.0973 89.7623 69.1466 89.4172C69.5245 86.1475 71.6277 82.5163 74.2895 80.5774C74.5524 80.3967 74.8153 80.216 75.0782 80.0681C75.2753 79.9531 75.4889 79.838 75.6861 79.7559C76.9841 79.1479 78.1507 79.0987 79.0709 79.5259C80.3032 80.0845 81.059 81.4811 81.059 83.5186Z" fill="#1A1A1A"/>
<path d="M79.1035 84.6524C79.1035 84.866 79.0871 85.0632 79.0707 85.2768C79.0378 85.6054 78.9721 85.9504 78.8899 86.2955C78.3477 88.4315 76.8525 90.6003 75.0944 91.6191C73.9936 92.2599 72.9913 92.3256 72.2683 91.9148L72.2026 91.882C71.7918 91.6355 71.4796 91.2247 71.2825 90.6989C71.1346 90.3046 71.0689 89.8445 71.0689 89.3187C71.0689 89.0887 71.0853 88.8587 71.1017 88.6287C71.3482 86.4269 72.7777 83.9952 74.5522 82.6807C74.7329 82.5492 74.8973 82.4342 75.078 82.3356C75.2094 82.2535 75.3573 82.1878 75.4888 82.122C76.3596 81.7113 77.1483 81.6784 77.7727 81.9742C78.5778 82.3521 79.1035 83.2886 79.1035 84.6524Z" fill="#D6D6D6"/>
<path d="M73.2873 92.3582C73.8624 92.3582 74.5032 92.161 75.1604 91.7831C76.9185 90.7644 78.4795 88.5791 79.0381 86.3445C79.1367 85.9994 79.186 85.6379 79.2353 85.3093C79.2517 85.0957 79.2681 84.8821 79.2681 84.6685C79.2681 83.2719 78.7423 82.2368 77.8222 81.826C77.1321 81.5138 76.2942 81.5631 75.4069 81.9739C75.2754 82.0396 75.1276 82.1053 74.9961 82.1875C74.8318 82.2861 74.6675 82.3846 74.5032 82.5161L74.4539 82.5489C72.6301 83.8798 71.1842 86.3609 70.9213 88.6119C70.8884 88.8584 70.872 89.0884 70.872 89.3184C70.872 89.8442 70.9541 90.3207 71.0856 90.7315L71.102 90.7644C71.2992 91.323 71.6442 91.7666 72.0879 92.046L72.1536 92.0788C72.4986 92.2596 72.8765 92.3582 73.2873 92.3582ZM76.8692 81.9574C77.165 81.9574 77.4443 82.0067 77.6908 82.1217C78.4795 82.4832 78.9395 83.4034 78.9395 84.6521C78.9395 84.8493 78.9231 85.0629 78.9067 85.26C78.8738 85.5887 78.8081 85.9173 78.7259 86.2459C78.1837 88.3983 76.6885 90.5015 74.9961 91.4709C73.9774 92.0624 73.0409 92.161 72.3343 91.7666L72.285 91.7338C71.9071 91.5037 71.6278 91.1423 71.4471 90.6494V90.6329C71.3156 90.255 71.2335 89.7949 71.2335 89.302C71.2335 89.0884 71.2499 88.8748 71.2663 88.6448C71.5128 86.5088 72.893 84.1263 74.6182 82.8447L74.6511 82.8118C74.8154 82.6968 74.9961 82.5818 75.1604 82.4832C75.2919 82.4011 75.4233 82.3353 75.5548 82.2861C76.0148 82.0725 76.4585 81.9574 76.8692 81.9574Z" fill="#808080"/>
<path d="M74.8317 84.0604C74.8317 84.2247 74.9467 84.274 75.0782 84.2082C75.2096 84.1261 75.3246 83.9453 75.3246 83.781C75.3246 83.6167 75.2096 83.5674 75.0782 83.6331C74.9467 83.7153 74.8317 83.9125 74.8317 84.0604Z" fill="#808080"/>
<path d="M76.1955 83.5508C76.1298 83.7315 76.1627 83.8794 76.2777 83.8794C76.3927 83.8958 76.5406 83.7644 76.6063 83.5837C76.672 83.4029 76.6392 83.255 76.5241 83.255C76.4091 83.2386 76.2612 83.3701 76.1955 83.5508Z" fill="#808080"/>
<path d="M77.247 83.9449C77.132 84.0928 77.0827 84.2899 77.1648 84.3885C77.2305 84.4871 77.3784 84.4378 77.4934 84.3064C77.6084 84.1585 77.6577 83.9613 77.5756 83.8627C77.5099 83.7642 77.362 83.797 77.247 83.9449Z" fill="#808080"/>
<path d="M77.7236 85.161C77.5922 85.2431 77.4772 85.4239 77.4772 85.5882C77.4772 85.7525 77.5922 85.8018 77.7236 85.7361C77.8551 85.6539 77.9701 85.4732 77.9701 85.3089C77.9701 85.161 77.8551 85.0953 77.7236 85.161Z" fill="#808080"/>
<path d="M77.4934 86.8696C77.3784 86.8531 77.2305 86.9846 77.1648 87.1653C77.0991 87.346 77.132 87.4939 77.247 87.4939C77.362 87.4939 77.5099 87.3789 77.5756 87.1982C77.6577 87.0339 77.6084 86.886 77.4934 86.8696Z" fill="#808080"/>
<path d="M76.6062 88.5953C76.5405 88.4967 76.3926 88.546 76.2776 88.6774C76.1626 88.8253 76.1133 89.0225 76.1955 89.121C76.2612 89.2196 76.4091 89.1703 76.5241 89.0389C76.6391 88.9074 76.6884 88.6938 76.6062 88.5953Z" fill="#808080"/>
<path d="M75.3246 89.8928C75.3246 89.7285 75.2096 89.6792 75.0782 89.745C74.9467 89.8271 74.8317 90.0079 74.8317 90.1722C74.8317 90.3365 74.9467 90.3858 75.0782 90.32C75.2096 90.2543 75.3246 90.0571 75.3246 89.8928Z" fill="#808080"/>
<path d="M73.9608 90.4186C74.0265 90.2379 73.9937 90.09 73.8787 90.09C73.7637 90.0736 73.6158 90.205 73.5501 90.3858C73.4843 90.5665 73.5172 90.7144 73.6322 90.7144C73.7472 90.7308 73.8951 90.5829 73.9608 90.4186Z" fill="#808080"/>
<path d="M72.9092 90.0081C73.0243 89.8603 73.0735 89.6631 72.9914 89.5645C72.9257 89.4659 72.7778 89.5152 72.6628 89.6467C72.5478 89.7945 72.4985 89.9917 72.5806 90.0903C72.6299 90.2053 72.7942 90.156 72.9092 90.0081Z" fill="#808080"/>
<path d="M72.4329 88.7922C72.5644 88.7101 72.6794 88.5293 72.6794 88.365C72.6794 88.2007 72.5644 88.1514 72.4329 88.2171C72.3015 88.2993 72.1865 88.48 72.1865 88.6443C72.1865 88.8086 72.2851 88.8744 72.4329 88.7922Z" fill="#808080"/>
<path d="M72.6628 87.0996C72.7779 87.1161 72.9257 86.9846 72.9915 86.8039C73.0572 86.6231 73.0243 86.4753 72.9093 86.4753C72.7943 86.4588 72.6464 86.5903 72.5807 86.771C72.4985 86.9353 72.5478 87.0832 72.6628 87.0996Z" fill="#808080"/>
<path d="M73.5337 85.3584C73.5994 85.4569 73.7473 85.4076 73.8623 85.2762C73.9773 85.1283 74.0266 84.9311 73.9444 84.8326C73.8787 84.734 73.7308 84.7833 73.6158 84.9147C73.5172 85.0626 73.4679 85.2598 73.5337 85.3584Z" fill="#808080"/>
<path d="M110.454 66.5458C110.454 66.858 110.437 67.1701 110.404 67.4823C110.355 67.9753 110.256 68.4846 110.125 68.994C109.32 72.1815 107.085 75.402 104.456 76.9301C102.715 77.9323 101.154 77.9816 100.053 77.2422C99.4943 76.8643 99.0671 76.2893 98.8042 75.5334C98.5906 74.9419 98.4756 74.2518 98.4756 73.4632C98.4756 73.1345 98.492 72.7895 98.5413 72.4444C98.9192 69.1747 101.022 65.5435 103.684 63.6047C103.947 63.4239 104.21 63.2432 104.473 63.0953C104.67 62.9803 104.867 62.8817 105.064 62.7831C106.362 62.1752 107.529 62.1259 108.449 62.5366C108.466 62.5366 108.466 62.5531 108.482 62.5531C109.698 63.1282 110.454 64.5248 110.454 66.5458Z" fill="#1A1A1A"/>
<path d="M108.499 67.6954C108.499 67.909 108.482 68.1061 108.466 68.3197C108.433 68.6483 108.367 68.9934 108.285 69.3384C107.743 71.4744 106.248 73.6433 104.489 74.662C103.389 75.3028 102.386 75.3686 101.663 74.9578L101.598 74.9249C101.187 74.6785 100.875 74.2677 100.677 73.7419C100.53 73.3476 100.464 72.8875 100.464 72.3617C100.464 72.1317 100.48 71.9017 100.497 71.6716C100.743 69.4699 102.173 67.0381 103.947 65.7237C104.128 65.5922 104.292 65.4772 104.473 65.3786C104.604 65.2965 104.752 65.2307 104.884 65.165C105.755 64.7542 106.543 64.7214 107.168 65.0171C107.973 65.3786 108.499 66.3152 108.499 67.6954Z" fill="#D6D6D6"/>
<path d="M102.682 75.3857C103.257 75.3857 103.898 75.1886 104.555 74.8107C106.313 73.7919 107.874 71.6067 108.433 69.3721C108.532 69.027 108.581 68.6655 108.63 68.3369C108.647 68.1233 108.663 67.9097 108.663 67.6961C108.663 66.2995 108.137 65.2643 107.217 64.8536C106.527 64.5414 105.689 64.5907 104.802 65.0015C104.67 65.0672 104.522 65.1329 104.391 65.2151C104.227 65.3136 104.062 65.4122 103.898 65.5437L103.849 65.5765C102.025 66.9074 100.579 69.3885 100.316 71.6395C100.283 71.886 100.267 72.116 100.267 72.346C100.267 72.8883 100.349 73.3647 100.497 73.792C100.694 74.3506 101.039 74.7942 101.483 75.0736L101.548 75.1064C101.893 75.2872 102.271 75.3857 102.682 75.3857ZM106.264 64.985C106.56 64.985 106.839 65.0343 107.086 65.1493C107.874 65.5108 108.334 66.4309 108.334 67.6797C108.334 67.8768 108.318 68.0905 108.301 68.2876C108.269 68.6162 108.203 68.9449 108.121 69.2735C107.579 71.4259 106.083 73.5291 104.391 74.4985C103.372 75.09 102.436 75.1886 101.729 74.7942L101.68 74.7614C101.302 74.5313 101.023 74.1534 100.842 73.6605C100.71 73.2662 100.628 72.8225 100.628 72.3296C100.628 72.116 100.645 71.886 100.661 71.6724C100.908 69.5364 102.288 67.1539 104.013 65.8723L104.046 65.8559C104.21 65.7244 104.391 65.6258 104.555 65.5272C104.687 65.4451 104.818 65.3794 104.95 65.3301C105.41 65.1 105.853 64.985 106.264 64.985Z" fill="#808080"/>
<path d="M104.227 67.0884C104.227 67.2527 104.342 67.302 104.473 67.2363C104.605 67.1541 104.72 66.9734 104.72 66.8091C104.72 66.6448 104.605 66.5955 104.473 66.6612C104.342 66.7434 104.227 66.9405 104.227 67.0884Z" fill="#808080"/>
<path d="M105.59 66.5786C105.525 66.7594 105.558 66.9073 105.673 66.9073C105.788 66.9237 105.936 66.7922 106.001 66.6115C106.067 66.4308 106.034 66.2829 105.919 66.2829C105.804 66.2664 105.656 66.3979 105.59 66.5786Z" fill="#808080"/>
<path d="M106.642 66.9731C106.527 67.1209 106.478 67.3181 106.56 67.4167C106.626 67.5153 106.774 67.466 106.889 67.3345C107.004 67.1867 107.053 66.9895 106.971 66.8909C106.905 66.7923 106.757 66.8416 106.642 66.9731Z" fill="#808080"/>
<path d="M107.119 68.1888C106.987 68.271 106.872 68.4517 106.872 68.616C106.872 68.7803 106.987 68.8296 107.119 68.7639C107.25 68.6817 107.365 68.501 107.365 68.3367C107.365 68.1888 107.25 68.1231 107.119 68.1888Z" fill="#808080"/>
<path d="M106.889 69.8976C106.774 69.8812 106.626 70.0126 106.56 70.1934C106.494 70.3741 106.527 70.522 106.642 70.522C106.757 70.5384 106.905 70.407 106.971 70.2262C107.053 70.0619 107.004 69.9141 106.889 69.8976Z" fill="#808080"/>
<path d="M106.018 71.6231C105.952 71.5245 105.804 71.5738 105.689 71.7052C105.574 71.8531 105.525 72.0503 105.607 72.1489C105.673 72.2475 105.821 72.1982 105.936 72.0667C106.034 71.9188 106.084 71.7217 106.018 71.6231Z" fill="#808080"/>
<path d="M104.72 72.9207C104.72 72.7564 104.605 72.7071 104.473 72.7728C104.342 72.855 104.227 73.0357 104.227 73.2C104.227 73.3643 104.342 73.4136 104.473 73.3479C104.605 73.2822 104.72 73.085 104.72 72.9207Z" fill="#808080"/>
<path d="M103.356 73.4465C103.422 73.2657 103.389 73.1178 103.274 73.1178C103.159 73.1014 103.011 73.2329 102.945 73.4136C102.88 73.5943 102.912 73.7422 103.027 73.7422C103.142 73.7422 103.29 73.6272 103.356 73.4465Z" fill="#808080"/>
<path d="M102.304 73.0362C102.419 72.8883 102.469 72.6912 102.387 72.5926C102.304 72.494 102.173 72.5433 102.058 72.6747C101.943 72.8226 101.894 73.0198 101.976 73.1184C102.025 73.2334 102.189 73.1841 102.304 73.0362Z" fill="#808080"/>
<path d="M101.828 71.82C101.959 71.7379 102.074 71.5571 102.074 71.3928C102.074 71.2285 101.959 71.1792 101.828 71.245C101.696 71.3271 101.581 71.5079 101.581 71.6722C101.581 71.8365 101.68 71.9022 101.828 71.82Z" fill="#808080"/>
<path d="M102.058 70.1277C102.173 70.1441 102.321 70.0127 102.386 69.832C102.452 69.6512 102.419 69.5033 102.304 69.5033C102.189 69.4869 102.041 69.6184 101.976 69.7991C101.893 69.9634 101.943 70.1113 102.058 70.1277Z" fill="#808080"/>
<path d="M102.929 68.3862C102.995 68.4848 103.142 68.4355 103.257 68.304C103.372 68.1562 103.422 67.959 103.34 67.8604C103.274 67.7618 103.126 67.8111 103.011 67.9425C102.896 68.074 102.863 68.2876 102.929 68.3862Z" fill="#808080"/>
<path d="M119.981 20.0128L66.8277 50.7056L66.2691 50.3769L32.1751 30.6928L85.3289 0L119.981 20.0128Z" fill="url(#paint5_linear_2217_3069)"/>
<path d="M66.8298 50.7057V84.9147L74.273 80.6263L103.668 63.6532L120 54.2384V20.0129L89.4715 37.6268L66.8298 50.7057Z" fill="#2E903D"/>
<path fill-rule="evenodd" clip-rule="evenodd" d="M99.4358 56.1633L101.788 54.8053L102.799 50.846L103.85 49.2047L104.677 51.7797C104.933 52.5755 105.196 52.8374 105.771 52.5055L107.572 51.4659L105.715 46.5478L110.183 39.227L107.297 40.8929L104.585 45.8346C104.269 46.41 103.95 46.9813 103.629 47.6284L103.602 47.6441L104.956 42.2446L102.604 43.6027L99.4358 56.1633Z" fill="white"/>
<path fill-rule="evenodd" clip-rule="evenodd" d="M99.236 45.6708C99.9804 45.2411 100.702 44.8245 101.307 44.4754L100.817 46.4949C100.663 47.1294 100.272 47.6161 99.4107 48.1135C97.9149 48.977 95.7018 50.2545 94.2059 51.1179L94.696 49.0983C94.8499 48.4635 95.2407 47.977 96.1022 47.4797C96.9933 46.9652 98.139 46.3039 99.236 45.6708ZM94.8938 52.1642C96.3895 51.3007 98.6028 50.0232 100.099 49.16L99.6085 51.1794C99.4546 51.8141 99.0638 52.3006 98.2022 52.798C96.7065 53.6616 94.4933 54.9391 92.9975 55.8022L93.4875 53.783C93.6415 53.1482 94.0324 52.6616 94.8938 52.1642ZM98.8313 53.8806C97.3354 54.744 95.1222 56.0215 93.6265 56.885C92.7649 57.3825 92.3742 57.8691 92.2202 58.5034L91.7301 60.5232C93.226 59.6597 95.4392 58.3824 96.935 57.5188C97.7964 57.0215 98.1872 56.5347 98.3412 55.9001L98.8313 53.8806Z" fill="white"/>
<path fill-rule="evenodd" clip-rule="evenodd" d="M88.6272 54.2582L89.9066 53.5202C90.9966 52.8911 90.7477 54.5804 90.1959 56.4053C89.7097 58.0137 88.8481 59.6828 87.8203 60.276L85.6874 61.5071C84.8367 61.9983 84.4445 62.491 84.279 63.1431L83.7522 65.2191L85.3162 64.3165L86.845 63.4194C88.2008 62.6239 89.3108 61.8718 90.6089 59.798C91.9807 57.607 93.5804 53.0492 93.3065 51.1052C93.092 49.5818 92.3123 49.5466 90.4244 50.6365L86.984 52.6222L84.9803 60.4348L86.2531 59.7018C87.0106 59.2655 87.3907 59.0568 87.7938 57.5931L88.6272 54.2582Z" fill="white"/>
<path fill-rule="evenodd" clip-rule="evenodd" d="M82.6511 57.7188L81.7041 58.2658C79.807 59.3622 78.181 65.8432 80.4241 64.5472L81.8653 63.7148C82.6965 63.2349 83.3135 63.2288 83.0402 64.3308L82.6636 65.8487L81.1351 66.7315L79.8918 67.4348C78.3012 68.3348 77.2749 68.0228 76.9054 66.8627C76.5056 65.6073 77.0704 62.1812 78.7094 59.2492C79.6603 57.5482 80.9775 56.0918 82.6663 55.1166L85.7863 53.3147L85.2984 55.2205C84.9832 56.4519 84.3395 56.7454 83.9721 56.9573L82.6511 57.7188Z" fill="white"/>
<path d="M66.8299 50.7064V84.9154L56.4785 78.9345L32.1773 64.9026V30.6936L66.2712 50.3777L66.8299 50.7064Z" fill="url(#paint6_linear_2217_3069)"/>
<path d="M9.56854 67.5965L10.8994 68.3688C11.1459 68.5167 11.3595 68.3524 11.3595 68.0237V64.0803C11.3595 63.7517 11.1623 63.3574 10.8994 63.2095L9.56854 62.4373C9.32208 62.2894 9.10847 62.4537 9.10847 62.7823V66.7257C9.10847 67.0543 9.30565 67.4487 9.56854 67.5965Z" fill="#808080"/>
<path d="M11.3431 66.3645L12.5097 67.0217V66.3809L11.3431 65.7073V66.3645Z" fill="#333333"/>
<path d="M31.7829 98.6186C32.2759 97.4355 34.8062 94.7245 36.3343 92.6706C36.8436 91.9805 37.353 91.3068 37.8459 90.666C38.8482 89.3516 39.7026 87.9221 40.3763 86.4269C40.9842 85.096 41.4443 83.6994 41.7565 82.2535C42.3151 79.7067 43.1695 76.4534 44.4018 73.5615C45.552 70.8505 47.0472 69.7332 48.9367 68.5008L56.5278 63.4894L64.6118 58.1494V83.6336L42.6437 96.3182L31.2079 102.923C31.1914 102.907 30.8792 100.787 31.7829 98.6186ZM44.0404 84.6524L59.0417 75.5825C59.7154 75.1718 60.1426 74.4324 60.1426 73.6437V65.6254C60.1426 65.1161 59.5839 64.7875 59.1403 65.0504L53.2088 68.4844L48.6738 71.0969C46.9486 72.0992 45.3877 74.1859 44.6976 76.4041C43.7939 79.3123 43.2352 82.122 42.9231 83.8965C42.808 84.5209 43.4817 84.981 44.0404 84.6524Z" fill="#B8B8B8"/>
<path d="M64.5946 58.1494L56.5107 63.4894L48.9196 68.5008C47.0465 69.7167 45.5513 70.834 44.3847 73.5615C43.1524 76.4534 42.298 79.7067 41.7394 82.2535C41.4272 83.6994 40.9671 85.096 40.3592 86.4269C39.6855 87.9385 38.8311 89.3516 37.8288 90.666C37.3359 91.3068 36.8265 91.9805 36.3172 92.6706C34.8055 94.7245 32.2588 97.452 31.7658 98.6186C30.8621 100.787 31.1743 102.923 31.1743 102.923L0.990887 85.4903C0.990887 85.4903 0.678699 83.3543 1.58239 81.1855C2.23963 79.6245 5.65725 75.7961 7.64538 73.2329C9.55135 70.7519 10.8987 67.8765 11.5559 64.8203C12.1146 62.2736 12.969 59.0203 14.2013 56.1284C14.9242 54.4361 15.7786 53.3516 16.7809 52.4808C17.3724 51.9714 18.0297 51.5278 18.7362 51.0677L26.3272 46.0563L34.4112 40.7163L56.4778 53.4502L64.5946 58.1494ZM40.5728 68.3694L35.6107 65.5104L34.4112 64.8203L25.9329 59.924L20.6093 56.8514C18.2761 55.5041 15.335 56.6542 14.4642 59.1188C14.4313 59.2339 14.3984 59.3489 14.3656 59.4639C13.5605 62.1914 13.0347 64.7875 12.7389 66.4634C12.7225 66.5456 12.7225 66.6277 12.7389 66.6935L12.5253 67.6629C12.3775 68.3037 12.6732 68.9609 13.2319 69.2895L21.1515 73.8573L38.1739 83.6994C39.0447 84.2087 40.162 83.7158 40.392 82.7299L42.5938 72.9865C43.0045 71.1791 42.183 69.306 40.5728 68.3694Z" fill="url(#paint7_linear_2217_3069)"/>
<path d="M43.6459 84.5699C43.7445 84.5699 43.843 84.5371 43.9252 84.4878L58.943 75.418C59.5674 75.04 59.9453 74.3664 59.9453 73.6434V65.6252C59.9453 65.3294 59.6988 65.1487 59.4688 65.1487C59.3866 65.1487 59.3045 65.1651 59.2387 65.2144L48.7723 71.261C47.0799 72.2304 45.5683 74.2678 44.8946 76.4531C44.0074 79.3121 43.4487 82.1053 43.1201 83.9291C43.0872 84.0934 43.1365 84.2577 43.2351 84.3728C43.3337 84.5042 43.4816 84.5699 43.6459 84.5699Z" fill="#28444B"/>
<path d="M42.9066 83.8959C43.2188 82.1213 43.7939 79.2952 44.6812 76.4034C45.3712 74.1852 46.9322 72.0985 48.6574 71.0962L53.1923 68.4837L59.1239 65.0497C59.2389 64.984 59.3375 64.9675 59.4525 64.9675C59.7975 64.9675 60.1261 65.2469 60.1261 65.6412V73.6594C60.1261 74.4481 59.7154 75.1875 59.0253 75.5983L44.0075 84.6845C43.876 84.7667 43.7446 84.7995 43.6296 84.7995C43.2188 84.7667 42.8245 84.3723 42.9066 83.8959ZM43.3667 84.2409C43.4324 84.3231 43.5474 84.3723 43.646 84.3723C43.7117 84.3723 43.7775 84.3559 43.8268 84.3231L58.8445 75.2368C59.4032 74.8918 59.7482 74.2838 59.7482 73.6266V65.6083C59.7482 65.4276 59.6004 65.329 59.4689 65.329C59.4196 65.329 59.3703 65.3454 59.3375 65.3619L53.4059 68.7959L48.871 71.4084C47.2279 72.3614 45.7327 74.3495 45.0755 76.4855C44.1882 79.3445 43.6296 82.1213 43.301 83.9451C43.2681 84.093 43.3174 84.1916 43.3667 84.2409Z" fill="#333333"/>
<path d="M18.1945 56.6698C18.2931 56.6698 18.3917 56.6533 18.4902 56.6533C18.5231 56.6533 18.556 56.6533 18.5888 56.6533V63.9158L18.1945 64.1458L17.8001 64.3758V56.719C17.9316 56.6862 18.063 56.6698 18.1945 56.6698Z" fill="#333333"/>
<path d="M48.2301 71.4417H48.7723V81.7766L48 81.9081V71.6717C48 71.5402 48.0986 71.4417 48.2301 71.4417Z" fill="#333333"/>
<path d="M57.5794 79.6896L59.6826 78.4738C59.7976 78.408 59.8962 78.2766 59.9291 78.1287L60.1427 77.2086C60.1919 76.995 60.0769 76.88 59.8962 76.9786L57.3658 78.4409C57.2015 78.5395 57.0701 78.8024 57.1194 78.9503L57.333 79.6239C57.3658 79.7389 57.4644 79.7554 57.5794 79.6896Z" fill="#333333"/>
<path d="M39.1886 83.9912C39.8273 83.9912 40.3483 83.5572 40.4995 82.9562L42.7347 73.0565C43.1381 71.2869 42.5266 69.484 40.93 68.5658L20.5105 56.8632C19.8719 56.4959 18.9876 56.3123 18.2649 56.3123C16.5003 56.3123 14.9205 57.4141 14.3323 59.0668C14.2987 59.167 14.2651 59.2838 14.2315 59.4007C14.2147 59.4508 14.2147 59.4841 14.1979 59.5342L12.3324 67.7311C12.1979 68.2987 12.45 68.883 12.971 69.1668L38.5164 83.8076C38.7181 83.9244 38.9533 83.9912 39.1886 83.9912Z" fill="#28444B"/>
<path d="M45.6341 88.4144L44.3032 87.6422C44.0568 87.4943 43.8432 87.1 43.8432 86.7714V82.828C43.8432 82.4993 44.0403 82.335 44.3032 82.4829L45.6341 83.2552C45.8806 83.403 46.0942 83.7974 46.0942 84.126V88.0694C46.0942 88.4144 45.8806 88.5623 45.6341 88.4144Z" fill="#808080"/>
<path d="M43.8595 85.1277L42.6929 84.454V83.8132L43.8595 84.4869V85.1277Z" fill="#333333"/>
<defs>
<linearGradient id="paint0_linear_2217_3069" x1="32.5202" y1="84.0912" x2="30.3445" y2="84.0912" gradientUnits="userSpaceOnUse">
<stop stop-color="#333333"/>
<stop offset="1" stop-color="#808080"/>
</linearGradient>
<linearGradient id="paint1_linear_2217_3069" x1="8.90914" y1="106.348" x2="5.49737" y2="106.181" gradientUnits="userSpaceOnUse">
<stop stop-color="#808080"/>
<stop offset="1" stop-color="#6F6F6F"/>
</linearGradient>
<linearGradient id="paint2_linear_2217_3069" x1="46.6261" y1="96.9243" x2="39.5888" y2="108.578" gradientUnits="userSpaceOnUse">
<stop/>
<stop offset="1" stop-color="#1A1A1A"/>
</linearGradient>
<linearGradient id="paint3_linear_2217_3069" x1="79.0279" y1="86.1917" x2="68.0409" y2="86.1917" gradientUnits="userSpaceOnUse">
<stop/>
<stop offset="1" stop-color="#1A1A1A"/>
</linearGradient>
<linearGradient id="paint4_linear_2217_3069" x1="108.445" y1="69.1861" x2="97.437" y2="69.1861" gradientUnits="userSpaceOnUse">
<stop/>
<stop offset="1" stop-color="#1A1A1A"/>
</linearGradient>
<linearGradient id="paint5_linear_2217_3069" x1="76.0783" y1="0" x2="76.0783" y2="50.7056" gradientUnits="userSpaceOnUse">
<stop stop-color="#28AD3E"/>
<stop offset="1" stop-color="#34BB4B"/>
</linearGradient>
<linearGradient id="paint6_linear_2217_3069" x1="49.5036" y1="30.6936" x2="49.5036" y2="84.9154" gradientUnits="userSpaceOnUse">
<stop stop-color="#2F953F"/>
<stop offset="1" stop-color="#297936"/>
</linearGradient>
<linearGradient id="paint7_linear_2217_3069" x1="8.00079" y1="94.0134" x2="73.8576" y2="32.4516" gradientUnits="userSpaceOnUse">
<stop stop-color="#E6E6E6"/>
<stop offset="0.9999" stop-color="#C9C9CE"/>
<stop offset="1" stop-color="#E8E8E8"/>
</linearGradient>
</defs>
</svg>
