<svg width="100" height="120" viewBox="0 0 100 120" fill="none" xmlns="http://www.w3.org/2000/svg">
<path d="M0 72.1719V85.5885C0 86.43 0.332753 87.0175 0.839804 87.2398C1.28347 87.4462 1.86975 87.3985 2.50357 87.0175L13.3418 75.3633L43.5906 57.5169V44.0845L2.48772 67.8532C2.17081 68.0438 1.85391 68.2978 1.58454 68.5836C0.665505 69.5363 0 70.9494 0 72.1719Z" fill="#2AAB43"/>
<path d="M0.839804 87.2398L57.0275 119.789C57.6296 119.122 58.2634 117.979 57.1225 119.328L58.8814 97.9095L18.4757 72.3466L9.17447 66.9641C7.41563 67.5674 5.64095 68.1073 3.96134 68.7265C3.53352 68.8853 3.10569 69.044 2.66202 69.2028C2.61449 69.2187 2.5511 69.2346 2.50357 69.2505L0.839804 87.2398Z" fill="#2AAB43"/>
<path d="M0 72.1716V85.5882C0 86.4297 0.332753 87.0171 0.839804 87.2394L57.0275 119.788C57.6296 119.122 58.2634 117.978 58.8814 117.327V101.72L13.326 75.3789L2.64618 69.2025L1.58454 68.5833C1.44193 68.742 1.29932 68.9008 1.17256 69.0755C0.665505 69.7423 0.269371 70.5521 0.0950722 71.3459C0.0316907 71.6159 0 71.9017 0 72.1716Z" fill="#2D8B3C"/>
<path d="M99.9843 76.7285L64.6175 97.1789L57.9783 101.704L50.5468 97.1789L2.45613 67.8847L39.4867 46.45L43.5749 44.1001L44.9534 44.894L45.8883 45.4338L99.9051 76.6809L99.9843 76.7285Z" fill="#2EB445"/>
<g style="mix-blend-mode:multiply" opacity="0.4">
<path d="M0.0950012 71.3301L58.8655 105.34V102.45L1.17249 69.0596C0.649589 69.7423 0.2693 70.5521 0.0950012 71.3301Z" fill="#2AAB43"/>
</g>
<path d="M58.8813 100.497L99.9683 76.7285V77.9035L98.7007 78.6021L98.8116 94.4479L100 94.7337L99.9683 95.8928L58.8813 119.662C57.5186 120.455 56.3935 119.804 56.3935 118.217V104.8C56.3935 103.228 57.5027 101.275 58.8813 100.497Z" fill="#2E903D"/>
<path d="M99.1921 78.3162V94.813L59.9748 117.502V101.005L99.1921 78.3162Z" fill="#F1F4F8"/>
<path d="M60.7671 100.545V117.042L59.9748 117.502V101.005L60.7671 100.545Z" fill="#FFC000"/>
<path d="M99.1921 94.2891L99.9844 94.7336L59.9748 117.994V117.502L99.1921 94.813V94.2891Z" fill="#2EBBCB"/>
<path opacity="0.1" d="M59.9748 103.927V101.005L99.1921 78.3162V81.8092L59.9748 103.927Z" fill="#53B4E9"/>
<path opacity="0.1" d="M99.1919 85.8265L79.5754 95.5277L99.1919 84.7944V85.8265Z" fill="#53B4E9"/>
<path opacity="0.1" d="M99.192 89.0337L88.5756 93.8129L99.192 88.0176V89.0337Z" fill="#53B4E9"/>
<g style="mix-blend-mode:multiply" opacity="0.5">
<path d="M91.7923 76.7285L56.4413 97.1789H50.5468L2.45613 67.8847L39.4867 46.45L91.7289 76.6809L91.7923 76.7285Z" fill="#D1E6F2"/>
</g>
<path d="M4.35751 49.7526V50.1655L18.3331 58.263L56.2828 80.2059V80.19L79.4329 66.8052H79.4487L94.1215 58.3107L93.2025 57.7708L93.1391 57.7391L93.0123 57.6756L42.1962 28.2703L4.35751 48.8794V49.7526Z" fill="#6E5339"/>
<path d="M4.35751 67.1542L56.2828 97.1946L92.2201 74.2039L42.1962 45.259L4.35751 65.8681V67.1542Z" fill="#6E5339"/>
<path d="M4.3576 48.8793L19.4899 57.6438L47.9165 74.0929L56.2829 78.9197L64.6492 74.0929L66.1545 73.2197L78.3396 66.17L92.7906 57.8184L93.155 57.739L93.361 57.7073L93.4085 57.6914L94.8029 57.4215C94.7871 57.4056 94.7554 57.3738 94.7079 57.358L94.3434 57.1516L94.3276 57.1357L94.1374 57.0245V57.0087L57.7248 35.9708L42.1963 26.9841L4.3576 48.8793Z" fill="#B78B60"/>
<path d="M56.2828 78.904V97.195L93.1708 75.8555C94.4226 75.1251 95.4525 73.3468 95.4525 71.8861V58.8982C95.4525 57.4375 94.4226 56.85 93.1708 57.5804L56.2828 78.904Z" fill="#B78B60"/>
<path d="M56.2828 80.206V95.0992L91.7923 74.5536L92.6321 74.0614V59.1841L91.7923 59.6604L56.2828 80.206Z" fill="#F1F4F8"/>
<path d="M91.7923 74.5535L92.6321 74.0613V74.8552L91.7923 75.3474L56.2828 95.893V95.0991L91.7923 74.5535Z" fill="#6E5339"/>
<path d="M91.7923 59.6604V74.5536L92.6321 74.0614V59.1841L91.7923 59.6604Z" fill="#6E5339"/>
<path d="M5.64093 50.9275V66.5987L56.2827 95.8928V80.2058L5.64093 50.9275Z" fill="#C4E4F9"/>
<path d="M5.6409 65.1697L4.35742 65.8683L56.2827 95.8928V95.0989L5.6409 65.8207V65.1697Z" fill="#6E5339"/>
<path opacity="0.1" d="M5.64102 50.9275V55.3256L56.2828 84.5245L80.3836 70.2981L56.3303 83.2066L56.2828 81.0632L92.6321 60.4858V59.1838L56.2828 80.2058L5.64102 50.9275Z" fill="#53B4E9"/>
<path opacity="0.1" d="M5.64102 63.709V64.2965L15.8296 69.5678L5.64102 63.709Z" fill="#53B4E9"/>
<path opacity="0.1" d="M5.64102 60.7874V61.5336L10.2996 63.7088L5.64102 60.7874Z" fill="#53B4E9"/>
<path opacity="0.1" d="M75.2973 81.9521L56.2829 93.0665L56.3146 92.0979L75.2973 81.9521Z" fill="#53B4E9"/>
<path opacity="0.1" d="M60.1491 86.9536L56.2829 89.2241V88.6366L60.1491 86.9536Z" fill="#53B4E9"/>
<path opacity="0.1" d="M49.7861 85.7629L56.2827 89.2243V88.6368L49.7861 85.7629Z" fill="#53B4E9"/>
<path opacity="0.5" d="M29.3615 34.4148L42.1962 26.9841L55.031 34.4148H29.3615Z" fill="#D1E6F2"/>
<g style="mix-blend-mode:multiply" opacity="0.5">
<path d="M73.3167 59.3265C77.3889 53.69 75.4558 46.942 67.5331 42.3534C57.0435 36.2881 40.0414 36.2881 29.5676 42.3534C19.078 48.4186 19.078 58.2468 29.5676 64.328C39.9939 70.3614 56.8533 70.3932 67.3429 64.4391C67.2003 65.9316 67.0894 67.4241 67.026 68.9166C67.0102 69.2024 66.931 72.759 66.9468 72.759C66.9468 72.8383 66.931 72.9177 66.931 72.9971C66.931 73.4576 67.1053 73.8863 67.4222 74.2673C67.5014 74.3785 67.6123 74.4737 67.7232 74.569C67.8342 74.6643 67.9451 74.7595 68.0718 74.8389C68.1352 74.8866 68.1986 74.9183 68.262 74.9659C68.4046 75.0453 68.5472 75.1247 68.7057 75.1882C68.8007 75.2359 68.8958 75.2835 69.0067 75.2994C69.1493 75.347 69.2919 75.3946 69.4345 75.4264C69.4979 75.4423 69.5613 75.4581 69.6247 75.474C69.7831 75.5058 69.9574 75.5375 70.1159 75.5534C70.1793 75.5693 70.2426 75.5852 70.3219 75.5852C70.4803 75.601 70.6546 75.601 70.8131 75.601H70.8448C70.924 75.601 71.0191 75.601 71.0983 75.601C71.3677 75.5852 71.6212 75.5534 71.8589 75.5058C71.9223 75.4899 72.0015 75.474 72.0649 75.4581C72.2233 75.4264 72.3976 75.3788 72.5402 75.3152C72.6987 75.2676 72.8413 75.2041 72.9997 75.1406C73.079 75.093 73.174 75.0612 73.2533 75.0136C73.4117 74.9342 73.5543 74.8389 73.6969 74.7437C73.8079 74.6643 73.9029 74.5849 73.998 74.4896C74.0931 74.4102 74.1723 74.315 74.2515 74.2038C74.5526 73.8386 74.7269 73.4099 74.7269 72.9654C74.7269 72.886 74.7269 72.8066 74.711 72.7272C74.6952 68.6943 74.3466 62.5338 73.3167 59.3265Z" fill="#C4E4F9"/>
</g>
<path d="M69.2283 61.0414C65.0451 63.4707 55.5379 67.1384 51.5607 68.6468C50.404 69.0913 49.1205 69.0596 47.9797 68.5991C44.1926 67.0272 35.3826 63.3119 31.4688 61.0414C28.9177 59.5648 26.9846 57.8659 25.6852 56.0558C24.0373 53.7536 23.3877 51.2767 23.7363 48.8315V48.7839C23.7521 48.6727 23.768 48.5457 23.7996 48.4346L26.3666 33.1762C26.3666 33.1603 26.3666 33.1603 26.3666 33.1445L26.3824 33.0968C26.5567 32.0648 26.937 31.0486 27.5075 30.0483C28.6483 28.0636 30.5815 26.206 33.3069 24.6341C42.719 19.1881 57.9781 19.1881 67.3902 24.6341C71.4783 26.9998 73.7918 30.0007 74.3305 33.0968L74.3463 33.1445C74.3463 33.1603 74.3463 33.1603 74.3463 33.1762L74.5682 34.4623L76.6598 46.8468L76.9608 48.6092C76.9608 48.6251 76.9608 48.6251 76.9608 48.641V48.6569C77.658 53.0867 75.0911 57.6436 69.2283 61.0414Z" fill="#191B1E"/>
<path d="M76.6282 46.8468C76.0577 54.2775 67.9132 60.2634 64.1262 62.3116C60.8145 64.1058 56.457 65.8841 52.6224 65.63C49.3583 65.4236 49.7227 63.693 49.7227 61.2319C49.7227 55.7542 28.8861 46.1165 26.636 50.0065C25.6219 51.7371 25.4635 53.9282 25.6853 56.04C24.0374 53.7377 23.3877 51.2608 23.7363 48.8157V48.768C23.7522 48.6569 23.768 48.5299 23.7997 48.4187L26.3667 33.1604C26.3667 33.1445 26.3667 33.1445 26.3667 33.1286L26.3825 33.081C26.5568 32.0489 26.9371 31.0328 27.5075 30.0325C29.7417 28.8893 32.277 28.1589 34.7489 27.6985C44.3512 25.9043 54.7616 27.0157 64.0786 29.7467C65.9801 30.3024 70.6069 32.0807 74.5524 34.4464L76.6282 46.8468Z" fill="#1A1A1A"/>
<path d="M3.29589 26.6028H1.3786V28.0318H3.29589V26.6028Z" fill="#191B1E"/>
<path d="M99.2399 26.7776H96.8631V28.1272H99.2399V26.7776Z" fill="#191B1E"/>
<path d="M98.5741 26.952C98.9861 27.1743 99.2396 27.5871 99.2396 28.0317C99.2396 28.4763 98.9861 28.8891 98.5741 29.1114L50.9747 54.6426C50.5627 54.8648 50.0556 54.8648 49.6437 54.6426L2.06004 29.0955C1.64806 28.8732 1.39453 28.4604 1.39453 28.0158C1.39453 27.5713 1.64806 27.1584 2.06004 26.9362L49.6437 1.405C50.0556 1.18271 50.5627 1.18271 50.9747 1.405L98.5741 26.952Z" fill="#191B1E"/>
<path d="M99.2396 26.7776C99.2396 27.2221 98.9861 27.6349 98.5741 27.8572L97.2907 28.54L50.9905 53.4043C50.5785 53.6266 50.0556 53.6266 49.6437 53.4043L2.06004 27.8572C1.64806 27.6349 1.39453 27.2221 1.39453 26.7776C1.39453 26.333 1.64806 25.9202 2.06004 25.6979L49.6437 0.166715C50.0556 -0.0555716 50.5627 -0.0555716 50.9905 0.166715L98.5741 25.7138C98.9861 25.9202 99.2396 26.333 99.2396 26.7776Z" fill="#333333"/>
<path d="M97.2905 28.5399L50.9903 53.4042C50.5784 53.6265 50.0555 53.6265 49.6435 53.4042L2.05986 27.8572L49.7069 51.9276C50.103 52.134 50.5784 52.134 50.9745 51.9276L97.2905 28.5399Z" fill="#444649"/>
<path d="M52.8127 27.9844L53.5257 28.4131C53.082 29.1434 52.163 29.3975 51.4658 28.9847L50.7528 28.556C50.7528 28.5401 50.7686 28.5242 50.7845 28.5083C51.2281 27.8097 52.1313 27.5716 52.8127 27.9844Z" fill="#FFC41D"/>
<path d="M52.813 27.9844L53.114 28.1749C52.9239 28.3654 52.6862 28.5242 52.4644 28.6036C52.1791 28.7147 51.8464 28.7465 51.5453 28.7147C51.2759 28.6989 51.0383 28.5877 50.7847 28.5083C51.2284 27.8097 52.1316 27.5716 52.813 27.9844Z" fill="#FFEE8D"/>
<path d="M54.2228 28.8417L54.9359 29.2704C54.4922 30.0007 53.5732 30.2548 52.876 29.8261L52.1629 29.3974C52.1788 29.3815 52.1788 29.3656 52.1946 29.3497C52.6541 28.667 53.5415 28.4288 54.2228 28.8417Z" fill="#FFC41D"/>
<path d="M54.2231 28.8418L54.5241 29.0323C54.334 29.2229 54.0963 29.3816 53.8745 29.461C53.5734 29.5722 53.2565 29.588 52.9554 29.5722C52.6861 29.5563 52.4484 29.4451 52.1949 29.3658C52.6544 28.6671 53.5417 28.429 54.2231 28.8418Z" fill="#FFEE8D"/>
<path d="M55.7285 29.6357L56.4415 30.0644C55.9978 30.7948 55.0788 31.0488 54.3816 30.6202L53.6686 30.1915L53.7003 30.1597C54.1598 29.4611 55.0471 29.2229 55.7285 29.6357Z" fill="#FFC41D"/>
<path d="M55.7286 29.6357L56.0296 29.8263C55.8395 30.0327 55.6018 30.1756 55.38 30.255C55.0948 30.3661 54.762 30.382 54.4609 30.3661C54.1916 30.3502 53.9539 30.2391 53.7004 30.1597C54.1599 29.4611 55.0472 29.2229 55.7286 29.6357Z" fill="#FFEE8D"/>
<path d="M57.1544 30.4928L57.8675 30.9215C57.4238 31.6518 56.5048 31.9059 55.8076 31.4772L55.0945 31.0485L55.1262 31.0009C55.5699 30.3181 56.4731 30.08 57.1544 30.4928Z" fill="#FFC41D"/>
<path d="M57.1544 30.4929L57.4713 30.6835C57.2811 30.874 57.0435 31.0328 56.8216 31.1121C56.5364 31.2233 56.2037 31.2392 55.9026 31.2233C55.6332 31.2074 55.3955 31.0963 55.142 31.0169C55.5698 30.3183 56.473 30.0801 57.1544 30.4929Z" fill="#FFEE8D"/>
<path d="M58.5329 31.271L59.246 31.6997C58.8023 32.4301 57.8833 32.6841 57.1861 32.2713L56.473 31.8426C56.4889 31.8267 56.4889 31.8109 56.5047 31.795C56.9642 31.0964 57.8516 30.8741 58.5329 31.271Z" fill="#FFC41D"/>
<path d="M58.5332 31.271L58.8342 31.4615C58.6441 31.6521 58.4064 31.8109 58.1846 31.8902C57.8994 32.0014 57.5666 32.0331 57.2656 32.0014C56.9962 31.9855 56.7585 31.8744 56.505 31.795C56.9645 31.0964 57.8518 30.8741 58.5332 31.271Z" fill="#FFEE8D"/>
<path d="M59.9431 32.1284L60.6562 32.5571C60.2125 33.2875 59.2935 33.5415 58.5963 33.1287L57.8832 32.7C57.8991 32.6841 57.8991 32.6683 57.9149 32.6524C58.3744 31.9538 59.2776 31.7156 59.9431 32.1284Z" fill="#FFC41D"/>
<path d="M59.9434 32.1284L60.2444 32.3189C60.0543 32.5095 59.8166 32.6683 59.5948 32.7476C59.3095 32.8588 58.9768 32.8747 58.6757 32.8588C58.4064 32.8429 58.1687 32.7318 57.9151 32.6524C58.3747 31.9538 59.2779 31.7156 59.9434 32.1284Z" fill="#FFEE8D"/>
<path d="M61.4646 32.9222L62.1776 33.3509C61.734 34.0813 60.8149 34.3353 60.1177 33.9066L59.4047 33.4779L59.4364 33.4303C59.88 32.7476 60.7832 32.5094 61.4646 32.9222Z" fill="#FFC41D"/>
<path d="M61.4647 32.9224L61.7658 33.1129C61.5756 33.3034 61.338 33.4622 61.1161 33.5416C60.8309 33.6527 60.4982 33.6845 60.1971 33.6527C59.9277 33.6369 59.69 33.5257 59.4365 33.4463C59.8802 32.7477 60.7834 32.5095 61.4647 32.9224Z" fill="#FFEE8D"/>
<path d="M62.8747 33.7798L63.5878 34.2085C63.1441 34.9388 62.2251 35.1929 61.5437 34.7801L60.8307 34.3514L60.8624 34.3037C61.306 33.6051 62.1934 33.367 62.8747 33.7798Z" fill="#FFC41D"/>
<path d="M62.8748 33.7798L63.1759 33.9703C62.9857 34.1608 62.748 34.3196 62.5262 34.399C62.241 34.5102 61.9082 34.526 61.6072 34.5102C61.3378 34.4943 61.1001 34.3831 60.8466 34.3037C61.3061 33.6051 62.1935 33.367 62.8748 33.7798Z" fill="#FFEE8D"/>
<path d="M64.2532 34.5575L64.9662 34.9862C64.5225 35.7166 63.6035 35.9706 62.9063 35.5419L62.1933 35.1132C62.2091 35.0973 62.2091 35.0815 62.225 35.0656C62.6845 34.3828 63.5877 34.1606 64.2532 34.5575Z" fill="#FFC41D"/>
<path d="M64.2534 34.5576L64.5545 34.7482C64.3643 34.9546 64.1266 35.0975 63.9048 35.1769C63.6037 35.288 63.2868 35.3198 62.9858 35.288C62.7164 35.2721 62.4787 35.161 62.2252 35.0816C62.6847 34.383 63.5879 34.1607 64.2534 34.5576Z" fill="#FFEE8D"/>
<path d="M65.6792 35.4307L66.3923 35.8594C65.9486 36.5898 65.0296 36.8438 64.3324 36.4151L63.6193 35.9864C63.6352 35.9705 63.6352 35.9547 63.651 35.9388C64.1105 35.2402 64.9979 35.0179 65.6792 35.4307Z" fill="#FFC41D"/>
<path d="M65.6795 35.4308L65.9806 35.6213C65.7904 35.8119 65.5527 35.9706 65.3309 36.05C65.0457 36.1612 64.7129 36.1929 64.4119 36.1612C64.1425 36.1453 63.9048 36.0342 63.6513 35.9548C64.1108 35.2403 64.9982 35.018 65.6795 35.4308Z" fill="#FFEE8D"/>
<path d="M67.1849 36.209L67.8979 36.6377C67.4542 37.3681 66.5352 37.6221 65.838 37.2093L65.125 36.7806L65.1567 36.733C65.6162 36.0344 66.5035 35.8121 67.1849 36.209Z" fill="#FFC41D"/>
<path d="M67.185 36.209L67.486 36.3995C67.2959 36.5901 67.0582 36.7488 66.8364 36.8282C66.5512 36.9394 66.2184 36.9711 65.9173 36.9394C65.648 36.9235 65.4103 36.8124 65.1568 36.733C65.6163 36.0344 66.5036 35.8121 67.185 36.209Z" fill="#FFEE8D"/>
<path d="M68.595 37.0662L69.308 37.4949C68.8644 38.2252 67.9453 38.4793 67.2481 38.0506L66.5509 37.6378L66.5826 37.5901C67.0263 36.8915 67.9295 36.6692 68.595 37.0662Z" fill="#FFC41D"/>
<path d="M68.5951 37.0662L68.8961 37.2567C68.706 37.4472 68.4683 37.606 68.2465 37.6854C67.9612 37.7966 67.6285 37.8283 67.3274 37.7966C67.0581 37.7807 66.8204 37.6695 66.5668 37.5901C67.0264 36.8915 67.9296 36.6692 68.5951 37.0662Z" fill="#FFEE8D"/>
<path d="M69.989 37.8603L70.702 38.2889C70.2584 39.0193 69.3393 39.2734 68.6422 38.8605L67.9291 38.4318C67.945 38.416 67.945 38.4001 67.9608 38.3842C68.4045 37.6697 69.3077 37.4474 69.989 37.8603Z" fill="#FFC41D"/>
<path d="M69.9892 37.8603L70.2903 38.0508C70.1001 38.2572 69.8625 38.4001 69.6406 38.4795C69.3554 38.5906 69.0227 38.6065 68.7216 38.5906C68.4522 38.5747 68.2145 38.4636 67.961 38.3842C68.4047 37.6697 69.3079 37.4474 69.9892 37.8603Z" fill="#FFEE8D"/>
<path d="M71.4311 38.6541L72.1441 39.0827C71.7004 39.8131 70.7814 40.0672 70.0842 39.6543L69.3712 39.2256C69.387 39.2098 69.387 39.1939 69.4029 39.178C69.8624 38.4794 70.7497 38.2412 71.4311 38.6541Z" fill="#FFC41D"/>
<path d="M71.4311 38.6541L71.7322 38.8446C71.542 39.0351 71.3044 39.1939 71.0825 39.2733C70.7815 39.3844 70.4646 39.4162 70.1635 39.3844C69.8941 39.3685 69.6564 39.2574 69.4029 39.178C69.8624 38.4794 70.7498 38.2412 71.4311 38.6541Z" fill="#FFEE8D"/>
<path d="M73.0313 39.718L73.6492 40.2737C73.0788 40.9088 72.1281 40.9882 71.526 40.4325L70.908 39.8768L70.9397 39.845C71.5101 39.2417 72.445 39.1782 73.0313 39.718Z" fill="#FFC41D"/>
<path d="M73.0313 39.718L73.3007 39.9562C73.0788 40.1149 72.8095 40.2261 72.5876 40.2578C72.2707 40.3055 71.9538 40.2737 71.6686 40.1943C71.3992 40.1149 71.1932 39.9721 70.9556 39.845C71.5102 39.2417 72.445 39.1782 73.0313 39.718Z" fill="#FFEE8D"/>
<path d="M74.0616 41.274L74.3785 42.052C73.5862 42.3696 72.6989 42.0203 72.3978 41.274L72.0809 40.496L72.1284 40.4802C72.9048 40.1785 73.7605 40.5437 74.0616 41.274Z" fill="#FFC41D"/>
<path d="M74.0617 41.274L74.1885 41.6075C73.9191 41.6551 73.6339 41.6234 73.4121 41.5598C73.111 41.4805 72.8417 41.3058 72.604 41.0994C72.398 40.9247 72.2712 40.6866 72.1128 40.4802C72.905 40.1785 73.7607 40.5437 74.0617 41.274Z" fill="#FFEE8D"/>
<path d="M74.4892 43.179V44.0523C73.6336 44.0523 72.9364 43.3537 72.9364 42.5122V41.6389C72.9522 41.6389 72.9681 41.6389 72.9839 41.6389C73.8396 41.6548 74.4892 42.3375 74.4892 43.179Z" fill="#FFC41D"/>
<path d="M74.4893 43.179V43.5601C74.2199 43.4966 73.9664 43.3696 73.7921 43.2108C73.5544 43.0044 73.3643 42.7345 73.2217 42.4487C73.0949 42.1946 73.0632 41.9247 72.9998 41.6389C73.8396 41.6548 74.4893 42.3375 74.4893 43.179Z" fill="#FFEE8D"/>
<path d="M74.4892 44.9256V45.7989C73.6336 45.7989 72.9364 45.1003 72.9364 44.2588V43.3855C72.9522 43.3855 72.9681 43.3855 72.9839 43.3855C73.8396 43.4014 74.4892 44.0841 74.4892 44.9256Z" fill="#FFC41D"/>
<path d="M74.4893 44.9256V45.3067C74.2199 45.2432 73.9664 45.1162 73.7921 44.9574C73.5544 44.751 73.3643 44.4811 73.2217 44.1953C73.0949 43.9412 73.0632 43.6554 72.9998 43.3855C73.8396 43.4014 74.4893 44.0841 74.4893 44.9256Z" fill="#FFEE8D"/>
<path d="M74.4892 46.7198V47.5931C73.6336 47.5931 72.9364 46.8945 72.9364 46.0371V45.1638C72.9522 45.1638 72.9681 45.1638 72.9839 45.1638C73.8396 45.1956 74.4892 45.8783 74.4892 46.7198Z" fill="#FFC41D"/>
<path d="M74.4893 46.7198V47.1009C74.2199 47.0374 73.9664 46.8945 73.7921 46.7516C73.5544 46.5452 73.3643 46.2752 73.2217 45.9894C73.0949 45.7354 73.0632 45.4655 72.9998 45.1956C73.8396 45.1956 74.4893 45.8783 74.4893 46.7198Z" fill="#FFEE8D"/>
<path d="M74.4892 48.4664V49.3397C73.6336 49.3397 72.9364 48.6411 72.9364 47.7837V46.9104C72.9522 46.9104 72.9681 46.9104 72.9839 46.9104C73.8396 46.9422 74.4892 47.6249 74.4892 48.4664Z" fill="#FFC41D"/>
<path d="M74.4893 48.4664V48.8475C74.2199 48.7839 73.9664 48.641 73.7921 48.4982C73.5544 48.2917 73.3643 48.0218 73.2217 47.736C73.0949 47.482 73.0632 47.2121 72.9998 46.9263C73.8396 46.9421 74.4893 47.6249 74.4893 48.4664Z" fill="#FFEE8D"/>
<path d="M74.4892 50.1334V51.0067C73.6336 51.0067 72.9364 50.308 72.9364 49.4507V48.5774C72.9522 48.5774 72.9681 48.5774 72.9839 48.5774C73.8396 48.625 74.4892 49.3078 74.4892 50.1334Z" fill="#FFC41D"/>
<path d="M74.4893 50.1336V50.5147C74.2199 50.4512 73.9664 50.3242 73.7921 50.1654C73.5544 49.959 73.3643 49.6891 73.2217 49.4033C73.0949 49.1492 73.0632 48.8793 72.9998 48.5935C73.8396 48.6253 74.4893 49.308 74.4893 50.1336Z" fill="#FFEE8D"/>
<path d="M74.4892 51.88V52.7532C73.6336 52.7532 72.9364 52.0546 72.9364 51.2131V50.3398C72.9522 50.3398 72.9681 50.3398 72.9839 50.3398C73.8396 50.3716 74.4892 51.0385 74.4892 51.88Z" fill="#FFC41D"/>
<path d="M74.4893 51.88V52.261C74.2199 52.1975 73.9664 52.0546 73.7921 51.9117C73.5544 51.7053 73.3643 51.4354 73.2217 51.1496C73.0949 50.8956 73.0632 50.6098 72.9998 50.3398C73.8396 50.3716 74.4893 51.0385 74.4893 51.88Z" fill="#FFEE8D"/>
<path d="M74.4892 53.6742V54.5474C73.6336 54.5474 72.9364 53.8488 72.9364 52.9914V52.1182C72.9522 52.1182 72.9681 52.1182 72.9839 52.1182C73.8396 52.1499 74.4892 52.8327 74.4892 53.6742Z" fill="#FFC41D"/>
<path d="M74.4893 53.6742V54.0552C74.2199 53.9917 73.9664 53.8488 73.7921 53.7059C73.5544 53.4995 73.3643 53.2296 73.2217 52.9438C73.0949 52.6897 73.0632 52.4198 72.9998 52.1499C73.8396 52.1499 74.4893 52.8326 74.4893 53.6742Z" fill="#FFEE8D"/>
<path d="M74.4892 55.4207V56.294C73.6336 56.294 72.9364 55.5954 72.9364 54.738V53.8647C72.9522 53.8647 72.9681 53.8647 72.9839 53.8647C73.8396 53.8965 74.4892 54.5792 74.4892 55.4207Z" fill="#FFC41D"/>
<path d="M74.4893 55.421V55.8021C74.2199 55.7385 73.9664 55.6115 73.7921 55.4527C73.5544 55.2463 73.3643 54.9764 73.2217 54.6906C73.0949 54.4366 73.0632 54.1667 72.9998 53.8809C73.8396 53.8967 74.4893 54.5795 74.4893 55.421Z" fill="#FFEE8D"/>
<path d="M52.7175 26.5711C54.0486 27.3332 54.0486 28.5876 52.7175 29.3656C51.3865 30.1277 49.2316 30.1277 47.9006 29.3656C46.5695 28.6034 46.5695 27.3491 47.9006 26.5711C49.2316 25.809 51.3865 25.809 52.7175 26.5711Z" fill="#0D0F11"/>
<path d="M52.7175 26.0154C54.0486 26.7934 54.0486 28.0318 52.7175 28.8098C51.3865 29.5878 49.2316 29.5878 47.9006 28.8098C46.5695 28.0477 46.5695 26.7934 47.9006 26.0154C49.2316 25.2374 51.3865 25.2374 52.7175 26.0154Z" fill="#313335"/>
<path d="M52.052 25.8406C53.0027 26.3963 53.0027 27.3014 52.052 27.8412C51.0854 28.3969 49.5326 28.3969 48.5818 27.8412C47.6311 27.2855 47.6311 26.3805 48.5818 25.8406C49.5326 25.2849 51.0854 25.2849 52.052 25.8406Z" fill="#444649"/>
<path d="M75.1705 57.1514C75.1705 57.9453 74.5208 58.5963 73.7286 58.5963C72.9363 58.5963 72.2866 57.9453 72.2866 57.1514C72.2866 56.3575 72.9363 55.7065 73.7286 55.7065C74.5208 55.7065 75.1705 56.3575 75.1705 57.1514Z" fill="#FFC41D"/>
<path d="M74.8851 56.8974C74.8851 57.3738 74.5048 57.7548 74.0294 57.7548C73.5541 57.7548 73.1738 57.3738 73.1738 56.8974C73.1738 56.437 73.5541 56.04 74.0294 56.04C74.5048 56.04 74.8851 56.4211 74.8851 56.8974Z" fill="#FFEE8D"/>
<path d="M77.6265 74.4422C77.6265 74.8867 77.4522 75.3154 77.1511 75.6806C77.0878 75.7759 76.9927 75.8711 76.8976 75.9664C76.8025 76.0617 76.7075 76.1411 76.5966 76.2204C76.4698 76.3157 76.3272 76.411 76.1687 76.4904C76.0895 76.538 76.0103 76.5856 75.9152 76.6174C75.7726 76.6809 75.63 76.7444 75.4557 76.792C75.2972 76.8397 75.1388 76.8873 74.9803 76.9349C74.9169 76.9508 74.8377 76.9667 74.7743 76.9826C74.5208 77.0302 74.2831 77.062 74.0138 77.0778C73.9345 77.0778 73.8395 77.0778 73.7602 77.0778H73.7285C73.5542 77.0778 73.3958 77.0778 73.2373 77.0461C73.1581 77.0461 73.0947 77.0461 73.0313 77.0302C72.857 77.0143 72.6986 76.9826 72.5401 76.9508C72.4768 76.9349 72.4134 76.9191 72.35 76.9032C72.2074 76.8714 72.0648 76.8238 71.9222 76.7762C71.8271 76.7444 71.7162 76.7127 71.6211 76.665C71.4627 76.6015 71.3042 76.5221 71.1616 76.4427C71.0982 76.411 71.0348 76.3633 70.9714 76.3316C70.8447 76.2363 70.7338 76.1569 70.6228 76.0617C70.5119 75.9664 70.4169 75.8711 70.3218 75.76C70.0049 75.3789 69.8306 74.9502 69.8306 74.4898C69.8306 74.4104 69.8306 74.331 69.8464 74.2516C69.8306 74.2516 69.9098 70.695 69.9257 70.4092C69.989 68.9009 70.0841 67.3766 70.2426 65.8683C70.4644 63.6772 70.5595 58.3582 73.7444 58.3582C74.4574 58.3582 75.0912 58.7075 75.4874 59.2473C77.0878 61.3749 77.5948 69.3455 77.5948 74.2516C77.6107 74.2834 77.6265 74.3628 77.6265 74.4422Z" fill="#FFC41D"/>
<path d="M76.1685 76.4743C76.2001 75.347 76.2318 74.2197 76.2001 73.0924C76.1526 71.203 76.0417 69.3135 75.8991 67.4241C75.7565 65.6458 75.503 63.8675 75.392 62.0892C75.3287 61.0572 75.392 59.1836 74.2353 58.6914C74.2195 58.6914 74.2195 58.6597 74.2353 58.6597C75.1543 58.9613 75.3128 60.1363 75.4237 60.9619C75.6297 62.5179 75.7882 64.0898 75.9466 65.6617C76.1843 67.9004 76.3744 70.155 76.4854 72.3938C76.5329 73.6481 76.6121 74.9342 76.6121 76.2203C76.4695 76.2997 76.3111 76.3949 76.1685 76.4743Z" fill="#FFEE8D"/>
<path d="M75.9153 76.6013C75.7726 76.6648 75.63 76.7283 75.4557 76.776C75.4716 73.9974 75.329 71.2347 75.2022 68.4561C75.1071 66.5667 75.0121 64.6614 74.8378 62.7719C74.7269 61.5494 74.7269 60.1045 74.2356 58.9613C74.204 58.8819 74.3149 58.8184 74.3466 58.8978C74.9487 59.8981 74.9487 61.2318 75.1071 62.375C75.329 64.1533 75.4082 65.9633 75.5033 67.7416C75.6617 70.6631 75.9786 73.664 75.9153 76.6013Z" fill="#FFCD5F"/>
<path d="M77.1511 75.6807C77.0877 75.7759 76.9927 75.8712 76.8976 75.9664C76.8817 73.3625 76.6441 70.0282 76.4222 67.726C76.1687 65.1697 76.2162 62.4864 75.5983 59.9936C75.5983 59.9777 75.6141 59.9777 75.6141 59.9936C76.0895 61.1368 76.1687 62.3435 76.2479 63.5661C76.343 64.9633 76.4856 66.3446 76.6124 67.726C76.8342 70.0759 77.1194 73.1244 77.1511 75.6807Z" fill="#FFEE8D"/>
<path d="M74.9804 76.9189C74.9171 76.9347 74.8378 76.9506 74.7744 76.9665C74.7428 74.0609 74.6952 69.6787 74.5843 66.8366C74.5526 66.1062 74.4575 58.612 73.7445 58.739C73.697 58.739 73.6811 58.6755 73.7287 58.6596C73.7445 58.6596 73.7445 58.6596 73.7603 58.6437C73.7762 58.6279 73.792 58.6279 73.8079 58.6437C74.4892 59.2471 74.4417 60.6126 74.5051 61.4223C74.6318 62.9942 74.6318 64.5661 74.6952 66.138C74.822 69.2023 74.9329 73.791 74.9804 76.9189Z" fill="#FFEE8D"/>
<path d="M72.857 58.7867C71.8271 59.1201 71.6845 61.3271 71.526 62.2003C71.225 63.8992 71.019 65.614 70.8764 67.3129C70.6545 70.2026 70.6387 73.1082 70.607 76.0138C70.4961 75.9186 70.401 75.8233 70.3059 75.7122C70.2901 72.3302 70.3851 68.9483 70.7971 65.5981C71.019 63.8834 71.3042 62.2003 71.7162 60.5173C71.8588 59.914 72.0648 58.8343 72.8253 58.7231C72.8887 58.7231 72.9046 58.7708 72.857 58.7867Z" fill="#FFCD5F"/>
<path d="M72.3184 60.5809C71.9064 62.2639 71.1617 68.742 71.1458 76.4108C71.0824 76.3791 71.019 76.3315 70.9557 76.2997C71.2409 64.0898 71.9064 62.1528 72.2391 60.5809C72.255 60.5333 72.3184 60.5333 72.3184 60.5809Z" fill="#FF9D00"/>
<path d="M72.5883 62.7085C72.5883 62.1846 72.5724 61.216 72.7312 60.3904C72.7153 60.3904 72.6836 60.3904 72.6677 60.3745C72.62 60.6286 72.5883 60.8667 72.5565 61.0572C72.3024 62.9784 72.4136 65.0108 72.3818 66.932C72.3342 70.2504 72.3024 73.5688 72.3183 76.8713C72.3818 76.8872 72.4453 76.9031 72.5089 76.919C72.5089 74.2992 72.493 71.6952 72.493 69.0754C72.5247 66.9637 72.5883 64.8361 72.5883 62.7085Z" fill="#FFAA00"/>
<path d="M73.238 60.438C73.2221 60.438 73.2062 60.438 73.1904 60.438C72.8251 63.5659 72.9204 74.3309 73.0157 77.0142C73.0792 77.0301 73.1586 77.0301 73.2221 77.0301C73.1745 73.9498 73.0316 61.3113 73.238 60.438Z" fill="#FF9D00"/>
<path d="M73.7604 60.4065C73.7287 60.9463 73.7128 61.4862 73.681 62.026C73.6334 63.1057 73.6969 73.6325 73.7604 77.0462C73.8557 77.0462 73.9351 77.0462 74.0145 77.0462C74.0463 73.5373 73.8081 61.8037 73.7604 60.4065Z" fill="#FFAA00"/>
<path d="M72.128 67.1702C72.128 67.186 72.128 67.2019 72.128 67.2337C72.0012 69.4883 72.0012 73.9499 71.9061 76.7285C71.8111 76.6967 71.7001 76.665 71.6051 76.6173C71.6843 72.7273 72.0963 67.3448 72.128 67.1702Z" fill="#FFAA00"/>
<path d="M73.792 57.9295C72.9205 58.0882 72.7145 56.5164 73.2533 56.0877C73.3008 56.04 73.2374 55.9606 73.1899 55.9924C72.2709 56.5481 72.7145 58.5328 73.8871 58.2788C74.1089 58.2311 74.0139 57.8977 73.792 57.9295Z" fill="#FFC000"/>
<path opacity="0.5" d="M72.8727 61.6766C74.3938 62.534 76.5013 60.851 75.2178 59.3108C73.4431 57.1674 70.686 60.454 72.8727 61.6766Z" fill="#FFEE8D"/>
</svg>
