<svg width="95" height="23" viewBox="0 0 95 23" fill="none" xmlns="http://www.w3.org/2000/svg">
<path d="M23.8594 16.6034V2.13599H32.4103V3.94981H25.63V8.398H31.7193V10.2118H25.63V14.7464H32.8853V16.5602H23.8594V16.6034Z" fill="#888888"/>
<path d="M41.8683 16.6034L38.9316 12.7598L35.9949 16.6034H33.922L37.9383 11.4643L33.7061 6.15234H36.0381L38.9316 10.1255L41.8683 6.15234H44.1571L40.1408 11.4643L43.9412 16.6034H41.8683Z" fill="#888888"/>
<path d="M46.7911 15.0486V22.1743H45.0205V11.5073C45.0205 8.78655 47.0934 5.89307 50.3324 5.89307C53.6146 5.89307 56.0762 7.96601 56.0762 11.3777C56.0762 14.7031 53.5714 16.992 50.7211 16.992C49.3391 16.992 47.4821 16.3873 46.7911 15.0486ZM54.2192 11.3777C54.2192 9.04567 52.7077 7.6637 50.0301 7.79326C48.7345 7.83645 46.748 8.78655 46.9207 12.1119C46.9639 13.1915 48.0867 15.2213 50.5483 15.2213C52.6645 15.2213 54.2192 14.0121 54.2192 11.3777Z" fill="#888888"/>
<path d="M57.5879 16.6035V6.15245H59.3585V7.27529C60.2223 6.28201 61.561 5.93652 62.9862 5.93652V7.83672C62.7702 7.79353 60.6541 7.53441 59.3585 10.2983V16.6467H57.5879V16.6035Z" fill="#888888"/>
<path d="M63.4609 11.3777C63.4609 8.35468 65.6203 5.89307 68.6001 5.89307C72.3141 5.89307 73.6961 8.35469 73.6961 11.5073V12.371H65.4043C65.5339 14.3576 67.3045 15.3941 68.9456 15.3509C70.1548 15.3077 70.9754 14.9622 71.8391 14.0985L73.0051 15.3077C71.9254 16.3441 70.5435 17.0351 68.8592 17.0351C65.7066 16.9919 63.4609 14.6599 63.4609 11.3777ZM68.4705 7.66371C66.7863 7.66371 65.4907 9.13204 65.4043 10.7299H71.8391C71.8391 9.17522 70.7162 7.66371 68.4705 7.66371Z" fill="#888888"/>
<path d="M74.6035 15.1349L75.8991 13.9689C75.8559 13.9689 76.5469 14.6598 76.6333 14.703C76.9356 14.9621 77.2379 15.1349 77.6266 15.2213C78.7494 15.5236 80.7792 15.4372 80.9519 13.8825C81.0383 13.0187 80.3905 12.5437 79.6563 12.2414C78.7062 11.8959 77.6697 11.7663 76.7196 11.3345C75.64 10.8594 74.949 10.0389 74.949 8.82968C74.949 5.67708 79.4404 5.15884 81.4701 6.62717C81.5565 6.71355 82.5498 7.62046 82.5066 7.62046L81.211 8.65693C80.5632 7.87958 79.9586 7.4909 78.5767 7.4909C77.8857 7.4909 76.9356 7.79321 76.7628 8.52738C76.5037 9.56385 77.6697 9.95252 78.4471 10.1684C79.4836 10.4276 80.6064 10.6003 81.5133 11.1617C82.7657 11.9391 83.068 13.6234 82.593 14.9189C82.0747 16.3441 80.52 16.9055 79.1381 16.9487C77.497 17.0351 76.0719 16.5168 74.9058 15.3508C74.8195 15.3508 74.6035 15.1349 74.6035 15.1349Z" fill="#888888"/>
<path d="M83.7158 15.1349L85.0114 13.9689C84.9682 13.9689 85.6592 14.6598 85.7456 14.703C86.0479 14.9621 86.3502 15.1349 86.7389 15.2213C87.8617 15.5236 89.8915 15.4372 90.0642 13.8825C90.1506 13.0187 89.5028 12.5437 88.7686 12.2414C87.8185 11.8959 86.782 11.7663 85.8319 11.3345C84.7523 10.8594 84.0613 10.0389 84.0613 8.82968C84.0613 5.67708 88.5527 5.15884 90.5824 6.62717C90.6688 6.71355 91.6621 7.62046 91.6189 7.62046L90.3233 8.65693C89.6755 7.87958 89.0709 7.4909 87.689 7.4909C86.998 7.4909 86.0479 7.79321 85.8751 8.52738C85.616 9.56385 86.782 9.95252 87.5594 10.1684C88.5959 10.4276 89.7187 10.6003 90.6256 11.1617C91.878 11.9391 92.1803 13.6234 91.7053 14.9189C91.1871 16.3441 89.6323 16.9055 88.2504 16.9487C86.6093 17.0351 85.1841 16.5168 84.0181 15.3508C83.9317 15.3508 83.7158 15.1349 83.7158 15.1349Z" fill="#888888"/>
<path d="M92.1367 6.15299V5.03014H91.748V4.81421H92.7845V5.03014H92.3958V6.15299H92.1367Z" fill="#888888"/>
<path d="M94.0797 6.1525V5.11602L93.691 6.1525H93.6046L93.2159 5.11602V6.1525H93V4.81372H93.3455L93.691 5.72064L94.0365 4.81372H94.3819V6.1525H94.0797Z" fill="#888888"/>
<path d="M11.8535 16.6034L10.558 13.1485H3.56178L2.26619 16.6034H0.40918L6.0234 2.13599H8.05315L13.6242 16.6034H11.8535ZM6.9735 4.20893L4.33914 11.3779H9.82379L6.9735 4.20893Z" fill="#888888"/>
<path d="M14.79 16.6034V2.13599H16.6039V16.6034H14.79Z" fill="#888888"/>
<path d="M19.3252 16.6028V6.36768H21.139V16.6028H19.3252Z" fill="#888888"/>
<path d="M22.8658 3.04251C22.8658 2.99932 22.8658 2.99932 22.8658 2.95614C22.8658 2.91295 22.8658 2.91295 22.8658 2.86977C21.4839 2.82658 20.361 1.70374 20.3179 0.321777C20.2747 0.321777 20.2315 0.321777 20.1883 0.321777C20.1451 0.321777 20.1019 0.321777 20.0587 0.321777C20.0155 1.70374 18.8927 2.82658 17.5107 2.86977C17.5107 2.91295 17.5107 2.91295 17.5107 2.95614C17.5107 2.99932 17.5107 2.99932 17.5107 3.04251C18.8927 3.0857 20.0155 4.20854 20.0587 5.59051C20.1019 5.59051 20.1451 5.59051 20.1883 5.59051C20.2315 5.59051 20.2747 5.59051 20.3179 5.59051C20.361 4.20854 21.4839 3.0857 22.8658 3.04251Z" fill="#888888"/>
</svg>
