<svg width="131" height="31" viewBox="0 0 131 31" fill="none" xmlns="http://www.w3.org/2000/svg">
<path d="M32.5562 22.6037V2.51855H44.4274V5.0367H35.0143V11.2121H43.4681V13.7303H35.0143V20.0256H45.0869V22.5438H32.5562V22.6037Z" fill="#888888"/>
<path d="M57.5577 22.6035L53.4807 17.2675L49.4037 22.6035H46.5259L52.1017 15.4688L46.2261 8.09424H49.4637L53.4807 13.6102L57.5577 8.09424H60.7354L55.1595 15.4688L60.4356 22.6035H57.5577Z" fill="#888888"/>
<path d="M64.3928 20.445V30.3377H61.9346V15.5286C61.9346 11.7514 64.8124 7.73438 69.3091 7.73438C73.8658 7.73438 77.2833 10.6123 77.2833 15.3488C77.2833 19.9654 73.8058 23.143 69.8487 23.143C67.9302 23.143 65.3521 22.3036 64.3928 20.445ZM74.7051 15.3488C74.7051 12.1111 72.6067 10.1926 68.8894 10.3724C67.0908 10.4324 64.3328 11.7514 64.5726 16.368C64.6326 17.8669 66.1914 20.6848 69.6089 20.6848C72.5467 20.6848 74.7051 19.0061 74.7051 15.3488Z" fill="#888888"/>
<path d="M79.3818 22.6035V8.09421H81.84V9.65306C83.0391 8.27407 84.8978 7.79443 86.8763 7.79443V10.4325C86.5765 10.3725 83.6387 10.0128 81.84 13.85V22.6635H79.3818V22.6035Z" fill="#888888"/>
<path d="M87.5356 15.3488C87.5356 11.1519 90.5334 7.73438 94.6704 7.73438C99.8266 7.73438 101.745 11.1519 101.745 15.5286V16.7277H90.2337C90.4135 19.4857 92.8717 20.9246 95.15 20.8647C96.8288 20.8047 97.968 20.3251 99.1671 19.126L100.786 20.8047C99.287 22.2437 97.3684 23.203 95.0301 23.203C90.6533 23.143 87.5356 19.9054 87.5356 15.3488ZM94.4905 10.1926C92.1522 10.1926 90.3536 12.2311 90.2337 14.4494H99.1671C99.1671 12.291 97.6082 10.1926 94.4905 10.1926Z" fill="#888888"/>
<path d="M103.004 20.5646L104.803 18.9458C104.743 18.9458 105.702 19.9051 105.822 19.9651C106.242 20.3248 106.662 20.5646 107.201 20.6846C108.76 21.1042 111.578 20.9843 111.818 18.8259C111.938 17.6268 111.038 16.9673 110.019 16.5476C108.7 16.068 107.261 15.8881 105.942 15.2885C104.443 14.629 103.484 13.4899 103.484 11.8111C103.484 7.43433 109.719 6.71485 112.537 8.75335C112.657 8.87326 114.036 10.1323 113.976 10.1323L112.178 11.5713C111.278 10.4921 110.439 9.95246 108.52 9.95246C107.561 9.95246 106.242 10.3722 106.002 11.3914C105.642 12.8303 107.261 13.3699 108.34 13.6697C109.779 14.0295 111.338 14.2693 112.597 15.0487C114.336 16.1279 114.756 18.4662 114.096 20.2649C113.377 22.2434 111.218 23.0228 109.3 23.0828C107.021 23.2027 105.043 22.4832 103.424 20.8644C103.304 20.8644 103.004 20.5646 103.004 20.5646Z" fill="#888888"/>
<path d="M115.655 20.5646L117.453 18.9458C117.394 18.9458 118.353 19.9051 118.473 19.9651C118.892 20.3248 119.312 20.5646 119.852 20.6846C121.411 21.1042 124.228 20.9843 124.468 18.8259C124.588 17.6268 123.689 16.9673 122.67 16.5476C121.351 16.068 119.912 15.8881 118.593 15.2885C117.094 14.629 116.134 13.4899 116.134 11.8111C116.134 7.43433 122.37 6.71485 125.188 8.75335C125.308 8.87326 126.687 10.1323 126.627 10.1323L124.828 11.5713C123.929 10.4921 123.089 9.95246 121.171 9.95246C120.211 9.95246 118.892 10.3722 118.653 11.3914C118.293 12.8303 119.912 13.3699 120.991 13.6697C122.43 14.0295 123.989 14.2693 125.248 15.0487C126.986 16.1279 127.406 18.4662 126.747 20.2649C126.027 22.2434 123.869 23.0228 121.95 23.0828C119.672 23.2027 117.693 22.4832 116.074 20.8644C115.955 20.8644 115.655 20.5646 115.655 20.5646Z" fill="#888888"/>
<path d="M127.346 8.09496V6.53611H126.807V6.23633H128.246V6.53611H127.706V8.09496H127.346Z" fill="#888888"/>
<path d="M130.044 8.09447V6.65553L129.505 8.09447H129.385L128.845 6.65553V8.09447H128.545V6.23584H129.025L129.505 7.49491L129.984 6.23584H130.464V8.09447H130.044Z" fill="#888888"/>
<path d="M15.8883 22.6037L14.0896 17.8073H4.37677L2.5781 22.6037H0L7.79425 2.51855H10.6122L18.3465 22.6037H15.8883ZM9.11328 5.39643L5.45598 15.3491H13.0704L9.11328 5.39643Z" fill="#888888"/>
<path d="M19.9653 22.6037V2.51855H22.4835V22.6037H19.9653Z" fill="#888888"/>
<path d="M26.2607 22.6031V8.39355H28.7789V22.6031H26.2607Z" fill="#888888"/>
<path d="M31.1772 3.77721C31.1772 3.71725 31.1772 3.71725 31.1772 3.6573C31.1772 3.59734 31.1772 3.59734 31.1772 3.53739C29.2586 3.47743 27.6998 1.91859 27.6398 0C27.5798 0 27.5199 0 27.4599 0C27.4 0 27.34 0 27.2801 0C27.2201 1.91859 25.6613 3.47743 23.7427 3.53739C23.7427 3.59734 23.7427 3.59734 23.7427 3.6573C23.7427 3.71725 23.7427 3.71725 23.7427 3.77721C25.6613 3.83716 27.2201 5.39602 27.2801 7.3146C27.34 7.3146 27.4 7.3146 27.4599 7.3146C27.5199 7.3146 27.5798 7.3146 27.6398 7.3146C27.6998 5.39602 29.2586 3.83716 31.1772 3.77721Z" fill="#888888"/>
</svg>
