<svg width="98" height="19" viewBox="0 0 98 19" fill="none" xmlns="http://www.w3.org/2000/svg">
<path d="M51.9933 9.46311C51.9933 4.98687 55.6773 1.3566 60.0432 1.3566C64.4127 1.3566 68.093 4.98687 68.093 9.46311C68.093 13.9429 64.4127 17.5704 60.0432 17.5704C55.6771 17.5704 51.9933 13.9429 51.9933 9.46311ZM60.043 0.482422C55.2042 0.482422 51.0449 4.50346 51.0449 9.46311C51.0449 14.4235 55.2042 18.4448 60.043 18.4448C64.8858 18.4448 69.0468 14.4235 69.0468 9.46311C69.0468 4.50346 64.8858 0.482422 60.043 0.482422Z" fill="#888888"/>
<path d="M26.0087 0.871094H25.0156L33.1795 18.4427H33.2716L41.4355 0.871094H40.4464L35.4732 11.5872L33.2285 16.5506L30.9897 11.5872L26.0087 0.871094Z" fill="#888888"/>
<path d="M81.9678 17.9561H82.8825V9.46311L82.8335 2.66638L97.4377 18.4438H97.5297V0.872204H96.615V9.46311L96.664 16.2559L82.0579 0.482422H81.9678V17.9561Z" fill="#888888"/>
<path d="M3.65056 12.2951L5.99945 7.2363L8.23649 2.26706L10.509 7.24688L12.835 12.3029L3.65056 12.2951ZM8.28957 0.482666H8.18987L0.0302734 17.9552H1.02491L3.29975 13.0535L13.1779 13.0496L15.4587 17.9552H16.4488L8.28957 0.482666Z" fill="#888888"/>
</svg>
