<svg width="103" height="42" viewBox="0 0 103 42" fill="none" xmlns="http://www.w3.org/2000/svg">
<path d="M13.3187 9.08643C6.05384 9.08643 0 12.1969 0 21.5809C0 29.0151 4.07077 33.6967 13.5063 33.6967C24.6124 33.6967 25.3244 26.3136 25.3244 26.3136H19.9429C19.9429 26.3136 18.7891 30.2891 13.1781 30.2891C8.60799 30.2891 5.32103 27.1736 5.32103 22.8067H25.8871V20.0664C25.8871 15.7462 23.1695 9.08643 13.3187 9.08643ZM13.1312 12.5887C17.4814 12.5887 20.4471 15.2782 20.4471 19.3092H5.44005C5.44005 15.0298 9.31105 12.5887 13.1312 12.5887Z" fill="#888888"/>
<path d="M25.8825 0V28.9845C25.8825 30.6298 25.7661 32.9399 25.7661 32.9399H30.8989C30.8989 32.9399 31.0831 31.2807 31.0831 29.7644C31.0831 29.7644 33.619 33.7681 40.5143 33.7681C47.7754 33.7681 52.7076 28.6808 52.7076 21.392C52.7076 14.6114 48.1772 9.15786 40.5261 9.15786C33.3613 9.15786 31.1349 13.0624 31.1349 13.0624V0H25.8825ZM39.2012 12.7429C44.132 12.7429 47.2675 16.436 47.2675 21.392C47.2675 26.7064 43.6462 30.1831 39.2364 30.1831C33.9737 30.1831 31.1349 26.0363 31.1349 21.4393C31.1349 17.1559 33.6823 12.7429 39.2012 12.7429Z" fill="#888888"/>
<path d="M65.4633 9.08643C54.5338 9.08643 53.8328 15.1258 53.8328 16.0909H59.2729C59.2729 16.0909 59.5581 12.565 65.0881 12.565C68.6816 12.565 71.4661 14.2249 71.4661 17.4161V18.5519H65.0881C56.6209 18.5519 52.1445 21.0517 52.1445 26.1243C52.1445 31.1165 56.2805 33.8328 61.8698 33.8328C69.4871 33.8328 71.9409 29.5851 71.9409 29.5851C71.9409 31.2746 72.07 32.9395 72.07 32.9395H76.9061C76.9061 32.9395 76.7186 30.8758 76.7186 29.5555V18.1437C76.7186 10.6611 70.738 9.08643 65.4633 9.08643ZM71.4661 21.9595V23.474C71.4661 25.4493 70.2583 30.3601 63.1477 30.3601C59.254 30.3601 57.5846 28.399 57.5846 26.1243C57.5846 21.9861 63.2066 21.9595 71.4661 21.9595Z" fill="#888888"/>
<path d="M73.79 10.0347H79.9101L88.6932 27.7926L97.4563 10.0347H103L87.0384 41.6494H81.2232L85.8292 32.8364L73.79 10.0347Z" fill="#888888"/>
</svg>
