<svg width="136" height="25" viewBox="0 0 136 25" fill="none" xmlns="http://www.w3.org/2000/svg">
<path fill-rule="evenodd" clip-rule="evenodd" d="M18.3775 20.3486V23.2805H0.424805V3.11716H3.65681V20.3486H18.3775ZM15.8644 10.4496L19.4541 3.48318H16.0436L13.3507 10.4496H15.8644ZM45.2155 6.42693C44.0515 4.55619 42.3513 2.98358 40.3491 1.91206C38.3469 0.8398 36.0426 0.268618 33.7391 0.268618C31.4356 0.268618 29.1306 0.8398 27.1291 1.91206C25.1269 2.98358 23.426 4.55619 22.262 6.42693C21.0979 8.29693 20.4693 10.4658 20.4693 12.6347C20.4693 14.8028 21.0979 16.9717 22.262 18.8417C23.426 20.7124 25.1262 22.285 27.1291 23.3566C29.1313 24.4288 31.4356 25 33.7391 25C36.0426 25 38.3469 24.4296 40.3491 23.3566C42.3513 22.285 44.0515 20.7124 45.2155 18.8417C46.3803 16.9717 47.0082 14.8021 47.0082 12.6347C47.0082 10.4665 46.3803 8.29767 45.2155 6.42693ZM42.4221 17.5724C41.5536 19.0395 40.2826 20.277 38.7826 21.122C37.2825 21.9662 35.5542 22.4164 33.8251 22.4164C32.096 22.4164 30.3676 21.9662 28.8676 21.122C27.3683 20.277 26.0973 19.0402 25.2281 17.5724C24.3588 16.1046 23.8921 14.4073 23.8921 12.71C23.8921 11.0119 24.3588 9.31458 25.2281 7.8475C26.0973 6.38043 27.3676 5.14287 28.8676 4.29864C30.3676 3.45367 32.0967 3.00351 33.8251 3.00351C35.5534 3.00351 37.2825 3.45367 38.7826 4.29864C40.2826 5.14287 41.5529 6.37969 42.4221 7.8475C43.2915 9.31436 43.7536 10.9953 43.7588 12.71C43.7534 14.4246 43.2913 16.1054 42.4221 17.5724ZM69.5448 11.8126C68.9602 13.1262 67.8547 13.8855 66.9898 14.3445C66.1249 14.8043 65.5014 14.9637 64.8734 14.9408L71.1568 23.2813H67.5664L61.4897 15.2161H53.5632V23.2813H50.3319V3.11716H63.2571C64.5635 3.11716 65.8886 3.37987 67.0577 4.05142C68.2268 4.72297 69.2384 5.74357 69.7139 7.18777C70.1886 8.63122 70.1279 10.499 69.5448 11.8126ZM65.9298 11.6746C66.6105 11.0872 67.0137 10.1212 66.9783 9.1633C66.9436 8.20468 66.4703 7.25566 65.7947 6.67636C65.1184 6.09779 64.2542 6.04983 63.437 6.04983H53.5632V12.2827H63.437C64.3098 12.2827 65.2492 12.2627 65.9298 11.6746ZM88.2114 11.7329V14.4818H77.2603V20.3486H91.981V23.2805H74.0283V3.11716H91.981V6.04983H77.2603V11.7329H88.2114ZM88.3906 0H83.5429L81.5689 2.56664L88.3906 0ZM98.3106 18.148L95.7505 23.2805H92.52L102.572 3.11642H105.804L115.858 23.2805H112.626L110.067 18.148H98.3106ZM104.188 6.35756L99.5888 15.5821H108.787L104.188 6.35756ZM135.425 20.3486V23.2805H117.474V3.11716H120.704V20.3486H135.425Z" fill="#888888"/>
</svg>
