<svg width="99" height="19" viewBox="0 0 99 19" fill="none" xmlns="http://www.w3.org/2000/svg">
<path fill-rule="evenodd" clip-rule="evenodd" d="M13.7156 15.1398V17.2517H0.78418V2.72796H3.1122V15.1398H13.7156ZM11.9054 8.00951L14.491 2.99161H12.0345L10.0947 8.00951H11.9054ZM33.047 5.112C32.2086 3.7645 30.9839 2.63175 29.5417 1.85993C28.0995 1.08758 26.4398 0.676152 24.7806 0.676152C23.1213 0.676152 21.4611 1.08758 20.0194 1.85993C18.5772 2.63175 17.352 3.7645 16.5136 5.112C15.6751 6.45896 15.2223 8.02121 15.2223 9.58345C15.2223 11.1452 15.6751 12.7074 16.5136 14.0544C17.352 15.4019 18.5767 16.5346 20.0194 17.3064C21.4616 18.0788 23.1213 18.4902 24.7806 18.4902C26.4398 18.4902 28.0995 18.0793 29.5417 17.3064C30.9839 16.5346 32.2086 15.4019 33.047 14.0544C33.886 12.7074 34.3383 11.1446 34.3383 9.58345C34.3383 8.02174 33.886 6.4595 33.047 5.112ZM31.0349 13.1401C30.4093 14.1968 29.4938 15.0883 28.4134 15.6969C27.3329 16.305 26.0879 16.6292 24.8425 16.6292C23.597 16.6292 22.3521 16.305 21.2716 15.6969C20.1917 15.0883 19.2762 14.1974 18.65 13.1401C18.0239 12.0828 17.6877 10.8603 17.6877 9.63768C17.6877 8.41456 18.0239 7.19198 18.65 6.13524C19.2762 5.07851 20.1911 4.18709 21.2716 3.57899C22.3521 2.97035 23.5975 2.6461 24.8425 2.6461C26.0874 2.6461 27.3329 2.97035 28.4134 3.57899C29.4938 4.18709 30.4088 5.07798 31.0349 6.13524C31.6612 7.19182 31.994 8.40258 31.9978 9.63768C31.9939 10.8727 31.661 12.0834 31.0349 13.1401ZM50.5715 8.9913C50.1504 9.93747 49.3541 10.4844 48.7311 10.8151C48.1081 11.1462 47.659 11.261 47.2067 11.2446L51.7326 17.2522H49.1465L44.7694 11.4428H39.0599V17.2522H36.7324V2.72796H46.0424C46.9834 2.72796 47.9379 2.9172 48.78 3.40091C49.6222 3.88463 50.3508 4.61977 50.6933 5.66003C51.0352 6.69976 50.9915 8.04513 50.5715 8.9913ZM47.9676 8.8919C48.4579 8.46878 48.7483 7.77297 48.7228 7.08301C48.6978 6.39252 48.3569 5.70894 47.8703 5.29166C47.3831 4.87492 46.7607 4.84037 46.172 4.84037H39.0599V9.3299H46.172C46.8007 9.3299 47.4773 9.31555 47.9676 8.8919ZM64.0171 8.93389V10.9139H56.129V15.1398H66.7323V17.2517H53.8009V2.72796H66.7323V4.84037H56.129V8.93389H64.0171ZM64.1461 0.482666H60.6544L59.2325 2.33142L64.1461 0.482666ZM71.2915 13.5547L69.4476 17.2517H67.1206L74.3612 2.72743H76.6892L83.9309 17.2517H81.6029L79.76 13.5547H71.2915ZM75.525 5.06203L72.2122 11.7065H78.8377L75.525 5.06203ZM98.025 15.1398V17.2517H85.0947V2.72796H87.4217V15.1398H98.025Z" fill="#888888"/>
</svg>
