<svg width="129" height="21" viewBox="0 0 129 21" fill="none" xmlns="http://www.w3.org/2000/svg">
<path d="M0.078125 15.2362V15.6439C0.078125 15.6439 0.180053 15.6439 0.28198 15.6439C0.383908 15.6439 0.893546 15.542 1.50511 15.542C2.11668 15.542 2.72824 15.6439 2.83017 15.6439C2.9321 15.6439 3.13595 15.6439 3.13595 15.542C3.13595 15.44 3.03403 15.3381 2.9321 15.3381C2.83017 15.3381 2.32053 15.0323 2.21861 14.6246C2.21861 14.2169 2.21861 13.7073 2.32053 13.4015L3.95138 4.22799L9.5574 15.542C9.5574 15.542 9.5574 15.6439 9.65932 15.6439C9.76125 15.6439 9.76125 15.542 9.76125 15.542L14.8576 4.32992C14.8576 4.32992 14.8576 4.22799 14.9596 4.22799C15.0615 4.22799 15.0615 4.43185 15.0615 4.43185L16.7943 14.5227C16.7943 14.6246 16.7943 15.0323 16.6923 15.2362C16.4885 15.542 16.2846 15.6439 16.2846 15.7458C16.2846 15.8477 16.3865 15.8477 16.6923 15.8477C16.7943 15.8477 17.5078 15.7458 18.0174 15.7458C18.4251 15.7458 19.3425 15.8477 19.6482 15.8477C19.8521 15.8477 19.954 15.8477 19.954 15.7458C19.954 15.6439 19.8521 15.542 19.7502 15.542C19.6482 15.542 18.9347 15.3381 18.7309 14.7265C18.527 14.115 18.527 13.8092 18.527 13.8092L16.5904 2.59715C16.5904 2.39329 16.5904 1.88366 16.8962 1.6798C17.202 1.47594 17.6097 1.37402 17.8135 1.37402C18.0174 1.37402 18.0174 1.27209 18.0174 1.17016C18.0174 1.06823 18.0174 0.966306 17.8135 0.966306C17.6097 0.966306 16.5904 0.966306 16.2846 0.966306C15.9788 0.966306 15.0615 0.966306 14.9596 0.966306C14.8576 0.966306 14.7557 1.06823 14.7557 1.17016C14.7557 1.27209 14.8576 1.6798 14.8576 1.98558C14.7557 2.29137 10.2709 12.2803 10.2709 12.2803C10.2709 12.2803 10.2709 12.3822 10.169 12.3822C10.067 12.3822 10.067 12.2803 10.067 12.2803C10.067 12.2803 4.97065 2.18944 4.97065 1.88366C4.97065 1.6798 4.97065 1.37402 4.97065 1.27209C4.97065 1.17016 4.97065 1.06823 4.97065 0.966306C4.97065 0.864379 4.86872 0.762451 4.7668 0.762451C4.66487 0.762451 4.0533 0.864379 3.84945 0.864379C3.64559 0.864379 2.42246 0.864379 2.21861 0.864379C2.01475 0.864379 1.60704 0.864379 1.50511 0.864379C1.40318 0.864379 1.40318 0.966306 1.40318 1.06823C1.40318 1.17016 1.50511 1.17016 1.70897 1.27209C2.01475 1.27209 2.72824 1.6798 2.83017 1.98558C2.9321 2.29137 2.9321 2.69908 2.83017 3.10679C2.9321 3.5145 0.995474 13.9111 0.995474 13.9111C0.995474 13.9111 0.791619 14.6246 0.689691 14.8285C0.383908 15.2362 0.078125 15.2362 0.078125 15.2362Z" fill="#888888"/>
<path d="M25.866 11.8729C25.866 11.8729 24.9487 13.9115 24.9487 14.1153C24.8468 14.2173 24.7448 14.5231 24.7448 14.7269C24.7448 15.0327 24.8468 15.2365 24.8468 15.4404C24.8468 15.5423 24.9487 15.6443 24.8468 15.7462C24.8468 15.8481 24.6429 15.7462 24.541 15.7462C24.4391 15.7462 23.9294 15.6443 23.6236 15.6443C23.3179 15.6443 22.5024 15.7462 22.4005 15.8481C22.1967 15.95 22.1967 15.8481 22.0947 15.7462C22.0947 15.6443 22.0947 15.6443 22.2986 15.5423C22.5024 15.4404 22.7063 15.3385 23.0121 15.0327C23.4198 14.7269 23.6236 14.1153 23.6236 14.1153L29.3316 1.17053C29.3316 1.17053 29.4335 0.864746 29.5354 0.864746C29.6374 0.864746 29.7393 0.966674 29.7393 0.966674C29.7393 0.966674 34.9376 13.198 35.0395 13.5038C35.1415 13.8096 35.4472 14.3192 35.753 14.7269C36.0588 15.1346 36.5685 15.4404 36.6704 15.4404C36.7723 15.4404 36.9762 15.5423 36.8742 15.7462C36.8742 15.95 36.3646 15.7462 36.0588 15.7462C35.753 15.7462 35.2434 15.6443 34.9376 15.6443C34.6318 15.6443 33.8164 15.7462 33.7145 15.7462C33.6126 15.7462 33.5106 15.8481 33.4087 15.7462C33.3068 15.6443 33.4087 15.5423 33.5106 15.4404C33.6125 15.3385 33.7145 14.9308 33.7145 14.8288C33.7145 14.7269 33.6126 14.3192 33.6126 14.3192L32.5933 11.8729H25.866ZM26.2738 10.9556H32.1856H32.2875L29.4335 3.92258C29.4335 3.92258 29.4335 3.82065 29.3316 3.82065L29.2297 3.92258L26.2738 10.9556C26.2738 10.8537 26.2738 10.9556 26.2738 10.9556Z" fill="#888888"/>
<path d="M41.0526 0.966674C40.9507 0.966674 40.7468 0.864746 40.6449 0.966674C40.543 0.966674 40.543 1.0686 40.543 1.17053C40.543 1.27246 40.7468 1.37438 40.8488 1.37438C40.9507 1.37438 41.5622 1.78209 41.5622 2.29173C41.5622 2.69944 41.5622 14.4211 41.5622 14.4211C41.5622 14.625 41.3584 15.1346 41.0526 15.2365C40.8488 15.3385 40.543 15.4404 40.543 15.5423C40.543 15.6443 40.543 15.7462 40.8488 15.7462C41.1545 15.7462 41.7661 15.6443 42.2757 15.6443C42.7854 15.6443 43.295 15.6443 43.6008 15.7462C43.8047 15.7462 44.2124 15.8481 44.3143 15.7462C44.4162 15.6443 44.4162 15.5423 44.3143 15.5423C44.2124 15.4404 43.8047 15.3385 43.7027 15.2365C43.6008 15.1346 43.3969 14.8288 43.3969 14.5231V2.39366C43.3969 2.18981 43.3969 1.47631 44.9259 1.47631C45.6394 1.47631 47.9837 1.88402 47.9837 4.83992C47.9837 7.18426 46.2509 8.30546 45.0278 8.30546C44.6201 8.30546 44.2124 8.30546 44.2124 8.30546C44.2124 8.40739 44.3143 8.50932 44.3143 8.50932C44.4162 8.71318 46.8625 11.771 47.1683 12.0768C47.4741 12.4845 49.1049 14.625 50.43 15.1346C50.8377 15.3385 51.3473 15.5423 52.8762 15.4404C53.0801 15.4404 53.0801 15.3385 53.0801 15.2365C53.0801 15.2365 53.0801 15.1346 52.9781 15.1346C52.8762 15.1346 52.1627 15.1346 51.4492 14.7269C50.7357 14.3192 50.5319 14.0134 49.9203 13.198C49.5126 12.8922 46.4548 8.91703 46.4548 8.91703C46.4548 8.91703 46.2509 8.71318 46.4548 8.71318C46.5567 8.71318 49.6145 7.89775 49.6145 4.63607C49.6145 4.22836 49.5126 0.864746 45.1297 0.864746C44.4162 0.864746 42.7854 1.0686 42.4796 1.0686C42.0719 1.0686 41.1545 0.966674 41.0526 0.966674Z" fill="#888888"/>
<path d="M53.6924 1.06871C53.6924 0.96678 53.8962 0.96678 54.1001 0.96678C54.202 0.96678 55.0174 1.06871 55.5271 1.06871C56.0367 1.06871 56.9541 1.06871 57.1579 0.96678C57.3618 0.864853 57.5656 0.96678 57.5656 1.06871C57.5656 1.17064 57.3618 1.37449 57.3618 1.37449C57.2599 1.47642 57.056 1.7822 57.056 1.98606C57.056 2.18991 57.1579 2.39377 57.2599 2.59762C57.3618 2.80148 61.7447 12.6885 61.7447 12.6885C61.7447 12.6885 61.7447 12.7904 61.8466 12.7904C61.9485 12.7904 61.9485 12.5865 61.9485 12.5865L67.3507 2.59762C67.3507 2.59762 67.4526 2.4957 67.4526 1.98606C67.4526 1.68027 67.3507 1.57835 67.3507 1.47642C67.2488 1.27256 67.0449 1.17064 67.0449 1.06871C67.1468 0.864853 67.3507 0.96678 67.5545 0.96678C67.7584 0.96678 67.8603 0.96678 67.9623 0.96678C68.0642 0.96678 69.797 1.06871 69.8989 0.96678C70.0008 0.96678 70.4085 0.864853 70.4085 1.06871C70.4085 1.27256 70.3066 1.27256 70.1027 1.37449C69.8989 1.47642 69.1854 1.98606 68.4719 3.20919C68.268 3.6169 60.1138 18.8041 60.1138 18.8041C59.91 19.1099 59.0946 20.2311 58.5849 20.2311H56.9541C56.9541 20.2311 57.7695 20.0273 58.1772 19.6195C58.3811 19.4157 58.6868 19.008 58.8907 18.6003C59.0946 18.2945 60.7254 15.1347 60.7254 15.1347C60.7254 15.1347 60.7254 15.0328 60.6235 14.8289C60.5215 14.6251 55.629 3.6169 55.629 3.6169C55.629 3.51497 55.4252 3.10726 55.1194 2.59762C54.8136 2.18991 54.304 1.68027 54.1001 1.47642C53.8962 1.27256 53.6924 1.17064 53.6924 1.06871Z" fill="#888888"/>
<path d="M108.325 1.06869C108.325 0.966765 108.529 0.966765 108.733 0.966765C108.835 0.966765 109.65 1.06869 110.16 1.06869C110.67 1.06869 111.587 1.06869 111.791 0.966765C111.995 0.864837 112.198 0.966765 112.198 1.06869C112.198 1.17062 111.995 1.37448 111.995 1.37448C111.893 1.4764 111.689 1.78219 111.689 1.98604C111.689 2.1899 111.791 2.39375 111.893 2.59761C111.995 2.80146 116.377 12.6884 116.377 12.6884C116.377 12.6884 116.377 12.7904 116.479 12.7904C116.581 12.7904 116.581 12.5865 116.581 12.5865L121.984 2.49568C121.984 2.49568 122.085 2.39375 122.085 1.88411C122.085 1.57833 121.984 1.4764 121.882 1.37448C121.78 1.17062 121.576 1.06869 121.576 0.966765C121.678 0.76291 121.882 0.864837 122.085 0.864837C122.289 0.864837 122.391 0.864837 122.493 0.864837C122.595 0.864837 124.328 0.966765 124.43 0.864837C124.532 0.864837 124.939 0.76291 124.939 0.966765C124.939 1.17062 124.837 1.17062 124.634 1.27255C124.43 1.37448 123.716 1.88411 123.003 3.10725C122.799 3.51496 114.645 18.7022 114.645 18.7022C114.441 19.008 113.625 20.1292 113.116 20.1292H111.485C111.485 20.1292 112.3 19.9253 112.708 19.5176C112.912 19.3137 113.218 18.906 113.422 18.4983C113.625 18.1925 115.256 15.0328 115.256 15.0328C115.256 15.0328 115.256 14.9309 115.154 14.727C115.052 14.5231 110.16 3.51496 110.16 3.51496C110.16 3.41303 109.956 3.00532 109.65 2.49568C109.344 2.08797 108.835 1.57833 108.631 1.37448C108.427 1.27255 108.325 1.17062 108.325 1.06869Z" fill="#888888"/>
<path d="M127.691 3.51463V3.61656H127.386C127.386 3.61656 127.08 3.20885 126.978 2.90306C126.876 2.80114 126.774 2.80114 126.774 2.80114H126.366V3.71848H126.061V1.67993C126.061 1.67993 126.978 1.67993 127.08 1.67993C127.182 1.67993 127.589 1.78186 127.589 2.18957C127.589 2.59728 127.182 2.69921 127.182 2.69921C127.08 2.69921 127.182 2.80114 127.182 2.80114C127.284 2.90306 127.691 3.51463 127.691 3.51463ZM126.264 1.88379V2.59728H126.978C126.978 2.59728 127.284 2.59728 127.284 2.18957C127.284 1.98571 127.08 1.88379 126.978 1.88379C126.876 1.88379 126.264 1.88379 126.264 1.88379Z" fill="#888888"/>
<path d="M80.2947 1.0686C80.2947 0.966674 80.3966 0.966674 80.4985 0.966674C80.6004 0.966674 81.212 0.966674 81.3139 1.0686C81.4159 1.0686 82.4351 1.0686 82.7409 1.0686C83.0467 1.0686 83.4544 0.966674 83.6583 0.966674C83.7602 0.966674 83.8621 0.966674 83.8621 1.0686C83.8621 1.17053 83.8621 1.17053 83.7602 1.27246C83.6583 1.27246 83.5563 1.27246 83.3525 1.47631C83.1486 1.68017 83.0467 1.88402 83.0467 2.08788V14.3192C83.0467 14.625 83.2506 14.9308 83.3525 15.0327C83.4544 15.2365 83.8621 15.3385 83.8621 15.3385C83.964 15.3385 84.066 15.4404 84.066 15.5423C84.066 15.6443 83.8621 15.7462 83.7602 15.6443C83.5563 15.6443 82.7409 15.5423 82.2313 15.5423C81.7216 15.5423 81.0081 15.5423 80.7024 15.6443C80.4985 15.6443 80.3966 15.6443 80.3966 15.5423C80.3966 15.4404 80.3966 15.3385 80.4985 15.3385C80.6004 15.3385 80.9062 15.1346 81.1101 15.0327C81.3139 14.8288 81.4159 14.4211 81.4159 14.3192V2.08788C81.4159 1.78209 80.9062 1.47631 80.8043 1.47631C80.7024 1.47631 80.1927 1.27246 80.2947 1.0686ZM97.2146 11.0575H103.126C103.126 11.0575 103.228 11.0575 103.126 10.9556C103.025 10.8537 100.272 4.22836 100.272 4.22836C100.272 4.22836 100.272 4.0245 100.171 4.0245C100.069 4.0245 100.069 4.22836 100.069 4.22836L97.2146 10.9556C97.3166 10.8537 97.2146 11.0575 97.2146 11.0575ZM88.8566 0.966674C88.9585 0.864746 89.2643 0.966674 89.4681 0.966674C89.672 0.966674 90.6913 0.966674 90.8951 0.966674C91.099 0.966674 91.3028 0.864746 91.5067 0.864746C91.6086 0.864746 91.7105 0.864746 91.8125 1.0686C91.8125 1.17053 91.7105 1.27246 91.5067 1.27246C91.3028 1.27246 90.7932 1.47631 90.3855 1.68017C89.9778 1.88402 89.3662 2.39366 89.1624 2.59752C88.9585 2.80137 85.2891 6.67462 85.2891 6.67462C85.2891 6.67462 85.0853 6.87848 85.0853 6.98041C85.0853 7.08233 85.1872 7.18426 85.1872 7.18426C85.1872 7.18426 90.8951 13.9115 91.2009 14.2173C91.5067 14.5231 92.424 15.3385 93.1375 15.3385C94.3607 15.3385 94.6664 14.2173 94.8703 13.8096L100.476 1.17053C100.476 1.17053 100.578 0.966674 100.68 0.966674C100.884 0.966674 100.884 1.17053 100.884 1.17053C100.884 1.17053 106.286 13.8096 106.286 13.9115C106.388 14.0134 106.49 14.4211 106.796 14.8288C107.102 15.2365 107.611 15.5423 107.713 15.5423C107.815 15.6443 107.917 15.5423 107.917 15.7462C107.917 15.95 107.611 15.95 107.407 15.8481C107.204 15.7462 106.49 15.7462 106.082 15.7462C105.675 15.7462 105.063 15.7462 104.961 15.8481C104.757 15.95 104.655 15.95 104.553 15.8481C104.451 15.7462 104.553 15.5423 104.655 15.3385C104.757 15.1346 104.757 14.7269 104.757 14.625C104.757 14.5231 103.738 12.0768 103.738 12.0768H96.9089C96.9089 12.0768 95.8896 14.5231 95.7877 14.625C95.6857 14.8288 95.6857 15.0327 95.7877 15.2365C95.8896 15.4404 95.9915 15.6443 95.9915 15.7462C95.9915 15.8481 95.7876 15.8481 95.5838 15.8481C95.3799 15.8481 95.0742 15.7462 94.7684 15.7462C94.4626 15.7462 94.1568 15.7462 93.2395 15.7462C90.5893 15.7462 89.5701 14.2173 88.245 12.9941C87.7354 12.4845 83.4544 7.6939 83.4544 7.6939L83.3525 7.59197C83.3525 7.49004 83.4544 7.49004 83.4544 7.49004C83.4544 7.49004 88.1431 2.59752 88.245 2.49559C88.4489 2.29173 88.6527 2.08788 88.7546 1.88402C88.7546 1.57824 88.7546 1.27246 88.7546 1.17053C88.7546 1.17053 88.7546 1.0686 88.8566 0.966674Z" fill="#888888"/>
<path d="M124.939 2.69932C124.939 1.68004 125.755 0.762695 126.876 0.762695C127.997 0.762695 128.813 1.57812 128.813 2.69932C128.813 3.7186 127.997 4.63595 126.876 4.63595C125.755 4.63595 124.939 3.7186 124.939 2.69932ZM125.143 2.69932C125.143 3.61667 125.857 4.33016 126.774 4.33016C127.691 4.33016 128.405 3.61667 128.405 2.69932C128.405 1.78197 127.691 1.06848 126.774 1.06848C125.857 1.06848 125.143 1.78197 125.143 2.69932Z" fill="#888888"/>
</svg>
