<svg width="180" height="28" viewBox="0 0 180 28" fill="none" xmlns="http://www.w3.org/2000/svg">
<path d="M0.669922 20.094V20.66C0.669922 20.66 0.811429 20.66 0.952935 20.66C1.09444 20.66 1.80198 20.5185 2.65102 20.5185C3.50006 20.5185 4.3491 20.66 4.4906 20.66C4.63211 20.66 4.91512 20.66 4.91512 20.5185C4.91512 20.377 4.77362 20.2355 4.63211 20.2355C4.4906 20.2355 3.78307 19.8109 3.64156 19.2449C3.64156 18.6789 3.64156 17.9714 3.78307 17.5468L6.04718 4.81123L13.83 20.5185C13.83 20.5185 13.83 20.66 13.9716 20.66C14.1131 20.66 14.1131 20.5185 14.1131 20.5185L21.1884 4.95273C21.1884 4.95273 21.1884 4.81123 21.3299 4.81123C21.4714 4.81123 21.4714 5.09424 21.4714 5.09424L23.877 19.1034C23.877 19.2449 23.877 19.8109 23.7355 20.094C23.4525 20.5185 23.1695 20.66 23.1695 20.8015C23.1695 20.943 23.311 20.943 23.7355 20.943C23.877 20.943 24.8676 20.8015 25.5751 20.8015C26.1411 20.8015 27.4147 20.943 27.8392 20.943C28.1222 20.943 28.2637 20.943 28.2637 20.8015C28.2637 20.66 28.1222 20.5185 27.9807 20.5185C27.8392 20.5185 26.8487 20.2355 26.5657 19.3864C26.2826 18.5374 26.2826 18.1129 26.2826 18.1129L23.594 2.54712C23.594 2.26411 23.594 1.55657 24.0185 1.27356C24.4431 0.990547 25.0091 0.84904 25.2921 0.84904C25.5751 0.84904 25.5751 0.707534 25.5751 0.566027C25.5751 0.42452 25.5751 0.283013 25.2921 0.283013C25.0091 0.283013 23.594 0.283013 23.1695 0.283013C22.745 0.283013 21.4714 0.283013 21.3299 0.283013C21.1884 0.283013 21.0469 0.42452 21.0469 0.566027C21.0469 0.707534 21.1884 1.27356 21.1884 1.69808C21.0469 2.1226 14.8206 15.9903 14.8206 15.9903C14.8206 15.9903 14.8206 16.1318 14.6791 16.1318C14.5376 16.1318 14.5376 15.9903 14.5376 15.9903C14.5376 15.9903 7.46225 1.98109 7.46225 1.55657C7.46225 1.27356 7.46225 0.84904 7.46225 0.707534C7.46225 0.566027 7.46225 0.42452 7.46225 0.283013C7.46225 0.141507 7.32074 0 7.17923 0C7.03772 0 6.18868 0.141507 5.90567 0.141507C5.62266 0.141507 3.92458 0.141507 3.64156 0.141507C3.35855 0.141507 2.79252 0.141507 2.65102 0.141507C2.50951 0.141507 2.50951 0.283013 2.50951 0.42452C2.50951 0.566027 2.65102 0.566027 2.93403 0.707534C3.35855 0.707534 4.3491 1.27356 4.4906 1.69808C4.63211 2.1226 4.63211 2.68863 4.4906 3.25465C4.63211 3.82068 1.94348 18.2544 1.94348 18.2544C1.94348 18.2544 1.66047 19.2449 1.51896 19.5279C1.09444 20.094 0.669922 20.094 0.669922 20.094Z" fill="#888888"/>
<path d="M36.4711 15.4243C36.4711 15.4243 35.1975 18.2545 35.1975 18.5375C35.056 18.679 34.9145 19.1035 34.9145 19.3865C34.9145 19.811 35.056 20.094 35.056 20.3771C35.056 20.5186 35.1975 20.6601 35.056 20.8016C35.056 20.9431 34.773 20.8016 34.6315 20.8016C34.49 20.8016 33.7825 20.6601 33.358 20.6601C32.9334 20.6601 31.8014 20.8016 31.6599 20.9431C31.3769 21.0846 31.3769 20.9431 31.2354 20.8016C31.2354 20.6601 31.2353 20.6601 31.5184 20.5186C31.8014 20.3771 32.0844 20.2356 32.5089 19.811C33.0749 19.3865 33.358 18.5375 33.358 18.5375L41.2823 0.566122C41.2823 0.566122 41.4238 0.141602 41.5653 0.141602C41.7068 0.141602 41.8484 0.283108 41.8484 0.283108C41.8484 0.283108 49.0652 17.2639 49.2067 17.6884C49.3482 18.113 49.7727 18.8205 50.1973 19.3865C50.6218 19.9525 51.3293 20.3771 51.4708 20.3771C51.6123 20.3771 51.8953 20.5186 51.7538 20.8016C51.7538 21.0846 51.0463 20.8016 50.6218 20.8016C50.1973 20.8016 49.4897 20.6601 49.0652 20.6601C48.6407 20.6601 47.5086 20.8016 47.3671 20.8016C47.2256 20.8016 47.0841 20.9431 46.9426 20.8016C46.8011 20.6601 46.9426 20.5186 47.0841 20.3771C47.2256 20.2356 47.3671 19.6695 47.3671 19.528C47.3671 19.3865 47.2256 18.8205 47.2256 18.8205L45.8105 15.4243H36.4711ZM37.0371 14.1508H45.2445H45.386L41.4238 4.3868C41.4238 4.3868 41.4238 4.2453 41.2823 4.2453L41.1408 4.3868L37.0371 14.1508C37.0371 14.0093 37.0371 14.1508 37.0371 14.1508Z" fill="#888888"/>
<path d="M57.5557 0.283108C57.4142 0.283108 57.1312 0.141602 56.9896 0.283108C56.8481 0.283108 56.8481 0.424615 56.8481 0.566122C56.8481 0.707628 57.1312 0.849135 57.2727 0.849135C57.4142 0.849135 58.2632 1.41516 58.2632 2.1227C58.2632 2.68872 58.2632 18.962 58.2632 18.962C58.2632 19.245 57.9802 19.9525 57.5557 20.094C57.2727 20.2356 56.8481 20.3771 56.8481 20.5186C56.8481 20.6601 56.8481 20.8016 57.2727 20.8016C57.6972 20.8016 58.5462 20.6601 59.2538 20.6601C59.9613 20.6601 60.6688 20.6601 61.0933 20.8016C61.3764 20.8016 61.9424 20.9431 62.0839 20.8016C62.2254 20.6601 62.2254 20.5186 62.0839 20.5186C61.9424 20.3771 61.3764 20.2356 61.2349 20.094C61.0933 19.9525 60.8103 19.528 60.8103 19.1035V2.2642C60.8103 1.98119 60.8103 0.990642 62.9329 0.990642C63.9235 0.990642 67.1781 1.55667 67.1781 5.66036C67.1781 8.91502 64.7725 10.4716 63.0744 10.4716C62.5084 10.4716 61.9424 10.4716 61.9424 10.4716C61.9424 10.6131 62.0839 10.7546 62.0839 10.7546C62.2254 11.0376 65.6216 15.2828 66.0461 15.7073C66.4706 16.2734 68.7347 19.245 70.5743 19.9525C71.1403 20.2356 71.8479 20.5186 73.9705 20.3771C74.2535 20.3771 74.2535 20.2356 74.2535 20.094C74.2535 20.094 74.2535 19.9525 74.112 19.9525C73.9705 19.9525 72.9799 19.9525 71.9894 19.3865C70.9988 18.8205 70.7158 18.396 69.8668 17.2639C69.3007 16.8394 65.0555 11.3206 65.0555 11.3206C65.0555 11.3206 64.7725 11.0376 65.0555 11.0376C65.197 11.0376 69.4422 9.90557 69.4422 5.37735C69.4422 4.81132 69.3007 0.141602 63.2159 0.141602C62.2254 0.141602 59.9613 0.424615 59.5368 0.424615C58.9707 0.424615 57.6972 0.283108 57.5557 0.283108Z" fill="#888888"/>
<path d="M75.1025 0.42473C75.1025 0.283223 75.3856 0.283223 75.6686 0.283223C75.8101 0.283223 76.9421 0.42473 77.6497 0.42473C78.3572 0.42473 79.6308 0.42473 79.9138 0.283223C80.1968 0.141717 80.4798 0.283223 80.4798 0.42473C80.4798 0.566237 80.1968 0.84925 80.1968 0.84925C80.0553 0.990757 79.7723 1.41528 79.7723 1.69829C79.7723 1.9813 79.9138 2.26432 80.0553 2.54733C80.1968 2.83034 86.2816 16.5565 86.2816 16.5565C86.2816 16.5565 86.2816 16.698 86.4231 16.698C86.5646 16.698 86.5646 16.415 86.5646 16.415L94.0644 2.54733C94.0644 2.54733 94.2059 2.40582 94.2059 1.69829C94.2059 1.27377 94.0644 1.13226 94.0644 0.990757C93.9229 0.707744 93.6399 0.566237 93.6399 0.42473C93.7814 0.141717 94.0644 0.283223 94.3475 0.283223C94.6305 0.283223 94.772 0.283223 94.9135 0.283223C95.055 0.283223 97.4606 0.42473 97.6021 0.283223C97.7436 0.283223 98.3096 0.141717 98.3096 0.42473C98.3096 0.707744 98.1681 0.707744 97.8851 0.84925C97.6021 0.990757 96.6116 1.69829 95.621 3.39637C95.338 3.9624 84.0175 25.0469 84.0175 25.0469C83.7345 25.4714 82.6024 27.028 81.8949 27.028H79.6308C79.6308 27.028 80.7628 26.745 81.3288 26.179C81.6119 25.8959 82.0364 25.3299 82.3194 24.7639C82.6024 24.3394 84.8665 19.9527 84.8665 19.9527C84.8665 19.9527 84.8665 19.8112 84.725 19.5281C84.5835 19.2451 77.7912 3.9624 77.7912 3.9624C77.7912 3.82089 77.5082 3.25486 77.0836 2.54733C76.6591 1.9813 75.9516 1.27377 75.6686 0.990757C75.3856 0.707744 75.1025 0.566237 75.1025 0.42473Z" fill="#888888"/>
<path d="M150.95 0.424835C150.95 0.283329 151.233 0.283329 151.516 0.283329C151.658 0.283329 152.79 0.424835 153.497 0.424835C154.205 0.424835 155.478 0.424835 155.761 0.283329C156.044 0.141822 156.327 0.283329 156.327 0.424835C156.327 0.566342 156.044 0.849356 156.044 0.849356C155.903 0.990862 155.62 1.41538 155.62 1.6984C155.62 1.98141 155.761 2.26442 155.903 2.54744C156.044 2.83045 162.129 16.5566 162.129 16.5566C162.129 16.5566 162.129 16.6981 162.271 16.6981C162.412 16.6981 162.412 16.4151 162.412 16.4151L169.912 2.40593C169.912 2.40593 170.054 2.26442 170.054 1.55689C170.054 1.13237 169.912 0.990862 169.771 0.849356C169.629 0.566342 169.346 0.424835 169.346 0.283329C169.488 0.000315256 169.771 0.141822 170.054 0.141822C170.337 0.141822 170.478 0.141822 170.62 0.141822C170.761 0.141822 173.167 0.283329 173.308 0.141822C173.45 0.141822 174.016 0.000315256 174.016 0.283329C174.016 0.566342 173.874 0.566342 173.591 0.707849C173.308 0.849356 172.318 1.55689 171.327 3.25497C171.044 3.821 159.724 24.9055 159.724 24.9055C159.441 25.33 158.309 26.8866 157.601 26.8866H155.337C155.337 26.8866 156.469 26.6036 157.035 26.0376C157.318 25.7545 157.743 25.1885 158.026 24.6225C158.309 24.198 160.573 19.8113 160.573 19.8113C160.573 19.8113 160.573 19.6698 160.431 19.3867C160.29 19.1037 153.497 3.821 153.497 3.821C153.497 3.67949 153.214 3.11346 152.79 2.40593C152.365 1.8399 151.658 1.13237 151.375 0.849356C151.092 0.707849 150.95 0.566342 150.95 0.424835Z" fill="#888888"/>
<path d="M177.836 3.82056V3.96207H177.412C177.412 3.96207 176.987 3.39604 176.846 2.97152C176.704 2.83001 176.563 2.83001 176.563 2.83001H175.997V4.10357H175.572V1.27344C175.572 1.27344 176.846 1.27344 176.987 1.27344C177.129 1.27344 177.695 1.41494 177.695 1.98097C177.695 2.547 177.129 2.6885 177.129 2.6885C176.987 2.6885 177.129 2.83001 177.129 2.83001C177.27 2.97152 177.836 3.82056 177.836 3.82056ZM175.855 1.55645V2.547H176.846C176.846 2.547 177.27 2.547 177.27 1.98097C177.27 1.69796 176.987 1.55645 176.846 1.55645C176.704 1.55645 175.855 1.55645 175.855 1.55645Z" fill="#888888"/>
<path d="M112.036 0.424615C112.036 0.283108 112.177 0.283108 112.319 0.283108C112.46 0.283108 113.309 0.283108 113.451 0.424615C113.592 0.424615 115.007 0.424615 115.432 0.424615C115.856 0.424615 116.422 0.283108 116.705 0.283108C116.847 0.283108 116.988 0.283108 116.988 0.424615C116.988 0.566122 116.988 0.566122 116.847 0.707629C116.705 0.707629 116.564 0.707628 116.281 0.990642C115.998 1.27366 115.856 1.55667 115.856 1.83968V18.8205C115.856 19.245 116.139 19.6695 116.281 19.811C116.422 20.0941 116.988 20.2356 116.988 20.2356C117.13 20.2356 117.271 20.3771 117.271 20.5186C117.271 20.6601 116.988 20.8016 116.847 20.6601C116.564 20.6601 115.432 20.5186 114.724 20.5186C114.017 20.5186 113.026 20.5186 112.602 20.6601C112.319 20.6601 112.177 20.6601 112.177 20.5186C112.177 20.3771 112.177 20.2356 112.319 20.2356C112.46 20.2356 112.885 19.9525 113.168 19.811C113.451 19.528 113.592 18.962 113.592 18.8205V1.83968C113.592 1.41516 112.885 0.990642 112.743 0.990642C112.602 0.990642 111.894 0.707629 112.036 0.424615ZM135.526 14.2923H143.733C143.733 14.2923 143.875 14.2923 143.733 14.1508C143.592 14.0093 139.771 4.81132 139.771 4.81132C139.771 4.81132 139.771 4.52831 139.629 4.52831C139.488 4.52831 139.488 4.81132 139.488 4.81132L135.526 14.1508C135.667 14.0093 135.526 14.2923 135.526 14.2923ZM123.922 0.283108C124.064 0.141602 124.488 0.283108 124.771 0.283108C125.054 0.283108 126.469 0.283108 126.752 0.283108C127.035 0.283108 127.318 0.141602 127.601 0.141602C127.743 0.141602 127.884 0.141602 128.026 0.424615C128.026 0.566122 127.884 0.707629 127.601 0.707629C127.318 0.707629 126.611 0.990642 126.045 1.27366C125.479 1.55667 124.63 2.2642 124.347 2.54722C124.064 2.83023 118.97 8.20749 118.97 8.20749C118.97 8.20749 118.687 8.4905 118.687 8.63201C118.687 8.77351 118.828 8.91502 118.828 8.91502C118.828 8.91502 126.752 18.2545 127.177 18.679C127.601 19.1035 128.875 20.2356 129.866 20.2356C131.564 20.2356 131.988 18.679 132.271 18.113L140.054 0.566122C140.054 0.566122 140.196 0.283108 140.337 0.283108C140.62 0.283108 140.62 0.566122 140.62 0.566122C140.62 0.566122 148.12 18.113 148.12 18.2545C148.261 18.396 148.403 18.962 148.827 19.528C149.252 20.0941 149.959 20.5186 150.101 20.5186C150.242 20.6601 150.384 20.5186 150.384 20.8016C150.384 21.0846 149.959 21.0846 149.676 20.9431C149.393 20.8016 148.403 20.8016 147.837 20.8016C147.271 20.8016 146.422 20.8016 146.28 20.9431C145.997 21.0846 145.856 21.0846 145.714 20.9431C145.573 20.8016 145.714 20.5186 145.856 20.2356C145.997 19.9525 145.997 19.3865 145.997 19.245C145.997 19.1035 144.582 15.7073 144.582 15.7073H135.101C135.101 15.7073 133.686 19.1035 133.545 19.245C133.403 19.528 133.403 19.811 133.545 20.0941C133.686 20.3771 133.828 20.6601 133.828 20.8016C133.828 20.9431 133.545 20.9431 133.262 20.9431C132.979 20.9431 132.554 20.8016 132.13 20.8016C131.705 20.8016 131.281 20.8016 130.007 20.8016C126.328 20.8016 124.913 18.679 123.073 16.9809C122.366 16.2734 116.422 9.62255 116.422 9.62255L116.281 9.48105C116.281 9.33954 116.422 9.33954 116.422 9.33954C116.422 9.33954 122.932 2.54722 123.073 2.40571C123.356 2.1227 123.639 1.83968 123.781 1.55667C123.781 1.13215 123.781 0.707629 123.781 0.566122C123.781 0.566122 123.781 0.424615 123.922 0.283108Z" fill="#888888"/>
<path d="M174.016 2.68863C174.016 1.27356 175.148 0 176.704 0C178.261 0 179.393 1.13205 179.393 2.68863C179.393 4.1037 178.261 5.37726 176.704 5.37726C175.148 5.37726 174.016 4.1037 174.016 2.68863ZM174.299 2.68863C174.299 3.96219 175.289 4.95274 176.563 4.95274C177.836 4.95274 178.827 3.96219 178.827 2.68863C178.827 1.41507 177.836 0.42452 176.563 0.42452C175.289 0.42452 174.299 1.41507 174.299 2.68863Z" fill="#888888"/>
</svg>
