<svg width="128" height="17" viewBox="0 0 128 17" fill="none" xmlns="http://www.w3.org/2000/svg">
<path d="M41.2659 15.8279H39.2422V2.60897H41.2659V15.8279ZM50.9797 15.8279H48.956V2.60897H58.7598V4.47204H50.9797V8.46434H57.9503V10.3274H50.9797V15.8279ZM74.3198 15.8279H65.0557V2.60897H67.0795V13.9648H74.3198V15.8279ZM103.641 12.3679L99.3688 6.06896V15.8723H98.3795H97.3901V2.60897H99.2789L103.821 9.30715L108.363 2.60897H110.252V15.8279H109.263H108.273V6.0246L104.001 12.3236L103.821 12.5897L103.641 12.3679ZM127.566 15.8279H117.627V2.60897H127.476V4.47204H119.606V8.24254H126.621V10.1056H119.606V14.0092H127.566V15.8279ZM32.9912 15.8279H30.4279L26.7852 10.9041H23.5023V15.8279H21.4786V2.60897H27.2799C30.293 2.60897 32.2267 4.20589 32.2267 6.68998C32.2267 8.64177 30.9675 10.0613 28.8988 10.5936L32.9912 15.8279ZM23.5473 9.041H27.2349C29.0787 9.041 30.248 8.10947 30.248 6.68998C30.248 5.2705 29.1687 4.42769 27.2349 4.42769H23.5473V9.041ZM32.9912 15.8279H30.4279L26.7852 10.9041H23.5023V15.8279H21.4786V2.60897H27.2799C30.293 2.60897 32.2267 4.20589 32.2267 6.68998C32.2267 8.64177 30.9675 10.0613 28.8988 10.5936L32.9912 15.8279ZM23.5473 9.041H27.2349C29.0787 9.041 30.248 8.10947 30.248 6.68998C30.248 5.2705 29.1687 4.42769 27.2349 4.42769H23.5473V9.041ZM32.9912 15.8279H30.4279L26.7852 10.9041H23.5023V15.8279H21.4786V2.60897H27.2799C30.293 2.60897 32.2267 4.20589 32.2267 6.68998C32.2267 8.64177 30.9675 10.0613 28.8988 10.5936L32.9912 15.8279ZM23.5473 9.041H27.2349C29.0787 9.041 30.248 8.10947 30.248 6.68998C30.248 5.2705 29.1687 4.42769 27.2349 4.42769H23.5473V9.041ZM32.9912 15.8279H30.4279L26.7852 10.9041H23.5023V15.8279H21.4786V2.60897H27.2799C30.293 2.60897 32.2267 4.20589 32.2267 6.68998C32.2267 8.64177 30.9675 10.0613 28.8988 10.5936L32.9912 15.8279ZM23.5473 9.041H27.2349C29.0787 9.041 30.248 8.10947 30.248 6.68998C30.248 5.2705 29.1687 4.42769 27.2349 4.42769H23.5473V9.041ZM90.0148 15.8279H92.2184L86.1023 2.52026H84.3934L78.2773 15.8279H80.391L81.92 12.4123H88.4858L90.0148 15.8279ZM82.7295 10.6379L85.2478 4.95999L87.7662 10.6379H82.7295ZM15.4974 8.41998C15.4974 12.6341 12.0346 16.0497 7.76235 16.0497C3.53505 16.0497 0.0722656 12.6341 0.0722656 8.41998C0.0722656 4.64948 2.86048 1.54436 6.50316 0.92334V0.967699C3.66997 2.07667 1.96106 4.7382 1.96106 7.79895C1.96106 11.7469 4.79425 14.0092 7.80732 14.0092C10.9553 14.0092 13.4737 11.4807 13.4737 8.41998C13.4737 5.75845 11.3601 3.54051 8.57184 3.54051C5.37888 3.54051 3.84985 6.42383 3.84985 6.42383H3.80488C3.80488 6.42383 5.24396 2.29846 9.42629 2.29846C11.9897 2.29846 15.4974 4.38333 15.4974 8.41998Z" fill="#888888"/>
</svg>
