<svg width="178" height="21" viewBox="0 0 178 21" fill="none" xmlns="http://www.w3.org/2000/svg">
<path d="M57.6142 20.6921H54.8047V2.34018H57.6142V20.6921ZM71.0999 20.6921H68.2904V2.34018H81.901V4.92669H71.0999V10.4692H80.7772V13.0557H71.0999V20.6921ZM103.503 20.6921H90.6417V2.34018H93.4513V18.1056H103.503V20.6921ZM144.21 15.8886L138.279 7.1437V20.7537H136.905H135.532V2.34018H138.154L144.46 11.6393L150.766 2.34018H153.388V20.6921H152.014H150.641V7.08211L144.709 15.827L144.46 16.1965L144.21 15.8886ZM177.425 20.6921H163.627V2.34018H177.3V4.92669H166.374V10.1613H176.114V12.7478H166.374V18.1672H177.425V20.6921ZM46.1264 20.6921H42.5677L37.5105 13.8563H32.9528V20.6921H30.1433V2.34018H38.1973C42.3804 2.34018 45.065 4.55718 45.065 8.00587C45.065 10.7155 43.3169 12.6862 40.4449 13.4252L46.1264 20.6921ZM33.0153 11.2698H38.1349C40.6946 11.2698 42.3179 9.97654 42.3179 8.00587C42.3179 6.03519 40.8195 4.8651 38.1349 4.8651H33.0153V11.2698ZM46.1264 20.6921H42.5677L37.5105 13.8563H32.9528V20.6921H30.1433V2.34018H38.1973C42.3804 2.34018 45.065 4.55718 45.065 8.00587C45.065 10.7155 43.3169 12.6862 40.4449 13.4252L46.1264 20.6921ZM33.0153 11.2698H38.1349C40.6946 11.2698 42.3179 9.97654 42.3179 8.00587C42.3179 6.03519 40.8195 4.8651 38.1349 4.8651H33.0153V11.2698ZM46.1264 20.6921H42.5677L37.5105 13.8563H32.9528V20.6921H30.1433V2.34018H38.1973C42.3804 2.34018 45.065 4.55718 45.065 8.00587C45.065 10.7155 43.3169 12.6862 40.4449 13.4252L46.1264 20.6921ZM33.0153 11.2698H38.1349C40.6946 11.2698 42.3179 9.97654 42.3179 8.00587C42.3179 6.03519 40.8195 4.8651 38.1349 4.8651H33.0153V11.2698ZM46.1264 20.6921H42.5677L37.5105 13.8563H32.9528V20.6921H30.1433V2.34018H38.1973C42.3804 2.34018 45.065 4.55718 45.065 8.00587C45.065 10.7155 43.3169 12.6862 40.4449 13.4252L46.1264 20.6921ZM33.0153 11.2698H38.1349C40.6946 11.2698 42.3179 9.97654 42.3179 8.00587C42.3179 6.03519 40.8195 4.8651 38.1349 4.8651H33.0153V11.2698ZM125.293 20.6921H128.352L119.861 2.21701H117.488L108.997 20.6921H111.932L114.054 15.9501H123.17L125.293 20.6921ZM115.178 13.4868L118.675 5.60411L122.171 13.4868H115.178ZM21.8396 10.4076C21.8396 16.2581 17.0322 21 11.101 21C5.23221 21 0.424805 16.2581 0.424805 10.4076C0.424805 5.17302 4.2957 0.86217 9.35285 0V0.0615836C5.41951 1.60117 3.04703 5.29619 3.04703 9.54545C3.04703 15.0264 6.98036 18.1672 11.1634 18.1672C15.5338 18.1672 19.0301 14.6569 19.0301 10.4076C19.0301 6.71261 16.0957 3.63343 12.2248 3.63343C7.792 3.63343 5.66925 7.63636 5.66925 7.63636H5.60682C5.60682 7.63636 7.6047 1.90909 13.411 1.90909C16.9698 1.90909 21.8396 4.80352 21.8396 10.4076Z" fill="#888888"/>
</svg>
