<svg width="85" height="19" viewBox="0 0 85 19" fill="none" xmlns="http://www.w3.org/2000/svg">
<path fill-rule="evenodd" clip-rule="evenodd" d="M10.4506 0.532215C8.55224 0.337351 6.63855 0.720232 4.97257 1.62823C3.30658 2.53623 1.97008 3.92478 1.14677 5.60301C0.323461 7.28124 0.0537565 9.16677 0.374729 11.0004C0.695701 12.8341 1.59159 14.5259 2.93927 15.8432C4.28694 17.1606 6.02023 18.0388 7.9009 18.3573C9.78157 18.6757 11.7173 18.4188 13.442 17.6216C15.1667 16.8245 16.5957 15.5264 17.5326 13.9058C18.4696 12.2851 18.8684 10.4214 18.6743 8.57093C18.4607 6.51398 17.5263 4.59156 16.0284 3.12738C14.5306 1.66321 12.5607 0.746712 10.4506 0.532215ZM10.1512 14.2513C9.1302 14.3847 8.09196 14.2031 7.18238 13.7319C6.2728 13.2606 5.53761 12.5235 5.08014 11.6241C4.62266 10.7246 4.4659 9.70811 4.63189 8.71738C4.79788 7.72665 5.27826 6.8115 6.00554 6.10056C6.73281 5.38962 7.67041 4.91863 8.68656 4.75378C9.7027 4.58893 10.7463 4.73851 11.6707 5.18149C12.5951 5.62448 13.3539 6.3386 13.8403 7.2235C14.3267 8.10839 14.5163 9.11957 14.3826 10.1149C14.2422 11.1619 13.7515 12.1345 12.9866 12.8823C12.2217 13.63 11.2251 14.1112 10.1512 14.2513ZM23.6161 0.888414C23.2957 0.889162 22.9794 0.959519 22.6904 1.09437C22.4013 1.22922 22.1468 1.42516 21.9452 1.66795C21.7437 1.91073 21.6002 2.19425 21.5253 2.49787C21.4503 2.80149 21.4458 3.11758 21.512 3.42313C21.7147 4.413 22.6635 5.08936 23.6971 5.08936H29.6952L20.3608 17.127C20.2917 17.2159 20.2495 17.3218 20.2387 17.4327C20.2279 17.5437 20.2491 17.6554 20.2998 17.7553C20.3506 17.8552 20.4288 17.9393 20.5259 17.9983C20.6229 18.0573 20.7349 18.0888 20.8493 18.0892H35.4913C36.5242 18.0892 37.4736 17.413 37.6764 16.423C37.7426 16.1175 37.7381 15.8014 37.6632 15.4978C37.5883 15.1943 37.4449 14.9107 37.2435 14.6679C37.042 14.4251 36.7876 14.2291 36.4986 14.0942C36.2097 13.9593 35.8935 13.8888 35.5731 13.8879H28.2648L37.5921 1.85959C37.6618 1.76986 37.7045 1.66297 37.7153 1.55093C37.7262 1.43888 37.7048 1.3261 37.6535 1.22525C37.6023 1.12439 37.5232 1.03945 37.4252 0.979956C37.3271 0.920459 37.214 0.88876 37.0985 0.888414H23.6161ZM82.1245 0.936871C81.6397 1.0492 81.2088 1.31938 80.903 1.70273C80.5972 2.08609 80.4348 2.55967 80.4427 3.04516V10.0396L68.8123 1.02052C68.7211 0.949972 68.6114 0.905944 68.4956 0.893504C68.3799 0.881065 68.2629 0.900719 68.1581 0.950206C68.0533 0.999692 67.965 1.077 67.9033 1.17324C67.8416 1.26948 67.809 1.38073 67.8093 1.49421V15.9362C67.8014 16.4217 67.9638 16.8953 68.2696 17.2786C68.5754 17.662 69.0063 17.9322 69.4911 18.0445C69.8058 18.112 70.1322 18.1097 70.4459 18.038C70.7597 17.9662 71.0529 17.8266 71.304 17.6297C71.5551 17.4327 71.7576 17.1833 71.8965 16.9C72.0355 16.6166 72.1074 16.3064 72.107 15.9923V8.93734L83.7375 17.9566C83.8287 18.0271 83.9384 18.0711 84.0541 18.0835C84.1698 18.0959 84.2868 18.0763 84.3915 18.0268C84.4963 17.9774 84.5845 17.9001 84.6462 17.8039C84.7079 17.7077 84.7405 17.5965 84.7402 17.4831V2.98838C84.7405 2.67436 84.6685 2.36428 84.5295 2.08099C84.3905 1.7977 84.188 1.54842 83.937 1.35154C83.686 1.15466 83.3928 1.01519 83.0791 0.943425C82.7654 0.871657 82.4392 0.869417 82.1245 0.936871ZM51.8422 4.68725C56.7615 4.68725 60.4372 7.22061 60.4372 9.48668C60.4372 11.7528 56.7615 14.2861 51.8422 14.2861C46.9229 14.2861 43.2472 11.7528 43.2472 9.48668C43.2472 7.22061 46.9229 4.68725 51.8422 4.68725ZM51.8422 0.486478C44.7217 0.486478 38.9495 4.51604 38.9495 9.48668C38.9495 14.4573 44.7217 18.4869 51.8422 18.4869C58.9627 18.4869 64.7347 14.4573 64.7347 9.48668C64.7347 4.51604 58.9625 0.486478 51.8422 0.486478Z" fill="#888888"/>
</svg>
