<svg width="118" height="25" viewBox="0 0 118 25" fill="none" xmlns="http://www.w3.org/2000/svg">
<path fill-rule="evenodd" clip-rule="evenodd" d="M14.5958 0.0687888C11.9603 -0.201742 9.30356 0.329815 6.99066 1.5904C4.67777 2.85098 2.8223 4.7787 1.67929 7.1086C0.536282 9.43849 0.161849 12.0562 0.607457 14.6019C1.05306 17.1476 2.29684 19.4963 4.16782 21.3251C6.0388 23.154 8.44514 24.3733 11.0561 24.8154C13.667 25.2576 16.3544 24.9008 18.7488 23.7941C21.1432 22.6875 23.1272 20.8853 24.4279 18.6354C25.7286 16.3854 26.2823 13.7981 26.0128 11.229C25.7163 8.3733 24.4191 5.7044 22.3396 3.67168C20.2601 1.63895 17.5253 0.366577 14.5958 0.0687888ZM14.1802 19.115C12.7627 19.3003 11.3213 19.0481 10.0586 18.3939C8.79578 17.7397 7.77511 16.7163 7.14 15.4677C6.50489 14.219 6.28726 12.8077 6.5177 11.4323C6.74814 10.0569 7.41506 8.78636 8.42474 7.79936C9.43442 6.81236 10.7361 6.15848 12.1468 5.92961C13.5575 5.70075 15.0064 5.90841 16.2898 6.52341C17.5731 7.13841 18.6265 8.12983 19.3017 9.35833C19.977 10.5868 20.2403 11.9907 20.0546 13.3725C19.8597 14.826 19.1786 16.1763 18.1166 17.2144C17.0546 18.2525 15.6711 18.9205 14.1802 19.115ZM32.8736 0.563303C32.4287 0.56434 31.9897 0.662018 31.5884 0.849229C31.1871 1.03644 30.8337 1.30847 30.5539 1.64553C30.2741 1.9826 30.0749 2.37621 29.9709 2.79772C29.8668 3.21924 29.8605 3.65806 29.9524 4.08226C30.2339 5.45651 31.5511 6.3955 32.986 6.3955H41.3132L28.3542 23.1075C28.2584 23.2308 28.1997 23.3778 28.1847 23.5319C28.1698 23.6859 28.1992 23.841 28.2696 23.9797C28.34 24.1184 28.4487 24.2352 28.5834 24.3171C28.7182 24.399 28.8736 24.4426 29.0324 24.4432H49.3599C50.7939 24.4432 52.1121 23.5045 52.3936 22.13C52.4855 21.7059 52.4792 21.2671 52.3752 20.8457C52.2713 20.4242 52.0722 20.0306 51.7925 19.6935C51.5129 19.3564 51.1596 19.0843 50.7585 18.897C50.3573 18.7097 49.9184 18.6118 49.4735 18.6106H39.3275L52.2766 1.91159C52.3733 1.78702 52.4326 1.63863 52.4476 1.48307C52.4627 1.32751 52.433 1.17094 52.3618 1.03093C52.2907 0.890913 52.1809 0.77299 52.0448 0.690391C51.9087 0.607791 51.7516 0.563783 51.5913 0.563303H32.8736ZM114.101 0.630575C113.428 0.78652 112.83 1.16161 112.405 1.69383C111.981 2.22604 111.755 2.88351 111.766 3.55753V13.2679L95.6198 0.746709C95.4932 0.648763 95.3407 0.587639 95.18 0.570369C95.0194 0.553099 94.8569 0.580385 94.7114 0.649088C94.566 0.717791 94.4433 0.825119 94.3577 0.958726C94.272 1.09233 94.2268 1.24679 94.2272 1.40433V21.4542C94.2163 22.1282 94.4417 22.7857 94.8662 23.318C95.2908 23.8502 95.889 24.2253 96.562 24.3812C96.9991 24.4749 97.4521 24.4718 97.8877 24.3721C98.3233 24.2724 98.7304 24.0787 99.079 23.8053C99.4275 23.5319 99.7086 23.1856 99.9016 22.7922C100.095 22.3988 100.194 21.9682 100.194 21.5321V11.7377L116.34 24.2591C116.467 24.357 116.619 24.4181 116.78 24.4354C116.941 24.4526 117.103 24.4253 117.248 24.3567C117.394 24.288 117.516 24.1807 117.602 24.0472C117.688 23.9136 117.733 23.7592 117.732 23.6017V3.47869C117.733 3.04275 117.633 2.61226 117.44 2.21896C117.247 1.82567 116.966 1.47959 116.617 1.20626C116.269 0.932931 115.862 0.739309 115.426 0.639674C114.991 0.540038 114.538 0.536929 114.101 0.630575ZM72.06 5.83725C78.8896 5.83725 83.9925 9.35432 83.9925 12.5003C83.9925 15.6463 78.8896 19.1634 72.06 19.1634C65.2305 19.1634 60.1276 15.6463 60.1276 12.5003C60.1276 9.35432 65.2305 5.83725 72.06 5.83725ZM72.06 0.00529271C62.1746 0.00529271 54.1611 5.59956 54.1611 12.5003C54.1611 19.4011 62.1746 24.9954 72.06 24.9954C81.9455 24.9954 89.9587 19.4011 89.9587 12.5003C89.9587 5.59956 81.9452 0.00529271 72.06 0.00529271Z" fill="#888888"/>
</svg>
