<svg width="117" height="19" viewBox="0 0 117 19" fill="none" xmlns="http://www.w3.org/2000/svg">
<path d="M15.3676 0.482666C15.0565 0.797922 14.749 1.11318 14.4379 1.42485C13.8337 2.03387 13.2223 2.63931 12.6216 3.25191C12.4785 3.3952 12.3284 3.45969 12.1246 3.45611C9.34279 3.44894 6.55744 3.45252 3.77567 3.45252C3.70058 3.45252 3.6255 3.45252 3.53968 3.45252C3.53968 7.42547 3.53968 11.3805 3.53968 15.3463C7.47278 15.3463 11.3952 15.3463 15.339 15.3463C15.339 15.2639 15.339 15.1887 15.339 15.1134C15.339 12.2582 15.339 9.40657 15.3354 6.55135C15.3354 6.42955 15.3676 6.34357 15.457 6.25759C16.2007 5.5196 16.9408 4.77087 17.6845 4.03288C17.8597 3.85734 18.0492 3.69613 18.2459 3.51701C18.2459 8.40348 18.2459 13.2756 18.2459 18.1764C18.178 18.1764 18.1029 18.1764 18.0314 18.1764C12.2998 18.1764 6.56817 18.1764 0.832996 18.1764C0.754334 18.1764 0.679248 18.18 0.600586 18.18C0.600586 12.2833 0.600586 6.38656 0.600586 0.482666C5.52411 0.482666 10.4441 0.482666 15.3676 0.482666Z" fill="#888888"/>
<path d="M46.1533 18.2156C46.1533 18.1332 46.1569 18.0472 46.1569 17.9648C46.1569 12.9028 46.1569 7.84076 46.1569 2.77875C46.1569 2.70351 46.1569 2.6247 46.1569 2.52797C46.2391 2.52797 46.3106 2.52797 46.3786 2.52797C48.9208 2.52797 51.4666 2.52081 54.0088 2.53156C54.7918 2.53514 55.5284 2.74292 56.1827 3.18356C56.4866 3.38776 56.8084 3.59555 57.0373 3.87498C57.5236 4.4625 57.8489 5.14675 57.9776 5.90982C57.9848 5.95639 57.9812 6.00654 57.9812 6.05311C57.9812 6.65139 57.9741 7.24607 57.9848 7.84434C57.9955 8.59666 57.7131 9.2415 57.2804 9.83261C57.1517 10.0081 57.0158 10.1765 56.88 10.3485C57.3448 10.9396 57.7488 11.5594 57.924 12.3009C57.9562 12.4371 57.9776 12.5804 57.9776 12.7201C57.9848 13.3219 57.9812 13.9274 57.9812 14.5292C57.9777 15.0917 57.7881 15.6004 57.5164 16.0804C57.2411 16.564 56.8728 16.9725 56.4688 17.3414C56.0933 17.6854 55.6321 17.886 55.1387 17.9863C54.681 18.0794 54.209 18.1117 53.7442 18.1726C53.7013 18.1797 53.662 18.1977 53.6226 18.212C51.1341 18.2156 48.6455 18.2156 46.1533 18.2156ZM48.624 15.8189C48.7063 15.8189 48.7706 15.8189 48.835 15.8189C50.4261 15.8189 52.0172 15.8225 53.6048 15.8153C53.8193 15.8153 54.041 15.7938 54.2484 15.7401C54.8812 15.5789 55.3496 15.2063 55.4712 14.5435C55.5892 13.8951 55.582 13.2359 55.3854 12.5983C55.1994 11.9928 54.681 11.5773 54.0016 11.5808C52.2818 11.5844 50.5584 11.5808 48.8386 11.5808C48.7706 11.5808 48.6991 11.5808 48.624 11.5808C48.624 13.0031 48.624 14.3967 48.624 15.8189ZM48.6276 4.99271C48.6276 6.39345 48.6276 7.76911 48.6276 9.15911C48.7098 9.15911 48.7813 9.15911 48.8529 9.15911C50.376 9.15911 51.9028 9.15911 53.426 9.15911C53.6691 9.15911 53.9123 9.15194 54.1518 9.1197C54.6202 9.0588 55.035 8.88326 55.2817 8.4462C55.4247 8.19543 55.4712 7.91241 55.4998 7.62223C55.5606 7.02396 55.557 6.42927 55.3425 5.85966C55.1923 5.45484 54.9027 5.15392 54.4665 5.07152C54.1339 5.00704 53.7871 4.99629 53.4439 4.99271C51.9135 4.98554 50.3832 4.98912 48.8529 4.98912C48.7813 4.99271 48.7098 4.99271 48.6276 4.99271Z" fill="#888888"/>
<path d="M87.915 18.2157C87.915 17.7142 87.9186 17.2126 87.9186 16.7111C87.9186 12.0718 87.9186 7.43253 87.9186 2.79324C87.9186 2.72159 87.9186 2.65353 87.9186 2.56396C87.9866 2.56396 88.0402 2.56396 88.0902 2.56396C88.7767 2.56396 89.4597 2.56396 90.1462 2.56396C90.257 2.56396 90.325 2.58904 90.3893 2.69293C91.0365 3.72468 91.6908 4.75285 92.3416 5.78459C93.1997 7.14593 94.0578 8.51084 94.916 9.87218C95.6954 11.1045 96.4749 12.3369 97.2722 13.6015C97.2722 9.91159 97.2722 6.25031 97.2722 2.57829C98.0803 2.57829 98.8669 2.57829 99.6714 2.57829C99.6714 2.65711 99.6714 2.73234 99.6714 2.81115C99.6714 7.86242 99.6714 12.9137 99.6714 17.965C99.6714 18.0473 99.675 18.1333 99.675 18.2157C98.8991 18.2157 98.1268 18.2157 97.3509 18.2157C97.333 18.1656 97.3259 18.1118 97.2973 18.0688C97.0613 17.6963 96.8253 17.3273 96.5857 16.9583C95.8527 15.8226 95.1162 14.687 94.3868 13.5478C93.5465 12.2366 92.7063 10.9254 91.866 9.61424C91.5228 9.07687 91.1759 8.5395 90.8291 8.00572C90.6754 7.76928 90.518 7.53642 90.3357 7.26415C90.3357 7.36804 90.3357 7.42178 90.3357 7.47551C90.3357 11.0007 90.3357 14.5294 90.3357 18.0545C90.3357 18.1082 90.3393 18.162 90.3393 18.2157C89.5348 18.2157 88.7267 18.2157 87.915 18.2157Z" fill="#888888"/>
<path d="M101.824 18.2156C101.824 18.1367 101.828 18.0615 101.828 17.9827C101.828 12.9135 101.828 7.84793 101.828 2.77875C101.828 2.70351 101.828 2.6247 101.828 2.52797C101.91 2.52797 101.982 2.52797 102.049 2.52797C104.67 2.52797 107.291 2.52081 109.912 2.53156C110.677 2.53514 111.371 2.78949 111.989 3.24447C112.401 3.54898 112.783 3.89289 113.034 4.33712C113.38 4.94972 113.656 5.59456 113.656 6.32896C113.649 9.07313 113.656 11.8209 113.652 14.565C113.652 15.0809 113.484 15.5645 113.223 15.998C112.994 16.3778 112.744 16.7539 112.451 17.0835C112.158 17.4131 111.771 17.6388 111.36 17.8107C110.806 18.0364 110.234 18.169 109.633 18.1726C109.605 18.1726 109.576 18.1977 109.547 18.212C106.973 18.2156 104.399 18.2156 101.824 18.2156ZM104.291 15.8189C104.381 15.8189 104.452 15.8189 104.524 15.8189C106.133 15.8189 107.742 15.8189 109.351 15.8189C109.508 15.8189 109.673 15.8153 109.826 15.7795C110.173 15.7007 110.506 15.5645 110.738 15.2851C111.028 14.9412 111.156 14.522 111.16 14.0778C111.167 11.6525 111.164 9.23076 111.16 6.80543C111.16 6.59048 111.139 6.36837 111.085 6.15701C110.953 5.63038 110.677 5.21124 110.119 5.08227C109.819 5.0142 109.501 4.99271 109.19 4.99271C107.624 4.98554 106.054 4.98912 104.488 4.98912C104.424 4.98912 104.363 4.98912 104.295 4.98912C104.291 8.61099 104.291 12.2042 104.291 15.8189Z" fill="#888888"/>
<path d="M64.3526 18.2156C64.2954 18.2013 64.2346 18.1798 64.1774 18.1762C63.2156 18.1332 62.311 17.9039 61.5422 17.2949C61.3313 17.1266 61.1489 16.9152 60.9809 16.7002C60.6233 16.2309 60.3301 15.7258 60.23 15.1311C60.1764 14.8051 60.1084 14.4791 60.1084 14.1531C60.0977 11.6418 60.087 9.12693 60.112 6.61562C60.1192 5.67344 60.3802 4.77782 60.9916 4.02909C61.4636 3.45231 62.0464 3.00092 62.7794 2.80747C63.3622 2.64984 63.9521 2.54237 64.5707 2.5567C65.7006 2.58536 66.834 2.57103 67.9675 2.56386C68.7934 2.5567 69.5157 2.8433 70.17 3.32693C70.4024 3.4953 70.6348 3.67084 70.8458 3.8643C71.1962 4.1903 71.4214 4.60587 71.6074 5.04293C71.8004 5.4979 71.8648 5.97795 71.8648 6.47233C71.8612 9.0911 71.8577 11.7135 71.8648 14.3322C71.8648 15.038 71.6717 15.6792 71.282 16.256C70.8494 16.8973 70.3631 17.4955 69.6158 17.7893C69.2654 17.9254 68.8935 18.0222 68.5252 18.0974C68.2321 18.1547 67.9281 18.1511 67.6278 18.1762C67.5992 18.1798 67.5706 18.2013 67.542 18.2156C66.4729 18.2156 65.4145 18.2156 64.3526 18.2156ZM69.4334 10.5527C69.4334 9.48876 69.437 8.42835 69.4299 7.36436C69.4263 7.05268 69.4084 6.73743 69.3548 6.42934C69.2654 5.9063 68.9793 5.51581 68.5074 5.26145C68.1105 5.05009 67.6778 5.0071 67.2452 4.99635C66.4586 4.97486 65.672 4.98561 64.8854 4.99277C64.5671 4.99635 64.2453 5.01068 63.9343 5.068C63.423 5.15756 63.0261 5.42267 62.7794 5.89913C62.6077 6.2323 62.5291 6.59055 62.5291 6.94879C62.5291 9.35979 62.5398 11.7672 62.5684 14.1782C62.572 14.4576 62.6828 14.755 62.8187 15.0057C63.1333 15.5897 63.6768 15.8154 64.3204 15.819C65.411 15.8225 66.5015 15.8225 67.592 15.8154C67.8066 15.8154 68.0282 15.7939 68.2392 15.7401C68.7291 15.6183 69.1259 15.3568 69.2868 14.8517C69.3691 14.5938 69.4263 14.3143 69.4299 14.0421C69.4442 12.8813 69.4334 11.717 69.4334 10.5527Z" fill="#888888"/>
<path d="M78.261 18.2157C78.2038 18.2013 78.143 18.1798 78.0858 18.1763C77.0918 18.1333 76.1622 17.8897 75.372 17.2556C75.2039 17.1194 75.0609 16.9439 74.9251 16.7755C74.4674 16.2166 74.1563 15.5861 74.0562 14.8661C74.0097 14.5436 73.9847 14.2176 73.9811 13.8952C73.9775 10.1945 73.9775 6.49385 73.9775 2.78959C73.9775 2.71078 73.9775 2.63554 73.9775 2.5424C74.7963 2.5424 75.608 2.5424 76.4339 2.5424C76.4339 2.62121 76.4339 2.69645 76.4339 2.77526C76.4339 6.51893 76.4304 10.2626 76.4411 14.0063C76.4411 14.5293 76.5698 15.038 76.981 15.4142C77.2313 15.6435 77.5316 15.7796 77.8713 15.7832C79.2407 15.7903 80.6137 15.8047 81.9832 15.7796C82.709 15.7653 83.2024 15.2745 83.3061 14.558C83.3419 14.3179 83.3455 14.0743 83.3455 13.8307C83.349 10.148 83.3455 6.46519 83.3455 2.77884C83.3455 2.70361 83.3455 2.6248 83.3455 2.53882C84.1571 2.53882 84.9509 2.53882 85.7661 2.53882C85.7661 2.60689 85.7661 2.67137 85.7661 2.73585C85.7661 6.45445 85.7732 10.173 85.7625 13.8952C85.7589 14.8195 85.5587 15.7008 85.0224 16.4817C84.6827 16.9797 84.2894 17.4204 83.7495 17.6998C83.3312 17.9147 82.8806 18.0437 82.4122 18.1046C82.119 18.1404 81.8258 18.1548 81.5327 18.1798C81.5041 18.1834 81.4754 18.2049 81.4468 18.2192C80.3813 18.2157 79.323 18.2157 78.261 18.2157Z" fill="#888888"/>
<path d="M116.842 4.02891C116.745 4.24028 116.67 4.46955 116.549 4.66659C116.252 5.13947 115.497 5.34009 114.975 5.13947C114.346 4.89587 114.035 4.30476 114.06 3.77098C114.089 3.08314 114.643 2.5207 115.258 2.45263C115.719 2.40248 116.105 2.52786 116.427 2.83237C116.624 3.01508 116.76 3.2551 116.802 3.53453C116.806 3.55961 116.827 3.58111 116.842 3.6026C116.842 3.74232 116.842 3.88561 116.842 4.02891ZM114.3 3.83188C114.253 4.46239 114.857 5.01767 115.451 4.99976C116.152 4.97468 116.602 4.48388 116.62 3.83546C116.634 3.19778 116.112 2.67116 115.465 2.65683C114.825 2.6425 114.242 3.22644 114.3 3.83188Z" fill="#888888"/>
<path d="M23.0835 11.7278C23.0835 13.8881 23.0835 16.0196 23.0835 18.1619C22.1359 18.1619 21.1991 18.1619 20.248 18.1619C20.248 12.9351 20.248 7.70474 20.248 2.45644C20.3231 2.45644 20.3911 2.45644 20.4626 2.45644C22.8653 2.45644 25.2645 2.44928 27.6673 2.46002C28.2537 2.46361 28.8329 2.5675 29.3979 2.73229C29.9628 2.8935 30.4813 3.13353 30.9497 3.49177C31.3823 3.82494 31.7148 4.23692 31.9866 4.70264C32.2798 5.20419 32.4514 5.75589 32.5193 6.32908C32.6373 7.33575 32.5551 8.32093 32.0867 9.23803C31.7041 9.99035 31.1177 10.5456 30.374 10.9361C30.1738 11.0436 29.9664 11.1403 29.7447 11.2478C30.6529 13.5442 31.5647 15.8477 32.4836 18.1691C32.1475 18.1691 31.8364 18.1691 31.5217 18.1691C30.8853 18.1691 30.2453 18.1655 29.6088 18.1727C29.5016 18.1727 29.4479 18.1476 29.405 18.033C29.0868 17.166 28.7543 16.3026 28.4253 15.4393C28.0749 14.515 27.7245 13.5907 27.3777 12.6664C27.2811 12.4157 27.1918 12.1613 27.1024 11.907C27.0559 11.7816 26.9987 11.7135 26.8378 11.7135C25.6507 11.7243 24.4672 11.7171 23.2801 11.7171C23.2229 11.7278 23.1621 11.7278 23.0835 11.7278ZM23.0942 9.44224C23.1693 9.44224 23.2336 9.44224 23.298 9.44224C24.3707 9.44224 25.4433 9.45656 26.5124 9.43507C26.9379 9.42791 27.3705 9.37775 27.7853 9.29177C28.5076 9.14131 29.0689 8.75082 29.38 8.05941C29.5588 7.65817 29.6124 7.23544 29.5731 6.79122C29.5159 6.1607 29.2405 5.65558 28.74 5.27942C28.2251 4.8961 27.628 4.73847 26.9915 4.73847C25.7651 4.73847 24.5387 4.73847 23.3123 4.73847C23.2444 4.73847 23.1728 4.73847 23.0978 4.73847C23.0942 6.31475 23.0942 7.86237 23.0942 9.44224Z" fill="#888888"/>
<path d="M44.0648 18.1763C43.9933 18.1763 43.929 18.1763 43.8646 18.1763C42.0232 18.1763 40.1818 18.1942 38.3404 18.1691C37.4572 18.1548 36.5919 17.9864 35.7946 17.5708C35.0544 17.1875 34.4824 16.6322 34.0855 15.8907C33.7494 15.2566 33.5313 14.5867 33.4633 13.8737C33.4025 13.2504 33.3453 12.6199 33.3596 11.9965C33.3847 11.0078 33.5491 10.0334 33.9925 9.13058C34.4573 8.18481 35.1832 7.50772 36.1629 7.11365C36.7278 6.88796 37.3106 6.74824 37.9185 6.72316C38.394 6.70167 38.8696 6.66584 39.3415 6.6945C40.1568 6.74466 40.9541 6.91303 41.6871 7.30352C42.5774 7.77999 43.1924 8.50365 43.5678 9.43867C43.8002 10.0119 43.9576 10.6065 43.9933 11.2263C44.0362 11.9965 44.0648 12.7668 44.097 13.5549C41.2687 13.5549 38.4905 13.5549 35.6551 13.5549C35.766 13.8917 35.8375 14.2033 35.9698 14.4899C36.3166 15.2422 36.9423 15.6507 37.729 15.8154C38.0436 15.8799 38.369 15.9229 38.6908 15.9229C40.407 15.9337 42.1233 15.9265 43.8396 15.9265C43.9111 15.9265 43.979 15.9265 44.0577 15.9265C44.0648 16.6824 44.0648 17.4204 44.0648 18.1763ZM41.7407 11.298C41.7085 11.1511 41.6835 11.0257 41.6513 10.9003C41.5012 10.3056 41.2115 9.79691 40.7002 9.44583C40.1889 9.09475 39.599 8.95504 38.9875 8.94071C38.63 8.93354 38.2653 8.9622 37.9113 9.00877C37.0246 9.13416 36.3416 9.5748 35.9626 10.4059C35.8375 10.6818 35.7731 10.9863 35.673 11.298C37.7182 11.298 39.7098 11.298 41.7407 11.298Z" fill="#888888"/>
<path d="M12.4539 7.83746C12.9116 8.29243 13.3586 8.74024 13.827 9.20954C11.8997 9.729 10.0011 10.2413 8.08105 10.7572C8.58878 8.83338 9.08936 6.92035 9.59351 5.00732C10.0476 5.47304 10.4981 5.93518 10.9737 6.42239C12.6828 4.69206 14.3526 3.00473 16.0295 1.30664C16.2619 1.54308 16.4836 1.77236 16.7124 1.99447C16.9234 2.20226 17.1379 2.40646 17.3596 2.60707C17.4526 2.69305 17.4561 2.76112 17.356 2.83635C17.3524 2.83993 17.3489 2.84351 17.3417 2.85068C15.9616 4.24426 14.585 5.63425 13.2084 7.03141C12.9545 7.28576 12.715 7.55803 12.4539 7.83746Z" fill="#888888"/>
<path d="M115.157 3.95416C115.157 4.18702 115.157 4.40197 115.157 4.62408C115.064 4.62408 114.982 4.62408 114.893 4.62408C114.893 4.08672 114.893 3.55293 114.893 2.97974C115.218 3.00123 115.543 3.00123 115.862 3.0478C116.058 3.07646 116.169 3.37381 116.09 3.60308C116.065 3.67473 116.03 3.73922 116.019 3.76429C116.065 4.07239 116.108 4.34465 116.151 4.61692C115.876 4.67066 115.869 4.66349 115.847 4.40914C115.84 4.31599 115.844 4.2121 115.804 4.13329C115.769 4.06164 115.686 3.97924 115.611 3.96491C115.472 3.93267 115.325 3.95416 115.157 3.95416ZM115.164 3.71056C115.293 3.71056 115.4 3.71056 115.508 3.71056C115.533 3.71056 115.554 3.71056 115.579 3.71056C115.715 3.69981 115.858 3.58159 115.844 3.47412C115.826 3.32723 115.722 3.26992 115.579 3.2735C115.443 3.27708 115.311 3.2735 115.168 3.2735C115.164 3.42396 115.164 3.56009 115.164 3.71056Z" fill="#888888"/>
</svg>
