<svg width="183" height="36" viewBox="0 0 183 36" fill="none" xmlns="http://www.w3.org/2000/svg">
<path d="M145.019 11.6216H147.198V16.8875H152.645V11.6216H155.006V23.9692H152.645V18.8849H147.198V23.9692H145.019V11.6216Z" fill="#888888"/>
<path d="M69.8433 11.6216H78.9224V13.619H72.3854V17.0691H76.925V19.0665H72.3854V21.9718H78.9224V23.9692H69.8433V11.6216Z" fill="#888888"/>
<path d="M159 11.6216H168.08V13.619H161.543V17.0691H166.082V19.0665H161.543V21.9718H168.08V23.9692H159V11.6216Z" fill="#888888"/>
<path d="M55.6797 11.6216H58.2218L61.3088 20.7007H61.4903L64.5772 11.6216H67.301L62.7614 23.9692H60.2193L55.6797 11.6216Z" fill="#888888"/>
<path d="M42.9692 11.6216H45.8746L48.9615 17.0691L52.0484 11.6216H54.5905L50.051 19.0665V23.9692H47.6904V19.0665L42.9692 11.6216Z" fill="#888888"/>
<path d="M81.2832 20.156H83.8254C84.0069 20.8823 84.1885 21.2455 84.7333 21.6086C85.278 21.9718 85.8228 22.1534 86.7307 22.1534C87.457 22.1534 88.0018 21.9718 88.5465 21.7902C88.9097 21.6086 89.0913 21.0639 89.0913 20.7007C89.0913 19.9744 88.0018 19.4296 85.6412 18.8849H85.4596C84.1885 18.7033 83.4622 18.3401 82.9175 17.977C82.3727 17.6138 82.1911 17.2507 81.828 16.8875C81.6464 16.3427 81.4648 15.798 81.4648 15.2532C81.4648 13.9822 81.828 13.0742 82.7359 12.5295C83.6438 11.9847 84.7333 11.6216 86.3675 11.6216C87.8202 11.6216 89.0913 11.9847 89.8176 12.7111C90.7255 13.4374 91.0887 14.3453 91.0887 15.6164H88.5465C88.5465 15.0717 88.1834 14.5269 87.8202 14.3453C87.457 13.9822 86.7307 13.8006 86.0044 13.8006C85.278 13.8006 84.7333 13.9822 84.3701 14.1637C84.0069 14.3453 83.8254 14.7085 83.8254 15.2532C83.8254 15.9796 84.5517 16.3427 86.0044 16.7059C86.3675 16.7059 86.7307 16.8875 86.9123 16.8875C87.8202 17.0691 88.5465 17.2507 88.9097 17.4322C89.2729 17.6138 89.636 17.6138 89.9992 17.7954C90.5439 18.1586 90.9071 18.5217 91.0887 18.8849C91.2703 19.4296 91.4518 19.9744 91.4518 20.5191C91.4518 21.7902 91.0887 22.6981 90.1808 23.4245C89.2729 24.1508 88.0018 24.514 86.3675 24.514C84.7333 24.514 83.4622 24.1508 82.5543 23.4245C81.828 22.5166 81.4648 21.4271 81.2832 20.156Z" fill="#888888"/>
<path d="M100.894 23.9692V11.6216H106.16C107.613 11.6216 108.521 11.8032 109.247 11.9847C109.792 12.1663 110.336 12.5295 110.7 13.2558C111.063 13.8006 111.244 14.5269 111.426 15.2532C111.426 15.9796 111.063 17.2507 110.518 17.7954C110.155 18.3401 109.61 18.7033 108.884 18.8849L111.607 23.9692H108.884L106.342 19.0665H103.073V23.9692H100.894ZM103.073 17.2507H105.434C106.705 17.2507 107.431 17.2506 107.794 17.0691C108.702 16.7059 108.884 15.9796 108.884 15.2532C108.884 14.8901 108.702 14.5269 108.339 14.1637C108.157 13.9822 107.794 13.8006 107.431 13.619C107.249 13.619 106.523 13.619 105.434 13.619H103.073V17.2507Z" fill="#888888"/>
<path d="M171.711 23.9692V11.6216H176.977C178.43 11.6216 179.338 11.8032 180.064 11.9847C180.609 12.1663 181.154 12.5295 181.517 13.2558C181.88 13.8006 182.062 14.5269 182.243 15.2532C182.243 15.9796 181.88 17.2507 181.335 17.7954C180.791 18.3401 180.427 18.7033 179.701 18.8849L182.425 23.9692H179.701L177.159 19.0665H173.89V23.9692H171.711ZM173.89 17.2507H176.251C177.522 17.2507 178.248 17.2506 178.612 17.0691C179.519 16.7059 179.701 15.9796 179.701 15.2532C179.701 14.8901 179.519 14.5269 179.156 14.1637C178.975 13.9822 178.612 13.8006 178.248 13.619C178.067 13.619 177.34 13.619 176.251 13.619H173.89V17.2507Z" fill="#888888"/>
<path fill-rule="evenodd" clip-rule="evenodd" d="M120.323 13.6188C122.502 13.6188 124.5 15.4346 124.5 17.7952C124.5 19.9742 122.684 21.9716 120.323 21.9716C118.144 21.9716 116.147 20.1558 116.147 17.7952C116.147 15.4346 117.963 13.6188 120.323 13.6188ZM120.323 11.0767C123.955 11.0767 126.86 13.982 126.86 17.6136C126.86 21.2453 123.955 24.1506 120.323 24.1506C116.692 24.1506 113.786 21.2453 113.786 17.6136C113.605 14.1636 116.692 11.0767 120.323 11.0767Z" fill="#888888"/>
<path fill-rule="evenodd" clip-rule="evenodd" d="M139.571 15.4347H142.113C141.205 12.8925 139.026 11.2582 136.121 11.0767C132.671 10.8951 129.584 13.2557 129.402 17.2505C129.039 21.0637 131.944 23.7875 135.576 23.969C139.026 24.1506 141.568 22.1532 142.295 19.4295H139.753C137.21 23.4243 131.763 21.7901 131.944 17.0689C131.944 14.5267 133.76 13.0741 135.939 13.0741C137.21 13.4372 138.481 14.3452 139.571 15.4347Z" fill="#888888"/>
<path fill-rule="evenodd" clip-rule="evenodd" d="M18.4553 0C28.2608 0 36.0689 7.98964 36.0689 17.6135C36.0689 27.419 28.0792 35.2271 18.4553 35.2271C8.83144 35.4087 0.841797 27.419 0.841797 17.6135C0.841797 7.98964 8.83144 0 18.4553 0ZM18.4553 2.54216C26.8081 2.54216 33.7083 9.44231 33.7083 17.7951C33.7083 26.1479 26.8081 33.0481 18.4553 33.0481C10.1025 33.0481 3.20237 26.1479 3.20237 17.7951C3.38396 9.26073 10.1025 2.54216 18.4553 2.54216Z" fill="#888888"/>
<path fill-rule="evenodd" clip-rule="evenodd" d="M5.92615 15.0709C5.01823 22.879 8.64989 27.9633 15.0053 29.9607C14.8237 27.4186 15.1869 24.5132 14.4605 21.7895C13.7342 18.8842 10.1026 14.8893 5.92615 15.0709Z" fill="#888888"/>
<path fill-rule="evenodd" clip-rule="evenodd" d="M27.8976 26.3295C24.9923 29.4164 21.5422 30.6875 17.5474 30.3243V19.0662C18.2737 14.345 20.8159 12.166 23.7212 10.7134C24.2659 14.7082 22.0869 17.7951 17.7289 20.3373C20.2711 24.1505 23.5396 26.1479 27.8976 26.3295Z" fill="#888888"/>
<path fill-rule="evenodd" clip-rule="evenodd" d="M25.9004 7.44482C26.8083 14.1634 25.174 18.703 21.1792 21.0635C23.3582 23.4241 26.2635 24.1504 29.7136 23.9689C32.8005 17.795 31.1663 11.4396 25.9004 7.44482Z" fill="#888888"/>
<path fill-rule="evenodd" clip-rule="evenodd" d="M15.1869 17.795C12.8263 14.345 10.1025 12.8923 7.01562 12.5291C11.0104 4.53948 19.7264 2.90524 25.9002 7.26322C19.1817 9.6238 15.9132 12.7107 15.1869 17.795Z" fill="#888888"/>
</svg>
