<svg width="157" height="158" viewBox="0 0 157 158" fill="none" xmlns="http://www.w3.org/2000/svg">
<path d="M76.986 98.1592L137.524 63.2005L76.986 28.2622L16.4482 63.2005L76.986 98.1592Z" fill="#E8A052"/>
<path d="M76.986 98.1387L137.544 63.18L77.0064 28.2417L76.986 98.1387Z" fill="#C67832"/>
<path d="M116.839 93.9198L133.039 84.3558V73.4197L116.839 82.9632V93.9198Z" fill="#A17B51"/>
<path d="M137.217 63.1798L157 50.7077L96.2164 14.6226L76.6788 28.2415L137.217 63.1798Z" fill="#E7B67B"/>
<path d="M76.986 28.2621L60.6433 17.3875L0.55603 52.2028L16.4482 63.2004L76.986 28.2621Z" fill="#E7B67B"/>
<path d="M123.659 66.129V81.5502V86.3834V101.805L87.4921 122.694V107.273V80.9153V65.4941L123.659 66.129Z" fill="#098A30"/>
<path d="M70.8217 55.9709V65.8012L87.4921 65.494V80.9151V107.272V122.694L70.8217 113.068V113.171L34.6342 92.2813V76.8602V72.027V56.6058L70.8217 55.9709Z" fill="#24CA56"/>
<path d="M34.5317 56.647L70.8216 35.6963L123.761 66.17L87.4921 87.1207L34.5317 56.647Z" fill="#1AB248"/>
<path d="M137.36 63.1594V88.8818V96.9508V122.694L76.986 157.53V131.807V98.1591L137.36 63.1594Z" fill="#D8A05E"/>
<path d="M76.986 98.1591V131.807V157.53L16.6121 122.694V96.9508V88.8818V63.1594L76.986 98.1591Z" fill="#E7B67B"/>
<path d="M76.986 98.1592L62.2202 108.399L0.55603 73.4403L16.4482 63.2004L76.986 98.1592Z" fill="#E7B67B"/>
<path d="M137.524 63.2004L154.051 74.7919L90.6868 112.065L76.986 98.1592L137.524 63.2004Z" fill="#E7B67B"/>
<path d="M39.2831 129.186L49.7891 135.309V122.141L39.2831 115.997V129.186Z" stroke="#92642E" stroke-width="0.8" stroke-miterlimit="10" stroke-linecap="round" stroke-linejoin="round"/>
<path d="M28.7975 123.042L39.2831 129.186V115.997L28.7975 109.874V123.042Z" stroke="#92642E" stroke-width="0.8" stroke-miterlimit="10" stroke-linecap="round" stroke-linejoin="round"/>
<path d="M18.2914 116.918L28.7974 123.042V109.873L18.2914 103.729V116.918Z" stroke="#92642E" stroke-width="0.8" stroke-miterlimit="10" stroke-linecap="round" stroke-linejoin="round"/>
<path d="M23.4114 111.02V117.697" stroke="#92642E" stroke-width="0.8" stroke-miterlimit="10" stroke-linecap="round" stroke-linejoin="round"/>
<path d="M24.7425 113.519L23.4113 110.365L22.1416 112.003" stroke="#92642E" stroke-width="0.8" stroke-miterlimit="10" stroke-linecap="round" stroke-linejoin="round"/>
<path d="M37.0507 121.69C37.0507 121.69 36.9892 118.045 34.5931 116.652C32.2175 115.259 32.0127 118.741 32.0127 118.741L37.0507 121.69Z" stroke="#92642E" stroke-width="0.8" stroke-miterlimit="10" stroke-linecap="round" stroke-linejoin="round"/>
<path d="M42.0273 120.973C42.0273 120.973 42.0888 124.619 44.4849 126.011C46.8605 127.404 47.0653 123.922 47.0653 123.922L42.0273 120.973Z" stroke="#92642E" stroke-width="0.8" stroke-miterlimit="10" stroke-linecap="round" stroke-linejoin="round"/>
<path d="M34.675 121.301V124.004C34.675 124.496 34.3678 124.701 33.9582 124.475C33.5691 124.25 33.2415 123.656 33.2415 123.165V122.776" stroke="#92642E" stroke-width="0.8" stroke-miterlimit="10" stroke-linecap="round" stroke-linejoin="round"/>
<path d="M44.4644 126.011V130.005" stroke="#92642E" stroke-width="0.8" stroke-miterlimit="10" stroke-linecap="round" stroke-linejoin="round"/>
<path d="M46.1438 131.193L42.7852 129.247" stroke="#92642E" stroke-width="0.8" stroke-miterlimit="10" stroke-linecap="round" stroke-linejoin="round"/>
<path d="M44.4233 65.9241V69.5286L38.6276 66.3133V62.6064L44.4233 65.9241Z" fill="white"/>
<path d="M53.9874 45.4036L106.866 76.0206" stroke="#188B3B" stroke-miterlimit="10" stroke-linecap="round" stroke-linejoin="round"/>
<path d="M76.986 98.1591V109.116L87.6763 120.216L137.524 92.261L137.892 84.2944L90.6868 112.065L76.986 98.1591Z" fill="#B88243"/>
<path d="M16.4482 82.4512L62.2202 108.399L76.986 98.1591V109.116L64.6778 117.471L16.6121 92.1995L16.4482 82.4512Z" fill="#D8A05E"/>
</svg>
