<svg width="47" height="41" viewBox="0 0 47 41" fill="none" xmlns="http://www.w3.org/2000/svg">
<path d="M45.9999 5.71714C45.9999 5.71222 45.9992 5.7073 45.9991 5.70229C45.9985 5.68269 45.9974 5.66335 45.9951 5.64419C45.9942 5.63716 45.9929 5.63013 45.9919 5.6231C45.9892 5.60543 45.986 5.58803 45.9819 5.57098C45.9804 5.56421 45.9786 5.55753 45.9767 5.55076C45.9717 5.53222 45.9659 5.51402 45.9592 5.4961C45.9579 5.49267 45.9571 5.48915 45.9558 5.48581L44.1677 0.9083C43.9874 0.44705 43.5509 0.148926 43.0556 0.148926H39.7998C39.4449 0.148926 39.1572 0.436591 39.1572 0.791493C39.1572 1.14639 39.4449 1.43406 39.7998 1.43406H42.9934L44.4164 5.07703H30.9627L30.1197 1.43406H42.0884C42.4433 1.43406 42.731 1.14639 42.731 0.791493C42.731 0.436591 42.4433 0.148926 42.0884 0.148926H29.3115H22.8369H9.09264C8.59729 0.148926 8.16082 0.44705 7.98056 0.908475L6.19243 5.48581C6.19111 5.48924 6.19041 5.49276 6.18909 5.4961C6.18241 5.51394 6.17661 5.53213 6.17151 5.55076C6.16967 5.55753 6.16791 5.56421 6.16633 5.57098C6.16228 5.58812 6.15903 5.60552 6.15639 5.6231C6.15534 5.63013 6.15402 5.63716 6.15314 5.64419C6.15095 5.66335 6.14971 5.68269 6.14919 5.70229C6.1491 5.70721 6.14848 5.71213 6.1484 5.71714L6.14831 5.71951V15.1598C6.14831 15.5147 6.43597 15.8024 6.79088 15.8024C7.14578 15.8024 7.43344 15.5147 7.43344 15.1598V6.36217H21.054V16.1293C21.054 16.5112 21.279 16.8593 21.6273 17.016C21.7548 17.0734 21.8906 17.1014 22.0255 17.1014C22.259 17.1014 22.4899 17.0176 22.6709 16.8571L26.0741 13.8421L29.4773 16.857C29.7631 17.1104 30.1728 17.1727 30.5211 17.016C30.8693 16.8592 31.0943 16.5112 31.0943 16.1293V6.36217H44.7148V35.1835C44.7148 35.6446 44.3396 36.0198 43.8785 36.0198H32.0966C32.0966 36.0125 32.0957 36.0052 32.0956 35.9979C32.0949 35.9402 32.0928 35.8826 32.0879 35.8255C33.1941 36.1188 34.3762 35.5502 34.8195 34.463C35.0527 33.8911 35.0492 33.2627 34.8097 32.6935C34.7872 32.6399 34.7623 32.5879 34.7361 32.5367C34.7313 32.5273 34.7266 32.5178 34.7218 32.5084C34.696 32.4596 34.6686 32.4119 34.6397 32.3654C34.634 32.3563 34.6282 32.3475 34.6225 32.3386C34.5919 32.2908 34.5602 32.244 34.5264 32.1989L34.5244 32.1964C34.4909 32.1519 34.4554 32.109 34.4187 32.0671C34.412 32.0594 34.4054 32.0517 34.3987 32.044C34.3624 32.0036 34.3247 31.9645 34.2856 31.9268C34.278 31.9194 34.2703 31.9123 34.2625 31.9051C34.2217 31.8667 34.1798 31.8293 34.1362 31.7941L34.1318 31.7906C34.0889 31.7561 34.0443 31.7234 33.9989 31.6919C33.9907 31.6862 33.9826 31.6804 33.9743 31.6748C33.9288 31.6442 33.8822 31.6153 33.8344 31.5878C33.8305 31.5855 33.8269 31.5829 33.8228 31.5806C34.0944 31.3456 34.3088 31.0481 34.4483 30.7059C34.6815 30.134 34.6781 29.5056 34.4386 28.9363C34.229 28.4382 33.8607 28.0376 33.3889 27.7891C33.3215 27.7536 33.252 27.7211 33.1805 27.692L23.1797 23.6142L27.8349 22.1733C28.9424 21.8305 29.5662 20.6492 29.2254 19.5403C29.0982 19.1263 28.846 18.7772 28.5203 18.5221C28.0356 18.1423 27.3877 17.9708 26.7453 18.1057C26.7422 18.1064 26.7392 18.107 26.7361 18.1078C26.7005 18.1158 23.1318 18.9182 19.4047 19.645C19.2393 19.6772 19.0782 19.7083 18.9194 19.7389C18.7923 19.7634 18.667 19.7874 18.544 19.8108C18.5087 19.8176 18.4733 19.8243 18.4382 19.8309C18.2211 19.8722 18.0108 19.9116 17.8064 19.9496C17.7241 19.9649 17.6425 19.98 17.5623 19.9948C12.8815 20.8571 11.5666 20.8725 11.2017 20.8231L11.1976 20.8225C11.1921 20.8217 11.1866 20.8209 11.1815 20.8202C11.1778 20.8195 11.1744 20.8189 11.171 20.8184C11.1685 20.818 11.1659 20.8175 11.1635 20.8172C11.1408 20.813 11.123 20.8087 11.1093 20.8046L11.004 20.7617L11.1352 20.4399C11.2642 20.1235 11.2623 19.7758 11.1299 19.4609C11.0967 19.3822 11.0564 19.3078 11.0096 19.2386C10.8693 19.0309 10.671 18.8692 10.4337 18.7724L6.98239 17.3652C6.66607 17.2361 6.31829 17.2381 6.00338 17.3705C5.68838 17.503 5.44395 17.7502 5.31493 18.0665L1.09469 28.4168C0.828387 29.0699 1.14312 29.8179 1.79624 30.0842L5.24761 31.4916C5.40519 31.5558 5.56823 31.5862 5.72881 31.5862C6.23356 31.5862 6.71292 31.2854 6.91498 30.79L6.94671 30.7122L7.74247 31.0366L7.74387 31.0372C8.505 31.3476 9.20628 31.7904 9.81325 32.3399C9.92364 32.4398 10.0309 32.5432 10.1348 32.65C10.2388 32.7568 10.3394 32.867 10.4365 32.9804C10.485 33.0371 10.5327 33.0947 10.5794 33.1529C11.4638 34.2558 12.6233 35.1209 13.9322 35.6547L14.8275 36.0197H8.26981C7.80873 36.0197 7.43353 35.6445 7.43353 35.1834V33.5575C7.43353 33.2026 7.14587 32.9149 6.79096 32.9149C6.43606 32.9149 6.1484 33.2026 6.1484 33.5575V35.1834C6.1484 36.3531 7.09999 37.3048 8.26981 37.3048H17.9793L26.2569 40.68C26.5419 40.7962 26.8367 40.8513 27.127 40.8512C28.0392 40.8512 28.9056 40.3076 29.2708 39.4121C29.4206 39.0448 29.4686 38.6609 29.4283 38.2918C29.8589 38.3536 30.3053 38.2969 30.7099 38.1222C31.1212 37.9446 31.462 37.6616 31.704 37.3047H43.8786C45.0484 37.3047 46 36.3531 46 35.1833V5.7196L45.9999 5.71714ZM23.3477 1.43406H28.8006L29.6435 5.07703H22.5047L23.3477 1.43406ZM21.1857 5.07703H7.73183L9.15487 1.43406H22.0286L21.1857 5.07703ZM29.8094 15.4341L26.7189 12.6963C26.5351 12.5336 26.3047 12.4522 26.0743 12.4522C25.8439 12.4522 25.6133 12.5336 25.4295 12.6963L22.3392 15.4341V6.36217H29.8094V15.4341ZM5.72723 30.2992L2.28693 28.8965L6.50268 18.5575L9.94298 19.9603L5.72723 30.2992ZM31.3987 34.177L30.6612 33.8763L30.6602 33.8758L30.6591 33.8754L22.9787 30.7438C22.6502 30.6098 22.2752 30.7675 22.1411 31.0962C22.0071 31.4248 22.1649 31.7999 22.4936 31.9339L30.1741 35.0656C30.2062 35.0787 30.2372 35.0932 30.2672 35.1091C30.2756 35.1136 30.2835 35.1191 30.2917 35.1237C30.3128 35.1357 30.334 35.1476 30.354 35.1609C30.3635 35.1673 30.3723 35.1747 30.3816 35.1814C30.3993 35.194 30.4173 35.2065 30.434 35.2202C30.4441 35.2285 30.4533 35.2377 30.463 35.2463C30.478 35.2596 30.4933 35.2724 30.5073 35.2865C30.5171 35.2962 30.5258 35.3068 30.5351 35.3168C30.548 35.3307 30.5613 35.3443 30.5734 35.3589C30.5826 35.3701 30.5907 35.3819 30.5995 35.3934C30.6105 35.4079 30.6219 35.422 30.632 35.437C30.6406 35.4494 30.6479 35.4626 30.6558 35.4754C30.6649 35.4901 30.6746 35.5046 30.6829 35.5198C30.6905 35.5335 30.6968 35.5479 30.7038 35.5618C30.7111 35.5769 30.7191 35.5916 30.7258 35.607C30.7322 35.6218 30.7374 35.6371 30.7431 35.6521C30.7489 35.6673 30.7553 35.6823 30.7604 35.6977C30.7655 35.7133 30.7693 35.7292 30.7736 35.7449C30.7779 35.7605 30.7828 35.7758 30.7864 35.7915C30.79 35.8074 30.7923 35.8236 30.7952 35.8396C30.7981 35.8556 30.8014 35.8714 30.8035 35.8876C30.8056 35.9037 30.8064 35.9201 30.8077 35.9363C30.8091 35.9527 30.811 35.969 30.8115 35.9853C30.812 36.0014 30.8113 36.0176 30.8111 36.0338C30.8109 36.0505 30.8112 36.0672 30.8101 36.084C30.8091 36.0999 30.8068 36.1158 30.805 36.1317C30.8032 36.1489 30.8018 36.166 30.7989 36.1831C30.7964 36.1987 30.7924 36.2143 30.7892 36.2299C30.7855 36.2472 30.7824 36.2645 30.7778 36.2818C30.7737 36.297 30.7683 36.3121 30.7634 36.3272C30.758 36.3444 30.753 36.3616 30.7466 36.3786C30.7411 36.3903 30.7358 36.4021 30.7307 36.4139C30.7296 36.4167 30.729 36.4195 30.7279 36.4221C30.6276 36.6539 30.4423 36.838 30.2003 36.9425C29.934 37.0574 29.6291 37.0614 29.3637 36.9532L28.0029 36.3983C27.9966 36.3958 27.9901 36.394 27.9838 36.3916C27.9774 36.3887 27.9713 36.3854 27.9648 36.3827L21.7179 33.8356C21.3891 33.7016 21.0143 33.8593 20.8803 34.188C20.7463 34.5167 20.9041 34.8917 21.2327 35.0257L27.4796 37.5729C27.4863 37.5756 27.493 37.5775 27.4998 37.58C27.5059 37.5826 27.5115 37.5859 27.5177 37.5883C28.042 37.8022 28.2947 38.4026 28.0809 38.9269C27.8671 39.4513 27.2669 39.7041 26.7424 39.4901L18.3493 36.0678L18.3482 36.0673L14.4177 34.4646C13.7259 34.1825 13.0834 33.7909 12.5162 33.3092C12.1759 33.0201 11.8628 32.6987 11.5822 32.3489C11.3058 32.0043 11.0026 31.6829 10.6763 31.3875C9.95854 30.7377 9.12929 30.2142 8.22938 29.8471L7.4323 29.5222L9.01934 25.63L10.5191 21.9518L10.6298 21.9969C10.7339 22.0394 10.8824 22.0997 11.2822 22.1148C11.7816 22.1374 12.6077 22.0852 14.0878 21.8762C15.0946 21.7339 16.3295 21.5283 17.7712 21.263C17.8067 21.2565 17.842 21.25 17.8778 21.2434C17.9452 21.231 18.0133 21.2183 18.0817 21.2056C18.1349 21.1958 18.1883 21.1858 18.2422 21.1757C18.3036 21.1642 18.3652 21.1526 18.4272 21.141C18.4931 21.1286 18.5597 21.116 18.6266 21.1032C18.6803 21.0931 18.7338 21.0829 18.7879 21.0727C18.8696 21.0571 18.9526 21.0412 19.0359 21.0252C19.0788 21.0169 19.1213 21.0089 19.1645 21.0006C19.2922 20.976 19.4214 20.951 19.5531 20.9254C23.2674 20.203 26.8525 19.3989 27.0136 19.3627C27.0297 19.3593 27.0458 19.3574 27.0618 19.355C27.4746 19.2939 27.879 19.5326 27.9974 19.9178C28.0389 20.0531 28.0438 20.1912 28.0176 20.3211C27.96 20.607 27.7522 20.8537 27.4552 20.9456L21.0848 22.9173C20.8254 22.9976 20.6445 23.232 20.6328 23.5033C20.6211 23.7744 20.7808 24.0238 21.0322 24.1262L32.6956 28.8821C32.9496 28.9856 33.1481 29.1819 33.2544 29.4347C33.3608 29.6876 33.3624 29.9667 33.2587 30.2207C33.1551 30.4747 32.9589 30.6731 32.7061 30.7795C32.5797 30.8325 32.4467 30.8594 32.3136 30.8602L32.3078 30.86C32.2765 30.86 32.2453 30.8587 32.2141 30.8558C32.2048 30.855 32.1957 30.853 32.1865 30.852C32.1627 30.8491 32.1388 30.8463 32.1152 30.8418C32.1003 30.8389 32.0855 30.8345 32.0706 30.831C32.0529 30.8267 32.035 30.8231 32.0175 30.818C31.9993 30.8126 31.9814 30.8055 31.9635 30.7991C31.9493 30.794 31.9348 30.7897 31.9207 30.784L24.2394 27.652C23.9108 27.5179 23.5359 27.6757 23.4018 28.0044C23.2678 28.333 23.4256 28.7081 23.7543 28.8421L33.0667 32.6392C33.1302 32.6651 33.1903 32.6968 33.2463 32.7337C33.4142 32.8444 33.5458 33.0022 33.6255 33.1919C33.7186 33.4131 33.7314 33.6544 33.6637 33.8815C33.6541 33.9139 33.6427 33.9461 33.6298 33.9778C33.6165 34.0106 33.6016 34.0423 33.5853 34.0729C33.5475 34.1441 33.5013 34.2084 33.4498 34.267C33.4178 34.3034 33.3836 34.3374 33.3472 34.3685C33.3414 34.3734 33.3362 34.379 33.3303 34.3838C33.0958 34.5755 32.7823 34.658 32.476 34.5961C32.4138 34.5835 32.3521 34.5657 32.2912 34.5409L31.3987 34.177Z" fill="white"/>
<path d="M30.6602 33.8758L30.6612 33.8763L31.3987 34.177L32.2912 34.5409C32.3521 34.5657 32.4138 34.5835 32.476 34.5961C32.7823 34.658 33.0958 34.5755 33.3303 34.3838C33.3362 34.379 33.3414 34.3734 33.3472 34.3685C33.3836 34.3374 33.4178 34.3034 33.4498 34.267C33.5013 34.2084 33.5475 34.1441 33.5853 34.0729C33.6016 34.0423 33.6165 34.0106 33.6298 33.9778C33.6427 33.9461 33.6541 33.9139 33.6637 33.8815C33.7314 33.6544 33.7186 33.4131 33.6255 33.1919C33.5458 33.0022 33.4142 32.8444 33.2463 32.7337C33.1903 32.6968 33.1302 32.6651 33.0667 32.6392L23.7543 28.8421C23.4256 28.7081 23.2678 28.333 23.4018 28.0044C23.5359 27.6757 23.9108 27.5179 24.2394 27.652L31.9207 30.784C31.9348 30.7897 31.9493 30.794 31.9635 30.7991C31.9814 30.8055 31.9993 30.8126 32.0175 30.818C32.035 30.8231 32.0529 30.8267 32.0706 30.831C32.0855 30.8345 32.1003 30.8389 32.1152 30.8418C32.1388 30.8463 32.1627 30.8491 32.1865 30.852C32.1957 30.853 32.2048 30.855 32.2141 30.8558C32.2453 30.8587 32.2765 30.86 32.3078 30.86L32.3136 30.8602C32.4467 30.8594 32.5797 30.8325 32.7061 30.7795C32.9589 30.6731 33.1551 30.4747 33.2587 30.2207C33.3624 29.9667 33.3608 29.6876 33.2544 29.4347C33.1481 29.1819 32.9496 28.9856 32.6956 28.8821L21.0322 24.1262C20.7808 24.0238 20.6211 23.7744 20.6328 23.5033C20.6445 23.232 20.8254 22.9976 21.0848 22.9173L27.4552 20.9456C27.7522 20.8537 27.96 20.607 28.0176 20.3211C28.0438 20.1912 28.0389 20.0531 27.9974 19.9178C27.879 19.5326 27.4746 19.2939 27.0618 19.355C27.0458 19.3574 27.0297 19.3593 27.0136 19.3627C26.8525 19.3989 23.2674 20.203 19.5531 20.9254C19.4214 20.951 19.2922 20.976 19.1645 21.0006C19.1213 21.0089 19.0788 21.0169 19.0359 21.0252C18.9526 21.0412 18.8696 21.0571 18.7879 21.0727C18.7338 21.0829 18.6803 21.0931 18.6266 21.1032C18.5597 21.116 18.4931 21.1286 18.4272 21.141C18.3652 21.1526 18.3036 21.1642 18.2422 21.1757C18.1883 21.1858 18.1349 21.1958 18.0817 21.2056C18.0133 21.2183 17.9452 21.231 17.8778 21.2434C17.842 21.25 17.8067 21.2565 17.7712 21.263C16.3295 21.5283 15.0946 21.7339 14.0878 21.8762C12.6077 22.0852 11.7816 22.1374 11.2822 22.1148C10.8824 22.0997 10.7339 22.0394 10.6298 21.9969L10.5191 21.9518L9.01934 25.63L7.4323 29.5222L8.22938 29.8471M30.6602 33.8758V33.8758ZM30.6602 33.8758L30.6591 33.8754L22.9787 30.7438C22.6502 30.6098 22.2752 30.7675 22.1411 31.0962C22.0071 31.4248 22.1649 31.7999 22.4936 31.9339L30.1741 35.0656C30.2062 35.0787 30.2372 35.0932 30.2672 35.1091C30.2756 35.1136 30.2835 35.1191 30.2917 35.1237C30.3128 35.1357 30.334 35.1476 30.354 35.1609C30.3635 35.1673 30.3723 35.1747 30.3816 35.1814C30.3993 35.194 30.4173 35.2065 30.434 35.2202C30.4441 35.2285 30.4533 35.2377 30.463 35.2463C30.478 35.2596 30.4933 35.2724 30.5073 35.2865C30.5171 35.2962 30.5258 35.3068 30.5351 35.3168C30.548 35.3307 30.5613 35.3443 30.5734 35.3589C30.5826 35.3701 30.5907 35.3819 30.5995 35.3934C30.6105 35.4079 30.6219 35.422 30.632 35.437C30.6406 35.4494 30.6479 35.4626 30.6558 35.4754C30.6649 35.4901 30.6746 35.5046 30.6829 35.5198C30.6905 35.5335 30.6968 35.5479 30.7038 35.5618C30.7111 35.5769 30.7191 35.5916 30.7258 35.607C30.7322 35.6218 30.7374 35.6371 30.7431 35.6521C30.7489 35.6673 30.7553 35.6823 30.7604 35.6977C30.7655 35.7133 30.7693 35.7292 30.7736 35.7449C30.7779 35.7605 30.7828 35.7758 30.7864 35.7915C30.79 35.8074 30.7923 35.8236 30.7952 35.8396C30.7981 35.8556 30.8014 35.8714 30.8035 35.8876C30.8056 35.9037 30.8064 35.9201 30.8077 35.9363C30.8091 35.9527 30.811 35.969 30.8115 35.9853C30.812 36.0014 30.8113 36.0176 30.8111 36.0338C30.8109 36.0505 30.8112 36.0672 30.8101 36.084C30.8091 36.0999 30.8068 36.1158 30.805 36.1317C30.8032 36.1489 30.8018 36.166 30.7989 36.1831C30.7964 36.1987 30.7924 36.2143 30.7892 36.2299C30.7855 36.2472 30.7824 36.2645 30.7778 36.2818C30.7737 36.297 30.7683 36.3121 30.7634 36.3272C30.758 36.3444 30.753 36.3616 30.7466 36.3786C30.7411 36.3903 30.7358 36.4021 30.7307 36.4139C30.7296 36.4167 30.729 36.4195 30.7279 36.4221C30.6276 36.6539 30.4423 36.838 30.2003 36.9425C29.934 37.0574 29.6291 37.0614 29.3637 36.9532L28.0029 36.3983C27.9966 36.3958 27.9901 36.394 27.9838 36.3916C27.9774 36.3887 27.9713 36.3854 27.9648 36.3827L21.7179 33.8356C21.3891 33.7016 21.0143 33.8593 20.8803 34.188C20.7463 34.5167 20.9041 34.8917 21.2327 35.0257L27.4796 37.5729C27.4863 37.5756 27.493 37.5775 27.4998 37.58C27.5059 37.5826 27.5115 37.5859 27.5177 37.5883C28.042 37.8022 28.2947 38.4026 28.0809 38.9269C27.8671 39.4513 27.2669 39.7041 26.7424 39.4901L18.3493 36.0678L18.3482 36.0673L14.4177 34.4646C13.7259 34.1825 13.0834 33.7909 12.5162 33.3092C12.1759 33.0201 11.8628 32.6987 11.5822 32.3489C11.3058 32.0043 11.0026 31.6829 10.6763 31.3875C9.95854 30.7377 9.12929 30.2142 8.22938 29.8471M8.22938 29.8471V29.8471ZM45.9999 5.71714C45.9999 5.71222 45.9992 5.7073 45.9991 5.70229C45.9985 5.68269 45.9974 5.66335 45.9951 5.64419C45.9942 5.63716 45.9929 5.63013 45.9919 5.6231C45.9892 5.60543 45.986 5.58803 45.9819 5.57098C45.9804 5.56421 45.9786 5.55753 45.9767 5.55076C45.9717 5.53222 45.9659 5.51402 45.9592 5.4961C45.9579 5.49267 45.9571 5.48915 45.9558 5.48581L44.1677 0.9083C43.9874 0.44705 43.5509 0.148926 43.0556 0.148926H39.7998C39.4449 0.148926 39.1572 0.436591 39.1572 0.791493C39.1572 1.14639 39.4449 1.43406 39.7998 1.43406H42.9934L44.4164 5.07703H30.9627L30.1197 1.43406H42.0884C42.4433 1.43406 42.731 1.14639 42.731 0.791493C42.731 0.436591 42.4433 0.148926 42.0884 0.148926H29.3115H22.8369H9.09264C8.59729 0.148926 8.16082 0.44705 7.98056 0.908475L6.19243 5.48581C6.19111 5.48924 6.19041 5.49276 6.18909 5.4961C6.18241 5.51394 6.17661 5.53213 6.17151 5.55076C6.16967 5.55753 6.16791 5.56421 6.16633 5.57098C6.16228 5.58812 6.15903 5.60552 6.15639 5.6231C6.15534 5.63013 6.15402 5.63716 6.15314 5.64419C6.15095 5.66335 6.14971 5.68269 6.14919 5.70229C6.1491 5.70721 6.14848 5.71213 6.1484 5.71714L6.14831 5.71951V15.1598C6.14831 15.5147 6.43597 15.8024 6.79088 15.8024C7.14578 15.8024 7.43344 15.5147 7.43344 15.1598V6.36217H21.054V16.1293C21.054 16.5112 21.279 16.8593 21.6273 17.016C21.7548 17.0734 21.8906 17.1014 22.0255 17.1014C22.259 17.1014 22.4899 17.0176 22.6709 16.8571L26.0741 13.8421L29.4773 16.857C29.7631 17.1104 30.1728 17.1727 30.5211 17.016C30.8693 16.8592 31.0943 16.5112 31.0943 16.1293V6.36217H44.7148V35.1835C44.7148 35.6446 44.3396 36.0198 43.8785 36.0198H32.0966C32.0966 36.0125 32.0957 36.0052 32.0956 35.9979C32.0949 35.9402 32.0928 35.8826 32.0879 35.8255C33.1941 36.1188 34.3762 35.5502 34.8195 34.463C35.0527 33.8911 35.0492 33.2627 34.8097 32.6935C34.7872 32.6399 34.7623 32.5879 34.7361 32.5367C34.7313 32.5273 34.7266 32.5178 34.7218 32.5084C34.696 32.4596 34.6686 32.4119 34.6397 32.3654C34.634 32.3563 34.6282 32.3475 34.6225 32.3386C34.5919 32.2908 34.5602 32.244 34.5264 32.1989L34.5244 32.1964C34.4909 32.1519 34.4554 32.109 34.4187 32.0671C34.412 32.0594 34.4054 32.0517 34.3987 32.044C34.3624 32.0036 34.3247 31.9645 34.2856 31.9268C34.278 31.9194 34.2703 31.9123 34.2625 31.9051C34.2217 31.8667 34.1798 31.8293 34.1362 31.7941L34.1318 31.7906C34.0889 31.7561 34.0443 31.7234 33.9989 31.6919C33.9907 31.6862 33.9826 31.6804 33.9743 31.6748C33.9288 31.6442 33.8822 31.6153 33.8344 31.5878C33.8305 31.5855 33.8269 31.5829 33.8228 31.5806C34.0944 31.3456 34.3088 31.0481 34.4483 30.7059C34.6815 30.134 34.6781 29.5056 34.4386 28.9363C34.229 28.4382 33.8607 28.0376 33.3889 27.7891C33.3215 27.7536 33.252 27.7211 33.1805 27.692L23.1797 23.6142L27.8349 22.1733C28.9424 21.8305 29.5662 20.6492 29.2254 19.5403C29.0982 19.1263 28.846 18.7772 28.5203 18.5221C28.0356 18.1423 27.3877 17.9708 26.7453 18.1057C26.7422 18.1064 26.7392 18.107 26.7361 18.1078C26.7005 18.1158 23.1318 18.9182 19.4047 19.645C19.2393 19.6772 19.0782 19.7083 18.9194 19.7389C18.7923 19.7634 18.667 19.7874 18.544 19.8108C18.5087 19.8176 18.4733 19.8243 18.4382 19.8309C18.2211 19.8722 18.0108 19.9116 17.8064 19.9496C17.7241 19.9649 17.6425 19.98 17.5623 19.9948C12.8815 20.8571 11.5666 20.8725 11.2017 20.8231L11.1976 20.8225C11.1921 20.8217 11.1866 20.8209 11.1815 20.8202C11.1778 20.8195 11.1744 20.8189 11.171 20.8184C11.1685 20.818 11.1659 20.8175 11.1635 20.8172C11.1408 20.813 11.123 20.8087 11.1093 20.8046L11.004 20.7617L11.1352 20.4399C11.2642 20.1235 11.2623 19.7758 11.1299 19.4609C11.0967 19.3822 11.0564 19.3078 11.0096 19.2386C10.8693 19.0309 10.671 18.8692 10.4337 18.7724L6.98239 17.3652C6.66607 17.2361 6.31829 17.2381 6.00338 17.3705C5.68838 17.503 5.44395 17.7502 5.31493 18.0665L1.09469 28.4168C0.828387 29.0699 1.14312 29.8179 1.79624 30.0842L5.24761 31.4916C5.40519 31.5558 5.56823 31.5862 5.72881 31.5862C6.23356 31.5862 6.71292 31.2854 6.91498 30.79L6.94671 30.7122L7.74247 31.0366L7.74387 31.0372C8.505 31.3476 9.20628 31.7904 9.81325 32.3399C9.92364 32.4398 10.0309 32.5432 10.1348 32.65C10.2388 32.7568 10.3394 32.867 10.4365 32.9804C10.485 33.0371 10.5327 33.0947 10.5794 33.1529C11.4638 34.2558 12.6233 35.1209 13.9322 35.6547L14.8275 36.0197H8.26981C7.80873 36.0197 7.43353 35.6445 7.43353 35.1834V33.5575C7.43353 33.2026 7.14587 32.9149 6.79096 32.9149C6.43606 32.9149 6.1484 33.2026 6.1484 33.5575V35.1834C6.1484 36.3531 7.09999 37.3048 8.26981 37.3048H17.9793L26.2569 40.68C26.5419 40.7962 26.8367 40.8513 27.127 40.8512C28.0392 40.8512 28.9056 40.3076 29.2708 39.4121C29.4206 39.0448 29.4686 38.6609 29.4283 38.2918C29.8589 38.3536 30.3053 38.2969 30.7099 38.1222C31.1212 37.9446 31.462 37.6616 31.704 37.3047H43.8786C45.0484 37.3047 46 36.3531 46 35.1833V5.7196L45.9999 5.71714ZM23.3477 1.43406H28.8006L29.6435 5.07703H22.5047L23.3477 1.43406ZM21.1857 5.07703H7.73183L9.15487 1.43406H22.0286L21.1857 5.07703ZM29.8094 15.4341L26.7189 12.6963C26.5351 12.5336 26.3047 12.4522 26.0743 12.4522C25.8439 12.4522 25.6133 12.5336 25.4295 12.6963L22.3392 15.4341V6.36217H29.8094V15.4341ZM5.72723 30.2992L2.28693 28.8965L6.50268 18.5575L9.94298 19.9603L5.72723 30.2992Z" stroke="white" stroke-width="0.2"/>
</svg>
