<svg width="145" height="90" viewBox="0 0 145 90" fill="none" xmlns="http://www.w3.org/2000/svg">
<g clip-path="url(#clip0)">
<path d="M137.461 57.2816V58.7643C137.461 59.5057 137.013 60.1976 136.102 60.7248L86.4764 89.2256C84.4549 90.3788 80.9422 90.247 78.6059 88.8961L1.92207 44.8763C0.646212 44.1515 0 43.2124 0 42.3228V40.8401C0 40.9719 0.0165695 41.1202 0.0497086 41.2519C0.215404 42.0098 0.845046 42.7676 1.92207 43.3936L78.6059 87.4134C80.9256 88.7478 84.4549 88.8961 86.4764 87.7429L136.102 59.2585C136.848 58.8302 137.279 58.2865 137.411 57.7099C137.444 57.5617 137.461 57.4299 137.461 57.2816Z" fill="url(#paint0_linear)"/>
<path d="M137.461 57.2815C137.461 57.4133 137.444 57.5451 137.411 57.6933C137.279 58.2699 136.848 58.8136 136.102 59.2419L86.4764 87.7427C84.4549 88.896 80.9422 88.7642 78.6059 87.4133L1.92207 43.3935C0.845046 42.7839 0.215404 42.0096 0.0497086 41.2518C0.0165695 41.12 0 40.9717 0 40.8399C0 40.0986 0.447377 39.4067 1.3587 38.8795L51.001 10.3951C53.0225 9.24191 56.5353 9.39018 58.8716 10.7246L135.539 54.7279C136.815 55.4693 137.461 56.4083 137.461 57.2815Z" fill="#B78B60"/>
<path d="M81.3568 82.4878L13.8359 43.8882L59.9987 17.3972L127.52 56.1452L81.3568 82.4878Z" fill="#EBEBEB"/>
<path d="M80.3623 82.6526L13.1729 43.8882L59.3356 17.3972L126.856 56.1452L80.3623 82.6526Z" fill="#D4D4D4"/>
<path d="M80.5277 82.323L13.0068 43.5586L59.1696 17.0676L126.69 55.8156L80.5277 82.323Z" fill="white"/>
<path d="M103.604 57.5217H100V59H106V53H103.604V57.5217Z" fill="#1AB248"/>
<path d="M96.7801 52.6048C93.0733 54.7446 93.0733 58.2347 96.7801 60.3952C100.487 62.5349 106.513 62.5349 110.22 60.3952C113.927 58.2554 113.927 54.7653 110.22 52.6048C106.513 50.4651 100.487 50.4651 96.7801 52.6048ZM108.77 59.5642C105.871 61.2469 101.15 61.2469 98.2297 59.5642C95.3305 57.8815 95.3305 55.1393 98.2297 53.4566C101.129 51.7738 105.85 51.7738 108.77 53.4566C111.669 55.1393 111.669 57.8815 108.77 59.5642Z" fill="#1AB248"/>
<path d="M64.5381 67.5288L65.1677 67.8912L68.6308 65.8978L68.0011 65.5354L64.5381 67.5288Z" fill="#555555"/>
<path d="M69.4431 65.4366C70.7024 64.7117 78.1753 60.4119 79.4345 59.7035L78.8049 59.3411C78.5067 59.5058 69.0952 64.9094 68.8135 65.0742L69.4431 65.4366Z" fill="#555555"/>
<path d="M73.1217 65.865L67.3887 69.1599L68.0349 69.5223L73.7679 66.2439L73.1217 65.865Z" fill="#555555"/>
<path d="M83.1962 56.804L79.6172 58.8797L80.2468 59.2422L83.8424 57.1829L83.1962 56.804Z" fill="#555555"/>
<path d="M73.9336 65.4037L74.5632 65.7661C75.3917 65.2884 84.5712 60.0166 84.9026 59.8353L84.273 59.4729C83.925 59.6706 74.7124 64.9589 73.9336 65.4037Z" fill="#555555"/>
<path d="M84.6375 56.7049C85.6316 56.1283 92.4086 52.2403 93.2868 51.7296L92.6571 51.3672C91.7789 51.8779 84.9357 55.7988 84.0078 56.3425L84.6375 56.7049Z" fill="#555555"/>
<path d="M45.1359 52.4214L41.6729 54.3983L42.3191 54.7608L45.7655 52.7838L45.1359 52.4214Z" fill="#555555"/>
<path d="M49.1454 53.3938L44.5391 56.0462L45.1687 56.4086L49.7916 53.7562L49.1454 53.3938Z" fill="#555555"/>
<path d="M50.454 55.9309L47.3887 57.6772L48.0349 58.0396L51.0837 56.2933L50.454 55.9309Z" fill="#555555"/>
<path d="M51.8962 55.8318L58.1264 52.2568L57.4968 51.8779L51.2666 55.4694L51.8962 55.8318Z" fill="#555555"/>
<path d="M55.4587 56.3425L50.2559 59.3244L50.8855 59.6868L56.0883 56.705L55.4587 56.3425Z" fill="#555555"/>
<path d="M71.6631 37.1828L72.2927 37.5453C72.9886 37.1334 77.6944 34.4481 78.6886 33.8715L78.0589 33.509C77.0813 34.0856 72.3756 36.7875 71.6631 37.1828Z" fill="#555555"/>
<path d="M64.8696 41.0869L57.5459 45.3044L58.1755 45.6668L65.4993 41.4494L64.8696 41.0869Z" fill="#555555"/>
<path d="M70.8513 37.6443L65.6816 40.6262L66.3113 40.9886L71.4976 38.0232L70.8513 37.6443Z" fill="#555555"/>
<path d="M57.3637 46.1286L56.734 45.7661C56.1707 46.0956 46.5106 51.631 45.9473 51.9605L46.5769 52.3229C47.2231 51.944 56.8003 46.458 57.3637 46.1286Z" fill="#555555"/>
<path d="M78.0759 37.5288L81.5555 35.5189L80.9093 35.1565L77.4297 37.1499L78.0759 37.5288Z" fill="#555555"/>
<path d="M70.47 41.1531L63.0303 45.42L63.6765 45.7824L71.0996 41.5155L70.47 41.1531Z" fill="#555555"/>
<path d="M76.6176 37.6277L71.2822 40.6919L71.9119 41.0544L77.2638 37.9901L76.6176 37.6277Z" fill="#555555"/>
<path d="M49.957 52.9324L50.5867 53.2948C51.0838 53.0148 62.0197 46.738 62.8647 46.2438L62.2351 45.8813C61.6551 46.2108 50.4873 52.6194 49.957 52.9324Z" fill="#555555"/>
<path d="M69.4929 45.7332L77.8109 40.9556L77.1812 40.5767L68.8633 45.3542L69.4929 45.7332Z" fill="#555555"/>
<path d="M58.292 51.417L58.9216 51.7794C59.5016 51.4499 68.1012 46.5076 68.6645 46.1781L68.0349 45.8157C67.7366 45.9969 59.3027 50.8569 58.292 51.417Z" fill="#555555"/>
<path d="M83.8083 40.7909L87.2714 38.7975L86.6252 38.4351L83.1621 40.4285L83.8083 40.7909Z" fill="#555555"/>
<path d="M73.5684 45.9308L74.2146 46.2932L79.0197 43.5255L78.3901 43.1631L73.5684 45.9308Z" fill="#555555"/>
<path d="M72.7734 46.3921L66.1787 50.1812L66.8084 50.5436L73.403 46.7545L72.7734 46.3921Z" fill="#555555"/>
<path d="M65.9958 51.0045L65.3662 50.6421C65.0017 50.8563 56.6175 55.6668 56.2695 55.8645L56.8992 56.2269C57.2471 56.0292 65.6313 51.2187 65.9958 51.0045Z" fill="#555555"/>
<path d="M79.8318 43.0643L82.9966 41.2521L82.3669 40.8896L79.2021 42.7018L79.8318 43.0643Z" fill="#555555"/>
<path d="M63.8925 54.761L61.3408 56.2272L61.987 56.5897L64.5387 55.1399L63.8925 54.761Z" fill="#555555"/>
<path d="M65.3337 54.6623L72.1935 50.7413L71.5639 50.3789L64.7041 54.2998L65.3337 54.6623Z" fill="#555555"/>
<path d="M60.5452 56.6887C59.9321 57.0347 54.2985 60.2802 53.1055 60.9556L53.7351 61.318C54.9115 60.6426 60.5618 57.3971 61.1748 57.0512L60.5452 56.6887Z" fill="#555555"/>
<path d="M72.6908 52.998L65.7979 56.9684L66.4275 57.3308L73.337 53.3605L72.6908 52.998Z" fill="#555555"/>
<path d="M60.8269 60.5438L65.6155 57.7926L64.9859 57.4302L60.1973 60.1814L60.8269 60.5438Z" fill="#555555"/>
<path d="M59.385 60.6426L55.9717 62.603L56.6013 62.9655L60.0312 61.005L59.385 60.6426Z" fill="#555555"/>
<path d="M72.4587 56.4087L67.7861 59.094L68.4323 59.4565L73.105 56.7711L72.4587 56.4087Z" fill="#555555"/>
<path d="M66.9745 59.5552C66.0134 60.0988 59.7833 63.6903 58.8223 64.2339L59.4519 64.5964C61.2083 63.5914 65.798 60.9555 67.6041 59.9176L66.9745 59.5552Z" fill="#555555"/>
<path d="M67.1892 63.4433L73.6679 59.7201L73.0383 59.3577L66.5596 63.0809L67.1892 63.4433Z" fill="#555555"/>
<path d="M83.6929 53.2454L73.8506 58.8961L74.4802 59.2585L84.3225 53.6243L83.6929 53.2454Z" fill="#555555"/>
<path d="M65.748 63.542L61.6719 65.8814L62.3181 66.2438L66.3942 63.9044L65.748 63.542Z" fill="#555555"/>
<path d="M86.4435 41.8284C86.2778 41.9272 72.5251 49.8185 72.3594 49.9173L72.989 50.2798C73.3038 50.0986 85.5487 43.0804 87.0731 42.1908L86.4435 41.8284Z" fill="#555555"/>
<path d="M87.8845 41.73L90.1214 40.445L89.4918 40.0825L87.2549 41.3675L87.8845 41.73Z" fill="#555555"/>
<path d="M73.502 52.5371L74.1316 52.8995C74.5293 52.6689 84.2224 47.117 84.7361 46.8204L84.1064 46.458C83.5431 46.771 74.0985 52.1911 73.502 52.5371Z" fill="#555555"/>
<path d="M85.5651 48.8962C85.1674 49.1269 73.6185 55.7496 73.2705 55.9473L73.9001 56.3098C74.4138 56.0132 85.7474 49.5058 86.1948 49.2587L85.5651 48.8962Z" fill="#555555"/>
<path d="M89.0447 46.9028L86.377 48.4185L87.0066 48.7974L89.6743 47.2653L89.0447 46.9028Z" fill="#555555"/>
<path d="M90.486 46.804L95.838 43.7233L95.2084 43.3608L89.8398 46.4416L90.486 46.804Z" fill="#555555"/>
<path d="M95.0593 47.4631L98.7046 45.3709L98.0584 44.9919L94.4131 47.0842L95.0593 47.4631Z" fill="#555555"/>
<path d="M91.2654 49.6378L94.2479 47.9244L93.6017 47.562L90.6357 49.2589L91.2654 49.6378Z" fill="#555555"/>
<path d="M89.8237 49.7361C88.5975 50.4445 85.7145 52.0919 84.5049 52.8003L85.1345 53.1628C85.4493 52.9816 89.9065 50.428 90.4533 50.0985L89.8237 49.7361Z" fill="#555555"/>
<path d="M51.0118 27.431C51.4095 27.6562 51.4113 28.2286 51.015 28.4562L32.2777 39.2191C32.0928 39.3253 31.8653 39.3255 31.6802 39.2196C31.2771 38.989 31.2769 38.4079 31.6798 38.177L50.4276 27.4325C50.6084 27.3289 50.8304 27.3283 51.0118 27.431Z" fill="#555555"/>
<path d="M49.1794 32.4442C49.5823 32.6747 49.5824 33.2557 49.1796 33.4864L41.0034 38.1687C40.8225 38.2723 40.6003 38.2728 40.4189 38.1701C40.021 37.9448 40.019 37.3723 40.4153 37.1443L48.5818 32.445C48.7667 32.3386 48.9942 32.3383 49.1794 32.4442Z" fill="#555555"/>
<path d="M66.8087 27.0675L66.3447 26.804L29.958 47.6771L30.422 47.9407L32.4434 46.7875L33.7193 47.5288L31.6978 48.6821L32.1618 48.9456L34.1832 47.7924L35.4591 48.5338L33.4376 49.687L33.9016 49.9506L35.923 48.7974L37.1989 49.5387L35.1774 50.6919L35.6414 50.9555L37.6628 49.8023L38.9387 50.5437L36.9172 51.6969L37.3812 51.9605L39.4026 50.8073L40.6785 51.5486L38.657 52.7018L39.121 52.9654L75.5574 32.0923L75.0934 31.8287L73.0719 32.9819L71.7961 32.2405L73.8176 31.0873L73.3536 30.8237L71.3321 31.9769L70.0563 31.2356L72.0778 30.0824L71.6138 29.8188L69.5923 30.972L68.3165 30.2306L70.338 29.0774L69.874 28.8138L67.8525 29.9671L66.5767 29.2257L68.5982 28.0725L68.1342 27.8089L66.1127 28.9621L64.8369 28.2208L66.8087 27.0675ZM51.7138 43.7562L52.9897 44.4975L51.0013 45.6343L49.7255 44.8929L51.7138 43.7562ZM49.9574 42.7677L51.2333 43.5091L49.2449 44.6458L47.9691 43.9045L49.9574 42.7677ZM48.2011 41.7628L49.4769 42.5041L47.4886 43.6409L46.2127 42.8995L48.2011 41.7628ZM46.4613 40.7578L47.7371 41.4992L45.7488 42.6359L44.4729 41.8946L46.4613 40.7578ZM44.009 41.6145L42.7331 40.8732L44.7215 39.7364L45.9973 40.4778L44.009 41.6145ZM59.0541 39.5387L60.33 40.2801L53.4536 44.2339L52.1778 43.4926L59.0541 39.5387ZM51.7138 43.229L50.438 42.4877L57.3143 38.5338L58.5902 39.2751L51.7138 43.229ZM49.9574 42.2241L48.6816 41.4827L55.5579 37.5288L56.8338 38.2702L49.9574 42.2241ZM48.2011 41.2191L46.9252 40.4778L53.8016 36.5239L55.0774 37.2652L48.2011 41.2191ZM46.4613 40.2142L45.1854 39.4728L52.0618 35.519L53.3376 36.2603L46.4613 40.2142ZM61.5064 38.1384L62.7823 38.8797L60.7939 40.0165L59.5181 39.2751L61.5064 38.1384ZM59.7666 37.1334L61.0425 37.8748L59.0541 39.0115L57.7783 38.2702L59.7666 37.1334ZM58.0102 36.1285L59.2861 36.8699L57.2977 38.0066L56.0219 37.2652L58.0102 36.1285ZM56.2539 35.1236L57.5297 35.8649L55.5414 37.0017L54.2655 36.2603L56.2539 35.1236ZM53.8016 35.9967L52.5257 35.2554L54.5141 34.1186L55.7899 34.86L53.8016 35.9967ZM71.3156 32.5041L72.5914 33.2455L63.2628 38.5997L61.9869 37.8583L71.3156 32.5041ZM61.5064 37.5947L60.2305 36.8534L69.5592 31.4992L70.835 32.2405L61.5064 37.5947ZM59.7666 36.5898L58.4907 35.8484L67.8194 30.4942L69.0952 31.2356L59.7666 36.5898ZM66.063 29.5058L67.3389 30.2471L58.0102 35.5848L56.7344 34.8435L66.063 29.5058ZM64.3067 28.5008L65.5825 29.2422L56.2539 34.5964L54.978 33.855L64.3067 28.5008ZM39.4524 50.2636L38.1765 49.5223L47.5051 44.1681L48.781 44.9094L39.4524 50.2636ZM37.7126 49.2587L36.4367 48.5173L45.7653 43.1631L47.0412 43.9045L37.7126 49.2587ZM35.9562 48.2537L34.6803 47.5124L44.009 42.1582L45.2848 42.8995L35.9562 48.2537ZM34.1998 47.2488L32.924 46.5074L42.2526 41.1532L43.5285 41.8946L34.1998 47.2488ZM41.2087 51.2685L39.9329 50.5272L49.2615 45.173L50.5374 45.9143L41.2087 51.2685Z" fill="#ACB0B8"/>
<path d="M52.2105 22.4054C51.1335 21.0874 48.9463 20.7085 47.1568 21.5487L42.9316 23.5257C42.6168 23.6739 42.2191 23.608 42.0368 23.3774L39.1372 19.8189C38.988 19.6377 38.7063 19.5553 38.4412 19.6047C35.6244 20.1484 35.1605 20.4779 31.6643 18.4351C30.6204 17.8255 29.1457 17.8255 27.9693 18.4845C26.7929 19.1599 26.2792 20.3131 26.5609 21.351C27.5551 24.8436 27.0414 25.0578 25.3844 27.0677C25.2187 27.2654 25.2188 27.5125 25.3679 27.6937L28.2675 31.2687C28.4664 31.4993 28.3835 31.8288 28.1184 32.0265L24.3903 34.613C22.8162 35.7003 22.4351 37.5454 23.5121 38.8799L24.1252 39.6377L31.5815 35.3543L45.3342 27.4631L52.7904 23.1797L52.2105 22.4054ZM28.6652 19.3412C29.5434 18.8304 30.7033 18.9787 31.2666 19.6706C31.83 20.3626 31.5649 21.3181 30.6867 21.8288C29.8085 22.3395 28.6486 22.1912 28.0853 21.4993C27.5385 20.8074 27.787 19.8519 28.6652 19.3412Z" fill="#FFDA44"/>
<path d="M145 38.3855V40.5601C145 41.944 144.088 43.3278 142.249 44.3657C140.41 45.4201 138.007 45.9473 135.605 45.9473C133.202 45.9473 130.8 45.4201 128.96 44.3657C127.121 43.3114 126.21 41.9275 126.21 40.5601V38.3855C126.21 39.7694 127.121 41.1367 128.96 42.1911C130.8 43.2455 133.202 43.7727 135.605 43.7727C138.007 43.7727 140.41 43.2455 142.249 42.1911C144.088 41.1532 145 39.7694 145 38.3855Z" fill="url(#paint1_linear)"/>
<path d="M145 38.3851C145 39.7689 144.088 41.1363 142.249 42.1907C140.41 43.2451 138.007 43.7722 135.605 43.7722C133.202 43.7722 130.8 43.2451 128.96 42.1907C127.121 41.1363 126.21 39.7525 126.21 38.3851C126.21 37.8579 126.343 37.3307 126.608 36.82C127.038 35.9963 127.817 35.222 128.96 34.563C129.143 34.4477 129.342 34.3488 129.54 34.25C128.629 34.876 128.049 35.6174 127.817 36.3917C127.403 37.792 128.149 39.2747 130.021 40.3456C133.103 42.1083 138.09 42.1083 141.172 40.3456C143.045 39.2747 143.79 37.792 143.376 36.3917C143.144 35.6174 142.581 34.876 141.653 34.25C141.852 34.3488 142.05 34.4477 142.233 34.563C143.144 35.0902 143.84 35.6998 144.287 36.3423C144.403 36.4905 144.486 36.6553 144.569 36.82C144.867 37.3307 145 37.8579 145 38.3851Z" fill="url(#paint2_linear)"/>
<path d="M141.189 40.3622C138.107 42.125 133.119 42.125 130.038 40.3622C128.165 39.2914 127.42 37.8087 127.834 36.4084C128.066 35.6341 128.629 34.8927 129.557 34.2667C130.137 33.8713 130.833 33.6242 131.512 33.3935C134.031 32.5039 137.212 32.5039 139.731 33.3935C140.41 33.6242 141.106 33.8713 141.686 34.2667C142.614 34.8927 143.177 35.6341 143.409 36.4084C143.807 37.8087 143.061 39.2914 141.189 40.3622Z" fill="#8B6C41"/>
<path d="M131.894 28.1549C131.894 26.112 133.551 24.4646 135.605 24.4646C137.66 24.4646 139.317 26.1285 139.317 28.1549C139.317 28.3855 139.3 28.6326 139.25 28.8468L137.743 36.6557C137.693 36.9193 137.478 37.1829 137.13 37.3971C136.284 37.8748 134.926 37.8748 134.081 37.3971C133.716 37.1829 133.517 36.9358 133.468 36.6557L131.96 28.8468C131.91 28.6326 131.894 28.3855 131.894 28.1549Z" fill="url(#paint3_linear)"/>
<path d="M120.941 28.4514C120.792 28.2867 120.511 28.056 120.312 27.9407L71.6304 0L70.3711 0.724876L119.417 28.8797L123.062 31.3509C123.128 31.2685 123.195 31.2026 123.278 31.1532C123.311 31.1367 123.344 31.1203 123.377 31.1038L120.941 28.4514Z" fill="#EAB17B"/>
<path d="M123.062 31.3509L119.417 28.8797L70.3709 0.724854L69.7412 2.32288L118.787 30.4777L122.88 31.7792C122.896 31.631 122.963 31.4827 123.062 31.3509Z" fill="#E8A76A"/>
<path d="M122.913 32.0096C122.896 31.9602 122.88 31.9108 122.88 31.8449C122.88 31.8284 122.88 31.8119 122.88 31.7955L118.787 30.494L69.7412 2.33911L70.3709 3.22873L119.069 31.1859C119.268 31.3012 119.599 31.4165 119.814 31.466L122.913 32.0096Z" fill="#E08837"/>
<path d="M69.7412 2.32288L118.025 30.0329C118.439 30.28 118.936 30.0988 119.118 29.654C119.284 29.2257 119.102 28.682 118.688 28.4514L70.3709 0.724854L69.7412 2.32288Z" fill="url(#paint4_linear)"/>
<path d="M69.7412 2.323L70.3709 3.21262L118.903 31.0709C119.185 31.2357 119.268 31.1533 119.085 30.8732C118.936 30.6591 118.621 30.3625 118.389 30.2307L69.7412 2.323Z" fill="#178D54"/>
<path d="M70.3711 0.724876L71.6304 0L120.163 27.8583C120.444 28.0231 120.444 28.2867 120.163 28.4514C119.765 28.682 119.102 28.682 118.704 28.4514L70.3711 0.724876Z" fill="#34D550"/>
<path d="M123.377 31.1038C123.344 31.1202 123.311 31.1202 123.278 31.1532C123.195 31.2026 123.128 31.2685 123.062 31.3509C122.963 31.4827 122.896 31.6474 122.88 31.7957C122.88 31.8122 122.88 31.8286 122.88 31.8451C122.88 31.911 122.896 31.9604 122.913 32.0099L124.471 32.2899L123.377 31.1038Z" fill="#3B3B3B"/>
<path d="M145 38.3855C145 38.3855 145 38.4843 145 38.6491C144.983 38.8138 144.967 39.0774 144.867 39.3904C144.768 39.7035 144.619 40.0659 144.354 40.4448C144.105 40.8237 143.757 41.2026 143.326 41.5651C142.896 41.9275 142.382 42.2735 141.819 42.5535C141.239 42.8501 140.609 43.1137 139.946 43.3114C139.267 43.5091 138.571 43.6738 137.842 43.7726C137.113 43.8715 136.367 43.9209 135.622 43.9374C134.876 43.9374 134.13 43.888 133.401 43.7726C132.672 43.6738 131.96 43.5091 131.297 43.3114C130.617 43.1137 129.988 42.8501 129.424 42.5535C129.143 42.4053 128.861 42.2405 128.613 42.0923C128.364 41.9275 128.115 41.7463 127.9 41.5651C127.469 41.2026 127.121 40.8237 126.873 40.4448C126.624 40.0659 126.459 39.7035 126.359 39.3904C126.26 39.0774 126.243 38.8138 126.227 38.6491C126.227 38.4843 126.227 38.3855 126.227 38.3855C126.227 38.3855 126.227 38.4843 126.243 38.6491C126.276 38.8138 126.309 39.0774 126.409 39.374C126.508 39.6705 126.691 40.0329 126.956 40.3789C127.221 40.7413 127.569 41.0873 128 41.4333C128.215 41.598 128.447 41.7628 128.695 41.911C128.961 42.0593 129.209 42.2076 129.507 42.3394C130.071 42.603 130.7 42.8501 131.347 43.0313C132.009 43.2125 132.705 43.3608 133.418 43.4596C134.13 43.5585 134.859 43.6079 135.605 43.6079C136.334 43.6079 137.063 43.5585 137.776 43.4596C138.488 43.3608 139.184 43.229 139.847 43.0313C140.51 42.8501 141.123 42.603 141.686 42.3394C142.249 42.0593 142.763 41.7628 143.194 41.4168C143.625 41.0873 143.973 40.7249 144.238 40.3624C144.503 40 144.668 39.654 144.784 39.3575C144.9 39.0609 144.934 38.7974 144.95 38.6326C145 38.4843 145 38.3855 145 38.3855Z" fill="url(#paint5_linear)"/>
<path d="M127.833 36.4084C127.751 36.8038 127.784 36.6226 127.751 36.9192C127.751 37.1663 127.751 37.1827 127.767 37.2981C127.867 38.616 128.977 39.6374 130.137 40.2635C131.794 41.0542 133.053 41.4496 135.605 41.5155C138.189 41.4496 139.382 41.0707 141.073 40.2635C142.232 39.6539 143.343 38.5831 143.459 37.2981C143.475 37.1663 143.475 37.1498 143.475 36.9192C143.442 36.6061 143.475 36.7874 143.392 36.4084C143.392 36.4084 143.409 36.4908 143.459 36.6391C143.508 36.8038 143.541 37.1333 143.525 37.3145C143.525 37.6111 143.459 37.9735 143.293 38.3524C142.912 39.2421 142.067 40.0164 141.205 40.4941C139.266 41.4826 137.974 41.7791 135.605 41.8615C133.285 41.7956 131.992 41.5155 130.021 40.4941C129.159 39.9999 128.314 39.2585 127.933 38.3524C127.684 37.7594 127.684 37.3475 127.718 36.9192C127.734 36.8038 127.751 36.705 127.767 36.6391C127.8 36.4908 127.833 36.4084 127.833 36.4084Z" fill="url(#paint6_linear)"/>
</g>
<defs>
<linearGradient id="paint0_linear" x1="0" y1="65.4256" x2="137.464" y2="65.4256" gradientUnits="userSpaceOnUse">
<stop stop-color="#987350"/>
<stop offset="0.3367" stop-color="#96724F"/>
<stop offset="0.4581" stop-color="#8F6C4B"/>
<stop offset="0.5442" stop-color="#846345"/>
<stop offset="0.6137" stop-color="#73573C"/>
<stop offset="0.629" stop-color="#6E5339"/>
<stop offset="1" stop-color="#6E5339"/>
</linearGradient>
<linearGradient id="paint1_linear" x1="126.218" y1="42.1735" x2="145.003" y2="42.1735" gradientUnits="userSpaceOnUse">
<stop stop-color="#715128"/>
<stop offset="1" stop-color="#634521"/>
</linearGradient>
<linearGradient id="paint2_linear" x1="126.218" y1="39.0245" x2="145.003" y2="39.0245" gradientUnits="userSpaceOnUse">
<stop stop-color="#836238"/>
<stop offset="1" stop-color="#735631"/>
</linearGradient>
<linearGradient id="paint3_linear" x1="131.885" y1="31.1068" x2="139.322" y2="31.1068" gradientUnits="userSpaceOnUse">
<stop stop-color="#836238"/>
<stop offset="1" stop-color="#6B502E"/>
</linearGradient>
<linearGradient id="paint4_linear" x1="94.4602" y1="0.724854" x2="94.4602" y2="30.1442" gradientUnits="userSpaceOnUse">
<stop stop-color="#36BD4D"/>
<stop offset="1" stop-color="#21A637"/>
</linearGradient>
<linearGradient id="paint5_linear" x1="126.218" y1="41.1672" x2="145.003" y2="41.1672" gradientUnits="userSpaceOnUse">
<stop stop-color="#836238"/>
<stop offset="0.2087" stop-color="#795B34"/>
<stop offset="0.5803" stop-color="#6F532F"/>
<stop offset="1" stop-color="#6B502E"/>
</linearGradient>
<linearGradient id="paint6_linear" x1="127.701" y1="39.1368" x2="143.527" y2="39.1368" gradientUnits="userSpaceOnUse">
<stop stop-color="#836238"/>
<stop offset="0.4138" stop-color="#7F5F36"/>
<stop offset="0.8008" stop-color="#745732"/>
<stop offset="1" stop-color="#6B502E"/>
</linearGradient>
<clipPath id="clip0">
<rect width="145" height="90" rx="5" fill="white"/>
</clipPath>
</defs>
</svg>
