<svg width="132" height="118" viewBox="0 0 132 118" fill="none" xmlns="http://www.w3.org/2000/svg">
<path d="M46.4685 74.3311C46.4475 74.3311 46.4266 74.3311 46.3952 74.3207C45.6724 74.1961 45.1486 74.03 44.7611 73.8016C44.5725 73.6978 44.5097 73.4486 44.6144 73.2618C44.7297 73.0749 44.9706 73.0126 45.1591 73.1164C45.4734 73.2929 45.9238 73.4383 46.5418 73.5421C46.7618 73.5836 46.898 73.7809 46.8665 73.9989C46.8246 74.1961 46.657 74.3311 46.4685 74.3311Z" fill="#474B59"/>
<path d="M131.563 39.5515L131.451 77.0937L97.1538 96.8498L97.2663 59.3076L131.563 39.5515Z" fill="#EBBD8C"/>
<path d="M97.2663 59.3076L97.1538 96.8498L62.6318 77.0937L62.7443 39.5515L97.2663 59.3076Z" fill="#A6704E"/>
<path d="M131.58 39.5698L97.2642 59.326L82.1878 50.6838L77.8186 48.2306L77.7248 48.1934L62.7422 39.5698L97.0392 19.8323L112.134 28.4373L112.172 28.4744L116.485 30.9277L131.58 39.5698Z" fill="#D8AC81"/>
<path d="M116.487 30.9287L82.19 50.6849L77.8208 48.2317L77.7271 48.1945L112.137 28.4382L112.174 28.4754L116.487 30.9287Z" fill="#F7DFC7"/>
<path d="M82.19 50.6836L82.1525 64.8827L77.7271 62.3923L77.7833 48.1746L82.19 50.6836Z" fill="#F7DFC7"/>
<path d="M104.897 80.2888L106.098 82.5376L105.347 82.9465L103.735 83.8758L104.897 80.2888Z" fill="#3F434F"/>
<path d="M105.347 82.948L105.365 87.3899L104.484 87.8917L104.465 83.4684L105.347 82.948Z" fill="#3F434F"/>
<path d="M109.772 85.2705V86.2183L103.641 89.731V88.7831L109.772 85.2705Z" fill="#3F434F"/>
<path d="M116.28 73.7842V76.9436C116.28 77.9472 115.698 79.0994 114.929 79.6942V82.5376C115.473 82.296 115.886 82.3146 115.886 82.612L113.504 83.9872C113.504 83.6899 113.917 83.2067 114.461 82.835V79.9915C114.104 80.1402 113.804 80.103 113.561 79.9543C113.279 79.7499 113.092 79.3596 113.092 78.8021V75.6427L116.28 73.7842Z" fill="#3F434F"/>
<path d="M108.911 80.9185L108.929 85.3602L108.029 85.862V81.4202L108.911 80.9185Z" fill="#3F434F"/>
<path d="M108.46 78.2651L109.642 80.4955L108.911 80.9229L107.298 81.8522L108.46 78.2651Z" fill="#3F434F"/>
<path d="M85.8104 60.3262L85.6979 97.8683L51.4009 117.624L51.5134 80.0823L85.8104 60.3262Z" fill="#EBBD8C"/>
<path d="M51.5134 80.0823L51.4009 117.624L16.8789 97.8683L16.9914 60.3262L51.5134 80.0823Z" fill="#A6704E"/>
<path d="M85.827 60.3445L51.5113 80.1006L36.4348 71.4585L32.0657 69.0052L31.9719 68.9681L16.9893 60.3445L51.2862 40.6069L66.3814 49.2119L66.4189 49.2491L70.7318 51.7023L85.827 60.3445Z" fill="#D8AC81"/>
<path d="M70.7345 51.7033L36.4375 71.4596L32.0684 69.0063L31.9746 68.9692L66.3841 49.2129L66.4216 49.2501L70.7345 51.7033Z" fill="#F7DFC7"/>
<path d="M36.4376 71.4582L36.4001 85.6574L31.9746 83.167L32.0309 68.9492L36.4376 71.4582Z" fill="#F7DFC7"/>
<path d="M59.1445 101.063L60.3446 103.312L59.5945 103.721L57.9819 104.65L59.1445 101.063Z" fill="#3F434F"/>
<path d="M59.5937 103.721L59.6125 108.163L58.7312 108.665L58.7124 104.242L59.5937 103.721Z" fill="#3F434F"/>
<path d="M64.0194 106.045V106.993L57.8877 110.505V109.558L64.0194 106.045Z" fill="#3F434F"/>
<path d="M70.5267 94.5586V97.718C70.5267 98.7216 69.9454 99.8739 69.1765 100.469V103.312C69.7203 103.07 70.1329 103.089 70.1329 103.386L67.7514 104.762C67.7514 104.464 68.1639 103.981 68.7077 103.609V100.766C68.3515 100.915 68.0514 100.877 67.8077 100.729C67.5264 100.524 67.3389 100.134 67.3389 99.5765V96.4171L70.5267 94.5586Z" fill="#3F434F"/>
<path d="M63.1582 101.693L63.1769 106.135L62.2769 106.636V102.195L63.1582 101.693Z" fill="#3F434F"/>
<path d="M62.7075 99.0396L63.8889 101.27L63.1576 101.697L61.5449 102.627L62.7075 99.0396Z" fill="#3F434F"/>
<path d="M60.7922 3.896C60.536 3.73565 60.172 3.7891 59.754 4.0029L6.87603 34.2427C6.09405 34.7104 5.47386 35.7393 5.47386 36.6747L5.58171 72.3931C5.58171 72.8608 5.7435 73.2216 5.99967 73.3686L0.525814 70.1616C0.269648 70.0012 0.10786 69.6939 0.10786 69.2262L0 33.4543C0 32.5723 0.620191 31.4899 1.34824 31.0757L54.2262 0.849308C54.6442 0.595417 55.0082 0.595417 55.2644 0.742407L60.7922 3.896Z" fill="url(#paint0_linear)"/>
<path d="M59.7537 4.00405C60.5492 3.54971 61.1829 3.87042 61.1829 4.77908L61.2907 40.5376C61.2907 41.4864 60.6571 42.5687 59.8616 43.0231L52.8103 47.0586L52.8508 62.2119L38.8021 55.0762L6.98366 73.2762C6.21516 73.7171 5.58149 73.3564 5.58149 72.4076L5.47363 36.6491C5.47363 35.7404 6.10731 34.6981 6.86232 34.2572L59.7537 4.00405Z" fill="url(#paint1_linear)"/>
<path d="M29.5136 51.5078C28.4889 51.5078 27.5317 51.2673 26.6823 50.7863C24.6599 49.6371 23.5409 47.2451 23.5274 44.0648C23.5139 37.7977 27.9766 30.1275 33.4774 26.974C36.2818 25.3704 38.9513 25.1299 41.0006 26.2925C43.023 27.4416 44.142 29.8068 44.1555 32.9604C44.169 39.2543 39.6928 46.9512 34.165 50.1181C32.5336 51.0401 30.9427 51.5078 29.5136 51.5078ZM37.8457 27.5753C36.6997 27.5753 35.4054 27.9628 34.0706 28.7378C29.2439 31.4905 25.334 38.212 25.361 43.6907C25.3745 46.2429 26.2104 48.1137 27.7339 48.9823C29.2574 49.8509 31.3337 49.6371 33.5583 48.3543C38.3985 45.5882 42.3219 38.8534 42.3084 33.3346C42.2949 30.8224 41.459 28.965 39.9355 28.0964C39.3288 27.749 38.6142 27.5753 37.8457 27.5753Z" fill="white"/>
<path d="M38.3174 35.9543C38.3578 38.8139 36.3355 42.2348 33.8547 43.6512C31.3739 45.0676 29.3516 43.9452 29.3516 41.0856C29.3516 38.2928 31.3335 34.8452 33.8143 33.4287C36.2815 32.0123 38.3174 33.1348 38.3174 35.9543Z" fill="white"/>
<path d="M35.2089 22.4417L33.4292 22.4468L33.4436 27.5246L35.2233 27.5196L35.2089 22.4417Z" fill="white"/>
<path d="M35.2758 49.5952L33.4961 49.6003L33.5104 54.6381L35.2902 54.633L35.2758 49.5952Z" fill="white"/>
<path d="M43.966 34.6845L43.0762 33.1612L47.5389 30.6089L48.4287 32.1322L43.966 34.6845Z" fill="white"/>
<path d="M20.1291 47.0848L19.2393 45.5481L23.7019 42.9958L24.5918 44.5326L20.1291 47.0848Z" fill="white"/>
<defs>
<linearGradient id="paint0_linear" x1="30.3961" y1="0.642822" x2="30.3961" y2="73.3686" gradientUnits="userSpaceOnUse">
<stop stop-color="#2F953F"/>
<stop offset="1" stop-color="#297936"/>
</linearGradient>
<linearGradient id="paint1_linear" x1="33.3822" y1="3.79932" x2="33.3822" y2="73.4628" gradientUnits="userSpaceOnUse">
<stop stop-color="#28AD3E"/>
<stop offset="1" stop-color="#34BB4B"/>
</linearGradient>
</defs>
</svg>
