<svg width="125" height="102" viewBox="0 0 125 102" fill="none" xmlns="http://www.w3.org/2000/svg">
<g clip-path="url(#clip0)">
<path d="M97.0156 1.58276L102.318 4.71292L94.2768 9.46213L91.1167 7.59123L97.0156 1.58276Z" fill="#008B6D"/>
<path d="M110.639 0.179688L115.941 3.34582L107.936 8.09503L105.794 6.83577L110.639 0.179688Z" fill="#008B6D"/>
<path d="M72.8586 47.6357L80.8993 52.385L72.8586 57.1342L67.5215 53.968L72.8586 47.6357Z" fill="#008B6D"/>
<path d="M78.3714 60.3L86.4121 65.0493L78.3714 69.7985L73.1396 66.7043L78.3714 60.3Z" fill="#008B6D"/>
<path d="M94.628 60.48L102.669 65.2652L94.628 70.0144L89.2559 66.8123L94.628 60.48Z" fill="#008B6D"/>
<path d="M118.75 14.427L124.228 17.6651L116.187 22.4143L117.135 14.9307L118.75 14.427Z" fill="#008B6D"/>
<path d="M116.819 14.6791L111.728 17.7013C111.271 15.8304 110.534 14.2113 109.621 12.9161L113.238 6.51187C114.361 4.53304 114.361 2.37431 113.238 1.72669L110.674 0.215577C109.551 -0.432042 107.725 0.611345 106.637 2.62616L102.985 8.99441C101.405 8.81452 99.6843 8.95843 97.8585 9.49812V3.48965C97.8585 1.61875 96.5593 0.863196 94.9793 1.79865L91.3627 3.95738C89.7826 4.89283 88.4835 7.15949 88.4835 9.03039V15.0748C86.6576 16.6939 84.9371 18.5648 83.3571 20.6156L79.7405 18.4928C78.6169 17.8452 76.7911 18.8886 75.7026 20.9034L73.1394 25.4727C72.0158 27.4516 72.0158 29.6103 73.1394 30.2579L76.756 32.3807C75.8079 34.7912 75.1057 37.2738 74.6492 39.6844L69.5579 42.7066C67.9779 43.642 66.6787 45.9087 66.6787 47.7796V52.0611C66.6787 53.932 67.9779 54.6875 69.5579 53.7521L74.6492 50.7299C75.1057 52.6008 75.843 54.2198 76.756 55.515L73.1394 61.9193C72.0158 63.8981 72.0158 66.0568 73.1394 66.7045L75.7026 68.2156C76.8262 68.8632 78.652 67.8198 79.7405 65.805L83.3571 59.4008C84.9371 59.5807 86.6576 59.4367 88.4835 58.8971V64.9415C88.4835 66.8124 89.7826 67.568 91.3627 66.6325L94.9793 64.4738C96.5593 63.5383 97.8585 61.2717 97.8585 59.4008V53.3563C99.6843 51.7373 101.405 49.8664 102.985 47.8156L106.601 49.9383C107.725 50.5859 109.551 49.5426 110.674 47.5277L113.238 42.9584C114.361 40.9796 114.361 38.8209 113.238 38.1732L109.621 36.0505C110.569 33.6399 111.271 31.1574 111.728 28.7468L116.819 25.7246C118.399 24.7891 119.698 22.5225 119.698 20.6516V16.3701C119.663 14.5352 118.399 13.7436 116.819 14.6791ZM100.351 29.9701C100.351 34.6473 97.1211 40.368 93.1885 42.7066C89.2208 45.0452 86.0256 43.1383 86.0256 38.4611C86.0256 33.7838 89.256 28.0632 93.1885 25.7246C97.1211 23.3859 100.351 25.2928 100.351 29.9701Z" fill="#0B8E32"/>
<path d="M122.156 17.8453L117.065 20.8676C116.608 18.9967 115.871 17.3776 114.958 16.0824L118.575 9.67813C119.698 7.6993 119.698 5.54057 118.575 4.89295L116.011 3.38184C114.888 2.73422 113.062 3.7776 111.974 5.79242L108.357 12.1967C106.777 12.0168 105.056 12.1607 103.231 12.7004V6.61993C103.231 4.74903 101.931 3.99348 100.351 4.92893L96.7348 7.08766C95.1547 8.02311 93.8556 10.2898 93.8556 12.1607V18.2051C92.0297 19.8242 90.3092 21.6951 88.7292 23.7459L85.1126 21.6231C83.989 20.9755 82.1631 22.0189 81.0747 24.0337L78.5115 28.603C77.3879 30.5818 77.3879 32.7406 78.5115 33.3882L82.128 35.5109C81.18 37.9215 80.4777 40.4041 80.0213 42.8146L74.93 45.8369C73.3499 46.7723 72.0508 49.039 72.0508 50.9099V55.1914C72.0508 57.0623 73.3499 57.8178 74.93 56.8824L80.0213 53.8601C80.4777 55.731 81.2151 57.3501 82.128 58.6453L78.5115 65.0496C77.3879 67.0284 77.3879 69.1871 78.5115 69.8347L81.0747 71.3459C82.1983 71.9935 84.0241 70.9501 85.1126 68.9353L88.7292 62.531C90.3092 62.7109 92.0297 62.567 93.8556 62.0273V68.0718C93.8556 69.9427 95.1547 70.6982 96.7348 69.7628L100.351 67.6041C101.931 66.6686 103.231 64.4019 103.231 62.531V56.4866C105.056 54.8676 106.777 52.9967 108.357 50.9459L111.974 53.0686C113.097 53.7162 114.923 52.6728 116.047 50.658L118.61 46.0887C119.733 44.1099 119.733 41.9512 118.61 41.3035L114.993 39.1808C115.941 36.7702 116.643 34.2877 117.1 31.8771L122.191 28.8549C123.771 27.9194 125.07 25.6527 125.07 23.7818V19.5004C125 17.6654 123.736 16.9099 122.156 17.8453ZM105.688 33.1363C105.688 37.8136 102.458 43.5342 98.5255 45.8728C94.5578 48.2115 91.3626 46.3046 91.3626 41.6273C91.3626 36.9501 94.5929 31.2295 98.5255 28.8908C102.458 26.5522 105.688 28.4591 105.688 33.1363Z" fill="url(#paint0_linear)"/>
<path d="M40.0284 9.6062L47.0157 13.7438L36.4469 20.0401L32.2686 17.5575L40.0284 9.6062Z" fill="#CFAB1A"/>
<path d="M58.0057 7.80713L65.0282 11.9447L54.4242 18.205L51.6152 16.55L58.0057 7.80713Z" fill="#CFAB1A"/>
<path d="M8.18165 70.3743L18.7856 76.6346L8.18165 82.9309L1.15918 78.7573L8.18165 70.3743Z" fill="#CFAB1A"/>
<path d="M15.4494 87.1045L26.0533 93.3648L15.4494 99.6611L8.56738 95.5595L15.4494 87.1045Z" fill="#CFAB1A"/>
<path d="M36.9032 87.3562L47.5072 93.6165L36.9032 99.9128L29.8105 95.7033L36.9032 87.3562Z" fill="#CFAB1A"/>
<path d="M68.7145 26.5881L75.9477 30.8696L65.3438 37.1299L66.6078 27.2358L68.7145 26.5881Z" fill="#CFAB1A"/>
<path d="M66.1868 26.9479L59.4452 30.9416C58.8483 28.459 57.9003 26.3363 56.6362 24.6093L61.4115 16.1543C62.8862 13.5278 62.8862 10.6855 61.4115 9.82199L58.0056 7.80718C56.5309 6.94369 54.1433 8.34686 52.6685 10.9733L47.8933 19.4283C45.8216 19.1765 43.5393 19.3924 41.1517 20.1119V12.1246C41.1517 9.6421 39.4663 8.63469 37.3596 9.89395L32.5843 12.7363C30.4775 13.9596 28.7921 16.9818 28.7921 19.4283V27.3797C26.4045 29.5384 24.1222 32.0209 22.0506 34.7193L17.2753 31.913C15.8006 31.0495 13.4129 32.4527 11.9382 35.0791L8.5323 41.0876C7.05758 43.714 7.05758 46.5564 8.5323 47.4199L13.3076 50.2262C12.0787 53.4283 11.1306 56.6664 10.4986 59.8685L3.75702 63.8622C1.68539 65.0855 0 68.0717 0 70.5542V76.2389C0 78.7214 1.68539 79.7289 3.79214 78.4696L10.4986 74.4759C11.0955 76.9585 12.0435 79.0812 13.3076 80.8082L8.5323 89.2632C7.05758 91.8897 7.05758 94.732 8.5323 95.5955L11.9031 97.6103C13.3778 98.4738 15.7655 97.0706 17.2402 94.4442L22.0506 85.9892C24.1222 86.241 26.4045 86.0251 28.7921 85.3056V93.2569C28.7921 95.7394 30.4775 96.7468 32.5843 95.4876L37.3947 92.6452C39.5014 91.422 41.1868 88.3997 41.1868 85.9172V77.9659C43.5744 75.8431 45.8567 73.3606 47.9284 70.6622L52.7037 73.4685C54.1784 74.332 56.566 72.9288 58.0407 70.3024L61.4115 64.2939C62.8862 61.6675 62.8862 58.8252 61.4115 57.9617L56.6362 55.1553C57.8652 51.9532 58.8132 48.7151 59.4452 45.513L66.1868 41.5193C68.2935 40.2961 69.9789 37.2738 69.9789 34.7913V29.1066C69.9438 26.6961 68.2584 25.6887 66.1868 26.9479ZM44.4523 47.0961C44.4523 53.2844 40.2037 60.804 35.007 63.8982C29.7753 66.9923 25.5618 64.4738 25.5618 58.2855C25.5618 52.0971 29.8104 44.5775 35.007 41.4834C40.2037 38.4252 44.4523 40.9077 44.4523 47.0961Z" fill="#CFAB1A"/>
<path d="M73.2093 31.0854L66.4677 35.079C65.8708 32.5965 64.9227 30.4737 63.6587 28.7467L68.434 20.2917C69.9087 17.6653 69.9087 14.8229 68.434 13.9594L65.0281 11.9446C63.5534 11.0811 61.1657 12.4843 59.691 15.1108L54.9157 23.5658C52.8441 23.3139 50.5618 23.5298 48.1741 24.2494V16.2981C48.1741 13.8155 46.4888 12.8081 44.382 14.0674L39.6067 16.9097C37.5351 18.133 35.8146 21.1552 35.8146 23.6377V31.5891C33.427 33.7118 31.1447 36.1944 29.073 38.8928L24.2977 36.0864C22.823 35.2229 20.4354 36.6261 18.9607 39.2526L15.5548 45.261C14.08 47.8875 14.08 50.7298 15.5548 51.5933L20.33 54.3996C19.1011 57.6018 18.1531 60.8399 17.5211 64.042L10.8146 67.9996C8.70785 69.2229 7.02246 72.2451 7.02246 74.7277V80.4123C7.02246 82.8949 8.70785 83.9023 10.8146 82.643L17.5562 78.6494C18.1531 81.1319 19.1011 83.2547 20.3652 84.9817L15.5899 93.4367C14.1152 96.0631 14.1152 98.9055 15.5899 99.769L18.9607 101.784C20.4354 102.647 22.823 101.244 24.2977 98.6176L29.073 90.1626C31.1447 90.4145 33.427 90.1986 35.8146 89.479V97.4303C35.8146 99.9129 37.5 100.92 39.6067 99.661L44.4171 96.8187C46.5239 95.5954 48.2093 92.5732 48.2093 90.0906V82.1393C50.5969 80.0166 52.8792 77.534 54.9508 74.8356L59.7261 77.642C61.2008 78.5055 63.5885 77.1023 65.0632 74.4758L68.434 68.4674C69.9087 65.8409 69.9087 62.9986 68.434 62.1351L63.6587 59.3287C64.8876 56.1266 65.8357 52.8885 66.4677 49.6864L73.2093 45.6928C75.316 44.4695 77.0014 41.4473 77.0014 38.9647V33.2801C77.0014 30.8695 75.316 29.8621 73.2093 31.0854ZM51.4747 51.2695C51.4747 57.4578 47.2261 64.9774 42.0295 68.0716C36.7977 71.1658 32.5843 68.6473 32.5843 62.4589C32.5843 56.2705 36.8329 48.751 42.0295 45.6568C47.2261 42.5626 51.4747 45.0811 51.4747 51.2695Z" fill="#FFDA44"/>
</g>
<defs>
<linearGradient id="paint0_linear" x1="98.5606" y1="3.19043" x2="98.5606" y2="71.5373" gradientUnits="userSpaceOnUse">
<stop stop-color="#36BD4D"/>
<stop offset="1" stop-color="#21A637"/>
</linearGradient>
<clipPath id="clip0">
<rect width="125" height="102" fill="white"/>
</clipPath>
</defs>
</svg>
