<svg width="182" height="72" viewBox="0 0 182 72" fill="none" xmlns="http://www.w3.org/2000/svg">
<rect width="172" height="53" rx="26.5" fill="#FFCB07"/>
<path d="M167.442 65.8409C165.635 65.8409 163.726 65.2673 161.421 64.044C159.498 63.0212 155.284 62.4614 153.825 62.3301C153.743 62.3232 153.661 62.3024 153.579 62.2817C153.579 62.2817 153.545 62.2679 153.538 62.2679C152.986 62.0674 152.515 61.6735 152.222 61.1621C151.547 59.9665 151.949 58.4391 153.129 57.748C153.143 57.7411 153.156 57.7342 153.17 57.7273C153.17 57.7273 153.272 57.672 153.279 57.672C153.3 57.6581 153.368 57.6167 153.429 57.589C154.138 57.1744 156.013 56.0617 158.789 56.0617C158.816 56.0617 158.843 56.0617 158.864 56.0617L151.69 43.4281C151.69 43.4281 151.39 42.9098 151.39 42.9029C150.981 42.1772 150.872 41.334 151.083 40.5254C151.295 39.7168 151.813 39.0395 152.529 38.6249C152.999 38.3484 153.531 38.2102 154.07 38.2102C155.175 38.2102 156.204 38.8115 156.757 39.7859L160.18 45.8194C160.391 45.5913 160.63 45.3909 160.903 45.2388C161.373 44.9624 161.905 44.8242 162.444 44.8242C162.676 44.8242 162.914 44.8518 163.139 44.9071C163.412 44.3196 163.883 43.8013 164.503 43.4419C164.987 43.1586 165.54 43.0065 166.092 43.0065C166.392 43.0065 166.685 43.048 166.965 43.1309C167.203 42.737 167.578 42.3292 168.172 41.9837C168.629 41.7142 169.126 41.5828 169.651 41.5828C170.892 41.5828 172.086 42.3776 172.843 43.7184L176.163 49.5376C176.191 49.579 176.218 49.6274 176.245 49.6896C176.307 49.7933 176.361 49.8831 176.416 49.973C177.82 52.4471 178.202 55.2738 177.493 57.9415C176.784 60.6092 175.052 62.8622 172.611 64.2859C170.783 65.3502 169.147 65.8409 167.442 65.8409Z" fill="white"/>
<path d="M153.642 39.6032C154.341 39.6032 155.019 39.961 155.389 40.6024L159.52 47.6913C159.581 47.7925 159.684 47.8466 159.787 47.8466C159.917 47.8466 160.054 47.7655 160.088 47.617C160.212 47.0972 160.547 46.6178 161.054 46.3343C161.369 46.152 161.712 46.071 162.054 46.071C162.424 46.071 162.794 46.1722 163.116 46.368C163.171 46.4018 163.226 46.4153 163.28 46.4153C163.431 46.4153 163.575 46.3005 163.582 46.1385C163.623 45.5173 164.027 44.9435 164.664 44.5789C164.993 44.3899 165.356 44.3021 165.712 44.3021C166.116 44.3021 166.507 44.4169 166.836 44.6464C166.89 44.6869 166.952 44.7004 167.014 44.7004C167.158 44.7004 167.288 44.5992 167.315 44.4439C167.404 43.9443 167.747 43.4919 168.343 43.1544C168.637 42.9856 168.959 42.9046 169.281 42.9046C170.103 42.9046 170.953 43.4379 171.542 44.4506L174.871 50.1555C174.884 50.1825 174.905 50.2163 174.919 50.2433C174.926 50.2635 174.932 50.277 174.946 50.2973C175.008 50.3918 175.063 50.4863 175.117 50.5808C177.727 55.057 176.241 60.5121 171.699 63.0911C170.083 64.0092 168.603 64.4683 167.062 64.4683C165.383 64.4683 163.623 63.9215 161.527 62.8413C158.979 61.5248 153.485 61.0454 153.485 61.0454L153.471 61.0387C153.17 60.9374 152.91 60.7281 152.738 60.4378C152.355 59.7829 152.588 58.9525 153.245 58.5812L153.334 58.5339C153.725 58.3449 155.533 57.0756 158.383 57.0756C158.773 57.0756 159.177 57.0959 159.602 57.1499C159.623 57.1499 159.643 57.1566 159.657 57.1566C159.979 57.1566 160.198 56.8056 160.027 56.522L158.383 53.7067L157.931 52.9303L157.787 52.6805L152.204 43.1139L151.903 42.6075C151.348 41.6556 151.676 40.4403 152.642 39.9002C152.957 39.6909 153.3 39.6032 153.642 39.6032ZM153.642 37.4427C152.91 37.4427 152.183 37.6318 151.546 37.9964C150.574 38.55 149.875 39.4411 149.587 40.5146C149.3 41.5813 149.443 42.702 150.005 43.6607C150.005 43.6675 150.012 43.6675 150.012 43.6742L150.306 44.1738L155.889 53.7337L156.033 53.9835L156.485 54.7599L156.636 55.0232C154.512 55.3405 153.067 56.1709 152.444 56.5288C152.409 56.549 152.362 56.576 152.334 56.5895C152.327 56.5895 152.327 56.5963 152.32 56.5963L152.231 56.6435C152.204 56.657 152.177 56.6705 152.149 56.6908C150.443 57.6562 149.854 59.8167 150.834 61.4978C151.259 62.2269 151.937 62.7805 152.738 63.0573C152.752 63.0641 152.773 63.0708 152.786 63.0708L152.8 63.0776C152.957 63.1316 153.122 63.1653 153.293 63.1788C155.252 63.3476 158.944 63.9215 160.513 64.7316C162.986 66.0144 165.068 66.6085 167.069 66.6085C168.98 66.6085 170.795 66.0819 172.802 64.9477C175.508 63.4151 177.426 60.9779 178.22 58.0951C179.008 55.2123 178.59 52.1539 177.029 49.4871C176.981 49.4061 176.926 49.3183 176.871 49.2238C176.837 49.1563 176.809 49.1023 176.782 49.055L173.453 43.3569C172.494 41.7096 170.939 40.7306 169.295 40.7306C168.589 40.7306 167.884 40.9197 167.26 41.2708C166.829 41.5138 166.452 41.8109 166.137 42.1484C166 42.1349 165.856 42.1282 165.712 42.1282C164.966 42.1282 164.226 42.324 163.568 42.6953C163.006 43.0126 162.541 43.4244 162.178 43.9038C162.137 43.9038 162.089 43.9038 162.047 43.9038C161.376 43.9038 160.705 44.0658 160.109 44.3696L157.287 39.5289C156.54 38.2394 155.143 37.4427 153.642 37.4427Z" fill="#010101"/>
<path d="M167.278 71.2135C166.452 71.2135 165.689 70.7856 165.273 70.0996L164.334 68.5306C164.024 68.0144 163.946 67.4167 164.109 66.8462C164.271 66.2756 164.652 65.7934 165.188 65.5013L176.509 59.2321C176.862 59.0351 177.257 58.9332 177.66 58.9332C178.485 58.9332 179.248 59.3611 179.664 60.0471L180.603 61.6162C180.913 62.1324 180.991 62.7301 180.829 63.3006C180.666 63.8712 180.285 64.3534 179.749 64.6455L168.428 70.9147C168.075 71.1117 167.68 71.2135 167.278 71.2135Z" fill="white"/>
<path d="M177.465 59.5912C177.859 59.5912 178.24 59.7968 178.45 60.1669L179.354 61.7499C179.666 62.2981 179.476 62.9971 178.939 63.3123L168.042 69.6375C167.865 69.7403 167.668 69.7883 167.478 69.7883C167.084 69.7883 166.703 69.5827 166.493 69.2126L165.589 67.6296C165.276 67.0814 165.467 66.3824 166.003 66.0672L176.901 59.742C177.078 59.6392 177.275 59.5912 177.465 59.5912ZM177.465 57.3983C176.888 57.3983 176.317 57.5491 175.814 57.8438L164.916 64.1689C164.149 64.6144 163.605 65.3339 163.374 66.1905C163.143 67.054 163.259 67.9517 163.7 68.7261L164.604 70.3091C165.195 71.3439 166.289 71.9812 167.471 71.9812C168.048 71.9812 168.619 71.8304 169.122 71.5358L180.02 65.2106C180.788 64.7651 181.331 64.0456 181.562 63.189C181.793 62.3255 181.678 61.4278 181.236 60.6534L180.332 59.0704C179.741 58.0356 178.647 57.3983 177.465 57.3983Z" fill="#010101"/>
<path d="M151.745 30.3026L150.978 28" stroke="black" stroke-width="2.5" stroke-miterlimit="10" stroke-linecap="round" stroke-linejoin="round"/>
<path d="M144.838 34.1401L143.303 32.6051" stroke="black" stroke-width="2.5" stroke-miterlimit="10" stroke-linecap="round" stroke-linejoin="round"/>
<path d="M142.303 41.0479L140 41.8154" stroke="black" stroke-width="2.5" stroke-miterlimit="10" stroke-linecap="round" stroke-linejoin="round"/>
<path d="M159.42 29.535L157.885 31.8376" stroke="black" stroke-width="2.5" stroke-miterlimit="10" stroke-linecap="round" stroke-linejoin="round"/>
<path d="M48.2598 29.4746H42.6006L41.3296 33H39.4927L44.6509 19.4922H46.2095L51.377 33H49.5493L48.2598 29.4746ZM43.1387 28.0088H47.731L45.4302 21.6909L43.1387 28.0088ZM52.5088 27.8975C52.5088 26.3574 52.8737 25.1204 53.6035 24.1865C54.3333 23.2464 55.2889 22.7764 56.4702 22.7764C57.6453 22.7764 58.5762 23.1784 59.2627 23.9824V18.75H60.979V33H59.4019L59.3184 31.9238C58.6318 32.765 57.6763 33.1855 56.4517 33.1855C55.2889 33.1855 54.3395 32.7093 53.6035 31.7568C52.8737 30.8044 52.5088 29.5612 52.5088 28.0273V27.8975ZM54.2251 28.0923C54.2251 29.2303 54.4601 30.1209 54.9302 30.7642C55.4002 31.4074 56.0496 31.729 56.8784 31.729C57.967 31.729 58.7617 31.2404 59.2627 30.2632V25.6523C58.7493 24.7061 57.9608 24.2329 56.897 24.2329C56.0558 24.2329 55.4002 24.5576 54.9302 25.207C54.4601 25.8564 54.2251 26.8182 54.2251 28.0923ZM63.2334 27.8975C63.2334 26.3574 63.5983 25.1204 64.3281 24.1865C65.0579 23.2464 66.0135 22.7764 67.1948 22.7764C68.37 22.7764 69.3008 23.1784 69.9873 23.9824V18.75H71.7036V33H70.1265L70.043 31.9238C69.3564 32.765 68.4009 33.1855 67.1763 33.1855C66.0135 33.1855 65.0641 32.7093 64.3281 31.7568C63.5983 30.8044 63.2334 29.5612 63.2334 28.0273V27.8975ZM64.9497 28.0923C64.9497 29.2303 65.1847 30.1209 65.6548 30.7642C66.1248 31.4074 66.7743 31.729 67.603 31.729C68.6916 31.729 69.4863 31.2404 69.9873 30.2632V25.6523C69.474 24.7061 68.6854 24.2329 67.6216 24.2329C66.7804 24.2329 66.1248 24.5576 65.6548 25.207C65.1847 25.8564 64.9497 26.8182 64.9497 28.0923ZM81.417 20.5312V22.9619H83.291V24.2886H81.417V30.5137C81.417 30.9157 81.5005 31.2188 81.6675 31.4229C81.8345 31.6208 82.119 31.7197 82.521 31.7197C82.7189 31.7197 82.991 31.6826 83.3374 31.6084V33C82.8859 33.1237 82.4468 33.1855 82.02 33.1855C81.2531 33.1855 80.6748 32.9536 80.2852 32.4897C79.8955 32.0259 79.7007 31.3672 79.7007 30.5137V24.2886H77.873V22.9619H79.7007V20.5312H81.417ZM84.6641 27.8882C84.6641 26.9048 84.8558 26.0203 85.2393 25.2349C85.6289 24.4494 86.167 23.8433 86.8535 23.4165C87.5462 22.9897 88.3348 22.7764 89.2192 22.7764C90.5861 22.7764 91.6901 23.2495 92.5312 24.1958C93.3786 25.1421 93.8022 26.4007 93.8022 27.9717V28.0923C93.8022 29.0695 93.6136 29.9478 93.2363 30.7271C92.8652 31.5002 92.3302 32.1032 91.6313 32.5361C90.9386 32.9691 90.1408 33.1855 89.2378 33.1855C87.8771 33.1855 86.7731 32.7124 85.9258 31.7661C85.0846 30.8198 84.6641 29.5674 84.6641 28.0088V27.8882ZM86.3896 28.0923C86.3896 29.2056 86.6463 30.0993 87.1597 30.7734C87.6792 31.4476 88.3719 31.7847 89.2378 31.7847C90.1099 31.7847 90.8026 31.4445 91.3159 30.7642C91.8293 30.0776 92.0859 29.119 92.0859 27.8882C92.0859 26.7873 91.8231 25.8966 91.2974 25.2163C90.7778 24.5298 90.0851 24.1865 89.2192 24.1865C88.3719 24.1865 87.6885 24.5236 87.1689 25.1978C86.6494 25.8719 86.3896 26.8368 86.3896 28.0923ZM104.694 31.7847C105.306 31.7847 105.841 31.5991 106.299 31.228C106.757 30.8569 107.01 30.3931 107.06 29.8364H108.683C108.652 30.4116 108.454 30.959 108.089 31.4785C107.724 31.998 107.236 32.4124 106.624 32.7217C106.017 33.0309 105.374 33.1855 104.694 33.1855C103.327 33.1855 102.238 32.731 101.428 31.8218C100.624 30.9064 100.222 29.6571 100.222 28.0737V27.7861C100.222 26.8089 100.402 25.9399 100.76 25.1792C101.119 24.4185 101.632 23.8278 102.3 23.4072C102.974 22.9867 103.769 22.7764 104.685 22.7764C105.81 22.7764 106.744 23.1134 107.486 23.7876C108.235 24.4618 108.634 25.3369 108.683 26.4131H107.06C107.01 25.7637 106.763 25.2318 106.317 24.8174C105.878 24.3968 105.334 24.1865 104.685 24.1865C103.812 24.1865 103.135 24.502 102.653 25.1328C102.177 25.7575 101.938 26.6636 101.938 27.8511V28.1758C101.938 29.3324 102.177 30.223 102.653 30.8477C103.129 31.4723 103.809 31.7847 104.694 31.7847ZM116.81 33C116.711 32.8021 116.631 32.4495 116.569 31.9424C115.771 32.7712 114.819 33.1855 113.711 33.1855C112.722 33.1855 111.909 32.9072 111.271 32.3506C110.641 31.7878 110.325 31.0765 110.325 30.2168C110.325 29.1715 110.721 28.3613 111.513 27.7861C112.311 27.2048 113.43 26.9141 114.871 26.9141H116.541V26.1255C116.541 25.5256 116.362 25.0493 116.003 24.6968C115.644 24.3381 115.115 24.1587 114.417 24.1587C113.804 24.1587 113.291 24.3133 112.876 24.6226C112.462 24.9318 112.255 25.306 112.255 25.7451H110.529C110.529 25.2441 110.706 24.7617 111.058 24.2979C111.417 23.8278 111.899 23.4567 112.505 23.1846C113.118 22.9124 113.789 22.7764 114.519 22.7764C115.675 22.7764 116.581 23.0671 117.237 23.6484C117.892 24.2236 118.233 25.0184 118.257 26.0327V30.6528C118.257 31.5744 118.375 32.3073 118.61 32.8516V33H116.81ZM113.962 31.6919C114.5 31.6919 115.01 31.5527 115.493 31.2744C115.975 30.9961 116.325 30.6343 116.541 30.189V28.1294H115.196C113.093 28.1294 112.042 28.7448 112.042 29.9756C112.042 30.5137 112.221 30.9342 112.58 31.2373C112.938 31.5404 113.399 31.6919 113.962 31.6919ZM125.8 24.502C125.54 24.4587 125.259 24.437 124.956 24.437C123.83 24.437 123.066 24.9163 122.664 25.875V33H120.948V22.9619H122.618L122.646 24.1216C123.208 23.2248 124.006 22.7764 125.039 22.7764C125.373 22.7764 125.627 22.8197 125.8 22.9062V24.502ZM130.179 20.5312V22.9619H132.053V24.2886H130.179V30.5137C130.179 30.9157 130.262 31.2188 130.429 31.4229C130.596 31.6208 130.881 31.7197 131.283 31.7197C131.481 31.7197 131.753 31.6826 132.099 31.6084V33C131.648 33.1237 131.208 33.1855 130.782 33.1855C130.015 33.1855 129.437 32.9536 129.047 32.4897C128.657 32.0259 128.462 31.3672 128.462 30.5137V24.2886H126.635V22.9619H128.462V20.5312H130.179Z" fill="#222222"/>
</svg>
