<svg width="250" height="86" viewBox="0 0 250 86" fill="none" xmlns="http://www.w3.org/2000/svg">
<path fill-rule="evenodd" clip-rule="evenodd" d="M5.85764 34C-10.533 29.2189 12.1901 10.7541 16.8469 6.72374C22.0625 3.34928 29.0473 -3.11845 35.7521 1.75556C35.7521 6.72374 31.9341 3.81751 29.4189 3.81751C23.2723 6.91077 4.18062 21.2522 5.11237 28.7506C7.44043 32.3121 25.1351 27.1569 29.326 26.3133C34.3551 25.7509 34.3551 25.7509 38.546 25.7509C39.943 28.0947 39.943 28.0947 40.5018 29.9683C40.3035 30.0744 40.1414 30.238 40.0365 30.4378C28.2084 31.0009 17.0327 33.2506 5.85764 34ZM100.641 32.1685C98.2537 29.4869 96.9183 27.2372 95.5213 24.8934C93.911 25.7258 93.1841 26.8177 92.1548 27.7002C91.829 28.8138 91.8611 30.5478 91.6294 31.8281C90.5112 31.9222 89.4839 31.7135 88.367 31.8077C88.2734 28.9021 88.4233 25.6646 88.4233 22.759C84.9776 28.3825 83.3405 31.5633 76.4499 29.126C75.4253 26.5023 75.0517 25.0021 74.96 23.1272C74.68 23.1272 74.4006 23.1272 74.1219 23.2213C71.1415 27.7206 66.6712 34.4696 61.3627 28.4707C56.5201 31.94 53.9126 32.6895 50.5599 28.283C44.5068 32.3141 42.3646 31.3763 40.6882 25.1911C40.9676 18.6299 41.8058 8.69349 45.4379 3.913H46.9278L49.1629 6.44385C48.6971 10.2866 43.1099 24.1591 45.9038 26.9712C51.9569 26.9712 53.9041 16.0898 64.0559 18.9954C64.7409 20.836 63.1163 27.0963 66.7981 26.9982C69.2708 26.9323 71.7526 19.3398 72.4455 17.3167C74.559 16.8366 76.3577 19.0981 78.5928 20.6918C78.6864 22.3784 78.6864 23.5974 79.8033 25.847C85.0189 25.847 87.4405 16.8484 89.2091 13.0051C89.6756 10.8496 90.2338 8.6935 90.7925 6.63089C92.0959 6.4432 93.1213 5.50606 94.1459 8.03691C93.773 12.1615 92.306 17.8356 92.569 22.9619C94.8042 21.0863 102.062 13.5675 105.507 14.2234C105.6 16.1919 105.6 16.1919 105.32 17.8798C101.916 19.1495 99.8862 20.9539 98.7117 22.2091C98.5914 24.6656 103.356 27.6232 103.355 29.9564C103.353 30.6973 102.744 31.342 101.875 32.2206C101.603 32.4926 100.923 32.4866 100.641 32.1685ZM105.225 31.5627C104.389 30.4385 104.389 30.2508 104.574 29.5007C106.437 28.8448 109.138 28.3752 110.628 26.4075C109.696 23.4077 105.319 25.5638 105.319 20.6898C107.275 17.3147 110.628 15.9093 114.633 17.0342C114.725 17.5966 114.818 18.1583 114.911 18.8143C112.583 19.4702 111.279 18.7201 109.696 19.9397C109.696 21.814 112.397 21.6263 114.633 23.2194C116.681 29.5007 109.696 30.8132 105.225 31.5627ZM57.0422 27.8135C55.7611 27.8569 54.9759 26.7756 54.9942 25.9392C55.0518 23.3076 59.1707 21.2779 60.2176 21.8054C60.3112 23.2115 60.2085 24.4489 60.302 25.9484C59.8362 26.3113 58.4399 27.7674 57.0422 27.8135Z" fill="black"/>
<path d="M139.872 84.9137C137.805 84.3572 136.439 83.2894 135.573 81.5551C135.054 80.5153 134.62 78.7093 134.615 77.5674C134.613 76.8511 134.634 76.8198 135.09 76.8723C135.549 76.9251 135.573 76.9786 135.693 78.1748C135.996 81.2137 137.198 82.9568 139.59 83.8277C140.907 84.3069 143.92 84.3473 145.418 83.9058C146.529 83.5783 147.714 82.7522 148.282 81.9096C149.202 80.5447 149.131 78.3996 148.128 77.2575C147.382 76.4074 145.461 75.5595 143.04 75.0115C137.055 73.6566 135.536 72.5921 135.345 69.6212C135.165 66.8156 136.54 64.979 139.391 64.2174C140.517 63.9168 143.832 63.9185 144.965 64.2203C147.131 64.7968 148.643 66.4543 149.298 68.9673C149.656 70.3437 149.641 70.4436 149.082 70.3789C148.668 70.3309 148.583 70.2141 148.412 69.4551C147.952 67.4132 146.922 66.05 145.317 65.3564C143.594 64.6122 140.203 64.7242 138.486 65.5818C136.845 66.4013 135.975 68.1717 136.343 69.9434C136.766 71.9805 138.098 72.8051 142.838 73.9644C146.555 74.8735 147.803 75.4186 148.823 76.5774C149.668 77.537 149.987 78.6642 149.86 80.2423C149.672 82.593 147.993 84.2138 145.022 84.9142C143.641 85.2396 141.081 85.2393 139.872 84.9137Z" fill="black"/>
<path d="M206.899 85.0013C204.36 84.3981 202.115 82.4558 200.973 79.8739C199.726 77.0561 199.811 72.0179 201.155 68.9973C202.155 66.7518 204.068 65.0287 206.343 64.326C207.678 63.9138 210.51 63.8579 211.855 64.2172C214.428 64.9047 216.313 66.7647 217.135 69.4298C217.337 70.085 217.502 70.6519 217.502 70.6896C217.502 70.7273 217.273 70.7582 216.993 70.7582C216.524 70.7582 216.462 70.6813 216.198 69.7732C215.238 66.4708 212.497 64.6817 208.727 64.8964C206.611 65.0169 205.409 65.502 204.029 66.7927C202.825 67.9191 202.086 69.1772 201.495 71.1058C201.172 72.162 201.095 72.8208 201.09 74.5812C201.082 77.6214 201.641 79.5181 203.124 81.4828C205.757 84.9728 211.715 85.2234 214.689 81.9693C215.692 80.8724 216.612 78.8515 216.76 77.4244C216.851 76.5376 216.88 76.4927 217.353 76.4927C217.781 76.4927 217.85 76.56 217.85 76.9776C217.85 77.7643 217.36 79.4542 216.795 80.6153C215.744 82.7756 213.867 84.2912 211.482 84.9061C210.352 85.1975 207.936 85.2476 206.899 85.0013Z" fill="black"/>
<path d="M151.818 64.3271V74.5907V84.8596L152.296 84.7999L152.774 84.7456L152.817 80.0102L152.866 75.2749L156.64 75.2695C158.717 75.2671 160.761 75.1869 161.18 75.0903C162.432 74.8017 163.806 74.0331 164.411 73.2819C165.325 72.1475 165.599 71.1831 165.513 69.4155C165.402 67.0976 164.808 66.1104 162.907 65.0548C161.864 64.4758 160.492 64.3271 156.043 64.3271H151.818ZM152.861 65.1634L156.901 65.2395C161.429 65.3212 162.362 65.5035 163.368 66.5102C164.249 67.3906 164.547 68.206 164.547 69.7467C164.547 70.8473 164.466 71.2642 164.123 71.9297C163.652 72.8455 162.572 73.7624 161.587 74.0802C161.191 74.208 159.371 74.3182 156.901 74.3626L152.861 74.4332V69.801V65.1634Z" fill="black"/>
<path d="M167.456 74.5813V64.3286H173.972H180.489V64.763V65.1975H174.407H168.324V69.5418V73.8862H173.972H179.62V74.3206V74.755H173.972H168.324V79.2731V83.7913H174.407H180.489V84.3126V84.8339H173.972H167.456V74.5813Z" fill="black"/>
<path d="M182.516 84.7183C182.453 84.6546 182.4 80.0409 182.4 74.4656V64.3288H182.992C183.662 64.3288 183.239 63.8099 188.059 70.5459C189.582 72.675 190.985 74.6767 191.176 74.994C191.367 75.3113 192.775 77.3153 194.304 79.4474L197.084 83.3238L197.129 73.8263L197.174 64.3288H197.607H198.04V74.5815V84.8341H197.534C197.074 84.8341 196.796 84.5075 194.465 81.2283C193.055 79.2451 191.484 77.0581 190.974 76.3681C190.464 75.6782 190.046 75.0655 190.046 75.0064C190.046 74.9474 188.771 73.1268 187.212 70.9607C185.653 68.7946 184.187 66.7095 183.954 66.3272L183.53 65.6321L183.485 75.2331L183.44 84.8341H183.036C182.814 84.8341 182.58 84.782 182.516 84.7183Z" fill="black"/>
<path d="M219.762 74.5813V64.3286H226.191H232.621V64.763V65.1975H226.626H220.631V69.5418V73.8862H226.278H231.926V74.3206V74.755H226.278H220.631V79.2731V83.7913H226.713H232.795V84.3126V84.8339H226.278H219.762V74.5813Z" fill="black"/>
<path d="M234.882 64.3055V74.569V84.8326H235.316H235.751V79.7931V74.7537H238.575C241.39 74.754 241.399 74.7554 241.659 75.1827C241.802 75.4184 243.484 77.6857 245.395 80.2167C248.673 84.5568 248.903 84.8189 249.435 84.8271C249.746 84.8319 250 84.7994 250 84.7565C250 84.7136 248.312 82.4459 246.253 79.7171L242.512 74.7537H243.456C244.71 74.7537 246.619 74.1476 247.459 73.483C248.49 72.6666 249.028 71.3506 249.034 69.6274C249.04 67.7674 248.647 66.6544 247.66 65.7446C246.363 64.5497 245.777 64.4448 239.965 64.3707L234.882 64.3055ZM235.838 65.283H240.269C245.248 65.2834 246.004 65.4182 246.992 66.4614C247.778 67.2922 247.938 67.7091 248.04 69.1929C248.121 70.3829 248.082 70.6487 247.687 71.5117C247.167 72.6474 246.162 73.3995 244.76 73.7002C243.471 73.9766 235.935 73.9497 235.827 73.6676C235.78 73.5461 235.763 71.6107 235.789 69.3667L235.838 65.283Z" fill="black"/>
<path d="M218.934 60.8527C215.953 60.2252 214.169 58.2682 213.583 54.9822C213.21 52.8885 213.234 52.6859 213.854 52.6859C214.351 52.6859 214.375 52.7202 214.377 53.4244C214.381 54.3908 214.807 56.1736 215.235 57.0125C216.432 59.3599 219.147 60.4622 222.661 60.0273C226.032 59.6101 227.79 58.0402 227.79 55.4468C227.79 54.6612 227.686 54.249 227.338 53.6545C226.51 52.2426 225.613 51.8192 221.046 50.6849C216.401 49.5314 214.934 48.6747 214.313 46.7538C213.513 44.2772 214.591 41.6184 216.817 40.5788C218.945 39.5844 223.127 39.5541 224.983 40.5196C226.756 41.442 227.916 43.1938 228.349 45.6046C228.462 46.2324 228.448 46.2562 227.972 46.2562C227.505 46.2562 227.465 46.1951 227.254 45.1763C226.856 43.2459 225.952 42.0928 224.193 41.2701C223.217 40.8135 223.012 40.7834 220.978 40.7978C218.655 40.8143 217.847 41.005 216.593 41.8326C214.866 42.9729 214.544 46.0648 215.991 47.618C216.696 48.3756 218.357 49.0475 221.213 49.7316C224.385 50.4912 224.751 50.5988 225.844 51.0937C227.88 52.0157 228.891 53.6513 228.762 55.8138C228.678 57.2273 228.261 58.1078 227.186 59.1425C225.887 60.3925 224.398 60.8904 221.76 60.9564C220.613 60.9852 219.342 60.9385 218.934 60.8527Z" fill="black"/>
<path d="M240.491 39.8251C238.964 39.8251 238.137 40.1021 237.206 40.922C236.052 41.9377 235.697 42.7505 235.789 44.1531C235.851 45.1124 235.979 45.4959 236.587 46.5154C236.986 47.1844 237.585 48.0906 237.917 48.53L238.526 49.3337L237.163 50.2298C235.517 51.3128 234.261 52.5279 233.823 53.4663C233.409 54.3534 233.373 56.5867 233.758 57.5065C234.459 59.1863 235.925 60.2928 238.27 60.9168C238.461 60.9677 239.243 60.9857 240.008 60.9549C241.812 60.8821 243.248 60.25 244.722 58.8859C245.307 58.3436 245.855 57.899 245.938 57.8975C246.021 57.896 246.677 58.525 247.393 59.2986C248.537 60.5322 248.741 60.6894 249.088 60.5584C249.477 60.4115 249.471 60.3918 248.74 59.5538C248.332 59.0856 247.665 58.3451 247.258 57.9084C246.85 57.4717 246.553 56.9983 246.595 56.8549C246.637 56.7115 246.877 56.0929 247.133 55.481C247.389 54.8691 247.613 54.0089 247.627 53.5695C247.649 52.8844 247.602 52.7712 247.312 52.7712C247.035 52.7712 246.938 52.9626 246.78 53.8139C246.673 54.3873 246.429 55.1936 246.237 55.6059L245.884 56.3553L244.423 54.737C243.619 53.8469 242.913 53.0797 242.854 53.0319C242.387 52.6565 239.923 49.6321 239.97 49.4912C240.031 49.3095 240.505 48.9934 241.713 48.3346C242.673 47.8111 244.375 46.1023 244.689 45.3478C245.067 44.4396 245.031 43.1048 244.602 42.1927C243.896 40.6898 242.399 39.8251 240.491 39.8251ZM240.432 40.6939C241.498 40.6939 241.765 40.7629 242.544 41.2424C243.57 41.874 244.08 42.7758 244.086 43.9631C244.094 45.4348 243.06 46.6764 240.633 48.1228C239.951 48.529 239.37 48.8613 239.34 48.8613C239.14 48.8613 237.692 46.8325 237.206 45.8691C236.504 44.4793 236.445 43.5325 236.989 42.5186C237.665 41.2574 238.728 40.6939 240.432 40.6939ZM238.819 50.0234C238.941 49.9501 239.952 50.9704 241.42 52.6409C242.743 54.146 244.138 55.7191 244.521 56.1326C244.904 56.5462 245.243 56.9556 245.276 57.045C245.354 57.2628 244.002 58.6057 243.136 59.1683C242.754 59.4166 241.973 59.7429 241.404 59.8905C239.119 60.4823 237.024 60.0052 235.588 58.5655C234.789 57.7652 234.344 56.6972 234.317 55.5081C234.272 53.5265 235.528 51.9988 238.819 50.0234Z" fill="#DFD21D"/>
<path d="M135.481 50.4169V40.1543L136.185 40.2077L136.889 40.2612L137.676 41.9989C138.767 44.4113 140.953 49.1936 141.725 50.8614C142.079 51.626 143.101 53.8351 143.996 55.7705C144.891 57.7059 145.682 59.2894 145.754 59.2894C145.826 59.2894 145.939 59.1134 146.005 58.8984C146.071 58.6833 147.707 55.0667 149.64 50.8614C151.573 46.656 153.459 42.5331 153.832 41.6993C154.508 40.1861 154.511 40.1832 155.161 40.1787L155.813 40.1743V50.4269V60.6796H155.38H154.947L154.902 51.1827L154.857 41.6858L154.336 42.9106C154.049 43.5843 152.094 47.86 149.992 52.4122L146.169 60.6889L145.656 60.6408C145.175 60.5957 145.069 60.4305 143.945 57.9861C143.286 56.5524 142.38 54.5975 141.931 53.6417C141.483 52.686 140.063 49.617 138.776 46.8218L136.437 41.7397L136.392 51.2096L136.347 60.6796H135.914H135.481V50.4169Z" fill="black"/>
<path d="M167.452 39.9989C167.084 39.9989 166.911 40.1313 166.703 40.5691C166.398 41.2107 166.035 42.085 165.964 42.3448C165.938 42.4404 165.24 44.0044 164.411 45.8203C163.582 47.6363 162.683 49.6694 162.413 50.3384C162.142 51.0075 161.062 53.4482 160.013 55.758C158.963 58.0678 158.05 60.1205 157.987 60.3196C157.889 60.6295 157.947 60.678 158.378 60.678C158.939 60.678 158.731 61.0467 160.691 56.5508L161.772 54.0746H167.441H173.105L173.887 55.8557C174.315 56.8354 174.936 58.3016 175.272 59.114C175.852 60.5165 175.916 60.598 176.467 60.6508C177.197 60.7209 177.295 61.0346 174.897 55.758C173.848 53.4482 172.769 51.0075 172.497 50.3384C172.225 49.6694 171.325 47.6363 170.499 45.8203C169.672 44.0044 168.978 42.4404 168.956 42.3448C168.935 42.2493 168.695 41.6823 168.424 41.085C167.993 40.1356 167.87 39.9989 167.452 39.9989ZM167.463 41.3891C167.54 41.3891 167.758 41.7996 167.946 42.3014C168.134 42.8032 168.934 44.6604 169.722 46.4285C170.51 48.1967 171.288 49.9952 171.454 50.4253C171.621 50.8554 171.96 51.6569 172.209 52.2065L172.665 53.2057H167.436C163.32 53.2057 162.223 53.1594 162.293 52.9885C162.481 52.5336 163.574 50.0261 165.193 46.3416C166.117 44.239 166.976 42.2645 167.099 41.9539C167.223 41.6432 167.386 41.3891 167.463 41.3891Z" fill="black"/>
<path d="M179.014 40.1726L179.057 50.4253L179.106 60.6779H179.535H179.969V55.6385V50.599H183.081H186.193L189.967 55.6385C193.631 60.5333 193.753 60.6779 194.333 60.6779C194.767 60.6779 194.897 60.6183 194.8 60.4607C194.621 60.171 188.955 52.6593 188.082 51.5548L187.393 50.6859L188.761 50.5773C190.546 50.4366 191.823 49.8695 192.764 48.8016C193.681 47.7596 193.933 46.8529 193.839 44.8862C193.774 43.5399 193.694 43.2199 193.247 42.4968C192.963 42.038 192.421 41.4495 192.041 41.1881C190.794 40.3304 189.56 40.1726 184.015 40.1726H179.014ZM179.969 41.0415L184.183 41.0469C187.215 41.0491 188.731 41.1186 189.598 41.3021C192.003 41.8117 192.874 42.9176 192.899 45.489C192.912 46.7549 192.865 46.9758 192.394 47.7481C191.985 48.4195 191.648 48.713 190.83 49.1219L189.788 49.6433L184.879 49.6976L179.969 49.7573V45.3967V41.0415Z" fill="black"/>
<path d="M197.171 50.37V40.0605L197.649 40.1306L198.127 40.2007L198.079 46.2136L198.031 52.2265L198.426 51.895C198.644 51.7126 199.447 50.9738 200.212 50.2531C200.977 49.5325 202.499 48.1233 203.595 47.1216C204.692 46.12 206.815 44.147 208.315 42.7373C210.908 40.2991 211.075 40.1741 211.75 40.1741H212.46L211.375 41.1651C210.779 41.7101 210.095 42.3559 209.856 42.6002C209.617 42.8444 208.112 44.2473 206.511 45.7178C204.598 47.474 203.651 48.4573 203.75 48.5836C204.158 49.1032 212.224 58.9617 212.82 59.669C213.197 60.1169 213.506 60.5274 213.506 60.5813C213.506 60.6353 213.243 60.6794 212.922 60.6794C212.408 60.6794 212.224 60.535 211.366 59.4586C210.831 58.7872 208.698 56.1649 206.625 53.6314L202.857 49.025L201.621 50.2098C199.826 51.931 198.793 52.873 198.392 53.1537C198.057 53.3884 198.04 53.5804 198.04 57.04V60.6794H197.605H197.171V50.37Z" fill="black"/>
<path fill-rule="evenodd" clip-rule="evenodd" d="M79.7548 76.012C78.024 77.8807 75.8013 78.8299 73.1496 78.8299C70.4968 78.8299 68.2741 77.8807 66.5443 76.012C64.8923 74.232 63.9429 71.3856 63.9429 68.2056C63.9429 65.1016 64.9027 62.2943 66.5727 60.5016C68.3202 58.6329 70.5325 57.6795 73.1475 57.6722C75.7667 57.6795 77.9789 58.6329 79.7254 60.5016C81.3975 62.2943 82.3552 65.1016 82.3552 68.2056C82.3552 71.3856 81.4069 74.232 79.7548 76.012ZM56.5311 68.2056C56.5311 68.3492 56.5374 68.4907 56.5416 68.6321C53.8877 66.2007 50.0507 65.2959 47.7062 64.824C43.3688 63.9033 40.0552 63.0608 40.0552 59.9526C40.0552 57.7598 42.0063 56.1645 45.7542 56.438C49.179 56.6882 50.6213 58.7955 51.0167 60.8289C51.0734 61.1625 51.2265 61.4054 51.6041 61.4085L57.7636 61.4613C57.793 61.4613 57.8181 61.4582 57.8444 61.456C56.9758 63.4947 56.5311 65.7647 56.5311 68.2056ZM46.0552 79.6101C43.0762 79.6101 39.794 78.5448 39.0377 74.4231C38.9737 74.0293 38.7891 73.8667 38.4891 73.8582L32.5342 73.778V63.1833C33.3168 66.2883 35.9087 68.4379 41.5143 69.708C45.2664 70.6117 51.7751 71.1861 51.7751 75.0629C51.7751 77.7656 49.7979 79.6734 46.0552 79.6101ZM16.3951 78.8341C11.5909 78.8341 7.1895 75.028 7.1895 68.2098C7.1895 62.8602 10.4895 57.6764 16.4266 57.6764C18.9986 57.6764 25.5199 58.5632 25.5199 68.2098C25.5199 77.8818 18.7112 78.8341 16.394 78.8341H16.3951ZM89.5898 65.6073C90.9566 67.4423 93.4237 68.8011 97.4317 69.709C101.183 70.6128 107.693 71.1871 107.693 75.0639C107.693 77.7667 105.714 79.6745 101.973 79.6111C98.9947 79.6111 95.7104 78.5459 94.9552 74.4241C94.8922 74.0303 94.7076 73.8677 94.4066 73.8593L88.8891 73.7854C89.4712 72.0571 89.7681 70.1852 89.7681 68.2067C89.7678 67.3371 89.7082 66.4687 89.5898 65.6073ZM101.566 85.0061C108.173 85.0061 115.96 82.5303 115.351 74.5001C114.678 67.3715 107.308 65.5662 103.624 64.825C99.2852 63.9044 95.9716 63.0619 95.9716 59.9537C95.9716 57.7608 97.9226 56.1656 101.672 56.439C105.096 56.6892 106.539 58.7966 106.934 60.83C106.991 61.1636 107.145 61.4064 107.522 61.4096L113.681 61.4624C114.15 61.4655 114.296 61.2206 114.237 60.8849C113.031 53.4543 106.863 51.3523 101.187 51.3523C95.5195 51.3523 88.6908 52.955 88.2062 60.0508C88.1894 60.3253 88.1831 60.5956 88.1831 60.8606C87.281 58.9729 85.9803 57.2393 84.3041 55.7042C81.2097 52.8958 77.3517 51.3914 73.1443 51.3544H73.0048C70.995 51.3544 69.0283 51.7271 67.158 52.4661C65.2569 53.223 63.5077 54.32 61.995 55.7042C60.408 57.1569 59.1545 58.7871 58.2587 60.5576C56.9244 53.3963 50.8594 51.3523 45.2685 51.3523C40.0657 51.3523 33.8832 52.7069 32.5342 58.426V52.7491C32.534 52.6037 32.4764 52.4643 32.3741 52.3616C32.2718 52.2588 32.1333 52.2011 31.9888 52.2011H26.1881C26.0436 52.2014 25.9051 52.2594 25.8031 52.3623C25.701 52.4652 25.6437 52.6047 25.6437 52.7501V54.281C25.6437 54.5386 25.4727 54.6284 25.264 54.4784C23.2007 52.9719 20.1482 51.3555 16.4748 51.3555C14.4105 51.3555 12.4395 51.7208 10.6154 52.4408C8.7902 53.1629 7.05524 54.262 5.46293 55.7084C3.65035 57.3681 2.26993 59.26 1.36468 61.3315C0.45944 63.4029 0 65.7171 0 68.2088C0 70.5346 0.406993 72.7159 1.20839 74.687C2.00979 76.6581 3.22972 78.4815 4.83566 80.1073C6.44055 81.7332 8.23636 82.9685 10.1696 83.7814C12.1028 84.5912 14.2332 85.0019 16.5052 85.0019C20.4094 85.0019 23.3391 83.3285 25.2587 81.8071C25.4706 81.6445 25.6437 81.7322 25.6437 81.9982V83.6062C25.6437 83.9081 25.8891 84.1552 26.1891 84.1552H31.9898C32.1342 84.1546 32.2725 84.0966 32.3745 83.9937C32.4765 83.8908 32.534 83.7515 32.5342 83.6062V78.1901C35.2688 84.6619 42.237 85.0051 45.6482 85.0051C51.3503 85.0051 57.9262 83.1575 59.2311 77.4901C59.8584 78.4281 60.5739 79.3031 61.3678 80.1031C64.4769 83.2525 68.551 84.946 73.1548 84.9966H73.3436C75.5296 84.9966 77.6391 84.5743 79.6132 83.7392C81.6063 82.891 83.4135 81.6554 84.9314 80.1031C86.0669 78.9638 87.0366 77.6685 87.8118 76.2559C89.8793 84.5997 97.8429 85.0051 101.566 85.0051V85.0061Z" fill="#0B0B0A"/>
</svg>
