<svg width="140" height="40" viewBox="0 0 140 40" fill="none" xmlns="http://www.w3.org/2000/svg">
<path fill-rule="evenodd" clip-rule="evenodd" d="M94.394 39.2427H104.376L108.666 26.8988L113.124 23.1152L116.637 34.2784C117.724 37.7288 118.841 39.2427 121.281 39.2427H128.923L121.039 17.3372L140 0.000244141H127.754L116.245 12.3444C114.904 13.7814 113.548 15.1958 112.188 16.8852H112.072L117.819 0.000244141H107.836L94.394 39.2427Z" fill="#1AB248"/>
<path fill-rule="evenodd" clip-rule="evenodd" d="M94.0365 0.443036C97.1464 0.443537 100.162 0.444022 102.689 0.444241L100.642 6.72732C99.9989 8.7014 98.3658 9.64584 94.7671 9.64584C88.5185 9.64584 79.2726 9.64475 73.0234 9.64367L75.0703 3.36059C75.7133 1.38543 77.3458 0.441528 80.9448 0.441528C84.6675 0.441528 89.4538 0.442299 94.0365 0.443036ZM75.898 14.8675C82.1463 14.8675 91.3925 14.8686 97.6417 14.8702L95.5948 21.153C94.9518 23.1276 93.3193 24.0715 89.7201 24.0715C83.4714 24.0715 74.2255 24.0704 67.9764 24.0688L70.0232 17.7866C70.6662 15.8117 72.299 14.8675 75.898 14.8675ZM92.3475 29.2951C86.0983 29.294 76.8524 29.2929 70.6038 29.2929C67.0042 29.2929 65.372 30.2373 64.729 32.2109L62.6821 38.4948C68.9313 38.4953 78.1772 38.4972 84.4261 38.4972C88.0248 38.4972 89.6576 37.5525 90.3006 35.5779L92.3475 29.2951Z" fill="#1AB248"/>
<path fill-rule="evenodd" clip-rule="evenodd" d="M49.6539 9.45205L54.8922 9.45429C59.3553 9.45541 58.3366 15.1072 56.0778 20.6155C54.0876 25.4705 50.5601 29.7548 46.3519 29.7542L37.6193 29.7531C34.1362 29.7531 32.5303 30.7269 31.8529 32.7619L29.6968 39.2416L36.1003 39.2427L42.3597 39.1898C47.9109 39.1434 52.4554 38.7366 57.7698 33.8939C63.3861 28.7781 69.9345 15.4882 68.8125 7.80145C67.9337 1.77786 64.7415 0.00304178 57.0116 0.00248225L42.9254 0.000244141L34.7237 24.3391L39.9349 24.3458C43.0363 24.3495 44.5928 24.3889 46.2426 19.8875L49.6539 9.45205Z" fill="#1AB248"/>
<path fill-rule="evenodd" clip-rule="evenodd" d="M24.8873 9.48591L20.8714 9.48702C12.8265 9.49094 5.93276 29.7576 15.4449 29.7542L21.5567 29.7531C25.0816 29.7531 27.6984 31.0336 26.5397 34.4861L24.9431 39.2416L18.461 39.2427L13.1884 39.1898C6.44326 39.1227 2.09059 35.815 0.523332 30.7927C-1.17266 25.3577 1.22178 14.022 8.17137 6.76045C12.2037 2.54777 17.7894 0.00304178 24.9509 0.00248225L38.1818 0.000244141L36.1136 5.93962C34.7773 9.77714 32.0471 9.49094 30.4891 9.49038L24.8873 9.48591Z" fill="#1AB248"/>
</svg>
