<svg width="18" height="18" viewBox="0 0 18 18" fill="none" xmlns="http://www.w3.org/2000/svg">
<path d="M8.23485 9.00245L1.15257 16.1342C0.955811 16.3323 0.955811 16.6533 1.15257 16.8515C1.25082 16.9507 1.37983 17 1.50858 17C1.63759 17 1.76634 16.9507 1.8646 16.8515L9.00012 9.66609L16.1357 16.8515C16.2342 16.9507 16.3629 17 16.4917 17C16.6204 17 16.7494 16.9507 16.8477 16.8515C17.0444 16.6533 17.0444 16.3323 16.8477 16.1342L9.76565 9.00245L16.8524 1.86566C17.0492 1.66753 17.0492 1.34654 16.8524 1.14841C16.6557 0.95053 16.3369 0.95053 16.1404 1.14841L9.00037 8.33882L1.8596 1.14866C1.66284 0.950782 1.34433 0.950782 1.14757 1.14866C0.950811 1.34679 0.950811 1.66778 1.14757 1.86592L8.23485 9.00245Z" fill="#A5A5A5" stroke="#A5A5A5" stroke-width="0.6"/>
</svg>
