<svg width="68" height="76" viewBox="0 0 68 76" fill="none" xmlns="http://www.w3.org/2000/svg">
<path d="M15.5176 35.5015C14.9511 35.5015 14.3922 35.4003 13.8804 35.1893C11.561 34.233 11.4234 31.7719 11.4718 30.7582C11.5023 30.1192 12.062 29.6257 12.7259 29.6548C13.3879 29.6843 13.8998 30.226 13.8693 30.865C13.8307 31.6708 13.965 32.7057 14.8236 33.0596C15.5493 33.3589 16.6309 33.1058 17.2342 32.4951C17.7062 32.0171 17.7777 31.4409 17.4465 30.7821C16.2918 28.4865 13.8936 27.5466 11.1169 26.4586C6.16371 24.5179 0 22.1024 0 10.5137V5.67269C0 4.73936 0.377155 3.86237 1.06187 3.2033C1.74675 2.54423 2.65444 2.18074 3.62352 2.18485C6.31079 2.1914 8.82573 3.46979 10.3514 5.60462L11.2845 6.91058C11.8109 7.64716 12.679 8.0871 13.6063 8.0871H19.2262C19.889 8.0871 20.4262 8.60546 20.4262 9.24504C20.4262 9.88447 19.889 10.403 19.2262 10.403H13.6063C11.8898 10.403 10.2832 9.58889 9.30877 8.22522L8.37567 6.91926C7.29676 5.40955 5.51798 4.5053 3.61769 4.50074C3.61658 4.50074 3.61548 4.50074 3.61453 4.50074C3.29071 4.50074 2.98631 4.62226 2.75686 4.84306C2.52678 5.06448 2.40006 5.3593 2.40006 5.67284V10.5138C2.40006 15.0454 3.39029 18.3135 5.42724 20.5051C7.21754 22.4313 9.65879 23.388 12.0197 24.3131C14.9835 25.4745 18.0483 26.6754 19.6053 29.7711C20.3731 31.2979 20.1361 32.9136 18.9713 34.093C18.0747 35.0005 16.7777 35.5015 15.5176 35.5015Z" fill="#FFB125"/>
<path d="M52.4819 35.5008C51.2219 35.5008 49.9249 34.9998 49.0284 34.0922C47.8636 32.9128 47.6266 31.2973 48.3945 29.7705C49.9514 26.6748 53.0163 25.4737 55.98 24.3123C58.3409 23.387 60.7823 22.4304 62.5725 20.5044C64.6094 18.3127 65.5997 15.0446 65.5997 10.5131V5.67204C65.5997 5.3585 65.473 5.06383 65.2429 4.84227C65.0128 4.6207 64.703 4.49765 64.3822 4.49994C62.4818 4.50451 60.703 5.4086 59.6242 6.91861L58.6913 8.22427C57.7168 9.5881 56.1102 10.4022 54.3936 10.4022H48.7737C48.1109 10.4022 47.5737 9.88383 47.5737 9.24425C47.5737 8.60467 48.1109 8.0863 48.7737 8.0863H54.3936C55.3209 8.0863 56.189 7.64637 56.7155 6.90963L57.6483 5.60397C59.174 3.469 61.6891 2.1906 64.3764 2.18405C64.3795 2.18405 64.3827 2.18405 64.3857 2.18405C65.3494 2.18405 66.2554 2.54557 66.9379 3.20251C67.6226 3.86158 67.9997 4.73856 67.9997 5.67189V10.5129C67.9997 22.1016 61.836 24.5171 56.883 26.4578C54.1062 27.546 51.7081 28.4857 50.5534 30.7815C50.2222 31.4401 50.2935 32.0163 50.7657 32.4943C51.3688 33.105 52.4505 33.3581 53.1763 33.0588C54.0349 32.7049 54.169 31.67 54.1305 30.8642C54.1001 30.2253 54.612 29.6837 55.274 29.654C55.9376 29.6258 56.4975 30.1186 56.5281 30.7574C56.5765 31.7712 56.4389 34.2322 54.1195 35.1885C53.6074 35.3997 53.0483 35.5008 52.4819 35.5008Z" fill="#FFB125"/>
<g filter="url(#filter0_d)">
<path d="M36.6469 41.795H31.3521V64.9996H36.6469V41.795Z" fill="#FED130"/>
<path d="M14.5322 0V15.0711C14.5322 25.7586 19.796 35.81 28.7128 42.1492L33.9999 45.9078L39.287 42.149C48.2038 35.8099 53.4675 25.7585 53.4675 15.0709V0H14.5322Z" fill="url(#paint0_linear)"/>
</g>
<path d="M34.2181 10.4422L36.9844 15.8511C37.0199 15.9204 37.0884 15.9685 37.1678 15.9796L43.3534 16.847C43.5532 16.875 43.6329 17.112 43.4883 17.2478L39.0124 21.4581C38.9549 21.5121 38.9287 21.5898 38.9423 21.6661L39.999 27.611C40.033 27.803 39.8243 27.9494 39.6456 27.8588L34.1131 25.0519C34.0421 25.016 33.9574 25.016 33.8865 25.0519L28.354 27.8588C28.1754 27.9494 27.9666 27.803 28.0007 27.611L29.0574 21.6661C29.071 21.5898 29.0448 21.5121 28.9873 21.4581L24.5113 17.2478C24.3668 17.1118 24.4465 16.875 24.6463 16.847L30.8319 15.9796C30.9113 15.9685 30.9798 15.9204 31.0153 15.8511L33.7816 10.4422C33.8706 10.2676 34.1288 10.2676 34.2181 10.4422Z" fill="white"/>
<path d="M37.0032 47.7087H30.9959C29.8696 47.7087 28.9565 46.8276 28.9565 45.7408V44.8906C28.9565 43.8037 29.8696 42.9226 30.9959 42.9226H37.0032C38.1294 42.9226 39.0425 43.8037 39.0425 44.8906V45.7408C39.0425 46.8276 38.1294 47.7087 37.0032 47.7087Z" fill="#FFB125"/>
<path d="M44.3298 68.4433H23.6699V64.2021C23.6699 62.7406 24.8978 61.5557 26.4124 61.5557H41.5874C43.1021 61.5557 44.3299 62.7406 44.3299 64.2021V68.4433H44.3298Z" fill="url(#paint1_linear)"/>
<g filter="url(#filter1_d)">
<path d="M49.6054 73H17.865C16.916 73 16.2029 72.4198 16.3849 71.7958L17.5218 67.8977C17.6601 67.4233 18.2805 67.0811 19.0019 67.0811H48.4683C49.1897 67.0811 49.8101 67.4233 49.9484 67.8977L51.0852 71.7958C51.2674 72.4198 50.5543 73 49.6054 73Z" fill="url(#paint2_linear)"/>
</g>
<defs>
<filter id="filter0_d" x="14.5322" y="0" width="46.9353" height="72.9996" filterUnits="userSpaceOnUse" color-interpolation-filters="sRGB">
<feFlood flood-opacity="0" result="BackgroundImageFix"/>
<feColorMatrix in="SourceAlpha" type="matrix" values="0 0 0 0 0 0 0 0 0 0 0 0 0 0 0 0 0 0 127 0"/>
<feOffset dx="4" dy="4"/>
<feGaussianBlur stdDeviation="2"/>
<feColorMatrix type="matrix" values="0 0 0 0 0 0 0 0 0 0 0 0 0 0 0 0 0 0 0.1 0"/>
<feBlend mode="normal" in2="BackgroundImageFix" result="effect1_dropShadow"/>
<feBlend mode="normal" in="SourceGraphic" in2="effect1_dropShadow" result="shape"/>
</filter>
<filter id="filter1_d" x="14.3564" y="66.0811" width="38.7573" height="9.91892" filterUnits="userSpaceOnUse" color-interpolation-filters="sRGB">
<feFlood flood-opacity="0" result="BackgroundImageFix"/>
<feColorMatrix in="SourceAlpha" type="matrix" values="0 0 0 0 0 0 0 0 0 0 0 0 0 0 0 0 0 0 127 0"/>
<feOffset dy="1"/>
<feGaussianBlur stdDeviation="1"/>
<feColorMatrix type="matrix" values="0 0 0 0 0 0 0 0 0 0 0 0 0 0 0 0 0 0 0.15 0"/>
<feBlend mode="normal" in2="BackgroundImageFix" result="effect1_dropShadow"/>
<feBlend mode="normal" in="SourceGraphic" in2="effect1_dropShadow" result="shape"/>
</filter>
<linearGradient id="paint0_linear" x1="33.9999" y1="0" x2="33.9999" y2="45.9078" gradientUnits="userSpaceOnUse">
<stop stop-color="#FED130"/>
<stop offset="1" stop-color="#FF901D"/>
</linearGradient>
<linearGradient id="paint1_linear" x1="33.9999" y1="61.5557" x2="33.9999" y2="68.4433" gradientUnits="userSpaceOnUse">
<stop stop-color="#FED130"/>
<stop offset="1" stop-color="#FF901D"/>
</linearGradient>
<linearGradient id="paint2_linear" x1="33.7351" y1="67.0811" x2="33.7351" y2="73" gradientUnits="userSpaceOnUse">
<stop stop-color="#FED130"/>
<stop offset="1" stop-color="#FF901D"/>
</linearGradient>
</defs>
</svg>
