<svg width="323" height="711" viewBox="0 0 323 711" fill="none" xmlns="http://www.w3.org/2000/svg">
<path d="M148.894 702.433C131.453 592.995 29.7851 459.77 63.9898 358.333C86.0595 292.884 149.07 240.685 218.541 252.513C275.911 263.949 306.07 332.693 256.804 355.502C204.347 379.789 189.355 288.25 189.481 257.651C189.799 180.878 254.67 94.3621 314.578 60.7244C403.688 10.6898 507.715 68.3586 598.852 21.6845" stroke="#BBBBBB" stroke-width="2" stroke-linecap="round" stroke-linejoin="round" stroke-dasharray="4 5"/>
<path d="M110.5 197C95.8878 197 84 208.968 84 223.678C84 228.749 85.3708 234.13 88.0747 239.67C90.2142 244.054 93.1912 248.552 96.9226 253.039C103.253 260.651 109.487 265.537 109.749 265.742C109.97 265.914 110.235 266 110.5 266C110.765 266 111.03 265.914 111.251 265.742C111.513 265.537 117.747 260.651 124.077 253.039C127.809 248.552 130.786 244.054 132.925 239.67C135.629 234.13 137 228.749 137 223.678C137 208.968 125.112 197 110.5 197ZM110.5 213.53C116.067 213.53 120.58 218.074 120.58 223.678C120.58 229.283 116.067 233.826 110.5 233.826C104.933 233.826 100.42 229.283 100.42 223.678C100.42 218.074 104.933 213.53 110.5 213.53Z" fill="#1AB248"/>
<circle cx="111" cy="286" r="12" fill="#334045"/>
<circle cx="111" cy="286" r="6" fill="white"/>
</svg>
