<svg width="124" height="52" viewBox="0 0 124 52" fill="none" xmlns="http://www.w3.org/2000/svg">
<path fill-rule="evenodd" clip-rule="evenodd" d="M84.1045 34.5053H92.8369L96.589 23.6518L100.489 20.325L103.562 30.1404C104.513 33.1742 105.491 34.5053 107.625 34.5053H114.31L107.413 15.2447L124 0.000976562H113.288L103.219 10.8547C102.047 12.1182 100.86 13.3618 99.6701 14.8473H99.5689L104.596 0.000976562H95.8637L84.1045 34.5053Z" fill="#1AB248"/>
<path fill-rule="evenodd" clip-rule="evenodd" d="M83.36 0.394895C86.1236 0.395339 88.8039 0.395771 91.0489 0.395966L89.2299 5.97948C88.6585 7.73377 87.2073 8.57305 84.0093 8.57305C78.4564 8.57305 70.2399 8.57209 64.6865 8.57113L66.5055 2.98761C67.0769 1.23236 68.5277 0.393555 71.7259 0.393555C75.0341 0.393555 79.2875 0.394239 83.36 0.394895ZM67.2409 13.2133C72.7935 13.2133 81.0103 13.2143 86.5637 13.2157L84.7447 18.799C84.1733 20.5538 82.7225 21.3926 79.524 21.3926C73.9711 21.3926 65.7547 21.3916 60.2013 21.3902L62.0202 15.8074C62.5917 14.0524 64.0427 13.2133 67.2409 13.2133ZM81.859 26.0344C76.3056 26.0334 68.0891 26.0324 62.5362 26.0324C59.3375 26.0324 57.887 26.8717 57.3155 28.6255L55.4966 34.2098C61.05 34.2103 69.2664 34.2119 74.8196 34.2119C78.0176 34.2119 79.4686 33.3724 80.04 31.6176L81.859 26.0344Z" fill="#1AB248"/>
<path fill-rule="evenodd" clip-rule="evenodd" d="M43.9743 8.31159L48.724 8.31355C52.771 8.31454 51.8472 13.2839 49.7991 18.1271C47.9945 22.396 44.796 26.163 40.9802 26.1625L33.062 26.1615C29.9038 26.1615 28.4477 27.0178 27.8334 28.8071L25.8784 34.5043L31.6847 34.5053L37.3604 34.4588C42.3938 34.418 46.5146 34.0603 51.3333 29.8023C56.4258 25.3042 62.3635 13.619 61.3462 6.86027C60.5493 1.56397 57.6548 0.00343641 50.6458 0.00294444L37.8733 0.000976562L30.4365 21.4012L35.1617 21.4071C37.9739 21.4103 39.3852 21.445 40.8812 17.4871L43.9743 8.31159Z" fill="#1AB248"/>
<path d="M0.867188 51V42.4688H3.79102C4.75586 42.4688 5.49023 42.6621 5.99414 43.0488C6.49805 43.4355 6.75 44.0117 6.75 44.7773C6.75 45.168 6.64453 45.5195 6.43359 45.832C6.22266 46.1445 5.91406 46.3867 5.50781 46.5586C5.96875 46.6836 6.32422 46.9199 6.57422 47.2676C6.82812 47.6113 6.95508 48.0254 6.95508 48.5098C6.95508 49.3105 6.69727 49.9258 6.18164 50.3555C5.66992 50.7852 4.93555 51 3.97852 51H0.867188ZM2.34961 47.1504V49.8164H3.99609C4.46094 49.8164 4.82422 49.7012 5.08594 49.4707C5.34766 49.2402 5.47852 48.9199 5.47852 48.5098C5.47852 47.623 5.02539 47.1699 4.11914 47.1504H2.34961ZM2.34961 46.0605H3.80273C4.26367 46.0605 4.62305 45.957 4.88086 45.75C5.14258 45.5391 5.27344 45.2422 5.27344 44.8594C5.27344 44.4375 5.15234 44.1328 4.91016 43.9453C4.67188 43.7578 4.29883 43.6641 3.79102 43.6641H2.34961V46.0605ZM13.7838 47.1914H10.2799V49.8164H14.3756V51H8.7975V42.4688H14.3346V43.6641H10.2799V46.0195H13.7838V47.1914ZM22.6516 42.4688V51H21.1751V43.6641H18.5618L18.4095 46.9629C18.3509 47.9941 18.2239 48.7949 18.0286 49.3652C17.8372 49.9316 17.5579 50.3457 17.1907 50.6074C16.8235 50.8691 16.3313 51 15.7141 51H15.3391V49.8164L15.5735 49.7988C15.9134 49.7676 16.1751 49.6484 16.3587 49.4414C16.5462 49.2344 16.6868 48.9219 16.7805 48.5039C16.8782 48.082 16.9466 47.4629 16.9856 46.6465L17.1497 42.4688H22.6516ZM30.0253 42.4688H31.5077V51H30.0253V44.9238L26.2812 51H24.7987V42.4688H26.2812V48.5508L30.0253 42.4688ZM36.1685 47.3438H35.1607V51H33.6841V42.4688H35.1607V46.0547H35.9752L38.483 42.4688H40.2994L37.3697 46.5527L40.5572 51H38.7759L36.1685 47.3438ZM48.3586 46.957C48.3586 47.793 48.2141 48.5273 47.925 49.1602C47.6359 49.7891 47.2219 50.2734 46.6828 50.6133C46.1477 50.9492 45.5305 51.1172 44.8312 51.1172C44.1398 51.1172 43.5227 50.9492 42.9797 50.6133C42.4406 50.2734 42.0227 49.791 41.7258 49.166C41.4328 48.541 41.2844 47.8203 41.2805 47.0039V46.5234C41.2805 45.6914 41.427 44.957 41.7199 44.3203C42.0168 43.6836 42.4328 43.1973 42.968 42.8613C43.507 42.5215 44.1242 42.3516 44.8195 42.3516C45.5148 42.3516 46.1301 42.5195 46.6652 42.8555C47.2043 43.1875 47.6203 43.668 47.9133 44.2969C48.2062 44.9219 48.3547 45.6504 48.3586 46.4824V46.957ZM46.8762 46.5117C46.8762 45.5664 46.6965 44.8418 46.3371 44.3379C45.9816 43.834 45.4758 43.582 44.8195 43.582C44.1789 43.582 43.677 43.834 43.3137 44.3379C42.9543 44.8379 42.7707 45.5469 42.7629 46.4648V46.957C42.7629 47.8945 42.9445 48.6191 43.3078 49.1309C43.675 49.6426 44.1828 49.8984 44.8312 49.8984C45.4875 49.8984 45.9914 49.6484 46.343 49.1484C46.6984 48.6484 46.8762 47.918 46.8762 46.957V46.5117ZM55.5858 43.6641H51.6541V45.7324H53.4002C54.0252 45.7324 54.5702 45.8398 55.035 46.0547C55.4998 46.2695 55.8534 46.5742 56.0955 46.9688C56.3377 47.3633 56.4588 47.8203 56.4588 48.3398C56.4588 49.1367 56.1873 49.7773 55.6444 50.2617C55.1053 50.7461 54.369 50.9922 53.4354 51H50.1717V42.4688H55.5858V43.6641ZM51.6541 46.9219V49.8164H53.3944C53.8944 49.8164 54.283 49.6816 54.5604 49.4121C54.8416 49.1387 54.9823 48.7773 54.9823 48.3281C54.9823 47.8984 54.8455 47.5586 54.5721 47.3086C54.2987 47.0586 53.9198 46.9297 53.4354 46.9219H51.6541ZM59.5845 47.8301V51H58.102V42.4688H61.3657C62.3188 42.4688 63.0747 42.7168 63.6333 43.2129C64.1958 43.709 64.477 44.3652 64.477 45.1816C64.477 46.0176 64.2016 46.668 63.6509 47.1328C63.104 47.5977 62.3364 47.8301 61.3481 47.8301H59.5845ZM59.5845 46.6406H61.3657C61.893 46.6406 62.2954 46.5176 62.5727 46.2715C62.8501 46.0215 62.9888 45.6621 62.9888 45.1934C62.9888 44.7324 62.8481 44.3652 62.5669 44.0918C62.2856 43.8145 61.8989 43.6719 61.4067 43.6641H59.5845V46.6406ZM71.3644 42.4688H72.8468V51H71.3644V44.9238L67.6202 51H66.1378V42.4688H67.6202V48.5508L71.3644 42.4688ZM80.9705 43.6641H78.3103V51H76.8396V43.6641H74.2029V42.4688H80.9705V43.6641ZM86.5277 49.0137H83.223L82.5316 51H80.9906L84.2133 42.4688H85.5434L88.7719 51H87.225L86.5277 49.0137ZM83.6391 47.8184H86.1117L84.8754 44.2793L83.6391 47.8184ZM96.878 51H95.4014V47.209H91.587V51H90.1045V42.4688H91.587V46.0195H95.4014V42.4688H96.878V51ZM104.222 42.4688H105.705V51H104.222V44.9238L100.478 51H98.9958V42.4688H100.478V48.5508L104.222 42.4688ZM112.047 51V47.8125H110.395L108.748 51H107.16L109.065 47.373C108.073 46.9043 107.576 46.1367 107.576 45.0703C107.576 44.2539 107.844 43.6191 108.379 43.166C108.918 42.709 109.668 42.4766 110.629 42.4688H113.53V51H112.047ZM109.053 45.1348C109.053 45.6152 109.188 45.9902 109.457 46.2598C109.727 46.5293 110.131 46.6641 110.67 46.6641H112.047V43.6641H110.67C110.123 43.6641 109.717 43.7949 109.451 44.0566C109.186 44.3184 109.053 44.6777 109.053 45.1348Z" fill="#1AB248"/>
<path fill-rule="evenodd" clip-rule="evenodd" d="M21.7874 8.34135L18.2717 8.34233C11.2289 8.34578 5.1938 26.1654 13.5212 26.1625L18.8717 26.1615C21.9576 26.1615 24.2484 27.2874 23.234 30.3231L21.8363 34.5043L16.1616 34.5053L11.5457 34.4588C5.64072 34.3998 1.83019 31.4915 0.458148 27.0756C-1.0266 22.2968 1.0696 12.3298 7.15359 5.94496C10.6837 2.24092 15.5736 0.00343641 21.8432 0.00294444L33.4261 0.000976562L31.6154 5.22324C30.4456 8.59742 28.0555 8.34578 26.6915 8.34529L21.7874 8.34135Z" fill="#1AB248"/>
</svg>
