<svg width="81" height="23" viewBox="0 0 81 23" fill="none" xmlns="http://www.w3.org/2000/svg">
<path fill-rule="evenodd" clip-rule="evenodd" d="M54.9395 22.9449H60.6437L63.0947 15.9252L65.6425 13.7736L67.6498 20.1219C68.2708 22.084 68.9094 22.9449 70.3035 22.9449H74.6706L70.1653 10.4877L81.0003 0.62854H74.0028L67.4256 7.64844C66.6597 8.46564 65.8846 9.26997 65.1073 10.2307H65.0412L68.3251 0.62854H62.6208L54.9395 22.9449Z" fill="#1AB248"/>
<path fill-rule="evenodd" clip-rule="evenodd" d="M54.4531 0.882947C56.2583 0.883234 58.0091 0.883513 59.4757 0.883639L58.2875 4.4949C57.9142 5.62952 56.9662 6.17234 54.8772 6.17234C51.2499 6.17234 45.8827 6.17172 42.2551 6.17109L43.4433 2.55984C43.8165 1.4246 44.7642 0.88208 46.8534 0.88208C49.0144 0.88208 51.7928 0.882523 54.4531 0.882947ZM43.9236 9.17349C47.5508 9.17349 52.9181 9.17411 56.5458 9.17505L55.3576 12.7861C54.9843 13.9211 54.0366 14.4636 51.9473 14.4636C48.32 14.4636 42.9528 14.463 39.3252 14.462L40.5134 10.8512C40.8866 9.71616 41.8345 9.17349 43.9236 9.17349ZM53.4725 17.4663C49.8449 17.4656 44.4777 17.465 40.8504 17.465C38.7609 17.465 37.8134 18.0078 37.4401 19.1421L36.252 22.7539C39.8796 22.7542 45.2468 22.7553 48.8742 22.7553C50.9632 22.7553 51.9111 22.2123 52.2844 21.0774L53.4725 17.4663Z" fill="#1AB248"/>
<path fill-rule="evenodd" clip-rule="evenodd" d="M28.725 6.0036L31.8277 6.00487C34.4712 6.00551 33.8678 9.21957 32.5299 12.352C31.3511 15.113 29.2617 17.5494 26.7692 17.549L21.5968 17.5484C19.5338 17.5484 18.5826 18.1022 18.1814 19.2595L16.9043 22.9443L20.6971 22.9449L24.4046 22.9149C27.6926 22.8885 30.3844 22.6571 33.5321 19.9032C36.8587 16.994 40.7373 9.43626 40.0728 5.06493C39.5522 1.63944 37.6614 0.630131 33.083 0.629813L24.7397 0.62854L19.8817 14.4696L22.9684 14.4734C24.8054 14.4755 25.7273 14.4979 26.7045 11.938L28.725 6.0036Z" fill="#1AB248"/>
<path fill-rule="evenodd" clip-rule="evenodd" d="M14.2321 6.02285L11.9356 6.02349C7.335 6.02572 3.39273 17.551 8.83238 17.549L12.3275 17.5484C14.3433 17.5484 15.8397 18.2766 15.1771 20.24L14.264 22.9443L10.5572 22.9449L7.54198 22.9149C3.68466 22.8767 1.19553 20.9957 0.299274 18.1396C-0.670604 15.0489 0.698692 8.60244 4.67291 4.47294C6.97886 2.07727 10.1731 0.630131 14.2685 0.629813L21.8348 0.62854L20.652 4.00615C19.8878 6.18847 18.3266 6.02572 17.4356 6.0254L14.2321 6.02285Z" fill="#1AB248"/>
</svg>
