<svg width="84" height="82" viewBox="0 0 84 82" fill="none" xmlns="http://www.w3.org/2000/svg">
<rect x="52.6665" y="28" width="2.58391" height="34.8828" rx="1.29195" transform="rotate(45 52.6665 28)" fill="#D80027"/>
<rect width="2.58391" height="34.8828" rx="1.29195" transform="matrix(-0.707107 0.707107 0.707107 0.707107 29.8271 28)" fill="#D80027"/>
<mask id="path-3-inside-1" fill="white">
<path fill-rule="evenodd" clip-rule="evenodd" d="M74.008 64.4151C78.7595 57.7472 81.5543 49.5886 81.5543 40.7772C81.5543 18.2566 63.2978 0 40.7772 0C18.2566 0 0 18.2566 0 40.7772C0 63.2978 18.2566 81.5543 40.7772 81.5543C49.0352 81.5543 56.7199 79.0995 63.1414 74.8799C69.7646 76.3877 77.3996 77.0697 83.9999 74.9234C79.8796 72.968 76.57 68.8888 74.008 64.4151Z"/>
</mask>
<path d="M74.008 64.4151L72.3793 63.2544L71.636 64.2975L72.2725 65.4089L74.008 64.4151ZM63.1414 74.8799L63.5854 72.9298L62.7549 72.7407L62.0431 73.2085L63.1414 74.8799ZM83.9999 74.9234L84.6183 76.8254L89.3976 75.2713L84.8574 73.1166L83.9999 74.9234ZM79.5543 40.7772C79.5543 49.159 76.8973 56.9142 72.3793 63.2544L75.6368 65.5757C80.6218 58.5802 83.5543 50.0182 83.5543 40.7772H79.5543ZM40.7772 2C62.1932 2 79.5543 19.3611 79.5543 40.7772H83.5543C83.5543 17.152 64.4024 -2 40.7772 -2V2ZM2 40.7772C2 19.3611 19.3611 2 40.7772 2V-2C17.152 -2 -2 17.152 -2 40.7772H2ZM40.7772 79.5543C19.3611 79.5543 2 62.1932 2 40.7772H-2C-2 64.4024 17.152 83.5543 40.7772 83.5543V79.5543ZM62.0431 73.2085C55.9378 77.2203 48.6331 79.5543 40.7772 79.5543V83.5543C49.4374 83.5543 57.5021 80.9788 64.2397 76.5513L62.0431 73.2085ZM83.3814 73.0214C77.2865 75.0034 70.0716 74.4065 63.5854 72.9298L62.6974 76.83C69.4576 78.369 77.5127 79.136 84.6183 76.8254L83.3814 73.0214ZM72.2725 65.4089C74.9041 70.0045 78.4688 74.5123 83.1424 76.7303L84.8574 73.1166C81.2904 71.4237 78.2358 67.7732 75.7436 63.4212L72.2725 65.4089Z" fill="#D80027" mask="url(#path-3-inside-1)"/>
</svg>
