<svg width="84" height="82" viewBox="0 0 84 82" fill="none" xmlns="http://www.w3.org/2000/svg">
<path fill-rule="evenodd" clip-rule="evenodd" d="M74.008 64.4151C78.7595 57.7472 81.5543 49.5886 81.5543 40.7772C81.5543 18.2566 63.2978 0 40.7772 0C18.2566 0 0 18.2566 0 40.7772C0 63.2978 18.2566 81.5543 40.7772 81.5543C49.0352 81.5543 56.7199 79.0995 63.1414 74.8799C69.7646 76.3877 77.3996 77.0697 83.9999 74.9234C79.8796 72.968 76.57 68.8888 74.008 64.4151Z" fill="#18B047"/>
<path d="M22.414 42.5048C21.6394 41.7511 21.6394 40.5068 22.414 39.7531C23.1592 39.0279 24.3463 39.0279 25.0915 39.7531L37.2049 51.5399C37.9795 52.2936 37.9795 53.5379 37.2049 54.2916C36.4597 55.0167 35.2726 55.0167 34.5274 54.2916L22.414 42.5048Z" fill="white"/>
<path d="M56.4085 30.3027C57.1537 29.5775 58.3408 29.5775 59.086 30.3027C59.8606 31.0564 59.8606 32.3007 59.086 33.0544L37.2606 54.2913C36.5154 55.0165 35.3283 55.0165 34.5831 54.2913C33.8085 53.5376 33.8085 52.2933 34.5831 51.5396L56.4085 30.3027Z" fill="white"/>
</svg>
