<svg width="97" height="109" viewBox="0 0 97 109" fill="none" xmlns="http://www.w3.org/2000/svg">
<rect x="9.2" y="60.2" width="78.6" height="47.6" rx="4.8" fill="white" stroke="#1AB248" stroke-width="2.4"/>
<rect x="1.2" y="41.2" width="94.6" height="22.6" rx="4.8" fill="white" stroke="#1AB248" stroke-width="2.4"/>
<rect x="48" y="42" width="2.5" height="66" rx="1.25" fill="#1AB248"/>
<path d="M81.6241 32.7681C88.1685 27.7172 89.5574 18.8119 85.0006 12.9078C80.4438 7.0037 71.4773 6.09079 64.9329 11.1417C63.3708 12.3474 61.5369 14.7395 59.6486 17.8212C57.7831 20.8655 55.9407 24.454 54.3334 27.9251C52.7268 31.3948 51.3664 34.7229 50.4618 37.2379C50.0194 38.4677 49.6936 39.4822 49.5005 40.2145C49.5244 40.2138 49.5488 40.2131 49.5735 40.2123C50.3717 40.1871 51.4826 40.1103 52.827 39.9812C55.5119 39.7235 59.0724 39.2626 62.8187 38.613C66.5676 37.963 70.4784 37.1282 73.8725 36.1271C77.3087 35.1135 80.0655 33.9711 81.6241 32.7681ZM48.4923 40.1983C48.4693 40.1929 48.4652 40.1939 48.4878 40.1976C48.4891 40.1978 48.4906 40.198 48.4923 40.1983Z" stroke="#1AB248" stroke-width="2.5"/>
<path d="M81.6241 32.7681C88.1685 27.7172 89.5574 18.8119 85.0006 12.9078C80.4438 7.0037 71.4773 6.09079 64.9329 11.1417C63.3708 12.3474 61.5369 14.7395 59.6486 17.8212C57.7831 20.8655 55.9407 24.454 54.3334 27.9251C52.7268 31.3948 51.3664 34.7229 50.4618 37.2379C50.0194 38.4677 49.6936 39.4822 49.5005 40.2145C49.5244 40.2138 49.5488 40.2131 49.5735 40.2123C50.3717 40.1871 51.4826 40.1103 52.827 39.9812C55.5119 39.7235 59.0724 39.2626 62.8187 38.613C66.5676 37.963 70.4784 37.1282 73.8725 36.1271C77.3087 35.1135 80.0655 33.9711 81.6241 32.7681ZM48.4923 40.1983C48.4693 40.1929 48.4652 40.1939 48.4878 40.1976C48.4891 40.1978 48.4906 40.198 48.4923 40.1983Z" stroke="#1AB248" stroke-width="2.5"/>
<path d="M17.4755 32.7681C10.9311 27.7172 9.5422 18.8119 14.099 12.9078C18.6558 7.0037 27.6224 6.09079 34.1667 11.1417C35.7288 12.3474 37.5627 14.7395 39.451 17.8212C41.3165 20.8655 43.1589 24.454 44.7662 27.9251C46.3728 31.3948 47.7332 34.7229 48.6378 37.2379C49.0802 38.4677 49.406 39.4822 49.5991 40.2145C49.5752 40.2138 49.5509 40.2131 49.5261 40.2123C48.728 40.1871 47.617 40.1103 46.2726 39.9812C43.5877 39.7235 40.0272 39.2626 36.281 38.613C32.532 37.963 28.6212 37.1282 25.2271 36.1271C21.7909 35.1135 19.0341 33.9711 17.4755 32.7681ZM50.6074 40.1983C50.6303 40.1929 50.6344 40.1939 50.6118 40.1976C50.6105 40.1978 50.609 40.198 50.6074 40.1983Z" stroke="#1AB248" stroke-width="2.5"/>
<path d="M17.4755 32.7681C10.9311 27.7172 9.5422 18.8119 14.099 12.9078C18.6558 7.0037 27.6224 6.09079 34.1667 11.1417C35.7288 12.3474 37.5627 14.7395 39.451 17.8212C41.3165 20.8655 43.1589 24.454 44.7662 27.9251C46.3728 31.3948 47.7332 34.7229 48.6378 37.2379C49.0802 38.4677 49.406 39.4822 49.5991 40.2145C49.5752 40.2138 49.5509 40.2131 49.5261 40.2123C48.728 40.1871 47.617 40.1103 46.2726 39.9812C43.5877 39.7235 40.0272 39.2626 36.281 38.613C32.532 37.963 28.6212 37.1282 25.2271 36.1271C21.7909 35.1135 19.0341 33.9711 17.4755 32.7681ZM50.6074 40.1983C50.6303 40.1929 50.6344 40.1939 50.6118 40.1976C50.6105 40.1978 50.609 40.198 50.6074 40.1983Z" stroke="#1AB248" stroke-width="2.5"/>
</svg>
