<svg width="189" height="52" viewBox="0 0 189 52" fill="none" xmlns="http://www.w3.org/2000/svg">
<path d="M18.9668 49H15.7441V13.7656L5.10938 17.7134V14.7056L18.4297 9.76416H18.9668V49ZM57.5581 19.9692C57.5581 21.9924 56.9673 23.8096 55.7856 25.4209C54.604 27.0143 53.0464 28.187 51.1128 28.939C53.3687 29.7088 55.1769 30.9531 56.5376 32.6719C57.8983 34.3906 58.5786 36.3779 58.5786 38.6338C58.5786 41.9818 57.4417 44.6405 55.168 46.6099C52.8942 48.5614 49.8864 49.5371 46.1445 49.5371C42.3669 49.5371 39.3411 48.5614 37.0674 46.6099C34.8115 44.6584 33.6836 41.9997 33.6836 38.6338C33.6836 36.4137 34.3371 34.4354 35.644 32.6987C36.951 30.9621 38.7414 29.7088 41.0151 28.939C39.0815 28.187 37.5418 27.0143 36.396 25.4209C35.2502 23.8096 34.6772 21.9924 34.6772 19.9692C34.6772 16.7287 35.7157 14.1506 37.7925 12.2349C39.8872 10.3192 42.6533 9.36133 46.0908 9.36133C49.5283 9.36133 52.2944 10.3281 54.3892 12.2617C56.5018 14.1953 57.5581 16.7645 57.5581 19.9692ZM55.356 38.6606C55.356 36.2257 54.4876 34.2295 52.751 32.6719C51.0143 31.0964 48.7943 30.3086 46.0908 30.3086C43.3874 30.3086 41.1763 31.0785 39.4575 32.6182C37.7388 34.1579 36.8794 36.172 36.8794 38.6606C36.8794 41.1493 37.7119 43.1366 39.377 44.6226C41.042 46.0907 43.2979 46.8247 46.1445 46.8247C48.9196 46.8247 51.1486 46.0907 52.8315 44.6226C54.5145 43.1545 55.356 41.1672 55.356 38.6606ZM54.3354 19.9424C54.3354 17.7044 53.5566 15.8424 51.999 14.3564C50.4593 12.8525 48.4899 12.1006 46.0908 12.1006C43.6559 12.1006 41.6776 12.8257 40.1558 14.2759C38.6519 15.7082 37.8999 17.597 37.8999 19.9424C37.8999 22.234 38.6519 24.0781 40.1558 25.4746C41.6776 26.8711 43.6649 27.5693 46.1177 27.5693C48.5347 27.5693 50.5041 26.8711 52.0259 25.4746C53.5656 24.0602 54.3354 22.2161 54.3354 19.9424ZM65.2388 47.0664C65.2388 46.4398 65.4357 45.9116 65.8296 45.4819C66.2414 45.0343 66.8053 44.8105 67.5215 44.8105C68.2376 44.8105 68.8016 45.0343 69.2134 45.4819C69.6252 45.9116 69.8311 46.4398 69.8311 47.0664C69.8311 47.693 69.6252 48.2122 69.2134 48.624C68.8016 49.0179 68.2376 49.2148 67.5215 49.2148C66.8053 49.2148 66.2414 49.0179 65.8296 48.624C65.4357 48.2122 65.2388 47.693 65.2388 47.0664ZM97.9219 36.4048H104.018V39.1172H97.9219V49H94.6992V39.1172H76.3032V37.291L94.4038 9.89844H97.9219V36.4048ZM80.251 36.4048H94.6992V14.061L93.2759 16.5317L80.251 36.4048ZM107.939 17.418C107.939 15.0905 108.655 13.1659 110.087 11.644C111.538 10.1043 113.373 9.33447 115.593 9.33447C117.813 9.33447 119.639 10.1043 121.071 11.644C122.521 13.1659 123.247 15.1442 123.247 17.5791V19.4858C123.247 21.7775 122.53 23.6932 121.098 25.2329C119.684 26.7547 117.867 27.5156 115.646 27.5156C113.444 27.5156 111.609 26.7637 110.141 25.2598C108.673 23.7559 107.939 21.7686 107.939 19.2979V17.418ZM110.544 19.4858C110.544 21.1509 111 22.5205 111.914 23.5947C112.845 24.6689 114.089 25.2061 115.646 25.2061C117.168 25.2061 118.377 24.6689 119.272 23.5947C120.185 22.5026 120.642 21.0972 120.642 19.3784V17.418C120.642 15.7529 120.176 14.3833 119.245 13.3091C118.314 12.217 117.097 11.6709 115.593 11.6709C114.107 11.6709 112.889 12.208 111.94 13.2822C111.009 14.3564 110.544 15.7887 110.544 17.5791V19.4858ZM127.624 39.4126C127.624 37.0851 128.34 35.1605 129.772 33.6387C131.223 32.1169 133.049 31.356 135.251 31.356C137.453 31.356 139.279 32.1169 140.729 33.6387C142.198 35.1426 142.932 37.1299 142.932 39.6006V41.5073C142.932 43.8348 142.207 45.7594 140.756 47.2812C139.324 48.8031 137.507 49.564 135.305 49.564C133.103 49.564 131.267 48.812 129.799 47.3081C128.349 45.7863 127.624 43.8079 127.624 41.373V39.4126ZM130.202 41.5073C130.202 43.1903 130.659 44.5688 131.572 45.6431C132.503 46.7173 133.747 47.2544 135.305 47.2544C136.844 47.2544 138.062 46.7173 138.957 45.6431C139.87 44.5509 140.327 43.1276 140.327 41.373V39.4126C140.327 37.6938 139.861 36.3153 138.93 35.2769C138.017 34.2205 136.791 33.6924 135.251 33.6924C133.747 33.6924 132.53 34.2205 131.599 35.2769C130.668 36.3332 130.202 37.7476 130.202 39.52V41.5073ZM116.667 45.7505L114.653 44.4614L133.747 13.8999L135.761 15.189L116.667 45.7505Z" fill="#333333"/>
<path d="M152.254 18.8385L157.05 23.5586C157.377 23.8816 157.899 23.8808 158.225 23.5569L166.295 15.5584L166.295 50.15C166.295 50.6192 166.672 51 167.136 51H173.864C174.328 51 174.705 50.6192 174.705 50.15L174.705 15.5584L182.775 23.5569C183.101 23.88 183.622 23.8808 183.949 23.5586L188.745 18.8385C188.908 18.6787 189 18.4594 189 18.2299C189 18.0004 188.907 17.7811 188.745 17.6213L171.086 0.241354C170.923 0.080684 170.711 -1.86528e-08 170.5 0C170.288 1.87225e-08 170.077 0.0807837 169.913 0.241354L152.254 17.6213C152.092 17.7811 152 18.0004 152 18.2299C152 18.4594 152.092 18.6788 152.254 18.8385Z" fill="#1AB248"/>
</svg>
