<svg width="100" height="65" viewBox="0 0 100 65" fill="none" xmlns="http://www.w3.org/2000/svg">
<path fill-rule="evenodd" clip-rule="evenodd" d="M14.1719 65.001L18.2129 44.3478H24.8719L20.831 65.001H14.1719ZM34.263 58.2887H38.4747L37.3364 50.6585L34.263 58.2887ZM24.9289 65.001L35.0028 44.3478H41.605L45.646 65.001H39.5561L39.1577 62.5341H32.6693L31.5879 65.001H24.9289ZM51.7359 65.001L54.0694 49.5111H48.2641L49.2316 44.2905H67.103L66.1355 49.5111H60.6147L58.3381 65.001H51.7359ZM74.1036 58.2887H78.3153L77.2339 50.6585L74.1036 58.2887ZM64.8264 65.001L74.8435 44.3478H81.4456L85.6005 65.001H79.3398L79.1121 62.5341H72.51L71.4286 65.001H64.8264ZM100 20.9983H68.8105C67.6722 26.7927 63.6881 31.6691 55.72 34.9966C56.6306 37.8077 59.704 40.332 62.8913 40.332H79.852C82.4701 40.332 84.4622 38.0945 85.3159 36.3161H68.0706C66.9892 36.144 66.9892 35.3408 68.0137 35.1687H84.9744C87.1941 35.1687 89.1292 33.2755 90.2675 31.2102H70.6318C69.5504 31.038 69.5504 30.2349 70.6318 30.0628H90.4382C92.4872 30.0628 94.2516 27.7106 94.9915 26.1042H73.1929C72.1115 25.9321 72.1115 24.9568 73.1929 24.8995H95.3899C97.1542 24.8995 98.8048 23.0636 100 20.9983ZM0 20.9983H31.1895C32.3278 26.7927 36.3119 31.6691 44.28 34.9966C43.3694 37.8077 40.296 40.332 37.1087 40.332H20.148C17.5299 40.332 15.5378 38.0945 14.6841 36.3161H31.9294C33.0108 36.144 33.0108 35.3408 31.9863 35.1687H15.0256C12.8059 35.1687 10.8708 33.2755 9.7325 31.2102H29.3682C30.4496 31.038 30.4496 30.2349 29.3682 30.0628H9.56175C7.51281 30.0628 5.74844 27.7106 5.00854 26.1042H26.8071C27.8884 25.9321 27.8884 24.9568 26.8071 24.8995H4.61013C2.84576 24.8995 1.19522 23.0636 0 20.9983ZM39.8976 3.61527C41.0359 4.59056 42.3449 5.50848 43.7109 6.08218C44.8492 3.73001 46.5566 1.72207 48.4348 0.000976562C45.2476 0.345195 42.288 1.60733 39.8976 3.61527ZM34.3768 15.204H41.3773C41.4343 12.2781 42.1172 9.69647 43.2556 7.11483C41.7188 6.48376 40.3529 5.56585 39.0438 4.47582C36.1412 7.34431 34.4906 11.0734 34.3768 15.204ZM49.4593 8.54908V15.204H42.4587C42.5157 12.565 43.0848 9.98332 44.2231 7.51642C45.8736 8.14749 47.6949 8.49171 49.4593 8.54908ZM60.1025 3.61527C58.9641 4.59056 57.6551 5.50848 56.2891 6.08218C55.0939 3.73001 53.5003 1.83681 51.5652 0.000976562C54.7524 0.345195 57.6551 1.60733 60.1025 3.61527ZM65.6232 15.204H58.6227C58.5657 12.3355 57.8828 9.69647 56.8583 7.11483C58.3381 6.48376 59.704 5.56585 61.0131 4.47582C63.9158 7.45905 65.4525 11.1881 65.6232 15.204ZM50.5976 8.54908V15.204H57.4844C57.4844 12.5076 56.8583 9.98332 55.72 7.51642C54.0694 8.14749 52.3051 8.49171 50.5976 8.54908ZM39.8976 27.768C41.0359 26.8501 42.3449 25.8748 43.7109 25.4158C44.9061 27.768 46.4997 29.7759 48.4348 31.497C45.2476 31.0954 42.288 29.948 39.8976 27.768ZM34.3768 16.3514H41.3773C41.4343 19.2199 42.1172 21.7441 43.2556 24.4405C41.7188 25.0716 40.3529 25.9895 39.0438 27.0795C36.1981 24.211 34.4906 20.4246 34.3768 16.3514ZM49.4593 22.9489V16.3514H42.4587C42.5157 18.9904 43.0848 21.6868 44.2231 23.9816C45.8736 23.3505 47.6949 22.9489 49.4593 22.9489ZM60.1025 27.768C59.0211 26.8501 57.6551 25.9895 56.2891 25.4158C55.0939 27.768 53.5003 29.7759 51.5652 31.497C54.7524 31.0954 57.6551 29.948 60.1025 27.768ZM65.6232 16.3514H58.6227C58.5657 19.2199 57.9966 21.8589 56.8583 24.4405C58.3381 25.0716 59.704 25.9895 61.0131 27.0795C63.745 24.211 65.4525 20.3673 65.6232 16.3514ZM50.5976 22.9489V16.3514H57.4844C57.4844 18.9904 56.8583 21.572 55.72 23.9816C54.1833 23.3505 52.3051 22.9489 50.5976 22.9489ZM49.4593 0.689413C47.5811 2.18103 45.8737 4.30371 44.7353 6.48377C46.2721 7.00009 47.8088 7.40168 49.4593 7.40168V0.689413ZM50.5976 0.689413C52.362 2.18103 54.0694 4.30371 55.2077 6.48377C53.671 7.05746 52.1343 7.40168 50.5976 7.40168V0.689413ZM49.4593 30.8086C47.5811 29.317 45.8737 27.1943 44.7353 25.0142C46.2721 24.4405 47.8088 24.0963 49.4593 24.0963V30.8086ZM50.5976 30.9233C52.362 29.3743 54.0694 27.2516 55.2077 25.0142C53.671 24.4979 52.1343 24.0963 50.5976 24.0963V30.9233Z" fill="#666666"/>
</svg>
