<svg width="130" height="28" viewBox="0 0 130 28" fill="none" xmlns="http://www.w3.org/2000/svg">
<path fill-rule="evenodd" clip-rule="evenodd" d="M15.7048 0.0770434C12.7841 -0.225951 9.83989 0.369392 7.27675 1.78124C4.71361 3.19309 2.65738 5.35214 1.3907 7.96163C0.124027 10.5711 -0.290918 13.5029 0.202903 16.3541C0.696724 19.2053 2.07507 21.8358 4.14848 23.8842C6.2219 25.9325 8.88859 27.2981 11.782 27.7933C14.6755 28.2885 17.6536 27.8889 20.3071 26.6494C22.9606 25.41 25.1592 23.3916 26.6006 20.8716C28.0421 18.3516 28.6557 15.4538 28.3571 12.5765C28.0285 9.3781 26.5909 6.38893 24.2864 4.11228C21.9819 1.83563 18.9513 0.410566 15.7048 0.0770434V0.0770434ZM15.2441 21.4088C13.6733 21.6163 12.076 21.3339 10.6766 20.6012C9.27718 19.8685 8.14608 18.7223 7.44225 17.3238C6.73841 15.9252 6.49724 14.3447 6.75261 12.8042C7.00798 11.2637 7.74707 9.84072 8.86599 8.73528C9.98491 7.62984 11.4274 6.89749 12.9908 6.64117C14.5541 6.38484 16.1598 6.61742 17.582 7.30622C19.0042 7.99502 20.1715 9.10541 20.9199 10.4813C21.6682 11.8573 21.96 13.4295 21.7542 14.9772C21.5382 16.6051 20.7833 18.1175 19.6065 19.2802C18.4296 20.4428 16.8964 21.191 15.2441 21.4088V21.4088ZM35.9602 0.630899C35.4671 0.632061 34.9806 0.74146 34.5359 0.951136C34.0912 1.16081 33.6995 1.46549 33.3895 1.843C33.0794 2.22051 32.8587 2.66135 32.7433 3.13345C32.628 3.60555 32.621 4.09703 32.7229 4.57213C33.0348 6.11129 34.4945 7.16296 36.0847 7.16296H45.3129L30.9517 25.8804C30.8455 26.0185 30.7805 26.1831 30.7639 26.3557C30.7474 26.5282 30.7799 26.7019 30.858 26.8572C30.936 27.0126 31.0564 27.1434 31.2058 27.2351C31.3551 27.3268 31.5274 27.3758 31.7034 27.3764H54.2302C55.8194 27.3764 57.2802 26.325 57.5921 24.7856C57.6939 24.3106 57.687 23.8192 57.5718 23.3471C57.4566 22.8751 57.236 22.4343 56.926 22.0567C56.6161 21.6792 56.2246 21.3744 55.7801 21.1646C55.3355 20.9548 54.8491 20.8452 54.3561 20.8438H43.1123L57.4624 2.14098C57.5697 2.00146 57.6353 1.83526 57.652 1.66104C57.6687 1.48682 57.6358 1.31146 57.5569 1.15464C57.4781 0.997823 57.3564 0.865749 57.2056 0.773238C57.0547 0.680726 56.8807 0.631436 56.703 0.630899H35.9602V0.630899ZM125.976 0.706244C125.23 0.880903 124.567 1.301 124.097 1.89709C123.626 2.49317 123.377 3.22954 123.389 3.98443V14.8601L105.495 0.836315C105.355 0.726614 105.186 0.658156 105.008 0.638813C104.83 0.619471 104.65 0.650031 104.489 0.726978C104.327 0.803925 104.192 0.924133 104.097 1.07377C104.002 1.22341 103.952 1.39641 103.952 1.57285V24.0287C103.94 24.7836 104.19 25.52 104.66 26.1161C105.131 26.7122 105.794 27.1323 106.539 27.3069C107.024 27.4119 107.526 27.4084 108.009 27.2968C108.491 27.1851 108.942 26.9682 109.329 26.6619C109.715 26.3557 110.027 25.9679 110.24 25.5273C110.454 25.0866 110.565 24.6043 110.564 24.116V13.1462L128.458 27.1702C128.598 27.2799 128.767 27.3483 128.945 27.3676C129.123 27.3869 129.303 27.3564 129.464 27.2795C129.625 27.2025 129.761 27.0824 129.856 26.9328C129.951 26.7832 130.001 26.6103 130 26.434V3.89613C130.001 3.40788 129.89 2.92573 129.676 2.48524C129.463 2.04475 129.151 1.65715 128.765 1.35101C128.379 1.04488 127.928 0.828026 127.445 0.716434C126.962 0.604842 126.46 0.60136 125.976 0.706244V0.706244ZM79.3864 6.53772C86.9549 6.53772 92.6099 10.4768 92.6099 14.0004C92.6099 17.5239 86.9549 21.463 79.3864 21.463C71.818 21.463 66.1629 17.5239 66.1629 14.0004C66.1629 10.4768 71.818 6.53772 79.3864 6.53772V6.53772ZM79.3864 0.00592784C68.4314 0.00592784 59.5508 6.2715 59.5508 14.0004C59.5508 21.7292 68.4314 27.9948 79.3864 27.9948C90.3414 27.9948 99.2217 21.7292 99.2217 14.0004C99.2217 6.2715 90.3412 0.00592784 79.3864 0.00592784V0.00592784Z" fill="#0069FF"/>
</svg>
