<svg width="1920" height="711" viewBox="0 0 1920 711" fill="none" xmlns="http://www.w3.org/2000/svg">
<path d="M1758.67 702.434C1741.22 592.995 1639.56 459.77 1673.76 358.333C1695.83 292.884 1758.84 240.685 1828.31 252.513C1885.68 263.949 1915.84 332.693 1866.58 355.503C1814.12 379.789 1799.13 288.25 1799.25 257.651C1799.57 180.879 1864.44 94.3623 1924.35 60.7246C2013.46 10.69 2117.49 68.3589 2208.62 21.6847" stroke="#BBBBBB" stroke-width="2" stroke-linecap="round" stroke-linejoin="round" stroke-dasharray="4 5"/>
<path d="M1772.33 83.9952L1793.87 87.087C1794.49 87.087 1795.1 87.087 1795.72 87.087C1796.33 87.087 1796.95 87.087 1797.56 86.7778C1798.18 86.7778 1798.49 86.4686 1799.1 86.4686C1799.72 86.1594 1800.03 86.1594 1800.33 85.8502L1802.8 84.3043L1784.95 74.1014L1772.33 83.9952ZM1788.64 148.614V147.995C1787.41 148.614 1786.48 148.923 1785.25 148.923V149.541C1786.48 149.541 1787.72 149.232 1788.64 148.614ZM1789.87 147.686V148.304C1791.72 147.377 1793.56 146.14 1795.41 145.213V144.594C1793.56 145.522 1791.72 146.758 1789.87 147.686ZM1789.87 149.541C1788.02 150.469 1786.48 151.087 1784.95 151.087C1784.02 151.087 1783.1 151.087 1782.18 151.087C1781.25 151.087 1780.64 151.087 1779.71 150.778L1745.25 143.667L1731.71 151.396C1731.4 151.705 1730.78 151.705 1730.17 151.705C1729.55 151.705 1728.63 151.396 1727.71 151.087C1726.48 150.469 1725.24 149.232 1724.32 147.686C1723.4 146.14 1723.09 144.594 1723.09 143.048C1723.09 142.121 1723.4 141.193 1723.71 140.575C1724.01 139.957 1724.32 139.647 1724.94 139.338L1725.24 139.029L1710.17 135.937C1698.47 142.739 1685.55 151.396 1673.85 156.961C1672.31 157.889 1670.77 158.507 1668.93 159.126C1667.39 160.671 1665.85 160.981 1664.31 161.599L1660.62 162.527C1659.7 162.836 1658.46 163.145 1657.23 163.454L1656.31 163.763C1654.77 164.072 1652.93 164.691 1651.39 165C1649.54 165 1648 165 1646.77 164.691C1645.54 164.382 1644.31 163.763 1642.77 162.836C1642.15 162.217 1641.54 161.908 1640.92 161.29C1640.31 160.671 1640 160.053 1640 158.816V158.507V156.961C1640 150.469 1640 148.614 1648 139.647C1648.31 139.338 1648.62 138.72 1649.23 138.101C1650.77 135.937 1652.93 133.155 1656.62 131.3C1664.62 126.662 1672.31 122.024 1679.7 117.696L1676.93 113.058L1671.39 116.15C1670.77 116.459 1670.47 116.459 1669.85 116.459C1669.24 116.459 1668.31 116.15 1667.39 115.841C1666.16 115.222 1664.93 113.986 1664 112.44C1663.08 110.894 1662.77 109.348 1662.77 107.802C1662.77 106.874 1663.08 105.947 1663.39 105.328C1663.39 105.019 1663.7 104.71 1664.31 104.401L1669.24 101.618L1653.23 75.6473C1652.93 75.029 1652.62 74.4106 1652.62 73.7923C1652.62 73.1739 1652.62 72.5556 1652.93 71.9372C1653.23 71.3188 1653.54 70.7005 1654.16 70.0821C1654.77 69.4638 1655.39 69.1546 1656 68.8454L1665.85 63.2802C1666.16 62.971 1666.77 62.971 1667.08 63.2802L1710.47 101C1725.24 93.2705 1740.32 85.5411 1756.33 78.1208L1751.71 64.5169C1751.4 63.8985 1751.4 63.5894 1751.4 62.971C1751.4 62.3527 1751.71 62.0435 1751.71 61.4251C1752.02 61.1159 1752.33 60.4976 1752.63 60.1884C1752.94 59.8792 1753.56 59.57 1754.17 59.2609L1758.17 57.0966C1758.48 56.7874 1758.79 56.7874 1759.1 57.0966L1772.02 64.2077L1784.02 42.256L1784.33 41.9469L1792.64 37C1792.95 37 1793.26 37 1793.56 37C1794.18 37 1794.49 37.6184 1794.49 38.2367L1789.25 66.372C1790.79 67.6087 1791.72 69.4638 1792.33 71.3188C1792.64 72.8647 1792.64 74.7198 1792.02 76.2657L1805.56 84.3043C1805.87 84.3043 1805.87 84.6135 1805.87 84.6135C1806.18 85.2319 1805.87 85.5411 1805.56 85.8502L1801.56 88.0145C1800.95 88.3237 1800.33 88.6328 1799.72 88.942C1799.1 89.2512 1798.49 89.2512 1797.87 89.5604C1797.26 89.5604 1796.64 89.8696 1795.72 89.8696C1795.1 89.8696 1794.18 89.8696 1793.56 89.8696L1779.1 87.7053L1764.02 101.618C1764.02 101.618 1764.02 101.618 1763.71 101.928L1740.94 118.314L1799.1 140.884C1799.41 140.884 1799.41 141.193 1799.72 141.193C1800.03 141.502 1799.72 142.121 1799.41 142.43V143.976C1799.41 144.285 1799.41 144.285 1799.1 144.594C1798.18 145.213 1797.26 145.831 1796.02 146.449C1794.49 147.068 1792.33 148.614 1789.87 149.541ZM1796.64 143.976V144.285C1797.26 143.976 1797.87 143.357 1798.49 143.048V142.739L1797.56 143.357L1796.64 143.976ZM1672.01 109.657L1673.85 108.729L1670.47 103.164L1668 104.71H1668.31C1669.54 105.328 1670.77 106.565 1671.7 108.111C1671.7 108.729 1671.7 109.039 1672.01 109.657ZM1674.47 109.657L1672.62 110.894C1672.93 111.512 1672.93 112.13 1672.93 112.749V113.058L1675.7 111.512L1674.47 109.657ZM1732.63 145.213L1737.55 142.43L1729.24 140.575C1730.17 141.193 1731.4 142.43 1732.01 143.667C1732.32 143.976 1732.63 144.594 1732.63 145.213ZM1739.4 142.43L1733.25 146.14C1733.55 146.758 1733.55 147.377 1733.55 147.995V148.304L1742.48 143.048L1739.4 142.43ZM1771.71 74.1014V68.5362L1768.33 74.4106L1767.4 75.9565L1771.71 74.1014ZM1772.94 66.6812V73.7923L1778.48 71.0097V56.7874L1772.94 66.6812ZM1779.71 54.6232V70.0821L1785.25 67.2995V45.0386L1779.71 54.6232ZM1786.18 43.1836V66.6812L1787.1 66.372L1792.02 39.7826L1786.18 43.1836ZM1773.87 88.6329V87.087C1772.02 88.6329 1770.48 89.8696 1768.33 91.4155V93.5797L1773.87 88.6329ZM1775.1 86.4686V87.3961L1776.02 86.4686H1775.1ZM1695.7 141.812V139.338C1693.85 140.266 1692.01 141.502 1690.16 142.43V144.903L1695.7 141.812ZM1696.93 138.72V141.193L1702.47 138.101V135.628C1700.32 136.556 1698.47 137.792 1696.93 138.72ZM1703.39 135.01V137.174L1706.16 135.628L1703.39 135.01ZM1740.94 114.604V111.203C1739.09 112.44 1736.94 113.986 1735.09 115.222L1738.48 116.459L1740.94 114.604ZM1742.17 110.585V113.986L1747.71 109.966V106.874C1745.86 108.111 1744.02 109.348 1742.17 110.585ZM1748.94 105.947V109.039L1754.48 105.019V101.928C1752.33 103.473 1750.79 104.71 1748.94 105.947ZM1755.4 101.309V104.401L1760.94 100.382V97.2899C1759.1 98.5266 1757.25 100.072 1755.4 101.309ZM1761.87 96.3623V99.4541L1762.48 99.1449L1767.4 94.8164V92.343C1765.56 93.5797 1763.71 95.1256 1761.87 96.3623ZM1649.54 162.217V159.435C1646.77 159.744 1644.31 159.435 1642.46 158.198L1642.15 157.889V158.198C1642.15 158.816 1642.46 159.126 1642.46 159.126C1642.77 159.435 1643.08 159.744 1643.69 160.053C1644.92 160.671 1645.85 161.29 1647.08 161.599C1648 162.217 1648.62 162.217 1649.54 162.217ZM1650.77 159.435V162.527H1651.08C1652.62 162.217 1654.16 161.908 1655.69 161.599L1656.31 161.29V158.507C1654.16 158.816 1652.62 159.126 1650.77 159.435ZM1657.54 157.889V160.671C1658.16 160.671 1659.08 160.362 1660 160.053C1660.93 159.744 1661.85 159.435 1663.08 159.126V156.034C1660.93 156.652 1659.08 157.271 1657.54 157.889ZM1664 155.725V159.126C1665.54 158.816 1666.77 158.198 1668.31 157.58C1668.62 157.271 1669.24 157.271 1669.54 156.961V153.251C1668.62 153.56 1667.7 153.87 1667.08 154.488C1665.85 154.797 1664.93 155.106 1664 155.725ZM1670.47 152.633V156.343C1671.08 156.034 1672.01 155.725 1672.62 155.106L1676.01 153.251V150.159C1674.16 151.087 1672.31 152.014 1670.47 152.633ZM1677.24 149.541V152.633L1682.78 149.541V146.758C1680.62 147.686 1678.78 148.614 1677.24 149.541ZM1683.7 146.14V148.923L1689.24 145.831V143.357C1687.39 144.285 1685.55 145.213 1683.7 146.14ZM1706.16 131.609L1779.71 147.068C1780.64 147.377 1781.25 147.377 1782.18 147.377C1783.1 147.377 1783.72 147.377 1784.64 147.377C1787.72 147.068 1792.64 143.976 1796.33 141.812L1796.95 141.502L1732.63 116.459L1706.16 131.609ZM1704.32 133.155V133.773C1728.63 139.029 1755.1 144.285 1780.02 149.541C1780.95 149.85 1781.56 149.85 1782.48 149.85C1783.1 149.85 1783.72 149.85 1784.33 149.85V149.232C1783.72 149.232 1783.1 149.232 1782.48 149.232C1781.56 149.232 1780.64 149.232 1779.71 148.923C1754.79 143.667 1727.71 138.101 1704.32 133.155ZM1702.78 132.845C1702.78 132.536 1702.78 132.536 1702.78 132.845C1702.16 132.227 1702.47 131.609 1703.09 131.3L1732.01 114.295C1732.32 114.295 1732.63 113.986 1732.94 114.295C1739.71 109.966 1746.79 105.019 1753.25 100.382C1760.02 95.4348 1766.48 90.4879 1772.02 85.8502L1769.56 85.5411C1769.25 85.5411 1768.94 85.2319 1768.94 85.2319C1768.64 84.9227 1768.64 84.3043 1769.25 83.9952L1784.33 72.5556C1784.64 72.2464 1784.95 72.2464 1785.25 72.5556L1786.48 73.1739C1787.1 72.5556 1787.72 71.9372 1788.02 71.628C1788.33 71.3188 1788.64 71.0097 1788.95 70.7005C1788.64 69.7729 1788.02 69.1546 1787.41 68.8454L1765.56 79.9758C1765.25 79.9758 1764.94 79.9758 1764.64 79.9758C1764.02 79.6667 1764.02 79.0483 1764.33 78.7391L1765.87 76.2657L1759.71 79.0483L1731.4 92.6522L1697.24 110.585L1684.31 117.386L1657.54 133.464C1656.31 134.082 1655.08 135.01 1654.16 135.937V136.246C1654.16 137.174 1654.77 138.101 1656 139.029C1657.23 139.957 1658.77 141.193 1660.31 141.812C1662.77 143.048 1665.85 143.667 1668.62 143.357L1671.08 143.048C1671.39 143.048 1671.7 143.357 1672.01 143.667C1672.31 144.285 1672.01 144.594 1671.7 144.903L1669.85 145.831C1664.93 148.304 1660.31 150.778 1654.77 147.377C1651.08 145.213 1649.85 143.357 1649.54 141.193C1643.08 148.304 1642.46 150.469 1642.46 154.797C1642.77 155.415 1643.08 155.415 1643.69 156.034C1647.69 158.198 1655.69 156.343 1666.16 152.014C1676.62 147.995 1689.24 140.884 1702.78 132.845ZM1767.71 72.2464L1771.1 66.0628L1758.17 58.6425L1754.79 60.4976C1754.48 60.8068 1754.17 61.1159 1753.86 61.1159C1753.25 61.7343 1753.25 61.7343 1752.94 62.0435C1752.94 62.3527 1752.63 62.3527 1752.63 62.6618C1752.63 62.971 1752.63 63.2802 1752.63 63.2802L1757.25 76.8841C1760.63 75.3382 1764.02 73.7923 1767.71 72.2464ZM1788.33 74.1014L1789.25 74.7198C1789.56 74.1014 1789.56 73.4831 1789.56 72.8647C1789.25 73.1739 1788.95 73.7923 1788.33 74.1014ZM1728.01 148.304C1727.4 147.995 1727.09 147.377 1726.48 146.758C1726.17 146.14 1725.86 145.522 1725.86 144.903C1725.86 144.594 1725.86 143.976 1726.17 143.976C1726.17 143.667 1726.48 143.667 1726.78 143.357L1728.32 142.43C1728.01 142.43 1728.01 142.121 1727.71 142.121C1727.09 141.812 1726.78 141.812 1726.48 141.812C1726.17 141.812 1726.17 141.812 1725.86 141.812L1725.55 142.121C1725.24 142.43 1725.24 143.048 1725.24 143.357C1725.24 144.594 1725.55 145.831 1726.17 147.068C1726.78 148.304 1727.71 149.232 1728.63 149.85C1729.24 150.159 1729.55 150.159 1729.86 150.159C1730.17 150.159 1730.17 150.159 1730.48 150.159L1730.78 149.85C1731.09 149.541 1731.09 148.923 1731.09 148.614C1731.09 148.304 1731.09 147.995 1731.09 147.995L1729.86 148.304C1729.55 148.304 1729.24 148.614 1729.24 148.614C1728.63 148.614 1728.32 148.304 1728.01 148.304ZM1728.94 143.357C1729.24 143.667 1729.86 143.976 1730.17 144.594C1730.48 145.213 1730.78 145.522 1730.78 146.14L1731.4 145.831C1731.09 145.213 1731.09 144.903 1730.78 144.285C1730.48 143.667 1730.17 143.357 1729.86 143.048L1728.94 143.357ZM1727.71 146.14C1728.01 146.449 1728.32 147.068 1728.63 147.068C1728.94 147.068 1728.94 147.068 1728.94 147.068V146.758C1728.94 146.449 1728.94 145.831 1728.63 145.522C1728.32 145.213 1728.01 144.903 1727.71 144.594C1727.4 144.594 1727.4 144.594 1727.4 144.594V144.903C1727.09 145.213 1727.4 145.522 1727.71 146.14ZM1652.93 138.411C1652.93 139.029 1652.93 139.338 1652.93 139.647C1653.23 140.884 1653.85 142.121 1655.08 143.048C1656.31 143.976 1657.85 144.594 1659.7 144.903C1661.54 145.213 1663.39 145.213 1665.23 145.213C1663.08 145.213 1661.23 144.594 1659.7 143.667C1657.85 142.739 1656 141.812 1654.77 140.575C1653.85 139.957 1653.23 139.338 1652.93 138.411ZM1663.7 146.758C1662.16 146.758 1660.62 146.758 1659.08 146.449C1657.23 146.14 1655.39 145.213 1654.16 144.285C1652.93 143.357 1652 141.812 1651.69 140.266C1651.69 140.575 1651.39 140.884 1651.39 141.502C1651.39 143.048 1652.31 144.594 1655.69 146.14C1658.46 147.686 1661.23 147.686 1663.7 146.758ZM1736.63 103.783L1737.25 103.473C1737.55 103.164 1737.86 103.164 1738.17 103.164C1738.48 103.164 1738.48 103.164 1738.78 103.473C1739.09 103.473 1739.09 103.783 1739.09 103.783C1739.09 104.092 1739.4 104.401 1739.4 104.71V106.256C1739.4 106.874 1739.09 107.184 1739.09 107.802C1738.78 108.42 1738.48 108.729 1737.86 109.039L1737.25 109.348C1736.94 109.657 1736.63 109.657 1736.32 109.657C1736.02 109.657 1736.02 109.657 1735.71 109.348C1735.4 109.348 1735.4 109.039 1735.4 109.039C1735.4 108.729 1735.09 108.42 1735.09 108.111V106.565C1735.09 105.947 1735.4 105.638 1735.4 105.019C1736.02 104.401 1736.32 103.783 1736.63 103.783ZM1737.86 104.401L1737.55 104.71C1737.25 104.71 1737.25 105.019 1736.94 105.328C1736.63 105.638 1736.63 105.947 1736.63 106.256V108.111V108.42C1736.63 108.42 1736.63 108.42 1736.94 108.42L1737.55 108.111C1737.86 108.111 1737.86 107.802 1738.17 107.493C1738.48 107.184 1738.48 106.874 1738.48 106.565L1737.86 104.401C1738.17 104.71 1738.17 104.401 1737.86 104.401C1738.17 104.401 1737.86 104.401 1737.86 104.401ZM1729.24 108.111L1729.55 107.802C1729.86 107.493 1730.17 107.493 1730.48 107.493C1730.78 107.493 1730.78 107.493 1731.09 107.802C1731.4 107.802 1731.4 108.111 1731.71 108.42C1731.71 108.729 1732.01 109.039 1732.01 109.348V110.894C1732.01 111.512 1731.71 111.821 1731.71 112.44C1731.4 112.749 1731.09 113.367 1730.78 113.676L1730.17 113.986C1729.86 114.295 1729.55 114.295 1729.24 114.295C1728.94 114.295 1728.94 114.295 1728.63 113.986C1728.32 113.986 1728.32 113.676 1728.01 113.367C1728.01 113.058 1727.71 112.749 1727.71 112.44V110.894C1727.71 110.275 1728.01 109.966 1728.01 109.348C1728.32 108.729 1728.63 108.42 1729.24 108.111ZM1730.17 109.039L1729.86 109.348C1729.55 109.348 1729.55 109.657 1729.24 109.966C1728.94 110.275 1728.94 110.585 1728.94 110.894V112.44V112.749C1728.94 112.749 1728.94 112.749 1729.24 112.749L1729.86 112.44C1730.17 112.44 1730.17 112.13 1730.48 111.821C1730.78 111.512 1730.78 111.203 1730.78 110.894L1730.17 109.039C1730.48 109.039 1730.48 109.039 1730.17 109.039C1730.48 108.729 1730.48 109.039 1730.17 109.039ZM1721.86 112.44L1722.17 112.13C1722.47 111.821 1722.78 111.821 1723.09 111.821C1723.4 111.821 1723.4 111.821 1723.71 112.13C1724.01 112.13 1724.01 112.44 1724.32 112.749C1724.32 113.058 1724.63 113.367 1724.63 113.676V115.222C1724.63 115.841 1724.32 116.15 1724.32 116.768C1724.01 117.077 1723.71 117.696 1723.4 118.005L1723.09 118.314C1722.78 118.623 1722.47 118.623 1722.17 118.623C1721.86 118.623 1721.86 118.623 1721.55 118.314C1721.24 118.314 1721.24 118.005 1720.94 117.696C1720.94 117.386 1720.63 117.077 1720.63 116.768V115.222C1720.63 114.604 1720.94 114.295 1720.94 113.676C1720.94 113.058 1721.55 112.44 1721.86 112.44ZM1722.78 113.367L1722.47 113.676C1722.17 113.676 1722.17 113.986 1721.86 114.295C1721.55 114.604 1721.55 114.913 1721.55 115.222V116.768V117.077C1721.55 117.077 1721.55 117.077 1721.86 117.077L1722.17 116.768C1722.47 116.768 1722.47 116.459 1722.78 116.15C1723.09 115.841 1723.09 115.531 1723.09 115.222L1722.78 113.367C1723.09 113.367 1723.09 113.058 1722.78 113.367C1723.09 113.058 1723.09 113.058 1722.78 113.367ZM1714.17 116.768L1714.78 116.459C1715.09 116.15 1715.4 116.15 1715.7 116.15C1716.01 116.15 1716.01 116.15 1716.32 116.459C1716.63 116.459 1716.63 116.768 1716.63 116.768C1716.63 117.077 1716.94 117.386 1716.94 117.696V119.242C1716.94 119.86 1716.63 120.169 1716.63 120.787C1716.32 121.097 1716.01 121.715 1715.7 122.024L1715.4 122.333C1715.09 122.643 1714.78 122.643 1714.47 122.643C1714.17 122.643 1714.17 122.643 1713.86 122.333C1713.55 122.333 1713.55 122.024 1713.24 121.715C1713.24 121.406 1712.93 121.097 1712.93 120.787V119.242C1712.93 118.623 1713.24 118.314 1713.24 117.696C1713.55 117.386 1713.86 117.077 1714.17 116.768ZM1715.4 117.696L1715.09 118.005C1714.78 118.005 1714.78 118.314 1714.47 118.623C1714.17 118.932 1714.17 119.242 1714.17 119.551V121.097V121.406C1714.17 121.406 1714.17 121.406 1714.47 121.406L1714.78 121.097C1715.09 121.097 1715.09 120.787 1715.4 120.478C1715.7 120.169 1715.7 119.86 1715.7 119.551L1715.4 117.696C1715.7 117.696 1715.7 117.696 1715.4 117.696ZM1706.78 121.097L1707.09 120.787C1707.4 120.478 1707.7 120.478 1708.01 120.478C1708.32 120.478 1708.32 120.478 1708.63 120.787C1708.93 120.787 1708.93 121.097 1709.24 121.406C1709.24 121.715 1709.55 122.024 1709.55 122.333V123.879C1709.55 124.498 1709.24 124.807 1709.24 125.425C1708.93 126.043 1708.63 126.353 1708.01 126.662H1707.4C1707.09 126.971 1706.78 126.971 1706.47 126.971C1706.16 126.971 1706.16 126.971 1705.86 126.662C1705.55 126.662 1705.55 126.353 1705.55 126.353C1705.55 126.043 1705.24 125.734 1705.24 125.425V123.879C1705.24 123.261 1705.55 122.952 1705.55 122.333C1705.86 121.715 1706.16 121.406 1706.78 121.097ZM1707.7 122.024L1707.4 122.333C1707.09 122.333 1707.09 122.643 1706.78 122.952C1706.47 123.261 1706.47 123.57 1706.47 123.879V125.425V125.734C1706.47 125.734 1706.47 125.734 1706.78 125.734L1707.4 125.425C1707.7 125.425 1707.7 125.116 1708.01 124.807C1708.32 124.498 1708.32 124.188 1708.32 123.879L1707.7 122.024C1708.01 122.024 1708.01 122.024 1707.7 122.024C1708.01 122.024 1707.7 122.024 1707.7 122.024ZM1699.09 125.425L1699.39 125.116C1699.7 124.807 1700.01 124.807 1700.32 124.807C1700.63 124.807 1700.63 124.807 1700.93 125.116C1701.24 125.116 1701.24 125.425 1701.55 125.734C1701.55 126.043 1701.86 126.353 1701.86 126.662V128.208C1701.86 128.826 1701.55 129.135 1701.55 129.754C1701.24 130.063 1700.93 130.681 1700.63 130.99L1700.01 131.3C1699.7 131.609 1699.39 131.609 1699.09 131.609C1698.78 131.609 1698.78 131.609 1698.47 131.3C1698.16 131.3 1698.16 130.99 1698.16 130.99C1698.16 130.681 1697.86 130.372 1697.86 130.063V128.517C1697.86 127.899 1698.16 127.589 1698.16 126.971C1698.16 126.353 1698.78 125.734 1699.09 125.425ZM1700.32 126.353L1699.7 126.662C1699.39 126.662 1699.39 126.971 1699.09 127.28C1698.78 127.589 1698.78 127.899 1698.78 128.208V129.754V130.063C1698.78 130.063 1698.78 130.063 1699.09 130.063L1699.7 129.754C1700.01 129.754 1700.01 129.444 1700.32 129.135C1700.63 128.826 1700.63 128.517 1700.63 128.208L1700.32 126.353ZM1691.39 130.063L1692.01 129.754C1692.32 129.444 1692.62 129.444 1692.93 129.444C1693.24 129.444 1693.24 129.444 1693.55 129.754C1693.85 129.754 1693.85 130.063 1694.16 130.372C1694.16 130.681 1694.47 130.99 1694.47 131.3V132.845C1694.47 133.464 1694.16 133.773 1694.16 134.391C1693.85 135.01 1693.55 135.319 1692.93 135.628H1692.01C1692.01 135.628 1691.7 135.937 1691.39 135.937C1691.09 135.937 1691.09 135.937 1690.78 135.628C1690.47 135.628 1690.47 135.319 1690.16 135.01C1690.16 134.7 1689.85 134.391 1689.85 134.082V132.536C1689.85 131.918 1690.16 131.609 1690.16 130.99C1690.78 130.681 1691.09 130.063 1691.39 130.063ZM1692.62 130.681L1692.01 130.99C1691.7 130.99 1691.7 131.3 1691.39 131.609C1691.09 131.918 1691.09 132.227 1691.09 132.536V134.082V134.391C1691.09 134.391 1691.09 134.391 1691.39 134.391L1691.7 134.082C1692.01 134.082 1692.01 133.773 1692.32 133.464C1692.62 133.155 1692.62 132.845 1692.62 132.536V130.681C1692.93 130.99 1692.93 130.681 1692.62 130.681ZM1684.01 134.391L1684.31 134.082C1684.62 133.773 1684.93 133.773 1685.24 133.773C1685.55 133.773 1685.55 133.773 1685.85 134.082C1686.16 134.082 1686.16 134.391 1686.47 134.7C1686.47 135.01 1686.78 135.319 1686.78 135.628V137.174C1686.78 137.792 1686.47 138.101 1686.47 138.72C1686.16 139.338 1685.85 139.647 1685.24 139.957L1684.93 140.266C1684.62 140.575 1684.31 140.575 1684.01 140.575C1683.7 140.575 1683.7 140.575 1683.39 140.266C1683.08 140.266 1683.08 139.957 1682.78 139.647C1682.78 139.338 1682.47 139.029 1682.47 138.72V137.174C1682.47 136.556 1682.78 136.246 1682.78 135.628C1683.08 135.01 1683.39 134.7 1684.01 134.391ZM1684.93 135.319L1684.62 135.628C1684.31 135.628 1684.31 135.937 1684.01 136.246C1683.7 136.556 1683.7 136.865 1683.7 137.174V138.72V139.029C1683.7 139.029 1683.7 139.029 1684.01 139.029L1684.31 138.72C1684.62 138.72 1684.62 138.411 1684.93 138.101C1685.24 137.792 1685.24 137.483 1685.24 137.174L1684.93 135.319C1685.24 135.319 1685.24 135.319 1684.93 135.319C1685.24 135.01 1685.24 135.319 1684.93 135.319ZM1680.93 116.768C1689.85 111.512 1698.78 106.565 1708.01 101.928L1665.54 65.1353L1656.31 70.3913C1656 70.7005 1655.39 71.0097 1655.08 71.3188C1654.77 71.628 1654.46 71.9372 1654.46 72.2464C1654.46 72.5556 1654.16 72.8647 1654.46 73.1739C1654.46 73.4831 1654.77 73.7923 1654.77 74.4106L1680.93 116.768ZM1667.08 112.749C1666.47 112.44 1666.16 111.821 1665.85 111.203C1665.54 110.585 1665.23 109.966 1665.23 109.348C1665.23 109.039 1665.23 108.42 1665.54 108.42C1665.54 108.111 1665.85 108.111 1666.16 107.802L1667.7 106.874C1667.39 106.874 1667.39 106.565 1667.08 106.565C1666.47 106.256 1666.16 106.256 1665.85 106.256C1665.54 106.256 1665.54 106.256 1665.23 106.256L1664.93 106.565C1664.62 106.874 1664.31 107.184 1664.31 107.802C1664.31 109.039 1664.62 110.275 1665.23 111.203C1665.85 112.44 1666.77 113.367 1667.7 113.986C1668.31 114.295 1668.62 114.295 1668.93 114.295C1669.24 114.295 1669.24 114.295 1669.54 114.295L1669.85 113.986C1670.16 113.676 1670.16 113.058 1670.16 112.749C1670.16 112.44 1670.16 112.44 1670.16 112.13L1668.62 113.058C1668.31 113.058 1668.31 113.367 1668 113.367C1668 113.058 1667.7 113.058 1667.08 112.749ZM1668 108.111C1668.31 108.42 1668.93 108.729 1669.24 109.348C1669.54 109.966 1669.85 110.275 1669.85 110.894L1670.47 110.585C1670.16 109.966 1670.16 109.657 1669.85 109.039C1669.54 108.42 1669.24 108.111 1668.93 107.802L1668 108.111ZM1667.08 110.585C1667.39 110.894 1667.7 111.203 1668 111.512C1668.31 111.512 1668.31 111.512 1668.31 111.512V111.203C1668.31 110.894 1668.31 110.275 1668 109.966C1667.7 109.657 1667.39 109.348 1667.08 109.039H1666.77V109.348C1666.47 109.657 1666.77 110.275 1667.08 110.585Z" fill="#334045"/>
<path d="M329.138 608.757C307.68 560.121 312.772 507.188 257.895 473.973C214.071 452.655 177.901 457.406 136.553 476.528C108.805 489.361 81.7905 501.093 50.4977 495.345C1.51145 486.348 -41.1059 428.243 -48.2577 378.18C-55.9597 324.266 -33.385 282.147 -23.2263 231.843" stroke="#BBBBBB" stroke-width="2" stroke-linecap="round" stroke-linejoin="round" stroke-dasharray="4 5"/>
<path d="M226.701 424.568C229.485 422.422 232.913 420.063 236.126 417.703C243.838 412.34 251.978 406.547 257.547 400.755C259.689 398.395 261.403 395.392 262.688 391.745C263.76 388.098 264.402 384.022 264.402 379.517C264.402 367.289 260.118 353.559 253.049 341.331C245.98 329.318 236.34 318.806 225.844 312.584C219.632 308.938 213.848 307.436 208.921 307.436C205.279 307.436 202.066 308.294 199.281 309.796C196.496 311.512 194.14 313.872 192.212 316.875C189.642 321.166 188.356 327.172 188.356 334.252C188.356 338.757 188.999 343.691 190.07 348.84C191.355 353.774 193.069 358.922 195.425 364.071C200.995 376.514 209.135 391.745 216.847 406.118C220.274 412.554 223.702 418.775 226.701 424.568ZM253.906 338.328L259.689 335.11C256.048 329.318 251.764 323.74 246.837 318.591C242.552 314.301 237.625 310.439 232.484 307.65C227.343 304.861 221.559 302.931 215.347 303.145C213.634 303.36 212.134 303.574 210.849 303.789C209.563 304.003 208.278 304.432 206.779 305.076C207.421 305.076 208.064 305.076 208.707 305.076C214.062 305.076 220.274 306.792 226.701 310.654C237.411 316.66 246.837 326.743 253.906 338.328ZM259.904 335.753L254.12 338.971C254.334 339.4 254.548 339.829 254.977 340.258C255.405 340.902 255.619 341.546 256.048 342.189L261.832 338.971C261.189 337.899 260.761 336.826 260.118 335.968L259.904 335.753ZM262.26 339.615L256.476 342.833C257.119 343.905 257.547 344.978 258.19 346.265L263.76 343.047C263.331 341.975 262.903 340.902 262.26 339.615ZM264.188 343.691L258.618 346.909C259.261 347.981 259.689 349.269 260.118 350.341L265.687 347.123C265.259 346.051 264.831 344.978 264.188 343.691ZM266.116 347.981L260.546 351.199C260.975 352.272 261.403 353.559 262.046 354.846L267.615 351.628C266.973 350.341 266.544 349.269 266.116 347.981ZM267.83 352.272L262.26 355.49C262.688 356.777 263.117 357.85 263.545 359.137L269.115 355.919C268.686 354.846 268.258 353.559 267.83 352.272ZM269.329 356.777L263.76 359.995C264.188 361.282 264.402 362.569 264.831 363.856L270.4 360.639C269.972 359.351 269.543 358.064 269.329 356.777ZM270.4 361.497L264.831 364.715C265.045 366.002 265.473 367.289 265.687 368.576L271.257 365.358C271.043 364.071 270.829 362.784 270.4 361.497ZM271.471 366.216L265.902 369.434C266.116 370.721 266.33 372.223 266.544 373.51L272.114 370.292C271.685 368.791 271.471 367.503 271.471 366.216ZM271.9 371.15L266.33 374.368C266.544 375.87 266.544 377.157 266.544 378.659L271.9 375.441C272.114 373.939 272.114 372.652 271.9 371.15ZM272.114 376.299L266.759 379.517V379.731C266.759 381.233 266.758 382.735 266.544 384.022L271.9 381.019C271.9 380.59 271.9 380.16 272.114 379.731C272.114 378.444 272.114 377.372 272.114 376.299ZM271.685 381.877L266.544 384.88C266.33 386.596 266.116 388.098 265.687 389.6L270.614 386.811C271.043 385.309 271.471 383.593 271.685 381.877ZM270.186 388.098L265.259 390.887C265.045 391.53 264.831 391.959 264.831 392.603C264.402 393.89 263.974 395.177 263.331 396.465L267.187 394.319C267.615 393.89 267.83 393.247 268.258 392.818C268.901 391.101 269.543 389.6 270.186 388.098ZM265.902 395.821L262.688 397.752C261.832 399.253 260.975 400.541 259.904 401.613L260.118 401.399C261.832 399.897 263.117 398.61 264.616 397.323C265.045 396.894 265.473 396.25 265.902 395.821ZM235.483 343.905L241.481 340.473L241.267 340.258L239.768 338.542L238.268 337.041L236.769 335.753L235.269 334.466L233.555 333.394L231.842 332.535L230.128 331.892L228.628 331.463L227.129 331.034H225.63L224.344 331.248L223.059 331.677L221.988 332.321L219.203 334.037C221.559 334.037 224.13 334.895 226.915 336.611C229.914 338.113 232.913 340.902 235.483 343.905ZM242.124 341.117L236.126 344.549C236.983 345.622 237.625 346.48 238.268 347.552L244.266 344.12V343.905L242.981 341.975L242.124 341.117ZM244.695 344.978L238.697 348.41C238.911 348.84 239.125 349.054 239.339 349.483C239.768 350.341 240.196 350.985 240.624 351.843L246.622 348.41L246.408 348.196L245.337 346.265L244.695 344.978ZM247.051 349.054L240.839 352.486C241.481 353.559 241.91 354.846 242.338 355.919L248.336 352.486L248.122 352.057L247.265 349.912L247.051 349.054ZM248.765 353.345L242.552 356.777C242.981 358.064 243.409 359.351 243.623 360.424L249.621 356.992L249.407 356.348L248.765 354.203V353.345ZM249.836 357.85L243.838 361.282C244.052 362.569 244.266 364.071 244.266 365.358L250.264 361.926V360.424L250.05 358.279L249.836 357.85ZM250.264 362.784L244.48 366.216C244.48 366.431 244.48 366.645 244.48 366.86C244.48 368.361 244.266 369.649 244.052 370.936L249.621 367.718L250.05 366.216L250.264 364.5V362.784ZM249.193 368.791L243.838 372.008C243.623 373.081 243.195 373.939 242.767 374.797L245.551 373.081L246.622 372.438L247.479 371.579L248.336 370.507L248.979 369.22L249.193 368.791ZM201.423 327.816L206.35 325.027C206.564 324.812 206.564 324.383 206.779 324.169C207.207 323.311 207.636 322.667 208.064 321.809C207.421 322.024 206.993 322.238 206.565 322.453C204.422 323.525 202.709 325.456 201.423 327.816ZM205.708 326.1L200.567 329.103C199.924 330.605 199.281 332.321 198.853 334.466L204.422 331.248C204.422 330.605 204.637 329.961 204.637 329.532C205.065 328.245 205.493 327.172 205.708 326.1ZM204.422 332.106L198.853 335.539C198.639 337.041 198.639 338.542 198.424 340.044L204.208 336.826C204.208 335.324 204.422 333.823 204.422 332.106ZM204.422 337.684L198.639 340.902C198.639 342.189 198.853 343.691 198.853 345.193L204.637 341.76C204.637 341.546 204.637 341.331 204.637 340.902C204.422 339.829 204.422 338.757 204.422 337.684ZM204.851 342.618L199.067 346.051C199.281 347.338 199.495 348.625 199.71 349.912L205.493 346.48C205.279 345.193 205.065 343.905 204.851 342.618ZM205.708 347.338L199.924 350.77C200.138 352.057 200.567 353.345 200.995 354.632L206.779 351.199C206.35 349.912 206.136 348.625 205.708 347.338ZM206.993 351.843L201.209 355.275C201.638 356.562 202.066 357.635 202.494 358.922L208.492 355.49C208.064 354.417 207.636 353.345 207.207 352.272L206.993 351.843ZM208.707 356.348L202.709 359.78C203.137 360.853 203.78 361.926 204.208 363.213L210.206 359.78C209.563 358.493 209.135 357.421 208.707 356.348ZM210.635 360.424L204.637 363.856C205.279 364.929 205.708 366.002 206.35 367.289L212.348 363.856C211.706 362.784 211.063 361.497 210.635 360.424ZM212.777 364.5L206.779 367.932L206.993 368.147C207.636 369.22 208.278 370.078 208.921 371.15L214.919 367.718C214.062 366.645 213.205 365.573 212.777 364.5ZM215.133 368.361L209.135 371.794C209.778 372.867 210.635 373.939 211.277 374.797L217.275 371.365C216.418 370.507 215.776 369.434 215.133 368.361ZM217.704 372.223L211.706 375.655C212.562 376.728 213.205 377.586 214.062 378.659L219.846 375.226C219.632 375.012 219.417 374.797 219.203 374.583C218.989 373.725 218.346 372.867 217.704 372.223ZM220.703 375.87L214.919 379.302C218.56 383.378 222.631 387.025 227.129 389.385C231.627 391.959 235.698 393.247 239.553 393.247C242.124 393.247 244.48 392.603 246.408 391.53C246.837 391.316 247.265 391.101 247.693 390.672C246.194 390.672 244.695 390.672 243.409 390.458C241.267 390.029 239.339 389.385 236.769 388.313C233.127 386.382 230.128 384.451 227.557 382.306C224.987 380.375 222.845 378.23 220.703 375.87ZM209.992 321.166C209.135 322.453 208.492 323.525 207.85 324.813C207.207 326.314 206.564 327.816 206.136 329.747C205.493 333.823 205.493 337.47 205.922 340.902C206.35 344.334 207.207 347.981 208.492 351.843C208.707 352.272 208.921 352.916 209.135 353.345C208.707 351.199 208.278 349.054 208.278 346.909C208.278 343.476 208.921 340.688 210.206 338.542C211.063 337.041 212.348 335.753 213.848 334.895C214.49 334.466 214.919 334.252 215.561 334.037C217.918 332.75 220.274 331.248 222.631 330.176L223.916 329.747L225.415 329.532H226.915L228.628 329.747C232.056 330.605 235.269 332.535 238.268 335.11C234.412 330.605 230.128 326.958 225.63 324.383C221.131 321.809 217.061 320.522 213.205 320.522C212.134 320.736 211.063 320.736 209.992 321.166ZM220.703 373.725C223.273 376.728 225.63 379.088 228.2 381.233C230.771 383.378 233.555 385.095 237.197 387.025C239.768 388.098 241.696 388.742 243.623 388.956C245.337 389.171 247.051 389.171 249.407 388.956C250.264 388.098 250.907 387.24 251.549 386.167C253.477 382.949 254.334 378.659 254.334 373.51C254.334 368.361 253.263 362.998 251.549 357.635C251.978 360.639 251.978 363.642 251.549 366.216L251.121 367.932L250.264 369.649L249.621 370.936L248.765 372.008L247.693 372.867C245.551 374.368 243.195 375.655 240.839 376.943C240.41 377.372 239.768 377.801 239.339 378.015C237.84 378.873 236.126 379.302 234.412 379.302C231.842 379.302 229.271 378.444 226.272 376.728C224.13 376.514 222.202 375.226 220.703 373.725ZM200.781 306.578L205.708 303.789C207.421 302.931 208.707 302.287 210.206 301.858C211.706 301.429 213.205 301.215 215.133 301C221.774 301 227.557 302.716 233.127 305.72C238.482 308.723 243.409 312.799 247.908 317.09C253.263 322.667 257.762 328.674 261.617 334.895C265.473 341.331 268.472 347.981 270.829 355.49C271.257 357.206 271.685 358.708 272.114 360.424C272.542 361.926 272.756 363.642 273.185 365.358C273.828 370.078 274.256 375.012 273.828 379.517C273.399 384.236 272.328 388.742 269.757 393.247C268.472 395.177 267.187 396.894 265.902 398.395C264.402 399.897 262.903 401.184 261.403 402.686C260.975 402.9 259.689 403.973 259.475 404.402C254.977 408.049 250.05 411.481 245.337 414.914C241.696 417.488 238.054 420.063 234.626 422.637L228.843 426.069C228.414 426.498 227.986 426.713 227.557 427.142L226.486 428L225.844 426.713C222.631 420.706 219.203 414.056 215.347 406.976C207.207 392.818 198.853 377.372 193.283 364.929C190.927 359.78 189.213 354.417 187.928 349.269C186.643 344.12 186 338.971 186 334.252C186 326.743 187.499 320.522 190.284 315.802C192.212 312.37 194.997 309.581 197.996 307.865C198.853 307.436 199.924 306.792 200.781 306.578ZM237.625 350.341C234.626 344.978 230.342 340.473 225.844 337.899C223.273 336.397 220.703 335.753 218.56 335.753C217.061 335.753 215.776 336.182 214.49 336.826C213.419 337.47 212.348 338.542 211.491 339.829C210.42 341.76 209.778 344.12 209.778 347.123C209.778 352.486 211.706 358.279 214.705 363.642C217.704 369.005 221.988 373.51 226.486 376.084C229.057 377.586 231.627 378.23 233.77 378.23C235.269 378.23 236.554 377.801 237.84 377.157C238.911 376.514 239.982 375.441 240.839 374.154C241.91 372.223 242.552 369.863 242.552 366.86C242.552 361.497 240.839 355.49 237.625 350.341ZM226.915 322.453C235.055 327.172 242.338 335.324 247.693 344.549C253.049 353.774 256.262 364.285 256.262 373.725C256.262 379.302 255.191 384.022 253.049 387.454C251.549 390.029 249.621 391.959 247.265 393.461C244.909 394.748 242.124 395.606 239.125 395.606C235.055 395.606 230.556 394.319 225.63 391.53C217.489 386.811 210.206 378.659 204.851 369.434C199.495 360.209 196.282 349.698 196.282 340.258C196.282 334.681 197.353 329.961 199.495 326.529C200.995 323.954 202.923 321.809 205.279 320.522C207.636 319.235 210.42 318.377 213.419 318.377C217.489 318.377 221.988 319.664 226.915 322.453Z" fill="#334045"/>
</svg>
