<svg width="153" height="28" viewBox="0 0 153 28" fill="none" xmlns="http://www.w3.org/2000/svg">
<g clip-path="url(#clip0)">
<path d="M119.055 25.421H153.001V25.7368H119.055V25.421ZM1.61963 25.421H38.1561V25.7368H1.61963V25.421Z" fill="#231F20"/>
<path d="M48.4639 25.4211C49.4893 25.6316 49.975 26 49.975 26.7368C49.975 27.5263 49.3273 28.0526 48.4099 28.0526C47.6543 28.0526 47.0607 27.7895 46.521 27.3158L46.8448 26.9474C47.3305 27.3684 47.8162 27.579 48.4639 27.579C49.1115 27.579 49.4893 27.2632 49.4893 26.7895C49.4893 26.3684 49.2734 26.1053 48.302 25.8947C47.2226 25.6842 46.7369 25.3158 46.7369 24.579C46.7369 23.8421 47.3845 23.3158 48.248 23.3158C48.9496 23.3158 49.4353 23.5263 49.867 23.8947L49.5432 24.3158C49.1115 23.9474 48.6797 23.8421 48.194 23.8421C47.6004 23.8421 47.2226 24.1579 47.2226 24.579C47.1686 24.9474 47.4385 25.2105 48.4639 25.4211ZM59.6893 23.3684H60.121L61.4162 27.1579L62.7654 23.3684H63.3051L61.6321 27.9474H61.2004L59.9051 24.2632L58.6099 27.9474H58.1781L56.5051 23.3684H57.0988L58.448 27.1579L59.6893 23.3684ZM73.721 23.8421H70.8607V25.4211H73.3972V25.8947H70.8607V27.4737H73.721V27.8947H70.321V23.3684H73.667V23.8421H73.721ZM83.5972 27.8947H81.9781V23.3684H83.5972C85.0543 23.3684 86.0797 24.3684 86.0797 25.6316C86.0797 26.8947 85.0543 27.8947 83.5972 27.8947ZM83.5972 23.8421H82.5178V27.4211H83.5972C84.7845 27.4211 85.54 26.6316 85.54 25.6316C85.54 24.6316 84.7845 23.8421 83.5972 23.8421ZM97.521 23.8421H94.6607V25.4211H97.1972V25.8947H94.6607V27.4737H97.521V27.8947H94.121V23.3684H97.467V23.8421H97.521ZM109.61 23.3684H110.096V27.8947H109.664L106.642 24.1579V27.8947H106.102V23.3684H106.588L109.502 27V23.3684H109.61Z" fill="#231F20"/>
<path d="M49.4354 17.6842H47.0068V2H49.4354V17.6842ZM61.0926 17.6842H58.664V2H70.4291V4.21053H61.0926V8.94737H69.4576V11.1579H61.0926V17.6842V17.6842ZM89.1021 17.6842H77.9846V2H80.4132V15.4737H89.1021V17.6842ZM124.289 13.5789L119.162 6.10526V17.7368H117.975H116.788V2H119.054L124.505 9.94737L129.956 2H132.223V17.6842H131.035H129.848V6.05263L124.721 13.5263L124.505 13.8421L124.289 13.5789ZM153 17.6842H141.074V2H152.893V4.21053H143.448V8.68421H151.867V10.8947H143.448V15.5263H153V17.6842V17.6842ZM39.5053 17.6842H36.4291L32.0576 11.8421H28.1179V17.6842H25.6894V2H32.6513C36.2672 2 38.5878 3.89474 38.5878 6.8421C38.5878 9.15789 37.0767 10.8421 34.5941 11.4737L39.5053 17.6842ZM28.1719 9.63158H32.5973C34.81 9.63158 36.2132 8.52632 36.2132 6.8421C36.2132 5.15789 34.918 4.15789 32.5973 4.15789H28.1719V9.63158ZM39.5053 17.6842H36.4291L32.0576 11.8421H28.1179V17.6842H25.6894V2H32.6513C36.2672 2 38.5878 3.89474 38.5878 6.8421C38.5878 9.15789 37.0767 10.8421 34.5941 11.4737L39.5053 17.6842ZM28.1719 9.63158H32.5973C34.81 9.63158 36.2132 8.52632 36.2132 6.8421C36.2132 5.15789 34.918 4.15789 32.5973 4.15789H28.1719V9.63158ZM39.5053 17.6842H36.4291L32.0576 11.8421H28.1179V17.6842H25.6894V2H32.6513C36.2672 2 38.5878 3.89474 38.5878 6.8421C38.5878 9.15789 37.0767 10.8421 34.5941 11.4737L39.5053 17.6842ZM28.1719 9.63158H32.5973C34.81 9.63158 36.2132 8.52632 36.2132 6.8421C36.2132 5.15789 34.918 4.15789 32.5973 4.15789H28.1719V9.63158ZM39.5053 17.6842H36.4291L32.0576 11.8421H28.1179V17.6842H25.6894V2H32.6513C36.2672 2 38.5878 3.89474 38.5878 6.8421C38.5878 9.15789 37.0767 10.8421 34.5941 11.4737L39.5053 17.6842ZM28.1719 9.63158H32.5973C34.81 9.63158 36.2132 8.52632 36.2132 6.8421C36.2132 5.15789 34.918 4.15789 32.5973 4.15789H28.1719V9.63158ZM107.937 17.6842H110.581L103.242 1.89474H101.191L93.8513 17.6842H96.3878L98.2227 13.6316H106.102L107.937 17.6842ZM99.1941 11.5263L102.216 4.78947L105.239 11.5263H99.1941ZM18.5116 8.89474C18.5116 13.8947 14.356 17.9474 9.22906 17.9474C4.15604 17.9474 0.000488281 13.8947 0.000488281 8.89474C0.000488281 4.42105 3.34652 0.736842 7.71795 0V0.0526316C4.31795 1.36842 2.26715 4.52632 2.26715 8.15789C2.26715 12.8421 5.66716 15.5263 9.28303 15.5263C13.0608 15.5263 16.083 12.5263 16.083 8.89474C16.083 5.73684 13.5465 3.10526 10.2005 3.10526C6.36874 3.10526 4.53382 6.52632 4.53382 6.52632H4.47985C4.47985 6.52632 6.20684 1.63158 11.2259 1.63158C14.3021 1.63158 18.5116 4.10526 18.5116 8.89474Z" fill="#231F20"/>
</g>
<defs>
<clipPath id="clip0">
<rect width="153" height="28" fill="white" transform="translate(0.000488281)"/>
</clipPath>
</defs>
</svg>
