<svg width="140" height="26" viewBox="0 0 140 26" fill="none" xmlns="http://www.w3.org/2000/svg">
<path fill-rule="evenodd" clip-rule="evenodd" d="M18.6181 20.9915V23.9768H0.000488281V3.44678H3.3522V20.9915H18.6181ZM16.012 10.9125L19.7346 3.81946H16.1978L13.4051 10.9125H16.012ZM46.4501 6.81673C45.2429 4.91198 43.4798 3.31078 41.4034 2.21978C39.3271 1.12802 36.9375 0.546451 34.5486 0.546451C32.1598 0.546451 29.7695 1.12802 27.6939 2.21978C25.6175 3.31078 23.8536 4.91198 22.6464 6.81673C21.4393 8.72073 20.7874 10.929 20.7874 13.1373C20.7874 15.3449 21.4393 17.5532 22.6464 19.4572C23.8536 21.362 25.6168 22.9632 27.6939 24.0542C29.7702 25.1459 32.1598 25.7275 34.5486 25.7275C36.9375 25.7275 39.3271 25.1467 41.4034 24.0542C43.4798 22.9632 45.2429 21.362 46.4501 19.4572C47.658 17.5532 48.3092 15.3442 48.3092 13.1373C48.3092 10.9298 47.658 8.72148 46.4501 6.81673ZM43.5532 18.1648C42.6525 19.6586 41.3345 20.9187 39.7789 21.779C38.2233 22.6386 36.4309 23.0969 34.6378 23.0969C32.8447 23.0969 31.0523 22.6386 29.4967 21.779C27.9419 20.9187 26.6238 19.6593 25.7224 18.1648C24.821 16.6703 24.3369 14.9422 24.3369 13.214C24.3369 11.4851 24.821 9.75688 25.7224 8.26314C26.6238 6.76939 27.9411 5.50932 29.4967 4.64974C31.0523 3.78941 32.8454 3.33107 34.6378 3.33107C36.4302 3.33107 38.2233 3.78941 39.7789 4.64974C41.3345 5.50932 42.6518 6.76864 43.5532 8.26314C44.4549 9.75666 44.9341 11.4681 44.9395 13.214C44.9338 14.9598 44.4546 16.6712 43.5532 18.1648ZM71.6805 12.3003C71.0743 13.6378 69.9278 14.4109 69.0309 14.8783C68.1339 15.3464 67.4873 15.5087 66.8361 15.4854L73.3522 23.9775H69.6288L63.327 15.7657H55.107V23.9775H51.756V3.44678H65.1599C66.5147 3.44678 67.8889 3.71427 69.1013 4.39803C70.3137 5.08179 71.3628 6.12095 71.8558 7.5914C72.3481 9.0611 72.2852 10.9628 71.6805 12.3003ZM67.9316 12.1598C68.6375 11.5617 69.0556 10.5781 69.0189 9.60285C68.9829 8.62681 68.4921 7.66053 67.7915 7.07069C67.0901 6.48161 66.1939 6.43277 65.3465 6.43277H55.107V12.7789H65.3465C66.2516 12.7789 67.2258 12.7587 67.9316 12.1598ZM91.0384 12.2192V15.0181H79.6817V20.9915H94.9476V23.9768H76.33V3.44678H94.9476V6.43277H79.6817V12.2192H91.0384ZM91.2242 0.272949H86.197L84.1499 2.88625L91.2242 0.272949ZM101.512 18.7509L98.8568 23.9768H95.5066L105.931 3.44603H109.283L119.709 23.9768H116.357L113.704 18.7509H101.512ZM107.607 6.7461L102.837 16.1384H112.376L107.607 6.7461ZM140 20.9915V23.9768H121.384V3.44678H124.735V20.9915H140Z" fill="black"/>
</svg>
