<svg width="148" height="15" viewBox="0 0 148 15" fill="none" xmlns="http://www.w3.org/2000/svg">
<g clip-path="url(#clip0)">
<path d="M103.01 15.0293H102.441L94.415 0.239136H97.9443L102.783 9.62724H102.84L107.621 0.239136H111.037L103.01 15.0293Z" fill="#231F20"/>
<path d="M31.0751 0.184082V2.59667H23.3336V6.268H30.5628V8.57569H23.3336V12.2995H31.7582V14.712H20.2598V0.184082H31.0751V0.184082Z" fill="#231F20"/>
<path d="M69.0698 0.184082V2.59667H61.3282V6.37289H68.5575V8.68058H61.3282V12.2995H69.7529V14.712H58.2544V0.184082H69.0698Z" fill="#231F20"/>
<path d="M127.184 0.184165V2.59676H119.442V6.37297H126.672V8.68066H119.442V12.2471H127.867V14.6597H116.369V0.131714H127.184V0.184165Z" fill="#231F20"/>
<path d="M134.568 14.7146V0.186646H139.919C145.27 0.186646 148.002 3.17617 148.002 7.42442C148.002 11.6727 145.27 14.6622 139.919 14.6622H134.568V14.7146ZM139.919 12.3545C143.391 12.3545 144.985 10.7286 144.985 7.47687C144.985 4.22512 143.391 2.59924 139.919 2.59924H137.642V12.3545H139.919Z" fill="#231F20"/>
<path d="M50.5423 1.73175L49.1192 3.56742C47.81 2.7807 46.5008 2.36113 44.7931 2.36113C42.5162 2.36113 41.8331 3.14784 41.8331 3.93456C41.8331 6.55693 50.9977 5.03595 50.9977 10.1758C50.9977 12.9555 48.3792 14.9485 44.6792 14.9485C42.1177 14.9485 39.8977 14.2143 38.0762 12.3262L39.7269 10.5429C41.2639 11.8541 42.7438 12.536 44.7362 12.536C47.0131 12.536 48.1515 11.5394 48.1515 10.438C48.1515 7.34364 38.7592 9.44155 38.7592 4.14434C38.7592 1.83665 41.2639 0.0534234 44.9069 0.0534234C47.1839 0.000975804 49.29 0.735248 50.5423 1.73175Z" fill="#231F20"/>
<path d="M6.44138 7.17889H3.02599V2.51106H6.38445C8.31983 2.51106 9.2306 3.40268 9.2306 4.76631C9.2306 6.44463 8.03522 7.17889 6.44138 7.17889ZM13.8983 14.6789L13.6137 12.5285C13.386 12.581 13.1014 12.581 12.7598 12.581C11.4506 12.581 10.8245 12.2139 10.0275 11.1125C9.74292 10.6929 9.40139 10.1684 9.17369 9.80126C8.88908 9.38168 8.66137 9.17189 8.37676 9.01455C10.6537 8.49007 12.2475 6.9691 12.2475 4.66141C12.2475 2.09148 10.2552 0.203369 6.38445 0.203369H-0.0478516V14.7313H3.02599V9.38169H4.39214C5.18906 9.38169 5.53061 9.64392 5.87214 10.116C6.21368 10.588 7.29522 12.2139 7.29522 12.2139C8.66138 14.2069 10.1983 14.8887 12.2475 14.8887C12.9875 14.8887 13.5568 14.7838 13.8983 14.6789Z" fill="#231F20"/>
<path d="M83.7573 7.17889H80.3419V2.51106H83.7004C85.6357 2.51106 86.5465 3.40268 86.5465 4.76631C86.5465 6.44463 85.3511 7.17889 83.7573 7.17889ZM91.2142 14.6789L90.9296 12.5285C90.7019 12.581 90.4173 12.581 90.0757 12.581C88.7665 12.581 88.1404 12.2139 87.3434 11.1125C87.0588 10.6929 86.7173 10.1684 86.4896 9.80126C86.205 9.38168 85.9773 9.17189 85.6927 9.01455C87.9696 8.49007 89.5634 6.9691 89.5634 4.66141C89.5634 2.09148 87.5711 0.203369 83.7004 0.203369H77.2681V14.7313H80.3419V9.38169H81.7081C82.505 9.38169 82.8465 9.64392 83.1881 10.116C83.5296 10.588 84.6111 12.2139 84.6111 12.2139C85.9773 14.2069 87.5142 14.8887 89.5634 14.8887C90.2465 14.8887 90.8727 14.7838 91.2142 14.6789Z" fill="#231F20"/>
</g>
<defs>
<clipPath id="clip0">
<rect width="148" height="15" fill="white" transform="translate(0.000488281)"/>
</clipPath>
</defs>
</svg>
