<svg width="76" height="76" viewBox="0 0 76 76" fill="none" xmlns="http://www.w3.org/2000/svg">
<g clip-path="url(#clip0)">
<path d="M75.1221 28.8276L75.4497 28.4082L76.0001 28.8276V73.3793C75.9958 74.825 74.825 75.9957 73.3795 76H2.62066C1.17518 75.9957 0.00430469 74.8248 0 73.3793V28.8276L0.550406 28.4082L0.878008 28.8276H75.1221Z" fill="#F5F5F6"/>
<path d="M75.4496 28.4083L75.122 28.8276L39.3104 56.3448H36.6898L0.877895 28.8276L0.550293 28.4083L13.1034 18.6461L30.3738 5.24132L36.4144 0.550249C37.3441 -0.183477 38.6558 -0.183477 39.5855 0.550249L45.6262 5.24132L62.8966 18.6461L75.4496 28.4083Z" fill="#1AB248"/>
<path d="M62.8966 7.862V38.2227L39.3105 56.3448H36.6898L13.1035 38.2228V7.862C13.1078 6.41636 14.2787 5.24564 15.7242 5.24133H60.2759C61.7215 5.24564 62.8923 6.41651 62.8966 7.862Z" fill="#FFCB07"/>
<path d="M32.7632 15.9619H44.4697" stroke="#333333" stroke-miterlimit="10"/>
<path d="M32.7632 28.9619H44.4697" stroke="#333333" stroke-miterlimit="10"/>
<path d="M46.4209 15.9619H56.1763" stroke="#333333" stroke-miterlimit="10"/>
<path d="M46.4209 28.9619H56.1763" stroke="#333333" stroke-miterlimit="10"/>
<path d="M40.5675 19.8857H32.7632" stroke="#333333" stroke-miterlimit="10"/>
<path d="M40.5675 32.8857H32.7632" stroke="#333333" stroke-miterlimit="10"/>
<path d="M56.1761 19.8857H42.5186" stroke="#333333" stroke-miterlimit="10"/>
<path d="M56.1761 32.8857H42.5186" stroke="#333333" stroke-miterlimit="10"/>
<path d="M26.9098 14H19.1055V21.8476H26.9098V14Z" stroke="#333333" stroke-miterlimit="10"/>
<path d="M26.9098 27H19.1055V34.8476H26.9098V27Z" stroke="#333333" stroke-miterlimit="10"/>
<path d="M75.4891 74.9254C75 75.6024 74.2146 76.0023 73.3795 76H2.62082C1.78557 76.0025 1.00033 75.6024 0.51123 74.9254L30.5312 51.6144L36.4147 47.0413C37.3444 46.3076 38.6561 46.3076 39.5858 47.0413L45.4692 51.6144L75.4891 74.9254Z" fill="#E4E4E4"/>
</g>
<defs>
<clipPath id="clip0">
<rect width="76" height="76" fill="white"/>
</clipPath>
</defs>
</svg>
