<svg width="115" height="48" viewBox="0 0 115 48" fill="none" xmlns="http://www.w3.org/2000/svg">
<path fill-rule="evenodd" clip-rule="evenodd" d="M74.6089 30.6087H82.3554L85.6839 20.9806L89.1438 18.0294L91.8699 26.7366C92.7131 29.4279 93.5804 30.6087 95.4736 30.6087H101.404L95.286 13.5227L110 0H100.497L91.5654 9.62833C90.5253 10.7492 89.4727 11.8524 88.4171 13.1701H88.3273L92.7869 0H85.0404L74.6089 30.6087Z" fill="#1AB248"/>
<path fill-rule="evenodd" clip-rule="evenodd" d="M73.9486 0.349089C76.4001 0.349484 78.7778 0.349866 80.7694 0.350039L79.1558 5.30316C78.6489 6.85938 77.3614 7.60391 74.5245 7.60391C69.5986 7.60391 62.3098 7.60305 57.3834 7.6022L58.997 2.64908C59.5039 1.092 60.7908 0.3479 63.628 0.3479C66.5627 0.3479 70.3359 0.348508 73.9486 0.349089ZM59.6494 11.7203C64.5751 11.7203 71.8641 11.7211 76.7905 11.7224L75.1769 16.6753C74.67 18.232 73.383 18.9761 70.5457 18.9761C65.6197 18.9761 58.3309 18.9752 53.4045 18.9739L55.0181 14.0215C55.525 12.4646 56.8122 11.7203 59.6494 11.7203ZM72.6169 23.0939C67.6905 23.0931 60.4017 23.0922 55.4758 23.0922C52.6382 23.0922 51.3515 23.8368 50.8445 25.3926L49.231 30.3463C54.1574 30.3467 61.4462 30.3482 66.3723 30.3482C69.2093 30.3482 70.4964 29.6035 71.0034 28.0469L72.6169 23.0939Z" fill="#1AB248"/>
<path fill-rule="evenodd" clip-rule="evenodd" d="M39.0094 7.37232L43.2228 7.37406C46.8128 7.37493 45.9934 11.7833 44.1765 16.0797C42.5756 19.8665 39.7382 23.2082 36.3533 23.2078L29.3291 23.2069C26.5275 23.2069 25.2357 23.9665 24.6908 25.5538L22.9565 30.6078L28.1073 30.6087L33.1422 30.5675C37.6073 30.5312 41.2628 30.2139 45.5375 26.4367C50.055 22.4464 55.3223 12.0805 54.4199 6.08486C53.713 1.38652 51.1453 0.00218213 44.9276 0.0017457L33.5972 0L27 18.9841L31.1917 18.9893C33.6864 18.9921 34.9384 19.0229 36.2654 15.5119L39.0094 7.37232Z" fill="#1AB248"/>
<path fill-rule="evenodd" clip-rule="evenodd" d="M19.3276 7.39872L16.2088 7.39959C9.96111 7.40265 4.60741 23.2104 11.9946 23.2078L16.741 23.2069C19.4785 23.2069 21.5107 24.2057 20.6108 26.8986L19.3709 30.6078L14.3369 30.6087L10.2422 30.5675C5.00387 30.5151 1.62356 27.9352 0.406422 24.0178C-0.910697 19.7786 0.948841 10.9368 6.34592 5.27289C9.47747 1.98704 13.8153 0.00218213 19.377 0.0017457L29.6522 0L28.046 4.63266C27.0082 7.62588 24.8879 7.40265 23.678 7.40221L19.3276 7.39872Z" fill="#1AB248"/>
<path d="M0.867188 47V38.4688H3.79102C4.75586 38.4688 5.49023 38.6621 5.99414 39.0488C6.49805 39.4355 6.75 40.0117 6.75 40.7773C6.75 41.168 6.64453 41.5195 6.43359 41.832C6.22266 42.1445 5.91406 42.3867 5.50781 42.5586C5.96875 42.6836 6.32422 42.9199 6.57422 43.2676C6.82812 43.6113 6.95508 44.0254 6.95508 44.5098C6.95508 45.3105 6.69727 45.9258 6.18164 46.3555C5.66992 46.7852 4.93555 47 3.97852 47H0.867188ZM2.34961 43.1504V45.8164H3.99609C4.46094 45.8164 4.82422 45.7012 5.08594 45.4707C5.34766 45.2402 5.47852 44.9199 5.47852 44.5098C5.47852 43.623 5.02539 43.1699 4.11914 43.1504H2.34961ZM2.34961 42.0605H3.80273C4.26367 42.0605 4.62305 41.957 4.88086 41.75C5.14258 41.5391 5.27344 41.2422 5.27344 40.8594C5.27344 40.4375 5.15234 40.1328 4.91016 39.9453C4.67188 39.7578 4.29883 39.6641 3.79102 39.6641H2.34961V42.0605ZM13.7838 43.1914H10.2799V45.8164H14.3756V47H8.7975V38.4688H14.3346V39.6641H10.2799V42.0195H13.7838V43.1914ZM22.6516 38.4688V47H21.1751V39.6641H18.5618L18.4095 42.9629C18.3509 43.9941 18.2239 44.7949 18.0286 45.3652C17.8372 45.9316 17.5579 46.3457 17.1907 46.6074C16.8235 46.8691 16.3313 47 15.7141 47H15.3391V45.8164L15.5735 45.7988C15.9134 45.7676 16.1751 45.6484 16.3587 45.4414C16.5462 45.2344 16.6868 44.9219 16.7805 44.5039C16.8782 44.082 16.9466 43.4629 16.9856 42.6465L17.1497 38.4688H22.6516ZM30.0253 38.4688H31.5077V47H30.0253V40.9238L26.2812 47H24.7987V38.4688H26.2812V44.5508L30.0253 38.4688ZM36.1685 43.3438H35.1607V47H33.6841V38.4688H35.1607V42.0547H35.9752L38.483 38.4688H40.2994L37.3697 42.5527L40.5572 47H38.7759L36.1685 43.3438ZM48.3586 42.957C48.3586 43.793 48.2141 44.5273 47.925 45.1602C47.6359 45.7891 47.2219 46.2734 46.6828 46.6133C46.1477 46.9492 45.5305 47.1172 44.8312 47.1172C44.1398 47.1172 43.5227 46.9492 42.9797 46.6133C42.4406 46.2734 42.0227 45.791 41.7258 45.166C41.4328 44.541 41.2844 43.8203 41.2805 43.0039V42.5234C41.2805 41.6914 41.427 40.957 41.7199 40.3203C42.0168 39.6836 42.4328 39.1973 42.968 38.8613C43.507 38.5215 44.1242 38.3516 44.8195 38.3516C45.5148 38.3516 46.1301 38.5195 46.6652 38.8555C47.2043 39.1875 47.6203 39.668 47.9133 40.2969C48.2062 40.9219 48.3547 41.6504 48.3586 42.4824V42.957ZM46.8762 42.5117C46.8762 41.5664 46.6965 40.8418 46.3371 40.3379C45.9816 39.834 45.4758 39.582 44.8195 39.582C44.1789 39.582 43.677 39.834 43.3137 40.3379C42.9543 40.8379 42.7707 41.5469 42.7629 42.4648V42.957C42.7629 43.8945 42.9445 44.6191 43.3078 45.1309C43.675 45.6426 44.1828 45.8984 44.8312 45.8984C45.4875 45.8984 45.9914 45.6484 46.343 45.1484C46.6984 44.6484 46.8762 43.918 46.8762 42.957V42.5117ZM55.5858 39.6641H51.6541V41.7324H53.4002C54.0252 41.7324 54.5702 41.8398 55.035 42.0547C55.4998 42.2695 55.8534 42.5742 56.0955 42.9688C56.3377 43.3633 56.4588 43.8203 56.4588 44.3398C56.4588 45.1367 56.1873 45.7773 55.6444 46.2617C55.1053 46.7461 54.369 46.9922 53.4354 47H50.1717V38.4688H55.5858V39.6641ZM51.6541 42.9219V45.8164H53.3944C53.8944 45.8164 54.283 45.6816 54.5604 45.4121C54.8416 45.1387 54.9823 44.7773 54.9823 44.3281C54.9823 43.8984 54.8455 43.5586 54.5721 43.3086C54.2987 43.0586 53.9198 42.9297 53.4354 42.9219H51.6541ZM59.5845 43.8301V47H58.102V38.4688H61.3657C62.3188 38.4688 63.0747 38.7168 63.6333 39.2129C64.1958 39.709 64.477 40.3652 64.477 41.1816C64.477 42.0176 64.2016 42.668 63.6509 43.1328C63.104 43.5977 62.3364 43.8301 61.3481 43.8301H59.5845ZM59.5845 42.6406H61.3657C61.893 42.6406 62.2954 42.5176 62.5727 42.2715C62.8501 42.0215 62.9888 41.6621 62.9888 41.1934C62.9888 40.7324 62.8481 40.3652 62.5669 40.0918C62.2856 39.8145 61.8989 39.6719 61.4067 39.6641H59.5845V42.6406ZM71.3644 38.4688H72.8468V47H71.3644V40.9238L67.6202 47H66.1378V38.4688H67.6202V44.5508L71.3644 38.4688ZM80.9705 39.6641H78.3103V47H76.8396V39.6641H74.2029V38.4688H80.9705V39.6641ZM86.5277 45.0137H83.223L82.5316 47H80.9906L84.2133 38.4688H85.5434L88.7719 47H87.225L86.5277 45.0137ZM83.6391 43.8184H86.1117L84.8754 40.2793L83.6391 43.8184ZM96.878 47H95.4014V43.209H91.587V47H90.1045V38.4688H91.587V42.0195H95.4014V38.4688H96.878V47ZM104.222 38.4688H105.705V47H104.222V40.9238L100.478 47H98.9958V38.4688H100.478V44.5508L104.222 38.4688ZM112.047 47V43.8125H110.395L108.748 47H107.16L109.065 43.373C108.073 42.9043 107.576 42.1367 107.576 41.0703C107.576 40.2539 107.844 39.6191 108.379 39.166C108.918 38.709 109.668 38.4766 110.629 38.4688H113.53V47H112.047ZM109.053 41.1348C109.053 41.6152 109.188 41.9902 109.457 42.2598C109.727 42.5293 110.131 42.6641 110.67 42.6641H112.047V39.6641H110.67C110.123 39.6641 109.717 39.7949 109.451 40.0566C109.186 40.3184 109.053 40.6777 109.053 41.1348Z" fill="#1AB248"/>
</svg>
