<svg width="81" height="34" viewBox="0 0 81 34" fill="none" xmlns="http://www.w3.org/2000/svg">
<path fill-rule="evenodd" clip-rule="evenodd" d="M54.9395 22.5391H60.6437L63.0947 15.4493L65.6425 13.2762L67.6498 19.6879C68.2708 21.6696 68.9094 22.5391 70.3035 22.5391H74.6706L70.1653 9.9576L81.0003 0H74.0028L67.4256 7.08996C66.6597 7.91531 65.8846 8.72767 65.1073 9.698H65.0412L68.3251 0H62.6208L54.9395 22.5391Z" fill="#1AB248"/>
<path fill-rule="evenodd" clip-rule="evenodd" d="M54.4531 0.256979C56.2583 0.257269 58.0091 0.257551 59.4757 0.257678L58.2875 3.90498C57.9142 5.05092 56.9662 5.59916 54.8772 5.59916C51.2499 5.59916 45.8827 5.59853 42.2551 5.5979L43.4433 1.95061C43.8165 0.804033 44.7642 0.256104 46.8534 0.256104C49.0144 0.256104 51.7928 0.256551 54.4531 0.256979ZM43.9236 8.63021C47.5508 8.63021 52.9181 8.63084 56.5458 8.63178L55.3576 12.2789C54.9843 13.4252 54.0366 13.9731 51.9473 13.9731C48.32 13.9731 42.9528 13.9725 39.3252 13.9715L40.5134 10.3247C40.8866 9.1783 41.8345 8.63021 43.9236 8.63021ZM53.4725 17.0058C49.8449 17.0051 44.4777 17.0045 40.8504 17.0045C38.7609 17.0045 37.8134 17.5527 37.4401 18.6984L36.252 22.3461C39.8796 22.3464 45.2468 22.3475 48.8742 22.3475C50.9632 22.3475 51.9111 21.7991 52.2844 20.6529L53.4725 17.0058Z" fill="#1AB248"/>
<path fill-rule="evenodd" clip-rule="evenodd" d="M28.725 5.42871L31.8277 5.42999C34.4712 5.43063 33.8678 8.67677 32.5299 11.8405C31.3511 14.629 29.2617 17.0897 26.7692 17.0894L21.5968 17.0887C19.5338 17.0887 18.5826 17.6481 18.1814 18.8169L16.9043 22.5385L20.6971 22.5391L24.4046 22.5088C27.6926 22.4821 30.3844 22.2485 33.5321 19.467C36.8587 16.5288 40.7373 8.89562 40.0728 4.48067C39.5522 1.02099 37.6614 0.00160684 33.083 0.00128547L24.7397 0L19.8817 13.9792L22.9684 13.983C24.8054 13.9851 25.7273 14.0078 26.7045 11.4224L28.725 5.42871Z" fill="#1AB248"/>
<path fill-rule="evenodd" clip-rule="evenodd" d="M14.2321 5.44815L11.9356 5.44879C7.335 5.45104 3.39273 17.0913 8.83238 17.0894L12.3275 17.0887C14.3433 17.0887 15.8397 17.8242 15.1771 19.8072L14.264 22.5385L10.5572 22.5391L7.54198 22.5088C3.68466 22.4702 1.19553 20.5704 0.299274 17.6858C-0.670604 14.5642 0.698692 8.05348 4.67291 3.88277C6.97886 1.46319 10.1731 0.00160684 14.2685 0.00128547L21.8348 0L20.652 3.41132C19.8878 5.61542 18.3266 5.45104 17.4356 5.45072L14.2321 5.44815Z" fill="#1AB248"/>
<path d="M0.578125 33V27.3125H2.52734C3.17057 27.3125 3.66016 27.4414 3.99609 27.6992C4.33203 27.957 4.5 28.3411 4.5 28.8516C4.5 29.112 4.42969 29.3464 4.28906 29.5547C4.14844 29.763 3.94271 29.9245 3.67188 30.0391C3.97917 30.1224 4.21615 30.2799 4.38281 30.5117C4.55208 30.7409 4.63672 31.0169 4.63672 31.3398C4.63672 31.8737 4.46484 32.2839 4.12109 32.5703C3.77995 32.8568 3.29036 33 2.65234 33H0.578125ZM1.56641 30.4336V32.2109H2.66406C2.97396 32.2109 3.21615 32.1341 3.39062 31.9805C3.5651 31.8268 3.65234 31.6133 3.65234 31.3398C3.65234 30.7487 3.35026 30.4466 2.74609 30.4336H1.56641ZM1.56641 29.707H2.53516C2.84245 29.707 3.08203 29.638 3.25391 29.5C3.42839 29.3594 3.51562 29.1615 3.51562 28.9062C3.51562 28.625 3.4349 28.4219 3.27344 28.2969C3.11458 28.1719 2.86589 28.1094 2.52734 28.1094H1.56641V29.707ZM9.18922 30.4609H6.85328V32.2109H9.58375V33H5.865V27.3125H9.55641V28.1094H6.85328V29.6797H9.18922V30.4609ZM15.1011 27.3125V33H14.1167V28.1094H12.3745L12.273 30.3086C12.2339 30.9961 12.1493 31.5299 12.0191 31.9102C11.8915 32.2878 11.7053 32.5638 11.4605 32.7383C11.2157 32.9128 10.8876 33 10.4761 33H10.2261V32.2109L10.3823 32.1992C10.6089 32.1784 10.7834 32.099 10.9058 31.9609C11.0308 31.8229 11.1245 31.6146 11.187 31.3359C11.2521 31.0547 11.2977 30.6419 11.3237 30.0977L11.4331 27.3125H15.1011ZM20.0169 27.3125H21.0052V33H20.0169V28.9492L17.5208 33H16.5325V27.3125H17.5208V31.3672L20.0169 27.3125ZM24.1123 30.5625H23.4405V33H22.4561V27.3125H23.4405V29.7031H23.9834L25.6553 27.3125H26.8662L24.9131 30.0352L27.0381 33H25.8506L24.1123 30.5625ZM32.2391 30.3047C32.2391 30.862 32.1427 31.3516 31.95 31.7734C31.7573 32.1927 31.4813 32.5156 31.1219 32.7422C30.7651 32.9661 30.3536 33.0781 29.8875 33.0781C29.4266 33.0781 29.0151 32.9661 28.6531 32.7422C28.2938 32.5156 28.0151 32.194 27.8172 31.7773C27.6219 31.3607 27.5229 30.8802 27.5203 30.3359V30.0156C27.5203 29.4609 27.618 28.9714 27.8133 28.5469C28.0112 28.1224 28.2885 27.7982 28.6453 27.5742C29.0047 27.3477 29.4161 27.2344 29.8797 27.2344C30.3432 27.2344 30.7534 27.3464 31.1102 27.5703C31.4695 27.7917 31.7469 28.112 31.9422 28.5312C32.1375 28.9479 32.2365 29.4336 32.2391 29.9883V30.3047ZM31.2508 30.0078C31.2508 29.3776 31.131 28.8945 30.8914 28.5586C30.6544 28.2227 30.3172 28.0547 29.8797 28.0547C29.4526 28.0547 29.118 28.2227 28.8758 28.5586C28.6362 28.8919 28.5138 29.3646 28.5086 29.9766V30.3047C28.5086 30.9297 28.6297 31.4128 28.8719 31.7539C29.1167 32.0951 29.4552 32.2656 29.8875 32.2656C30.325 32.2656 30.6609 32.099 30.8953 31.7656C31.1323 31.4323 31.2508 30.9453 31.2508 30.3047V30.0078ZM37.0572 28.1094H34.4361V29.4883H35.6002C36.0168 29.4883 36.3801 29.5599 36.69 29.7031C36.9999 29.8464 37.2356 30.0495 37.397 30.3125C37.5585 30.5755 37.6392 30.8802 37.6392 31.2266C37.6392 31.7578 37.4582 32.1849 37.0962 32.5078C36.7369 32.8307 36.246 32.9948 35.6236 33H33.4478V27.3125H37.0572V28.1094ZM34.4361 30.2812V32.2109H35.5962C35.9296 32.2109 36.1887 32.1211 36.3736 31.9414C36.5611 31.7591 36.6548 31.5182 36.6548 31.2188C36.6548 30.9323 36.5637 30.7057 36.3814 30.5391C36.1991 30.3724 35.9465 30.2865 35.6236 30.2812H34.4361ZM39.723 30.8867V33H38.7347V27.3125H40.9105C41.5459 27.3125 42.0498 27.4779 42.4222 27.8086C42.7972 28.1393 42.9847 28.5768 42.9847 29.1211C42.9847 29.6784 42.8011 30.112 42.4339 30.4219C42.0693 30.7318 41.5576 30.8867 40.8988 30.8867H39.723ZM39.723 30.0938H40.9105C41.262 30.0938 41.5303 30.0117 41.7152 29.8477C41.9001 29.681 41.9925 29.4414 41.9925 29.1289C41.9925 28.8216 41.8988 28.5768 41.7113 28.3945C41.5238 28.2096 41.2659 28.1146 40.9378 28.1094H39.723V30.0938ZM47.5762 27.3125H48.5645V33H47.5762V28.9492L45.0802 33H44.0919V27.3125H45.0802V31.3672L47.5762 27.3125ZM53.9803 28.1094H52.2069V33H51.2264V28.1094H49.4686V27.3125H53.9803V28.1094ZM57.6852 31.6758H55.482L55.0211 33H53.9938L56.1422 27.3125H57.0289L59.1813 33H58.15L57.6852 31.6758ZM55.7594 30.8789H57.4078L56.5836 28.5195L55.7594 30.8789ZM64.5853 33H63.6009V30.4727H61.058V33H60.0697V27.3125H61.058V29.6797H63.6009V27.3125H64.5853V33ZM69.4816 27.3125H70.4698V33H69.4816V28.9492L66.9855 33H65.9972V27.3125H66.9855V31.3672L69.4816 27.3125ZM74.6981 33V30.875H73.5966L72.4989 33H71.4403L72.7098 30.582C72.0484 30.2695 71.7177 29.7578 71.7177 29.0469C71.7177 28.5026 71.896 28.0794 72.2528 27.7773C72.6122 27.4727 73.1122 27.3177 73.7528 27.3125H75.6864V33H74.6981ZM72.702 29.0898C72.702 29.4102 72.7919 29.6602 72.9716 29.8398C73.1513 30.0195 73.4208 30.1094 73.7802 30.1094H74.6981V28.1094H73.7802C73.4156 28.1094 73.1447 28.1966 72.9677 28.3711C72.7906 28.5456 72.702 28.7852 72.702 29.0898Z" fill="#1AB248"/>
</svg>
