<svg width="1920.0000000000002" height="1304" xmlns="http://www.w3.org/2000/svg">

 <g>
  <title>background</title>
  <rect fill="none" id="canvas_background" height="1306" width="1922" y="-1" x="-1"/>
 </g>
 <g>
  <title>Layer 1</title>
  <path id="svg_1" fill="#1AB248" d="m1931.469971,253.455994l-48.919922,28.46701c-48.910034,28.466003 -146.730103,85.398987 -141.940063,152.596985c4.800049,67.197021 112.209961,144.660004 139.810059,214.138031c27.599976,69.479004 -24.619995,130.973999 -88.23999,191.328003c-63.610107,60.35498 -138.630005,119.56897 -145.240112,185.623962c-6.609985,66.060059 55.200073,138.959961 82.800049,208.440063c27.589966,69.47998 20.98999,135.529907 2.97998,200.449951c-18.01001,64.920044 -47.419922,128.689941 -31.22998,197.030029c16.199951,68.339966 78,141.23999 151.209961,215.280029c73.210083,74.039917 157.820068,149.219971 174.01001,217.560059c16.200073,68.339844 -36.02002,129.829834 -62.119995,160.579834l-26.109985,30.75l136.820068,13.679932l3.310059,-33.019775c3.299805,-33.030029 9.909912,-99.090088 16.51001,-165.150146c6.609863,-66.049927 13.219971,-132.109985 19.829834,-198.169922c6.600098,-66.060059 13.209961,-132.109985 19.820068,-198.170044c6.609863,-66.059937 13.209961,-132.109985 19.820068,-198.170044c6.609863,-66.059937 13.219971,-132.119995 19.819824,-198.169922c6.610107,-66.060059 13.219971,-132.119995 19.830078,-198.170044c6.600098,-66.059998 13.209961,-132.117981 19.820068,-198.174988c6.609863,-66.057007 13.209961,-132.114014 19.819824,-198.171021c6.610107,-66.057007 13.220215,-132.113953 19.820068,-198.171967c6.610107,-66.057007 13.219971,-132.114014 16.52002,-165.141998l3.310059,-33.029022l-342.060059,-34.214996z" clip-rule="evenodd" fill-rule="evenodd"/>
  <path id="svg_2" fill="#F5F5F6" d="m-144.998001,1304.5l324.917999,0c-7.220993,-48.130005 -79.423996,-101.099976 -101.085602,-149.23999c-21.661198,-48.130005 7.220406,-96.27002 43.322601,-144.400024c36.102005,-48.138977 79.423996,-96.274963 79.423996,-144.411011c0,-48.135986 -43.321991,-96.270996 -64.982986,-144.406982c-21.66201,-48.135986 -21.66201,-96.271973 -14.44101,-144.40802c7.220001,-48.135986 21.660995,-96.271973 7.220001,-144.407959c-14.441002,-48.136017 -57.763,-96.272003 -108.305799,-144.40802c-50.5427,-48.135986 -108.305796,-96.271988 -122.746202,-144.40799c-14.440994,-48.135803 14.4403,-96.271702 28.881104,-120.339705l14.4408,-24.067849l-86.644901,0.00001l0,24.067839c0,24.068003 0,72.203901 0,120.339705c0,48.136002 0,96.272003 0,144.40799c0,48.136017 0,96.272003 0,144.40802c0,48.135986 0,96.271973 0,144.407959c0,48.136047 0,96.272034 0,144.40802c0,48.135986 0,96.270996 0,144.406982c0,48.136047 0,96.272034 0,144.411011c0,48.130005 0,96.27002 0,144.400024c0,48.140015 0,101.109985 0,149.23999z" clip-rule="evenodd" fill-rule="evenodd"/>
 </g>
</svg>