<svg width="1920" height="2145" viewBox="0 0 1920 2145" fill="none" xmlns="http://www.w3.org/2000/svg">
<path fill-rule="evenodd" clip-rule="evenodd" d="M2499.21 2030.29L2481.99 1967.83C2464.44 1904.18 2429.99 1779.26 2348.84 1665.94C2267.69 1552.62 2138.05 1453.94 2152.09 1314.37C2163.68 1175.48 2317.17 998.724 2233.58 886.079C2152.43 772.761 1837.3 725.235 1709.77 624.705C1579.81 524.848 1640.55 344.394 1652.14 205.5L1652.14 205.504L1920.5 205.504L1920.5 205.504L2401.43 28.1448C2436.21 154.251 2470.66 279.179 2505.44 405.286C2540.21 531.392 2574.67 656.32 2609.44 782.427C2644.22 908.533 2678.67 1033.46 2713.45 1159.57C2748.22 1285.67 2782.67 1410.6 2817.45 1536.71C2852.23 1662.82 2886.68 1787.74 2904.23 1851.39L2921.45 1913.85L2499.21 2030.29Z" fill="#1AB248"/>
<path d="M198.646 653.98C136.797 523.998 -102.131 354.083 -120.344 234.207L-474.028 152.289L-550.063 480.569L-626.097 808.849L-689.538 1082.76L-702.131 1137.13L-40.6955 1290.33L-28.1023 1235.96C-15.2715 1180.56 9.91488 1071.82 78.9753 972.154C148.036 872.492 262.792 784.495 198.646 653.98Z" fill="#F5F5F6"/>
</svg>
