<svg width="281" height="115" viewBox="0 0 281 115" fill="none" xmlns="http://www.w3.org/2000/svg">
<path d="M11.104 77.3056C10.8309 71.788 15.0836 67.0943 20.6013 66.8234L133.83 61.2636L253.683 55.3783C259.198 55.1075 263.889 59.3574 264.162 64.872L264.717 76.0996C264.99 81.6172 260.738 86.3109 255.22 86.5818L22.1378 98.0268C16.6231 98.2976 11.9325 94.0477 11.6596 88.5331L11.104 77.3056Z" fill="white"/>
<path d="M29.8286 66.1248C29.5588 60.6071 33.8138 55.9108 39.3312 55.6367L151.132 50.0827L269.481 44.2031C274.996 43.9292 279.684 48.1767 279.954 53.6915L280.503 64.9186C280.773 70.4362 276.518 75.1325 271 75.4066L40.8502 86.8402C35.3356 87.1141 30.6475 82.8666 30.3778 77.3518L29.8286 66.1248Z" fill="white"/>
<path d="M25.5595 93.0991C25.291 87.583 29.5445 82.8886 35.0603 82.6135L118.96 78.4291L207.901 73.9931C213.417 73.718 218.107 77.9672 218.375 83.4838L218.922 94.7109C219.19 100.227 214.937 104.921 209.421 105.197L36.5805 113.817C31.0643 114.092 26.3746 109.843 26.106 104.326L25.5595 93.0991Z" fill="white"/>
<path d="M0.502302 45.6206C0.229321 40.1031 4.48196 35.4094 9.99958 35.1385L121.803 29.6478L240.156 23.8353C245.671 23.5645 250.362 27.8144 250.634 33.3291L251.19 44.5559C251.463 50.0734 247.21 54.767 241.693 55.038L11.536 66.3411C6.02126 66.6119 1.33059 62.362 1.05775 56.8473L0.502302 45.6206Z" fill="white"/>
<path d="M25.562 22.4192C25.2922 16.9015 29.5472 12.2052 35.0646 11.9311L146.865 6.3771L265.215 0.497556C270.729 0.223591 275.418 4.47114 275.687 9.98597L276.236 21.213C276.506 26.7307 272.251 31.427 266.734 31.7011L36.5836 43.1346C31.069 43.4086 26.3809 39.161 26.1112 33.6462L25.562 22.4192Z" fill="white"/>
</svg>
