<svg width="527" height="212" viewBox="0 0 527 212" fill="none" xmlns="http://www.w3.org/2000/svg">
<path d="M20.1582 136.599C19.8851 131.081 24.1378 126.388 29.6555 126.117L248.03 115.394L478.676 104.068C484.191 103.797 488.882 108.047 489.155 113.562L491.028 151.416C491.301 156.933 487.048 161.627 481.53 161.898L32.5096 183.946C26.9949 184.217 22.3043 179.967 22.0314 174.453L20.1582 136.599Z" fill="white"/>
<path d="M55.5092 114.024C55.2362 108.506 59.4889 103.812 65.0066 103.541L283.381 92.8187L514.027 81.4931C519.542 81.2223 524.233 85.4722 524.506 90.9868L526.379 128.841C526.652 134.358 522.399 139.052 516.882 139.323L67.8607 161.371C62.346 161.642 57.6554 157.392 57.3825 151.877L55.5092 114.024Z" fill="white"/>
<path d="M47.5067 164.019C47.235 158.503 51.4862 153.812 57.0022 153.54L223.056 145.354L398.565 136.702C404.081 136.43 408.773 140.681 409.045 146.198L410.909 184.052C411.181 189.568 406.93 194.26 401.414 194.532L59.8512 211.37C54.3349 211.641 49.6426 207.39 49.371 201.874L47.5067 164.019Z" fill="white"/>
<path d="M0.509234 76.0236C0.236183 70.506 4.48888 65.8123 10.0066 65.5414L228.381 54.8187L459.027 43.4931C464.542 43.2223 469.233 47.4722 469.506 52.9868L471.379 90.8405C471.652 96.3581 467.399 101.052 461.882 101.323L12.8607 123.371C7.34601 123.642 2.65541 119.392 2.38251 113.877L0.509234 76.0236Z" fill="white"/>
<path d="M47.5092 33.0236C47.2362 27.506 51.4889 22.8123 57.0066 22.5414L275.381 11.8187L506.027 0.493077C511.542 0.222283 516.233 4.47217 516.506 9.98677L518.379 47.8405C518.652 53.3581 514.399 58.0518 508.882 58.3228L59.8607 80.371C54.346 80.6418 49.6554 76.3919 49.3825 70.8773L47.5092 33.0236Z" fill="white"/>
</svg>
