<svg width="1920" height="792" viewBox="0 0 1920 792" fill="none" xmlns="http://www.w3.org/2000/svg">
<mask id="mask0" mask-type="alpha" maskUnits="userSpaceOnUse" x="0" y="0" width="1920" height="792">
<rect width="1920" height="792" fill="#FFD00A"/>
</mask>
<g mask="url(#mask0)">
<path d="M41.2875 332.766C41.2277 332.766 41.138 332.766 41.0783 332.737L-10.4418 317.854C-10.6211 317.795 -10.8004 317.675 -10.8901 317.496C-10.9797 317.316 -11.0096 317.107 -10.9499 316.928L1.60144 273.536C1.6612 273.357 1.78074 273.178 1.96005 273.088C2.13935 272.998 2.34855 272.968 2.52785 273.028L54.0479 287.91C54.4364 288.03 54.6755 288.448 54.556 288.837L42.0047 332.229C41.915 332.527 41.6162 332.766 41.2875 332.766ZM-9.30624 316.599L40.7794 331.063L52.9124 289.106L2.82669 274.642L-9.30624 316.599Z" fill="#269449"/>
<path d="M2.31873 274.463C2.04978 274.463 1.8107 274.313 1.66128 274.074L-13.7589 246.103C-13.9681 245.744 -13.8186 245.296 -13.46 245.087C-13.1014 244.877 -12.6532 245.027 -12.444 245.385L2.97618 273.357C3.18537 273.716 3.03595 274.164 2.67735 274.373C2.55781 274.433 2.43827 274.463 2.31873 274.463Z" fill="#269449"/>
<path d="M-10.2329 317.855C-10.5018 317.855 -10.7409 317.706 -10.8903 317.466L-26.3105 289.495C-26.4002 289.316 -26.43 289.106 -26.3703 288.927L-13.819 245.536C-13.6994 245.147 -13.2811 244.908 -12.8926 245.028L38.6275 259.91C38.8068 259.97 38.9861 260.089 39.0758 260.268L54.4959 288.24C54.7051 288.598 54.5557 289.047 54.1971 289.256C53.8385 289.465 53.3902 289.316 53.181 288.957L37.9103 261.255L-12.5937 246.671L-24.8462 289.047L-9.57544 316.749C-9.36625 317.108 -9.51567 317.556 -9.87428 317.765C-9.99381 317.825 -10.1134 317.855 -10.2329 317.855Z" fill="#269449"/>
<path d="M-10.1132 276.764C-10.1729 276.764 -10.2626 276.764 -10.3224 276.734C-10.7109 276.614 -10.9499 276.196 -10.8304 275.807L-6.1386 259.521C-6.01906 259.132 -5.60069 258.893 -5.2122 259.013L46.3079 273.895C46.6964 274.014 46.9355 274.433 46.8159 274.821C46.6964 275.21 46.278 275.449 45.8895 275.329L-4.91336 260.656L-9.39597 276.196C-9.48562 276.555 -9.78445 276.764 -10.1132 276.764Z" fill="#269449"/>
<path d="M40.5697 314.926C40.3008 314.926 40.0617 314.776 39.9123 314.537L36.4158 308.202L30.0804 311.698C29.7218 311.907 29.2736 311.758 29.0644 311.399C28.8552 311.041 29.0046 310.592 29.3632 310.383L36.3561 306.528C36.7147 306.319 37.163 306.468 37.3721 306.827L41.2272 313.82C41.4363 314.179 41.2869 314.627 40.9283 314.836C40.8387 314.896 40.6893 314.926 40.5697 314.926Z" fill="#269449"/>
<path d="M32.0231 324.19C31.9633 324.19 31.8736 324.19 31.8138 324.16C31.4254 324.04 31.1863 323.622 31.3058 323.233L35.9976 306.947C36.1172 306.558 36.5356 306.319 36.924 306.439C37.3125 306.558 37.5516 306.976 37.4321 307.365L32.7403 323.652C32.6506 323.98 32.3518 324.19 32.0231 324.19Z" fill="#269449"/>
<path d="M24.3134 310.204C24.0444 310.204 23.8054 310.055 23.6559 309.815L20.1595 303.48L13.8241 306.976C13.4655 307.186 13.0172 307.036 12.808 306.678C12.5988 306.319 12.7482 305.871 13.1069 305.662L20.0997 301.807C20.4583 301.597 20.9066 301.747 21.1158 302.105L24.9708 309.098C25.18 309.457 25.0306 309.905 24.672 310.114C24.5525 310.174 24.4329 310.204 24.3134 310.204Z" fill="#269449"/>
<path d="M15.7364 319.498C15.6767 319.498 15.587 319.498 15.5272 319.468C15.1388 319.348 14.8997 318.93 15.0192 318.542L19.711 302.255C19.8305 301.866 20.2489 301.627 20.6374 301.747C21.0259 301.866 21.265 302.285 21.1454 302.673L16.4536 318.96C16.364 319.289 16.0652 319.498 15.7364 319.498Z" fill="#269449"/>
<path d="M37.4327 325.774C37.3729 325.774 37.2833 325.774 37.2235 325.744L10.0888 317.914C9.70028 317.794 9.4612 317.376 9.58074 316.988C9.70027 316.599 10.1187 316.36 10.5072 316.48L37.6418 324.309C38.0303 324.429 38.2694 324.847 38.1499 325.236C38.0602 325.564 37.7614 325.774 37.4327 325.774Z" fill="#269449"/>
<path d="M3.24419 464.675C2.82581 464.675 2.49709 464.346 2.49709 463.927L2.04883 430.099C2.04883 429.889 2.1086 429.71 2.25802 429.561C2.40744 429.411 2.58674 429.352 2.79593 429.322L49.2955 428.694C49.7139 428.694 50.0426 429.023 50.0426 429.441L50.4908 463.27C50.4908 463.479 50.4311 463.658 50.2817 463.808C50.1323 463.957 49.9529 464.017 49.7437 464.047L3.24419 464.675C3.27407 464.675 3.27407 464.675 3.24419 464.675ZM3.57293 430.846L4.02119 463.18L49.0266 462.583L48.5783 430.248L3.57293 430.846Z" fill="#269449"/>
<path d="M27.4207 429.77L27.1517 409.389L-8.49991 409.867L-8.52979 408.373L27.869 407.895C28.2873 407.895 28.6161 408.224 28.6161 408.642L28.9149 429.77H27.4207Z" fill="#269449"/>
<path d="M34.0249 430.129C33.3973 429.292 33.0387 428.276 33.0387 427.23L33.0088 425.616C33.0088 424.69 33.5467 423.853 34.3835 423.494C35.2202 423.136 36.2064 423.315 36.8638 423.972L41.5257 428.575C41.705 428.754 41.8844 428.963 42.0637 429.202L40.8384 430.069C40.7488 429.919 40.6292 429.77 40.4798 429.65L35.8179 425.048C35.5788 424.839 35.2501 424.749 34.9812 424.899C34.6823 425.018 34.503 425.317 34.503 425.646L34.5329 427.26C34.5329 428.007 34.772 428.694 35.2202 429.292L34.0249 430.129Z" fill="#269449"/>
<path d="M49.3255 430.218C49.1462 430.218 48.937 430.159 48.8175 430.009L27.3906 409.15C27.0918 408.851 27.0918 408.373 27.3906 408.104C27.6895 407.805 28.1377 407.805 28.4366 408.104L49.8634 428.963C50.1623 429.262 50.1623 429.74 49.8634 430.009C49.714 430.129 49.5048 430.218 49.3255 430.218Z" fill="#269449"/>
<path d="M2.79572 430.846C2.61641 430.846 2.40724 430.786 2.2877 430.637L-16.3301 412.527C-16.6289 412.228 -16.6289 411.75 -16.3301 411.481C-16.0312 411.182 -15.583 411.182 -15.2841 411.481L3.33364 429.591C3.63248 429.89 3.63248 430.368 3.33364 430.637C3.18422 430.756 3.00491 430.846 2.79572 430.846Z" fill="#269449"/>
<path d="M28.4362 409.12L27.3604 408.104L41.107 393.939L42.1828 394.985L28.4362 409.12Z" fill="#269449"/>
<path d="M2.73626 464.465L-18.6906 443.606C-18.84 443.457 -18.8998 443.278 -18.9297 443.068L-19.3779 409.24C-19.3779 409.03 -19.3182 408.851 -19.1688 408.702L1.69032 387.275C1.86962 387.096 2.10869 387.006 2.37765 387.066C2.61672 387.125 2.8259 387.275 2.91556 387.514L5.81431 394.537C5.93385 394.806 5.87408 395.134 5.66489 395.344L-9.9047 411.332C-11.2495 412.706 -13.2218 413.334 -15.1045 412.975C-16.1505 412.766 -17.1068 412.288 -17.8539 411.6L-17.4355 442.74L3.7822 463.39L2.73626 464.465ZM-17.7343 409.389C-17.1366 410.495 -16.0608 411.272 -14.8057 411.511C-13.4011 411.78 -11.9667 411.332 -10.9506 410.286L4.26034 394.656L1.95926 389.158L-17.7343 409.389Z" fill="#269449"/>
<path d="M51.5132 393.652L5.16309 394.072L5.17662 395.566L51.5268 395.146L51.5132 393.652Z" fill="#269449"/>
<path d="M32.5007 412.437C32.1421 412.437 31.7835 412.407 31.4248 412.348C31.126 412.288 30.7674 412.198 30.4387 412.049L30.9766 410.644C31.2455 410.734 31.4846 410.824 31.6938 410.853C33.1282 411.122 34.5626 410.674 35.5488 409.628L50.7598 393.999L48.2197 387.902L2.22814 388.53L2.19824 387.036L48.6978 386.408C48.9668 386.378 49.2955 386.588 49.3852 386.857L52.2839 393.879C52.4034 394.148 52.3437 394.477 52.1345 394.686L36.5649 410.674C35.5488 411.84 34.0546 412.437 32.5007 412.437Z" fill="#269449"/>
<path d="M3.24419 165.236C2.82581 165.236 2.49709 164.908 2.49709 164.489L2.04883 130.661C2.04883 130.451 2.1086 130.272 2.25802 130.123C2.40744 129.973 2.58674 129.913 2.79593 129.884L49.2955 129.256C49.7139 129.256 50.0426 129.585 50.0426 130.003L50.4908 163.832C50.4908 164.041 50.4311 164.22 50.2817 164.37C50.1323 164.519 49.9529 164.579 49.7437 164.609L3.24419 165.236C3.27407 165.236 3.27407 165.236 3.24419 165.236ZM3.57293 131.408L4.02119 163.742L49.0266 163.144L48.5783 130.81L3.57293 131.408Z" fill="#269449"/>
<path d="M27.4207 130.332L27.1517 109.951L-8.49991 110.429L-8.52979 108.935L27.869 108.457C28.2873 108.457 28.6161 108.785 28.6161 109.204L28.9149 130.332H27.4207Z" fill="#269449"/>
<path d="M34.0249 130.69C33.3973 129.854 33.0387 128.838 33.0387 127.792L33.0088 126.178C33.0088 125.252 33.5467 124.415 34.3835 124.056C35.2202 123.698 36.2064 123.877 36.8638 124.534L41.5257 129.137C41.705 129.316 41.8844 129.525 42.0637 129.764L40.8384 130.631C40.7488 130.481 40.6292 130.332 40.4798 130.212L35.8179 125.61C35.5788 125.401 35.2501 125.311 34.9812 125.461C34.6823 125.58 34.503 125.879 34.503 126.208L34.5329 127.822C34.5329 128.569 34.772 129.256 35.2202 129.854L34.0249 130.69Z" fill="#269449"/>
<path d="M49.3256 130.78C49.1463 130.78 48.9371 130.72 48.8176 130.571L27.3608 109.712C27.062 109.413 27.062 108.935 27.3608 108.666C27.6597 108.367 28.108 108.367 28.4068 108.666L49.8336 129.525C50.1325 129.824 50.1325 130.302 49.8336 130.571C49.7141 130.691 49.5049 130.78 49.3256 130.78Z" fill="#269449"/>
<path d="M2.79572 131.408C2.61641 131.408 2.40724 131.348 2.2877 131.199L-16.3301 113.089C-16.6289 112.79 -16.6289 112.312 -16.3301 112.043C-16.0312 111.744 -15.583 111.744 -15.2841 112.043L3.33364 130.153C3.63248 130.451 3.63248 130.93 3.33364 131.199C3.18422 131.318 3.00491 131.408 2.79572 131.408Z" fill="#269449"/>
<path d="M28.4362 109.682L27.3604 108.666L41.107 94.5009L42.1828 95.5468L28.4362 109.682Z" fill="#269449"/>
<path d="M2.73626 165.027L-18.6906 144.168C-18.84 144.019 -18.8998 143.839 -18.9297 143.63L-19.3779 109.802C-19.3779 109.592 -19.3182 109.413 -19.1688 109.264L1.69032 87.8368C1.86962 87.6575 2.10869 87.5678 2.37765 87.6276C2.61672 87.6873 2.8259 87.8368 2.91556 88.0758L5.81431 95.0986C5.93385 95.3675 5.87408 95.6963 5.66489 95.9054L-9.9047 111.893C-11.2495 113.268 -13.2218 113.896 -15.1045 113.537C-16.1505 113.328 -17.1068 112.85 -17.8539 112.162L-17.4355 143.302L3.7822 163.951L2.73626 165.027ZM-17.7343 109.951C-17.1366 111.057 -16.0608 111.834 -14.8057 112.073C-13.4011 112.342 -11.9667 111.893 -10.9506 110.847L4.26034 95.2181L1.95926 89.7195L-17.7343 109.951Z" fill="#269449"/>
<path d="M51.5132 94.2014L5.16309 94.6214L5.17662 96.1156L51.5268 95.6956L51.5132 94.2014Z" fill="#269449"/>
<path d="M32.5006 112.999C32.142 112.999 31.7833 112.969 31.4247 112.909C31.1259 112.85 30.7673 112.76 30.4386 112.611L30.9765 111.206C31.2454 111.296 31.4845 111.385 31.6937 111.415C33.1281 111.684 34.5625 111.236 35.5487 110.19L50.7597 94.5607L48.2494 88.4942L2.2579 89.1218L2.22803 87.6276L48.7276 87C48.9966 87.0299 49.3253 87.1793 49.4149 87.4483L52.3137 94.471C52.4332 94.74 52.3735 95.0687 52.1643 95.2779L36.5947 111.266C35.5487 112.401 34.0545 112.999 32.5006 112.999Z" fill="#269449"/>
<path d="M114.981 247.208C114.951 247.208 114.921 247.208 114.892 247.208L66.3599 242.008C66.1507 241.979 65.9714 241.889 65.8519 241.739C65.7323 241.59 65.6726 241.381 65.7024 241.202L70.0655 200.32C70.0954 199.902 70.454 199.603 70.9023 199.663L119.434 204.863C119.643 204.892 119.822 204.982 119.942 205.132C120.062 205.281 120.121 205.49 120.091 205.669L115.728 246.551C115.698 246.909 115.37 247.208 114.981 247.208ZM67.2564 240.604L114.324 245.624L118.537 206.237L71.4701 201.217L67.2564 240.604Z" fill="#269449"/>
<path d="M70.8123 201.157C70.6031 201.157 70.3641 201.067 70.2147 200.888L51.9555 178.266C51.6866 177.937 51.7463 177.459 52.0751 177.22C52.4038 176.951 52.852 177.011 53.121 177.339L71.3801 199.962C71.6491 200.29 71.5893 200.769 71.2606 201.008C71.1411 201.097 70.9618 201.157 70.8123 201.157Z" fill="#269449"/>
<path d="M66.4494 242.008C66.2402 242.008 66.0011 241.919 65.8517 241.74L47.5926 219.117C47.473 218.968 47.4133 218.759 47.4432 218.579L51.8062 177.698C51.8361 177.28 52.2246 176.981 52.643 177.041L101.175 182.24C101.384 182.27 101.563 182.36 101.683 182.509L119.942 205.132C120.211 205.46 120.151 205.938 119.822 206.178C119.494 206.446 119.015 206.387 118.776 206.058L100.726 183.675L53.2407 178.595L48.9971 218.43L67.0471 240.813C67.316 241.142 67.2563 241.62 66.9275 241.859C66.7781 241.979 66.5988 242.008 66.4494 242.008Z" fill="#269449"/>
<path d="M99.8297 219.745C99.7998 219.745 99.7699 219.745 99.74 219.745L86.9795 218.37C86.5612 218.34 86.2623 217.952 86.3221 217.533L87.9657 202.203C87.9956 201.785 88.3841 201.486 88.8025 201.546C89.2208 201.575 89.5197 201.964 89.4599 202.382L87.9059 216.966L99.2021 218.161L100.756 203.578C100.786 203.159 101.174 202.86 101.593 202.92C102.011 202.95 102.31 203.339 102.25 203.757L100.607 219.087C100.517 219.476 100.218 219.745 99.8297 219.745Z" fill="#269449"/>
<path d="M101.474 204.414C101.264 204.414 101.025 204.325 100.876 204.145L82.6166 181.523C82.3477 181.195 82.4075 180.716 82.7362 180.477C83.0649 180.208 83.5132 180.268 83.7821 180.597L102.041 203.219C102.31 203.548 102.25 204.026 101.922 204.265C101.802 204.355 101.623 204.414 101.474 204.414Z" fill="#269449"/>
<path d="M88.6834 203.07C88.4742 203.07 88.2352 202.98 88.0857 202.801L69.8266 180.178C69.5576 179.85 69.6174 179.372 69.9461 179.132C70.2749 178.863 70.7231 178.923 70.9921 179.252L89.2512 201.874C89.5202 202.203 89.4604 202.681 89.1317 202.92C89.0121 203.01 88.8627 203.07 88.6834 203.07Z" fill="#269449"/>
<path d="M173.732 321.5C173.404 321.5 173.105 321.291 173.015 320.962L161.241 280.38C161.121 279.991 161.36 279.573 161.749 279.453L202.331 267.679C202.72 267.559 203.138 267.798 203.258 268.187C203.377 268.575 203.138 268.994 202.75 269.113L162.885 280.678L174.24 319.827L213.389 308.471L205.439 281.097C205.32 280.708 205.559 280.29 205.947 280.17C206.336 280.051 206.754 280.29 206.874 280.678L215.032 308.769C215.092 308.949 215.062 309.158 214.972 309.337C214.883 309.517 214.703 309.636 214.524 309.696L173.942 321.47C173.882 321.5 173.792 321.5 173.732 321.5Z" fill="#269449"/>
<path d="M173.733 321.5C173.613 321.5 173.494 321.47 173.374 321.41L149.198 308.112C149.019 308.022 148.899 307.843 148.839 307.664L144.297 292.064C144.178 291.676 144.417 291.257 144.805 291.138C145.194 291.018 145.612 291.257 145.731 291.646L150.184 306.947L174.091 320.096C174.45 320.305 174.599 320.753 174.39 321.112C174.241 321.351 174.002 321.5 173.733 321.5Z" fill="#269449"/>
<path d="M137.782 267.619C137.454 267.619 137.155 267.41 137.065 267.081C136.946 266.693 137.185 266.274 137.573 266.155L178.156 254.38C178.544 254.261 178.963 254.5 179.082 254.889C179.202 255.277 178.963 255.695 178.574 255.815L137.992 267.589C137.932 267.619 137.842 267.619 137.782 267.619Z" fill="#269449"/>
<path d="M178.066 289.763C177.946 289.763 177.827 289.733 177.707 289.674L121.316 258.654C121.047 258.505 120.898 258.206 120.928 257.907C120.957 257.608 121.167 257.369 121.465 257.279L162.048 245.505C162.227 245.445 162.437 245.475 162.616 245.565L219.007 276.584C219.276 276.734 219.425 277.033 219.396 277.331C219.366 277.63 219.156 277.869 218.858 277.959L178.275 289.733C178.215 289.763 178.126 289.763 178.066 289.763ZM123.617 258.206L178.156 288.209L216.706 277.003L162.168 246.999L123.617 258.206Z" fill="#269449"/>
<path d="M183.803 274.552C183.475 274.552 183.176 274.343 183.086 274.014L177.647 255.277C177.588 255.098 177.617 254.889 177.707 254.709L186.583 238.602C186.672 238.422 186.852 238.303 187.031 238.243C187.21 238.183 187.419 238.213 187.599 238.303L211.775 251.601C211.954 251.691 212.074 251.87 212.133 252.05C212.193 252.229 212.163 252.438 212.074 252.617L203.198 268.725C202.989 269.083 202.541 269.203 202.182 269.024C201.824 268.815 201.674 268.366 201.883 268.008L210.4 252.558L187.539 239.976L179.171 255.158L184.521 273.596C184.64 273.984 184.401 274.403 184.013 274.522C183.953 274.552 183.863 274.552 183.803 274.552Z" fill="#269449"/>
<path d="M153.083 297.025C152.963 297.025 152.844 296.995 152.724 296.935L128.548 283.637C128.189 283.428 128.04 282.98 128.249 282.621L137.124 266.513C137.334 266.155 137.782 266.005 138.141 266.215C138.499 266.424 138.649 266.872 138.439 267.231L129.922 282.681L152.784 295.262L161.301 279.812C161.51 279.453 161.958 279.304 162.317 279.513C162.675 279.722 162.825 280.17 162.616 280.529L153.74 296.637C153.65 296.816 153.471 296.935 153.292 296.995C153.232 297.025 153.142 297.025 153.083 297.025Z" fill="#269449"/>
<path d="M65.8815 381.029C65.7321 381.029 65.5528 380.969 65.4333 380.88C65.2839 380.76 65.1643 380.581 65.1344 380.402L58.9783 337.996C58.9186 337.578 59.2174 337.219 59.6059 337.159L123.199 327.925C123.378 327.895 123.588 327.955 123.767 328.075C123.916 328.194 124.036 328.373 124.066 328.553L130.222 370.958C130.282 371.377 129.983 371.735 129.594 371.795L66.0011 381.029C65.9413 381.029 65.9114 381.029 65.8815 381.029ZM60.5622 338.534L66.5091 379.445L128.638 370.42L122.691 329.509L60.5622 338.534Z" fill="#269449"/>
<path d="M59.7266 338.654C59.6369 338.654 59.5473 338.624 59.4576 338.594C59.0691 338.444 58.8898 338.026 59.0393 337.637L67.8849 314.716C67.9746 314.477 68.2137 314.298 68.4826 314.238L108.228 308.471C108.497 308.441 108.766 308.53 108.916 308.74L123.918 328.194C124.157 328.523 124.097 329.001 123.768 329.24C123.439 329.509 122.961 329.419 122.722 329.091L107.989 309.965L69.1102 315.643L60.4139 338.175C60.2944 338.444 60.0254 338.654 59.7266 338.654Z" fill="#269449"/>
<path d="M87.1888 350.876C87.0394 350.876 86.8601 350.816 86.7405 350.727C86.5911 350.607 86.4716 350.428 86.4417 350.249L84.1406 334.35L83.6924 312.684C83.6924 312.266 84.0211 311.937 84.4395 311.907C84.8579 311.907 85.1866 312.236 85.2165 312.654L85.6348 334.231L87.8164 349.292L99.5907 347.589L97.3793 332.438L91.6714 311.728C91.5519 311.339 91.7909 310.921 92.1794 310.802C92.5679 310.682 92.9863 310.921 93.1059 311.31L98.8436 332.109L101.175 348.097C101.234 348.515 100.935 348.874 100.547 348.934L87.3083 350.846C87.2785 350.876 87.2486 350.876 87.1888 350.876Z" fill="#269449"/>
<path d="M142.683 430.308C142.563 430.308 142.444 430.278 142.324 430.218L114.592 414.828C114.323 414.679 114.174 414.38 114.203 414.081C114.233 413.782 114.443 413.543 114.741 413.453L151.23 402.994C151.409 402.934 151.618 402.964 151.798 403.054L179.53 418.444C179.889 418.653 180.008 419.101 179.829 419.46C179.62 419.819 179.171 419.938 178.813 419.759L151.349 404.518L116.893 414.38L143.042 428.873C143.4 429.083 143.52 429.531 143.34 429.89C143.191 430.188 142.952 430.308 142.683 430.308Z" fill="#269449"/>
<path d="M153.62 468.47C153.501 468.47 153.381 468.44 153.262 468.38C153.082 468.291 152.963 468.111 152.903 467.932L141.966 429.77C141.846 429.382 142.085 428.963 142.474 428.844L178.962 418.384L179.38 419.819L143.609 430.069L154.128 466.766L189.182 456.725L181.771 430.906L183.205 430.487L190.826 457.024C190.886 457.204 190.856 457.413 190.766 457.592C190.676 457.771 190.497 457.891 190.318 457.951L153.829 468.41C153.74 468.44 153.68 468.47 153.62 468.47Z" fill="#269449"/>
<path d="M157.625 438.586C157.506 438.586 157.386 438.556 157.266 438.496L142.593 430.368L127.95 434.551C127.771 434.611 127.562 434.581 127.382 434.492L99.6501 419.101C99.3811 418.952 99.2317 418.653 99.2616 418.354C99.2915 418.055 99.5006 417.816 99.7995 417.727L112.978 413.961L101.742 407.745C101.473 407.596 101.324 407.297 101.353 406.998C101.383 406.7 101.593 406.46 101.891 406.371L138.38 395.911C138.559 395.852 138.768 395.881 138.948 395.971L151.469 402.934L167.756 398.272C167.935 398.212 168.144 398.242 168.324 398.332L196.056 413.722C196.325 413.872 196.474 414.171 196.444 414.469C196.415 414.768 196.205 415.007 195.907 415.097L181.054 419.34L194.412 426.752C194.681 426.901 194.831 427.2 194.801 427.499C194.771 427.798 194.562 428.037 194.263 428.126L157.775 438.586C157.745 438.586 157.685 438.586 157.625 438.586ZM142.683 428.814C142.803 428.814 142.922 428.844 143.042 428.903L157.715 437.032L192.171 427.17L178.813 419.759C178.544 419.609 178.395 419.311 178.424 419.012C178.454 418.713 178.663 418.474 178.962 418.384L193.815 414.141L167.935 399.796L151.648 404.458C151.469 404.518 151.26 404.488 151.081 404.398L138.559 397.435L104.103 407.297L115.339 413.513C115.608 413.662 115.758 413.961 115.728 414.26C115.698 414.559 115.489 414.798 115.19 414.888L102.011 418.653L127.89 432.997L142.534 428.814C142.534 428.814 142.623 428.814 142.683 428.814Z" fill="#269449"/>
<path d="M153.262 468.38L125.53 452.99C125.35 452.9 125.231 452.721 125.171 452.542L118.507 429.322L119.941 428.903L126.516 451.824L153.979 467.065L153.262 468.38Z" fill="#269449"/>
<path d="M152.14 403.538L150.703 403.949L156.886 425.524L158.323 425.112L152.14 403.538Z" fill="#269449"/>
<path d="M220.203 364.922C220.053 364.922 219.904 364.862 219.784 364.802L192.171 345.766C191.932 345.587 191.813 345.288 191.873 344.989C191.932 344.69 192.171 344.451 192.47 344.421L233.949 336.801C234.159 336.771 234.338 336.801 234.517 336.92L262.13 355.956C262.369 356.136 262.489 356.435 262.429 356.733C262.369 357.032 262.13 357.271 261.831 357.301L220.352 364.922C220.292 364.922 220.262 364.922 220.203 364.922ZM194.502 345.557L220.382 363.398L259.769 356.166L233.89 338.325L194.502 345.557Z" fill="#269449"/>
<path d="M222.115 375.291C221.966 375.291 221.816 375.232 221.697 375.172L194.084 356.136C193.935 356.016 193.815 355.837 193.785 355.658L191.873 345.288L193.337 345.019L195.19 355.09L222.294 373.767L262.728 366.326L260.964 356.704L262.429 356.435L264.341 366.804C264.431 367.223 264.162 367.611 263.744 367.671L222.265 375.291C222.205 375.291 222.175 375.291 222.115 375.291Z" fill="#269449"/>
<path d="M220.925 364.017L219.456 364.287L221.362 374.662L222.831 374.392L220.925 364.017Z" fill="#269449"/>
<path d="M224.775 404.279C224.626 404.279 224.476 404.219 224.357 404.159C224.207 404.04 224.088 403.861 224.058 403.681L218.35 372.572L219.814 372.303L225.403 402.665L265.388 395.314L260.307 367.641L261.772 367.372L267.001 395.792C267.031 396.001 267.001 396.18 266.882 396.36C266.762 396.509 266.583 396.629 266.404 396.658L224.925 404.279C224.865 404.279 224.805 404.279 224.775 404.279Z" fill="#269449"/>
<path d="M224.357 404.159L202.87 389.367C202.72 389.247 202.601 389.068 202.571 388.889L196.893 357.929L198.357 357.66L203.976 388.291L225.193 402.934L224.357 404.159Z" fill="#269449"/>
<path d="M142.683 130.87C142.563 130.87 142.444 130.84 142.324 130.78L114.592 115.39C114.323 115.24 114.174 114.942 114.203 114.643C114.233 114.344 114.443 114.105 114.741 114.015L151.23 103.556C151.409 103.496 151.618 103.526 151.798 103.616L179.53 119.006C179.889 119.215 180.008 119.663 179.829 120.022C179.62 120.381 179.171 120.5 178.813 120.321L151.349 105.08L116.893 114.942L143.042 129.435C143.4 129.645 143.52 130.093 143.34 130.451C143.191 130.75 142.952 130.87 142.683 130.87Z" fill="#269449"/>
<path d="M153.62 169.032C153.501 169.032 153.381 169.002 153.262 168.942C153.082 168.852 152.963 168.673 152.903 168.494L141.966 130.332C141.846 129.943 142.085 129.525 142.474 129.406L178.962 118.946L179.38 120.381L143.609 130.631L154.128 167.328L189.182 157.287L181.771 131.468L183.205 131.049L190.826 157.586C190.886 157.765 190.856 157.975 190.766 158.154C190.676 158.333 190.497 158.453 190.318 158.513L153.829 168.972C153.74 169.002 153.68 169.032 153.62 169.032Z" fill="#269449"/>
<path d="M157.625 139.148C157.506 139.148 157.386 139.118 157.266 139.058L142.593 130.93L127.95 135.113C127.771 135.173 127.562 135.143 127.382 135.054L99.6501 119.663C99.3811 119.514 99.2317 119.215 99.2616 118.916C99.2915 118.617 99.5006 118.378 99.7995 118.289L112.978 114.523L101.742 108.307C101.473 108.158 101.324 107.859 101.353 107.56C101.383 107.261 101.593 107.022 101.891 106.933L138.38 96.4733C138.559 96.4135 138.768 96.4434 138.948 96.5331L151.469 103.496L167.756 98.8341C167.935 98.7744 168.144 98.8042 168.324 98.8939L196.056 114.284C196.325 114.434 196.474 114.732 196.444 115.031C196.415 115.33 196.205 115.569 195.907 115.659L181.054 119.902L194.412 127.314C194.681 127.463 194.831 127.762 194.801 128.061C194.771 128.36 194.562 128.599 194.263 128.688L157.775 139.148C157.745 139.148 157.685 139.148 157.625 139.148ZM142.683 129.376C142.803 129.376 142.922 129.406 143.042 129.465L157.715 137.594L192.171 127.732L178.813 120.321C178.544 120.171 178.395 119.873 178.424 119.574C178.454 119.275 178.663 119.036 178.962 118.946L193.815 114.703L167.935 100.358L151.648 105.02C151.469 105.08 151.26 105.05 151.081 104.96L138.559 97.9974L104.103 107.859L115.339 114.075C115.608 114.224 115.758 114.523 115.728 114.822C115.698 115.121 115.489 115.36 115.19 115.45L102.011 119.215L127.89 133.559L142.534 129.376C142.534 129.376 142.623 129.376 142.683 129.376Z" fill="#269449"/>
<path d="M153.262 168.942L125.53 153.552C125.35 153.462 125.231 153.283 125.171 153.104L118.507 129.884L119.941 129.465L126.516 152.386L153.979 167.627L153.262 168.942Z" fill="#269449"/>
<path d="M152.149 104.097L150.712 104.509L156.895 126.083L158.332 125.672L152.149 104.097Z" fill="#269449"/>
<path d="M41.2875 632.204C41.2277 632.204 41.138 632.204 41.0783 632.175L-10.4418 617.292C-10.6211 617.233 -10.8004 617.113 -10.8901 616.934C-10.9797 616.754 -11.0096 616.545 -10.9499 616.366L1.60144 572.974C1.6612 572.795 1.78074 572.616 1.96005 572.526C2.13935 572.436 2.34855 572.407 2.52785 572.466L54.0479 587.349C54.4364 587.468 54.6755 587.886 54.556 588.275L42.0047 631.667C41.915 631.965 41.6162 632.204 41.2875 632.204ZM-9.30624 616.037L40.7794 630.501L52.9124 588.544L2.82669 574.08L-9.30624 616.037Z" fill="#269449"/>
<path d="M2.31873 573.901C2.04978 573.901 1.8107 573.751 1.66128 573.512L-13.7589 545.541C-13.9681 545.182 -13.8186 544.734 -13.46 544.525C-13.1014 544.316 -12.6532 544.465 -12.444 544.824L2.97618 572.795C3.18537 573.154 3.03595 573.602 2.67735 573.811C2.55781 573.871 2.43827 573.901 2.31873 573.901Z" fill="#269449"/>
<path d="M-10.2329 617.293C-10.5018 617.293 -10.7409 617.144 -10.8903 616.904L-26.3105 588.933C-26.4002 588.754 -26.43 588.545 -26.3703 588.365L-13.819 544.974C-13.6994 544.585 -13.2811 544.346 -12.8926 544.466L38.6275 559.348C38.8068 559.408 38.9861 559.527 39.0758 559.706L54.4959 587.678C54.7051 588.037 54.5557 588.485 54.1971 588.694C53.8385 588.903 53.3902 588.754 53.181 588.395L37.9103 560.693L-12.5937 546.109L-24.8462 588.485L-9.57544 616.187C-9.36625 616.546 -9.51567 616.994 -9.87428 617.203C-9.99381 617.263 -10.1134 617.293 -10.2329 617.293Z" fill="#269449"/>
<path d="M-10.1132 576.202C-10.1729 576.202 -10.2626 576.202 -10.3224 576.172C-10.7109 576.052 -10.9499 575.634 -10.8304 575.246L-6.1386 558.959C-6.01906 558.57 -5.60069 558.331 -5.2122 558.451L46.3079 573.333C46.6964 573.452 46.9355 573.871 46.8159 574.259C46.6964 574.648 46.278 574.887 45.8895 574.767L-4.91336 560.094L-9.39597 575.634C-9.48562 575.993 -9.78445 576.202 -10.1132 576.202Z" fill="#269449"/>
<path d="M40.5697 614.364C40.3008 614.364 40.0617 614.214 39.9123 613.975L36.4158 607.64L30.0804 611.136C29.7218 611.345 29.2736 611.196 29.0644 610.837C28.8552 610.479 29.0046 610.031 29.3632 609.821L36.3561 605.966C36.7147 605.757 37.163 605.907 37.3721 606.265L41.2272 613.258C41.4363 613.617 41.2869 614.065 40.9283 614.274C40.8387 614.334 40.6893 614.364 40.5697 614.364Z" fill="#269449"/>
<path d="M32.0231 623.628C31.9633 623.628 31.8736 623.628 31.8138 623.598C31.4254 623.478 31.1863 623.06 31.3058 622.671L35.9976 606.385C36.1172 605.996 36.5356 605.757 36.924 605.877C37.3125 605.996 37.5516 606.415 37.4321 606.803L32.7403 623.09C32.6506 623.419 32.3518 623.628 32.0231 623.628Z" fill="#269449"/>
<path d="M24.3134 609.642C24.0444 609.642 23.8054 609.493 23.6559 609.254L20.1595 602.918L13.8241 606.415C13.4655 606.624 13.0172 606.474 12.808 606.116C12.5988 605.757 12.7482 605.309 13.1069 605.1L20.0997 601.245C20.4583 601.035 20.9066 601.185 21.1158 601.543L24.9708 608.536C25.18 608.895 25.0306 609.343 24.672 609.552C24.5525 609.612 24.4329 609.642 24.3134 609.642Z" fill="#269449"/>
<path d="M15.7364 618.936C15.6767 618.936 15.587 618.936 15.5272 618.906C15.1388 618.787 14.8997 618.368 15.0192 617.98L19.711 601.693C19.8305 601.304 20.2489 601.065 20.6374 601.185C21.0259 601.304 21.265 601.723 21.1454 602.111L16.4536 618.398C16.364 618.727 16.0652 618.936 15.7364 618.936Z" fill="#269449"/>
<path d="M37.4327 625.212C37.3729 625.212 37.2833 625.212 37.2235 625.182L10.0888 617.352C9.70028 617.233 9.4612 616.814 9.58074 616.426C9.70027 616.037 10.1187 615.798 10.5072 615.918L37.6418 623.747C38.0303 623.867 38.2694 624.285 38.1499 624.674C38.0602 625.002 37.7614 625.212 37.4327 625.212Z" fill="#269449"/>
<path d="M114.981 546.646C114.951 546.646 114.921 546.646 114.892 546.646L66.3599 541.447C66.1507 541.417 65.9714 541.327 65.8519 541.178C65.7323 541.028 65.6726 540.819 65.7024 540.64L70.0655 499.758C70.0954 499.34 70.454 499.041 70.9023 499.101L119.434 504.301C119.643 504.331 119.822 504.42 119.942 504.57C120.062 504.719 120.121 504.928 120.091 505.108L115.728 545.989C115.698 546.377 115.37 546.646 114.981 546.646ZM67.2564 540.042L114.324 545.063L118.537 505.675L71.4701 500.655L67.2564 540.042Z" fill="#269449"/>
<path d="M70.8123 500.595C70.6031 500.595 70.3641 500.505 70.2147 500.326L51.9555 477.704C51.6866 477.375 51.7463 476.897 52.0751 476.658C52.4038 476.389 52.852 476.449 53.121 476.778L71.3801 499.4C71.6491 499.728 71.5893 500.207 71.2606 500.446C71.1411 500.535 70.9618 500.595 70.8123 500.595Z" fill="#269449"/>
<path d="M66.4494 541.447C66.2402 541.447 66.0011 541.357 65.8517 541.178L47.5926 518.555C47.473 518.406 47.4133 518.197 47.4432 518.018L51.8062 477.136C51.8361 476.718 52.2246 476.419 52.643 476.479L101.175 481.679C101.384 481.708 101.563 481.798 101.683 481.947L119.942 504.57C120.211 504.898 120.151 505.377 119.822 505.616C119.494 505.885 119.015 505.825 118.776 505.496L100.726 483.113L53.2407 478.033L48.9971 517.868L67.0471 540.251C67.316 540.58 67.2563 541.058 66.9275 541.297C66.7781 541.417 66.5988 541.447 66.4494 541.447Z" fill="#269449"/>
<path d="M99.8297 519.183C99.7998 519.183 99.7699 519.183 99.74 519.183L86.9795 517.808C86.5612 517.778 86.2623 517.39 86.3221 516.972L87.9657 501.641C87.9956 501.223 88.3841 500.924 88.8025 500.984C89.2208 501.013 89.5197 501.402 89.4599 501.82L87.9059 516.404L99.2021 517.599L100.756 503.016C100.786 502.597 101.174 502.298 101.593 502.358C102.011 502.388 102.31 502.777 102.25 503.195L100.607 518.526C100.517 518.914 100.218 519.183 99.8297 519.183Z" fill="#269449"/>
<path d="M101.474 503.853C101.264 503.853 101.025 503.763 100.876 503.584L82.6166 480.961C82.3477 480.633 82.4075 480.154 82.7362 479.915C83.0649 479.646 83.5132 479.706 83.7821 480.035L102.041 502.657C102.31 502.986 102.25 503.464 101.922 503.703C101.802 503.793 101.623 503.853 101.474 503.853Z" fill="#269449"/>
<path d="M88.6834 502.508C88.4742 502.508 88.2352 502.418 88.0857 502.239L69.8266 479.617C69.5576 479.288 69.6174 478.81 69.9461 478.571C70.2749 478.302 70.7231 478.361 70.9921 478.69L89.2512 501.312C89.5202 501.641 89.4604 502.119 89.1317 502.358C89.0121 502.448 88.8627 502.508 88.6834 502.508Z" fill="#269449"/>
<path d="M229.496 537.711C229.138 537.711 228.839 537.442 228.749 537.084L221.278 495.425C221.248 495.216 221.278 495.037 221.398 494.857C221.517 494.708 221.697 494.588 221.876 494.559L271.334 485.713C271.723 485.653 272.141 485.922 272.201 486.311L279.672 527.969C279.732 528.387 279.463 528.776 279.074 528.836L229.616 537.711C229.586 537.711 229.556 537.711 229.496 537.711ZM222.922 495.903L230.124 536.097L278.118 527.491L270.916 487.297L222.922 495.903Z" fill="#269449"/>
<path d="M222.055 496.053C221.906 496.053 221.756 496.023 221.637 495.933L197.072 478.84C196.743 478.6 196.654 478.122 196.893 477.794C197.132 477.465 197.58 477.375 197.939 477.614L222.504 494.708C222.832 494.947 222.922 495.425 222.683 495.754C222.504 495.933 222.294 496.053 222.055 496.053Z" fill="#269449"/>
<path d="M229.497 537.711C229.347 537.711 229.198 537.681 229.078 537.562L204.514 520.468C204.364 520.348 204.245 520.169 204.215 519.99L196.744 478.332C196.684 477.913 196.953 477.525 197.341 477.465L246.799 468.589C247.009 468.559 247.188 468.589 247.367 468.709L271.932 485.803C272.261 486.042 272.35 486.52 272.111 486.848C271.872 487.177 271.424 487.267 271.065 487.028L246.77 470.113L198.357 478.78L205.619 519.392L229.915 536.307C230.244 536.546 230.333 537.024 230.094 537.353C229.975 537.592 229.736 537.711 229.497 537.711Z" fill="#269449"/>
<path d="M215.69 505.705C215.511 505.705 215.362 505.646 215.212 505.556L208.339 500.057C208.189 499.938 208.1 499.788 208.07 499.609L205.261 483.98C205.201 483.561 205.47 483.173 205.858 483.113L255.317 474.267C255.705 474.208 256.123 474.476 256.183 474.865C256.243 475.283 255.974 475.672 255.585 475.732L206.845 484.458L209.474 499.071L214.585 503.165L212.134 489.508C212.074 489.09 212.343 488.701 212.732 488.642L262.19 479.796C262.578 479.736 262.997 480.005 263.056 480.394C263.116 480.812 262.847 481.2 262.459 481.26L213.718 489.986L216.378 504.869C216.437 505.167 216.288 505.496 216.019 505.646C215.959 505.675 215.84 505.705 215.69 505.705Z" fill="#269449"/>
<path d="M173.732 620.938C173.404 620.938 173.105 620.729 173.015 620.4L161.241 579.818C161.121 579.429 161.36 579.011 161.749 578.891L202.331 567.117C202.72 566.998 203.138 567.237 203.258 567.625C203.377 568.014 203.138 568.432 202.75 568.551L162.885 580.117L174.24 619.265L213.389 607.909L205.439 580.535C205.32 580.146 205.559 579.728 205.947 579.609C206.336 579.489 206.754 579.728 206.874 580.117L215.032 608.208C215.092 608.387 215.062 608.596 214.972 608.775C214.883 608.955 214.703 609.074 214.524 609.134L173.942 620.908C173.882 620.938 173.792 620.938 173.732 620.938Z" fill="#269449"/>
<path d="M173.733 620.938C173.613 620.938 173.494 620.908 173.374 620.849L149.198 607.55C149.019 607.461 148.899 607.281 148.839 607.102L144.297 591.502C144.178 591.114 144.417 590.696 144.805 590.576C145.194 590.456 145.612 590.696 145.731 591.084L150.184 606.385L174.091 619.534C174.45 619.743 174.599 620.191 174.39 620.55C174.241 620.789 174.002 620.938 173.733 620.938Z" fill="#269449"/>
<path d="M137.782 567.057C137.454 567.057 137.155 566.848 137.065 566.519C136.946 566.131 137.185 565.713 137.573 565.593L178.156 553.819C178.544 553.699 178.963 553.938 179.082 554.327C179.202 554.715 178.963 555.134 178.574 555.253L137.992 567.027C137.932 567.057 137.842 567.057 137.782 567.057Z" fill="#269449"/>
<path d="M178.066 589.201C177.946 589.201 177.827 589.171 177.707 589.112L121.316 558.092C121.047 557.943 120.898 557.644 120.928 557.345C120.957 557.046 121.167 556.807 121.465 556.717L162.048 544.943C162.227 544.883 162.437 544.913 162.616 545.003L219.007 576.022C219.276 576.172 219.425 576.471 219.396 576.77C219.366 577.068 219.156 577.307 218.858 577.397L178.275 589.171C178.215 589.201 178.126 589.201 178.066 589.201ZM123.617 557.644L178.156 587.647L216.706 576.441L162.168 546.437L123.617 557.644Z" fill="#269449"/>
<path d="M183.803 573.99C183.475 573.99 183.176 573.781 183.086 573.452L177.647 554.715C177.588 554.536 177.617 554.327 177.707 554.147L186.583 538.04C186.672 537.861 186.852 537.741 187.031 537.681C187.21 537.621 187.419 537.651 187.599 537.741L211.775 551.039C211.954 551.129 212.074 551.308 212.133 551.488C212.193 551.667 212.163 551.876 212.074 552.055L203.198 568.163C202.989 568.522 202.541 568.641 202.182 568.462C201.824 568.253 201.674 567.804 201.883 567.446L210.4 551.996L187.539 539.415L179.171 554.596L184.521 573.034C184.64 573.423 184.401 573.841 184.013 573.961C183.953 573.99 183.863 573.99 183.803 573.99Z" fill="#269449"/>
<path d="M153.083 596.463C152.963 596.463 152.844 596.433 152.724 596.374L128.548 583.075C128.189 582.866 128.04 582.418 128.249 582.059L137.124 565.952C137.334 565.593 137.782 565.444 138.141 565.653C138.499 565.862 138.649 566.31 138.439 566.669L129.922 582.119L152.784 594.7L161.301 579.25C161.51 578.891 161.958 578.742 162.317 578.951C162.675 579.16 162.825 579.609 162.616 579.967L153.74 596.075C153.65 596.254 153.471 596.374 153.292 596.433C153.232 596.463 153.142 596.463 153.083 596.463Z" fill="#269449"/>
<path d="M65.8815 680.467C65.7321 680.467 65.5528 680.407 65.4333 680.318C65.2839 680.198 65.1643 680.019 65.1344 679.84L58.9783 637.434C58.9186 637.016 59.2174 636.657 59.6059 636.597L123.199 627.363C123.378 627.333 123.588 627.393 123.767 627.513C123.916 627.632 124.036 627.812 124.066 627.991L130.222 670.396C130.282 670.815 129.983 671.173 129.594 671.233L66.0011 680.467C65.9413 680.467 65.9114 680.467 65.8815 680.467ZM60.5622 637.972L66.5091 678.883L128.638 669.858L122.691 628.947L60.5622 637.972Z" fill="#269449"/>
<path d="M59.7266 638.092C59.6369 638.092 59.5473 638.062 59.4576 638.032C59.0691 637.882 58.8898 637.464 59.0393 637.076L67.8849 614.154C67.9746 613.915 68.2137 613.736 68.4826 613.676L108.228 607.909C108.497 607.879 108.766 607.968 108.916 608.178L123.918 627.632C124.157 627.961 124.097 628.439 123.768 628.678C123.439 628.947 122.961 628.857 122.722 628.529L107.989 609.403L69.1102 615.051L60.4139 637.584C60.2944 637.882 60.0254 638.092 59.7266 638.092Z" fill="#269449"/>
<path d="M87.1888 650.314C87.0394 650.314 86.8601 650.254 86.7405 650.165C86.5911 650.045 86.4716 649.866 86.4417 649.687L84.1406 633.788L83.6924 612.122C83.6924 611.704 84.0211 611.375 84.4395 611.345C84.8579 611.375 85.1866 611.674 85.2165 612.092L85.6348 633.669L87.8164 648.73L99.5907 647.027L97.3793 631.876L91.6714 611.166C91.5519 610.778 91.7909 610.359 92.1794 610.24C92.5679 610.12 92.9863 610.359 93.1059 610.748L98.8436 631.547L101.175 647.535C101.234 647.953 100.935 648.312 100.547 648.372L87.3083 650.284C87.2785 650.314 87.2486 650.314 87.1888 650.314Z" fill="#269449"/>
<path d="M1879.09 332.503C1879.15 332.503 1879.24 332.503 1879.3 332.473L1930.77 317.602C1930.95 317.543 1931.13 317.423 1931.22 317.244C1931.31 317.065 1931.34 316.856 1931.28 316.677L1918.74 273.319C1918.68 273.14 1918.56 272.961 1918.38 272.871C1918.2 272.782 1917.99 272.752 1917.82 272.811L1866.34 287.682C1865.95 287.801 1865.71 288.219 1865.83 288.608L1878.37 331.965C1878.46 332.264 1878.76 332.503 1879.09 332.503ZM1929.64 316.348L1879.59 330.801L1867.47 288.876L1917.52 274.424L1929.64 316.348Z" fill="#269449"/>
<path d="M1918.02 274.245C1918.29 274.245 1918.53 274.095 1918.68 273.857L1934.09 245.907C1934.3 245.549 1934.15 245.101 1933.79 244.892C1933.43 244.683 1932.98 244.832 1932.78 245.19L1917.37 273.14C1917.16 273.498 1917.31 273.946 1917.67 274.155C1917.79 274.215 1917.9 274.245 1918.02 274.245Z" fill="#269449"/>
<path d="M1930.57 317.603C1930.83 317.603 1931.07 317.454 1931.22 317.215L1946.63 289.265C1946.72 289.086 1946.75 288.877 1946.69 288.698L1934.15 245.34C1934.03 244.952 1933.61 244.713 1933.22 244.833L1881.74 259.703C1881.56 259.763 1881.39 259.882 1881.3 260.062L1865.89 288.011C1865.68 288.369 1865.83 288.817 1866.19 289.026C1866.54 289.235 1866.99 289.086 1867.2 288.728L1882.46 261.047L1932.92 246.475L1945.17 288.817L1929.91 316.498C1929.7 316.856 1929.85 317.304 1930.21 317.513C1930.33 317.573 1930.45 317.603 1930.57 317.603Z" fill="#269449"/>
<path d="M1930.45 276.544C1930.51 276.544 1930.6 276.544 1930.66 276.514C1931.04 276.395 1931.28 275.977 1931.16 275.589L1926.47 259.315C1926.36 258.926 1925.94 258.687 1925.55 258.807L1874.07 273.677C1873.68 273.797 1873.44 274.215 1873.56 274.603C1873.68 274.991 1874.1 275.23 1874.49 275.111L1925.25 260.449L1929.73 275.977C1929.82 276.335 1930.12 276.544 1930.45 276.544Z" fill="#269449"/>
<path d="M1879.8 314.676C1880.07 314.676 1880.31 314.527 1880.46 314.288L1883.95 307.957L1890.28 311.451C1890.64 311.66 1891.09 311.511 1891.3 311.152C1891.51 310.794 1891.36 310.346 1891 310.137L1884.01 306.285C1883.65 306.076 1883.21 306.225 1883 306.584L1879.15 313.571C1878.94 313.929 1879.09 314.377 1879.44 314.586C1879.53 314.646 1879.68 314.676 1879.8 314.676Z" fill="#269449"/>
<path d="M1888.34 323.933C1888.4 323.933 1888.49 323.933 1888.55 323.903C1888.94 323.783 1889.18 323.365 1889.06 322.977L1884.37 306.703C1884.25 306.315 1883.83 306.076 1883.45 306.196C1883.06 306.315 1882.82 306.733 1882.94 307.121L1887.63 323.395C1887.72 323.724 1888.01 323.933 1888.34 323.933Z" fill="#269449"/>
<path d="M1896.05 309.958C1896.32 309.958 1896.55 309.809 1896.7 309.57L1900.2 303.239L1906.53 306.733C1906.89 306.942 1907.33 306.793 1907.54 306.434C1907.75 306.076 1907.6 305.628 1907.24 305.419L1900.26 301.567C1899.9 301.358 1899.45 301.507 1899.24 301.866L1895.39 308.853C1895.18 309.211 1895.33 309.659 1895.69 309.868C1895.81 309.928 1895.93 309.958 1896.05 309.958Z" fill="#269449"/>
<path d="M1904.62 319.245C1904.68 319.245 1904.77 319.245 1904.83 319.215C1905.21 319.095 1905.45 318.677 1905.33 318.289L1900.65 302.015C1900.53 301.627 1900.11 301.388 1899.72 301.507C1899.33 301.627 1899.09 302.045 1899.21 302.433L1903.9 318.707C1903.99 319.036 1904.29 319.245 1904.62 319.245Z" fill="#269449"/>
<path d="M1882.94 325.515C1883 325.515 1883.09 325.515 1883.15 325.485L1910.26 317.662C1910.65 317.543 1910.89 317.124 1910.77 316.736C1910.65 316.348 1910.23 316.109 1909.84 316.229L1882.73 324.052C1882.34 324.172 1882.1 324.59 1882.22 324.978C1882.31 325.306 1882.61 325.515 1882.94 325.515Z" fill="#269449"/>
<path d="M1917.1 464.307C1917.52 464.307 1917.85 463.978 1917.85 463.56L1918.29 429.758C1918.29 429.549 1918.23 429.37 1918.08 429.221C1917.93 429.072 1917.76 429.012 1917.55 428.982L1871.08 428.355C1870.67 428.355 1870.34 428.683 1870.34 429.101L1869.89 462.903C1869.89 463.112 1869.95 463.292 1870.1 463.441C1870.25 463.59 1870.43 463.65 1870.64 463.68L1917.1 464.307C1917.07 464.307 1917.07 464.307 1917.1 464.307ZM1916.77 430.505L1916.32 462.814L1871.35 462.217L1871.8 429.908L1916.77 430.505Z" fill="#269449"/>
<path d="M1892.94 429.43L1893.21 409.065L1928.83 409.543L1928.86 408.05L1892.49 407.572C1892.08 407.572 1891.75 407.9 1891.75 408.318L1891.45 429.43H1892.94Z" fill="#269449"/>
<path d="M1886.34 429.788C1886.97 428.952 1887.33 427.937 1887.33 426.892L1887.36 425.279C1887.36 424.354 1886.82 423.517 1885.98 423.159C1885.15 422.801 1884.16 422.98 1883.51 423.637L1878.85 428.235C1878.67 428.415 1878.49 428.624 1878.31 428.862L1879.53 429.728C1879.62 429.579 1879.74 429.43 1879.89 429.31L1884.55 424.712C1884.79 424.503 1885.12 424.413 1885.39 424.563C1885.69 424.682 1885.86 424.981 1885.86 425.309L1885.83 426.922C1885.83 427.668 1885.6 428.355 1885.15 428.952L1886.34 429.788Z" fill="#269449"/>
<path d="M1871.05 429.878C1871.23 429.878 1871.44 429.818 1871.56 429.669L1892.97 408.826C1893.27 408.527 1893.27 408.05 1892.97 407.781C1892.67 407.482 1892.22 407.482 1891.93 407.781L1870.52 428.624C1870.22 428.922 1870.22 429.4 1870.52 429.669C1870.67 429.788 1870.87 429.878 1871.05 429.878Z" fill="#269449"/>
<path d="M1917.55 430.505C1917.73 430.505 1917.93 430.445 1918.05 430.296L1936.66 412.2C1936.96 411.902 1936.96 411.424 1936.66 411.155C1936.36 410.857 1935.91 410.857 1935.61 411.155L1917.01 429.251C1916.71 429.549 1916.71 430.027 1917.01 430.296C1917.16 430.415 1917.34 430.505 1917.55 430.505Z" fill="#269449"/>
<path d="M1891.93 408.796L1893 407.781L1879.27 393.627L1878.19 394.672L1891.93 408.796Z" fill="#269449"/>
<path d="M1917.61 464.098L1939.02 443.255C1939.17 443.106 1939.23 442.927 1939.26 442.718L1939.7 408.916C1939.7 408.707 1939.64 408.527 1939.49 408.378L1918.65 386.968C1918.47 386.789 1918.23 386.699 1917.96 386.759C1917.73 386.819 1917.52 386.968 1917.43 387.207L1914.53 394.224C1914.41 394.493 1914.47 394.822 1914.68 395.031L1930.24 411.006C1931.58 412.379 1933.55 413.007 1935.43 412.648C1936.48 412.439 1937.43 411.961 1938.18 411.275L1937.76 442.389L1916.56 463.023L1917.61 464.098ZM1938.06 409.065C1937.46 410.17 1936.39 410.946 1935.13 411.185C1933.73 411.454 1932.3 411.006 1931.28 409.961L1916.08 394.344L1918.38 388.849L1938.06 409.065Z" fill="#269449"/>
<path d="M1868.87 393.34L1915.18 393.76L1915.17 395.253L1868.85 394.833L1868.87 393.34Z" fill="#269449"/>
<path d="M1887.86 412.111C1888.22 412.111 1888.58 412.081 1888.94 412.021C1889.24 411.961 1889.6 411.872 1889.93 411.723L1889.39 410.319C1889.12 410.409 1888.88 410.498 1888.67 410.528C1887.24 410.797 1885.8 410.349 1884.82 409.304L1869.62 393.687L1872.16 387.595L1918.11 388.222L1918.14 386.729L1871.68 386.102C1871.41 386.072 1871.08 386.281 1870.99 386.55L1868.1 393.567C1867.98 393.836 1868.04 394.165 1868.25 394.374L1883.8 410.349C1884.82 411.514 1886.31 412.111 1887.86 412.111Z" fill="#269449"/>
<path d="M1917.1 165.104C1917.52 165.104 1917.85 164.776 1917.85 164.358L1918.29 130.556C1918.29 130.347 1918.23 130.168 1918.08 130.018C1917.93 129.869 1917.76 129.809 1917.55 129.779L1871.08 129.152C1870.67 129.152 1870.34 129.481 1870.34 129.899L1869.89 163.701C1869.89 163.91 1869.95 164.089 1870.1 164.239C1870.25 164.388 1870.43 164.448 1870.64 164.477L1917.1 165.104C1917.07 165.104 1917.07 165.104 1917.1 165.104ZM1916.77 131.302L1916.32 163.611L1871.35 163.014L1871.8 130.705L1916.77 131.302Z" fill="#269449"/>
<path d="M1892.94 130.227L1893.21 109.863L1928.83 110.34L1928.86 108.847L1892.49 108.37C1892.08 108.37 1891.75 108.698 1891.75 109.116L1891.45 130.227H1892.94Z" fill="#269449"/>
<path d="M1886.34 130.586C1886.97 129.75 1887.33 128.734 1887.33 127.689L1887.36 126.077C1887.36 125.151 1886.82 124.315 1885.98 123.957C1885.15 123.598 1884.16 123.778 1883.51 124.434L1878.85 129.033C1878.67 129.212 1878.49 129.421 1878.31 129.66L1879.53 130.526C1879.62 130.377 1879.74 130.227 1879.89 130.108L1884.55 125.509C1884.79 125.3 1885.12 125.211 1885.39 125.36C1885.69 125.48 1885.86 125.778 1885.86 126.107L1885.83 127.719C1885.83 128.466 1885.6 129.152 1885.15 129.75L1886.34 130.586Z" fill="#269449"/>
<path d="M1871.05 130.675C1871.23 130.675 1871.44 130.616 1871.56 130.466L1893 109.624C1893.3 109.325 1893.3 108.847 1893 108.579C1892.7 108.28 1892.25 108.28 1891.96 108.579L1870.55 129.421C1870.25 129.72 1870.25 130.198 1870.55 130.466C1870.67 130.586 1870.87 130.675 1871.05 130.675Z" fill="#269449"/>
<path d="M1917.55 131.302C1917.73 131.302 1917.93 131.243 1918.05 131.093L1936.66 112.998C1936.96 112.699 1936.96 112.222 1936.66 111.953C1936.36 111.654 1935.91 111.654 1935.61 111.953L1917.01 130.048C1916.71 130.347 1916.71 130.825 1917.01 131.093C1917.16 131.213 1917.34 131.302 1917.55 131.302Z" fill="#269449"/>
<path d="M1891.93 109.594L1893 108.579L1879.27 94.4246L1878.19 95.4697L1891.93 109.594Z" fill="#269449"/>
<path d="M1917.61 164.895L1939.02 144.053C1939.17 143.904 1939.23 143.724 1939.26 143.515L1939.7 109.713C1939.7 109.504 1939.64 109.325 1939.49 109.176L1918.65 87.7658C1918.47 87.5866 1918.23 87.497 1917.96 87.5568C1917.73 87.6165 1917.52 87.7658 1917.43 88.0047L1914.53 95.0219C1914.41 95.2906 1914.47 95.6191 1914.68 95.8281L1930.24 111.803C1931.58 113.177 1933.55 113.804 1935.43 113.446C1936.48 113.237 1937.43 112.759 1938.18 112.072L1937.76 143.187L1916.56 163.821L1917.61 164.895ZM1938.06 109.863C1937.46 110.967 1936.39 111.744 1935.13 111.983C1933.73 112.251 1932.3 111.803 1931.28 110.758L1916.08 95.1413L1918.38 89.647L1938.06 109.863Z" fill="#269449"/>
<path d="M1868.87 94.1255L1915.18 94.5451L1915.17 96.0381L1868.85 95.6185L1868.87 94.1255Z" fill="#269449"/>
<path d="M1887.87 112.908C1888.22 112.908 1888.58 112.878 1888.94 112.819C1889.24 112.759 1889.6 112.669 1889.93 112.52L1889.39 111.117C1889.12 111.206 1888.88 111.296 1888.67 111.326C1887.24 111.594 1885.8 111.147 1884.82 110.101L1869.62 94.4844L1872.13 88.4227L1918.08 89.0498L1918.11 87.5568L1871.65 86.9297C1871.38 86.9595 1871.05 87.1089 1870.96 87.3776L1868.07 94.3948C1867.95 94.6636 1868.01 94.992 1868.22 95.2011L1883.77 111.176C1884.82 112.311 1886.31 112.908 1887.87 112.908Z" fill="#269449"/>
<path d="M1805.45 247.012C1805.48 247.012 1805.51 247.012 1805.54 247.012L1854.03 241.816C1854.24 241.786 1854.42 241.697 1854.54 241.547C1854.66 241.398 1854.72 241.189 1854.69 241.01L1850.33 200.161C1850.3 199.743 1849.94 199.444 1849.49 199.504L1801 204.7C1800.79 204.729 1800.61 204.819 1800.49 204.968C1800.37 205.118 1800.31 205.327 1800.34 205.506L1804.7 246.355C1804.73 246.713 1805.06 247.012 1805.45 247.012ZM1853.14 240.413L1806.11 245.429L1801.9 206.073L1848.93 201.057L1853.14 240.413Z" fill="#269449"/>
<path d="M1849.58 200.997C1849.79 200.997 1850.03 200.907 1850.18 200.728L1868.43 178.124C1868.69 177.795 1868.63 177.317 1868.31 177.079C1867.98 176.81 1867.53 176.87 1867.26 177.198L1849.02 199.802C1848.75 200.131 1848.81 200.609 1849.14 200.848C1849.26 200.937 1849.43 200.997 1849.58 200.997Z" fill="#269449"/>
<path d="M1853.94 241.816C1854.15 241.816 1854.39 241.727 1854.54 241.547L1872.79 218.943C1872.9 218.794 1872.96 218.585 1872.93 218.406L1868.58 177.556C1868.55 177.138 1868.16 176.84 1867.74 176.899L1819.25 182.095C1819.04 182.125 1818.86 182.215 1818.74 182.364L1800.49 204.968C1800.22 205.297 1800.28 205.775 1800.61 206.013C1800.94 206.282 1801.42 206.222 1801.66 205.894L1819.69 183.528L1867.14 178.452L1871.38 218.256L1853.35 240.622C1853.08 240.95 1853.14 241.428 1853.47 241.667C1853.62 241.786 1853.79 241.816 1853.94 241.816Z" fill="#269449"/>
<path d="M1820.59 219.57C1820.62 219.57 1820.65 219.57 1820.68 219.57L1833.43 218.197C1833.85 218.167 1834.15 217.778 1834.09 217.36L1832.44 202.042C1832.41 201.624 1832.03 201.325 1831.61 201.385C1831.19 201.415 1830.89 201.803 1830.95 202.221L1832.5 216.793L1821.22 217.987L1819.66 203.416C1819.63 202.998 1819.25 202.699 1818.83 202.759C1818.41 202.788 1818.11 203.177 1818.17 203.595L1819.81 218.913C1819.9 219.301 1820.2 219.57 1820.59 219.57Z" fill="#269449"/>
<path d="M1818.95 204.252C1819.16 204.252 1819.39 204.162 1819.54 203.983L1837.79 181.378C1838.06 181.05 1838 180.572 1837.67 180.333C1837.34 180.065 1836.89 180.124 1836.62 180.453L1818.38 203.057C1818.11 203.386 1818.17 203.863 1818.5 204.102C1818.62 204.192 1818.8 204.252 1818.95 204.252Z" fill="#269449"/>
<path d="M1831.73 202.908C1831.94 202.908 1832.17 202.818 1832.32 202.639L1850.57 180.035C1850.84 179.706 1850.78 179.229 1850.45 178.99C1850.12 178.721 1849.67 178.781 1849.4 179.109L1831.16 201.713C1830.89 202.042 1830.95 202.52 1831.28 202.759C1831.4 202.848 1831.55 202.908 1831.73 202.908Z" fill="#269449"/>
<path d="M1746.74 321.245C1747.07 321.245 1747.37 321.036 1747.46 320.708L1759.23 280.157C1759.35 279.769 1759.11 279.351 1758.72 279.231L1718.17 267.466C1717.78 267.347 1717.36 267.586 1717.24 267.974C1717.12 268.362 1717.36 268.78 1717.75 268.9L1757.58 280.456L1746.24 319.573L1707.12 308.226L1715.06 280.874C1715.18 280.486 1714.94 280.068 1714.56 279.948C1714.17 279.829 1713.75 280.068 1713.63 280.456L1705.48 308.525C1705.42 308.704 1705.45 308.913 1705.54 309.092C1705.63 309.271 1705.81 309.391 1705.99 309.45L1746.54 321.215C1746.6 321.245 1746.69 321.245 1746.74 321.245Z" fill="#269449"/>
<path d="M1746.74 321.245C1746.86 321.245 1746.98 321.215 1747.1 321.156L1771.26 307.868C1771.44 307.778 1771.56 307.599 1771.62 307.42L1776.16 291.833C1776.28 291.444 1776.04 291.026 1775.65 290.907C1775.26 290.787 1774.84 291.026 1774.72 291.414L1770.27 306.703L1746.39 319.842C1746.03 320.051 1745.88 320.499 1746.09 320.857C1746.24 321.096 1746.48 321.245 1746.74 321.245Z" fill="#269449"/>
<path d="M1782.67 267.407C1782.99 267.407 1783.29 267.198 1783.38 266.869C1783.5 266.481 1783.26 266.063 1782.88 265.943L1742.32 254.178C1741.94 254.059 1741.52 254.298 1741.4 254.686C1741.28 255.074 1741.52 255.492 1741.91 255.612L1782.46 267.377C1782.52 267.407 1782.61 267.407 1782.67 267.407Z" fill="#269449"/>
<path d="M1742.41 289.533C1742.53 289.533 1742.65 289.503 1742.77 289.444L1799.12 258.449C1799.39 258.299 1799.54 258.001 1799.51 257.702C1799.48 257.403 1799.27 257.164 1798.97 257.075L1758.42 245.31C1758.24 245.25 1758.03 245.28 1757.85 245.37L1701.51 276.365C1701.24 276.514 1701.09 276.813 1701.12 277.111C1701.15 277.41 1701.36 277.649 1701.66 277.738L1742.21 289.503C1742.27 289.533 1742.35 289.533 1742.41 289.533ZM1796.82 258.001L1742.33 287.981L1703.81 276.783L1758.3 246.803L1796.82 258.001Z" fill="#269449"/>
<path d="M1736.68 274.334C1737.01 274.334 1737.31 274.125 1737.4 273.797L1742.83 255.074C1742.89 254.895 1742.86 254.686 1742.77 254.507L1733.9 238.412C1733.81 238.233 1733.64 238.113 1733.46 238.054C1733.28 237.994 1733.07 238.024 1732.89 238.113L1708.73 251.401C1708.55 251.491 1708.43 251.67 1708.37 251.849C1708.31 252.028 1708.34 252.237 1708.43 252.417L1717.3 268.511C1717.51 268.87 1717.96 268.989 1718.32 268.81C1718.68 268.601 1718.82 268.153 1718.62 267.795L1710.11 252.357L1732.95 239.786L1741.31 254.955L1735.96 273.379C1735.85 273.767 1736.08 274.185 1736.47 274.304C1736.53 274.334 1736.62 274.334 1736.68 274.334Z" fill="#269449"/>
<path d="M1767.38 296.789C1767.5 296.789 1767.62 296.76 1767.74 296.7L1791.89 283.412C1792.25 283.203 1792.4 282.755 1792.19 282.397L1783.32 266.302C1783.11 265.943 1782.67 265.794 1782.31 266.003C1781.95 266.212 1781.8 266.66 1782.01 267.018L1790.52 282.456L1767.68 295.028L1759.17 279.59C1758.96 279.231 1758.51 279.082 1758.15 279.291C1757.79 279.5 1757.64 279.948 1757.85 280.306L1766.72 296.401C1766.81 296.58 1766.99 296.7 1767.17 296.76C1767.23 296.789 1767.32 296.789 1767.38 296.789Z" fill="#269449"/>
<path d="M1854.51 380.727C1854.66 380.727 1854.84 380.668 1854.96 380.578C1855.11 380.459 1855.23 380.279 1855.26 380.1L1861.41 337.728C1861.47 337.31 1861.17 336.952 1860.78 336.892L1797.24 327.665C1797.06 327.635 1796.85 327.695 1796.67 327.814C1796.52 327.934 1796.4 328.113 1796.37 328.292L1790.22 370.664C1790.16 371.082 1790.46 371.441 1790.85 371.5L1854.39 380.727C1854.45 380.727 1854.48 380.727 1854.51 380.727ZM1859.83 338.266L1853.88 379.145L1791.8 370.127L1797.75 329.248L1859.83 338.266Z" fill="#269449"/>
<path d="M1860.66 338.385C1860.75 338.385 1860.84 338.355 1860.93 338.325C1861.32 338.176 1861.5 337.758 1861.35 337.37L1852.51 314.467C1852.42 314.228 1852.18 314.049 1851.91 313.989L1812.2 308.226C1811.93 308.196 1811.66 308.286 1811.51 308.495L1796.52 327.934C1796.28 328.262 1796.34 328.74 1796.67 328.979C1797 329.248 1797.48 329.158 1797.72 328.83L1812.44 309.719L1851.29 315.393L1859.98 337.907C1860.09 338.176 1860.36 338.385 1860.66 338.385Z" fill="#269449"/>
<path d="M1833.22 350.598C1833.37 350.598 1833.55 350.538 1833.67 350.449C1833.82 350.329 1833.94 350.15 1833.97 349.971L1836.27 334.085L1836.71 312.436C1836.71 312.018 1836.39 311.69 1835.97 311.66C1835.55 311.66 1835.22 311.988 1835.19 312.406L1834.77 333.966L1832.59 349.015L1820.83 347.313L1823.04 332.174L1828.74 311.481C1828.86 311.093 1828.62 310.675 1828.23 310.555C1827.85 310.436 1827.43 310.675 1827.31 311.063L1821.58 331.846L1819.25 347.821C1819.19 348.239 1819.48 348.597 1819.87 348.657L1833.1 350.568C1833.13 350.598 1833.16 350.598 1833.22 350.598Z" fill="#269449"/>
<path d="M1777.77 429.967C1777.89 429.967 1778.01 429.937 1778.13 429.878L1805.84 414.5C1806.11 414.35 1806.26 414.052 1806.23 413.753C1806.2 413.454 1805.99 413.216 1805.69 413.126L1769.23 402.675C1769.05 402.615 1768.84 402.645 1768.66 402.734L1740.95 418.113C1740.59 418.322 1740.47 418.77 1740.65 419.128C1740.86 419.486 1741.31 419.606 1741.67 419.427L1769.11 404.198L1803.54 414.052L1777.41 428.534C1777.05 428.743 1776.93 429.191 1777.11 429.549C1777.26 429.848 1777.5 429.967 1777.77 429.967Z" fill="#269449"/>
<path d="M1766.84 468.099C1766.96 468.099 1767.08 468.069 1767.2 468.01C1767.38 467.92 1767.5 467.741 1767.56 467.562L1778.49 429.43C1778.61 429.042 1778.37 428.624 1777.98 428.504L1741.52 418.053L1741.1 419.486L1776.84 429.728L1766.33 466.397L1731.31 456.364L1738.71 430.565L1737.28 430.146L1729.66 456.663C1729.61 456.842 1729.63 457.051 1729.72 457.23C1729.81 457.409 1729.99 457.529 1730.17 457.588L1766.63 468.039C1766.72 468.069 1766.78 468.099 1766.84 468.099Z" fill="#269449"/>
<path d="M1762.84 438.239C1762.96 438.239 1763.08 438.209 1763.2 438.149L1777.86 430.027L1792.49 434.208C1792.67 434.267 1792.88 434.237 1793.06 434.148L1820.77 418.77C1821.04 418.62 1821.19 418.322 1821.16 418.023C1821.13 417.725 1820.92 417.486 1820.62 417.396L1807.45 413.634L1818.68 407.423C1818.95 407.273 1819.1 406.975 1819.07 406.676C1819.04 406.378 1818.83 406.139 1818.53 406.049L1782.07 395.598C1781.89 395.538 1781.68 395.568 1781.5 395.658L1768.99 402.615L1752.72 397.957C1752.54 397.897 1752.33 397.927 1752.15 398.017L1724.44 413.395C1724.17 413.544 1724.02 413.843 1724.05 414.141C1724.08 414.44 1724.29 414.679 1724.59 414.768L1739.43 419.008L1726.08 426.414C1725.81 426.563 1725.66 426.862 1725.69 427.16C1725.72 427.459 1725.93 427.698 1726.23 427.787L1762.69 438.239C1762.72 438.239 1762.78 438.239 1762.84 438.239ZM1777.77 428.474C1777.65 428.474 1777.53 428.504 1777.41 428.564L1762.75 436.686L1728.32 426.832L1741.67 419.427C1741.94 419.277 1742.09 418.979 1742.06 418.68C1742.03 418.381 1741.82 418.143 1741.52 418.053L1726.68 413.813L1752.54 399.48L1768.81 404.138C1768.99 404.198 1769.2 404.168 1769.38 404.078L1781.89 397.121L1816.32 406.975L1805.09 413.186C1804.82 413.335 1804.67 413.634 1804.7 413.932C1804.73 414.231 1804.94 414.47 1805.24 414.559L1818.41 418.322L1792.55 432.655L1777.92 428.474C1777.92 428.474 1777.83 428.474 1777.77 428.474Z" fill="#269449"/>
<path d="M1767.2 468.01L1794.91 452.631C1795.09 452.542 1795.21 452.363 1795.27 452.184L1801.93 428.982L1800.49 428.564L1793.92 451.467L1766.48 466.696L1767.2 468.01Z" fill="#269449"/>
<path d="M1768.32 403.218L1769.76 403.629L1763.58 425.187L1762.14 424.776L1768.32 403.218Z" fill="#269449"/>
<path d="M1700.31 364.633C1700.46 364.633 1700.61 364.573 1700.73 364.513L1728.32 345.492C1728.56 345.313 1728.68 345.014 1728.62 344.716C1728.56 344.417 1728.32 344.178 1728.02 344.148L1686.58 336.534C1686.37 336.504 1686.19 336.534 1686.01 336.653L1658.42 355.674C1658.18 355.854 1658.06 356.152 1658.12 356.451C1658.18 356.749 1658.42 356.988 1658.72 357.018L1700.16 364.633C1700.22 364.633 1700.25 364.633 1700.31 364.633ZM1725.99 345.283L1700.13 363.11L1660.78 355.883L1686.64 338.057L1725.99 345.283Z" fill="#269449"/>
<path d="M1698.4 374.994C1698.55 374.994 1698.7 374.934 1698.82 374.875L1726.41 355.854C1726.56 355.734 1726.68 355.555 1726.71 355.376L1728.62 345.014L1727.16 344.745L1725.3 354.808L1698.22 373.471L1657.82 366.036L1659.58 356.421L1658.12 356.152L1656.21 366.514C1656.12 366.932 1656.39 367.32 1656.8 367.38L1698.25 374.994C1698.31 374.994 1698.34 374.994 1698.4 374.994Z" fill="#269449"/>
<path d="M1699.59 363.728L1701.06 363.998L1699.15 374.365L1697.68 374.095L1699.59 363.728Z" fill="#269449"/>
<path d="M1695.74 403.959C1695.89 403.959 1696.04 403.899 1696.16 403.839C1696.31 403.72 1696.43 403.541 1696.46 403.362L1702.16 372.277L1700.7 372.008L1695.12 402.346L1655.16 395.001L1660.24 367.35L1658.78 367.081L1653.55 395.478C1653.52 395.688 1653.55 395.867 1653.67 396.046C1653.79 396.195 1653.97 396.315 1654.15 396.344L1695.59 403.959C1695.65 403.959 1695.71 403.959 1695.74 403.959Z" fill="#269449"/>
<path d="M1696.16 403.839L1717.63 389.058C1717.78 388.939 1717.9 388.76 1717.93 388.581L1723.6 357.645L1722.14 357.376L1716.53 387.983L1695.32 402.615L1696.16 403.839Z" fill="#269449"/>
<path d="M1777.77 130.765C1777.89 130.765 1778.01 130.735 1778.13 130.675L1805.84 115.297C1806.11 115.148 1806.26 114.849 1806.23 114.551C1806.2 114.252 1805.99 114.013 1805.69 113.924L1769.23 103.472C1769.05 103.413 1768.84 103.443 1768.66 103.532L1740.95 118.91C1740.59 119.119 1740.47 119.567 1740.65 119.926C1740.86 120.284 1741.31 120.403 1741.67 120.224L1769.11 104.995L1803.54 114.849L1777.41 129.332C1777.05 129.541 1776.93 129.989 1777.11 130.347C1777.26 130.645 1777.5 130.765 1777.77 130.765Z" fill="#269449"/>
<path d="M1766.84 168.897C1766.96 168.897 1767.08 168.867 1767.2 168.807C1767.38 168.718 1767.5 168.538 1767.56 168.359L1778.49 130.227C1778.61 129.839 1778.37 129.421 1777.98 129.302L1741.52 118.851L1741.1 120.284L1776.84 130.526L1766.33 167.195L1731.31 157.162L1738.71 131.362L1737.28 130.944L1729.66 157.46C1729.61 157.639 1729.63 157.848 1729.72 158.028C1729.81 158.207 1729.99 158.326 1730.17 158.386L1766.63 168.837C1766.72 168.867 1766.78 168.897 1766.84 168.897Z" fill="#269449"/>
<path d="M1762.84 139.036C1762.96 139.036 1763.08 139.006 1763.2 138.947L1777.86 130.825L1792.49 135.005C1792.67 135.065 1792.88 135.035 1793.06 134.945L1820.77 119.567C1821.04 119.418 1821.19 119.119 1821.16 118.821C1821.13 118.522 1820.92 118.283 1820.62 118.194L1807.45 114.431L1818.68 108.22C1818.95 108.071 1819.1 107.772 1819.07 107.474C1819.04 107.175 1818.83 106.936 1818.53 106.847L1782.07 96.3955C1781.89 96.3358 1781.68 96.3657 1781.5 96.4552L1768.99 103.413L1752.72 98.7545C1752.54 98.6948 1752.33 98.7246 1752.15 98.8142L1724.44 114.192C1724.17 114.342 1724.02 114.64 1724.05 114.939C1724.08 115.237 1724.29 115.476 1724.59 115.566L1739.43 119.806L1726.08 127.212C1725.81 127.361 1725.66 127.659 1725.69 127.958C1725.72 128.257 1725.93 128.496 1726.23 128.585L1762.69 139.036C1762.72 139.036 1762.78 139.036 1762.84 139.036ZM1777.77 129.272C1777.65 129.272 1777.53 129.302 1777.41 129.362L1762.75 137.484L1728.32 127.63L1741.67 120.224C1741.94 120.075 1742.09 119.776 1742.06 119.478C1742.03 119.179 1741.82 118.94 1741.52 118.851L1726.68 114.61L1752.54 100.277L1768.81 104.936C1768.99 104.995 1769.2 104.965 1769.38 104.876L1781.89 97.9184L1816.32 107.772L1805.09 113.983C1804.82 114.133 1804.67 114.431 1804.7 114.73C1804.73 115.028 1804.94 115.267 1805.24 115.357L1818.41 119.119L1792.55 133.452L1777.92 129.272C1777.92 129.272 1777.83 129.272 1777.77 129.272Z" fill="#269449"/>
<path d="M1767.2 168.807L1794.91 153.429C1795.09 153.34 1795.21 153.16 1795.27 152.981L1801.93 129.78L1800.49 129.362L1793.92 152.265L1766.48 167.493L1767.2 168.807Z" fill="#269449"/>
<path d="M1768.31 104.013L1769.75 104.425L1763.57 125.982L1762.13 125.571L1768.31 104.013Z" fill="#269449"/>
<path d="M1879.09 631.705C1879.15 631.705 1879.24 631.705 1879.3 631.675L1930.77 616.805C1930.95 616.745 1931.13 616.625 1931.22 616.446C1931.31 616.267 1931.34 616.058 1931.28 615.879L1918.74 572.521C1918.68 572.342 1918.56 572.163 1918.38 572.073C1918.2 571.984 1917.99 571.954 1917.82 572.014L1866.34 586.884C1865.95 587.004 1865.71 587.422 1865.83 587.81L1878.37 631.167C1878.46 631.466 1878.76 631.705 1879.09 631.705ZM1929.64 615.55L1879.59 630.003L1867.47 588.079L1917.52 573.626L1929.64 615.55Z" fill="#269449"/>
<path d="M1918.02 573.447C1918.29 573.447 1918.53 573.298 1918.68 573.059L1934.09 545.109C1934.3 544.751 1934.15 544.303 1933.79 544.094C1933.43 543.885 1932.98 544.035 1932.78 544.393L1917.37 572.342C1917.16 572.701 1917.31 573.149 1917.67 573.358C1917.79 573.417 1917.9 573.447 1918.02 573.447Z" fill="#269449"/>
<path d="M1930.57 616.805C1930.83 616.805 1931.07 616.656 1931.22 616.417L1946.63 588.468C1946.72 588.288 1946.75 588.079 1946.69 587.9L1934.15 544.543C1934.03 544.155 1933.61 543.916 1933.22 544.035L1881.74 558.906C1881.56 558.965 1881.39 559.085 1881.3 559.264L1865.89 587.213C1865.68 587.572 1865.83 588.02 1866.19 588.229C1866.54 588.438 1866.99 588.288 1867.2 587.93L1882.46 560.249L1932.92 545.677L1945.17 588.02L1929.91 615.7C1929.7 616.059 1929.85 616.507 1930.21 616.716C1930.33 616.775 1930.45 616.805 1930.57 616.805Z" fill="#269449"/>
<path d="M1930.45 575.746C1930.51 575.746 1930.6 575.746 1930.66 575.717C1931.04 575.597 1931.28 575.179 1931.16 574.791L1926.47 558.517C1926.36 558.129 1925.94 557.89 1925.55 558.009L1874.07 572.88C1873.68 572.999 1873.44 573.417 1873.56 573.805C1873.68 574.194 1874.1 574.432 1874.49 574.313L1925.25 559.652L1929.73 575.179C1929.82 575.537 1930.12 575.746 1930.45 575.746Z" fill="#269449"/>
<path d="M1879.8 613.878C1880.07 613.878 1880.31 613.729 1880.46 613.49L1883.95 607.16L1890.28 610.653C1890.64 610.862 1891.09 610.713 1891.3 610.355C1891.51 609.996 1891.36 609.548 1891 609.339L1884.01 605.487C1883.65 605.278 1883.21 605.428 1883 605.786L1879.15 612.773C1878.94 613.132 1879.09 613.58 1879.44 613.789C1879.53 613.848 1879.68 613.878 1879.8 613.878Z" fill="#269449"/>
<path d="M1888.34 623.135C1888.4 623.135 1888.49 623.135 1888.55 623.105C1888.94 622.986 1889.18 622.568 1889.06 622.179L1884.37 605.905C1884.25 605.517 1883.83 605.278 1883.45 605.398C1883.06 605.517 1882.82 605.935 1882.94 606.324L1887.63 622.598C1887.72 622.926 1888.01 623.135 1888.34 623.135Z" fill="#269449"/>
<path d="M1896.05 609.16C1896.32 609.16 1896.55 609.011 1896.7 608.772L1900.2 602.442L1906.53 605.935C1906.89 606.144 1907.33 605.995 1907.54 605.637C1907.75 605.278 1907.6 604.83 1907.24 604.621L1900.26 600.769C1899.9 600.56 1899.45 600.71 1899.24 601.068L1895.39 608.055C1895.18 608.414 1895.33 608.862 1895.69 609.071C1895.81 609.13 1895.93 609.16 1896.05 609.16Z" fill="#269449"/>
<path d="M1904.62 618.447C1904.68 618.447 1904.77 618.447 1904.83 618.417C1905.21 618.298 1905.45 617.88 1905.33 617.491L1900.65 601.217C1900.53 600.829 1900.11 600.59 1899.72 600.71C1899.33 600.829 1899.09 601.247 1899.21 601.635L1903.9 617.909C1903.99 618.238 1904.29 618.447 1904.62 618.447Z" fill="#269449"/>
<path d="M1882.94 624.718C1883 624.718 1883.09 624.718 1883.15 624.688L1910.26 616.864C1910.65 616.745 1910.89 616.327 1910.77 615.939C1910.65 615.55 1910.23 615.312 1909.84 615.431L1882.73 623.254C1882.34 623.374 1882.1 623.792 1882.22 624.18C1882.31 624.509 1882.61 624.718 1882.94 624.718Z" fill="#269449"/>
<path d="M1805.45 546.214C1805.48 546.214 1805.51 546.214 1805.54 546.214L1854.03 541.018C1854.24 540.989 1854.42 540.899 1854.54 540.75C1854.66 540.6 1854.72 540.391 1854.69 540.212L1850.33 499.363C1850.3 498.945 1849.94 498.646 1849.49 498.706L1801 503.902C1800.79 503.932 1800.61 504.021 1800.49 504.171C1800.37 504.32 1800.31 504.529 1800.34 504.708L1804.7 545.557C1804.73 545.945 1805.06 546.214 1805.45 546.214ZM1853.14 539.615L1806.11 544.632L1801.9 505.275L1848.93 500.259L1853.14 539.615Z" fill="#269449"/>
<path d="M1849.58 500.199C1849.79 500.199 1850.03 500.11 1850.18 499.93L1868.43 477.326C1868.69 476.998 1868.63 476.52 1868.31 476.281C1867.98 476.012 1867.53 476.072 1867.26 476.4L1849.02 499.005C1848.75 499.333 1848.81 499.811 1849.14 500.05C1849.26 500.139 1849.43 500.199 1849.58 500.199Z" fill="#269449"/>
<path d="M1853.94 541.018C1854.15 541.018 1854.39 540.929 1854.54 540.75L1872.79 518.145C1872.9 517.996 1872.96 517.787 1872.93 517.608L1868.58 476.759C1868.55 476.341 1868.16 476.042 1867.74 476.102L1819.25 481.297C1819.04 481.327 1818.86 481.417 1818.74 481.566L1800.49 504.171C1800.22 504.499 1800.28 504.977 1800.61 505.216C1800.94 505.485 1801.42 505.425 1801.66 505.096L1819.69 482.731L1867.14 477.654L1871.38 517.459L1853.35 539.824C1853.08 540.153 1853.14 540.63 1853.47 540.869C1853.62 540.989 1853.79 541.018 1853.94 541.018Z" fill="#269449"/>
<path d="M1820.59 518.772C1820.62 518.772 1820.65 518.772 1820.68 518.772L1833.43 517.399C1833.85 517.369 1834.15 516.981 1834.09 516.563L1832.44 501.244C1832.41 500.826 1832.03 500.528 1831.61 500.587C1831.19 500.617 1830.89 501.005 1830.95 501.423L1832.5 515.995L1821.22 517.19L1819.66 502.618C1819.63 502.2 1819.25 501.901 1818.83 501.961C1818.41 501.991 1818.11 502.379 1818.17 502.797L1819.81 518.115C1819.9 518.504 1820.2 518.772 1820.59 518.772Z" fill="#269449"/>
<path d="M1818.95 503.454C1819.16 503.454 1819.39 503.364 1819.54 503.185L1837.79 480.581C1838.06 480.252 1838 479.775 1837.67 479.536C1837.34 479.267 1836.89 479.327 1836.62 479.655L1818.38 502.26C1818.11 502.588 1818.17 503.066 1818.5 503.305C1818.62 503.394 1818.8 503.454 1818.95 503.454Z" fill="#269449"/>
<path d="M1831.73 502.11C1831.94 502.11 1832.17 502.021 1832.32 501.842L1850.57 479.237C1850.84 478.909 1850.78 478.431 1850.45 478.192C1850.12 477.923 1849.67 477.983 1849.4 478.311L1831.16 500.916C1830.89 501.244 1830.95 501.722 1831.28 501.961C1831.4 502.051 1831.55 502.11 1831.73 502.11Z" fill="#269449"/>
<path d="M1691.02 537.286C1691.38 537.286 1691.68 537.017 1691.77 536.659L1699.24 495.033C1699.27 494.824 1699.24 494.645 1699.12 494.466C1699 494.317 1698.82 494.197 1698.64 494.167L1649.22 485.329C1648.83 485.269 1648.41 485.538 1648.35 485.926L1640.89 527.551C1640.83 527.969 1641.1 528.358 1641.49 528.417L1690.9 537.286C1690.93 537.286 1690.96 537.286 1691.02 537.286ZM1697.59 495.511L1690.4 535.674L1642.44 527.074L1649.64 486.911L1697.59 495.511Z" fill="#269449"/>
<path d="M1698.46 495.66C1698.61 495.66 1698.76 495.631 1698.88 495.541L1723.42 478.461C1723.75 478.222 1723.84 477.744 1723.6 477.416C1723.36 477.087 1722.92 476.998 1722.56 477.236L1698.01 494.317C1697.68 494.556 1697.59 495.033 1697.83 495.362C1698.01 495.541 1698.22 495.66 1698.46 495.66Z" fill="#269449"/>
<path d="M1691.02 537.286C1691.17 537.286 1691.32 537.256 1691.44 537.137L1715.99 520.056C1716.14 519.937 1716.26 519.758 1716.29 519.579L1723.75 477.953C1723.81 477.535 1723.54 477.147 1723.15 477.087L1673.74 468.219C1673.53 468.189 1673.35 468.219 1673.17 468.338L1648.62 485.418C1648.29 485.657 1648.2 486.135 1648.44 486.463C1648.68 486.792 1649.13 486.881 1649.49 486.643L1673.76 469.742L1722.14 478.401L1714.88 518.982L1690.61 535.883C1690.28 536.121 1690.19 536.599 1690.43 536.928C1690.55 537.167 1690.79 537.286 1691.02 537.286Z" fill="#269449"/>
<path d="M1704.82 505.305C1705 505.305 1705.15 505.246 1705.3 505.156L1712.17 499.662C1712.31 499.542 1712.4 499.393 1712.43 499.214L1715.24 483.597C1715.3 483.179 1715.03 482.791 1714.64 482.731L1665.22 473.892C1664.84 473.832 1664.42 474.101 1664.36 474.489C1664.3 474.907 1664.57 475.296 1664.96 475.355L1713.66 484.075L1711.03 498.676L1705.92 502.767L1708.37 489.121C1708.43 488.703 1708.16 488.315 1707.78 488.255L1658.36 479.416C1657.97 479.357 1657.55 479.625 1657.49 480.014C1657.43 480.432 1657.7 480.82 1658.09 480.879L1706.79 489.599L1704.13 504.469C1704.07 504.768 1704.22 505.096 1704.49 505.246C1704.55 505.275 1704.67 505.305 1704.82 505.305Z" fill="#269449"/>
<path d="M1746.74 620.448C1747.07 620.448 1747.37 620.239 1747.46 619.91L1759.23 579.359C1759.35 578.971 1759.11 578.553 1758.72 578.434L1718.17 566.669C1717.78 566.549 1717.36 566.788 1717.24 567.176C1717.12 567.565 1717.36 567.983 1717.75 568.102L1757.58 579.658L1746.24 618.775L1707.12 607.428L1715.06 580.076C1715.18 579.688 1714.94 579.27 1714.56 579.15C1714.17 579.031 1713.75 579.27 1713.63 579.658L1705.48 607.727C1705.42 607.906 1705.45 608.115 1705.54 608.294C1705.63 608.473 1705.81 608.593 1705.99 608.653L1746.54 620.418C1746.6 620.448 1746.69 620.448 1746.74 620.448Z" fill="#269449"/>
<path d="M1746.74 620.448C1746.86 620.448 1746.98 620.418 1747.1 620.358L1771.26 607.07C1771.44 606.98 1771.56 606.801 1771.62 606.622L1776.16 591.035C1776.28 590.647 1776.04 590.229 1775.65 590.109C1775.26 589.99 1774.84 590.229 1774.72 590.617L1770.27 605.905L1746.39 619.044C1746.03 619.253 1745.88 619.701 1746.09 620.059C1746.24 620.298 1746.48 620.448 1746.74 620.448Z" fill="#269449"/>
<path d="M1782.67 566.609C1782.99 566.609 1783.29 566.4 1783.38 566.072C1783.5 565.683 1783.26 565.265 1782.88 565.146L1742.32 553.381C1741.94 553.261 1741.52 553.5 1741.4 553.888C1741.28 554.277 1741.52 554.695 1741.91 554.814L1782.46 566.579C1782.52 566.609 1782.61 566.609 1782.67 566.609Z" fill="#269449"/>
<path d="M1742.41 588.736C1742.53 588.736 1742.65 588.706 1742.77 588.646L1799.12 557.651C1799.39 557.502 1799.54 557.203 1799.51 556.904C1799.48 556.606 1799.27 556.367 1798.97 556.277L1758.42 544.512C1758.24 544.453 1758.03 544.482 1757.85 544.572L1701.51 575.567C1701.24 575.716 1701.09 576.015 1701.12 576.314C1701.15 576.612 1701.36 576.851 1701.66 576.941L1742.21 588.706C1742.27 588.736 1742.35 588.736 1742.41 588.736ZM1796.82 557.203L1742.33 587.183L1703.81 575.985L1758.3 546.005L1796.82 557.203Z" fill="#269449"/>
<path d="M1736.68 573.537C1737.01 573.537 1737.31 573.328 1737.4 572.999L1742.83 554.277C1742.89 554.097 1742.86 553.888 1742.77 553.709L1733.9 537.615C1733.81 537.435 1733.64 537.316 1733.46 537.256C1733.28 537.196 1733.07 537.226 1732.89 537.316L1708.73 550.604C1708.55 550.693 1708.43 550.873 1708.37 551.052C1708.31 551.231 1708.34 551.44 1708.43 551.619L1717.3 567.714C1717.51 568.072 1717.96 568.192 1718.32 568.012C1718.68 567.803 1718.82 567.356 1718.62 566.997L1710.11 551.559L1732.95 538.988L1741.31 554.157L1735.96 572.581C1735.85 572.969 1736.08 573.387 1736.47 573.507C1736.53 573.537 1736.62 573.537 1736.68 573.537Z" fill="#269449"/>
<path d="M1767.38 595.992C1767.5 595.992 1767.62 595.962 1767.74 595.902L1791.89 582.614C1792.25 582.405 1792.4 581.957 1792.19 581.599L1783.32 565.504C1783.11 565.146 1782.67 564.997 1782.31 565.206C1781.95 565.415 1781.8 565.863 1782.01 566.221L1790.52 581.659L1767.68 594.23L1759.17 578.792C1758.96 578.434 1758.51 578.284 1758.15 578.494C1757.79 578.703 1757.64 579.15 1757.85 579.509L1766.72 595.604C1766.81 595.783 1766.99 595.902 1767.17 595.962C1767.23 595.992 1767.32 595.992 1767.38 595.992Z" fill="#269449"/>
<path d="M1854.51 679.93C1854.66 679.93 1854.84 679.87 1854.96 679.78C1855.11 679.661 1855.23 679.482 1855.26 679.303L1861.41 636.931C1861.47 636.513 1861.17 636.154 1860.78 636.094L1797.24 626.868C1797.06 626.838 1796.85 626.897 1796.67 627.017C1796.52 627.136 1796.4 627.315 1796.37 627.495L1790.22 669.867C1790.16 670.285 1790.46 670.643 1790.85 670.703L1854.39 679.93C1854.45 679.93 1854.48 679.93 1854.51 679.93ZM1859.83 637.468L1853.88 678.347L1791.8 669.329L1797.75 628.45L1859.83 637.468Z" fill="#269449"/>
<path d="M1860.66 637.587C1860.75 637.587 1860.84 637.558 1860.93 637.528C1861.32 637.378 1861.5 636.96 1861.35 636.572L1852.51 613.669C1852.42 613.43 1852.18 613.251 1851.91 613.191L1812.2 607.428C1811.93 607.398 1811.66 607.488 1811.51 607.697L1796.52 627.136C1796.28 627.465 1796.34 627.943 1796.67 628.181C1797 628.45 1797.48 628.361 1797.72 628.032L1812.44 608.921L1851.29 614.565L1859.98 637.08C1860.09 637.378 1860.36 637.587 1860.66 637.587Z" fill="#269449"/>
<path d="M1833.22 649.8C1833.37 649.8 1833.55 649.741 1833.67 649.651C1833.82 649.532 1833.94 649.353 1833.97 649.173L1836.27 633.288L1836.71 611.639C1836.71 611.221 1836.39 610.892 1835.97 610.862C1835.55 610.892 1835.22 611.191 1835.19 611.609L1834.77 633.168L1832.59 648.218L1820.83 646.516L1823.04 631.376L1828.74 610.683C1828.86 610.295 1828.62 609.877 1828.23 609.757C1827.85 609.638 1827.43 609.877 1827.31 610.265L1821.58 631.048L1819.25 647.023C1819.19 647.441 1819.48 647.8 1819.87 647.859L1833.1 649.771C1833.13 649.8 1833.16 649.8 1833.22 649.8Z" fill="#269449"/>
</g>
</svg>
