<svg width="103" height="375" viewBox="0 0 103 375" fill="none" xmlns="http://www.w3.org/2000/svg">
<path d="M-1.55433 101.07C-1.57318 101.07 -1.59204 101.07 -1.6109 101.07L-32.2279 97.7897C-32.3599 97.7709 -32.473 97.7143 -32.5484 97.62C-32.6238 97.5258 -32.6615 97.3938 -32.6427 97.2807L-29.8901 71.49C-29.8713 71.2261 -29.6451 71.0375 -29.3623 71.0752L1.25475 74.3556C1.38672 74.3745 1.49982 74.431 1.57524 74.5253C1.65065 74.6196 1.68835 74.7515 1.6695 74.8647L-1.08301 100.655C-1.10186 100.882 -1.30924 101.07 -1.55433 101.07ZM-31.6623 96.9036L-1.96908 100.071L0.689163 75.2229L-29.0041 72.0556L-31.6623 96.9036Z" fill="#269449"/>
<path d="M-32.1718 97.7897C-32.3038 97.7897 -32.4546 97.7331 -32.5488 97.62L-44.0679 83.3484C-44.1433 83.2542 -44.181 83.1222 -44.1622 83.0091L-41.4097 57.2184C-41.3908 56.9545 -41.1457 56.7659 -40.8818 56.8036L-10.2648 60.084C-10.1328 60.1029 -10.0197 60.1594 -9.9443 60.2537L1.57478 74.5253C1.74446 74.7327 1.70675 75.0343 1.49936 75.1851C1.29198 75.3548 0.990337 75.3171 0.839516 75.1097L-10.5476 60.989L-40.5047 57.784L-43.1818 82.9148L-31.7947 97.0356C-31.6251 97.243 -31.6628 97.5446 -31.8702 97.6954C-31.9644 97.7708 -32.0775 97.7897 -32.1718 97.7897Z" fill="#269449"/>
<path d="M35.5094 147.938C35.302 147.938 35.1134 147.806 35.0569 147.599L27.6289 121.997C27.5535 121.752 27.7043 121.488 27.9494 121.412L53.5515 113.984C53.7966 113.909 54.0606 114.06 54.136 114.305C54.2114 114.55 54.0605 114.814 53.8155 114.889L28.6658 122.185L35.8299 146.883L60.5271 139.718L55.5122 122.449C55.4368 122.204 55.5876 121.94 55.8327 121.865C56.0778 121.789 56.3417 121.94 56.4172 122.185L61.564 139.907C61.6017 140.02 61.5828 140.152 61.5263 140.265C61.4697 140.378 61.3566 140.454 61.2435 140.491L35.6413 147.919C35.6036 147.938 35.5471 147.938 35.5094 147.938Z" fill="#269449"/>
<path d="M35.5095 147.938C35.4341 147.938 35.3587 147.919 35.2833 147.882L20.0313 139.492C19.9182 139.436 19.8428 139.323 19.8051 139.209L16.9394 129.368C16.864 129.123 17.0149 128.859 17.2599 128.784C17.505 128.708 17.769 128.859 17.8444 129.104L20.6535 138.757L35.7357 147.052C35.962 147.184 36.0562 147.467 35.9243 147.693C35.83 147.844 35.6792 147.938 35.5095 147.938Z" fill="#269449"/>
<path d="M12.8294 113.947C12.622 113.947 12.4335 113.815 12.3769 113.607C12.3015 113.362 12.4523 113.098 12.6974 113.023L38.2996 105.595C38.5447 105.519 38.8086 105.67 38.884 105.915C38.9594 106.16 38.8086 106.424 38.5635 106.5L12.9614 113.928C12.9237 113.947 12.8671 113.947 12.8294 113.947Z" fill="#269449"/>
<path d="M38.2433 127.917C38.1679 127.917 38.0925 127.898 38.0171 127.86L2.44179 108.291C2.27211 108.196 2.17786 108.008 2.19672 107.819C2.21557 107.631 2.34752 107.48 2.53605 107.424L28.1382 99.9955C28.2513 99.9578 28.3833 99.9766 28.4964 100.033L64.0717 119.602C64.2414 119.697 64.3357 119.885 64.3168 120.074C64.298 120.262 64.166 120.413 63.9774 120.47L38.3753 127.898C38.3376 127.917 38.281 127.917 38.2433 127.917ZM3.89347 108.008L38.2999 126.936L62.62 119.866L28.2136 100.938L3.89347 108.008Z" fill="#269449"/>
<path d="M41.8633 118.32C41.6559 118.32 41.4674 118.188 41.4108 117.981L37.9796 106.16C37.9419 106.047 37.9607 105.915 38.0173 105.802L43.6166 95.6405C43.6731 95.5274 43.7863 95.452 43.8994 95.4143C44.0125 95.3766 44.1445 95.3954 44.2576 95.452L59.5095 103.841C59.6226 103.898 59.698 104.011 59.7357 104.124C59.7735 104.237 59.7546 104.369 59.6981 104.482L54.0987 114.644C53.9668 114.87 53.684 114.946 53.4578 114.833C53.2315 114.701 53.1373 114.418 53.2692 114.192L58.6423 104.445L44.2199 96.5077L38.9411 106.085L42.3157 117.717C42.3911 117.962 42.2403 118.226 41.9952 118.302C41.9575 118.32 41.901 118.32 41.8633 118.32Z" fill="#269449"/>
<path d="M22.4819 132.498C22.4065 132.498 22.3311 132.479 22.2557 132.441L7.00373 124.052C6.7775 123.92 6.68323 123.637 6.8152 123.411L12.4145 113.249C12.5465 113.023 12.8293 112.929 13.0555 113.061C13.2817 113.193 13.376 113.475 13.244 113.702L7.87096 123.448L22.2934 131.386L27.6664 121.639C27.7984 121.412 28.0812 121.318 28.3074 121.45C28.5337 121.582 28.6279 121.865 28.496 122.091L22.8967 132.253C22.8401 132.366 22.727 132.441 22.6139 132.479C22.5762 132.498 22.5196 132.498 22.4819 132.498Z" fill="#269449"/>
<path d="M-32.5298 185.493C-32.6241 185.493 -32.7372 185.455 -32.8126 185.399C-32.9069 185.323 -32.9823 185.21 -33.0012 185.097L-36.8848 158.345C-36.9225 158.081 -36.734 157.855 -36.4889 157.817L3.62992 151.992C3.74303 151.973 3.87501 152.01 3.98812 152.086C4.08239 152.161 4.1578 152.274 4.17665 152.388L8.06033 179.14C8.09804 179.404 7.90952 179.63 7.66443 179.668L-32.4544 185.493C-32.4921 185.493 -32.511 185.493 -32.5298 185.493ZM-35.8856 158.684L-32.1339 184.494L7.06112 178.8L3.30943 152.991L-35.8856 158.684Z" fill="#269449"/>
<path d="M-36.4132 158.76C-36.4698 158.76 -36.5263 158.741 -36.5829 158.722C-36.828 158.628 -36.9411 158.364 -36.8468 158.119L-31.2664 143.659C-31.2098 143.508 -31.059 143.395 -30.8893 143.357L-5.81504 139.718C-5.64537 139.7 -5.4757 139.756 -5.38144 139.888L4.0827 152.161C4.23352 152.369 4.19581 152.67 3.98843 152.821C3.78105 152.991 3.4794 152.934 3.32858 152.727L-5.96587 140.661L-30.4934 144.243L-35.9796 158.458C-36.055 158.628 -36.2247 158.76 -36.4132 158.76Z" fill="#269449"/>
<path d="M15.9213 216.581C15.8459 216.581 15.7705 216.562 15.695 216.525L-1.8004 206.815C-1.97007 206.721 -2.06433 206.533 -2.04547 206.344C-2.02662 206.156 -1.89466 206.005 -1.70614 205.948L21.3132 199.35C21.4263 199.312 21.5583 199.331 21.6714 199.387L39.1668 209.097C39.3931 209.229 39.4685 209.511 39.3553 209.738C39.2234 209.964 38.9406 210.039 38.7143 209.926L21.3886 200.311L-0.348717 206.533L16.1475 215.676C16.3737 215.808 16.4492 216.091 16.336 216.317C16.2418 216.506 16.0909 216.581 15.9213 216.581Z" fill="#269449"/>
<path d="M22.8223 240.656C22.7469 240.656 22.6715 240.637 22.5961 240.6C22.483 240.543 22.4075 240.43 22.3698 240.317L15.4697 216.242C15.3943 215.997 15.5451 215.733 15.7902 215.657L38.8095 209.059L39.0735 209.964L16.5066 216.43L23.1428 239.582L45.2572 233.247L40.5817 216.958L41.4866 216.694L46.2941 233.436C46.3318 233.549 46.3129 233.681 46.2564 233.794C46.1998 233.907 46.0867 233.982 45.9736 234.02L22.9543 240.619C22.8977 240.637 22.86 240.656 22.8223 240.656Z" fill="#269449"/>
<path d="M25.3483 221.804C25.2729 221.804 25.1975 221.785 25.1221 221.747L15.8654 216.619L6.62747 219.258C6.51435 219.296 6.38237 219.277 6.26926 219.221L-11.2262 209.511C-11.3959 209.417 -11.4901 209.229 -11.4713 209.04C-11.4524 208.852 -11.3204 208.701 -11.1319 208.644L-2.8178 206.269L-9.90648 202.347C-10.0762 202.253 -10.1704 202.065 -10.1516 201.876C-10.1327 201.688 -10.0007 201.537 -9.81222 201.48L13.2071 194.882C13.3202 194.844 13.4522 194.863 13.5653 194.919L21.4646 199.312L31.7394 196.371C31.8525 196.333 31.9845 196.352 32.0976 196.409L49.5931 206.118C49.7628 206.212 49.857 206.401 49.8382 206.589C49.8193 206.778 49.6873 206.929 49.4988 206.985L40.1289 209.662L48.5562 214.338C48.7258 214.432 48.8201 214.621 48.8012 214.809C48.7824 214.998 48.6504 215.148 48.4619 215.205L25.4426 221.804C25.4237 221.804 25.386 221.804 25.3483 221.804ZM15.9219 215.639C15.9973 215.639 16.0727 215.658 16.1481 215.695L25.4049 220.823L47.1422 214.602L38.715 209.926C38.5453 209.832 38.4511 209.643 38.4699 209.455C38.4888 209.266 38.6207 209.116 38.8092 209.059L48.1791 206.382L31.8525 197.333L21.5777 200.274C21.4646 200.311 21.3327 200.292 21.2196 200.236L13.3202 195.843L-8.4171 202.065L-1.32844 205.986C-1.15877 206.08 -1.06449 206.269 -1.08335 206.457C-1.1022 206.646 -1.23418 206.797 -1.42271 206.853L-9.7368 209.229L6.58975 218.278L15.8276 215.639C15.8276 215.639 15.8842 215.639 15.9219 215.639Z" fill="#269449"/>
<path d="M22.5958 240.6L5.10034 230.891C4.98722 230.834 4.9118 230.721 4.87409 230.608L0.669922 215.959L1.57484 215.695L5.72247 230.155L23.0482 239.77L22.5958 240.6Z" fill="#269449"/>
<path d="M21.8876 199.693L20.9814 199.953L24.8821 213.563L25.7883 213.303L21.8876 199.693Z" fill="#269449"/>
<path d="M64.8264 175.331C64.7322 175.331 64.6379 175.294 64.5625 175.256L47.1425 163.247C46.9917 163.134 46.9162 162.945 46.9539 162.757C46.9917 162.568 47.1425 162.417 47.331 162.398L73.4987 157.591C73.6307 157.572 73.7438 157.591 73.8569 157.666L91.277 169.676C91.4278 169.789 91.5032 169.977 91.4655 170.166C91.4278 170.354 91.277 170.505 91.0884 170.524L64.9207 175.331C64.883 175.331 64.8641 175.331 64.8264 175.331ZM48.613 163.115L64.9395 174.37L89.7876 169.807L73.461 158.552L48.613 163.115Z" fill="#269449"/>
<path d="M66.0332 181.873C65.9389 181.873 65.8446 181.836 65.7692 181.798L48.3492 169.789C48.2549 169.713 48.1795 169.6 48.1607 169.487L46.9541 162.945L47.8779 162.775L49.0468 169.129L66.1463 180.912L91.6542 176.217L90.5418 170.147L91.4656 169.977L92.6722 176.519C92.7288 176.783 92.5591 177.028 92.2952 177.066L66.1274 181.873C66.0897 181.873 66.0709 181.873 66.0332 181.873Z" fill="#269449"/>
<path d="M65.2826 174.76L64.3555 174.931L65.558 181.476L66.4851 181.306L65.2826 174.76Z" fill="#269449"/>
<path d="M67.7106 200.161C67.6163 200.161 67.5221 200.123 67.4466 200.085C67.3524 200.01 67.277 199.897 67.2581 199.784L63.6572 180.158L64.581 179.988L68.1065 199.143L93.3316 194.505L90.1266 177.047L91.0504 176.877L94.3496 194.806C94.3685 194.938 94.3496 195.051 94.2742 195.165C94.1988 195.259 94.0857 195.334 93.9726 195.353L67.8049 200.161C67.7671 200.161 67.7294 200.161 67.7106 200.161Z" fill="#269449"/>
<path d="M67.4468 200.085L53.8917 190.753C53.7974 190.678 53.722 190.565 53.7031 190.451L50.1211 170.92L51.0449 170.75L54.5892 190.074L67.9747 199.312L67.4468 200.085Z" fill="#269449"/>
<path d="M15.9222 27.676C15.8468 27.676 15.7714 27.6571 15.696 27.6194L-1.79942 17.9102C-1.9691 17.8159 -2.06335 17.6274 -2.0445 17.4389C-2.02564 17.2504 -1.89369 17.0995 -1.70516 17.043L21.3142 10.4445C21.4273 10.4068 21.5592 10.4256 21.6724 10.4822L39.1678 20.1914C39.394 20.3234 39.4694 20.6062 39.3563 20.8324C39.2244 21.0586 38.9416 21.134 38.7153 21.0209L21.3896 11.406L-0.347741 17.6274L16.1485 26.771C16.3747 26.903 16.4501 27.1858 16.337 27.412C16.2428 27.6006 16.0919 27.676 15.9222 27.676Z" fill="#269449"/>
<path d="M22.8223 51.751C22.7469 51.751 22.6715 51.7322 22.5961 51.6945C22.483 51.6379 22.4075 51.5248 22.3698 51.4117L15.4697 27.3366C15.3943 27.0915 15.5451 26.8276 15.7902 26.7522L38.8095 20.1537L39.0735 21.0586L16.5066 27.5251L23.1428 50.6764L45.2572 44.3419L40.5817 28.053L41.4866 27.7891L46.2941 44.5304C46.3318 44.6435 46.3129 44.7755 46.2564 44.8886C46.1998 45.0017 46.0867 45.0771 45.9736 45.1148L22.9543 51.7133C22.8977 51.7322 22.86 51.751 22.8223 51.751Z" fill="#269449"/>
<path d="M25.3483 32.8983C25.2729 32.8983 25.1975 32.8794 25.1221 32.8417L15.8654 27.7137L6.62747 30.3531C6.51435 30.3908 6.38237 30.372 6.26926 30.3154L-11.2262 20.6062C-11.3959 20.5119 -11.4901 20.3234 -11.4713 20.1349C-11.4524 19.9464 -11.3204 19.7955 -11.1319 19.739L-2.8178 17.3635L-9.90648 13.4421C-10.0762 13.3479 -10.1704 13.1593 -10.1516 12.9708C-10.1327 12.7823 -10.0007 12.6315 -9.81222 12.5749L13.2071 5.9764C13.3202 5.9387 13.4522 5.95755 13.5653 6.01411L21.4646 10.4068L31.7394 7.46578C31.8525 7.42807 31.9845 7.44692 32.0976 7.50348L49.5931 17.2127C49.7628 17.307 49.857 17.4955 49.8382 17.684C49.8193 17.8725 49.6873 18.0234 49.4988 18.0799L40.1289 20.757L48.5562 25.4325C48.7258 25.5268 48.8201 25.7153 48.8012 25.9038C48.7824 26.0924 48.6504 26.2432 48.4619 26.2998L25.4426 32.8983C25.4237 32.8983 25.386 32.8983 25.3483 32.8983ZM15.9219 26.7334C15.9973 26.7334 16.0727 26.7522 16.1481 26.7899L25.4049 31.9179L47.1422 25.6965L38.715 21.021C38.5453 20.9267 38.4511 20.7382 38.4699 20.5496C38.4888 20.3611 38.6207 20.2103 38.8092 20.1537L48.1791 17.4766L31.8525 8.42727L21.5777 11.3683C21.4646 11.406 21.3327 11.3872 21.2196 11.3306L13.3202 6.9379L-8.4171 13.1593L-1.32844 17.0807C-1.15877 17.175 -1.06449 17.3635 -1.08335 17.552C-1.1022 17.7406 -1.23418 17.8914 -1.42271 17.948L-9.7368 20.3234L6.58975 29.3728L15.8276 26.7334C15.8276 26.7334 15.8842 26.7334 15.9219 26.7334Z" fill="#269449"/>
<path d="M22.5958 51.6945L5.10034 41.9853C4.98722 41.9287 4.9118 41.8156 4.87409 41.7025L0.669922 27.0539L1.57484 26.7899L5.72247 41.25L23.0482 50.865L22.5958 51.6945Z" fill="#269449"/>
<path d="M21.8935 10.786L20.9873 11.0457L24.888 24.6563L25.7941 24.3966L21.8935 10.786Z" fill="#269449"/>
<path d="M-1.55433 289.976C-1.57318 289.976 -1.59204 289.976 -1.6109 289.976L-32.2279 286.695C-32.3599 286.676 -32.473 286.62 -32.5484 286.526C-32.6238 286.431 -32.6615 286.299 -32.6427 286.186L-29.8901 260.396C-29.8713 260.132 -29.6451 259.943 -29.3623 259.981L1.25475 263.261C1.38672 263.28 1.49982 263.337 1.57524 263.431C1.65065 263.525 1.68835 263.657 1.6695 263.77L-1.08301 289.561C-1.10186 289.806 -1.30924 289.976 -1.55433 289.976ZM-31.6623 285.809L-1.96908 288.976L0.689163 264.128L-29.0041 260.961L-31.6623 285.809Z" fill="#269449"/>
<path d="M-32.1718 286.695C-32.3038 286.695 -32.4546 286.639 -32.5488 286.525L-44.0679 272.254C-44.1433 272.16 -44.181 272.028 -44.1622 271.914L-41.4097 246.124C-41.3908 245.86 -41.1457 245.671 -40.8818 245.709L-10.2648 248.989C-10.1328 249.008 -10.0197 249.065 -9.9443 249.159L1.57478 263.431C1.74446 263.638 1.70675 263.94 1.49936 264.091C1.29198 264.26 0.990337 264.223 0.839516 264.015L-10.5476 249.894L-40.5047 246.689L-43.1818 271.82L-31.7947 285.941C-31.6251 286.148 -31.6628 286.45 -31.8702 286.601C-31.9644 286.676 -32.0775 286.695 -32.1718 286.695Z" fill="#269449"/>
<path d="M70.6894 284.338C70.4631 284.338 70.2746 284.169 70.2181 283.942L65.5048 257.661C65.486 257.53 65.5049 257.416 65.5803 257.303C65.6557 257.209 65.7688 257.134 65.8819 257.115L97.0833 251.534C97.3284 251.497 97.5924 251.666 97.6301 251.911L102.343 278.192C102.381 278.456 102.211 278.701 101.966 278.739L70.7648 284.338C70.7459 284.338 70.7271 284.338 70.6894 284.338ZM66.5418 257.963L71.0853 283.32L101.363 277.891L96.8194 252.534L66.5418 257.963Z" fill="#269449"/>
<path d="M65.9954 258.057C65.9012 258.057 65.8069 258.039 65.7315 257.982L50.2345 247.198C50.0271 247.047 49.9705 246.746 50.1213 246.538C50.2722 246.331 50.555 246.274 50.7812 246.425L66.2782 257.209C66.4856 257.36 66.5422 257.661 66.3913 257.869C66.2782 257.982 66.1463 258.057 65.9954 258.057Z" fill="#269449"/>
<path d="M70.6894 284.338C70.5952 284.338 70.5009 284.32 70.4255 284.244L54.9285 273.46C54.8342 273.385 54.7588 273.272 54.7399 273.159L50.0267 246.878C49.989 246.614 50.1587 246.369 50.4038 246.331L81.6052 240.732C81.7372 240.713 81.8503 240.732 81.9634 240.807L97.4605 251.591C97.6678 251.742 97.7244 252.043 97.5736 252.251C97.4228 252.458 97.14 252.515 96.9137 252.364L81.5864 241.693L51.0448 247.161L55.626 272.782L70.9534 283.452C71.1608 283.603 71.2173 283.905 71.0665 284.112C70.9911 284.263 70.8403 284.338 70.6894 284.338Z" fill="#269449"/>
<path d="M61.9794 264.147C61.8663 264.147 61.772 264.109 61.6778 264.053L57.3416 260.584C57.2474 260.508 57.1908 260.414 57.1719 260.301L55.3998 250.441C55.3621 250.177 55.5317 249.932 55.7768 249.894L86.9783 244.314C87.2234 244.276 87.4873 244.446 87.525 244.691C87.5627 244.955 87.393 245.2 87.148 245.238L56.399 250.743L58.058 259.962L61.2819 262.544L59.7359 253.929C59.6982 253.665 59.8679 253.42 60.113 253.382L91.3144 247.802C91.5595 247.764 91.8235 247.933 91.8612 248.179C91.8989 248.443 91.7292 248.688 91.4841 248.725L60.7351 254.23L62.413 263.619C62.4508 263.808 62.3565 264.015 62.1868 264.109C62.1491 264.128 62.0737 264.147 61.9794 264.147Z" fill="#269449"/>
<path d="M35.5094 336.844C35.302 336.844 35.1134 336.712 35.0569 336.504L27.6289 310.902C27.5535 310.657 27.7043 310.393 27.9494 310.318L53.5515 302.89C53.7966 302.814 54.0606 302.965 54.136 303.21C54.2114 303.455 54.0605 303.719 53.8155 303.795L28.6658 311.091L35.8299 335.788L60.5271 328.624L55.5122 311.355C55.4368 311.109 55.5876 310.846 55.8327 310.77C56.0778 310.695 56.3417 310.846 56.4172 311.091L61.564 328.812C61.6017 328.925 61.5828 329.057 61.5263 329.17C61.4697 329.284 61.3566 329.359 61.2435 329.397L35.6413 336.825C35.6036 336.844 35.5471 336.844 35.5094 336.844Z" fill="#269449"/>
<path d="M35.5095 336.844C35.4341 336.844 35.3587 336.825 35.2833 336.787L20.0313 328.397C19.9182 328.341 19.8428 328.228 19.8051 328.115L16.9394 318.274C16.864 318.028 17.0149 317.764 17.2599 317.689C17.505 317.614 17.769 317.764 17.8444 318.01L20.6535 327.662L35.7357 335.957C35.962 336.089 36.0562 336.372 35.9243 336.598C35.83 336.749 35.6792 336.844 35.5095 336.844Z" fill="#269449"/>
<path d="M12.8294 302.852C12.622 302.852 12.4335 302.72 12.3769 302.512C12.3015 302.267 12.4523 302.003 12.6974 301.928L38.2996 294.5C38.5447 294.425 38.8086 294.575 38.884 294.821C38.9594 295.066 38.8086 295.33 38.5635 295.405L12.9614 302.833C12.9237 302.852 12.8671 302.852 12.8294 302.852Z" fill="#269449"/>
<path d="M38.2433 316.822C38.1679 316.822 38.0925 316.803 38.0171 316.765L2.44179 297.196C2.27211 297.102 2.17786 296.913 2.19672 296.725C2.21557 296.536 2.34752 296.385 2.53605 296.329L28.1382 288.901C28.2513 288.863 28.3833 288.882 28.4964 288.938L64.0717 308.508C64.2414 308.602 64.3357 308.791 64.3168 308.979C64.298 309.168 64.166 309.318 63.9774 309.375L38.3753 316.803C38.3376 316.822 38.281 316.822 38.2433 316.822ZM3.89347 296.913L38.2999 315.841L62.62 308.772L28.2136 289.843L3.89347 296.913Z" fill="#269449"/>
<path d="M41.8633 307.226C41.6559 307.226 41.4674 307.094 41.4108 306.886L37.9796 295.066C37.9419 294.953 37.9607 294.821 38.0173 294.707L43.6166 284.546C43.6731 284.433 43.7863 284.357 43.8994 284.32C44.0125 284.282 44.1445 284.301 44.2576 284.357L59.5095 292.747C59.6226 292.803 59.698 292.916 59.7357 293.03C59.7735 293.143 59.7546 293.275 59.6981 293.388L54.0987 303.549C53.9668 303.776 53.684 303.851 53.4578 303.738C53.2315 303.606 53.1373 303.323 53.2692 303.097L58.6423 293.35L44.2199 285.413L38.9411 294.99L42.3157 306.622C42.3911 306.868 42.2403 307.131 41.9952 307.207C41.9575 307.226 41.901 307.226 41.8633 307.226Z" fill="#269449"/>
<path d="M22.4819 321.403C22.4065 321.403 22.3311 321.384 22.2557 321.347L7.00373 312.957C6.7775 312.825 6.68323 312.542 6.8152 312.316L12.4145 302.154C12.5465 301.928 12.8293 301.834 13.0555 301.966C13.2817 302.098 13.376 302.381 13.244 302.607L7.87096 312.354L22.2934 320.291L27.6664 310.544C27.7984 310.318 28.0812 310.223 28.3074 310.355C28.5337 310.487 28.6279 310.77 28.496 310.996L22.8967 321.158C22.8401 321.271 22.727 321.347 22.6139 321.384C22.5762 321.403 22.5196 321.403 22.4819 321.403Z" fill="#269449"/>
<path d="M-32.5298 374.398C-32.6241 374.398 -32.7372 374.361 -32.8126 374.304C-32.9069 374.229 -32.9823 374.116 -33.0012 374.002L-36.8848 347.25C-36.9225 346.986 -36.734 346.76 -36.4889 346.722L3.62992 340.897C3.74303 340.878 3.87501 340.916 3.98812 340.991C4.08239 341.067 4.1578 341.18 4.17665 341.293L8.06033 368.045C8.09804 368.309 7.90952 368.535 7.66443 368.573L-32.4544 374.398C-32.4921 374.398 -32.511 374.398 -32.5298 374.398ZM-35.8856 347.59L-32.1339 373.399L7.06112 367.706L3.30943 341.896L-35.8856 347.59Z" fill="#269449"/>
<path d="M-36.4132 347.665C-36.4698 347.665 -36.5263 347.646 -36.5829 347.627C-36.828 347.533 -36.9411 347.269 -36.8468 347.024L-31.2664 332.564C-31.2098 332.413 -31.059 332.3 -30.8893 332.262L-5.81504 328.624C-5.64537 328.605 -5.4757 328.661 -5.38144 328.793L4.0827 341.067C4.23352 341.274 4.19581 341.576 3.98843 341.726C3.78105 341.896 3.4794 341.839 3.32858 341.632L-5.96587 329.566L-30.4934 333.129L-35.9796 347.345C-36.055 347.533 -36.2247 347.665 -36.4132 347.665Z" fill="#269449"/>
</svg>
