<svg width="173" height="375" viewBox="0 0 173 375" fill="none" xmlns="http://www.w3.org/2000/svg">
<path d="M150.395 155.395C150.432 155.395 150.489 155.395 150.527 155.376L183.029 145.987C183.142 145.95 183.255 145.874 183.312 145.761C183.368 145.648 183.387 145.516 183.35 145.403L175.431 118.029C175.394 117.916 175.318 117.802 175.205 117.746C175.092 117.689 174.96 117.671 174.847 117.708L142.345 127.097C142.1 127.172 141.949 127.436 142.024 127.681L149.942 155.056C149.999 155.244 150.187 155.395 150.395 155.395ZM182.313 145.196L150.715 154.32L143.061 127.851L174.658 118.726L182.313 145.196Z" fill="#269449"/>
<path d="M182.897 145.989C183.066 145.989 183.217 145.894 183.311 145.743L193.039 128.097C193.096 127.984 193.115 127.852 193.077 127.739L185.159 100.365C185.083 100.12 184.82 99.9688 184.574 100.044L152.072 109.433C151.959 109.471 151.846 109.546 151.789 109.659L142.061 127.305C141.929 127.532 142.024 127.814 142.25 127.946C142.476 128.078 142.759 127.984 142.891 127.758L152.525 110.281L184.386 101.081L192.116 127.814L182.482 145.291C182.35 145.517 182.444 145.8 182.67 145.932C182.746 145.97 182.821 145.989 182.897 145.989Z" fill="#269449"/>
<path d="M182.821 120.065C182.859 120.065 182.915 120.065 182.953 120.046C183.198 119.971 183.349 119.707 183.273 119.462L180.314 109.187C180.238 108.942 179.974 108.791 179.729 108.866L147.227 118.255C146.982 118.33 146.831 118.594 146.906 118.839C146.982 119.085 147.246 119.235 147.491 119.16L179.541 109.903L182.369 119.707C182.425 119.933 182.614 120.065 182.821 120.065Z" fill="#269449"/>
<path d="M150.846 144.14C151.016 144.14 151.167 144.046 151.261 143.895L153.467 139.898L157.464 142.104C157.69 142.236 157.973 142.142 158.105 141.915C158.237 141.689 158.142 141.406 157.916 141.274L153.505 138.842C153.278 138.71 152.996 138.805 152.864 139.031L150.432 143.442C150.3 143.669 150.394 143.951 150.62 144.083C150.677 144.121 150.771 144.14 150.846 144.14Z" fill="#269449"/>
<path d="M156.239 149.984C156.277 149.984 156.333 149.984 156.371 149.965C156.616 149.89 156.767 149.626 156.691 149.381L153.732 139.106C153.656 138.861 153.392 138.71 153.147 138.786C152.902 138.861 152.751 139.125 152.827 139.37L155.786 149.645C155.843 149.852 156.032 149.984 156.239 149.984Z" fill="#269449"/>
<path d="M161.102 141.161C161.272 141.161 161.423 141.067 161.517 140.916L163.723 136.919L167.72 139.125C167.946 139.257 168.229 139.163 168.361 138.937C168.493 138.71 168.398 138.428 168.172 138.296L163.76 135.864C163.534 135.732 163.251 135.826 163.119 136.052L160.687 140.464C160.555 140.69 160.65 140.973 160.876 141.105C160.951 141.142 161.027 141.161 161.102 141.161Z" fill="#269449"/>
<path d="M166.513 147.024C166.551 147.024 166.608 147.024 166.645 147.006C166.89 146.93 167.041 146.666 166.966 146.421L164.006 136.146C163.931 135.901 163.667 135.75 163.422 135.826C163.176 135.901 163.026 136.165 163.101 136.41L166.061 146.685C166.117 146.892 166.306 147.024 166.513 147.024Z" fill="#269449"/>
<path d="M152.827 150.983C152.864 150.983 152.921 150.983 152.959 150.965L170.077 146.025C170.322 145.95 170.473 145.686 170.397 145.441C170.322 145.196 170.058 145.045 169.813 145.12L152.695 150.06C152.45 150.135 152.299 150.399 152.374 150.644C152.431 150.851 152.619 150.983 152.827 150.983Z" fill="#269449"/>
<path d="M174.394 238.611C174.658 238.611 174.866 238.404 174.866 238.14L175.148 216.798C175.148 216.666 175.111 216.553 175.016 216.459C174.922 216.365 174.809 216.327 174.677 216.308L145.342 215.912C145.078 215.912 144.871 216.12 144.871 216.384L144.588 237.725C144.588 237.857 144.626 237.97 144.72 238.064C144.814 238.159 144.927 238.196 145.059 238.215L174.394 238.611C174.375 238.611 174.375 238.611 174.394 238.611ZM174.187 217.27L173.904 237.669L145.512 237.291L145.795 216.893L174.187 217.27Z" fill="#269449"/>
<path d="M159.142 216.591L159.312 203.734L181.803 204.035L181.822 203.093L158.86 202.791C158.596 202.791 158.388 202.998 158.388 203.262L158.2 216.591L159.142 216.591Z" fill="#269449"/>
<path d="M154.976 216.817C155.372 216.289 155.598 215.648 155.598 214.989L155.617 213.971C155.617 213.386 155.278 212.858 154.75 212.632C154.222 212.406 153.6 212.519 153.185 212.934L150.244 215.837C150.131 215.95 150.018 216.082 149.905 216.233L150.678 216.78C150.734 216.685 150.81 216.591 150.904 216.516L153.845 213.612C153.996 213.48 154.203 213.424 154.373 213.518C154.561 213.593 154.675 213.782 154.675 213.989L154.656 215.007C154.656 215.479 154.505 215.912 154.222 216.289L154.976 216.817Z" fill="#269449"/>
<path d="M145.323 216.874C145.436 216.874 145.568 216.836 145.644 216.742L159.161 203.583C159.35 203.394 159.35 203.092 159.161 202.923C158.973 202.734 158.69 202.734 158.501 202.923L144.984 216.082C144.795 216.271 144.795 216.572 144.984 216.742C145.078 216.817 145.21 216.874 145.323 216.874Z" fill="#269449"/>
<path d="M158.501 203.564L159.18 202.923L150.507 193.987L149.829 194.646L158.501 203.564Z" fill="#269449"/>
<path d="M174.715 238.479L188.232 225.32C188.327 225.226 188.364 225.113 188.383 224.981L188.666 203.639C188.666 203.507 188.628 203.394 188.534 203.3L175.375 189.782C175.262 189.669 175.111 189.613 174.941 189.65C174.79 189.688 174.658 189.782 174.602 189.933L172.773 194.364C172.698 194.533 172.735 194.741 172.867 194.873L182.69 204.959C183.538 205.826 184.782 206.222 185.97 205.996C186.63 205.864 187.233 205.562 187.705 205.129L187.441 224.773L174.055 237.801L174.715 238.479ZM187.629 203.734C187.252 204.431 186.573 204.921 185.782 205.072C184.895 205.242 183.991 204.959 183.35 204.299L173.753 194.439L175.205 190.97L187.629 203.734Z" fill="#269449"/>
<path d="M143.943 193.805L173.184 194.07L173.175 195.013L143.934 194.748L143.943 193.805Z" fill="#269449"/>
<path d="M155.937 205.656C156.163 205.656 156.389 205.638 156.616 205.6C156.804 205.562 157.03 205.506 157.238 205.411L156.898 204.525C156.729 204.582 156.578 204.638 156.446 204.657C155.541 204.827 154.636 204.544 154.014 203.884L144.418 194.024L146.02 190.178L175.035 190.574L175.054 189.632L145.719 189.236C145.549 189.217 145.342 189.349 145.285 189.518L143.456 193.949C143.381 194.119 143.419 194.326 143.551 194.458L153.373 204.544C154.014 205.279 154.957 205.656 155.937 205.656Z" fill="#269449"/>
<path d="M174.394 49.7058C174.658 49.7058 174.866 49.4984 174.866 49.2345L175.148 27.893C175.148 27.7611 175.111 27.648 175.016 27.5537C174.922 27.4594 174.809 27.4217 174.677 27.4029L145.342 27.007C145.078 27.007 144.871 27.2143 144.871 27.4783L144.588 48.8197C144.588 48.9517 144.626 49.0648 144.72 49.159C144.814 49.2533 144.927 49.291 145.059 49.3099L174.394 49.7058C174.375 49.7058 174.375 49.7058 174.394 49.7058ZM174.187 28.3644L173.904 48.7631L145.512 48.3861L145.795 27.9873L174.187 28.3644Z" fill="#269449"/>
<path d="M159.142 27.6858L159.312 14.8281L181.803 15.1298L181.822 14.1871L158.86 13.8855C158.596 13.8855 158.388 14.0929 158.388 14.3568L158.2 27.6858L159.142 27.6858Z" fill="#269449"/>
<path d="M154.976 27.9118C155.372 27.3839 155.598 26.7429 155.598 26.0831L155.617 25.065C155.617 24.4806 155.278 23.9527 154.75 23.7265C154.222 23.5003 153.6 23.6134 153.185 24.0281L150.244 26.9315C150.131 27.0446 150.018 27.1766 149.905 27.3274L150.678 27.8741C150.734 27.7799 150.81 27.6856 150.904 27.6102L153.845 24.7068C153.996 24.5749 154.203 24.5183 154.373 24.6126C154.561 24.688 154.675 24.8765 154.675 25.0839L154.656 26.102C154.656 26.5733 154.505 27.0069 154.222 27.3839L154.976 27.9118Z" fill="#269449"/>
<path d="M145.323 27.9685C145.436 27.9685 145.568 27.9308 145.644 27.8365L159.18 14.6772C159.368 14.4887 159.368 14.187 159.18 14.0174C158.991 13.8288 158.709 13.8288 158.52 14.0174L145.003 27.1767C144.814 27.3652 144.814 27.6668 145.003 27.8365C145.078 27.9119 145.21 27.9685 145.323 27.9685Z" fill="#269449"/>
<path d="M158.501 14.6583L159.18 14.0173L150.507 5.08106L149.829 5.7409L158.501 14.6583Z" fill="#269449"/>
<path d="M174.715 49.5739L188.232 36.4146C188.327 36.3203 188.364 36.2072 188.383 36.0752L188.666 14.7338C188.666 14.6019 188.628 14.4887 188.534 14.3945L175.375 0.877002C175.262 0.763885 175.111 0.707327 174.941 0.745033C174.79 0.782738 174.658 0.877003 174.602 1.02783L172.773 5.45824C172.698 5.62792 172.735 5.8353 172.867 5.96727L182.69 16.0535C183.538 16.9208 184.782 17.3167 185.97 17.0904C186.63 16.9585 187.233 16.6568 187.705 16.2232L187.441 35.8679L174.055 48.8952L174.715 49.5739ZM187.629 14.8281C187.252 15.5257 186.573 16.0158 185.782 16.1667C184.895 16.3363 183.991 16.0535 183.35 15.3937L173.753 5.53365L175.205 2.06473L187.629 14.8281Z" fill="#269449"/>
<path d="M143.943 4.89228L173.184 5.15723L173.175 6.09987L143.934 5.83492L143.943 4.89228Z" fill="#269449"/>
<path d="M155.937 16.7511C156.163 16.7511 156.39 16.7322 156.616 16.6945C156.804 16.6568 157.031 16.6003 157.238 16.506L156.899 15.6199C156.729 15.6765 156.578 15.733 156.446 15.7519C155.541 15.9216 154.636 15.6388 154.014 14.9789L144.418 5.11889L146.002 1.29177L175.016 1.68767L175.035 0.745031L145.7 0.349124C145.53 0.367977 145.323 0.462241 145.267 0.631916L143.438 5.06233C143.362 5.23201 143.4 5.43939 143.532 5.57136L153.354 15.6576C154.014 16.374 154.957 16.7511 155.937 16.7511Z" fill="#269449"/>
<path d="M103.903 101.419C103.922 101.419 103.941 101.419 103.96 101.419L134.577 98.1388C134.708 98.12 134.822 98.0634 134.897 97.9691C134.972 97.8749 135.01 97.7429 134.991 97.6298L132.239 71.8391C132.22 71.5752 131.994 71.3867 131.711 71.4244L101.094 74.7048C100.962 74.7236 100.849 74.7802 100.773 74.8744C100.698 74.9687 100.66 75.1007 100.679 75.2138L103.432 101.004C103.45 101.231 103.658 101.419 103.903 101.419ZM134.011 97.2527L104.318 100.42L101.659 75.572L131.353 72.4047L134.011 97.2527Z" fill="#269449"/>
<path d="M131.768 72.367C131.899 72.367 132.05 72.3105 132.145 72.1974L143.664 57.9258C143.833 57.7184 143.796 57.4167 143.588 57.2659C143.381 57.0962 143.098 57.1339 142.928 57.3413L131.409 71.6129C131.24 71.8203 131.277 72.122 131.485 72.2728C131.56 72.3293 131.673 72.367 131.768 72.367Z" fill="#269449"/>
<path d="M134.52 98.1388C134.652 98.1388 134.803 98.0822 134.897 97.9691L146.417 83.6975C146.492 83.6033 146.53 83.4713 146.511 83.3582L143.758 57.5675C143.739 57.3036 143.494 57.115 143.23 57.1528L112.613 60.4332C112.481 60.452 112.368 60.5086 112.293 60.6028L100.774 74.8744C100.604 75.0818 100.642 75.3834 100.849 75.5343C101.057 75.7039 101.358 75.6662 101.509 75.4589L112.896 61.3381L142.853 58.1331L145.53 83.2639L134.143 97.3847C133.974 97.5921 134.011 97.8937 134.219 98.0445C134.313 98.12 134.426 98.1388 134.52 98.1388Z" fill="#269449"/>
<path d="M113.462 84.0934C113.481 84.0934 113.5 84.0934 113.519 84.0934L121.569 83.2261C121.833 83.2073 122.021 82.9622 121.983 82.6982L120.947 73.0267C120.928 72.7628 120.683 72.5743 120.419 72.612C120.155 72.6308 119.966 72.8759 120.004 73.1399L120.984 82.34L113.858 83.0942L112.878 73.894C112.859 73.63 112.614 73.4415 112.35 73.4792C112.086 73.4981 111.897 73.7432 111.935 74.0071L112.972 83.6786C113.028 83.9237 113.217 84.0934 113.462 84.0934Z" fill="#269449"/>
<path d="M112.425 74.422C112.557 74.422 112.708 74.3654 112.802 74.2523L124.321 59.9807C124.491 59.7733 124.453 59.4717 124.245 59.3208C124.038 59.1512 123.755 59.1889 123.586 59.3963L112.067 73.6679C111.897 73.8752 111.935 74.1769 112.142 74.3277C112.217 74.3843 112.33 74.422 112.425 74.422Z" fill="#269449"/>
<path d="M120.494 73.5736C120.626 73.5736 120.777 73.517 120.871 73.4039L132.39 59.1323C132.56 58.9249 132.522 58.6233 132.315 58.4725C132.107 58.3028 131.825 58.3405 131.655 58.5479L120.136 72.8195C119.966 73.0268 120.004 73.3285 120.211 73.4793C120.287 73.5359 120.381 73.5736 120.494 73.5736Z" fill="#269449"/>
<path d="M66.8393 148.287C67.0467 148.287 67.2352 148.155 67.2917 147.948L74.7197 122.346C74.7952 122.101 74.6443 121.837 74.3993 121.761L48.7971 114.333C48.552 114.258 48.2881 114.409 48.2127 114.654C48.1373 114.899 48.2881 115.163 48.5332 115.238L73.6828 122.534L66.5188 147.232L41.8216 140.068L46.8364 122.798C46.9118 122.553 46.761 122.289 46.5159 122.214C46.2708 122.139 46.0069 122.289 45.9315 122.534L40.7846 140.256C40.7469 140.369 40.7658 140.501 40.8224 140.614C40.8789 140.727 40.992 140.803 41.1052 140.841L66.7073 148.269C66.745 148.287 66.8016 148.287 66.8393 148.287Z" fill="#269449"/>
<path d="M66.8392 148.287C66.9146 148.287 66.99 148.269 67.0654 148.231L82.3173 139.841C82.4304 139.785 82.5058 139.672 82.5436 139.559L85.4092 129.717C85.4846 129.472 85.3338 129.208 85.0887 129.133C84.8436 129.058 84.5797 129.208 84.5043 129.453L81.6952 139.106L66.6129 147.401C66.3867 147.533 66.2924 147.816 66.4244 148.042C66.5186 148.193 66.6695 148.287 66.8392 148.287Z" fill="#269449"/>
<path d="M89.5192 114.296C89.7266 114.296 89.9151 114.164 89.9717 113.956C90.0471 113.711 89.8963 113.447 89.6512 113.372L64.049 105.944C63.804 105.869 63.54 106.019 63.4646 106.264C63.3892 106.51 63.54 106.773 63.7851 106.849L89.3873 114.277C89.425 114.296 89.4815 114.296 89.5192 114.296Z" fill="#269449"/>
<path d="M64.1053 128.266C64.1807 128.266 64.2561 128.247 64.3315 128.209L99.9068 108.64C100.077 108.546 100.171 108.357 100.152 108.169C100.133 107.98 100.001 107.829 99.8126 107.773L74.2104 100.345C74.0973 100.307 73.9653 100.326 73.8522 100.382L38.2769 119.952C38.1073 120.046 38.013 120.234 38.0318 120.423C38.0507 120.611 38.1827 120.762 38.3712 120.819L63.9733 128.247C64.011 128.266 64.0676 128.266 64.1053 128.266ZM98.4552 108.357L64.0487 127.285L39.7286 120.216L74.135 101.287L98.4552 108.357Z" fill="#269449"/>
<path d="M60.4854 118.67C60.6927 118.67 60.8813 118.538 60.9378 118.33L64.3691 106.51C64.4068 106.396 64.3879 106.264 64.3313 106.151L58.7321 95.9896C58.6755 95.8765 58.5624 95.8011 58.4493 95.7634C58.3361 95.7257 58.2042 95.7445 58.0911 95.8011L42.8391 104.191C42.726 104.247 42.6506 104.36 42.6129 104.473C42.5752 104.587 42.594 104.718 42.6506 104.832L48.2499 114.993C48.3819 115.22 48.6646 115.295 48.8909 115.182C49.1171 115.05 49.2114 114.767 49.0794 114.541L43.7063 104.794L58.1288 96.8569L63.4075 106.434L60.0329 118.066C59.9575 118.311 60.1083 118.575 60.3534 118.651C60.3911 118.67 60.4477 118.67 60.4854 118.67Z" fill="#269449"/>
<path d="M79.8667 132.847C79.9421 132.847 80.0175 132.828 80.093 132.79L95.3449 124.401C95.5711 124.269 95.6654 123.986 95.5334 123.76L89.9341 113.598C89.8022 113.372 89.5194 113.278 89.2931 113.41C89.0669 113.542 88.9726 113.824 89.1046 114.051L94.4777 123.798L80.0553 131.735L74.6822 121.988C74.5502 121.761 74.2674 121.667 74.0412 121.799C73.815 121.931 73.7207 122.214 73.8527 122.44L79.452 132.602C79.5085 132.715 79.6217 132.79 79.7348 132.828C79.7725 132.847 79.829 132.847 79.8667 132.847Z" fill="#269449"/>
<path d="M134.878 185.842C134.973 185.842 135.086 185.805 135.161 185.748C135.256 185.673 135.331 185.559 135.35 185.446L139.233 158.694C139.271 158.43 139.083 158.204 138.838 158.166L98.7187 152.341C98.6056 152.322 98.4736 152.36 98.3605 152.435C98.2662 152.51 98.1908 152.624 98.172 152.737L94.2883 179.489C94.2506 179.753 94.4391 179.979 94.6842 180.017L134.803 185.842C134.841 185.842 134.86 185.842 134.878 185.842ZM138.234 159.033L134.483 184.843L95.2875 179.149L99.0392 153.34L138.234 159.033Z" fill="#269449"/>
<path d="M138.762 159.109C138.818 159.109 138.875 159.09 138.932 159.071C139.177 158.977 139.29 158.713 139.195 158.468L133.615 144.008C133.558 143.857 133.408 143.744 133.238 143.706L108.164 140.068C107.994 140.049 107.824 140.105 107.73 140.237L98.2659 152.51C98.1151 152.718 98.1528 153.019 98.3602 153.17C98.5676 153.34 98.8692 153.283 99.0201 153.076L108.315 141.01L132.842 144.592L138.328 158.807C138.404 158.977 138.573 159.109 138.762 159.109Z" fill="#269449"/>
<path d="M121.437 166.82C121.531 166.82 121.644 166.782 121.72 166.725C121.814 166.65 121.889 166.537 121.908 166.424L123.36 156.394L123.643 142.726C123.643 142.462 123.435 142.254 123.171 142.235C122.907 142.235 122.7 142.443 122.681 142.707L122.417 156.319L121.041 165.82L113.613 164.746L115.008 155.187L118.609 142.122C118.684 141.877 118.533 141.613 118.288 141.538C118.043 141.463 117.779 141.613 117.704 141.858L114.084 154.98L112.614 165.066C112.576 165.33 112.765 165.556 113.01 165.594L121.361 166.801C121.38 166.82 121.399 166.82 121.437 166.82Z" fill="#269449"/>
<path d="M86.4274 216.93C86.5028 216.93 86.5782 216.912 86.6536 216.874L104.149 207.165C104.319 207.07 104.413 206.882 104.394 206.693C104.375 206.505 104.243 206.354 104.055 206.297L81.0354 199.699C80.9223 199.661 80.7904 199.68 80.6773 199.737L63.1818 209.446C62.9556 209.578 62.8802 209.861 62.9933 210.087C63.1253 210.313 63.4081 210.388 63.6343 210.275L80.96 200.66L102.697 206.882L86.2011 216.025C85.9749 216.157 85.8995 216.44 86.0126 216.666C86.1069 216.855 86.2577 216.93 86.4274 216.93Z" fill="#269449"/>
<path d="M79.5263 241.005C79.6017 241.005 79.6772 240.987 79.7526 240.949C79.8657 240.892 79.9411 240.779 79.9788 240.666L86.8789 216.591C86.9543 216.346 86.8035 216.082 86.5584 216.007L63.5391 209.408L63.2752 210.313L85.842 216.78L79.2058 239.931L57.0914 233.596L61.767 217.307L60.862 217.043L56.0545 233.785C56.0168 233.898 56.0357 234.03 56.0923 234.143C56.1488 234.256 56.2619 234.332 56.3751 234.369L79.3944 240.968C79.4509 240.987 79.4886 241.005 79.5263 241.005Z" fill="#269449"/>
<path d="M77.0003 222.153C77.0757 222.153 77.1511 222.134 77.2265 222.096L86.4833 216.968L95.7212 219.608C95.8343 219.645 95.9663 219.626 96.0794 219.57L113.575 209.861C113.744 209.766 113.839 209.578 113.82 209.389C113.801 209.201 113.669 209.05 113.481 208.993L105.166 206.618L112.255 202.697C112.425 202.602 112.519 202.414 112.5 202.225C112.481 202.037 112.349 201.886 112.161 201.829L89.1415 195.231C89.0284 195.193 88.8965 195.212 88.7833 195.269L80.884 199.661L70.6092 196.72C70.4961 196.682 70.3641 196.701 70.251 196.758L52.7556 206.467C52.5859 206.561 52.4916 206.75 52.5105 206.938C52.5293 207.127 52.6613 207.278 52.8498 207.334L62.2197 210.011L53.7925 214.687C53.6228 214.781 53.5285 214.97 53.5474 215.158C53.5662 215.347 53.6982 215.498 53.8867 215.554L76.9061 222.153C76.9249 222.153 76.9626 222.153 77.0003 222.153ZM86.4267 215.988C86.3513 215.988 86.2759 216.007 86.2005 216.044L76.9438 221.172L55.2064 214.951L63.6337 210.275C63.8033 210.181 63.8976 209.993 63.8787 209.804C63.8599 209.616 63.7279 209.465 63.5394 209.408L54.1695 206.731L70.4961 197.682L80.7709 200.623C80.884 200.66 81.016 200.642 81.1291 200.585L89.0284 196.192L110.766 202.414L103.677 206.335C103.507 206.429 103.413 206.618 103.432 206.806C103.451 206.995 103.583 207.146 103.771 207.202L112.085 209.578L95.7589 218.627L86.521 215.988C86.521 215.988 86.4644 215.988 86.4267 215.988Z" fill="#269449"/>
<path d="M79.7529 240.949L97.2483 231.24C97.3614 231.183 97.4368 231.07 97.4745 230.957L101.679 216.308L100.774 216.044L96.6262 230.504L79.3004 240.119L79.7529 240.949Z" fill="#269449"/>
<path d="M80.461 200.042L81.3672 200.302L77.4665 213.912L76.5604 213.652L80.461 200.042Z" fill="#269449"/>
<path d="M37.5222 175.68C37.6165 175.68 37.7108 175.643 37.7862 175.605L55.2062 163.596C55.357 163.483 55.4324 163.294 55.3947 163.106C55.357 162.917 55.2062 162.766 55.0176 162.747L28.8499 157.94C28.7179 157.921 28.6048 157.94 28.4917 158.015L11.0717 170.025C10.9209 170.138 10.8454 170.326 10.8832 170.515C10.9209 170.703 11.0717 170.854 11.2602 170.873L37.428 175.68C37.4657 175.68 37.4845 175.68 37.5222 175.68ZM53.7357 163.464L37.4091 174.719L12.5611 170.157L28.8876 158.901L53.7357 163.464Z" fill="#269449"/>
<path d="M36.3155 182.222C36.4097 182.222 36.504 182.185 36.5794 182.147L53.9994 170.138C54.0937 170.062 54.1691 169.949 54.188 169.836L55.3945 163.294L54.4708 163.125L53.3019 169.478L36.2024 181.261L10.6945 176.567L11.8068 170.496L10.883 170.326L9.67641 176.868C9.61986 177.132 9.78953 177.377 10.0535 177.415L36.2212 182.222C36.2589 182.222 36.2778 182.222 36.3155 182.222Z" fill="#269449"/>
<path d="M37.0671 175.11L37.9941 175.28L36.7916 181.825L35.8645 181.655L37.0671 175.11Z" fill="#269449"/>
<path d="M34.638 200.51C34.7323 200.51 34.8266 200.472 34.902 200.434C34.9963 200.359 35.0717 200.246 35.0905 200.133L38.6914 180.507L37.7676 180.337L34.2421 199.492L9.01704 194.854L12.222 177.396L11.2983 177.226L7.99901 195.155C7.98015 195.287 7.99899 195.401 8.0744 195.514C8.14981 195.608 8.26295 195.683 8.37606 195.702L34.5438 200.51C34.5815 200.51 34.6192 200.51 34.638 200.51Z" fill="#269449"/>
<path d="M34.9018 200.434L48.457 191.102C48.5512 191.027 48.6266 190.914 48.6455 190.8L52.2275 171.269L51.3037 171.099L47.7594 190.423L34.3739 199.661L34.9018 200.434Z" fill="#269449"/>
<path d="M86.4264 28.0252C86.5018 28.0252 86.5772 28.0063 86.6526 27.9686L104.148 18.2594C104.318 18.1651 104.412 17.9766 104.393 17.7881C104.374 17.5995 104.242 17.4487 104.054 17.3922L81.0345 10.7937C80.9213 10.756 80.7894 10.7748 80.6763 10.8314L63.1808 20.5406C62.9546 20.6726 62.8792 20.9553 62.9923 21.1816C63.1243 21.4078 63.4071 21.4832 63.6333 21.3701L80.9591 11.7552L102.696 17.9766L86.2001 27.1202C85.9739 27.2522 85.8985 27.535 86.0116 27.7612C86.1059 27.9497 86.2567 28.0252 86.4264 28.0252Z" fill="#269449"/>
<path d="M79.5263 52.1002C79.6017 52.1002 79.6772 52.0813 79.7526 52.0436C79.8657 51.987 79.9411 51.8739 79.9788 51.7608L86.8789 27.6857C86.9543 27.4407 86.8035 27.1767 86.5584 27.1013L63.5391 20.5028L63.2752 21.4077L85.842 27.8743L79.2058 51.0255L57.0914 44.691L61.767 28.4021L60.862 28.1382L56.0545 44.8795C56.0168 44.9926 56.0357 45.1246 56.0923 45.2377C56.1488 45.3508 56.2619 45.4263 56.3751 45.464L79.3944 52.0625C79.4509 52.0813 79.4886 52.1002 79.5263 52.1002Z" fill="#269449"/>
<path d="M77.0003 33.2474C77.0757 33.2474 77.1511 33.2285 77.2265 33.1908L86.4833 28.0628L95.7212 30.7022C95.8343 30.7399 95.9663 30.7211 96.0794 30.6645L113.575 20.9553C113.744 20.8611 113.839 20.6725 113.82 20.484C113.801 20.2955 113.669 20.1447 113.481 20.0881L105.166 17.7126L112.255 13.7912C112.425 13.697 112.519 13.5085 112.5 13.3199C112.481 13.1314 112.349 12.9806 112.161 12.924L89.1415 6.32553C89.0284 6.28782 88.8965 6.30667 88.7833 6.36323L80.884 10.7559L70.6092 7.8149C70.4961 7.7772 70.3641 7.79605 70.251 7.85261L52.7556 17.5618C52.5859 17.6561 52.4916 17.8446 52.5105 18.0331C52.5293 18.2217 52.6613 18.3725 52.8498 18.4291L62.2197 21.1062L53.7925 25.7817C53.6228 25.8759 53.5285 26.0644 53.5474 26.253C53.5662 26.4415 53.6982 26.5923 53.8867 26.6489L76.9061 33.2474C76.9249 33.2474 76.9626 33.2474 77.0003 33.2474ZM86.4267 27.0825C86.3513 27.0825 86.2759 27.1014 86.2005 27.1391L76.9438 32.267L55.2064 26.0456L63.6337 21.3701C63.8033 21.2758 63.8976 21.0873 63.8787 20.8988C63.8599 20.7102 63.7279 20.5594 63.5394 20.5029L54.1695 17.8258L70.4961 8.7764L80.7709 11.7174C80.884 11.7551 81.016 11.7363 81.1291 11.6797L89.0284 7.28702L110.766 13.5085L103.677 17.4298C103.507 17.5241 103.413 17.7126 103.432 17.9012C103.451 18.0897 103.583 18.2405 103.771 18.2971L112.085 20.6725L95.7589 29.7219L86.521 27.0825C86.521 27.0825 86.4644 27.0825 86.4267 27.0825Z" fill="#269449"/>
<path d="M79.7529 52.0436L97.2483 42.3344C97.3614 42.2779 97.4368 42.1647 97.4745 42.0516L101.679 27.403L100.774 27.139L96.6262 41.5992L79.3004 51.2141L79.7529 52.0436Z" fill="#269449"/>
<path d="M80.4552 11.1351L81.3613 11.3948L77.4607 25.0053L76.5545 24.7456L80.4552 11.1351Z" fill="#269449"/>
<path d="M150.395 344.3C150.432 344.3 150.489 344.3 150.527 344.281L183.029 334.893C183.142 334.855 183.255 334.78 183.312 334.667C183.368 334.553 183.387 334.421 183.35 334.308L175.431 306.934C175.394 306.821 175.318 306.708 175.205 306.651C175.092 306.595 174.96 306.576 174.847 306.613L142.345 316.002C142.1 316.078 141.949 316.342 142.024 316.587L149.942 343.961C149.999 344.149 150.187 344.3 150.395 344.3ZM182.313 334.101L150.715 343.226L143.061 316.756L174.658 307.632L182.313 334.101Z" fill="#269449"/>
<path d="M182.897 334.894C183.066 334.894 183.217 334.8 183.311 334.649L193.039 317.003C193.096 316.889 193.115 316.757 193.077 316.644L185.159 289.27C185.083 289.025 184.82 288.874 184.574 288.95L152.072 298.338C151.959 298.376 151.846 298.451 151.789 298.565L142.061 316.211C141.929 316.437 142.024 316.72 142.25 316.852C142.476 316.984 142.759 316.889 142.891 316.663L152.525 299.187L184.386 289.986L192.116 316.72L182.482 334.196C182.35 334.423 182.444 334.705 182.67 334.837C182.746 334.875 182.821 334.894 182.897 334.894Z" fill="#269449"/>
<path d="M182.821 308.97C182.859 308.97 182.915 308.97 182.953 308.951C183.198 308.876 183.349 308.612 183.273 308.367L180.314 298.092C180.238 297.847 179.974 297.696 179.729 297.772L147.227 307.16C146.982 307.236 146.831 307.5 146.906 307.745C146.982 307.99 147.246 308.141 147.491 308.065L179.541 298.808L182.369 308.612C182.425 308.838 182.614 308.97 182.821 308.97Z" fill="#269449"/>
<path d="M150.846 333.045C151.016 333.045 151.167 332.951 151.261 332.8L153.467 328.803L157.464 331.009C157.69 331.141 157.973 331.047 158.105 330.821C158.237 330.594 158.142 330.312 157.916 330.18L153.505 327.748C153.278 327.616 152.996 327.71 152.864 327.936L150.432 332.348C150.3 332.574 150.394 332.857 150.62 332.989C150.677 333.026 150.771 333.045 150.846 333.045Z" fill="#269449"/>
<path d="M156.239 338.89C156.277 338.89 156.333 338.89 156.371 338.871C156.616 338.795 156.767 338.531 156.691 338.286L153.732 328.012C153.656 327.766 153.392 327.616 153.147 327.691C152.902 327.766 152.751 328.03 152.827 328.275L155.786 338.55C155.843 338.758 156.032 338.89 156.239 338.89Z" fill="#269449"/>
<path d="M161.102 330.066C161.272 330.066 161.423 329.972 161.517 329.821L163.723 325.825L167.72 328.03C167.946 328.162 168.229 328.068 168.361 327.842C168.493 327.616 168.398 327.333 168.172 327.201L163.76 324.769C163.534 324.637 163.251 324.731 163.119 324.957L160.687 329.369C160.555 329.595 160.65 329.878 160.876 330.01C160.951 330.048 161.027 330.066 161.102 330.066Z" fill="#269449"/>
<path d="M166.513 335.93C166.551 335.93 166.608 335.93 166.645 335.911C166.89 335.835 167.041 335.571 166.966 335.326L164.006 325.052C163.931 324.806 163.667 324.656 163.422 324.731C163.176 324.806 163.026 325.07 163.101 325.315L166.061 335.59C166.117 335.798 166.306 335.93 166.513 335.93Z" fill="#269449"/>
<path d="M152.827 339.889C152.864 339.889 152.921 339.889 152.959 339.87L170.077 334.93C170.322 334.855 170.473 334.591 170.397 334.346C170.322 334.101 170.058 333.95 169.813 334.025L152.695 338.965C152.45 339.04 152.299 339.304 152.374 339.549C152.431 339.757 152.619 339.889 152.827 339.889Z" fill="#269449"/>
<path d="M103.903 290.325C103.922 290.325 103.941 290.325 103.96 290.325L134.577 287.044C134.708 287.025 134.822 286.969 134.897 286.875C134.972 286.78 135.01 286.648 134.991 286.535L132.239 260.745C132.22 260.481 131.994 260.292 131.711 260.33L101.094 263.61C100.962 263.629 100.849 263.686 100.773 263.78C100.698 263.874 100.66 264.006 100.679 264.119L103.432 289.91C103.45 290.155 103.658 290.325 103.903 290.325ZM134.011 286.158L104.318 289.326L101.659 264.478L131.353 261.31L134.011 286.158Z" fill="#269449"/>
<path d="M131.768 261.273C131.899 261.273 132.05 261.216 132.145 261.103L143.664 246.831C143.833 246.624 143.796 246.322 143.588 246.171C143.381 246.002 143.098 246.039 142.928 246.247L131.409 260.518C131.24 260.726 131.277 261.027 131.485 261.178C131.56 261.235 131.673 261.273 131.768 261.273Z" fill="#269449"/>
<path d="M134.52 287.044C134.652 287.044 134.803 286.988 134.897 286.875L146.417 272.603C146.492 272.509 146.53 272.377 146.511 272.264L143.758 246.473C143.739 246.209 143.494 246.02 143.23 246.058L112.613 249.339C112.481 249.357 112.368 249.414 112.293 249.508L100.774 263.78C100.604 263.987 100.642 264.289 100.849 264.44C101.057 264.609 101.358 264.572 101.509 264.364L112.896 250.243L142.853 247.038L145.53 272.169L134.143 286.29C133.974 286.497 134.011 286.799 134.219 286.95C134.313 287.025 134.426 287.044 134.52 287.044Z" fill="#269449"/>
<path d="M113.462 272.999C113.481 272.999 113.5 272.999 113.519 272.999L121.569 272.132C121.833 272.113 122.021 271.868 121.983 271.604L120.947 261.932C120.928 261.668 120.683 261.48 120.419 261.518C120.155 261.536 119.966 261.782 120.004 262.045L120.984 271.246L113.858 272L112.878 262.8C112.859 262.536 112.614 262.347 112.35 262.385C112.086 262.404 111.897 262.649 111.935 262.913L112.972 272.584C113.028 272.829 113.217 272.999 113.462 272.999Z" fill="#269449"/>
<path d="M112.425 263.327C112.557 263.327 112.708 263.271 112.802 263.158L124.321 248.886C124.491 248.679 124.453 248.377 124.245 248.226C124.038 248.057 123.755 248.094 123.586 248.302L112.067 262.573C111.897 262.781 111.935 263.082 112.142 263.233C112.217 263.29 112.33 263.327 112.425 263.327Z" fill="#269449"/>
<path d="M120.494 262.479C120.626 262.479 120.777 262.423 120.871 262.309L132.39 248.038C132.56 247.83 132.522 247.529 132.315 247.378C132.107 247.208 131.825 247.246 131.655 247.453L120.136 261.725C119.966 261.932 120.004 262.234 120.211 262.385C120.287 262.441 120.381 262.479 120.494 262.479Z" fill="#269449"/>
<path d="M31.6593 284.687C31.8855 284.687 32.074 284.518 32.1306 284.291L36.8438 258.011C36.8626 257.879 36.8438 257.766 36.7684 257.652C36.693 257.558 36.5798 257.483 36.4667 257.464L5.26529 251.883C5.0202 251.846 4.75626 252.015 4.71855 252.26L0.00534291 278.541C-0.0323615 278.805 0.137316 279.05 0.382403 279.088L31.5838 284.687C31.6027 284.687 31.6216 284.687 31.6593 284.687ZM35.8069 258.312L31.2633 283.669L0.985682 278.24L5.52921 252.883L35.8069 258.312Z" fill="#269449"/>
<path d="M36.3532 258.407C36.4475 258.407 36.5417 258.388 36.6171 258.331L52.1142 247.547C52.3216 247.396 52.3781 247.095 52.2273 246.887C52.0765 246.68 51.7937 246.623 51.5674 246.774L36.0704 257.558C35.863 257.709 35.8065 258.011 35.9573 258.218C36.0704 258.331 36.2024 258.407 36.3532 258.407Z" fill="#269449"/>
<path d="M31.6592 284.687C31.7535 284.687 31.8477 284.669 31.9231 284.593L47.4202 273.809C47.5144 273.734 47.5898 273.621 47.6087 273.508L52.3219 247.227C52.3596 246.963 52.1899 246.718 51.9448 246.68L20.7434 241.081C20.6114 241.062 20.4983 241.081 20.3852 241.156L4.88817 251.94C4.68079 252.091 4.62422 252.393 4.77504 252.6C4.92586 252.807 5.20865 252.864 5.43489 252.713L20.7623 242.042L51.3038 247.51L46.7226 273.131L31.3953 283.801C31.1879 283.952 31.1313 284.254 31.2821 284.461C31.3576 284.612 31.5084 284.687 31.6592 284.687Z" fill="#269449"/>
<path d="M40.3692 264.496C40.4823 264.496 40.5766 264.458 40.6709 264.402L45.007 260.933C45.1013 260.857 45.1578 260.763 45.1767 260.65L46.9489 250.79C46.9866 250.526 46.8169 250.281 46.5718 250.243L15.3704 244.663C15.1253 244.625 14.8613 244.795 14.8236 245.04C14.7859 245.304 14.9556 245.549 15.2007 245.587L45.9496 251.092L44.2906 260.311L41.0668 262.894L42.6127 254.278C42.6504 254.014 42.4807 253.769 42.2356 253.731L11.0342 248.151C10.7891 248.113 10.5252 248.283 10.4875 248.528C10.4498 248.792 10.6194 249.037 10.8645 249.074L41.6135 254.579L39.9356 263.968C39.8979 264.157 39.9922 264.364 40.1618 264.458C40.1995 264.477 40.275 264.496 40.3692 264.496Z" fill="#269449"/>
<path d="M66.8393 337.193C67.0467 337.193 67.2352 337.061 67.2917 336.853L74.7197 311.251C74.7952 311.006 74.6443 310.742 74.3993 310.667L48.7971 303.239C48.552 303.163 48.2881 303.314 48.2127 303.559C48.1373 303.804 48.2881 304.068 48.5332 304.144L73.6828 311.44L66.5188 336.137L41.8216 328.973L46.8364 311.704C46.9118 311.459 46.761 311.195 46.5159 311.119C46.2708 311.044 46.0069 311.195 45.9315 311.44L40.7846 329.162C40.7469 329.275 40.7658 329.407 40.8224 329.52C40.8789 329.633 40.992 329.708 41.1052 329.746L66.7073 337.174C66.745 337.193 66.8016 337.193 66.8393 337.193Z" fill="#269449"/>
<path d="M66.8392 337.193C66.9146 337.193 66.99 337.174 67.0654 337.136L82.3173 328.747C82.4304 328.69 82.5058 328.577 82.5436 328.464L85.4092 318.623C85.4846 318.378 85.3338 318.114 85.0887 318.038C84.8436 317.963 84.5797 318.114 84.5043 318.359L81.6952 328.011L66.6129 336.307C66.3867 336.439 66.2924 336.721 66.4244 336.948C66.5186 337.098 66.6695 337.193 66.8392 337.193Z" fill="#269449"/>
<path d="M89.5192 303.201C89.7266 303.201 89.9151 303.069 89.9717 302.862C90.0471 302.617 89.8963 302.353 89.6512 302.277L64.049 294.849C63.804 294.774 63.54 294.925 63.4646 295.17C63.3892 295.415 63.54 295.679 63.7851 295.754L89.3873 303.182C89.425 303.201 89.4815 303.201 89.5192 303.201Z" fill="#269449"/>
<path d="M64.1053 317.171C64.1807 317.171 64.2561 317.152 64.3315 317.114L99.9068 297.545C100.077 297.451 100.171 297.262 100.152 297.074C100.133 296.885 100.001 296.735 99.8126 296.678L74.2104 289.25C74.0973 289.212 73.9653 289.231 73.8522 289.288L38.2769 308.857C38.1073 308.951 38.013 309.14 38.0318 309.328C38.0507 309.517 38.1827 309.668 38.3712 309.724L63.9733 317.152C64.011 317.171 64.0676 317.171 64.1053 317.171ZM98.4552 297.262L64.0487 316.191L39.7286 309.121L74.135 290.193L98.4552 297.262Z" fill="#269449"/>
<path d="M60.4854 307.575C60.6927 307.575 60.8813 307.443 60.9378 307.236L64.3691 295.415C64.4068 295.302 64.3879 295.17 64.3313 295.057L58.7321 284.895C58.6755 284.782 58.5624 284.706 58.4493 284.669C58.3361 284.631 58.2042 284.65 58.0911 284.707L42.8391 293.096C42.726 293.153 42.6506 293.266 42.6129 293.379C42.5752 293.492 42.594 293.624 42.6506 293.737L48.2499 303.899C48.3819 304.125 48.6646 304.2 48.8909 304.087C49.1171 303.955 49.2114 303.672 49.0794 303.446L43.7063 293.699L58.1288 285.762L63.4075 295.339L60.0329 306.972C59.9575 307.217 60.1083 307.481 60.3534 307.556C60.3911 307.575 60.4477 307.575 60.4854 307.575Z" fill="#269449"/>
<path d="M79.8667 321.752C79.9421 321.752 80.0175 321.733 80.093 321.696L95.3449 313.306C95.5711 313.174 95.6654 312.891 95.5334 312.665L89.9341 302.503C89.8022 302.277 89.5194 302.183 89.2931 302.315C89.0669 302.447 88.9726 302.73 89.1046 302.956L94.4777 312.703L80.0553 320.64L74.6822 310.893C74.5502 310.667 74.2674 310.573 74.0412 310.704C73.815 310.836 73.7207 311.119 73.8527 311.345L79.452 321.507C79.5085 321.62 79.6217 321.696 79.7348 321.733C79.7725 321.752 79.829 321.752 79.8667 321.752Z" fill="#269449"/>
<path d="M134.878 374.748C134.973 374.748 135.086 374.71 135.161 374.653C135.256 374.578 135.331 374.465 135.35 374.352L139.233 347.599C139.271 347.335 139.083 347.109 138.838 347.072L98.7187 341.246C98.6056 341.227 98.4736 341.265 98.3605 341.34C98.2662 341.416 98.1908 341.529 98.172 341.642L94.2883 368.394C94.2506 368.658 94.4391 368.884 94.6842 368.922L134.803 374.748C134.841 374.748 134.86 374.748 134.878 374.748ZM138.234 347.939L134.483 373.748L95.2875 368.055L99.0392 342.245L138.234 347.939Z" fill="#269449"/>
<path d="M138.762 348.014C138.818 348.014 138.875 347.995 138.932 347.976C139.177 347.882 139.29 347.618 139.195 347.373L133.615 332.913C133.558 332.762 133.408 332.649 133.238 332.611L108.164 328.973C107.994 328.954 107.824 329.01 107.73 329.142L98.2659 341.416C98.1151 341.623 98.1528 341.925 98.3602 342.075C98.5676 342.245 98.8692 342.189 99.0201 341.981L108.315 329.915L132.842 333.479L138.328 347.694C138.404 347.882 138.573 348.014 138.762 348.014Z" fill="#269449"/>
<path d="M121.437 355.725C121.531 355.725 121.644 355.687 121.72 355.631C121.814 355.555 121.889 355.442 121.908 355.329L123.36 345.299L123.643 331.631C123.643 331.367 123.435 331.16 123.171 331.141C122.907 331.16 122.7 331.348 122.681 331.612L122.417 345.224L121.041 354.726L113.613 353.651L115.008 344.093L118.609 331.028C118.684 330.783 118.533 330.519 118.288 330.443C118.043 330.368 117.779 330.519 117.704 330.764L114.084 343.885L112.614 353.972C112.576 354.235 112.765 354.462 113.01 354.499L121.361 355.706C121.38 355.725 121.399 355.725 121.437 355.725Z" fill="#269449"/>
</svg>
