<svg width="102" height="375" viewBox="0 0 102 375" fill="none" xmlns="http://www.w3.org/2000/svg">
<path d="M104.156 101.419C104.175 101.419 104.194 101.419 104.212 101.419L134.829 98.1388C134.961 98.12 135.075 98.0634 135.15 97.9691C135.225 97.8749 135.263 97.7429 135.244 97.6298L132.492 71.8391C132.473 71.5752 132.247 71.3867 131.964 71.4244L101.347 74.7048C101.215 74.7236 101.102 74.7802 101.026 74.8744C100.951 74.9687 100.913 75.1007 100.932 75.2138L103.685 101.004C103.703 101.231 103.911 101.419 104.156 101.419ZM134.264 97.2527L104.571 100.42L101.912 75.572L131.606 72.4047L134.264 97.2527Z" fill="#269449"/>
<path d="M134.773 98.1388C134.905 98.1388 135.056 98.0822 135.15 97.9691L146.669 83.6975C146.745 83.6033 146.783 83.4713 146.764 83.3582L144.011 57.5675C143.992 57.3036 143.747 57.115 143.483 57.1528L112.866 60.4332C112.734 60.452 112.621 60.5086 112.546 60.6028L101.027 74.8744C100.857 75.0818 100.895 75.3834 101.102 75.5343C101.31 75.7039 101.611 75.6662 101.762 75.4589L113.149 61.3381L143.106 58.1331L145.783 83.2639L134.396 97.3847C134.227 97.5921 134.264 97.8937 134.472 98.0445C134.566 98.12 134.679 98.1388 134.773 98.1388Z" fill="#269449"/>
<path d="M67.0922 148.287C67.2996 148.287 67.4881 148.155 67.5447 147.948L74.9727 122.346C75.0481 122.101 74.8973 121.837 74.6522 121.761L49.05 114.333C48.8049 114.258 48.541 114.409 48.4656 114.654C48.3902 114.899 48.541 115.163 48.7861 115.238L73.9358 122.534L66.7717 147.232L42.0745 140.068L47.0894 122.798C47.1648 122.553 47.0139 122.289 46.7688 122.214C46.5238 122.139 46.2598 122.289 46.1844 122.534L41.0376 140.256C40.9999 140.369 41.0187 140.501 41.0753 140.614C41.1319 140.727 41.245 140.803 41.3581 140.841L66.9602 148.269C66.9979 148.287 67.0545 148.287 67.0922 148.287Z" fill="#269449"/>
<path d="M67.0921 148.287C67.1675 148.287 67.2429 148.269 67.3183 148.231L82.5703 139.841C82.6834 139.785 82.7588 139.672 82.7965 139.559L85.6621 129.717C85.7375 129.472 85.5867 129.208 85.3416 129.133C85.0965 129.058 84.8326 129.208 84.7572 129.453L81.9481 139.106L66.8658 147.401C66.6396 147.533 66.5453 147.816 66.6773 148.042C66.7716 148.193 66.9224 148.287 67.0921 148.287Z" fill="#269449"/>
<path d="M89.7722 114.296C89.9795 114.296 90.1681 114.164 90.2246 113.956C90.3 113.711 90.1492 113.447 89.9041 113.372L64.302 105.944C64.0569 105.868 63.793 106.019 63.7175 106.264C63.6421 106.509 63.7929 106.773 64.038 106.849L89.6402 114.277C89.6779 114.296 89.7344 114.296 89.7722 114.296Z" fill="#269449"/>
<path d="M64.3582 128.266C64.4337 128.266 64.5091 128.247 64.5845 128.209L100.16 108.64C100.329 108.546 100.424 108.357 100.405 108.169C100.386 107.98 100.254 107.829 100.066 107.773L74.4634 100.345C74.3502 100.307 74.2183 100.326 74.1051 100.382L38.5299 119.952C38.3602 120.046 38.2659 120.234 38.2848 120.423C38.3036 120.611 38.4356 120.762 38.6241 120.819L64.2263 128.247C64.264 128.266 64.3205 128.266 64.3582 128.266ZM98.7081 108.357L64.3017 127.285L39.9815 120.216L74.3879 101.287L98.7081 108.357Z" fill="#269449"/>
<path d="M60.7383 118.67C60.9457 118.67 61.1342 118.538 61.1908 118.33L64.622 106.51C64.6597 106.396 64.6408 106.264 64.5843 106.151L58.985 95.9896C58.9284 95.8765 58.8153 95.8011 58.7022 95.7634C58.5891 95.7257 58.4571 95.7445 58.344 95.8011L43.092 104.191C42.9789 104.247 42.9035 104.36 42.8658 104.473C42.8281 104.587 42.847 104.718 42.9035 104.832L48.5028 114.993C48.6348 115.22 48.9176 115.295 49.1438 115.182C49.37 115.05 49.4643 114.767 49.3323 114.541L43.9593 104.794L58.3817 96.8569L63.6605 106.434L60.2858 118.066C60.2104 118.311 60.3612 118.575 60.6063 118.651C60.644 118.67 60.7006 118.67 60.7383 118.67Z" fill="#269449"/>
<path d="M80.1197 132.847C80.1951 132.847 80.2705 132.828 80.3459 132.79L95.5978 124.401C95.8241 124.269 95.9183 123.986 95.7864 123.76L90.1871 113.598C90.0551 113.372 89.7723 113.278 89.5461 113.41C89.3198 113.542 89.2256 113.824 89.3575 114.051L94.7306 123.798L80.3082 131.735L74.9351 121.988C74.8032 121.761 74.5204 121.667 74.2941 121.799C74.0679 121.931 73.9736 122.214 74.1056 122.44L79.7049 132.602C79.7615 132.715 79.8746 132.79 79.9877 132.828C80.0254 132.847 80.082 132.847 80.1197 132.847Z" fill="#269449"/>
<path d="M135.131 185.842C135.226 185.842 135.339 185.805 135.414 185.748C135.508 185.673 135.584 185.559 135.603 185.446L139.486 158.694C139.524 158.43 139.336 158.204 139.09 158.166L98.9716 152.341C98.8585 152.322 98.7266 152.36 98.6134 152.435C98.5192 152.51 98.4438 152.624 98.4249 152.737L94.5412 179.489C94.5035 179.753 94.692 179.979 94.9371 180.017L135.056 185.842C135.094 185.842 135.113 185.842 135.131 185.842ZM138.487 159.034L134.735 184.843L95.5404 179.15L99.2921 153.34L138.487 159.034Z" fill="#269449"/>
<path d="M139.015 159.109C139.071 159.109 139.128 159.09 139.184 159.071C139.43 158.977 139.543 158.713 139.448 158.468L133.868 144.008C133.811 143.857 133.661 143.744 133.491 143.706L108.417 140.068C108.247 140.049 108.077 140.105 107.983 140.237L98.5189 152.51C98.368 152.718 98.4058 153.019 98.6131 153.17C98.8205 153.34 99.1222 153.283 99.273 153.076L108.567 141.01L133.095 144.592L138.581 158.807C138.657 158.977 138.826 159.109 139.015 159.109Z" fill="#269449"/>
<path d="M86.6803 216.93C86.7557 216.93 86.8311 216.912 86.9065 216.874L104.402 207.165C104.572 207.07 104.666 206.882 104.647 206.693C104.628 206.505 104.496 206.354 104.308 206.297L81.2884 199.699C81.1753 199.661 81.0433 199.68 80.9302 199.737L63.4347 209.446C63.2085 209.578 63.1331 209.861 63.2462 210.087C63.3782 210.313 63.661 210.388 63.8872 210.275L81.213 200.66L102.95 206.882L86.4541 216.025C86.2278 216.157 86.1524 216.44 86.2655 216.666C86.3598 216.855 86.5106 216.93 86.6803 216.93Z" fill="#269449"/>
<path d="M79.7792 241.005C79.8547 241.005 79.9301 240.987 80.0055 240.949C80.1186 240.892 80.194 240.779 80.2317 240.666L87.1319 216.591C87.2073 216.346 87.0565 216.082 86.8114 216.007L63.7921 209.408L63.5281 210.313L86.0949 216.78L79.4588 239.931L57.3444 233.596L62.0199 217.307L61.1149 217.043L56.3075 233.785C56.2698 233.898 56.2886 234.03 56.3452 234.143C56.4017 234.256 56.5149 234.332 56.628 234.369L79.6473 240.968C79.7038 240.987 79.7415 241.005 79.7792 241.005Z" fill="#269449"/>
<path d="M77.2532 222.153C77.3287 222.153 77.4041 222.134 77.4795 222.096L86.7362 216.968L95.9741 219.608C96.0872 219.645 96.2192 219.626 96.3323 219.57L113.828 209.861C113.997 209.766 114.092 209.578 114.073 209.389C114.054 209.201 113.922 209.05 113.733 208.993L105.419 206.618L112.508 202.697C112.678 202.602 112.772 202.414 112.753 202.225C112.734 202.037 112.602 201.886 112.414 201.829L89.3945 195.231C89.2813 195.193 89.1494 195.212 89.0363 195.269L81.1369 199.661L70.8621 196.72C70.749 196.682 70.617 196.701 70.5039 196.758L53.0085 206.467C52.8388 206.561 52.7446 206.75 52.7634 206.938C52.7823 207.127 52.9142 207.278 53.1027 207.334L62.4726 210.011L54.0454 214.687C53.8757 214.781 53.7815 214.97 53.8003 215.158C53.8192 215.347 53.9511 215.498 54.1397 215.554L77.159 222.153C77.1778 222.153 77.2155 222.153 77.2532 222.153ZM86.6797 215.988C86.6043 215.988 86.5288 216.007 86.4534 216.044L77.1967 221.172L55.4594 214.951L63.8866 210.275C64.0563 210.181 64.1505 209.993 64.1317 209.804C64.1128 209.616 63.9808 209.465 63.7923 209.408L54.4224 206.731L70.749 197.682L81.0238 200.623C81.1369 200.66 81.2689 200.642 81.382 200.585L89.2813 196.192L111.019 202.414L103.93 206.335C103.76 206.429 103.666 206.618 103.685 206.806C103.704 206.995 103.836 207.146 104.024 207.202L112.338 209.578L96.0118 218.627L86.7739 215.988C86.7739 215.988 86.7174 215.988 86.6797 215.988Z" fill="#269449"/>
<path d="M80.0058 240.949L97.5012 231.24C97.6143 231.183 97.6898 231.07 97.7275 230.957L101.932 216.308L101.027 216.044L96.8791 230.504L79.5533 240.119L80.0058 240.949Z" fill="#269449"/>
<path d="M80.714 200.042L81.6201 200.302L77.7195 213.912L76.8133 213.653L80.714 200.042Z" fill="#269449"/>
<path d="M37.7751 175.68C37.8694 175.68 37.9637 175.643 38.0391 175.605L55.4591 163.596C55.6099 163.483 55.6853 163.294 55.6476 163.106C55.6099 162.917 55.4591 162.766 55.2706 162.747L29.1028 157.94C28.9709 157.921 28.8578 157.94 28.7446 158.015L11.3246 170.025C11.1738 170.138 11.0984 170.326 11.1361 170.515C11.1738 170.703 11.3246 170.854 11.5131 170.873L37.6809 175.68C37.7186 175.68 37.7374 175.68 37.7751 175.68ZM53.9886 163.464L37.662 174.719L12.814 170.157L29.1405 158.901L53.9886 163.464Z" fill="#269449"/>
<path d="M36.5684 182.222C36.6627 182.222 36.7569 182.185 36.8323 182.147L54.2524 170.138C54.3466 170.062 54.422 169.949 54.4409 169.836L55.6475 163.294L54.7237 163.125L53.5548 169.478L36.4553 181.261L10.9474 176.567L12.0597 170.496L11.1359 170.326L9.92934 176.868C9.87278 177.132 10.0425 177.377 10.3064 177.415L36.4741 182.222C36.5118 182.222 36.5307 182.222 36.5684 182.222Z" fill="#269449"/>
<path d="M37.32 175.11L38.2471 175.28L37.0445 181.825L36.1174 181.655L37.32 175.11Z" fill="#269449"/>
<path d="M34.891 200.51C34.9852 200.51 35.0795 200.472 35.1549 200.434C35.2492 200.359 35.3246 200.246 35.3435 200.133L38.9443 180.507L38.0205 180.337L34.4951 199.492L9.26997 194.854L12.475 177.396L11.5512 177.226L8.25194 195.156C8.23308 195.287 8.25192 195.401 8.32733 195.514C8.40274 195.608 8.51588 195.683 8.62899 195.702L34.7967 200.51C34.8344 200.51 34.8721 200.51 34.891 200.51Z" fill="#269449"/>
<path d="M35.1547 200.434L48.7099 191.102C48.8042 191.027 48.8796 190.914 48.8984 190.801L52.4805 171.269L51.5567 171.099L48.0123 190.424L34.6268 199.661L35.1547 200.434Z" fill="#269449"/>
<path d="M86.6793 28.0251C86.7547 28.0251 86.8301 28.0062 86.9055 27.9685L104.401 18.2593C104.571 18.1651 104.665 17.9765 104.646 17.788C104.627 17.5995 104.495 17.4487 104.307 17.3921L81.2874 10.7936C81.1743 10.7559 81.0423 10.7748 80.9292 10.8313L63.4338 20.5405C63.2075 20.6725 63.1321 20.9553 63.2452 21.1815C63.3772 21.4078 63.66 21.4832 63.8862 21.37L81.212 11.7551L102.949 17.9765L86.4531 27.1202C86.2268 27.2521 86.1514 27.5349 86.2645 27.7612C86.3588 27.9497 86.5096 28.0251 86.6793 28.0251Z" fill="#269449"/>
<path d="M79.7792 52.1002C79.8547 52.1002 79.9301 52.0813 80.0055 52.0436C80.1186 51.987 80.194 51.8739 80.2317 51.7608L87.1319 27.6857C87.2073 27.4407 87.0565 27.1767 86.8114 27.1013L63.7921 20.5028L63.5281 21.4077L86.0949 27.8743L79.4588 51.0255L57.3444 44.691L62.0199 28.4021L61.1149 28.1382L56.3075 44.8795C56.2698 44.9926 56.2886 45.1246 56.3452 45.2377C56.4017 45.3508 56.5149 45.4263 56.628 45.464L79.6473 52.0625C79.7038 52.0813 79.7415 52.1002 79.7792 52.1002Z" fill="#269449"/>
<path d="M77.2532 33.2474C77.3287 33.2474 77.4041 33.2285 77.4795 33.1908L86.7362 28.0628L95.9741 30.7022C96.0872 30.7399 96.2192 30.7211 96.3323 30.6645L113.828 20.9553C113.997 20.8611 114.092 20.6725 114.073 20.484C114.054 20.2955 113.922 20.1447 113.733 20.0881L105.419 17.7126L112.508 13.7912C112.678 13.697 112.772 13.5085 112.753 13.3199C112.734 13.1314 112.602 12.9806 112.414 12.924L89.3945 6.32553C89.2813 6.28782 89.1494 6.30667 89.0363 6.36323L81.1369 10.7559L70.8621 7.8149C70.749 7.7772 70.617 7.79605 70.5039 7.85261L53.0085 17.5618C52.8388 17.6561 52.7446 17.8446 52.7634 18.0331C52.7823 18.2217 52.9142 18.3725 53.1027 18.4291L62.4726 21.1062L54.0454 25.7817C53.8757 25.8759 53.7815 26.0644 53.8003 26.253C53.8192 26.4415 53.9511 26.5923 54.1397 26.6489L77.159 33.2474C77.1778 33.2474 77.2155 33.2474 77.2532 33.2474ZM86.6797 27.0825C86.6043 27.0825 86.5288 27.1014 86.4534 27.1391L77.1967 32.267L55.4594 26.0456L63.8866 21.3701C64.0563 21.2758 64.1505 21.0873 64.1317 20.8988C64.1128 20.7102 63.9808 20.5594 63.7923 20.5029L54.4224 17.8258L70.749 8.7764L81.0238 11.7174C81.1369 11.7551 81.2689 11.7363 81.382 11.6797L89.2813 7.28702L111.019 13.5085L103.93 17.4298C103.76 17.5241 103.666 17.7126 103.685 17.9012C103.704 18.0897 103.836 18.2405 104.024 18.2971L112.338 20.6725L96.0118 29.7219L86.7739 27.0825C86.7739 27.0825 86.7174 27.0825 86.6797 27.0825Z" fill="#269449"/>
<path d="M80.0058 52.0436L97.5012 42.3344C97.6143 42.2779 97.6898 42.1647 97.7275 42.0516L101.932 27.403L101.027 27.139L96.8791 41.5992L79.5533 51.2141L80.0058 52.0436Z" fill="#269449"/>
<path d="M80.7081 11.1351L81.6143 11.3948L77.7136 25.0054L76.8074 24.7457L80.7081 11.1351Z" fill="#269449"/>
<path d="M104.156 290.325C104.175 290.325 104.194 290.325 104.212 290.325L134.829 287.044C134.961 287.026 135.075 286.969 135.15 286.875C135.225 286.78 135.263 286.648 135.244 286.535L132.492 260.745C132.473 260.481 132.247 260.292 131.964 260.33L101.347 263.61C101.215 263.629 101.102 263.686 101.026 263.78C100.951 263.874 100.913 264.006 100.932 264.119L103.685 289.91C103.703 290.155 103.911 290.325 104.156 290.325ZM134.264 286.158L104.571 289.326L101.912 264.478L131.606 261.31L134.264 286.158Z" fill="#269449"/>
<path d="M134.773 287.044C134.905 287.044 135.056 286.988 135.15 286.875L146.669 272.603C146.745 272.509 146.783 272.377 146.764 272.264L144.011 246.473C143.992 246.209 143.747 246.02 143.483 246.058L112.866 249.339C112.734 249.357 112.621 249.414 112.546 249.508L101.027 263.78C100.857 263.987 100.895 264.289 101.102 264.44C101.31 264.609 101.611 264.572 101.762 264.364L113.149 250.243L143.106 247.038L145.783 272.169L134.396 286.29C134.227 286.497 134.264 286.799 134.472 286.95C134.566 287.025 134.679 287.044 134.773 287.044Z" fill="#269449"/>
<path d="M31.9122 284.687C32.1384 284.687 32.327 284.518 32.3835 284.292L37.0967 258.011C37.1156 257.879 37.0967 257.766 37.0213 257.652C36.9459 257.558 36.8328 257.483 36.7197 257.464L5.51822 251.884C5.27313 251.846 5.00919 252.015 4.97148 252.261L0.258273 278.541C0.220568 278.805 0.390246 279.05 0.635333 279.088L31.8368 284.687C31.8556 284.687 31.8745 284.687 31.9122 284.687ZM36.0598 258.312L31.5163 283.669L1.23861 278.24L5.78214 252.883L36.0598 258.312Z" fill="#269449"/>
<path d="M36.6061 258.407C36.7004 258.407 36.7947 258.388 36.8701 258.331L52.3671 247.547C52.5745 247.396 52.631 247.095 52.4802 246.887C52.3294 246.68 52.0466 246.623 51.8204 246.774L36.3233 257.558C36.1159 257.709 36.0594 258.011 36.2102 258.218C36.3233 258.331 36.4553 258.407 36.6061 258.407Z" fill="#269449"/>
<path d="M31.9121 284.688C32.0064 284.688 32.1006 284.669 32.1761 284.593L47.6731 273.809C47.7674 273.734 47.8428 273.621 47.8616 273.508L52.5748 247.227C52.6125 246.963 52.4429 246.718 52.1978 246.68L20.9963 241.081C20.8644 241.062 20.7512 241.081 20.6381 241.156L5.1411 251.94C4.93372 252.091 4.87714 252.393 5.02797 252.6C5.17879 252.807 5.46158 252.864 5.68782 252.713L21.0152 242.042L51.5568 247.51L46.9755 273.131L31.6482 283.801C31.4408 283.952 31.3843 284.254 31.5351 284.461C31.6105 284.612 31.7613 284.688 31.9121 284.688Z" fill="#269449"/>
<path d="M40.6221 264.496C40.7353 264.496 40.8295 264.458 40.9238 264.402L45.2599 260.933C45.3542 260.857 45.4108 260.763 45.4296 260.65L47.2018 250.79C47.2395 250.526 47.0698 250.281 46.8247 250.243L15.6233 244.663C15.3782 244.625 15.1143 244.795 15.0766 245.04C15.0388 245.304 15.2085 245.549 15.4536 245.587L46.2026 251.092L44.5435 260.311L41.3197 262.894L42.8656 254.278C42.9033 254.014 42.7337 253.769 42.4886 253.731L11.2871 248.151C11.0421 248.113 10.7781 248.283 10.7404 248.528C10.7027 248.792 10.8724 249.037 11.1175 249.074L41.8664 254.579L40.1885 263.968C40.1508 264.157 40.2451 264.364 40.4148 264.458C40.4525 264.477 40.5279 264.496 40.6221 264.496Z" fill="#269449"/>
<path d="M67.0922 337.193C67.2996 337.193 67.4881 337.061 67.5447 336.853L74.9727 311.251C75.0481 311.006 74.8973 310.742 74.6522 310.667L49.05 303.239C48.8049 303.163 48.541 303.314 48.4656 303.559C48.3902 303.804 48.541 304.068 48.7861 304.144L73.9358 311.44L66.7717 336.137L42.0745 328.973L47.0894 311.704C47.1648 311.459 47.0139 311.195 46.7688 311.119C46.5238 311.044 46.2598 311.195 46.1844 311.44L41.0376 329.161C40.9999 329.275 41.0187 329.406 41.0753 329.52C41.1319 329.633 41.245 329.708 41.3581 329.746L66.9602 337.174C66.9979 337.193 67.0545 337.193 67.0922 337.193Z" fill="#269449"/>
<path d="M67.0921 337.193C67.1675 337.193 67.2429 337.174 67.3183 337.136L82.5703 328.747C82.6834 328.69 82.7588 328.577 82.7965 328.464L85.6621 318.623C85.7375 318.378 85.5867 318.114 85.3416 318.038C85.0965 317.963 84.8326 318.114 84.7572 318.359L81.9481 328.011L66.8658 336.307C66.6396 336.439 66.5453 336.721 66.6773 336.948C66.7716 337.098 66.9224 337.193 67.0921 337.193Z" fill="#269449"/>
<path d="M89.7722 303.201C89.9795 303.201 90.1681 303.069 90.2246 302.862C90.3 302.617 90.1492 302.353 89.9041 302.277L64.302 294.849C64.0569 294.774 63.793 294.925 63.7175 295.17C63.6421 295.415 63.7929 295.679 64.038 295.754L89.6402 303.182C89.6779 303.201 89.7344 303.201 89.7722 303.201Z" fill="#269449"/>
<path d="M64.3582 317.171C64.4337 317.171 64.5091 317.152 64.5845 317.114L100.16 297.545C100.329 297.451 100.424 297.262 100.405 297.074C100.386 296.885 100.254 296.734 100.066 296.678L74.4634 289.25C74.3502 289.212 74.2183 289.231 74.1051 289.288L38.5299 308.857C38.3602 308.951 38.2659 309.14 38.2848 309.328C38.3036 309.517 38.4356 309.668 38.6241 309.724L64.2263 317.152C64.264 317.171 64.3205 317.171 64.3582 317.171ZM98.7081 297.262L64.3017 316.191L39.9815 309.121L74.3879 290.193L98.7081 297.262Z" fill="#269449"/>
<path d="M60.7383 307.575C60.9457 307.575 61.1342 307.443 61.1908 307.236L64.622 295.415C64.6597 295.302 64.6408 295.17 64.5843 295.057L58.985 284.895C58.9284 284.782 58.8153 284.706 58.7022 284.669C58.5891 284.631 58.4571 284.65 58.344 284.706L43.092 293.096C42.9789 293.152 42.9035 293.266 42.8658 293.379C42.8281 293.492 42.847 293.624 42.9035 293.737L48.5028 303.899C48.6348 304.125 48.9176 304.2 49.1438 304.087C49.37 303.955 49.4643 303.672 49.3323 303.446L43.9593 293.699L58.3817 285.762L63.6605 295.339L60.2858 306.972C60.2104 307.217 60.3612 307.481 60.6063 307.556C60.644 307.575 60.7006 307.575 60.7383 307.575Z" fill="#269449"/>
<path d="M80.1197 321.752C80.1951 321.752 80.2705 321.733 80.3459 321.696L95.5978 313.306C95.8241 313.174 95.9183 312.891 95.7864 312.665L90.1871 302.503C90.0551 302.277 89.7723 302.183 89.5461 302.315C89.3198 302.447 89.2256 302.73 89.3575 302.956L94.7306 312.703L80.3082 320.64L74.9351 310.893C74.8032 310.667 74.5204 310.573 74.2941 310.704C74.0679 310.836 73.9736 311.119 74.1056 311.345L79.7049 321.507C79.7615 321.62 79.8746 321.696 79.9877 321.733C80.0254 321.752 80.082 321.752 80.1197 321.752Z" fill="#269449"/>
<path d="M135.131 374.748C135.226 374.748 135.339 374.71 135.414 374.653C135.508 374.578 135.584 374.465 135.603 374.352L139.486 347.599C139.524 347.335 139.336 347.109 139.09 347.072L98.9716 341.246C98.8585 341.227 98.7266 341.265 98.6134 341.34C98.5192 341.416 98.4438 341.529 98.4249 341.642L94.5412 368.394C94.5035 368.658 94.692 368.884 94.9371 368.922L135.056 374.748C135.094 374.748 135.113 374.748 135.131 374.748ZM138.487 347.939L134.735 373.748L95.5404 368.055L99.2921 342.245L138.487 347.939Z" fill="#269449"/>
<path d="M139.015 348.014C139.071 348.014 139.128 347.995 139.184 347.976C139.43 347.882 139.543 347.618 139.448 347.373L133.868 332.913C133.811 332.762 133.661 332.649 133.491 332.611L108.417 328.973C108.247 328.954 108.077 329.01 107.983 329.142L98.5189 341.416C98.368 341.623 98.4058 341.925 98.6131 342.075C98.8205 342.245 99.1222 342.189 99.273 341.981L108.567 329.915L133.095 333.479L138.581 347.694C138.657 347.882 138.826 348.014 139.015 348.014Z" fill="#269449"/>
</svg>
