<svg width="174" height="375" viewBox="0 0 174 375" fill="none" xmlns="http://www.w3.org/2000/svg">
<path d="M22.7024 155.046C22.6647 155.046 22.6081 155.046 22.5704 155.027L-9.93186 145.638C-10.045 145.601 -10.1581 145.525 -10.2146 145.412C-10.2712 145.299 -10.2901 145.167 -10.2524 145.054L-2.33417 117.68C-2.29646 117.566 -2.22105 117.453 -2.10793 117.397C-1.99481 117.34 -1.86284 117.321 -1.74972 117.359L30.7526 126.748C30.9976 126.823 31.1485 127.087 31.0731 127.332L23.1549 154.707C23.0983 154.895 22.9098 155.046 22.7024 155.046ZM-9.21545 144.847L22.3819 153.971L30.0362 127.502L-1.56119 118.377L-9.21545 144.847Z" fill="#269449"/>
<path d="M-9.79985 145.639C-9.96953 145.639 -10.1204 145.545 -10.2146 145.394L-19.9427 127.748C-19.9992 127.635 -20.0181 127.503 -19.9804 127.39L-12.0622 100.016C-11.9868 99.7705 -11.7228 99.6196 -11.4778 99.6951L21.0245 109.084C21.1376 109.121 21.2508 109.197 21.3073 109.31L31.0354 126.956C31.1673 127.182 31.0731 127.465 30.8468 127.597C30.6206 127.729 30.3378 127.635 30.2058 127.409L20.5721 109.932L-11.2892 100.732L-19.0189 127.465L-9.38509 144.942C-9.25312 145.168 -9.34738 145.451 -9.57362 145.583C-9.64903 145.621 -9.72444 145.639 -9.79985 145.639Z" fill="#269449"/>
<path d="M-9.7243 119.716C-9.76201 119.716 -9.81857 119.716 -9.85628 119.697C-10.1014 119.622 -10.2522 119.358 -10.1768 119.112L-7.21688 108.838C-7.14147 108.593 -6.87753 108.442 -6.63245 108.517L25.8698 117.906C26.1149 117.981 26.2658 118.245 26.1903 118.49C26.1149 118.735 25.851 118.886 25.6059 118.811L-6.44392 109.554L-9.27184 119.358C-9.3284 119.584 -9.51692 119.716 -9.7243 119.716Z" fill="#269449"/>
<path d="M22.2498 143.791C22.0801 143.791 21.9293 143.697 21.8351 143.546L19.6293 139.549L15.6325 141.755C15.4062 141.887 15.1234 141.792 14.9915 141.566C14.8595 141.34 14.9538 141.057 15.18 140.925L19.5916 138.493C19.8178 138.361 20.1006 138.455 20.2326 138.682L22.6646 143.093C22.7965 143.32 22.7023 143.602 22.476 143.734C22.4195 143.772 22.3252 143.791 22.2498 143.791Z" fill="#269449"/>
<path d="M16.8582 149.635C16.8205 149.635 16.7639 149.635 16.7262 149.616C16.4811 149.541 16.3303 149.277 16.4057 149.032L19.3656 138.757C19.441 138.512 19.705 138.361 19.9501 138.437C20.1952 138.512 20.346 138.776 20.2706 139.021L17.3107 149.296C17.2541 149.503 17.0656 149.635 16.8582 149.635Z" fill="#269449"/>
<path d="M11.994 140.812C11.8243 140.812 11.6735 140.718 11.5792 140.567L9.37342 136.57L5.37661 138.776C5.15038 138.908 4.86758 138.814 4.73561 138.587C4.60364 138.361 4.69791 138.078 4.92414 137.946L9.33571 135.514C9.56194 135.382 9.84474 135.477 9.97671 135.703L12.4087 140.115C12.5407 140.341 12.4464 140.624 12.2202 140.756C12.1448 140.793 12.0694 140.812 11.994 140.812Z" fill="#269449"/>
<path d="M6.58331 146.675C6.54561 146.675 6.48905 146.675 6.45134 146.656C6.20625 146.581 6.05543 146.317 6.13084 146.072L9.09074 135.797C9.16615 135.552 9.43008 135.401 9.67517 135.477C9.92026 135.552 10.0711 135.816 9.99567 136.061L7.03577 146.336C6.97922 146.543 6.7907 146.675 6.58331 146.675Z" fill="#269449"/>
<path d="M20.2705 150.634C20.2328 150.634 20.1763 150.634 20.1386 150.615L3.02019 145.676C2.7751 145.601 2.62428 145.337 2.69969 145.092C2.7751 144.847 3.03905 144.696 3.28413 144.771L20.4025 149.711C20.6476 149.786 20.7984 150.05 20.723 150.295C20.6664 150.502 20.4779 150.634 20.2705 150.634Z" fill="#269449"/>
<path d="M-1.29716 238.262C-1.5611 238.262 -1.76848 238.055 -1.76848 237.791L-2.05127 216.449C-2.05127 216.317 -2.01356 216.204 -1.9193 216.11C-1.82503 216.016 -1.71192 215.978 -1.57995 215.959L27.7551 215.563C28.019 215.563 28.2264 215.771 28.2264 216.035L28.5092 237.376C28.5092 237.508 28.4715 237.621 28.3772 237.715C28.2829 237.81 28.1698 237.847 28.0378 237.866L-1.29716 238.262C-1.2783 238.262 -1.2783 238.262 -1.29716 238.262ZM-1.08977 216.921L-0.806976 237.319L27.5854 236.942L27.3026 216.544L-1.08977 216.921Z" fill="#269449"/>
<path d="M13.9549 216.242L13.7852 203.384L-8.70625 203.686L-8.7251 202.743L14.2377 202.442C14.5016 202.442 14.709 202.649 14.709 202.913L14.8975 216.242H13.9549Z" fill="#269449"/>
<path d="M18.121 216.468C17.7251 215.94 17.4989 215.299 17.4989 214.639L17.48 213.621C17.48 213.037 17.8193 212.509 18.3472 212.283C18.8751 212.057 19.4972 212.17 19.912 212.585L22.853 215.488C22.9662 215.601 23.0793 215.733 23.1924 215.884L22.4194 216.431C22.3629 216.336 22.2875 216.242 22.1932 216.167L19.2522 213.263C19.1013 213.131 18.894 213.075 18.7243 213.169C18.5358 213.244 18.4226 213.433 18.4226 213.64L18.4415 214.658C18.4415 215.13 18.5923 215.563 18.8751 215.94L18.121 216.468Z" fill="#269449"/>
<path d="M27.7738 216.525C27.6607 216.525 27.5287 216.487 27.4533 216.393L13.9358 203.233C13.7473 203.045 13.7473 202.743 13.9358 202.574C14.1244 202.385 14.4072 202.385 14.5957 202.574L28.1132 215.733C28.3017 215.921 28.3017 216.223 28.1132 216.393C28.0189 216.468 27.8869 216.525 27.7738 216.525Z" fill="#269449"/>
<path d="M14.5957 203.215L13.917 202.574L22.5893 193.637L23.268 194.297L14.5957 203.215Z" fill="#269449"/>
<path d="M-1.61775 238.13L-15.1352 224.971C-15.2295 224.877 -15.2672 224.763 -15.2861 224.632L-15.5688 203.29C-15.5688 203.158 -15.5312 203.045 -15.4369 202.951L-2.2776 189.433C-2.16448 189.32 -2.01366 189.264 -1.84399 189.301C-1.69316 189.339 -1.5612 189.433 -1.50464 189.584L0.324088 194.015C0.3995 194.184 0.361794 194.392 0.229824 194.524L-9.59251 204.61C-10.4409 205.477 -11.6852 205.873 -12.8729 205.647C-13.5327 205.515 -14.136 205.213 -14.6074 204.779L-14.3434 224.424L-0.957902 237.451L-1.61775 238.13ZM-14.5319 203.384C-14.1549 204.082 -13.4762 204.572 -12.6844 204.723C-11.7983 204.893 -10.8934 204.61 -10.2524 203.95L-0.656261 194.09L-2.10793 190.621L-14.5319 203.384Z" fill="#269449"/>
<path d="M29.1538 193.456L-0.0869141 193.721L-0.0783728 194.664L29.1624 194.399L29.1538 193.456Z" fill="#269449"/>
<path d="M17.1597 205.307C16.9335 205.307 16.7073 205.289 16.481 205.251C16.2925 205.213 16.0663 205.157 15.8589 205.062L16.1983 204.176C16.3679 204.233 16.5188 204.289 16.6507 204.308C17.5557 204.478 18.4606 204.195 19.0827 203.535L28.6788 193.675L27.0763 189.829L-1.93817 190.225L-1.95703 189.282L27.378 188.887C27.5476 188.868 27.755 189 27.8116 189.169L29.6403 193.6C29.7157 193.769 29.678 193.977 29.546 194.109L19.7237 204.195C19.0827 204.93 18.1401 205.307 17.1597 205.307Z" fill="#269449"/>
<path d="M-1.29716 49.3566C-1.5611 49.3566 -1.76848 49.1493 -1.76848 48.8853L-2.05127 27.5439C-2.05127 27.412 -2.01356 27.2988 -1.9193 27.2046C-1.82503 27.1103 -1.71192 27.0726 -1.57995 27.0537L27.7551 26.6578C28.019 26.6578 28.2264 26.8652 28.2264 27.1292L28.5092 48.4706C28.5092 48.6025 28.4715 48.7157 28.3772 48.8099C28.2829 48.9042 28.1698 48.9419 28.0378 48.9607L-1.29716 49.3566C-1.2783 49.3566 -1.2783 49.3566 -1.29716 49.3566ZM-1.08977 28.0152L-0.806976 48.414L27.5854 48.037L27.3026 27.6382L-1.08977 28.0152Z" fill="#269449"/>
<path d="M13.9549 27.3367L13.7852 14.479L-8.70625 14.7807L-8.7251 13.838L14.2377 13.5364C14.5016 13.5364 14.709 13.7438 14.709 14.0077L14.8975 27.3367H13.9549Z" fill="#269449"/>
<path d="M18.121 27.5627C17.7251 27.0348 17.4989 26.3938 17.4989 25.734L17.48 24.7159C17.48 24.1315 17.8193 23.6036 18.3472 23.3774C18.8751 23.1511 19.4972 23.2643 19.912 23.679L22.853 26.5824C22.9662 26.6955 23.0793 26.8274 23.1924 26.9783L22.4194 27.525C22.3629 27.4307 22.2875 27.3365 22.1932 27.2611L19.2522 24.3577C19.1013 24.2257 18.894 24.1692 18.7243 24.2635C18.5358 24.3389 18.4226 24.5274 18.4226 24.7348L18.4415 25.7528C18.4415 26.2242 18.5923 26.6578 18.8751 27.0348L18.121 27.5627Z" fill="#269449"/>
<path d="M27.7741 27.6193C27.661 27.6193 27.529 27.5816 27.4536 27.4874L13.9173 14.3281C13.7287 14.1396 13.7287 13.8379 13.9173 13.6683C14.1058 13.4797 14.3886 13.4797 14.5771 13.6683L28.0946 26.8275C28.2831 27.0161 28.2831 27.3177 28.0946 27.4874C28.0192 27.5628 27.8872 27.6193 27.7741 27.6193Z" fill="#269449"/>
<path d="M14.5957 14.3092L13.917 13.6682L22.5893 4.73193L23.268 5.39178L14.5957 14.3092Z" fill="#269449"/>
<path d="M-1.61775 49.2248L-15.1352 36.0655C-15.2295 35.9712 -15.2672 35.8581 -15.2861 35.7261L-15.5688 14.3847C-15.5688 14.2527 -15.5312 14.1396 -15.4369 14.0454L-2.2776 0.52788C-2.16448 0.414763 -2.01366 0.358205 -1.84399 0.39591C-1.69316 0.433616 -1.5612 0.52788 -1.50464 0.678703L0.324088 5.10912C0.3995 5.27879 0.361794 5.48618 0.229824 5.61815L-9.59251 15.7044C-10.4409 16.5716 -11.6852 16.9676 -12.8729 16.7413C-13.5327 16.6093 -14.136 16.3077 -14.6074 15.8741L-14.3434 35.5187L-0.957902 48.546L-1.61775 49.2248ZM-14.5319 14.479C-14.1549 15.1765 -13.4762 15.6667 -12.6844 15.8175C-11.7983 15.9872 -10.8934 15.7044 -10.2524 15.0446L-0.656261 5.18453L-2.10793 1.71561L-14.5319 14.479Z" fill="#269449"/>
<path d="M29.1538 4.54316L-0.0869141 4.80811L-0.0783728 5.75075L29.1624 5.4858L29.1538 4.54316Z" fill="#269449"/>
<path d="M17.1599 16.402C16.9337 16.402 16.7075 16.3831 16.4812 16.3454C16.2927 16.3077 16.0665 16.2511 15.8591 16.1569L16.1984 15.2708C16.3681 15.3274 16.5189 15.3839 16.6509 15.4028C17.5558 15.5724 18.4608 15.2896 19.0829 14.6298L28.679 4.76977L27.0954 0.942642L-1.91914 1.33855L-1.93799 0.39591L27.397 0C27.5667 0.0188528 27.7741 0.113117 27.8306 0.282793L29.6594 4.71321C29.7348 4.88288 29.6971 5.09027 29.5651 5.22224L19.7428 15.3085C19.0829 16.0249 18.1403 16.402 17.1599 16.402Z" fill="#269449"/>
<path d="M69.1932 101.07C69.1744 101.07 69.1555 101.07 69.1367 101.07L38.5197 97.7897C38.3877 97.7709 38.2746 97.7143 38.1992 97.62C38.1238 97.5258 38.086 97.3938 38.1049 97.2807L40.8574 71.49C40.8763 71.2261 41.1025 71.0375 41.3853 71.0752L72.0023 74.3556C72.1343 74.3745 72.2474 74.431 72.3228 74.5253C72.3982 74.6196 72.4359 74.7515 72.4171 74.8647L69.6646 100.655C69.6457 100.882 69.4383 101.07 69.1932 101.07ZM39.0853 96.9036L68.7785 100.071L71.4367 75.2229L41.7435 72.0556L39.0853 96.9036Z" fill="#269449"/>
<path d="M41.3287 72.0179C41.1967 72.0179 41.0459 71.9614 40.9516 71.8482L29.4325 57.5766C29.2629 57.3693 29.3006 57.0676 29.508 56.9168C29.7153 56.7471 29.9981 56.7848 30.1678 56.9922L41.6869 71.2638C41.8566 71.4712 41.8188 71.7728 41.6115 71.9237C41.5361 71.9802 41.4229 72.0179 41.3287 72.0179Z" fill="#269449"/>
<path d="M38.5763 97.7897C38.4443 97.7897 38.2935 97.7331 38.1992 97.62L26.6801 83.3484C26.6047 83.2542 26.567 83.1222 26.5859 83.0091L29.3384 57.2184C29.3572 56.9545 29.6023 56.7659 29.8663 56.8036L60.4833 60.084C60.6152 60.1029 60.7283 60.1594 60.8037 60.2537L72.3228 74.5253C72.4925 74.7327 72.4548 75.0343 72.2474 75.1851C72.04 75.3548 71.7384 75.3171 71.5876 75.1097L60.2005 60.989L30.2433 57.784L27.5662 82.9148L38.9533 97.0356C39.123 97.243 39.0853 97.5446 38.8779 97.6954C38.7836 97.7708 38.6705 97.7897 38.5763 97.7897Z" fill="#269449"/>
<path d="M59.6347 83.7442C59.6158 83.7442 59.597 83.7442 59.5781 83.7442L51.528 82.877C51.264 82.8582 51.0755 82.6131 51.1132 82.3491L52.1501 72.6776C52.169 72.4137 52.4141 72.2252 52.678 72.2629C52.9419 72.2817 53.1305 72.5268 53.0927 72.7907L52.1124 81.9909L59.2388 82.745L60.2191 73.5449C60.238 73.2809 60.4831 73.0924 60.747 73.1301C61.0109 73.1489 61.1995 73.394 61.1618 73.658L60.1249 83.3295C60.0683 83.5746 59.8798 83.7442 59.6347 83.7442Z" fill="#269449"/>
<path d="M60.672 74.0728C60.54 74.0728 60.3892 74.0163 60.2949 73.9032L48.7758 59.6316C48.6061 59.4242 48.6438 59.1225 48.8512 58.9717C49.0586 58.802 49.3414 58.8398 49.5111 59.0471L61.0301 73.3187C61.1998 73.5261 61.1621 73.8278 60.9548 73.9786C60.8793 74.0351 60.7662 74.0728 60.672 74.0728Z" fill="#269449"/>
<path d="M52.6026 73.2245C52.4706 73.2245 52.3198 73.1679 52.2255 73.0548L40.7065 58.7832C40.5368 58.5758 40.5745 58.2742 40.7819 58.1233C40.9893 57.9537 41.2721 57.9914 41.4417 58.1987L52.9608 72.4703C53.1305 72.6777 53.0928 72.9794 52.8854 73.1302C52.81 73.1867 52.7157 73.2245 52.6026 73.2245Z" fill="#269449"/>
<path d="M106.257 147.938C106.05 147.938 105.861 147.806 105.805 147.599L98.3769 121.997C98.3015 121.752 98.4523 121.488 98.6974 121.412L124.3 113.984C124.545 113.909 124.809 114.06 124.884 114.305C124.959 114.55 124.809 114.814 124.564 114.889L99.4138 122.185L106.578 146.882L131.275 139.718L126.26 122.449C126.185 122.204 126.336 121.94 126.581 121.865C126.826 121.789 127.09 121.94 127.165 122.185L132.312 139.907C132.35 140.02 132.331 140.152 132.274 140.265C132.218 140.378 132.105 140.454 131.992 140.491L106.389 147.919C106.352 147.938 106.295 147.938 106.257 147.938Z" fill="#269449"/>
<path d="M106.258 147.938C106.182 147.938 106.107 147.919 106.031 147.882L90.7794 139.492C90.6662 139.436 90.5908 139.322 90.5531 139.209L87.6875 129.368C87.6121 129.123 87.7629 128.859 88.008 128.784C88.2531 128.708 88.517 128.859 88.5924 129.104L91.4015 138.757L106.484 147.052C106.71 147.184 106.804 147.467 106.672 147.693C106.578 147.844 106.427 147.938 106.258 147.938Z" fill="#269449"/>
<path d="M83.5775 113.947C83.3701 113.947 83.1815 113.815 83.125 113.607C83.0496 113.362 83.2004 113.098 83.4455 113.023L109.048 105.595C109.293 105.519 109.557 105.67 109.632 105.915C109.707 106.16 109.557 106.424 109.312 106.5L83.7094 113.928C83.6717 113.947 83.6152 113.947 83.5775 113.947Z" fill="#269449"/>
<path d="M108.991 127.916C108.916 127.916 108.841 127.898 108.765 127.86L73.1898 108.291C73.0202 108.196 72.9259 108.008 72.9448 107.819C72.9636 107.631 73.0956 107.48 73.2841 107.423L98.8863 99.9954C98.9994 99.9577 99.1313 99.9766 99.2445 100.033L134.82 119.602C134.989 119.697 135.084 119.885 135.065 120.074C135.046 120.262 134.914 120.413 134.725 120.47L109.123 127.898C109.086 127.916 109.029 127.916 108.991 127.916ZM74.6415 108.008L109.048 126.936L133.368 119.866L98.9617 100.938L74.6415 108.008Z" fill="#269449"/>
<path d="M112.611 118.32C112.403 118.32 112.215 118.188 112.158 117.981L108.727 106.16C108.689 106.047 108.708 105.915 108.765 105.802L114.364 95.6404C114.421 95.5273 114.534 95.4519 114.647 95.4141C114.76 95.3764 114.892 95.3953 115.005 95.4519L130.257 103.841C130.37 103.898 130.446 104.011 130.483 104.124C130.521 104.237 130.502 104.369 130.446 104.482L124.846 114.644C124.714 114.87 124.432 114.946 124.205 114.833C123.979 114.701 123.885 114.418 124.017 114.192L129.39 104.445L114.967 96.5076L109.689 106.085L113.063 117.717C113.139 117.962 112.988 118.226 112.743 118.301C112.705 118.32 112.649 118.32 112.611 118.32Z" fill="#269449"/>
<path d="M93.2304 132.498C93.155 132.498 93.0796 132.479 93.0042 132.441L77.7523 124.052C77.526 123.92 77.4318 123.637 77.5637 123.411L83.163 113.249C83.295 113.023 83.5778 112.928 83.804 113.06C84.0303 113.192 84.1245 113.475 83.9925 113.701L78.6195 123.448L93.0419 131.385L98.415 121.638C98.5469 121.412 98.8297 121.318 99.056 121.45C99.2822 121.582 99.3765 121.865 99.2445 122.091L93.6452 132.253C93.5886 132.366 93.4755 132.441 93.3624 132.479C93.3247 132.498 93.2681 132.498 93.2304 132.498Z" fill="#269449"/>
<path d="M38.2182 185.493C38.124 185.493 38.0108 185.455 37.9354 185.399C37.8412 185.323 37.7657 185.21 37.7469 185.097L33.8632 158.345C33.8255 158.081 34.014 157.855 34.2591 157.817L74.378 151.992C74.4911 151.973 74.6231 152.01 74.7362 152.086C74.8304 152.161 74.9058 152.274 74.9247 152.388L78.8084 179.14C78.8461 179.404 78.6576 179.63 78.4125 179.668L38.2936 185.493C38.2559 185.493 38.2371 185.493 38.2182 185.493ZM34.8624 158.684L38.6141 184.494L77.8092 178.8L74.0575 152.991L34.8624 158.684Z" fill="#269449"/>
<path d="M34.3344 158.76C34.2778 158.76 34.2212 158.741 34.1647 158.722C33.9196 158.628 33.8065 158.364 33.9008 158.119L39.4812 143.659C39.5378 143.508 39.6886 143.395 39.8582 143.357L64.9325 139.718C65.1022 139.7 65.2719 139.756 65.3661 139.888L74.8303 152.161C74.9811 152.369 74.9434 152.67 74.736 152.821C74.5286 152.991 74.227 152.934 74.0761 152.727L64.7817 140.661L40.2542 144.243L34.768 158.458C34.6926 158.628 34.5229 158.76 34.3344 158.76Z" fill="#269449"/>
<path d="M51.6604 166.47C51.5661 166.47 51.453 166.433 51.3776 166.376C51.2833 166.301 51.2079 166.188 51.189 166.075L49.7374 156.045L49.4546 142.377C49.4546 142.113 49.662 141.905 49.9259 141.886C50.1899 141.886 50.3972 142.094 50.4161 142.358L50.68 155.969L52.0563 165.471L59.4843 164.397L58.0892 154.838L54.4883 141.773C54.4129 141.528 54.5637 141.264 54.8088 141.189C55.0539 141.113 55.3178 141.264 55.3932 141.509L59.013 154.631L60.4835 164.717C60.5212 164.981 60.3327 165.207 60.0876 165.245L51.7358 166.452C51.7169 166.47 51.6981 166.47 51.6604 166.47Z" fill="#269449"/>
<path d="M86.6698 216.581C86.5944 216.581 86.519 216.562 86.4436 216.525L68.9481 206.816C68.7785 206.721 68.6842 206.533 68.7031 206.344C68.7219 206.156 68.8539 206.005 69.0424 205.948L92.0617 199.35C92.1748 199.312 92.3068 199.331 92.4199 199.388L109.915 209.097C110.142 209.229 110.217 209.511 110.104 209.738C109.972 209.964 109.689 210.039 109.463 209.926L92.1371 200.311L70.3998 206.533L86.896 215.676C87.1223 215.808 87.1977 216.091 87.0846 216.317C86.9903 216.506 86.8395 216.581 86.6698 216.581Z" fill="#269449"/>
<path d="M93.5699 240.656C93.4945 240.656 93.419 240.637 93.3436 240.6C93.2305 240.543 93.1551 240.43 93.1174 240.317L86.2173 216.242C86.1419 215.997 86.2927 215.733 86.5378 215.657L109.557 209.059L109.821 209.964L87.2542 216.43L93.8904 239.582L116.005 233.247L111.329 216.958L112.234 216.694L117.042 233.436C117.079 233.549 117.06 233.681 117.004 233.794C116.947 233.907 116.834 233.982 116.721 234.02L93.7018 240.619C93.6453 240.637 93.6076 240.656 93.5699 240.656Z" fill="#269449"/>
<path d="M96.0964 221.804C96.021 221.804 95.9455 221.785 95.8701 221.747L86.6134 216.619L77.3755 219.258C77.2624 219.296 77.1304 219.277 77.0173 219.221L59.5219 209.511C59.3522 209.417 59.2579 209.229 59.2768 209.04C59.2956 208.852 59.4276 208.701 59.6161 208.644L67.9302 206.269L60.8416 202.347C60.6719 202.253 60.5776 202.065 60.5965 201.876C60.6153 201.688 60.7473 201.537 60.9358 201.48L83.9552 194.882C84.0683 194.844 84.2002 194.863 84.3133 194.919L92.2127 199.312L102.487 196.371C102.601 196.333 102.733 196.352 102.846 196.409L120.341 206.118C120.511 206.212 120.605 206.401 120.586 206.589C120.567 206.778 120.435 206.929 120.247 206.985L110.877 209.662L119.304 214.338C119.474 214.432 119.568 214.621 119.549 214.809C119.53 214.998 119.398 215.148 119.21 215.205L96.1906 221.804C96.1718 221.804 96.1341 221.804 96.0964 221.804ZM86.6699 215.639C86.7454 215.639 86.8208 215.658 86.8962 215.695L96.1529 220.823L117.89 214.602L109.463 209.926C109.293 209.832 109.199 209.643 109.218 209.455C109.237 209.266 109.369 209.116 109.557 209.059L118.927 206.382L102.601 197.333L92.3258 200.274C92.2127 200.311 92.0807 200.292 91.9676 200.236L84.0683 195.843L62.3309 202.065L69.4196 205.986C69.5893 206.08 69.6836 206.269 69.6647 206.457C69.6458 206.646 69.5139 206.797 69.3253 206.853L61.0112 209.229L77.3378 218.278L86.5757 215.639C86.5757 215.639 86.6322 215.639 86.6699 215.639Z" fill="#269449"/>
<path d="M93.3438 240.6L75.8484 230.891C75.7353 230.834 75.6598 230.721 75.6221 230.608L71.418 215.959L72.3229 215.695L76.4705 230.155L93.7963 239.77L93.3438 240.6Z" fill="#269449"/>
<path d="M92.6357 199.693L91.7295 199.953L95.6302 213.563L96.5363 213.303L92.6357 199.693Z" fill="#269449"/>
<path d="M135.574 175.331C135.48 175.331 135.386 175.294 135.311 175.256L117.891 163.247C117.74 163.134 117.664 162.945 117.702 162.756C117.74 162.568 117.891 162.417 118.079 162.398L144.247 157.591C144.379 157.572 144.492 157.591 144.605 157.666L162.025 169.675C162.176 169.789 162.251 169.977 162.214 170.166C162.176 170.354 162.025 170.505 161.836 170.524L135.669 175.331C135.631 175.331 135.612 175.331 135.574 175.331ZM119.361 163.115L135.688 174.37L160.536 169.807L144.209 158.552L119.361 163.115Z" fill="#269449"/>
<path d="M136.781 181.873C136.687 181.873 136.593 181.836 136.517 181.798L119.097 169.789C119.003 169.713 118.928 169.6 118.909 169.487L117.702 162.945L118.626 162.775L119.795 169.129L136.894 180.912L162.402 176.217L161.29 170.147L162.214 169.977L163.42 176.519C163.477 176.783 163.307 177.028 163.043 177.066L136.875 181.873C136.838 181.873 136.819 181.873 136.781 181.873Z" fill="#269449"/>
<path d="M136.031 174.76L135.104 174.931L136.306 181.476L137.233 181.306L136.031 174.76Z" fill="#269449"/>
<path d="M138.459 200.161C138.364 200.161 138.27 200.123 138.195 200.085C138.1 200.01 138.025 199.897 138.006 199.784L134.405 180.158L135.329 179.988L138.855 199.143L164.08 194.505L160.875 177.047L161.798 176.877L165.098 194.806C165.117 194.938 165.098 195.051 165.022 195.165C164.947 195.259 164.834 195.334 164.721 195.353L138.553 200.161C138.515 200.161 138.477 200.161 138.459 200.161Z" fill="#269449"/>
<path d="M138.195 200.085L124.64 190.753C124.545 190.678 124.47 190.564 124.451 190.451L120.869 170.92L121.793 170.75L125.337 190.074L138.723 199.312L138.195 200.085Z" fill="#269449"/>
<path d="M86.6693 27.676C86.5939 27.676 86.5185 27.6572 86.4431 27.6195L68.9476 17.9103C68.778 17.816 68.6837 17.6275 68.7026 17.4389C68.7214 17.2504 68.8534 17.0996 69.0419 17.043L92.0612 10.4445C92.1744 10.4068 92.3063 10.4257 92.4194 10.4822L109.915 20.1915C110.141 20.3234 110.217 20.6062 110.103 20.8325C109.971 21.0587 109.689 21.1341 109.462 21.021L92.1366 11.406L70.3993 17.6275L86.8956 26.7711C87.1218 26.9031 87.1972 27.1859 87.0841 27.4121C86.9898 27.6006 86.839 27.676 86.6693 27.676Z" fill="#269449"/>
<path d="M93.5694 51.751C93.494 51.751 93.4185 51.7322 93.3431 51.6945C93.23 51.6379 93.1546 51.5248 93.1169 51.4117L86.2168 27.3366C86.1414 27.0915 86.2922 26.8276 86.5373 26.7522L109.557 20.1537L109.821 21.0586L87.2537 27.5251L93.8899 50.6764L116.004 44.3419L111.329 28.053L112.234 27.7891L117.041 44.5304C117.079 44.6435 117.06 44.7755 117.003 44.8886C116.947 45.0017 116.834 45.0771 116.721 45.1148L93.7013 51.7133C93.6448 51.7322 93.6071 51.751 93.5694 51.751Z" fill="#269449"/>
<path d="M96.0959 32.8983C96.0205 32.8983 95.9451 32.8794 95.8696 32.8417L86.6129 27.7137L77.375 30.3531C77.2619 30.3908 77.1299 30.372 77.0168 30.3154L59.5214 20.6062C59.3517 20.5119 59.2575 20.3234 59.2763 20.1349C59.2952 19.9464 59.4271 19.7955 59.6156 19.739L67.9298 17.3635L60.8411 13.4421C60.6714 13.3479 60.5772 13.1593 60.596 12.9708C60.6149 12.7823 60.7468 12.6315 60.9353 12.5749L83.9547 5.9764C84.0678 5.9387 84.1997 5.95755 84.3129 6.01411L92.2122 10.4068L102.487 7.46578C102.6 7.42807 102.732 7.44692 102.845 7.50348L120.341 17.2127C120.51 17.307 120.605 17.4955 120.586 17.684C120.567 17.8725 120.435 18.0234 120.246 18.0799L110.877 20.757L119.304 25.4325C119.473 25.5268 119.568 25.7153 119.549 25.9038C119.53 26.0924 119.398 26.2432 119.209 26.2998L96.1901 32.8983C96.1713 32.8983 96.1336 32.8983 96.0959 32.8983ZM86.6695 26.7334C86.7449 26.7334 86.8203 26.7522 86.8957 26.7899L96.1524 31.9179L117.89 25.6965L109.463 21.021C109.293 20.9267 109.199 20.7382 109.217 20.5496C109.236 20.3611 109.368 20.2103 109.557 20.1537L118.927 17.4766L102.6 8.42727L92.3253 11.3683C92.2122 11.406 92.0802 11.3872 91.9671 11.3306L84.0678 6.9379L62.3305 13.1593L69.4191 17.0807C69.5888 17.175 69.6831 17.3635 69.6642 17.552C69.6454 17.7406 69.5134 17.8914 69.3249 17.948L61.0108 20.3234L77.3373 29.3728L86.5752 26.7334C86.5752 26.7334 86.6318 26.7334 86.6695 26.7334Z" fill="#269449"/>
<path d="M93.3433 51.6945L75.8479 41.9853C75.7348 41.9287 75.6594 41.8156 75.6216 41.7025L71.4175 27.0539L72.3224 26.7899L76.47 41.25L93.7958 50.865L93.3433 51.6945Z" fill="#269449"/>
<path d="M92.641 10.786L91.7349 11.0457L95.6355 24.6562L96.5417 24.3965L92.641 10.786Z" fill="#269449"/>
<path d="M22.7024 343.951C22.6647 343.951 22.6081 343.951 22.5704 343.932L-9.93186 334.544C-10.045 334.506 -10.1581 334.431 -10.2146 334.317C-10.2712 334.204 -10.2901 334.072 -10.2524 333.959L-2.33417 306.585C-2.29646 306.472 -2.22105 306.359 -2.10793 306.302C-1.99481 306.246 -1.86284 306.227 -1.74972 306.264L30.7526 315.653C30.9976 315.729 31.1485 315.992 31.0731 316.238L23.1549 343.612C23.0983 343.8 22.9098 343.951 22.7024 343.951ZM-9.21545 333.752L22.3819 342.877L30.0362 316.407L-1.56119 307.282L-9.21545 333.752Z" fill="#269449"/>
<path d="M-9.79985 334.545C-9.96953 334.545 -10.1204 334.451 -10.2146 334.3L-19.9427 316.653C-19.9992 316.54 -20.0181 316.408 -19.9804 316.295L-12.0622 288.921C-11.9868 288.676 -11.7228 288.525 -11.4778 288.6L21.0245 297.989C21.1376 298.027 21.2508 298.102 21.3073 298.215L31.0354 315.862C31.1673 316.088 31.0731 316.371 30.8468 316.503C30.6206 316.635 30.3378 316.54 30.2058 316.314L20.5721 298.838L-11.2892 289.637L-19.0189 316.371L-9.38509 333.847C-9.25312 334.073 -9.34738 334.356 -9.57362 334.488C-9.64903 334.526 -9.72444 334.545 -9.79985 334.545Z" fill="#269449"/>
<path d="M-9.7243 308.621C-9.76201 308.621 -9.81857 308.621 -9.85628 308.602C-10.1014 308.527 -10.2522 308.263 -10.1768 308.018L-7.21688 297.743C-7.14147 297.498 -6.87753 297.347 -6.63245 297.422L25.8698 306.811C26.1149 306.887 26.2658 307.151 26.1903 307.396C26.1149 307.641 25.851 307.792 25.6059 307.716L-6.44392 298.459L-9.27184 308.263C-9.3284 308.489 -9.51692 308.621 -9.7243 308.621Z" fill="#269449"/>
<path d="M22.2498 332.696C22.0801 332.696 21.9293 332.602 21.8351 332.451L19.6293 328.454L15.6325 330.66C15.4062 330.792 15.1234 330.698 14.9915 330.471C14.8595 330.245 14.9538 329.962 15.18 329.83L19.5916 327.398C19.8178 327.266 20.1006 327.361 20.2326 327.587L22.6646 331.999C22.7965 332.225 22.7023 332.508 22.476 332.64C22.4195 332.677 22.3252 332.696 22.2498 332.696Z" fill="#269449"/>
<path d="M16.8582 338.54C16.8205 338.54 16.7639 338.54 16.7262 338.522C16.4811 338.446 16.3303 338.182 16.4057 337.937L19.3656 327.662C19.441 327.417 19.705 327.266 19.9501 327.342C20.1952 327.417 20.346 327.681 20.2706 327.926L17.3107 338.201C17.2541 338.409 17.0656 338.54 16.8582 338.54Z" fill="#269449"/>
<path d="M11.994 329.717C11.8243 329.717 11.6735 329.623 11.5792 329.472L9.37342 325.475L5.37661 327.681C5.15038 327.813 4.86758 327.719 4.73561 327.493C4.60364 327.266 4.69791 326.984 4.92414 326.852L9.33571 324.42C9.56194 324.288 9.84474 324.382 9.97671 324.608L12.4087 329.02C12.5407 329.246 12.4464 329.529 12.2202 329.661C12.1448 329.698 12.0694 329.717 11.994 329.717Z" fill="#269449"/>
<path d="M6.58331 335.581C6.54561 335.581 6.48905 335.581 6.45134 335.562C6.20625 335.486 6.05543 335.222 6.13084 334.977L9.09074 324.702C9.16615 324.457 9.43008 324.307 9.67517 324.382C9.92026 324.457 10.0711 324.721 9.99567 324.966L7.03577 335.241C6.97922 335.449 6.7907 335.581 6.58331 335.581Z" fill="#269449"/>
<path d="M20.2705 339.54C20.2328 339.54 20.1763 339.54 20.1386 339.521L3.02019 334.581C2.7751 334.506 2.62428 334.242 2.69969 333.997C2.7751 333.752 3.03905 333.601 3.28413 333.676L20.4025 338.616C20.6476 338.691 20.7984 338.955 20.723 339.2C20.6664 339.408 20.4779 339.54 20.2705 339.54Z" fill="#269449"/>
<path d="M69.1932 289.976C69.1744 289.976 69.1555 289.976 69.1367 289.976L38.5197 286.695C38.3877 286.676 38.2746 286.62 38.1992 286.526C38.1238 286.431 38.086 286.299 38.1049 286.186L40.8574 260.396C40.8763 260.132 41.1025 259.943 41.3853 259.981L72.0023 263.261C72.1343 263.28 72.2474 263.337 72.3228 263.431C72.3982 263.525 72.4359 263.657 72.4171 263.77L69.6646 289.561C69.6457 289.806 69.4383 289.976 69.1932 289.976ZM39.0853 285.809L68.7785 288.976L71.4367 264.128L41.7435 260.961L39.0853 285.809Z" fill="#269449"/>
<path d="M41.3287 260.923C41.1967 260.923 41.0459 260.867 40.9516 260.754L29.4325 246.482C29.2629 246.275 29.3006 245.973 29.508 245.822C29.7153 245.653 29.9981 245.69 30.1678 245.898L41.6869 260.169C41.8566 260.377 41.8188 260.678 41.6115 260.829C41.5361 260.886 41.4229 260.923 41.3287 260.923Z" fill="#269449"/>
<path d="M38.5763 286.695C38.4443 286.695 38.2935 286.639 38.1992 286.525L26.6801 272.254C26.6047 272.16 26.567 272.028 26.5859 271.914L29.3384 246.124C29.3572 245.86 29.6023 245.671 29.8663 245.709L60.4833 248.989C60.6152 249.008 60.7283 249.065 60.8037 249.159L72.3228 263.431C72.4925 263.638 72.4548 263.94 72.2474 264.091C72.04 264.26 71.7384 264.223 71.5876 264.015L60.2005 249.894L30.2433 246.689L27.5662 271.82L38.9533 285.941C39.123 286.148 39.0853 286.45 38.8779 286.601C38.7836 286.676 38.6705 286.695 38.5763 286.695Z" fill="#269449"/>
<path d="M59.6347 272.65C59.6158 272.65 59.597 272.65 59.5781 272.65L51.528 271.783C51.264 271.764 51.0755 271.519 51.1132 271.255L52.1501 261.583C52.169 261.319 52.4141 261.131 52.678 261.169C52.9419 261.187 53.1305 261.432 53.0927 261.696L52.1124 270.897L59.2388 271.651L60.2191 262.45C60.238 262.187 60.4831 261.998 60.747 262.036C61.0109 262.055 61.1995 262.3 61.1618 262.564L60.1249 272.235C60.0683 272.48 59.8798 272.65 59.6347 272.65Z" fill="#269449"/>
<path d="M60.672 262.978C60.54 262.978 60.3892 262.922 60.2949 262.809L48.7758 248.537C48.6061 248.33 48.6438 248.028 48.8512 247.877C49.0586 247.707 49.3414 247.745 49.5111 247.953L61.0301 262.224C61.1998 262.432 61.1621 262.733 60.9548 262.884C60.8793 262.941 60.7662 262.978 60.672 262.978Z" fill="#269449"/>
<path d="M52.6031 262.13C52.4711 262.13 52.3203 262.073 52.226 261.96L40.707 247.689C40.5373 247.481 40.575 247.18 40.7824 247.029C40.9897 246.859 41.2725 246.897 41.4422 247.104L52.9613 261.376C53.131 261.583 53.0933 261.885 52.8859 262.036C52.8105 262.092 52.7162 262.13 52.6031 262.13Z" fill="#269449"/>
<path d="M141.437 284.338C141.211 284.338 141.023 284.169 140.966 283.942L136.253 257.661C136.234 257.529 136.253 257.416 136.328 257.303C136.404 257.209 136.517 257.134 136.63 257.115L167.831 251.534C168.076 251.497 168.34 251.666 168.378 251.911L173.091 278.192C173.129 278.456 172.959 278.701 172.714 278.739L141.513 284.338C141.494 284.338 141.475 284.338 141.437 284.338ZM137.29 257.963L141.833 283.32L172.111 277.891L167.567 252.534L137.29 257.963Z" fill="#269449"/>
<path d="M136.743 258.057C136.649 258.057 136.555 258.039 136.48 257.982L120.983 247.198C120.775 247.047 120.719 246.746 120.869 246.538C121.02 246.331 121.303 246.274 121.529 246.425L137.026 257.209C137.234 257.36 137.29 257.661 137.139 257.869C137.026 257.982 136.894 258.057 136.743 258.057Z" fill="#269449"/>
<path d="M141.437 284.338C141.343 284.338 141.249 284.32 141.174 284.244L125.677 273.46C125.582 273.385 125.507 273.272 125.488 273.159L120.775 246.878C120.737 246.614 120.907 246.369 121.152 246.331L152.353 240.732C152.485 240.713 152.598 240.732 152.711 240.807L168.209 251.591C168.416 251.742 168.472 252.043 168.322 252.251C168.171 252.458 167.888 252.515 167.662 252.364L152.334 241.693L121.793 247.161L126.374 272.782L141.701 283.452C141.909 283.603 141.965 283.905 141.815 284.112C141.739 284.263 141.588 284.338 141.437 284.338Z" fill="#269449"/>
<path d="M132.727 264.147C132.614 264.147 132.52 264.109 132.426 264.053L128.09 260.584C127.995 260.508 127.939 260.414 127.92 260.301L126.148 250.441C126.11 250.177 126.28 249.932 126.525 249.894L157.726 244.314C157.971 244.276 158.235 244.446 158.273 244.691C158.311 244.955 158.141 245.2 157.896 245.238L127.147 250.743L128.806 259.962L132.03 262.544L130.484 253.929C130.446 253.665 130.616 253.42 130.861 253.382L162.062 247.801C162.308 247.764 162.571 247.933 162.609 248.179C162.647 248.442 162.477 248.688 162.232 248.725L131.483 254.23L133.161 263.619C133.199 263.808 133.105 264.015 132.935 264.109C132.897 264.128 132.822 264.147 132.727 264.147Z" fill="#269449"/>
<path d="M106.257 336.844C106.05 336.844 105.861 336.712 105.805 336.504L98.3769 310.902C98.3015 310.657 98.4523 310.393 98.6974 310.318L124.3 302.89C124.545 302.814 124.809 302.965 124.884 303.21C124.959 303.455 124.809 303.719 124.564 303.795L99.4138 311.091L106.578 335.788L131.275 328.624L126.26 311.355C126.185 311.11 126.336 310.846 126.581 310.77C126.826 310.695 127.09 310.846 127.165 311.091L132.312 328.812C132.35 328.926 132.331 329.057 132.274 329.171C132.218 329.284 132.105 329.359 131.992 329.397L106.389 336.825C106.352 336.844 106.295 336.844 106.257 336.844Z" fill="#269449"/>
<path d="M106.258 336.844C106.182 336.844 106.107 336.825 106.031 336.787L90.7794 328.397C90.6662 328.341 90.5908 328.228 90.5531 328.115L87.6875 318.274C87.6121 318.028 87.7629 317.764 88.008 317.689C88.2531 317.614 88.517 317.764 88.5924 318.01L91.4015 327.662L106.484 335.957C106.71 336.089 106.804 336.372 106.672 336.598C106.578 336.749 106.427 336.844 106.258 336.844Z" fill="#269449"/>
<path d="M83.5775 302.852C83.3701 302.852 83.1815 302.72 83.125 302.513C83.0496 302.267 83.2004 302.004 83.4455 301.928L109.048 294.5C109.293 294.425 109.557 294.576 109.632 294.821C109.707 295.066 109.557 295.33 109.312 295.405L83.7094 302.833C83.6717 302.852 83.6152 302.852 83.5775 302.852Z" fill="#269449"/>
<path d="M108.991 316.822C108.916 316.822 108.841 316.803 108.765 316.765L73.1898 297.196C73.0202 297.102 72.9259 296.913 72.9448 296.725C72.9636 296.536 73.0956 296.385 73.2841 296.329L98.8863 288.901C98.9994 288.863 99.1313 288.882 99.2445 288.939L134.82 308.508C134.989 308.602 135.084 308.791 135.065 308.979C135.046 309.168 134.914 309.318 134.725 309.375L109.123 316.803C109.086 316.822 109.029 316.822 108.991 316.822ZM74.6415 296.913L109.048 315.842L133.368 308.772L98.9617 289.843L74.6415 296.913Z" fill="#269449"/>
<path d="M112.611 307.226C112.403 307.226 112.215 307.094 112.158 306.887L108.727 295.066C108.689 294.953 108.708 294.821 108.765 294.708L114.364 284.546C114.421 284.433 114.534 284.357 114.647 284.32C114.76 284.282 114.892 284.301 115.005 284.357L130.257 292.747C130.37 292.803 130.446 292.917 130.483 293.03C130.521 293.143 130.502 293.275 130.446 293.388L124.846 303.55C124.714 303.776 124.432 303.851 124.205 303.738C123.979 303.606 123.885 303.323 124.017 303.097L129.39 293.35L114.967 285.413L109.689 294.99L113.063 306.623C113.139 306.868 112.988 307.132 112.743 307.207C112.705 307.226 112.649 307.226 112.611 307.226Z" fill="#269449"/>
<path d="M93.2304 321.403C93.155 321.403 93.0796 321.384 93.0042 321.347L77.7523 312.957C77.526 312.825 77.4318 312.542 77.5637 312.316L83.163 302.154C83.295 301.928 83.5778 301.834 83.804 301.966C84.0303 302.098 84.1245 302.381 83.9925 302.607L78.6195 312.354L93.0419 320.291L98.415 310.544C98.5469 310.318 98.8297 310.223 99.056 310.355C99.2822 310.487 99.3765 310.77 99.2445 310.996L93.6452 321.158C93.5886 321.271 93.4755 321.347 93.3624 321.384C93.3247 321.403 93.2681 321.403 93.2304 321.403Z" fill="#269449"/>
<path d="M38.2182 374.398C38.124 374.398 38.0108 374.361 37.9354 374.304C37.8412 374.229 37.7657 374.116 37.7469 374.002L33.8632 347.25C33.8255 346.986 34.014 346.76 34.2591 346.722L74.378 340.897C74.4911 340.878 74.6231 340.916 74.7362 340.991C74.8304 341.067 74.9058 341.18 74.9247 341.293L78.8084 368.045C78.8461 368.309 78.6576 368.535 78.4125 368.573L38.2936 374.398C38.2559 374.398 38.2371 374.398 38.2182 374.398ZM34.8624 347.59L38.6141 373.399L77.8092 367.706L74.0575 341.896L34.8624 347.59Z" fill="#269449"/>
<path d="M34.3344 347.665C34.2778 347.665 34.2212 347.646 34.1647 347.627C33.9196 347.533 33.8065 347.269 33.9008 347.024L39.4812 332.564C39.5378 332.413 39.6886 332.3 39.8582 332.262L64.9325 328.624C65.1022 328.605 65.2719 328.661 65.3661 328.793L74.8303 341.067C74.9811 341.274 74.9434 341.576 74.736 341.726C74.5286 341.896 74.227 341.839 74.0761 341.632L64.7817 329.566L40.2542 333.129L34.768 347.345C34.6926 347.533 34.5229 347.665 34.3344 347.665Z" fill="#269449"/>
<path d="M51.6604 355.376C51.5661 355.376 51.453 355.338 51.3776 355.281C51.2833 355.206 51.2079 355.093 51.189 354.98L49.7374 344.95L49.4546 331.282C49.4546 331.018 49.662 330.81 49.9259 330.792C50.1899 330.81 50.3972 330.999 50.4161 331.263L50.68 344.875L52.0563 354.377L59.4843 353.302L58.0892 343.744L54.4883 330.679C54.4129 330.433 54.5637 330.17 54.8088 330.094C55.0539 330.019 55.3178 330.17 55.3932 330.415L59.013 343.536L60.4835 353.622C60.5212 353.886 60.3327 354.113 60.0876 354.15L51.7358 355.357C51.7169 355.376 51.6981 355.376 51.6604 355.376Z" fill="#269449"/>
</svg>
