<svg width="226" height="182" viewBox="0 0 226 182" fill="none" xmlns="http://www.w3.org/2000/svg">
<g filter="url(#filter0_d)">
<circle cx="108" cy="91" r="49" fill="#4A8CFF"/>
</g>
<circle opacity="0.25" cx="108" cy="91" r="72.5" stroke="#4A8CFF"/>
<circle opacity="0.15" cx="108" cy="91" r="95.5" stroke="#4A8CFF"/>
<circle opacity="0.1" cx="108" cy="91" r="117.5" stroke="#4A8CFF"/>
<path d="M97.0947 84H97.0875C93.3208 84 90.2729 87.0551 90.2729 90.8146C90.2729 94.5813 93.3208 97.6364 97.0875 97.6364C100.854 97.6364 103.909 94.5885 103.909 90.8218C103.909 87.0551 100.861 84 97.0947 84ZM99.9773 93.7115C98.3743 95.3073 95.7864 95.3001 94.1906 93.7043C92.602 92.1085 92.602 89.5207 94.1906 87.9249C95.7864 86.3218 98.3743 86.3218 99.9773 87.9177L99.9845 87.9249C101.587 89.5207 101.58 92.1157 99.9773 93.7115Z" fill="white"/>
<path d="M89.0093 94.9436L88.3609 94.9077H82.532L90.3061 86.7287L90.272 86.0465C90.2447 84.9479 89.4052 84.0646 88.3609 84.0359L87.7125 84H78L78.0341 84.6822C78.0819 85.7665 78.9078 86.6425 79.9452 86.6928L80.5936 86.7287H86.4225L78.6484 94.9077L78.6825 95.5898C78.7167 96.6813 79.5562 97.5646 80.5936 97.6005L81.242 97.6364H90.9545L90.9204 96.9542C90.8317 95.8268 90.0741 95.0082 89.0093 94.9436Z" fill="white"/>
<path d="M132.539 84.0013C130.973 84.0013 129.486 84.6766 128.451 85.8476C126.64 83.793 123.58 83.3979 121.309 84.9352C120.785 84.339 119.592 84.0013 118.909 84.0013V97.6364L119.592 97.6004C120.727 97.5286 121.56 96.724 121.604 95.589L121.64 94.9065V90.1364L121.675 89.4539C121.675 88.9798 121.798 88.5128 122.013 88.089C122.76 86.7887 124.427 86.3433 125.735 87.0976C126.145 87.3346 126.49 87.6795 126.727 88.089H126.719C126.942 88.5128 127.057 88.9798 127.057 89.4539L127.093 90.1364V94.9065L127.129 95.589C127.172 96.6809 128.041 97.5573 129.134 97.6004L129.816 97.6364V90.1364L129.852 89.4539C129.852 88.9726 129.967 88.5056 130.19 88.0818C130.944 86.7815 132.618 86.3361 133.919 87.0976C134.328 87.3346 134.673 87.6795 134.91 88.089C135.126 88.5128 135.241 88.9798 135.241 89.4539L135.277 90.1364V94.9065L135.313 95.589C135.349 96.6809 136.225 97.5573 137.317 97.6004L138 97.6364V89.4539C137.993 86.4438 135.55 84.0013 132.539 84.0013Z" fill="white"/>
<path d="M116.225 85.998C114.946 84.7187 113.214 84 111.404 84C109.594 84 107.862 84.7187 106.584 85.998C103.925 88.6643 103.925 92.9837 106.591 95.6429C109.256 98.3021 113.574 98.3021 116.232 95.6357C118.897 92.9765 118.89 88.6572 116.225 85.998ZM114.292 93.7096C112.69 95.3051 110.104 95.2979 108.509 93.7024C106.921 92.1069 106.921 89.5196 108.509 87.9241C110.104 86.3214 112.69 86.3214 114.292 87.9169L114.299 87.9241C115.901 89.5196 115.894 92.1141 114.292 93.7096Z" fill="white"/>
<defs>
<filter id="filter0_d" x="14" y="22" width="188" height="188" filterUnits="userSpaceOnUse" color-interpolation-filters="sRGB">
<feFlood flood-opacity="0" result="BackgroundImageFix"/>
<feColorMatrix in="SourceAlpha" type="matrix" values="0 0 0 0 0 0 0 0 0 0 0 0 0 0 0 0 0 0 127 0"/>
<feOffset dy="25"/>
<feGaussianBlur stdDeviation="22.5"/>
<feColorMatrix type="matrix" values="0 0 0 0 0.290196 0 0 0 0 0.54902 0 0 0 0 1 0 0 0 0.35 0"/>
<feBlend mode="normal" in2="BackgroundImageFix" result="effect1_dropShadow"/>
<feBlend mode="normal" in="SourceGraphic" in2="effect1_dropShadow" result="shape"/>
</filter>
</defs>
</svg>
