<svg width="114" height="118" viewBox="0 0 114 118" fill="none" xmlns="http://www.w3.org/2000/svg">
<g filter="url(#filter0_d)">
<circle cx="55" cy="49" r="34" fill="#4A8CFF"/>
</g>
<path d="M47.4132 44.1299H47.4082C44.7875 44.1299 42.667 46.2554 42.667 48.8711C42.667 51.4917 44.7875 53.6173 47.4082 53.6173C50.0288 53.6173 52.1544 51.4967 52.1544 48.8761C52.1544 46.2554 50.0338 44.1299 47.4132 44.1299ZM49.4187 50.8866C48.3034 51.9969 46.503 51.9919 45.3927 50.8816C44.2874 49.7713 44.2874 47.9709 45.3927 46.8606C46.503 45.7453 48.3034 45.7453 49.4187 46.8556L49.4237 46.8606C50.539 47.9709 50.534 49.7763 49.4187 50.8866Z" fill="white"/>
<path d="M41.7876 51.7438L41.3364 51.7188H37.2811L42.6898 46.0284L42.6661 45.5537C42.6471 44.7894 42.063 44.1748 41.3364 44.1549L40.8853 44.1299H34.1279L34.1517 44.6045C34.1849 45.3589 34.7595 45.9684 35.4813 46.0034L35.9324 46.0284H39.9878L34.5791 51.7188L34.6028 52.1934C34.6265 52.9528 35.2106 53.5673 35.9324 53.5923L36.3836 53.6173H43.141L43.1172 53.1427C43.0555 52.3583 42.5284 51.7887 41.7876 51.7438Z" fill="white"/>
<path d="M72.0729 44.1308C70.9832 44.1308 69.9484 44.6006 69.2285 45.4153C67.9688 43.9858 65.8392 43.711 64.2595 44.7806C63.8946 44.3657 63.0647 44.1308 62.5898 44.1308V53.6173L63.0647 53.5923C63.8546 53.5423 64.4345 52.9825 64.4645 52.1928L64.4895 51.718V48.3992L64.5145 47.9244C64.5145 47.5945 64.5994 47.2696 64.7494 46.9747C65.2693 46.0701 66.4291 45.7602 67.3389 46.285C67.6238 46.4499 67.8638 46.6898 68.0288 46.9747H68.0238C68.1787 47.2696 68.2587 47.5945 68.2587 47.9244L68.2837 48.3992V51.718L68.3087 52.1928C68.3387 52.9525 68.9436 53.5623 69.7034 53.5923L70.1783 53.6173V48.3992L70.2033 47.9244C70.2033 47.5895 70.2833 47.2646 70.4383 46.9697C70.9632 46.0651 72.1279 45.7552 73.0328 46.285C73.3177 46.4499 73.5577 46.6898 73.7226 46.9747C73.8726 47.2696 73.9526 47.5945 73.9526 47.9244L73.9776 48.3992V51.718L74.0026 52.1928C74.0276 52.9525 74.6374 53.5623 75.3973 53.5923L75.8722 53.6173V47.9244C75.8672 45.8302 74.1675 44.1308 72.0729 44.1308Z" fill="white"/>
<path d="M60.722 45.52C59.8323 44.6299 58.6278 44.1299 57.3682 44.1299C56.1086 44.1299 54.904 44.6299 54.0143 45.52C52.165 47.3751 52.165 50.3802 54.0193 52.2303C55.8737 54.0804 58.8777 54.0804 60.727 52.2253C62.5814 50.3752 62.5764 47.3701 60.722 45.52ZM59.3775 50.8853C58.2629 51.9953 56.4635 51.9903 55.3539 50.8802C54.2493 49.7702 54.2493 47.9701 55.3539 46.86C56.4635 45.745 58.2629 45.745 59.3775 46.855L59.3825 46.86C60.4971 47.9701 60.4921 49.7752 59.3775 50.8853Z" fill="white"/>
<defs>
<filter id="filter0_d" x="-4" y="0" width="118" height="118" filterUnits="userSpaceOnUse" color-interpolation-filters="sRGB">
<feFlood flood-opacity="0" result="BackgroundImageFix"/>
<feColorMatrix in="SourceAlpha" type="matrix" values="0 0 0 0 0 0 0 0 0 0 0 0 0 0 0 0 0 0 127 0"/>
<feOffset dy="10"/>
<feGaussianBlur stdDeviation="12.5"/>
<feColorMatrix type="matrix" values="0 0 0 0 0.290196 0 0 0 0 0.54902 0 0 0 0 1 0 0 0 0.35 0"/>
<feBlend mode="normal" in2="BackgroundImageFix" result="effect1_dropShadow"/>
<feBlend mode="normal" in="SourceGraphic" in2="effect1_dropShadow" result="shape"/>
</filter>
</defs>
</svg>
