<svg width="200" height="250" viewBox="0 0 200 250" fill="none" xmlns="http://www.w3.org/2000/svg">
<mask id="mask0" mask-type="alpha" maskUnits="userSpaceOnUse" x="0" y="0" width="200" height="250">
<rect width="200" height="250" rx="10" fill="#F5F5F5"/>
</mask>
<g mask="url(#mask0)">
<path d="M165.406 68.1092C162.451 70.6456 160.378 74.02 159.098 77.7915C157.621 82.1364 157.246 83.2612 158.15 87.8929C159.054 92.4142 159.363 98.7 158.194 103.199C158.106 103.53 158.018 103.883 157.907 104.214C156.496 108.845 152.835 111.735 153.871 116.962C154.467 119.939 156.628 122.387 159.187 123.755C161.745 125.122 164.701 125.497 167.59 125.431C172.993 125.299 175.905 122.211 179.72 119.079C180.955 118.065 182.852 117.734 183.823 116.477C185.19 114.734 184.418 112.132 183.955 110.213C182.102 102.516 182.19 94.5095 182.764 86.6577C183.293 79.3795 182.786 72.3659 182.212 65.0435C182.146 64.1392 182.058 63.1909 181.595 62.4189C181.022 61.4485 179.919 60.9192 178.816 60.8089C177.735 60.6986 176.632 60.9412 175.574 61.1838C173.677 61.6029 172.861 62.5292 171.295 63.5437C169.222 64.9112 167.303 66.4992 165.406 68.1092Z" fill="#FFBDC6"/>
<path d="M172.133 92.9215C173.566 91.4218 174.779 89.6353 175.132 87.5842C175.485 85.5551 174.779 83.2172 173.037 82.1144C171.383 81.0558 170.721 80.9675 168.847 81.541C164.634 82.7981 161.237 85.5551 158.282 88.709C158.944 92.4143 159.186 97.068 158.613 100.972C160.245 100.751 161.877 100.134 163.399 99.4279C167.148 97.7076 169.31 95.899 172.133 92.9215Z" fill="#F3A0A4"/>
<path d="M145.005 66.2345C144.718 74.7478 143.77 84.4522 151.599 90.2527C151.842 90.4292 152.107 90.6277 152.371 90.7821C158.922 95.1049 166.222 93.8257 172.552 90.0101C181.837 84.4081 184.748 68.6826 185.101 58.7577C185.212 55.5156 184.793 52.6043 183.932 49.5165C182.719 45.1275 181.131 39.5916 176.5 37.5846C172.486 35.8422 168.229 34.96 163.84 35.0702C160.686 35.1585 157.488 35.776 154.621 37.1214C152.018 38.3344 148.953 40.562 147.276 42.8778C145.556 45.2378 144.983 48.3035 144.85 51.1707C144.74 53.685 144.961 56.1993 144.894 58.7136C144.828 61.1176 145.093 63.4555 145.005 65.8595C145.027 65.9698 145.027 66.1021 145.005 66.2345Z" fill="#FFBDC6"/>
<path d="M163.289 59.2431C163.399 59.7945 164.127 59.6622 164.48 59.6401C165.45 59.574 166.487 59.3534 167.479 59.3314C168.516 59.3314 169.508 59.8386 170.523 60.0371C171.493 60.2356 171.515 59.5078 170.942 58.8903C169.266 57.0817 166.266 56.9935 164.171 58.1624C163.796 58.3609 163.178 58.6256 163.289 59.2431Z" fill="#031F3A"/>
<path d="M148.07 59.7284C148.181 60.2578 148.842 60.0813 149.151 60.0151C150.011 59.8828 150.915 59.574 151.798 59.4858C152.724 59.3976 153.65 59.8387 154.555 59.949C155.437 60.0593 155.415 59.3535 154.863 58.78C153.275 57.1038 150.607 57.2582 148.776 58.5815C148.467 58.8242 147.938 59.1329 148.07 59.7284Z" fill="#031F3A"/>
<path d="M150.43 65.3305C150.474 65.4849 150.54 65.6393 150.651 65.7717C151.092 66.3671 151.974 66.3672 152.393 65.7496C152.967 64.9115 152.239 63.9631 151.29 64.0954C150.629 64.2278 150.298 64.7792 150.43 65.3305Z" fill="#031F3A"/>
<path d="M165.075 65.7053C165.097 65.9038 165.185 66.1023 165.318 66.2567C165.781 66.8301 166.663 66.6978 167.06 66.1244C167.634 65.2863 166.906 64.3379 165.957 64.4702C165.318 64.6025 165.009 65.1539 165.075 65.7053Z" fill="#031F3A"/>
<path d="M156.496 73.7996C155.9 73.4688 155.349 73.0938 154.952 72.5425C154.555 72.0131 154.312 71.3074 154.444 70.6678C154.665 69.6532 155.635 69.0357 156.385 68.3078C157.047 67.6682 157.576 66.8742 157.885 65.992C157.995 65.9259 158.106 65.992 158.15 66.1244C158.194 66.2346 158.15 66.367 158.106 66.4772C157.797 67.3595 157.29 68.1755 156.65 68.8372C156.099 69.4106 155.437 69.9399 155.305 70.7339C155.238 71.2412 155.415 71.7485 155.724 72.1455C156.032 72.5425 156.429 72.8733 156.826 73.16C157.003 73.2923 157.201 73.4908 157.135 73.6893C157.047 73.9981 156.76 73.954 156.496 73.7996Z" fill="#031F3A"/>
<path d="M159.252 80.7251C158.216 80.9898 156.451 80.8354 155.745 79.9311C155.679 79.8649 155.635 79.7767 155.635 79.6885C155.635 79.1592 156.209 79.49 156.451 79.6444C157.135 80.0414 157.885 80.1516 158.657 79.9973C159.098 79.909 159.539 79.7767 159.914 79.512C160.245 79.2694 160.576 78.9607 160.951 78.7842C161.348 78.6078 161.37 78.9607 161.237 79.2033C161.105 79.4459 160.928 79.6885 160.73 79.887C160.355 80.284 159.826 80.5928 159.252 80.7251Z" fill="#031F3A"/>
<path d="M173.169 47.2891C173.037 49.3182 173.037 51.5016 173.434 53.5087C173.985 56.3759 175.882 58.8681 178.044 60.7428C178.352 61.0075 178.661 61.2722 178.816 61.6471C178.926 61.9338 178.926 62.2647 178.904 62.5955C178.86 63.7865 178.33 69.6091 179.301 70.1384C179.588 70.2928 179.962 70.2707 180.271 70.1384C183.072 69.1239 181.661 64.4702 184.66 63.3013C186.182 62.7058 187.924 64.2276 188.873 66.2346C187.969 64.3158 189.204 61.4927 189.601 59.5298C190.13 56.8831 190.108 54.1483 189.865 51.4796C189.733 50.1342 189.557 48.7888 189.137 47.5096C187.792 43.3632 183.844 40.1872 179.499 39.7461C179.301 37.0995 178.529 34.916 176.389 33.2177C174.471 31.6959 171.934 30.946 169.486 30.946C165.649 30.9681 162.031 32.5781 158.591 34.2543C156.893 35.0925 155.216 35.9526 153.562 36.8348C152.504 37.4083 151.445 37.9817 150.585 38.7977C149.901 39.4374 149.372 40.2093 148.842 41.0033C147.629 42.8339 146.482 44.7527 145.777 46.848C145.446 47.7963 145.291 48.6565 145.755 49.6049C146.196 50.4871 146.99 51.1929 147.85 51.634C148.512 51.9869 149.261 52.2295 150.011 52.1854C150.761 52.1412 151.533 51.7222 151.842 51.0385C152.04 50.6194 152.062 50.1563 152.195 49.7151C152.327 49.274 152.702 48.855 153.143 48.877C153.452 48.877 153.717 49.0976 153.937 49.3402C154.444 49.8916 154.841 50.5753 155.459 50.9944C156.363 51.5899 157.62 51.5016 158.569 50.9502C159.517 50.3989 160.201 49.4946 160.708 48.5242C160.973 47.9948 161.304 47.3773 161.877 47.3111C162.406 47.2229 162.87 47.6419 163.311 47.9287C164.458 48.6786 166.001 48.7888 167.237 48.2154C168.361 47.6861 169.155 46.6715 170.104 45.8775C171.273 44.9071 172.618 44.3778 174.03 43.8705C173.5 44.9512 173.236 46.1201 173.169 47.2891Z" fill="#031F3A"/>
<path d="M183.822 63.0365C183.778 63.1026 183.734 63.1688 183.69 63.235C182.962 64.4039 183.006 66.0801 182.808 67.4034C182.543 69.1237 182.278 70.822 182.014 72.5423C181.793 73.9318 182.389 74.9464 183.844 75.211C187.66 75.9389 188.917 72.1894 189.468 69.1899C189.821 67.3152 189.755 64.9773 188.763 63.2791C187.638 61.3603 185.101 61.25 183.822 63.0365Z" fill="#FFBDC6"/>
<path d="M154.731 34.4749C155.966 32.1149 160.003 29.8653 162.23 29.1154C170.126 26.4908 179.301 28.6302 185.565 34.144C191.762 39.5917 193.108 50.0901 189.998 57.7653C188.608 56.0229 175.485 40.2754 154.731 34.4749Z" fill="#0D9837"/>
<path d="M190.108 57.9198C190.108 57.9198 169.045 30.7697 136.491 32.4459C136.491 32.4459 124.978 33.1737 131.705 41.7091C131.705 41.7091 139.91 48.5683 144.828 50.84C144.63 50.7518 145.49 48.7007 145.556 48.5463C146.328 46.9142 147.585 45.5688 149.195 44.7307C150.805 43.9147 152.592 43.65 154.334 43.4074C155.084 43.2971 155.856 43.2751 156.606 43.2751C159.164 43.2751 161.723 43.7162 164.215 44.3558C168.317 45.4365 172.243 47.0906 175.992 49.0315C178.264 50.2004 180.47 51.4576 182.609 52.825C183.844 53.597 185.079 54.413 186.292 55.2291C186.932 55.6481 187.549 56.0892 188.167 56.5303C188.74 56.9273 189.689 57.3684 190.108 57.9198Z" fill="#1AB248"/>
<path d="M126.39 161.933C126.214 158.911 125.971 155.868 126.456 152.868C126.92 150.023 128.066 147.332 128.993 144.597C131.176 138.157 132.257 131.364 132.147 124.571C132.058 118.793 129.257 112.948 129.985 107.191C135.058 106.309 140.903 104.92 145.843 103.442C146.615 103.221 158.503 100.773 158.503 101.413C160.047 106.706 163.399 109.816 169.178 110.456C174.89 111.095 179.235 107.963 182.83 103.971C183.073 103.795 204.246 112.132 208.26 114.006C210.84 115.22 215.075 116.521 217.214 118.396C220.236 121.042 216.442 127.019 215.141 130.217C211.656 138.863 208.105 147.531 205.9 156.595C200.232 179.798 203.54 224.116 204.268 249.7H124.074C124.361 226.454 127.625 183.878 126.39 161.933Z" fill="#1AB248"/>
<path d="M113.973 152.515C110.069 155.493 106.033 158.316 101.909 160.984C98.0711 163.455 94.0349 166.41 89.7121 167.932C89.9106 174.968 88.8078 182.488 87.7271 189.458C86.6023 196.824 84.9481 204.125 82.7646 211.271C84.3967 212.285 86.0068 213.3 86.9331 214.976C87.4624 215.924 87.8374 216.939 88.4329 217.843C89.4695 219.409 91.0575 220.534 92.6013 221.615C92.8881 221.813 93.2189 222.034 93.5718 222.056C93.8585 222.056 94.1232 221.945 94.3658 221.835C95.7111 221.196 96.9462 220.402 98.0931 219.453C98.6004 219.012 99.1077 218.549 99.7252 218.284C100.21 218.086 101.203 217.953 101.6 218.483C102.217 219.343 100.387 221.813 99.9678 222.563C99.1959 223.908 98.2916 225.254 97.3432 226.445C97.1006 226.753 96.836 227.062 96.5272 227.305C94.5643 228.672 91.6529 229.18 89.3812 229.775C88.477 230.018 87.5286 230.238 86.6243 230.04C85.72 229.863 84.9481 229.29 84.2203 228.738C82.3456 227.305 80.4268 225.915 78.6182 224.416C77.1626 223.203 75.2438 222.144 74.5821 220.357C74.3615 219.762 74.141 219.188 73.9204 218.593C73.1044 216.41 72.2884 214.16 72.0899 211.844C71.8473 209.197 71.8031 206.529 71.759 203.86C71.5164 191.862 71.2959 179.842 71.0532 167.844C71.0091 165.881 70.8327 163.477 71.5164 161.624C72.2442 159.683 73.9204 158.051 75.3099 156.573C82.1471 149.405 89.4033 142.634 96.7477 135.996C98.9092 134.033 101.115 132.07 103.673 130.636C105.548 129.578 107.599 128.828 109.694 128.409C111.679 128.012 113.752 127.945 115.715 128.453C117.678 128.96 119.531 130.085 120.656 131.783C122.508 134.562 122.155 138.289 121.141 141.487C120.501 143.517 119.928 145.81 118.913 147.773C117.943 149.736 115.737 151.17 113.973 152.515Z" fill="#FFBDC6"/>
<path d="M209.142 152.295C210.531 151.015 212.318 150.177 214.082 149.56C216.354 148.744 218.868 148.192 221.184 148.898C224.272 149.824 226.389 152.736 227.514 155.647C229.477 160.72 229.83 166.741 230.734 172.1C231.837 178.761 232.719 185.488 233.006 192.237C233.138 195.214 233.138 198.214 232.499 201.125C231.947 203.662 230.778 206.242 228.595 207.632C226.367 209.043 223.522 208.955 220.897 208.734C217.722 208.448 214.546 207.896 211.458 207.08C203.452 204.941 195.997 201.103 189.116 196.538C185.631 194.222 182.279 191.685 179.014 189.083C175.905 186.591 173.081 183.437 169.332 181.959C167.832 181.364 166.244 181.364 164.678 181.364C160.907 181.386 157.665 180.614 154.224 179.07C153.254 178.629 152.46 177.769 152.239 176.688C152.085 175.894 152.305 175.012 152.857 174.438C152.217 173.777 151.732 172.541 151.864 171.615C151.997 170.821 152.724 170.115 153.54 170.159C152.592 168.968 152.879 166.983 154.136 166.123C153.827 165.373 153.673 164.535 153.849 163.741C154.026 162.947 154.621 162.22 155.393 161.999C155.812 161.889 156.253 161.911 156.694 161.955C160.091 162.242 163.443 162.639 166.84 162.462C167.082 162.44 167.347 162.418 167.501 162.264C167.634 162.109 167.678 161.911 167.7 161.712C167.876 160.323 167.832 158.911 167.965 157.522C168.163 155.493 168.781 153.486 169.751 151.699C169.994 151.258 170.258 150.817 170.655 150.53C171.052 150.243 171.626 150.111 172.067 150.354C172.508 150.596 172.707 151.126 172.707 151.611C172.707 152.096 172.574 152.581 172.464 153.067C171.935 155.603 172.729 158.117 173.346 160.543C173.633 161.712 173.677 162.903 174.074 164.006C174.603 165.484 175.441 166.895 176.103 168.307C177.36 170.976 178.397 172.1 181.043 173.468C184.021 175.012 187.065 176.357 190.152 177.636C194.012 179.246 197.938 180.724 201.798 182.378C204.643 183.591 207.51 184.76 210.333 186.017C209.01 183.812 208.083 181.342 207.378 178.893C206.826 176.953 206.385 174.99 206.032 173.005C205.326 168.924 205.018 164.778 204.929 160.632C204.907 159.705 204.907 158.735 205.128 157.831C205.613 155.912 207.378 154.147 208.723 152.736C208.877 152.537 209.01 152.405 209.142 152.295Z" fill="#FFBDC6"/>
<path d="M123.28 110.919C115.914 117.425 107.312 125.144 99.9459 131.651C102.438 135.533 105.129 139.326 107.974 142.965C109.452 144.862 110.974 146.715 112.562 148.545C113.488 149.604 114.899 152.228 116.289 152.647C117.017 152.868 119.002 151.589 119.774 151.501C121.913 151.258 124.052 150.949 126.192 150.596C128.75 150.155 131.397 149.604 133.492 148.06C135.411 146.648 136.712 144.509 137.484 142.237C140.837 132.665 141.123 122.718 137.175 113.301C133.977 105.648 129.346 105.559 123.28 110.919Z" fill="#1AB248"/>
<path d="M220.236 121.704C218.449 119.3 216.971 117.138 213.575 117.094C212.825 117.094 212.053 117.205 211.325 117.359C203.584 118.991 196.46 126.468 196.592 134.672C196.636 137.738 197.563 140.693 198.467 143.627C200.54 150.288 202.613 156.948 204.665 163.609C210.862 161.403 217.214 160.235 223.522 158.492C225.595 157.919 227.624 157.389 229.675 156.706C231.043 156.243 229.014 145.921 228.771 144.531C227.801 139.15 226.764 133.702 224.625 128.651C223.5 125.983 221.956 124.02 220.258 121.77C220.258 121.726 220.258 121.726 220.236 121.704Z" fill="#1AB248"/>
<path d="M163.355 132.18C164.105 132.18 164.877 132.136 165.627 132.07C165.891 132.048 166.178 132.004 166.421 131.761C166.685 131.519 166.729 131.144 166.751 130.923C167.435 124.659 167.92 118.263 168.207 111.977C168.207 111.779 168.053 111.603 167.854 111.603C167.634 111.603 167.479 111.757 167.479 111.955C167.193 118.241 166.685 124.615 166.024 130.857C166.001 130.989 165.979 131.166 165.913 131.254C165.847 131.32 165.671 131.342 165.56 131.342C164.193 131.496 162.826 131.496 161.458 131.364C161.238 131.342 161.083 131.496 161.061 131.695C161.039 131.893 161.193 132.07 161.392 132.092C162.032 132.158 162.693 132.18 163.355 132.18Z" fill="#0F6B2B"/>
<path d="M184.616 102.935C184.704 103.199 184.793 103.486 184.815 103.773C184.903 104.589 184.594 105.405 184.285 106.155C182.653 110.169 178.816 115.484 174.912 117.623C172.596 118.903 170.413 117.844 168.825 115.925C167.854 114.756 167.17 113.345 166.575 111.933C166.288 111.249 165.825 110.5 166.112 109.75C168.406 109.617 170.655 108.118 172.574 106.993C174.669 105.78 176.654 104.368 178.507 102.802C179.191 102.229 179.852 101.611 180.492 100.994C181.154 100.354 181.771 99.6924 182.477 99.119C182.521 99.0969 182.565 99.0528 182.609 99.0308C182.764 98.9867 182.896 99.2513 182.984 99.3616C183.756 100.2 184.263 101.832 184.616 102.935Z" fill="#32D764"/>
<path d="M160.885 105.184C160.157 104.126 159.606 102.935 159.275 101.7C159.032 100.729 158.834 99.6044 158.812 98.5898C158.812 98.634 157.114 99.45 156.937 99.5823C156.452 99.9573 155.79 100.288 155.415 100.795C154.732 101.7 154.555 103.221 154.621 104.324C154.71 105.912 154.952 107.5 155.283 109.066C155.658 110.919 156.099 112.793 157.003 114.492C157.665 115.727 158.68 116.521 160.069 115.793C161.922 114.823 164.171 112.86 165.495 111.25C165.825 110.831 166.156 110.389 166.267 109.86C165.186 109.375 164.326 108.581 163.399 107.919C162.429 107.213 161.569 106.177 160.885 105.184Z" fill="#32D764"/>
<path d="M133.227 130.747C133.404 130.747 133.558 130.614 133.58 130.416C134.088 126.424 134.595 122.299 133.889 118.219C133.073 113.61 130.691 109.926 127.339 108.118C127.162 108.03 126.942 108.096 126.853 108.272C126.765 108.449 126.831 108.669 127.008 108.757C130.118 110.434 132.433 114.029 133.183 118.351C133.889 122.321 133.382 126.38 132.874 130.328C132.852 130.526 132.985 130.702 133.183 130.747C133.183 130.747 133.205 130.747 133.227 130.747Z" fill="#0F6B2B"/>
<path d="M165.12 118.285C165.671 118.594 166.002 119.146 165.693 119.873C165.45 120.469 164.767 120.822 164.149 120.711C163.024 120.535 162.671 119.212 163.51 118.506C164.039 118.043 164.502 117.932 165.12 118.285Z" fill="#0F6B2B"/>
<path d="M164.899 127.372C164.855 127.659 164.789 127.968 164.59 128.166C164.414 128.342 164.149 128.431 163.906 128.453C163.554 128.497 163.157 128.409 162.87 128.188C162.583 127.968 162.385 127.615 162.363 127.262C162.363 126.843 162.605 126.424 162.98 126.203C163.995 125.652 165.075 126.203 164.899 127.372Z" fill="#0F6B2B"/>
<path d="M160.642 167.689C160.818 167.689 160.951 167.579 160.995 167.403C161.039 167.204 160.907 167.006 160.708 166.961C158.547 166.498 156.562 166.079 154.621 165.704C154.422 165.66 154.224 165.793 154.202 165.991C154.158 166.19 154.29 166.388 154.489 166.41C156.429 166.785 158.414 167.182 160.554 167.645C160.598 167.689 160.62 167.689 160.642 167.689Z" fill="#FFA6A9"/>
<path d="M159.672 172.122C159.826 172.122 159.981 172.034 160.025 171.858C160.091 171.659 159.981 171.461 159.782 171.395C158.569 170.998 157.334 170.733 156.143 170.468C155.349 170.292 154.621 170.137 153.915 169.939C153.717 169.895 153.518 170.005 153.474 170.204C153.43 170.402 153.54 170.601 153.739 170.645C154.445 170.843 155.195 170.998 155.989 171.174C157.158 171.439 158.371 171.703 159.562 172.078C159.606 172.122 159.628 172.122 159.672 172.122Z" fill="#FFA6A9"/>
<path d="M158.348 176.489C158.503 176.489 158.635 176.401 158.701 176.247C158.767 176.048 158.657 175.85 158.481 175.784C156.76 175.188 154.974 174.659 153.232 174.174C153.033 174.129 152.835 174.24 152.768 174.416C152.702 174.615 152.835 174.813 153.011 174.879C154.731 175.365 156.496 175.872 158.216 176.467C158.26 176.489 158.304 176.489 158.348 176.489Z" fill="#FFA6A9"/>
<path d="M89.69 168.307C89.7562 168.307 89.8444 168.285 89.9106 168.241C90.065 168.13 90.1091 167.888 89.9988 167.733C89.69 167.314 89.293 167.028 88.9181 166.763C87.308 165.682 85.5436 164.866 83.6689 164.337C83.4704 164.293 83.2719 164.403 83.2057 164.579C83.1396 164.778 83.2719 164.976 83.4484 165.043C85.2349 165.55 86.9331 166.344 88.477 167.381C88.7858 167.579 89.1386 167.844 89.3592 168.152C89.4695 168.241 89.5797 168.307 89.69 168.307Z" fill="#FFA6A9"/>
<path d="M118.362 152.581C118.406 152.581 118.45 152.581 118.494 152.559C122.663 150.861 126.368 147.906 128.949 144.222C129.059 144.068 129.015 143.825 128.86 143.715C128.706 143.605 128.463 143.649 128.353 143.803C125.861 147.376 122.244 150.243 118.23 151.876C118.053 151.942 117.943 152.162 118.031 152.361C118.075 152.493 118.208 152.581 118.362 152.581Z" fill="#0F6B2B"/>
<path d="M89.4038 226.07C89.6023 226.07 89.8008 226.004 89.9552 225.959C91.2344 225.562 92.5577 225.276 93.9031 225.143C94.1457 225.121 94.4104 225.099 94.653 224.967C94.9838 224.791 95.2044 224.504 95.3808 224.239C95.9763 223.379 96.66 222.651 97.432 222.012C97.5864 221.879 97.6084 221.659 97.4761 221.504C97.3438 221.35 97.1232 221.328 96.9688 221.46C96.1528 222.144 95.425 222.938 94.8074 223.798C94.631 224.041 94.4986 224.239 94.3222 224.327C94.1898 224.394 94.0355 224.416 93.859 224.416C92.4475 224.57 91.08 224.835 89.7567 225.254C89.6023 225.298 89.47 225.342 89.3597 225.32C89.2715 225.298 89.1833 225.21 89.0951 225.143L85.4559 222.056C85.3015 221.923 85.081 221.945 84.9487 222.1C84.8163 222.254 84.8384 222.475 84.9928 222.607L88.6319 225.695C88.7642 225.805 88.9407 225.959 89.1833 226.026C89.2495 226.07 89.3156 226.07 89.4038 226.07Z" fill="#FFA6A9"/>
<path d="M90.9475 223.291C91.0798 223.291 91.1901 223.247 91.2783 223.225C91.6312 223.114 91.9179 223.092 92.2267 223.048C92.6458 223.004 93.0648 222.982 93.6383 222.673C93.8147 222.585 93.8809 222.364 93.7926 222.188C93.7044 222.011 93.4839 221.945 93.3074 222.034C92.8884 222.254 92.5796 222.276 92.1826 222.32C91.8738 222.342 91.5209 222.386 91.0798 222.519C91.0357 222.541 90.9916 222.541 90.9696 222.541C90.9916 222.541 90.9475 222.497 90.9254 222.475L89.0066 220.534C88.8743 220.379 88.6317 220.379 88.4993 220.534C88.345 220.666 88.345 220.909 88.4993 221.041L90.4182 222.982C90.5064 223.07 90.6387 223.202 90.8372 223.247C90.8593 223.291 90.9034 223.291 90.9475 223.291Z" fill="#FFA6A9"/>
<path d="M89.4038 226.07C89.6023 226.07 89.8008 226.004 89.9552 225.96C91.2344 225.563 92.5577 225.276 93.9031 225.143C94.1457 225.121 94.4104 225.099 94.653 224.967C94.9838 224.791 95.2044 224.504 95.3808 224.239C96.3071 222.938 97.454 221.857 98.7774 221.041C98.9538 220.931 98.9979 220.71 98.8876 220.534C98.7774 220.357 98.5568 220.313 98.3803 220.424C96.9909 221.284 95.7558 222.453 94.8074 223.798C94.6309 224.041 94.4986 224.239 94.3222 224.327C94.1898 224.394 94.0354 224.416 93.859 224.416C92.4475 224.57 91.08 224.835 89.7567 225.254C89.6023 225.298 89.47 225.342 89.3597 225.32C89.2715 225.298 89.1833 225.21 89.095 225.143L85.4559 222.056C85.3015 221.923 85.081 221.945 84.9486 222.1C84.8163 222.254 84.8384 222.475 84.9928 222.607L88.6319 225.695C88.7642 225.805 88.9407 225.96 89.1833 226.026C89.2494 226.07 89.3156 226.07 89.4038 226.07Z" fill="#FFA6A9"/>
<path d="M109.165 148.369L102.703 155.515L98.4902 187.826L107.533 187.318L109.165 148.369Z" fill="#D8A05E"/>
<path d="M147.718 189.59L150.96 151.434L109.165 148.369L104.776 187.318L147.718 189.59Z" fill="#E7B67B"/>
<path d="M132.72 158.316L131.706 159.198L130.691 158.183L129.544 159.066L128.662 157.919L126.876 158.955L127.493 149.714L134.264 150.221L133.602 159.33L132.72 158.316Z" fill="white"/>
<path d="M91.0357 184.628L86.8231 221.857L157.466 226.996L160.687 190.164L91.0357 184.628Z" fill="#F5944F"/>
<path d="M130.294 195.722L128.772 196.868L127.758 195.589L126.368 196.736L125.464 195.457L124.075 196.471L124.979 187.341L132.456 187.936L131.573 196.979L130.294 195.722Z" fill="#F8C5A5"/>
<path d="M86.8231 221.857L81.199 216.189L85.0145 185.4L91.0356 184.628L86.8231 221.857Z" fill="#D17845"/>
<path d="M83.0076 210.477C84.8382 211.337 85.6983 213.542 87.573 214.292C89.5139 215.064 92.1164 214.424 93.7485 215.88C94.2117 216.299 94.5205 216.939 94.3661 217.534C93.9691 219.056 92.0503 218.836 90.9034 218.836C88.9405 218.858 86.9334 218.439 84.9705 218.24C83.184 218.064 81.3755 217.711 79.8978 216.674C79.5008 216.409 79.1258 216.101 78.8391 215.726C77.9128 214.579 77.8246 212.814 78.6627 211.601C79.5008 210.388 81.1549 209.793 82.5665 210.234C82.6988 210.344 82.8532 210.41 83.0076 210.477Z" fill="#FFBDC6"/>
<path d="M89.4038 226.07C89.6023 226.07 89.8008 226.004 89.9552 225.96C91.2344 225.563 92.5577 225.276 93.9031 225.143C94.1457 225.121 94.4103 225.099 94.653 224.967C94.9838 224.791 95.2043 224.504 95.3808 224.239C95.4911 224.085 95.469 223.82 95.3146 223.71C95.1382 223.6 94.9397 223.622 94.8074 223.776L94.7853 223.82C94.6309 224.041 94.4986 224.217 94.3221 224.305C94.1898 224.372 94.0354 224.394 93.859 224.394C92.4474 224.548 91.08 224.813 89.7567 225.232C89.6023 225.276 89.4699 225.32 89.3597 225.298C89.2714 225.276 89.1832 225.188 89.095 225.121L85.4559 222.034C85.3015 221.901 85.0809 221.923 84.9486 222.078C84.8163 222.232 84.8383 222.453 84.9927 222.585L88.6319 225.673C88.7642 225.783 88.9406 225.937 89.1832 226.004C89.2494 226.07 89.3156 226.07 89.4038 226.07Z" fill="#FFA6A9"/>
<path d="M90.9473 223.291C91.0797 223.291 91.1899 223.247 91.2782 223.225C91.6311 223.114 91.9178 223.092 92.2265 223.048L92.3809 223.026C92.5794 223.004 92.7338 222.828 92.7118 222.629C92.6897 222.431 92.5133 222.276 92.3148 222.298L92.1604 222.32C91.8516 222.342 91.4987 222.386 91.0576 222.519C91.0135 222.541 90.9694 222.541 90.9473 222.541C90.9694 222.541 90.9253 222.497 90.9032 222.475L90.5944 222.166C90.4621 222.011 90.2195 222.011 90.0872 222.166C89.9328 222.298 89.9328 222.541 90.0872 222.673L90.396 222.982C90.4842 223.07 90.6165 223.202 90.815 223.247C90.8591 223.291 90.9032 223.291 90.9473 223.291Z" fill="#FFA6A9"/>
<path d="M83.14 218.461C83.3165 218.461 83.4709 218.328 83.4929 218.152C83.537 217.953 83.3826 217.755 83.1841 217.733L81.5741 217.468C81.133 217.402 80.6919 217.292 80.4934 217.005C80.3831 216.829 80.1625 216.784 79.9861 216.917C79.8097 217.027 79.7655 217.248 79.8979 217.424C80.2949 217.997 81.0227 218.13 81.4638 218.196L83.0739 218.461C83.118 218.461 83.118 218.461 83.14 218.461Z" fill="#FFA6A9"/>
<path d="M71.7813 203.838C71.6269 195.391 71.4504 186.944 71.296 178.496L89.3594 177.438C88.9624 181.496 88.3669 185.576 87.7714 189.458C86.6466 196.824 84.9924 204.125 82.8089 211.271C83.5809 211.756 84.3528 212.241 85.0365 212.792L73.8765 218.372C73.0825 216.255 72.3326 214.072 72.1341 211.822C71.8915 209.175 71.8474 206.507 71.7813 203.838Z" fill="#FFBDC6"/>
<path d="M79.8314 211.271C79.8976 211.271 79.9637 211.248 80.0299 211.226C80.7798 210.763 81.7502 210.631 82.6104 210.918C82.8089 210.984 83.0074 210.874 83.0735 210.675C83.1397 210.477 83.0294 210.278 82.8309 210.212C81.7723 209.859 80.5813 209.991 79.655 210.587C79.4785 210.697 79.4344 210.918 79.5447 211.094C79.5888 211.204 79.7211 211.271 79.8314 211.271Z" fill="#FFA6A9"/>
<path d="M153.938 215.792L153.254 222.894L141.145 221.923L141.873 214.8L153.938 215.792Z" fill="white"/>
<path d="M143.682 216.387L152.037 217.059L152.007 217.433L143.652 216.761L143.682 216.387Z" fill="#B3B3B4"/>
<path d="M143.528 218.35L151.882 219.022L151.852 219.396L143.498 218.724L143.528 218.35Z" fill="#B3B3B4"/>
<path d="M143.374 220.157L151.729 220.828L151.698 221.202L143.344 220.531L143.374 220.157Z" fill="#B3B3B4"/>
<path d="M144.586 178.077L143.902 185.157L131.794 184.187L132.5 177.063L144.586 178.077Z" fill="white"/>
<path d="M134.331 178.65L142.685 179.322L142.655 179.696L134.301 179.024L134.331 178.65Z" fill="#B3B3B4"/>
<path d="M134.176 180.613L142.53 181.285L142.5 181.659L134.146 180.987L134.176 180.613Z" fill="#B3B3B4"/>
<path d="M134.021 182.421L142.375 183.093L142.345 183.466L133.991 182.795L134.021 182.421Z" fill="#B3B3B4"/>
</g>
</svg>
