<svg width="39" height="47" viewBox="0 0 39 47" fill="none" xmlns="http://www.w3.org/2000/svg">
<path d="M14.7858 35.0633C14.5809 35.0638 14.3771 35.0319 14.1822 34.9688C13.0251 34.5934 12.532 33.293 12.0557 32.0349C11.7407 31.2038 11.4129 30.3436 10.9732 30.0229C10.5335 29.7021 9.59237 29.6488 8.69884 29.607C7.36561 29.5427 5.98674 29.4733 5.28027 28.5013C4.58087 27.5371 4.93829 26.216 5.28027 24.9355C5.51555 24.0619 5.75918 23.1587 5.58304 22.6156C5.41977 22.1122 4.71265 21.5459 4.02933 20.9975C2.97123 20.1477 1.87842 19.2703 1.87842 18.0315C1.87842 16.7928 2.97123 15.9147 4.0319 15.0674C4.71522 14.5198 5.42234 13.9534 5.58562 13.4501C5.76175 12.9069 5.52133 12.0037 5.28284 11.1301C4.93764 9.8496 4.58023 8.52601 5.28284 7.56434C5.98996 6.59302 7.36818 6.52488 8.70141 6.45867C9.59816 6.41432 10.5251 6.36868 10.9757 6.04019C11.4264 5.7117 11.7407 4.85803 12.0551 4.02813C12.5314 2.77012 13.0238 1.47031 14.1815 1.09426C15.2911 0.733631 16.4314 1.47417 17.5307 2.19221C18.3021 2.69362 19.0947 3.21174 19.6854 3.21174C20.2762 3.21174 21.0707 2.69298 21.8396 2.19221C22.9394 1.47481 24.0779 0.733631 25.1881 1.09426C26.3452 1.46967 26.8382 2.77012 27.3145 4.02813C27.6295 4.85931 27.9574 5.71942 28.3971 6.04019C28.8368 6.36096 29.7753 6.41432 30.6714 6.45867C32.0046 6.52295 33.3835 6.59238 34.09 7.56434C34.7894 8.52858 34.432 9.8496 34.09 11.1301C33.8547 12.0037 33.6111 12.9069 33.7872 13.4501C33.9505 13.9534 34.6576 14.5198 35.3409 15.0681C36.3984 15.9147 37.4912 16.7928 37.4912 18.0315C37.4912 19.2703 36.3984 20.1477 35.3371 20.993C34.6537 21.5407 33.9466 22.1071 33.7833 22.6104C33.6072 23.153 33.8476 24.0568 34.0868 24.9297C34.432 26.2103 34.7894 27.5345 34.0868 28.4955C33.3796 29.4668 32.0014 29.535 30.6682 29.6012C29.7714 29.6455 28.8445 29.6912 28.3939 30.0197C27.9432 30.3481 27.627 31.2005 27.312 32.0317C26.8356 33.2897 26.3432 34.5895 25.1855 34.9656C24.0753 35.3249 22.9356 34.5857 21.8363 33.8676C21.065 33.3662 20.2723 32.8481 19.6822 32.8481C19.0921 32.8481 18.2963 33.3669 17.5275 33.8683C16.6288 34.459 15.7031 35.0633 14.7858 35.0633ZM19.6848 31.5657C20.6574 31.5657 21.6133 32.1905 22.5409 32.7941C23.3476 33.32 24.2572 33.9165 24.7908 33.7455C25.3616 33.5597 25.7422 32.5531 26.1112 31.5792C26.493 30.5719 26.8871 29.5298 27.6385 28.9821C28.4003 28.428 29.522 28.3727 30.6065 28.3194C31.59 28.2705 32.7047 28.2152 33.0492 27.7408C33.3867 27.2767 33.0987 26.2083 32.8448 25.2659C32.5607 24.2111 32.2663 23.1202 32.5607 22.2138C32.8422 21.3453 33.7017 20.6568 34.5329 19.9909C35.3641 19.3249 36.2042 18.6519 36.2042 18.0302C36.2042 17.4086 35.3551 16.7279 34.5329 16.0696C33.7107 15.4114 32.8422 14.7145 32.5607 13.8461C32.2663 12.9403 32.5607 11.8494 32.8448 10.7939C33.1019 9.85153 33.3874 8.78379 33.0492 8.31966C32.704 7.8459 31.5894 7.79061 30.6065 7.74112C29.522 7.68776 28.3996 7.63248 27.6385 7.07836C26.8845 6.5326 26.493 5.49121 26.1131 4.48326C25.7441 3.50937 25.3629 2.50206 24.7921 2.31692C24.2637 2.14529 23.3489 2.74247 22.5422 3.26831C21.6133 3.87257 20.6574 4.4974 19.6848 4.4974C18.7122 4.4974 17.7563 3.87257 16.8281 3.26895C16.0213 2.74312 15.1117 2.14657 14.5782 2.31756C14.0073 2.50334 13.6268 3.51001 13.2578 4.4839C12.8759 5.49121 12.4819 6.53324 11.7304 7.08093C10.9687 7.63505 9.84693 7.69033 8.76248 7.74369C7.77959 7.79254 6.66493 7.84783 6.31973 8.32223C5.98224 8.78636 6.27023 9.8541 6.52415 10.7965C6.80828 11.8514 7.10269 12.9423 6.80828 13.8486C6.52672 14.7171 5.66726 15.4056 4.83608 16.0715C4.0049 16.7375 3.16472 17.4106 3.16472 18.0322C3.16472 18.6538 4.0139 19.3345 4.83608 19.9928C5.65826 20.6511 6.52672 21.3472 6.80892 22.2144C7.10334 23.1202 6.80892 24.2111 6.52479 25.2666C6.26766 26.209 5.98224 27.2767 6.32037 27.7408C6.66557 28.2146 7.78024 28.2699 8.76312 28.3194C9.84822 28.3727 10.97 28.428 11.7311 28.9821C12.4825 29.5292 12.8766 30.5712 13.2584 31.5792C13.6274 32.5531 14.0086 33.5604 14.5794 33.7455C15.1066 33.9159 16.022 33.32 16.8293 32.7941C17.7563 32.1905 18.7116 31.5657 19.6848 31.5657Z" fill="#222222" stroke="#222222" stroke-width="0.2"/>
<path d="M19.6845 29.121C17.4914 29.121 15.3475 28.4706 13.5239 27.2522C11.7004 26.0337 10.2791 24.3019 9.43979 22.2757C8.60051 20.2495 8.38091 18.0199 8.80878 15.8689C9.23664 13.7178 10.2927 11.742 11.8435 10.1912C13.3943 8.6404 15.3702 7.5843 17.5212 7.15643C19.6722 6.72857 21.9018 6.94816 23.928 7.78745C25.9542 8.62674 27.6861 10.048 28.9045 11.8716C30.123 13.6951 30.7733 15.839 30.7733 18.0322C30.7699 20.9721 29.6006 23.7906 27.5217 25.8694C25.4429 27.9482 22.6244 29.1176 19.6845 29.121ZM19.6845 8.22902C17.7456 8.22902 15.8503 8.80397 14.2382 9.88115C12.6261 10.9583 11.3696 12.4894 10.6276 14.2807C9.88561 16.072 9.69148 18.043 10.0697 19.9447C10.448 21.8463 11.3816 23.5931 12.7526 24.9641C14.1236 26.335 15.8704 27.2687 17.772 27.647C19.6736 28.0252 21.6447 27.8311 23.436 27.0891C25.2273 26.3471 26.7584 25.0906 27.8355 23.4785C28.9127 21.8664 29.4877 19.9711 29.4877 18.0322C29.4848 15.433 28.451 12.9412 26.6132 11.1033C24.7754 9.26534 22.2836 8.23144 19.6845 8.22838V8.22902Z" fill="#222222" stroke="#222222" stroke-width="0.2"/>
<path d="M16.2906 23.898C16.197 23.8979 16.1046 23.8774 16.0197 23.8379C15.9349 23.7984 15.8597 23.7409 15.7994 23.6694C15.7391 23.5978 15.6951 23.5139 15.6706 23.4236C15.6461 23.3333 15.6416 23.2387 15.6574 23.1465L16.2481 19.6996L13.7411 17.2569C13.6552 17.1731 13.5944 17.067 13.5656 16.9505C13.5368 16.834 13.5413 16.7117 13.5784 16.5976C13.6155 16.4835 13.6839 16.382 13.7757 16.3047C13.8675 16.2274 13.9791 16.1774 14.0979 16.1602L17.5634 15.6575L19.1062 12.5237C19.1594 12.4158 19.2418 12.3249 19.3441 12.2615C19.4463 12.1981 19.5644 12.1647 19.6847 12.165C19.8051 12.1647 19.9231 12.1981 20.0254 12.2615C20.1276 12.3249 20.2101 12.4158 20.2633 12.5237L21.8061 15.6575L25.2664 16.1602C25.3852 16.1774 25.4968 16.2274 25.5886 16.3047C25.6804 16.382 25.7487 16.4835 25.7859 16.5976C25.823 16.7117 25.8274 16.834 25.7987 16.9505C25.7699 17.067 25.7091 17.1731 25.6232 17.2569L23.1161 19.6996L23.7069 23.1465C23.726 23.2639 23.7121 23.3843 23.6669 23.4943C23.6216 23.6043 23.5467 23.6996 23.4505 23.7696C23.3542 23.8396 23.2405 23.8814 23.1219 23.8906C23.0033 23.8998 22.8845 23.8758 22.7787 23.8215L19.6847 22.1964L16.5901 23.8215C16.498 23.871 16.3952 23.8972 16.2906 23.898ZM15.5738 17.2473L17.3866 19.0144C17.4612 19.0872 17.5169 19.177 17.549 19.2761C17.5812 19.3752 17.5887 19.4806 17.5711 19.5833L17.1436 22.0794L19.3845 20.9011C19.4769 20.8525 19.5797 20.827 19.6841 20.827C19.7885 20.827 19.8913 20.8525 19.9836 20.9011L22.2239 22.0794L21.7964 19.5833C21.7788 19.4806 21.7863 19.3752 21.8185 19.2761C21.8506 19.177 21.9064 19.0872 21.9809 19.0144L23.7937 17.2473L21.2866 16.8834C21.1835 16.8684 21.0855 16.8286 21.0012 16.7673C20.9169 16.7061 20.8487 16.6252 20.8026 16.5318L19.6847 14.2607L18.5636 16.5318C18.5175 16.6252 18.4493 16.7061 18.365 16.7673C18.2807 16.8286 18.1827 16.8684 18.0796 16.8834L15.5738 17.2473Z" fill="#222222" stroke="#222222" stroke-width="0.2"/>
<path d="M29.7205 45.999C29.6068 45.999 29.4951 45.9689 29.3969 45.9116C29.2986 45.8544 29.2173 45.7721 29.1613 45.6731L22.7368 34.3233C22.6575 34.1753 22.6393 34.0022 22.686 33.8409C22.7327 33.6797 22.8407 33.5431 22.9868 33.4604C23.1329 33.3777 23.3056 33.3554 23.4679 33.3983C23.6302 33.4413 23.7693 33.546 23.8554 33.6901L29.5675 43.7826L31.1103 39.1484C31.137 39.0682 31.1793 38.994 31.2347 38.9302C31.2902 38.8663 31.3576 38.814 31.4333 38.7763C31.5089 38.7386 31.5913 38.7161 31.6756 38.7103C31.76 38.7044 31.8446 38.7152 31.9248 38.7421L36.3545 40.2206L30.22 29.27C30.1749 29.1962 30.1452 29.1141 30.1325 29.0285C30.1199 28.943 30.1247 28.8557 30.1466 28.772C30.1685 28.6884 30.2071 28.61 30.26 28.5416C30.3129 28.4731 30.3791 28.4161 30.4546 28.3739C30.5301 28.3316 30.6133 28.305 30.6993 28.2957C30.7853 28.2864 30.8722 28.2945 30.955 28.3196C31.0378 28.3447 31.1147 28.3863 31.181 28.4418C31.2473 28.4973 31.3018 28.5656 31.3411 28.6426L38.2875 41.0428C38.3509 41.156 38.3785 41.2857 38.3668 41.4149C38.355 41.544 38.3045 41.6666 38.2218 41.7666C38.1392 41.8665 38.0282 41.9391 37.9035 41.9748C37.7788 42.0105 37.6462 42.0076 37.5232 41.9666L32.1266 40.1634L30.3306 45.56C30.2912 45.678 30.2185 45.782 30.1211 45.8595C30.0238 45.937 29.9061 45.9846 29.7822 45.9965C29.7617 45.9984 29.7411 45.9993 29.7205 45.999Z" fill="#222222" stroke="#222222" stroke-width="0.2"/>
<path d="M9.64886 45.9991C9.62745 46.0003 9.60599 46.0003 9.58458 45.9991C9.46075 45.9872 9.34303 45.9397 9.2457 45.8622C9.14837 45.7847 9.07561 45.6806 9.03624 45.5626L7.24018 40.1661L1.84619 41.9666C1.72316 42.0077 1.59059 42.0105 1.4659 41.9748C1.34121 41.9391 1.23024 41.8666 1.14756 41.7666C1.06488 41.6667 1.01436 41.5441 1.00263 41.4149C0.990909 41.2858 1.01853 41.1561 1.08187 41.0429L8.02829 28.6427C8.06849 28.5671 8.1234 28.5003 8.18977 28.4462C8.25615 28.3922 8.33266 28.3519 8.41482 28.3278C8.49698 28.3037 8.58312 28.2962 8.6682 28.3058C8.75328 28.3155 8.83557 28.342 8.91025 28.3839C8.98493 28.4258 9.05049 28.4822 9.10309 28.5497C9.15568 28.6173 9.19425 28.6947 9.21652 28.7773C9.2388 28.86 9.24433 28.9463 9.2328 29.0312C9.22127 29.116 9.19291 29.1977 9.14938 29.2714L3.0155 40.2201L7.44524 38.7416C7.52539 38.7147 7.61006 38.7038 7.6944 38.7097C7.77874 38.7156 7.8611 38.738 7.93675 38.7757C8.01241 38.8135 8.07988 38.8658 8.13529 38.9296C8.19071 38.9935 8.23299 39.0676 8.2597 39.1478L9.8025 43.782L15.5147 33.6896C15.6008 33.5454 15.7398 33.4407 15.9022 33.3978C16.0645 33.3548 16.2371 33.3771 16.3832 33.4598C16.5293 33.5425 16.6373 33.6791 16.684 33.8404C16.7307 34.0016 16.7125 34.1748 16.6332 34.3228L10.2081 45.6732C10.1521 45.7721 10.0708 45.8544 9.97251 45.9117C9.87426 45.9689 9.76258 45.9991 9.64886 45.9991Z" fill="#222222" stroke="#222222" stroke-width="0.2"/>
</svg>
