<svg width="44" height="40" viewBox="0 0 44 40" fill="none" xmlns="http://www.w3.org/2000/svg">
<path d="M41.7073 13.1707C42.9589 13.1277 43.9402 12.081 43.9024 10.8293V2.25585C43.9567 1.07012 43.0441 0.0626524 41.8588 0H25.4583C24.2729 0.0626524 23.3603 1.07012 23.4146 2.25585V10.8293C23.3768 12.081 24.3582 13.1277 25.6097 13.1707H30.7317V16.0976H24.8451C24.5693 13.0083 22.4839 11.3093 18.6432 11.0239C21.0979 9.61802 21.948 6.48841 20.5421 4.03372C19.1362 1.57902 16.0066 0.728872 13.5519 2.13476C11.0972 3.54064 10.2471 6.67024 11.653 9.12494C12.1058 9.91555 12.7613 10.5711 13.5519 11.0239C9.71121 11.3093 7.62512 13.0083 7.35 16.0976H0.731707C0.327622 16.0976 0 16.4252 0 16.8293V19.7561C0 20.1602 0.327622 20.4878 0.731707 20.4878H1.46341V39.2683C1.46341 39.6724 1.79104 40 2.19512 40H41.7073C42.1114 40 42.439 39.6724 42.439 39.2683V20.4878H43.1707C43.5748 20.4878 43.9024 20.1602 43.9024 19.7561V16.8293C43.9024 16.4252 43.5748 16.0976 43.1707 16.0976H36.5853V13.1707H41.7073ZM12.439 6.58537C12.439 4.56485 14.077 2.92683 16.0975 2.92683C18.1181 2.92683 19.7561 4.56485 19.7561 6.58537C19.7561 8.60588 18.1181 10.2439 16.0975 10.2439C14.078 10.2414 12.4414 8.60488 12.439 6.58537ZM14.7563 12.439H17.4388C21.2217 12.439 23.081 13.5776 23.3693 16.0976H8.82585C9.11414 13.5776 10.9756 12.439 14.7563 12.439ZM26.3414 38.5366H2.92683V20.4878H26.3414V38.5366ZM40.9756 21.9512L40.9757 23.4146L40.9756 38.5366H27.8049V20.4878H40.9756V21.9512ZM42.439 17.561V19.0244H1.46341V17.561H42.439ZM35.1219 13.1707V16.0976H32.1951V13.1707H35.1219ZM32.1951 11.7073V7.31707H35.1219V11.7073H32.1951ZM35.8536 5.85366H31.4634C31.0593 5.85366 30.7317 6.18128 30.7317 6.58537V11.7073H25.6097C25.1673 11.663 24.8419 11.2724 24.878 10.8293V2.25585C24.878 1.82927 25.1436 1.46341 25.4583 1.46341H41.8588C42.1734 1.46341 42.439 1.82927 42.439 2.25585V10.8293C42.4751 11.2724 42.1497 11.663 41.7073 11.7073H36.5853V6.58537C36.5853 6.18119 36.2577 5.85366 35.8536 5.85366Z" fill="white"/>
</svg>
