<svg width="30" height="30" viewBox="0 0 30 30" fill="none" xmlns="http://www.w3.org/2000/svg">
<path d="M14.9998 20.8333C14.6778 20.8333 14.4165 20.572 14.4165 20.25V1.58333C14.4165 1.26133 14.6778 1 14.9998 1C15.3218 1 15.5832 1.26133 15.5832 1.58333V20.25C15.5832 20.572 15.3218 20.8333 14.9998 20.8333Z" fill="white" stroke="white" stroke-width="0.5"/>
<path d="M14.9998 20.8334C14.8505 20.8334 14.7011 20.7763 14.5868 20.6631L9.92014 15.9964C9.69264 15.7689 9.69264 15.3991 9.92014 15.1716C10.1476 14.9441 10.5175 14.9441 10.745 15.1716L14.9998 19.4253L19.2535 15.1716C19.481 14.9441 19.8508 14.9441 20.0783 15.1716C20.3058 15.3991 20.3058 15.7689 20.0783 15.9964L15.4116 20.6631C15.2985 20.7763 15.1491 20.8334 14.9998 20.8334Z" fill="white" stroke="white" stroke-width="0.5"/>
<path d="M26.0833 29H3.91667C2.30783 29 1 27.691 1 26.0833V20.25C1 19.928 1.26133 19.6666 1.58333 19.6666C1.90533 19.6666 2.16667 19.928 2.16667 20.25V26.0833C2.16667 27.0481 2.95183 27.8333 3.91667 27.8333H26.0833C27.0482 27.8333 27.8333 27.0481 27.8333 26.0833V20.25C27.8333 19.928 28.0947 19.6666 28.4167 19.6666C28.7387 19.6666 29 19.928 29 20.25V26.0833C29 27.691 27.6922 29 26.0833 29Z" fill="white" stroke="white" stroke-width="0.5"/>
</svg>
