<svg width="21" height="22" viewBox="0 0 21 22" fill="none" xmlns="http://www.w3.org/2000/svg">
<path d="M10.4997 15.1667C10.2697 15.1667 10.083 14.98 10.083 14.75V1.41667C10.083 1.18667 10.2697 1 10.4997 1C10.7297 1 10.9163 1.18667 10.9163 1.41667V14.75C10.9163 14.98 10.7297 15.1667 10.4997 15.1667Z" fill="white" stroke="white" stroke-width="0.5"/>
<path d="M10.5002 15.1668C10.3935 15.1668 10.2869 15.1259 10.2052 15.0451L6.87187 11.7118C6.70938 11.5493 6.70938 11.2851 6.87187 11.1226C7.03437 10.9601 7.29854 10.9601 7.46104 11.1226L10.5002 14.1609L13.5385 11.1226C13.701 10.9601 13.9652 10.9601 14.1277 11.1226C14.2902 11.2851 14.2902 11.5493 14.1277 11.7118L10.7944 15.0451C10.7135 15.1259 10.6069 15.1668 10.5002 15.1668Z" fill="white" stroke="white" stroke-width="0.5"/>
<path d="M18.4167 20.9999H2.58333C1.43417 20.9999 0.5 20.0649 0.5 18.9166V14.7499C0.5 14.5199 0.686667 14.3333 0.916667 14.3333C1.14667 14.3333 1.33333 14.5199 1.33333 14.7499V18.9166C1.33333 19.6058 1.89417 20.1666 2.58333 20.1666H18.4167C19.1058 20.1666 19.6667 19.6058 19.6667 18.9166V14.7499C19.6667 14.5199 19.8533 14.3333 20.0833 14.3333C20.3133 14.3333 20.5 14.5199 20.5 14.7499V18.9166C20.5 20.0649 19.5658 20.9999 18.4167 20.9999Z" fill="white" stroke="white" stroke-width="0.5"/>
</svg>
