<svg width="32" height="21" viewBox="0 0 32 21" fill="none" xmlns="http://www.w3.org/2000/svg">
<path d="M30.816 10.9217L21.3984 19.828C21.1532 20.0599 20.7559 20.0599 20.5106 19.828C20.2654 19.596 20.2654 19.2203 20.5106 18.9884L28.8565 11.0957H1.62786C1.28082 11.0957 1 10.8301 1 10.5019C1 10.1737 1.28082 9.90815 1.62786 9.90815H28.8565L20.5106 2.01548C20.2654 1.78353 20.2654 1.4078 20.5106 1.1759C20.6333 1.05995 20.7939 1.00195 20.9546 1.00195C21.1152 1.00195 21.2758 1.05995 21.3985 1.1759L30.8161 10.0822C31.0613 10.3141 31.0613 10.6898 30.816 10.9217Z" fill="white" stroke="white" stroke-width="0.4"/>
</svg>
