<svg width="208" height="205" viewBox="0 0 208 205" fill="none" xmlns="http://www.w3.org/2000/svg">
<path d="M194.095 87.2357L44.6691 0.555642C43.5012 -0.116374 42.443 -0.156494 41.6245 0.31492V0.30489L39.3984 1.6088C39.3984 1.6088 39.9075 1.67901 40.4266 1.74922C40.1571 2.38112 40.0074 3.16347 40.0074 4.08623V107.537C40.0074 110.987 42.0937 114.989 44.6691 116.483L194.095 203.163C194.374 203.324 194.654 203.444 194.923 203.535V204.708L197.159 203.404H197.149C198.137 202.832 198.766 201.508 198.766 199.623V96.1825C198.756 92.7322 196.67 88.7302 194.095 87.2357Z" fill="#B78B60"/>
<path d="M191.929 204.437L42.5031 117.747C39.9276 116.253 37.8413 112.251 37.8413 108.8V5.35994C37.8413 1.90959 39.9276 0.324832 42.5031 1.81932L191.929 88.4994C194.504 89.9938 196.59 93.9958 196.59 97.4462V200.897C196.59 204.347 194.504 205.932 191.929 204.437Z" fill="#EBBD8C"/>
<path d="M147.327 93.8756V79.1113L150.442 80.9167C151.031 81.2578 151.54 81.6189 151.979 81.99C152.418 82.3611 152.807 82.7924 153.147 83.2738C153.486 83.7553 153.746 84.2969 153.915 84.8987C154.085 85.5005 154.175 86.1525 154.165 86.8546C154.165 88.67 153.536 89.332 152.288 88.8205C153.037 89.4223 153.606 90.1344 153.975 90.9468C154.345 91.7593 154.534 92.7021 154.544 93.7954C154.544 95.1996 154.245 96.0923 153.636 96.4634C153.027 96.8345 152.139 96.6841 150.971 96.012L147.327 93.8756ZM149.643 86.4734L150.362 86.8947C151.041 87.2859 151.51 87.3962 151.769 87.2056C152.029 87.015 152.149 86.5236 152.149 85.7212C152.149 85.3099 152.109 84.9388 152.019 84.6379C151.939 84.327 151.789 84.0562 151.59 83.8054C151.39 83.5547 151.17 83.344 150.931 83.1635C150.691 82.9829 150.362 82.7723 149.962 82.5416L149.643 82.3511V86.4734ZM149.643 93.324L150.492 93.8154C151.18 94.2166 151.659 94.3069 151.929 94.0863C152.199 93.8656 152.328 93.324 152.328 92.4614C152.328 91.5687 152.179 90.8365 151.879 90.2648C151.58 89.6931 151.081 89.2016 150.372 88.7904L149.643 88.3691V93.324Z" fill="white"/>
<path d="M155.383 98.5496L157.968 85.2798L160.384 86.684L162.959 102.943L160.803 101.689L160.284 97.9578L158.078 96.684L157.559 99.8134L155.383 98.5496ZM158.338 95.0792L160.045 96.0722L159.196 89.5125L158.338 95.0792Z" fill="white"/>
<path d="M164.217 103.675V88.9106L165.814 89.8334L168.928 100.004V91.6388L170.845 92.7522V107.516L169.328 106.634L166.183 96.022V104.808L164.217 103.675Z" fill="white"/>
<path d="M172.752 108.62V93.8555L175.068 95.1995V101.609L177.573 96.6438L179.78 97.9277L177.344 103.123L180.029 112.842L177.723 111.498L175.527 103.274L175.068 103.966V109.954L172.752 108.62Z" fill="white"/>
<path d="M79.0981 117.526L50.7383 101.067V97.2656L79.0981 113.715V117.526Z" fill="white"/>
<path d="M113.966 137.747L85.6064 121.298V117.486L113.966 133.946V137.747Z" fill="white"/>
<path d="M148.835 157.978L120.465 141.518V137.717L148.835 154.166V157.978Z" fill="white"/>
<path d="M183.703 178.209L155.333 161.749V157.938L183.703 174.397V178.209Z" fill="white"/>
<path opacity="0.2" d="M71.4518 42.5214L37.8413 39.7932V108.81C37.8413 112.261 39.9276 116.263 42.5031 117.757L107.169 155.27C123.879 131.478 120.106 95.0189 120.106 95.0189L71.4518 42.5214Z" fill="#041860"/>
<path d="M108.606 103.063L59.9621 50.5756L11.3182 46.6238C11.3182 46.6238 3.50202 112.883 59.9621 183.163C116.422 178.389 108.606 103.063 108.606 103.063Z" fill="url(#paint0_linear_1917_5499)"/>
<path d="M11.3083 46.6238L0.367676 52.9728L49.0116 56.9247L59.9622 50.5756L11.3083 46.6238Z" fill="url(#paint1_linear_1917_5499)"/>
<path d="M97.6553 109.412L49.0114 56.9248L29.0068 54.8886L0.367505 52.9729C0.367505 52.9729 -7.44866 119.232 49.0114 189.513C105.481 184.738 97.6553 109.412 97.6553 109.412Z" fill="url(#paint2_linear_1917_5499)"/>
<path d="M97.655 109.412L49.0111 56.9247L0.367188 52.9728C1.74475 52.1704 1.74475 52.1704 1.74475 52.1704L51.0375 56.1824L99.6814 108.67C99.6814 108.67 106.21 171.639 64.1643 186.072C103.974 170.345 97.655 109.412 97.655 109.412Z" fill="white"/>
<g style="mix-blend-mode:screen" opacity="0.3">
<path d="M91.7555 110.225L48.013 63.0331L30.0248 61.2076L4.2704 59.4824C4.2704 59.4824 -2.75716 119.061 48.003 182.241C98.7831 177.958 91.7555 110.225 91.7555 110.225Z" fill="url(#paint3_linear_1917_5499)"/>
</g>
<path d="M17.0636 77.3484L15.3413 75.6179L13.619 77.3484L15.3413 79.0789L17.0636 77.3484Z" fill="white"/>
<path d="M23.275 77.3262L21.5527 75.5957L19.8305 77.3262L21.5527 79.0567L23.275 77.3262Z" fill="white"/>
<path d="M20.1769 74.2164L18.4546 72.4858L16.7323 74.2164L18.4546 75.9469L20.1769 74.2164Z" fill="white"/>
<path d="M20.1593 80.4573L18.437 78.7268L16.7147 80.4573L18.437 82.1878L20.1593 80.4573Z" fill="white"/>
<path d="M195.951 68.1284L192.408 64.5777L200.913 56.0321L192.408 47.4865L195.951 43.9258L208 56.0321L195.951 68.1284ZM193.825 64.5677L195.951 66.7041L206.583 56.0221L195.951 45.34L193.825 47.4764L202.33 56.0221L193.825 64.5677Z" fill="url(#paint4_linear_1917_5499)"/>
<path d="M195.951 68.1284L192.408 64.5777L200.913 56.0321L192.408 47.4865L195.951 43.9258L208 56.0321L195.951 68.1284ZM193.825 64.5677L195.951 66.7041L206.583 56.0221L195.951 45.34L193.825 47.4764L202.33 56.0221L193.825 64.5677Z" fill="url(#paint5_linear_1917_5499)"/>
<path d="M182.765 44.6277L179.93 47.4762L188.435 56.0219L179.93 64.5675L182.765 67.416L191.27 58.8704L194.105 56.0219L182.765 44.6277Z" fill="url(#paint6_linear_1917_5499)"/>
<defs>
<linearGradient id="paint0_linear_1917_5499" x1="59.9621" y1="46.6238" x2="59.9621" y2="183.163" gradientUnits="userSpaceOnUse">
<stop stop-color="#2F953F"/>
<stop offset="1" stop-color="#297936"/>
</linearGradient>
<linearGradient id="paint1_linear_1917_5499" x1="30.1649" y1="46.6238" x2="30.1649" y2="56.9247" gradientUnits="userSpaceOnUse">
<stop stop-color="#2F953F"/>
<stop offset="1" stop-color="#297936"/>
</linearGradient>
<linearGradient id="paint2_linear_1917_5499" x1="49.012" y1="52.9729" x2="49.012" y2="189.513" gradientUnits="userSpaceOnUse">
<stop stop-color="#28AD3E"/>
<stop offset="1" stop-color="#34BB4B"/>
</linearGradient>
<linearGradient id="paint3_linear_1917_5499" x1="48.0129" y1="59.4824" x2="48.0129" y2="182.241" gradientUnits="userSpaceOnUse">
<stop stop-color="#28AD3E"/>
<stop offset="1" stop-color="#34BB4B"/>
</linearGradient>
<linearGradient id="paint4_linear_1917_5499" x1="206.27" y1="64.6618" x2="183.819" y2="51.4487" gradientUnits="userSpaceOnUse">
<stop stop-color="#E6E6E6"/>
<stop offset="0.9999" stop-color="#C9C9CE"/>
<stop offset="1" stop-color="#E8E8E8"/>
</linearGradient>
<linearGradient id="paint5_linear_1917_5499" x1="200.204" y1="43.9258" x2="200.204" y2="68.1284" gradientUnits="userSpaceOnUse">
<stop stop-color="#28AD3E"/>
<stop offset="1" stop-color="#34BB4B"/>
</linearGradient>
<linearGradient id="paint6_linear_1917_5499" x1="187.017" y1="44.6277" x2="187.017" y2="67.416" gradientUnits="userSpaceOnUse">
<stop stop-color="#28AD3E"/>
<stop offset="1" stop-color="#34BB4B"/>
</linearGradient>
</defs>
</svg>
