<svg width="150" height="148" viewBox="0 0 150 148" fill="none" xmlns="http://www.w3.org/2000/svg">
<path d="M139.972 62.9104L32.2136 0.400704C31.3713 -0.0839234 30.6082 -0.112856 30.0179 0.227106V0.219873L28.4126 1.16019C28.4126 1.16019 28.7797 1.21083 29.1541 1.26146C28.9597 1.71715 28.8517 2.28135 28.8517 2.94681V77.5505C28.8517 80.0387 30.3563 82.9248 32.2136 84.0025L139.972 146.512C140.174 146.628 140.376 146.715 140.57 146.78V147.626L142.182 146.686H142.175C142.888 146.273 143.341 145.319 143.341 143.959V69.3624C143.334 66.8742 141.83 63.9881 139.972 62.9104Z" fill="#B78B60"/>
<path d="M138.41 147.431L30.6514 84.9139C28.7941 83.8361 27.2896 80.9501 27.2896 78.4618V3.8654C27.2896 1.37716 28.7941 0.234308 30.6514 1.31206L138.41 63.8217C140.268 64.8995 141.772 67.7856 141.772 70.2738V144.877C141.772 147.366 140.268 148.509 138.41 147.431Z" fill="#EBBD8C"/>
<path d="M106.246 67.6988V57.0515L108.492 58.3535C108.917 58.5994 109.284 58.8598 109.6 59.1275C109.917 59.3951 110.198 59.7061 110.443 60.0533C110.688 60.4005 110.875 60.7911 110.997 61.2251C111.119 61.6591 111.184 62.1293 111.177 62.6356C111.177 63.9448 110.724 64.4222 109.824 64.0533C110.364 64.4873 110.774 65.0008 111.04 65.5867C111.307 66.1726 111.443 66.8526 111.451 67.641C111.451 68.6536 111.235 69.2974 110.795 69.565C110.356 69.8327 109.716 69.7242 108.873 69.2395L106.246 67.6988ZM107.916 62.3607L108.434 62.6645C108.924 62.9466 109.262 63.0262 109.449 62.8887C109.636 62.7513 109.723 62.3969 109.723 61.8182C109.723 61.5217 109.694 61.254 109.629 61.037C109.572 60.8128 109.464 60.6175 109.32 60.4367C109.176 60.2558 109.017 60.1039 108.845 59.9737C108.672 59.8435 108.434 59.6917 108.146 59.5253L107.916 59.3879V62.3607ZM107.916 67.301L108.528 67.6554C109.025 67.9448 109.37 68.0099 109.564 67.8507C109.759 67.6916 109.852 67.301 109.852 66.679C109.852 66.0352 109.744 65.5072 109.529 65.0949C109.313 64.6826 108.953 64.3282 108.441 64.0316L107.916 63.7278V67.301Z" fill="white"/>
<path d="M112.055 71.0696L113.92 61.5L115.662 62.5127L117.519 74.2377L115.964 73.3336L115.59 70.6428L113.999 69.7242L113.625 71.981L112.055 71.0696ZM114.186 68.5669L115.417 69.283L114.805 64.5524L114.186 68.5669Z" fill="white"/>
<path d="M118.426 74.7657V64.1184L119.578 64.7839L121.824 72.1184V66.0859L123.206 66.8887V77.5361L122.112 76.8995L119.844 69.2468V75.5831L118.426 74.7657Z" fill="white"/>
<path d="M124.581 78.3317V67.6843L126.251 68.6536V73.2756L128.058 69.6952L129.649 70.621L127.893 74.3678L129.829 81.3769L128.166 80.4076L126.582 74.4763L126.251 74.9754V79.2937L124.581 78.3317Z" fill="white"/>
<path d="M57.0421 84.7547L36.5903 72.8849V70.1436L57.0421 82.0061V84.7547Z" fill="white"/>
<path d="M82.1874 99.337L61.7356 87.4745V84.7258L82.1874 96.5956V99.337Z" fill="white"/>
<path d="M107.333 113.926L86.8743 102.057V99.3152L107.333 111.178V113.926Z" fill="white"/>
<path d="M132.479 128.516L112.02 116.646V113.897L132.479 125.767V128.516Z" fill="white"/>
<path opacity="0.2" d="M51.5277 30.6645L27.2893 28.697V78.469C27.2893 80.9572 28.7939 83.8433 30.6511 84.921L77.285 111.973C89.3358 94.8161 86.6146 68.5233 86.6146 68.5233L51.5277 30.6645Z" fill="#041860"/>
<path d="M78.3218 74.3243L43.242 36.4727L8.16224 33.6228C8.16224 33.6228 2.52558 81.4056 43.242 132.089C83.9584 128.646 78.3218 74.3243 78.3218 74.3243Z" fill="url(#paint0_linear_1940_2488)"/>
<path d="M8.15478 33.6228L0.264893 38.2014L35.3447 41.0513L43.2417 36.4727L8.15478 33.6228Z" fill="url(#paint1_linear_1940_2488)"/>
<path d="M70.4245 78.9029L35.3448 41.0513L20.9184 39.583L0.265027 38.2014C0.265027 38.2014 -5.37164 85.9842 35.3448 136.668C76.0684 133.225 70.4245 78.9029 70.4245 78.9029Z" fill="url(#paint2_linear_1940_2488)"/>
<path d="M70.4244 78.9029L35.3447 41.0514L0.264893 38.2015C1.25833 37.6228 1.25833 37.6228 1.25833 37.6228L36.806 40.5161L71.8858 78.3677C71.8858 78.3677 76.5938 123.778 46.2724 134.187C74.9812 122.845 70.4244 78.9029 70.4244 78.9029Z" fill="white"/>
<g style="mix-blend-mode:screen" opacity="0.3">
<path d="M66.1699 79.489L34.6248 45.4566L21.6525 44.1401L3.07962 42.896C3.07962 42.896 -1.98833 85.8615 34.6176 131.424C71.2379 128.335 66.1699 79.489 66.1699 79.489Z" fill="url(#paint3_linear_1940_2488)"/>
</g>
<path d="M12.3053 55.7802L11.0632 54.5322L9.82121 55.7802L11.0632 57.0282L12.3053 55.7802Z" fill="white"/>
<path d="M16.7845 55.7641L15.5425 54.5161L14.3005 55.7641L15.5425 57.0121L16.7845 55.7641Z" fill="white"/>
<path d="M14.5504 53.5214L13.3083 52.2734L12.0663 53.5214L13.3083 54.7694L14.5504 53.5214Z" fill="white"/>
<path d="M14.5377 58.0221L13.2957 56.7742L12.0536 58.0221L13.2957 59.2701L14.5377 58.0221Z" fill="white"/>
<path d="M141.311 49.1311L138.755 46.5705L144.889 40.4078L138.755 34.245L141.311 31.6772L150 40.4078L141.311 49.1311ZM139.778 46.5633L141.311 48.1039L148.978 40.4005L141.311 32.6971L139.778 34.2378L145.911 40.4005L139.778 46.5633Z" fill="url(#paint4_linear_1940_2488)"/>
<path d="M141.311 49.1311L138.755 46.5705L144.889 40.4078L138.755 34.245L141.311 31.6772L150 40.4078L141.311 49.1311ZM139.778 46.5633L141.311 48.1039L148.978 40.4005L141.311 32.6971L139.778 34.2378L145.911 40.4005L139.778 46.5633Z" fill="url(#paint5_linear_1940_2488)"/>
<path d="M131.801 32.1833L129.757 34.2376L135.89 40.4003L129.757 46.563L131.801 48.6173L137.935 42.4546L139.979 40.4003L131.801 32.1833Z" fill="url(#paint6_linear_1940_2488)"/>
<defs>
<linearGradient id="paint0_linear_1940_2488" x1="43.242" y1="33.6228" x2="43.242" y2="132.089" gradientUnits="userSpaceOnUse">
<stop stop-color="#2F953F"/>
<stop offset="1" stop-color="#297936"/>
</linearGradient>
<linearGradient id="paint1_linear_1940_2488" x1="21.7533" y1="33.6228" x2="21.7533" y2="41.0513" gradientUnits="userSpaceOnUse">
<stop stop-color="#2F953F"/>
<stop offset="1" stop-color="#297936"/>
</linearGradient>
<linearGradient id="paint2_linear_1940_2488" x1="35.3452" y1="38.2014" x2="35.3452" y2="136.668" gradientUnits="userSpaceOnUse">
<stop stop-color="#28AD3E"/>
<stop offset="1" stop-color="#34BB4B"/>
</linearGradient>
<linearGradient id="paint3_linear_1940_2488" x1="34.6247" y1="42.896" x2="34.6247" y2="131.424" gradientUnits="userSpaceOnUse">
<stop stop-color="#28AD3E"/>
<stop offset="1" stop-color="#34BB4B"/>
</linearGradient>
<linearGradient id="paint4_linear_1940_2488" x1="148.752" y1="46.6311" x2="132.562" y2="37.1024" gradientUnits="userSpaceOnUse">
<stop stop-color="#E6E6E6"/>
<stop offset="0.9999" stop-color="#C9C9CE"/>
<stop offset="1" stop-color="#E8E8E8"/>
</linearGradient>
<linearGradient id="paint5_linear_1940_2488" x1="144.378" y1="31.6772" x2="144.378" y2="49.1311" gradientUnits="userSpaceOnUse">
<stop stop-color="#28AD3E"/>
<stop offset="1" stop-color="#34BB4B"/>
</linearGradient>
<linearGradient id="paint6_linear_1940_2488" x1="134.868" y1="32.1833" x2="134.868" y2="48.6173" gradientUnits="userSpaceOnUse">
<stop stop-color="#28AD3E"/>
<stop offset="1" stop-color="#34BB4B"/>
</linearGradient>
</defs>
</svg>
