<svg width="120" height="116" viewBox="0 0 120 116" fill="none" xmlns="http://www.w3.org/2000/svg">
<path d="M45.6834 111.61L105.393 77.072L75.1932 59.6389L37.1394 103.641L45.6834 111.61Z" fill="#B3B3B3"/>
<path d="M115.383 55.1864L116.5 54.5456C116.714 54.4142 116.977 54.4142 117.207 54.5292L117.322 54.2992L115.383 53.1819V55.1864ZM116.665 54.217C116.566 54.2335 116.467 54.2828 116.369 54.332L115.646 54.7428V53.6255L116.665 54.217Z" fill="#808080"/>
<path d="M1.13907 97.7425C1.1555 97.9561 1.2048 98.1369 1.28695 98.2847C1.3691 98.4326 1.4677 98.5476 1.59914 98.6134L6.62697 101.505L27.2477 113.434L30.2709 115.176C30.5667 115.406 31.0103 115.389 31.5033 115.11L32.5384 114.518L32.8999 114.305C32.8999 114.305 32.9163 114.305 32.9163 114.288L38.6671 110.969V108.735C38.6671 108.636 38.6671 108.538 38.6671 108.423C38.6671 108.258 38.6835 108.078 38.7 107.913C38.7164 107.732 38.7328 107.552 38.7657 107.355C38.7985 107.092 38.8478 106.812 38.8971 106.533V106.517C38.9464 106.237 39.0286 105.958 39.0943 105.662C39.1272 105.564 39.1436 105.481 39.1765 105.383C39.2093 105.284 39.2257 105.186 39.2586 105.104C39.2915 105.021 39.3079 104.923 39.3408 104.841V104.824C39.3736 104.726 39.4065 104.643 39.4394 104.545C39.4722 104.463 39.5051 104.364 39.5379 104.282C39.7022 103.838 39.8994 103.395 40.113 102.951C40.1459 102.885 40.1787 102.82 40.2116 102.737C40.2445 102.672 40.2773 102.606 40.3102 102.54C40.4088 102.343 40.5238 102.13 40.6388 101.932C40.6717 101.867 40.721 101.801 40.7538 101.735C40.836 101.604 40.9017 101.472 40.9838 101.341C41.0331 101.259 41.0824 101.177 41.1317 101.094C41.1646 101.045 41.1974 100.996 41.2303 100.947C41.296 100.832 41.3782 100.733 41.4439 100.618C41.4768 100.569 41.5096 100.519 41.5425 100.486C41.5918 100.404 41.6575 100.339 41.7068 100.256C41.7725 100.174 41.8218 100.092 41.8875 100.01C42.5119 99.1884 43.2184 98.4326 43.9578 97.7754C44.5165 97.2989 45.0916 96.8881 45.6831 96.5431C45.7324 96.5102 45.7817 96.4773 45.8474 96.4609C45.8802 96.4445 45.9131 96.4281 45.946 96.4116C46.0281 96.3623 46.1103 96.313 46.2089 96.2802C46.2582 96.2637 46.3074 96.2309 46.3567 96.2144C46.406 96.1816 46.4717 96.1652 46.521 96.1323C46.5868 96.0994 46.6525 96.083 46.7018 96.0501C46.7511 96.0337 46.7839 96.0173 46.8168 96.0009C46.8497 95.9844 46.8989 95.968 46.9318 95.9516C46.9482 95.9516 46.9647 95.9351 46.9811 95.9351C47.014 95.9187 47.0633 95.9023 47.0961 95.9023C47.1125 95.9023 47.1454 95.8858 47.1618 95.8858C47.1783 95.8858 47.1783 95.8858 47.1947 95.8694C47.244 95.853 47.2933 95.8365 47.359 95.8201C47.3919 95.8037 47.4247 95.8037 47.4412 95.7873C47.4905 95.7708 47.5233 95.7708 47.5726 95.7544C47.6055 95.7544 47.6219 95.738 47.6548 95.738C47.6876 95.7215 47.7205 95.7215 47.7698 95.7051C47.8027 95.7051 47.8355 95.6887 47.8684 95.6887C47.9012 95.6887 47.9341 95.6722 47.9669 95.6722C47.9998 95.6722 48.0162 95.6558 48.0491 95.6558C48.1148 95.6394 48.1641 95.6394 48.2299 95.6229C48.2956 95.6065 48.3613 95.6065 48.427 95.6065C48.4763 95.6065 48.5256 95.6065 48.5585 95.5901C48.5913 95.5901 48.6078 95.5901 48.6406 95.5901C48.9199 95.5736 49.1993 95.5901 49.4622 95.6394C51.4174 95.9516 52.699 97.7425 52.699 100.618V102.853L63.7899 96.4445L68.029 93.9963V91.7617C68.029 91.6795 68.029 91.5974 68.029 91.5317C68.0454 90.973 68.0947 90.4144 68.2097 89.8393C68.2262 89.7571 68.2426 89.675 68.259 89.5764C68.2755 89.4614 68.3083 89.3464 68.3248 89.2313C68.3412 89.1492 68.3576 89.067 68.3905 88.9849C68.5877 88.1962 68.8505 87.424 69.1792 86.6517C69.212 86.5696 69.2449 86.4874 69.2942 86.3888C69.3106 86.3559 69.327 86.3231 69.3435 86.2902C69.3928 86.1752 69.4421 86.0766 69.4913 85.9616C69.5899 85.748 69.6885 85.5508 69.8035 85.3537C69.8528 85.2715 69.9021 85.1729 69.9514 85.0908C70.0171 84.9758 70.0664 84.8772 70.1321 84.7786C70.2636 84.565 70.395 84.335 70.5265 84.1214C70.5922 84.0228 70.6415 83.9406 70.7072 83.842C70.773 83.727 70.8551 83.6284 70.9373 83.5134C70.9866 83.4313 71.0523 83.3655 71.1016 83.2834C71.1673 83.2012 71.2166 83.1191 71.2823 83.0369C71.9067 82.2154 72.6132 81.4596 73.3526 80.8188C73.9112 80.3423 74.4863 79.9151 75.0778 79.5864C75.2257 79.5043 75.3736 79.4221 75.5215 79.34C75.5708 79.3071 75.6201 79.2907 75.6693 79.2743C75.7351 79.2414 75.8008 79.2085 75.8665 79.1921C76.113 79.0771 76.343 78.9949 76.573 78.9128C76.6223 78.8964 76.6881 78.8799 76.7373 78.8635H76.7538C76.7866 78.8471 76.8195 78.8471 76.8359 78.8306C76.8852 78.8142 76.9181 78.8142 76.9674 78.7978C77.0002 78.7978 77.0167 78.7813 77.0495 78.7813C77.0824 78.7813 77.1153 78.7649 77.1481 78.7649C77.2467 78.7485 77.3453 78.7156 77.4439 78.6992C77.5096 78.6828 77.5589 78.6827 77.6246 78.6663C77.6903 78.6499 77.7561 78.6499 77.8218 78.6499C77.8711 78.6499 77.9039 78.6499 77.9532 78.6335C77.9861 78.6335 78.019 78.6335 78.0354 78.6335C78.3147 78.617 78.594 78.6335 78.8569 78.6828C80.8122 78.9949 82.0938 80.7859 82.0938 83.6613V85.8959L92.3631 79.9644L97.4238 77.0397V74.8051C97.4238 74.7229 97.4238 74.6408 97.4238 74.575C97.4238 74.4765 97.4238 74.3943 97.4402 74.2957C97.4402 74.23 97.4566 74.1643 97.4566 74.0985C97.4566 74.0328 97.4566 73.9835 97.4731 73.9178C97.4731 73.8849 97.4731 73.8685 97.4731 73.8357C97.4731 73.7864 97.4895 73.7371 97.4895 73.6878C97.5059 73.6056 97.5059 73.5235 97.5224 73.4249C97.5388 73.277 97.5716 73.1291 97.5881 72.9813C97.6045 72.932 97.6045 72.8662 97.6209 72.8169C97.6374 72.7512 97.6374 72.6855 97.6538 72.6198V72.6033C97.6702 72.5048 97.6867 72.4226 97.7195 72.324C97.736 72.2254 97.7688 72.1433 97.7852 72.0447C97.8017 71.979 97.8181 71.9297 97.8345 71.864C97.9003 71.6175 97.966 71.3546 98.0481 71.1081L98.0974 70.9438C98.1632 70.7467 98.2289 70.5495 98.311 70.3523C98.3439 70.2702 98.3603 70.2044 98.3932 70.1223C98.4425 69.9908 98.5082 69.843 98.5575 69.7115C98.5739 69.6622 98.5904 69.6294 98.6232 69.5801C98.7218 69.35 98.8368 69.12 98.9518 68.8735C98.9847 68.7914 99.034 68.7257 99.0668 68.6435C99.0997 68.5614 99.149 68.4956 99.1819 68.4135C99.2312 68.3313 99.264 68.2656 99.2969 68.1834C99.379 68.0356 99.4612 67.8877 99.5433 67.7398C99.5926 67.6741 99.6255 67.5919 99.6748 67.5262C99.7241 67.4605 99.7569 67.3783 99.8062 67.3126C100.02 66.984 100.233 66.6554 100.463 66.3432C100.529 66.261 100.578 66.1789 100.644 66.0967C101.269 65.2752 101.975 64.5194 102.714 63.8621C103.273 63.3856 103.848 62.9749 104.44 62.6298C104.637 62.5148 104.834 62.4162 105.031 62.3176C105.245 62.2191 105.458 62.1205 105.672 62.0383C105.721 62.0219 105.771 62.0055 105.836 61.989C105.869 61.9726 105.919 61.9562 105.951 61.9562C106.017 61.9397 106.099 61.9069 106.165 61.8904C106.231 61.874 106.313 61.8411 106.379 61.8247C106.428 61.8083 106.494 61.7919 106.543 61.7919C106.559 61.7919 106.576 61.7754 106.609 61.7754C106.674 61.759 106.74 61.7426 106.789 61.7426C106.855 61.7261 106.921 61.7261 106.987 61.7097C107.003 61.7097 107.003 61.7097 107.019 61.7097C107.052 61.7097 107.102 61.6933 107.134 61.6933H107.151C107.167 61.6933 107.2 61.6933 107.217 61.6933C107.249 61.6933 107.282 61.6933 107.299 61.6933C107.332 61.6933 107.364 61.6933 107.397 61.6933C107.693 61.6768 107.956 61.6933 108.219 61.7426C110.174 62.0547 111.456 63.8457 111.456 66.7047V68.9228L116.04 66.2939C117.108 65.686 117.765 64.5522 117.765 63.3199V55.1867C117.765 54.8252 117.568 54.5459 117.289 54.398H117.272C117.026 54.283 116.714 54.2665 116.451 54.4308L115.531 54.9566L101.449 63.0899L72.0546 80.0629L64.6278 84.3514L42.6598 97.036L31.2239 103.641L1.04049 86.2081C0.958336 87.8347 1.13907 97.7425 1.13907 97.7425Z" fill="url(#paint0_linear)"/>
<path d="M6.62735 101.505C6.80809 101.637 7.00526 101.752 7.20243 101.867L24.9149 112.087L27.2152 113.418C27.2316 113.418 27.2316 113.434 27.248 113.434L6.62735 101.505Z" fill="url(#paint1_linear)"/>
<path d="M76.5733 78.9128L79.038 80.3258C80.2538 80.8845 81.0097 82.2646 81.0097 84.2856C81.0097 84.5814 80.9932 84.8936 80.9604 85.2058L82.127 85.8794V83.6448C82.127 80.7694 80.8289 78.9949 78.8901 78.6663C78.6272 78.617 78.3479 78.6006 78.0685 78.617C78.0357 78.617 78.0028 78.617 77.9864 78.617C77.9371 78.617 77.9042 78.617 77.8549 78.6334C77.7892 78.6334 77.7235 78.6499 77.6578 78.6499C77.592 78.6499 77.5428 78.6663 77.477 78.6827C77.3784 78.6992 77.2799 78.7156 77.1813 78.7484C77.1484 78.7484 77.1155 78.7649 77.0991 78.7649C77.0663 78.7649 77.0498 78.7813 77.017 78.7813C76.9677 78.7977 76.9348 78.7977 76.8855 78.8142C76.8527 78.8142 76.8198 78.8306 76.7869 78.847H76.7705C76.6883 78.8799 76.6226 78.8963 76.5733 78.9128Z" fill="black"/>
<path d="M47.1786 95.8861L49.5611 97.2663V97.2827C50.8263 97.8085 51.615 99.2051 51.615 101.275C51.615 101.571 51.5985 101.883 51.5657 102.196L52.7158 102.869V100.635C52.7158 97.7592 51.4178 95.9847 49.4789 95.656C49.2161 95.6067 48.9367 95.5903 48.6574 95.6067C48.6245 95.6067 48.6081 95.6067 48.5752 95.6067C48.526 95.6067 48.4931 95.6067 48.4438 95.6232C48.3781 95.6232 48.3124 95.6396 48.2466 95.6396C48.1809 95.6396 48.1316 95.656 48.0659 95.6725C48.033 95.6725 48.0166 95.6889 47.9837 95.6889C47.9509 95.6889 47.918 95.7053 47.8852 95.7053C47.8523 95.7053 47.8194 95.7218 47.7866 95.7218C47.7537 95.7218 47.7208 95.7382 47.6716 95.7546C47.6551 95.7546 47.6223 95.7711 47.5894 95.7711C47.5401 95.7875 47.5072 95.7875 47.458 95.8039C47.4251 95.8039 47.3922 95.8203 47.3594 95.8368C47.3101 95.8532 47.2608 95.8696 47.1951 95.8861H47.1786Z" fill="black"/>
<path d="M38.651 108.751V110.312L39.2425 110.657L41.4442 111.922C40.8363 111.561 40.3762 110.969 40.0969 110.164C39.8833 109.589 39.7683 108.899 39.7683 108.127C39.7683 107.798 39.7847 107.469 39.834 107.124C40.2119 103.888 42.2986 100.289 44.9275 98.3668C45.174 98.1861 45.4369 98.0053 45.6998 97.8574C45.8805 97.7589 46.0448 97.6603 46.2092 97.5781C47.4908 96.9702 48.6409 96.888 49.561 97.2824V97.2659L47.1786 95.8857C47.1621 95.8857 47.1293 95.9022 47.1128 95.9022C47.08 95.9186 47.0307 95.935 46.9978 95.935C46.9814 95.935 46.965 95.9515 46.9485 95.9515C46.8992 95.9679 46.8664 95.9843 46.8335 96.0008C46.7842 96.0172 46.7514 96.0336 46.7185 96.0501C46.6528 96.0665 46.6035 96.0993 46.5378 96.1322C46.4885 96.1486 46.4228 96.1815 46.3735 96.2144C46.3242 96.2308 46.2749 96.2637 46.2256 96.2801C46.1434 96.3294 46.0613 96.3622 45.9627 96.4115C45.9298 96.428 45.897 96.4444 45.8641 96.4608C45.8148 96.4937 45.7655 96.5265 45.6998 96.543C45.1083 96.888 44.5332 97.2988 43.9746 97.7753C43.2352 98.4161 42.5286 99.1719 41.9043 100.01C41.8385 100.092 41.7892 100.174 41.7235 100.256C41.6742 100.339 41.6085 100.404 41.5592 100.486C41.5264 100.536 41.4935 100.585 41.4606 100.618C41.3949 100.733 41.3128 100.831 41.247 100.946C41.2142 100.996 41.1813 101.045 41.1484 101.094C41.0992 101.176 41.0499 101.259 41.0006 101.341C40.9184 101.472 40.8363 101.604 40.7705 101.735C40.7377 101.801 40.6884 101.867 40.6555 101.932C40.5405 102.129 40.4255 102.343 40.3269 102.54C40.294 102.606 40.2612 102.672 40.2283 102.737C40.1955 102.803 40.1626 102.869 40.1297 102.951C39.9161 103.378 39.7354 103.822 39.5547 104.282C39.5218 104.364 39.4889 104.463 39.4561 104.545C39.4232 104.643 39.3904 104.726 39.3575 104.824V104.841C39.3246 104.923 39.3082 105.021 39.2753 105.103C39.2425 105.202 39.2096 105.284 39.1932 105.383C39.1603 105.481 39.1439 105.564 39.111 105.662C39.0289 105.941 38.9631 106.221 38.9139 106.516V106.533C38.8646 106.812 38.8153 107.075 38.7824 107.354C38.766 107.535 38.7331 107.732 38.7167 107.913C38.7003 108.077 38.7003 108.258 38.6838 108.422C38.651 108.554 38.651 108.653 38.651 108.751Z" fill="url(#paint2_linear)"/>
<path d="M68.0457 91.7784V93.3393L68.6372 93.6843L70.8225 94.9495C70.231 94.588 69.7545 93.9965 69.4752 93.1914C69.2616 92.6163 69.1466 91.9262 69.1466 91.154C69.1466 90.8254 69.163 90.4803 69.2123 90.1517C69.5902 86.9148 71.6769 83.3165 74.3058 81.3941C74.5523 81.2133 74.8152 81.0326 75.0781 80.8847C75.2753 80.7697 75.4724 80.6711 75.6696 80.5725C76.9512 79.981 78.1178 79.9317 79.0215 80.3425L76.5569 78.9294C76.3268 79.0116 76.0968 79.0938 75.8503 79.2088C75.7846 79.2416 75.7189 79.2581 75.6532 79.2909C75.6039 79.3074 75.5546 79.3402 75.5053 79.3566C75.3574 79.4224 75.2095 79.521 75.0617 79.6031C74.4701 79.9482 73.8951 80.3589 73.3364 80.8354C72.597 81.4762 71.8905 82.232 71.2661 83.0536C71.2004 83.1357 71.1511 83.2179 71.0854 83.3C71.0361 83.3822 70.9704 83.4479 70.9211 83.5301C70.8389 83.6451 70.7732 83.7437 70.6911 83.8587C70.6253 83.9573 70.5596 84.0394 70.5103 84.138C70.3789 84.3516 70.2474 84.5652 70.116 84.7953C70.0502 84.8938 70.001 85.0089 69.9352 85.1074C69.8859 85.1896 69.8367 85.2882 69.7874 85.3703C69.6723 85.5675 69.5738 85.7811 69.4752 85.9783C69.4259 86.0933 69.3766 86.1919 69.3273 86.3069C69.3109 86.3397 69.2944 86.3726 69.278 86.389C69.2451 86.4712 69.1958 86.5534 69.163 86.6519C68.8344 87.4242 68.5715 88.2129 68.3743 88.9851C68.3579 89.0673 68.3414 89.1494 68.3086 89.2316C68.2757 89.3466 68.2593 89.4616 68.2429 89.5766C68.2264 89.6588 68.21 89.7409 68.1936 89.8395C68.095 90.4146 68.0293 90.9732 68.0128 91.5319C68.0457 91.614 68.0457 91.6962 68.0457 91.7784Z" fill="url(#paint3_linear)"/>
<path d="M105.968 61.9398L108.416 63.3528L108.449 63.3693C109.648 63.9279 110.404 65.3081 110.404 67.3127C110.404 67.6084 110.388 67.9206 110.355 68.2328L111.521 68.9065V66.6719C111.521 63.7965 110.223 62.0219 108.285 61.7098C108.022 61.6605 107.742 61.644 107.463 61.6605C107.43 61.6605 107.397 61.6605 107.364 61.6605C107.332 61.6605 107.299 61.6605 107.282 61.6605C107.266 61.6605 107.233 61.6605 107.217 61.6605H107.2C107.167 61.6605 107.134 61.6605 107.085 61.6769C107.069 61.6769 107.069 61.6769 107.052 61.6769C106.987 61.6933 106.921 61.6933 106.855 61.7098C106.789 61.7262 106.724 61.7262 106.674 61.7426C106.658 61.7426 106.642 61.759 106.609 61.759C106.559 61.7755 106.494 61.7919 106.444 61.7919C106.379 61.8083 106.296 61.8248 106.231 61.8576C106.165 61.8905 106.05 61.9234 105.968 61.9398Z" fill="black"/>
<path d="M97.4406 74.8052V76.3497L98.0321 76.6948L100.119 77.8942C99.5766 77.5327 99.1494 76.9576 98.87 76.2183C98.6564 75.6432 98.5414 74.9531 98.5414 74.1808C98.5414 73.8522 98.5579 73.5072 98.6071 73.1786C98.9851 69.9417 101.072 66.3433 103.701 64.4374C103.947 64.2566 104.21 64.0759 104.473 63.928C104.67 63.813 104.867 63.7144 105.064 63.6158C106.346 63.0243 107.513 62.9586 108.416 63.3694C108.433 63.3694 108.433 63.3858 108.449 63.3858L108.416 63.3694L105.968 61.9563C105.935 61.9727 105.886 61.9727 105.853 61.9892C105.804 62.0056 105.755 62.022 105.689 62.0385C105.475 62.1206 105.262 62.2028 105.048 62.3178C104.851 62.4164 104.654 62.5149 104.457 62.63C103.865 62.975 103.29 63.3858 102.731 63.8623C101.992 64.5031 101.285 65.2589 100.661 66.0969C100.595 66.179 100.546 66.2612 100.48 66.3433C100.25 66.6555 100.037 66.9841 99.823 67.3128C99.7737 67.3785 99.7244 67.4606 99.6916 67.5264C99.6423 67.5921 99.6094 67.6742 99.5601 67.7399C99.478 67.8878 99.3794 68.0357 99.3137 68.1836C99.2808 68.2493 99.2315 68.3315 99.1987 68.4136C99.1658 68.4958 99.1165 68.5615 99.0836 68.6436C99.0508 68.7258 99.0015 68.7915 98.9686 68.8737C98.8536 69.1037 98.7386 69.3337 98.64 69.5802C98.6236 69.6295 98.6071 69.6624 98.5743 69.7116C98.5086 69.8431 98.4593 69.991 98.41 70.1224C98.3771 70.1881 98.3443 70.2703 98.3278 70.3525C98.2457 70.5496 98.1799 70.7468 98.1142 70.944L98.0649 71.1083C97.9828 71.3547 97.9006 71.6176 97.8513 71.8641C97.8349 71.9298 97.8185 71.9791 97.802 72.0448C97.7856 72.1434 97.7527 72.2256 97.7363 72.3242C97.7199 72.4227 97.687 72.5049 97.6706 72.6035V72.6199C97.6542 72.6856 97.6377 72.7514 97.6377 72.8171C97.6213 72.8664 97.6213 72.9321 97.6049 72.9814C97.572 73.1293 97.5556 73.2771 97.5391 73.425C97.5227 73.5072 97.5227 73.5893 97.5063 73.6879C97.5063 73.7372 97.4898 73.7865 97.4898 73.8358C97.4898 73.8687 97.4898 73.8851 97.4898 73.9179C97.4898 73.9837 97.4734 74.033 97.4734 74.0987C97.4734 74.1644 97.457 74.2301 97.457 74.2959C97.457 74.3944 97.457 74.4766 97.4406 74.5752C97.4406 74.6573 97.4406 74.7231 97.4406 74.8052Z" fill="url(#paint4_linear)"/>
<path d="M19.6898 104.774L10.1763 99.2863L9.07548 95.5894L22.0723 103.098L19.6898 104.774Z" fill="#333333"/>
<path d="M30.1562 110.853V106.565L24.1426 103.098C23.4689 102.704 22.5652 102.671 21.6286 103.032C20.6921 103.394 19.8541 104.084 19.6734 104.643L19.6241 104.774L30.1562 110.853ZM29.7948 106.762V110.213L20.0677 104.593C20.2813 104.199 20.9221 103.657 21.7437 103.344C22.2366 103.164 23.1567 102.917 23.9454 103.377L29.7948 106.762Z" fill="#666666"/>
<path d="M10.3569 99.4177V99.1055C10.3569 96.5751 9.15748 94.4391 7.07077 93.2232L0.991358 89.707V93.9955L10.3569 99.4177ZM1.3364 90.3478L6.87359 93.5519C8.76314 94.6363 9.88044 96.5423 9.97903 98.8097L1.3364 93.8147V90.3478Z" fill="#666666"/>
<path d="M23.896 103.328L28.3652 105.908V109.785L20.5442 105.267L19.6898 104.774C19.9526 103.919 22.1379 102.391 23.896 103.328Z" fill="#F7F7F7"/>
<path d="M2.3552 90.8901L6.82439 93.4698C8.89467 94.6692 10.1763 96.8874 10.1763 99.2863L2.3552 94.7678V90.8901Z" fill="#F7F7F7"/>
<path d="M29.877 110.656L28.3818 109.785V105.907L29.877 106.778V110.656Z" fill="#FFAC00"/>
<path d="M2.35498 94.7678L0.843342 93.897V90.0193L2.35498 90.8901V94.7678Z" fill="#FFAC00"/>
<path d="M11.4906 101.34L19.3281 105.875V107.19L11.4906 102.655V101.34Z" fill="#333333"/>
<path d="M23.4853 108.276L24.8162 109.048C25.0791 109.212 25.3091 109.623 25.3091 109.985C25.3091 110.346 25.0955 110.51 24.8162 110.362L23.4853 109.59C23.2224 109.426 22.9923 109.015 22.9923 108.654C22.9923 108.276 23.2224 108.111 23.4853 108.276Z" fill="#333333"/>
<path d="M6.00284 98.1701L7.33374 98.9424C7.59663 99.1067 7.82666 99.5175 7.82666 99.879C7.82666 100.24 7.61306 100.405 7.33374 100.257L6.00284 99.4846C5.73995 99.3203 5.50992 98.9095 5.50992 98.548C5.50992 98.1866 5.72352 98.0223 6.00284 98.1701Z" fill="#333333"/>
<path d="M27.7903 111.413C27.7903 111.774 28.0367 112.218 28.3654 112.398C28.6775 112.579 28.9404 112.431 28.9404 112.07C28.9404 111.708 28.694 111.265 28.3654 111.084C28.0532 110.903 27.7903 111.051 27.7903 111.413Z" fill="#D6D6D6"/>
<path d="M1.89525 96.4602C1.89525 96.8217 2.14171 97.2653 2.47033 97.446C2.78252 97.6268 3.04541 97.4789 3.04541 97.1174C3.04541 96.756 2.79895 96.3123 2.47033 96.1316C2.14171 95.9508 1.89525 96.0987 1.89525 96.4602Z" fill="#D6D6D6"/>
<path d="M51.6641 101.226C51.6641 101.538 51.6476 101.85 51.6148 102.163C51.5655 102.656 51.4669 103.165 51.3354 103.674C50.5303 106.862 48.2957 110.082 45.6668 111.61C43.9744 112.58 42.4628 112.662 41.3784 111.988C40.7704 111.61 40.2939 111.019 40.0146 110.214C39.801 109.622 39.686 108.932 39.686 108.143C39.686 107.815 39.7024 107.47 39.7517 107.125C40.1296 103.855 42.2328 100.207 44.8946 98.2685C45.1575 98.0878 45.4204 97.907 45.6832 97.7592C45.864 97.6606 46.0283 97.562 46.209 97.4798C47.4906 96.8719 48.6737 96.7898 49.5938 97.1677C50.859 97.7263 51.6641 99.1394 51.6641 101.226Z" fill="#1A1A1A"/>
<path d="M49.709 102.359C49.709 102.572 49.6926 102.769 49.6761 102.983C49.6433 103.312 49.5775 103.657 49.4954 104.002C48.9532 106.138 47.458 108.307 45.6999 109.325C44.599 109.966 43.5967 110.032 42.8738 109.621L42.808 109.588C42.3973 109.342 42.0851 108.931 41.8879 108.405C41.74 108.011 41.6743 107.551 41.6743 107.025C41.6743 106.795 41.6907 106.565 41.7072 106.335C41.9536 104.133 43.3831 101.701 45.1576 100.387C45.3384 100.256 45.5027 100.141 45.6834 100.042C45.8149 99.9598 45.9628 99.8941 46.0942 99.8283C46.965 99.4176 47.7537 99.3847 48.3781 99.6805C49.1832 100.058 49.709 100.995 49.709 102.359Z" fill="#D6D6D6"/>
<path d="M43.8922 110.065C44.4673 110.065 45.1081 109.868 45.7653 109.49C47.5234 108.471 49.0844 106.286 49.643 104.051C49.7416 103.69 49.7909 103.345 49.8402 103.016C49.8566 102.803 49.873 102.589 49.873 102.375C49.873 100.979 49.3473 99.9435 48.4271 99.5328C47.737 99.2206 46.8991 99.2699 46.0118 99.6807C45.8804 99.7464 45.7325 99.8121 45.601 99.8943C45.4367 99.9928 45.2724 100.091 45.1081 100.223L45.0588 100.256C43.235 101.587 41.7891 104.068 41.5262 106.319C41.4933 106.565 41.4769 106.795 41.4769 107.025C41.4769 107.551 41.559 108.028 41.6905 108.438L41.7069 108.471C41.9041 109.03 42.2491 109.473 42.6928 109.753L42.7585 109.786C43.1035 109.966 43.4814 110.065 43.8922 110.065ZM47.4741 99.6642C47.7699 99.6642 48.0492 99.7135 48.2957 99.8285C49.0844 100.19 49.5444 101.11 49.5444 102.359C49.5444 102.556 49.528 102.77 49.5116 102.967C49.4787 103.279 49.413 103.624 49.3308 103.953C48.7886 106.105 47.2934 108.208 45.601 109.178C44.5823 109.769 43.6458 109.868 42.9392 109.473L42.8735 109.441C42.4956 109.211 42.2163 108.849 42.0355 108.356V108.34C41.9041 107.945 41.8219 107.502 41.8219 107.009C41.8219 106.795 41.8384 106.565 41.8548 106.352C42.1013 104.216 43.4814 101.833 45.2067 100.551L45.2395 100.535C45.4039 100.404 45.5846 100.305 45.7489 100.206C45.8803 100.124 46.0118 100.059 46.1432 100.009C46.6197 99.7628 47.0634 99.6642 47.4741 99.6642Z" fill="#808080"/>
<path d="M45.4363 101.768C45.4363 101.933 45.5513 101.982 45.6827 101.916C45.8142 101.834 45.9292 101.653 45.9292 101.489C45.9292 101.325 45.8142 101.275 45.6827 101.341C45.5349 101.423 45.4363 101.62 45.4363 101.768Z" fill="#808080"/>
<path d="M46.7838 101.259C46.718 101.44 46.7509 101.587 46.8659 101.587C46.9809 101.604 47.1288 101.472 47.1945 101.292C47.2603 101.111 47.2274 100.963 47.1124 100.963C47.0138 100.947 46.8659 101.078 46.7838 101.259Z" fill="#808080"/>
<path d="M47.8518 101.653C47.7368 101.801 47.6875 101.998 47.7696 102.097C47.8353 102.195 47.9832 102.146 48.0982 102.014C48.2133 101.867 48.2625 101.669 48.1804 101.571C48.1147 101.472 47.9668 101.505 47.8518 101.653Z" fill="#808080"/>
<path d="M48.3282 102.869C48.1968 102.951 48.0818 103.132 48.0818 103.296C48.0818 103.461 48.1968 103.51 48.3282 103.444C48.4597 103.362 48.5747 103.181 48.5747 103.017C48.5747 102.853 48.4597 102.803 48.3282 102.869Z" fill="#808080"/>
<path d="M48.0982 104.578C47.9832 104.561 47.8353 104.693 47.7696 104.874C47.7039 105.054 47.7368 105.202 47.8518 105.202C47.9668 105.219 48.1147 105.087 48.1804 104.906C48.2625 104.742 48.2133 104.594 48.0982 104.578Z" fill="#808080"/>
<path d="M47.2107 106.303C47.1449 106.205 46.9971 106.254 46.8821 106.385C46.767 106.533 46.7177 106.73 46.7999 106.829C46.8656 106.928 47.0135 106.878 47.1285 106.747C47.2435 106.599 47.2928 106.402 47.2107 106.303Z" fill="#808080"/>
<path d="M45.9292 107.601C45.9292 107.437 45.8142 107.387 45.6827 107.453C45.5513 107.535 45.4363 107.716 45.4363 107.88C45.4363 108.044 45.5513 108.094 45.6827 108.028C45.8142 107.962 45.9292 107.765 45.9292 107.601Z" fill="#808080"/>
<path d="M44.5656 108.127C44.6313 107.946 44.5985 107.798 44.4835 107.798C44.3685 107.782 44.2206 107.913 44.1549 108.094C44.0891 108.275 44.122 108.422 44.237 108.422C44.352 108.439 44.4999 108.291 44.5656 108.127Z" fill="#808080"/>
<path d="M43.5143 107.716C43.6293 107.568 43.6786 107.371 43.5964 107.273C43.5307 107.174 43.3828 107.223 43.2678 107.355C43.1528 107.503 43.1035 107.7 43.1856 107.799C43.2349 107.914 43.3828 107.864 43.5143 107.716Z" fill="#808080"/>
<path d="M43.0211 106.5C43.1526 106.418 43.2676 106.237 43.2676 106.073C43.2676 105.909 43.1526 105.859 43.0211 105.925C42.8897 106.007 42.7747 106.188 42.7747 106.352C42.7747 106.517 42.8897 106.582 43.0211 106.5Z" fill="#808080"/>
<path d="M43.2673 104.808C43.3823 104.824 43.5302 104.693 43.5959 104.512C43.6616 104.331 43.6288 104.184 43.5137 104.184C43.3987 104.167 43.2508 104.299 43.1851 104.479C43.103 104.644 43.1358 104.791 43.2673 104.808Z" fill="#808080"/>
<path d="M44.1383 103.066C44.204 103.165 44.3519 103.116 44.4669 102.984C44.5819 102.836 44.6312 102.639 44.549 102.541C44.4833 102.442 44.3354 102.491 44.2204 102.623C44.1054 102.771 44.0726 102.968 44.1383 103.066Z" fill="#808080"/>
<path d="M81.0591 84.2529C81.0591 84.5651 81.0427 84.8773 81.0098 85.1895C80.9605 85.6824 80.8619 86.1918 80.7305 86.7011C79.9254 89.8887 77.6908 93.1091 75.0618 94.6372C73.4187 95.5902 71.9235 95.6888 70.8555 95.0644L70.7734 95.0151C70.1654 94.6372 69.7054 94.0457 69.4096 93.2406C69.196 92.6491 69.081 91.959 69.081 91.1703C69.081 90.8417 69.0974 90.4966 69.1467 90.1516C69.5246 86.8819 71.6278 83.2506 74.2896 81.3118C74.5525 81.1311 74.8154 80.9503 75.0783 80.8025C75.2754 80.6874 75.489 80.5724 75.6862 80.4903C76.9842 79.8823 78.1508 79.833 79.071 80.2602C80.3033 80.8189 81.0591 82.2155 81.0591 84.2529Z" fill="#1A1A1A"/>
<path d="M79.1035 85.3868C79.1035 85.6004 79.0871 85.7975 79.0707 86.0111C79.0378 86.3398 78.9721 86.6848 78.8899 87.0299C78.3477 89.1659 76.8525 91.3347 75.0944 92.3534C73.9935 92.9942 72.9912 93.06 72.2683 92.6492L72.2026 92.6163C71.7918 92.3699 71.4796 91.9591 71.2824 91.4333C71.1346 91.039 71.0688 90.5789 71.0688 90.0531C71.0688 89.8231 71.0853 89.5931 71.1017 89.363C71.3482 87.1613 72.7776 84.7295 74.5522 83.4151C74.7329 83.2836 74.8972 83.1686 75.078 83.07C75.2094 82.9879 75.3573 82.9221 75.4887 82.8564C76.3596 82.4456 77.1482 82.4128 77.7726 82.7085C78.5777 83.0864 79.1035 84.023 79.1035 85.3868Z" fill="#D6D6D6"/>
<path d="M73.2872 93.0925C73.8623 93.0925 74.5031 92.8954 75.1604 92.5174C76.9185 91.4987 78.4794 89.3134 79.038 87.0788C79.1366 86.7338 79.1859 86.3723 79.2352 86.0437C79.2516 85.8301 79.2681 85.6165 79.2681 85.4029C79.2681 84.0063 78.7423 82.9711 77.8221 82.5604C77.1321 82.2482 76.2941 82.2975 75.4068 82.7082C75.2754 82.774 75.1275 82.8397 74.996 82.9218C74.8317 83.0204 74.6674 83.119 74.5031 83.2505L74.4538 83.2833C72.63 84.6142 71.1841 87.0953 70.9212 89.3463C70.8883 89.5928 70.8719 89.8228 70.8719 90.0528C70.8719 90.5786 70.9541 91.0551 71.0855 91.4659L71.1019 91.4987C71.2991 92.0574 71.6442 92.501 72.0878 92.7803L72.1535 92.8132C72.4986 92.9939 72.8765 93.0925 73.2872 93.0925ZM76.8692 82.6918C77.1649 82.6918 77.4442 82.7411 77.6907 82.8561C78.4794 83.2176 78.9394 84.1377 78.9394 85.3865C78.9394 85.5836 78.923 85.7972 78.9066 85.9944C78.8737 86.323 78.808 86.6516 78.7258 86.9803C78.1836 89.1327 76.6884 91.2358 74.996 92.2053C73.9773 92.7968 73.0408 92.8954 72.3343 92.501L72.285 92.4682C71.9071 92.2381 71.6277 91.8767 71.447 91.3837V91.3673C71.3155 90.9894 71.2334 90.5293 71.2334 90.0364C71.2334 89.8228 71.2498 89.6092 71.2662 89.3792C71.5127 87.2432 72.8929 84.8607 74.6181 83.5791L74.651 83.5462C74.8153 83.4312 74.996 83.3162 75.1604 83.2176C75.2918 83.1354 75.4233 83.0697 75.5547 83.0204C76.0148 82.8068 76.4584 82.6918 76.8692 82.6918Z" fill="#808080"/>
<path d="M74.8318 84.7947C74.8318 84.959 74.9468 85.0083 75.0782 84.9426C75.2097 84.8604 75.3247 84.6797 75.3247 84.5154C75.3247 84.3511 75.2097 84.3018 75.0782 84.3675C74.9468 84.4497 74.8318 84.6468 74.8318 84.7947Z" fill="#808080"/>
<path d="M76.1959 84.2852C76.1301 84.4659 76.163 84.6138 76.278 84.6138C76.393 84.6302 76.5409 84.4988 76.6066 84.318C76.6724 84.1373 76.6395 83.9894 76.5245 83.9894C76.4095 83.973 76.2616 84.1044 76.1959 84.2852Z" fill="#808080"/>
<path d="M77.2473 84.6793C77.1323 84.8272 77.083 85.0243 77.1651 85.1229C77.2309 85.2215 77.3787 85.1722 77.4937 85.0408C77.6088 84.8929 77.6581 84.6957 77.5759 84.5971C77.5102 84.4985 77.3623 84.5314 77.2473 84.6793Z" fill="#808080"/>
<path d="M77.7238 85.8953C77.5923 85.9775 77.4773 86.1582 77.4773 86.3226C77.4773 86.4869 77.5923 86.5362 77.7238 86.4704C77.8552 86.3883 77.9702 86.2075 77.9702 86.0432C77.9702 85.8954 77.8552 85.8296 77.7238 85.8953Z" fill="#808080"/>
<path d="M77.4937 87.6039C77.3787 87.5875 77.2309 87.7189 77.1651 87.8997C77.0994 88.0804 77.1323 88.2283 77.2473 88.2283C77.3623 88.2283 77.5102 88.1133 77.5759 87.9325C77.6581 87.7682 77.6088 87.6204 77.4937 87.6039Z" fill="#808080"/>
<path d="M76.6062 89.3296C76.5405 89.231 76.3926 89.2803 76.2776 89.4118C76.1625 89.5597 76.1133 89.7568 76.1954 89.8554C76.2611 89.954 76.409 89.9047 76.524 89.7733C76.639 89.6418 76.6883 89.4282 76.6062 89.3296Z" fill="#808080"/>
<path d="M75.3247 90.6272C75.3247 90.4629 75.2097 90.4136 75.0782 90.4793C74.9468 90.5615 74.8318 90.7422 74.8318 90.9065C74.8318 91.0708 74.9468 91.1201 75.0782 91.0544C75.2097 90.9887 75.3247 90.7915 75.3247 90.6272Z" fill="#808080"/>
<path d="M73.9611 91.153C74.0269 90.9723 73.994 90.8244 73.879 90.8244C73.764 90.808 73.6161 90.9394 73.5504 91.1201C73.4846 91.3009 73.5175 91.4488 73.6325 91.4488C73.7475 91.4652 73.8954 91.3173 73.9611 91.153Z" fill="#808080"/>
<path d="M72.9093 90.7425C73.0243 90.5946 73.0736 90.3975 72.9914 90.2989C72.9257 90.2003 72.7778 90.2496 72.6628 90.381C72.5478 90.5289 72.4985 90.7261 72.5807 90.8247C72.63 90.9397 72.7943 90.8904 72.9093 90.7425Z" fill="#808080"/>
<path d="M72.4332 89.5266C72.5647 89.4444 72.6797 89.2637 72.6797 89.0994C72.6797 88.9351 72.5647 88.8858 72.4332 88.9515C72.3018 89.0337 72.1868 89.2144 72.1868 89.3787C72.1868 89.543 72.2853 89.6087 72.4332 89.5266Z" fill="#808080"/>
<path d="M72.6628 87.834C72.7778 87.8504 72.9257 87.719 72.9914 87.5383C73.0571 87.3575 73.0243 87.2096 72.9093 87.2096C72.7942 87.1932 72.6464 87.3247 72.5806 87.5054C72.4985 87.6697 72.5478 87.8176 72.6628 87.834Z" fill="#808080"/>
<path d="M73.5338 86.0927C73.5995 86.1913 73.7474 86.142 73.8624 86.0106C73.9774 85.8627 74.0267 85.6655 73.9446 85.5669C73.8788 85.4684 73.731 85.5176 73.6159 85.6491C73.5174 85.797 73.4681 85.9941 73.5338 86.0927Z" fill="#808080"/>
<path d="M110.454 67.2801C110.454 67.5923 110.437 67.9045 110.404 68.2167C110.355 68.7096 110.256 69.219 110.125 69.7283C109.32 72.9159 107.085 76.1364 104.456 77.6644C102.715 78.6667 101.154 78.716 100.053 77.9766C99.4942 77.5987 99.067 77.0236 98.8042 76.2678C98.5906 75.6763 98.4755 74.9862 98.4755 74.1975C98.4755 73.8689 98.492 73.5239 98.5413 73.1788C98.9192 69.9091 101.022 66.2779 103.684 64.339C103.947 64.1583 104.21 63.9775 104.473 63.8297C104.67 63.7147 104.867 63.6161 105.064 63.5175C106.362 62.9095 107.529 62.8603 108.449 63.271C108.465 63.271 108.465 63.2875 108.482 63.2875C109.698 63.8625 110.454 65.2592 110.454 67.2801Z" fill="#1A1A1A"/>
<path d="M108.499 68.4297C108.499 68.6433 108.482 68.8405 108.466 69.0541C108.433 69.3827 108.367 69.7278 108.285 70.0728C107.743 72.2088 106.248 74.3777 104.489 75.3964C103.389 76.0372 102.386 76.1029 101.663 75.6922L101.598 75.6593C101.187 75.4128 100.875 75.0021 100.677 74.4763C100.53 74.0819 100.464 73.6219 100.464 73.0961C100.464 72.8661 100.48 72.636 100.497 72.406C100.743 70.2043 102.173 67.7725 103.947 66.458C104.128 66.3266 104.292 66.2116 104.473 66.113C104.604 66.0308 104.752 65.9651 104.884 65.8994C105.755 65.4886 106.543 65.4558 107.168 65.7515C107.973 66.113 108.499 67.0495 108.499 68.4297Z" fill="#D6D6D6"/>
<path d="M102.682 76.1201C103.257 76.1201 103.898 75.9229 104.555 75.545C106.313 74.5263 107.874 72.341 108.433 70.1064C108.532 69.7614 108.581 69.3999 108.63 69.0713C108.647 68.8577 108.663 68.6441 108.663 68.4305C108.663 67.0339 108.137 65.9987 107.217 65.588C106.527 65.2758 105.689 65.3251 104.802 65.7358C104.67 65.8016 104.523 65.8673 104.391 65.9494C104.227 66.048 104.062 66.1466 103.898 66.278L103.849 66.3109C102.025 67.6418 100.579 70.1229 100.316 72.3739C100.283 72.6203 100.267 72.8504 100.267 73.0804C100.267 73.6226 100.349 74.0991 100.497 74.5263C100.694 75.085 101.039 75.5286 101.483 75.8079L101.549 75.8408C101.894 76.0215 102.271 76.1201 102.682 76.1201ZM106.264 65.7194C106.56 65.7194 106.839 65.7687 107.086 65.8837C107.874 66.2452 108.334 67.1653 108.334 68.4141C108.334 68.6112 108.318 68.8248 108.302 69.022C108.269 69.3506 108.203 69.6792 108.121 70.0078C107.579 72.1603 106.083 74.2634 104.391 75.2329C103.372 75.8244 102.436 75.9229 101.729 75.5286L101.68 75.4957C101.302 75.2657 101.023 74.8878 100.842 74.3949C100.711 74.0005 100.628 73.5569 100.628 73.064C100.628 72.8504 100.645 72.6204 100.661 72.4067C100.908 70.2707 102.288 67.8883 104.013 66.6067L104.046 66.5902C104.21 66.4588 104.391 66.3602 104.555 66.2616C104.687 66.1795 104.818 66.1137 104.95 66.0644C105.41 65.8344 105.853 65.7194 106.264 65.7194Z" fill="#808080"/>
<path d="M104.227 67.8228C104.227 67.9871 104.342 68.0364 104.473 67.9707C104.605 67.8885 104.72 67.7078 104.72 67.5435C104.72 67.3792 104.605 67.3299 104.473 67.3956C104.342 67.4778 104.227 67.6749 104.227 67.8228Z" fill="#808080"/>
<path d="M105.591 67.313C105.525 67.4938 105.558 67.6416 105.673 67.6416C105.788 67.6581 105.936 67.5266 106.002 67.3459C106.067 67.1651 106.035 67.0173 105.92 67.0173C105.804 67.0008 105.657 67.1323 105.591 67.313Z" fill="#808080"/>
<path d="M106.642 67.7074C106.527 67.8553 106.478 68.0525 106.56 68.1511C106.626 68.2497 106.774 68.2004 106.889 68.0689C107.004 67.921 107.053 67.7239 106.971 67.6253C106.905 67.5267 106.757 67.576 106.642 67.7074Z" fill="#808080"/>
<path d="M107.119 68.9232C106.987 69.0053 106.872 69.1861 106.872 69.3504C106.872 69.5147 106.987 69.564 107.119 69.4983C107.25 69.4161 107.365 69.2354 107.365 69.0711C107.365 68.9232 107.25 68.8575 107.119 68.9232Z" fill="#808080"/>
<path d="M106.889 70.632C106.774 70.6156 106.626 70.747 106.56 70.9278C106.494 71.1085 106.527 71.2564 106.642 71.2564C106.757 71.2728 106.905 71.1414 106.971 70.9606C107.053 70.7963 107.004 70.6484 106.889 70.632Z" fill="#808080"/>
<path d="M106.018 72.3575C105.952 72.2589 105.804 72.3082 105.689 72.4396C105.574 72.5875 105.525 72.7847 105.607 72.8833C105.673 72.9818 105.821 72.9325 105.936 72.8011C106.034 72.6532 106.084 72.4561 106.018 72.3575Z" fill="#808080"/>
<path d="M104.72 73.655C104.72 73.4907 104.605 73.4414 104.473 73.5072C104.342 73.5893 104.227 73.7701 104.227 73.9344C104.227 74.0987 104.342 74.148 104.473 74.0823C104.605 74.0165 104.72 73.8194 104.72 73.655Z" fill="#808080"/>
<path d="M103.356 74.1808C103.422 74.0001 103.389 73.8522 103.274 73.8522C103.159 73.8358 103.011 73.9672 102.945 74.148C102.88 74.3287 102.913 74.4766 103.028 74.4766C103.143 74.4766 103.29 74.3616 103.356 74.1808Z" fill="#808080"/>
<path d="M102.305 73.7706C102.42 73.6227 102.469 73.4255 102.387 73.3269C102.305 73.2284 102.173 73.2777 102.058 73.4091C101.943 73.557 101.894 73.7542 101.976 73.8527C102.025 73.9678 102.19 73.9185 102.305 73.7706Z" fill="#808080"/>
<path d="M101.828 72.5544C101.96 72.4723 102.075 72.2915 102.075 72.1272C102.075 71.9629 101.96 71.9136 101.828 71.9793C101.697 72.0615 101.582 72.2422 101.582 72.4065C101.582 72.5709 101.68 72.6366 101.828 72.5544Z" fill="#808080"/>
<path d="M102.058 70.8621C102.173 70.8785 102.321 70.7471 102.386 70.5663C102.452 70.3856 102.419 70.2377 102.304 70.2377C102.189 70.2213 102.041 70.3527 101.976 70.5335C101.893 70.6978 101.943 70.8457 102.058 70.8621Z" fill="#808080"/>
<path d="M102.929 69.1206C102.995 69.2191 103.142 69.1699 103.257 69.0384C103.372 68.8905 103.422 68.6934 103.34 68.5948C103.274 68.4962 103.126 68.5455 103.011 68.6769C102.896 68.8084 102.863 69.022 102.929 69.1206Z" fill="#808080"/>
<path d="M119.981 20.7471L66.8277 51.4399L66.2691 51.1113L32.1751 31.4272L85.3288 0.734375L119.981 20.7471Z" fill="url(#paint5_linear)"/>
<path d="M66.8298 51.4401V85.6491L74.273 81.3607L103.668 64.3876L120 54.9727V20.7473L89.4715 38.3612L66.8298 51.4401Z" fill="#2E903D"/>
<path fill-rule="evenodd" clip-rule="evenodd" d="M99.4357 56.8977L101.788 55.5396L102.799 51.5804L103.849 49.9391L104.677 52.5141C104.933 53.3098 105.196 53.5718 105.771 53.2399L107.572 52.2002L105.715 47.2822L110.183 39.9614L107.297 41.6273L104.585 46.569C104.269 47.1443 103.949 47.7157 103.629 48.3627L103.602 48.3785L104.956 42.979L102.604 44.337L99.4357 56.8977Z" fill="white"/>
<path fill-rule="evenodd" clip-rule="evenodd" d="M99.236 46.4052C99.9804 45.9755 100.702 45.5588 101.307 45.2098L100.817 47.2293C100.663 47.8638 100.272 48.3505 99.4107 48.8478C97.915 49.7114 95.7018 50.9889 94.2059 51.8522L94.696 49.8327C94.85 49.1979 95.2408 48.7114 96.1022 48.214C96.9933 47.6996 98.139 47.0383 99.236 46.4052ZM94.8939 52.8986C96.3895 52.0351 98.6028 50.7576 100.099 49.8944L99.6086 51.9138C99.4546 52.5485 99.0638 53.035 98.2023 53.5324C96.7065 54.396 94.4934 55.6734 92.9975 56.5366L93.4876 54.5173C93.6415 53.8826 94.0324 53.396 94.8939 52.8986ZM98.8313 54.615C97.3355 55.4784 95.1223 56.7558 93.6266 57.6194C92.7649 58.1169 92.3742 58.6035 92.2202 59.2378L91.7302 61.2576C93.226 60.3941 95.4392 59.1168 96.935 58.2532C97.7964 57.7559 98.1873 57.2691 98.3412 56.6345L98.8313 54.615Z" fill="white"/>
<path fill-rule="evenodd" clip-rule="evenodd" d="M88.627 54.9926L89.9064 54.2545C90.9965 53.6255 90.7476 55.3148 90.1958 57.1397C89.7096 58.7481 88.8479 60.4171 87.8201 61.0104L85.6873 62.2415C84.8366 62.7326 84.4444 63.2254 84.2789 63.8775L83.7521 65.9535L85.3161 65.0509L86.8449 64.1537C88.2007 63.3583 89.3107 62.6062 90.6088 60.5324C91.9806 58.3414 93.5802 53.7836 93.3064 51.8396C93.0918 50.3162 92.3122 50.281 90.4243 51.3708L86.9839 53.3565L84.9802 61.1692L86.253 60.4362C87.0105 59.9998 87.3906 59.7911 87.7937 58.3275L88.627 54.9926Z" fill="white"/>
<path fill-rule="evenodd" clip-rule="evenodd" d="M82.6512 58.4531L81.7042 59.0002C79.8071 60.0965 78.1811 66.5775 80.4242 65.2816L81.8654 64.4492C82.6966 63.9693 83.3136 63.9632 83.0403 65.0652L82.6637 66.583L81.1352 67.4658L79.8919 68.1692C78.3013 69.0692 77.275 68.7572 76.9055 67.5971C76.5057 66.3417 77.0705 62.9156 78.7095 59.9836C79.6604 58.2825 80.9776 56.8261 82.6664 55.851L85.7864 54.0491L85.2985 55.9549C84.9833 57.1863 84.3396 57.4797 83.9722 57.6917L82.6512 58.4531Z" fill="white"/>
<path d="M66.8301 51.4407V85.6497L56.4787 79.6689L32.1774 65.637V31.428L66.2714 51.1121L66.8301 51.4407Z" fill="url(#paint6_linear)"/>
<path d="M9.56842 68.3309L10.8993 69.1032C11.1458 69.251 11.3594 69.0867 11.3594 68.7581V64.8147C11.3594 64.4861 11.1622 64.0918 10.8993 63.9439L9.56842 63.1716C9.32196 63.0238 9.10835 63.1881 9.10835 63.5167V67.4601C9.10835 67.7887 9.30553 68.183 9.56842 68.3309Z" fill="#808080"/>
<path d="M11.3432 67.0989L12.5098 67.7561V67.1153L11.3432 66.4417V67.0989Z" fill="#333333"/>
<path d="M31.783 99.3529C32.2759 98.1699 34.8063 95.4588 36.3343 93.405C36.8437 92.7149 37.3531 92.0412 37.846 91.4004C38.8483 90.0859 39.7027 88.6565 40.3763 87.1613C40.9843 85.8304 41.4443 84.4337 41.7565 82.9878C42.3152 80.441 43.1696 77.1877 44.4019 74.2959C45.5521 71.5848 47.0473 70.4675 48.9368 69.2352L56.5278 64.2238L64.6118 58.8838V84.368L42.6438 97.0526L31.2079 103.658C31.1915 103.641 30.8793 101.522 31.783 99.3529ZM44.0404 85.3867L59.0418 76.3169C59.7154 75.9061 60.1426 75.1667 60.1426 74.3781V66.3598C60.1426 65.8505 59.584 65.5218 59.1403 65.7847L53.2088 69.2188L48.6739 71.8313C46.9487 72.8336 45.3877 74.9203 44.6976 77.1384C43.7939 80.0467 43.2353 82.8564 42.9231 84.6309C42.8081 85.2553 43.4818 85.7153 44.0404 85.3867Z" fill="#B8B8B8"/>
<path d="M64.5947 58.8838L56.5108 64.2238L48.9197 69.2352C47.0466 70.4511 45.5514 71.5684 44.3848 74.2959C43.1525 77.1877 42.2981 80.4411 41.7394 82.9878C41.4273 84.4337 40.9672 85.8304 40.3592 87.1613C39.6856 88.6729 38.8312 90.086 37.8289 91.4004C37.336 92.0412 36.8266 92.7149 36.3173 93.405C34.8056 95.4588 32.2588 98.1864 31.7659 99.3529C30.8622 101.522 31.1744 103.658 31.1744 103.658L0.990971 86.2247C0.990971 86.2247 0.678783 84.0887 1.58248 81.9198C2.23971 80.3589 5.65733 76.5305 7.64546 73.9673C9.55144 71.4862 10.8988 68.6109 11.556 65.5547C12.1146 63.0079 12.969 59.7546 14.2014 56.8628C14.9243 55.1704 15.7787 54.086 16.781 53.2152C17.3725 52.7058 18.0297 52.2622 18.7363 51.8021L26.3273 46.7907L34.4113 41.4507L56.4779 54.1846L64.5947 58.8838ZM40.5728 69.1038L35.6107 66.2448L34.4113 65.5547L25.933 60.6583L20.6094 57.5858C18.2762 56.2384 15.3351 57.3886 14.4643 59.8532C14.4314 59.9682 14.3985 60.0832 14.3657 60.1983C13.5606 62.9258 13.0348 65.5219 12.739 67.1978C12.7226 67.28 12.7226 67.3621 12.739 67.4278L12.5254 68.3972C12.3775 69.0381 12.6733 69.6953 13.2319 70.0239L21.1516 74.5917L38.1739 84.4337C39.0448 84.9431 40.1621 84.4502 40.3921 83.4643L42.5938 73.7208C43.0046 71.9135 42.1831 70.0403 40.5728 69.1038Z" fill="url(#paint7_linear)"/>
<path d="M43.6459 85.3043C43.7445 85.3043 43.8431 85.2714 43.9252 85.2222L58.943 76.1523C59.5674 75.7744 59.9453 75.1008 59.9453 74.3778V66.3595C59.9453 66.0638 59.6988 65.8831 59.4688 65.8831C59.3867 65.8831 59.3045 65.8995 59.2388 65.9488L48.7723 71.9953C47.08 72.9647 45.5683 75.0022 44.8947 77.1875C44.0074 80.0464 43.4488 82.8397 43.1201 84.6635C43.0873 84.8278 43.1366 84.9921 43.2352 85.1071C43.3337 85.2386 43.4816 85.3043 43.6459 85.3043Z" fill="#28444B"/>
<path d="M42.9065 84.6302C43.2186 82.8557 43.7937 80.0296 44.681 77.1378C45.3711 74.9196 46.932 72.8329 48.6573 71.8306L53.1922 69.2181L59.1237 65.7841C59.2387 65.7183 59.3373 65.7019 59.4523 65.7019C59.7974 65.7019 60.126 65.9812 60.126 66.3756V74.3938C60.126 75.1825 59.7152 75.9219 59.0251 76.3327L44.0073 85.4189C43.8759 85.5011 43.7444 85.5339 43.6294 85.5339C43.2187 85.5011 42.8243 85.1067 42.9065 84.6302ZM43.3665 84.9753C43.4322 85.0574 43.5473 85.1067 43.6459 85.1067C43.7116 85.1067 43.7773 85.0903 43.8266 85.0574L58.8444 75.9712C59.403 75.6261 59.7481 75.0182 59.7481 74.361V66.3427C59.7481 66.162 59.6002 66.0634 59.4687 66.0634C59.4195 66.0634 59.3702 66.0798 59.3373 66.0962L53.4058 69.5303L48.8709 72.1428C47.2278 73.0958 45.7326 75.0839 45.0753 77.2199C44.1881 80.0789 43.6294 82.8557 43.3008 84.6795C43.2679 84.8274 43.3172 84.926 43.3665 84.9753Z" fill="#333333"/>
<path d="M18.1945 57.4041C18.2931 57.4041 18.3917 57.3877 18.4903 57.3877C18.5231 57.3877 18.556 57.3877 18.5889 57.3877V64.6501L18.1945 64.8802L17.8002 65.1102V57.4534C17.9316 57.4206 18.0631 57.4041 18.1945 57.4041Z" fill="#333333"/>
<path d="M48.2302 72.176H48.7725V82.511L48.0002 82.6425V72.4061C48.0002 72.2746 48.0988 72.176 48.2302 72.176Z" fill="#333333"/>
<path d="M57.5796 80.424L59.6828 79.2081C59.7978 79.1424 59.8964 79.011 59.9292 78.8631L60.1428 77.943C60.1921 77.7294 60.0771 77.6144 59.8964 77.7129L57.366 79.1753C57.2017 79.2739 57.0703 79.5368 57.1196 79.6846L57.3332 80.3583C57.366 80.4733 57.4646 80.4897 57.5796 80.424Z" fill="#333333"/>
<path d="M39.1889 84.7256C39.8275 84.7256 40.3485 84.2915 40.4998 83.6905L42.735 73.7909C43.1383 72.0213 42.5269 70.2183 40.9303 69.3002L20.5108 57.5975C19.8721 57.2303 18.9879 57.0466 18.2652 57.0466C16.5005 57.0466 14.9208 58.1484 14.3326 59.8012C14.2989 59.9013 14.2653 60.0182 14.2317 60.1351C14.2149 60.1851 14.2149 60.2185 14.1981 60.2686L12.3326 68.4655C12.1982 69.0331 12.4503 69.6174 12.9713 69.9012L38.5166 84.542C38.7183 84.6588 38.9536 84.7256 39.1889 84.7256Z" fill="#28444B"/>
<path d="M45.6342 89.1488L44.3033 88.3766C44.0568 88.2287 43.8432 87.8343 43.8432 87.5057V83.5623C43.8432 83.2337 44.0404 83.0694 44.3033 83.2173L45.6342 83.9895C45.8806 84.1374 46.0942 84.5318 46.0942 84.8604V88.8038C46.0942 89.1488 45.8806 89.2967 45.6342 89.1488Z" fill="#808080"/>
<path d="M43.8594 85.8621L42.6928 85.1884V84.5476L43.8594 85.2213V85.8621Z" fill="#333333"/>
<defs>
<linearGradient id="paint0_linear" x1="32.52" y1="84.8255" x2="30.3443" y2="84.8255" gradientUnits="userSpaceOnUse">
<stop stop-color="#333333"/>
<stop offset="1" stop-color="#808080"/>
</linearGradient>
<linearGradient id="paint1_linear" x1="8.9091" y1="107.082" x2="5.49734" y2="106.916" gradientUnits="userSpaceOnUse">
<stop stop-color="#808080"/>
<stop offset="1" stop-color="#6F6F6F"/>
</linearGradient>
<linearGradient id="paint2_linear" x1="46.626" y1="97.6587" x2="39.5888" y2="109.312" gradientUnits="userSpaceOnUse">
<stop/>
<stop offset="1" stop-color="#1A1A1A"/>
</linearGradient>
<linearGradient id="paint3_linear" x1="79.0277" y1="86.9261" x2="68.0407" y2="86.9261" gradientUnits="userSpaceOnUse">
<stop/>
<stop offset="1" stop-color="#1A1A1A"/>
</linearGradient>
<linearGradient id="paint4_linear" x1="108.445" y1="69.9205" x2="97.4369" y2="69.9205" gradientUnits="userSpaceOnUse">
<stop/>
<stop offset="1" stop-color="#1A1A1A"/>
</linearGradient>
<linearGradient id="paint5_linear" x1="76.0783" y1="0.734375" x2="76.0783" y2="51.4399" gradientUnits="userSpaceOnUse">
<stop stop-color="#28AD3E"/>
<stop offset="1" stop-color="#34BB4B"/>
</linearGradient>
<linearGradient id="paint6_linear" x1="49.5038" y1="31.428" x2="49.5038" y2="85.6497" gradientUnits="userSpaceOnUse">
<stop stop-color="#2F953F"/>
<stop offset="1" stop-color="#297936"/>
</linearGradient>
<linearGradient id="paint7_linear" x1="8.00087" y1="94.7478" x2="73.8577" y2="33.186" gradientUnits="userSpaceOnUse">
<stop stop-color="#E6E6E6"/>
<stop offset="0.9999" stop-color="#C9C9CE"/>
<stop offset="1" stop-color="#E8E8E8"/>
</linearGradient>
</defs>
</svg>
