<svg width="85" height="111" viewBox="0 0 85 111" fill="none" xmlns="http://www.w3.org/2000/svg">
<path d="M34.1279 107.064L83.2335 9.26242L68.1777 0.569802C67.6846 0.154192 67.0692 -0.0476758 66.3639 0.00953798L34.9757 2.55912L3.58782 36.2535C1.71898 38.2595 0.479492 41.3535 0.479492 44.0121V55.1343C0.479492 76.0983 7.38013 91.5195 18.7825 98.1934L18.7782 98.2018L19.2536 98.4762C19.2638 98.4819 19.2737 98.4881 19.2838 98.4937L34.1279 107.064Z" fill="url(#paint0_linear)"/>
<path d="M83.2339 9.26241L68.178 0.569801C67.6849 0.154192 67.0696 -0.0476758 66.3642 0.00953797L34.9761 2.55911L50.0233 11.2435L83.2339 9.26241Z" fill="url(#paint1_linear)"/>
<path d="M50.0241 11.2454L18.6362 44.9396C16.7673 46.9458 15.5278 50.0396 15.5278 52.6982V63.8204C15.5278 93.4107 29.2643 111.981 50.0241 110.456C70.7838 88.0095 84.5203 53.5778 84.5203 23.9875V12.8653C84.5203 10.2067 83.2809 8.54408 81.412 8.69586L50.0241 11.2454Z" fill="url(#paint2_linear)"/>
<path d="M50.1365 72.5785L41.9092 66.2636C40.843 65.4453 40.5159 63.9643 41.1357 62.7621C41.9191 61.2424 43.8589 60.8007 45.2064 61.835L50.1363 65.6191L67.9741 31.0141C68.4295 30.1308 69.5569 29.8739 70.3404 30.4751C70.9601 30.9507 71.1504 31.8117 70.79 32.5107L50.1365 72.5785Z" fill="white"/>
<path d="M50.3165 81.7687C41.389 87.0282 34.126 81.4254 34.126 69.279C34.126 57.1327 41.389 42.9717 50.3165 37.7123C53.0985 36.0732 55.8435 35.4331 58.2542 35.8611C59.5888 36.0979 60.8109 36.6542 61.8858 37.515C62.9615 38.3756 63.8737 39.5285 64.5976 40.9416C65.8465 43.379 66.5068 46.5813 66.5068 50.2021C66.5068 62.3483 59.2438 76.5092 50.3165 81.7687ZM50.3165 42.6763C43.4009 46.7507 37.7746 57.7202 37.7746 67.1295C37.7746 76.5386 43.4009 80.879 50.3165 76.8046C57.232 72.7303 62.8584 61.7608 62.8584 52.3515C62.8584 49.5455 62.3476 47.0656 61.3812 45.1799C60.8202 44.0848 60.1131 43.191 59.279 42.5237C58.445 41.8561 57.4976 41.4247 56.463 41.2414C54.5976 40.91 52.4722 41.4062 50.3165 42.6763Z" fill="white"/>
<defs>
<linearGradient id="paint0_linear" x1="23.9233" y1="62.6187" x2="29.1894" y2="53.4976" gradientUnits="userSpaceOnUse">
<stop stop-color="#257633"/>
<stop offset="1" stop-color="#1AB248"/>
</linearGradient>
<linearGradient id="paint1_linear" x1="34.9763" y1="5.62189" x2="83.2339" y2="5.62189" gradientUnits="userSpaceOnUse">
<stop stop-color="#098A30"/>
<stop offset="1" stop-color="#1AB248"/>
</linearGradient>
<linearGradient id="paint2_linear" x1="50.0241" y1="8.68628" x2="50.0241" y2="110.543" gradientUnits="userSpaceOnUse">
<stop stop-color="#36BD4D"/>
<stop offset="1" stop-color="#21A637"/>
</linearGradient>
</defs>
</svg>
