<svg width="230" height="483" viewBox="0 0 230 483" fill="none" xmlns="http://www.w3.org/2000/svg">
<mask id="mask0" mask-type="alpha" maskUnits="userSpaceOnUse" x="0" y="0" width="230" height="483">
<rect width="230" height="483" fill="#C4C4C4"/>
</mask>
<g mask="url(#mask0)">
<path fill-rule="evenodd" clip-rule="evenodd" d="M685.947 -276.643L650.488 -282.315C615.03 -287.988 544.112 -299.332 519.467 -264.404C494.823 -229.477 516.45 -148.277 502.088 -103.066C487.725 -57.856 437.374 -48.6351 381.881 -44.5556C326.387 -40.4761 265.753 -41.538 235.967 -11.7517C206.18 18.0346 207.242 78.6691 192.88 123.88C178.518 169.09 148.731 198.876 113.804 223.521C78.876 248.166 38.807 267.67 19.3033 307.739C-0.200243 347.808 0.861642 408.442 7.06489 474.218C13.2682 539.994 24.6127 610.911 5.10919 650.98C-14.3944 691.05 -64.7462 700.27 -89.9221 704.881L-115.098 709.491L-53.4016 771.188L-38.5084 756.294C-23.6152 741.401 6.17104 711.615 35.9574 681.829C65.7437 652.042 95.53 622.256 125.316 592.47C155.103 562.683 184.889 532.897 214.675 503.111C244.462 473.324 274.248 443.538 304.034 413.752C333.821 383.965 363.607 354.179 393.393 324.393C423.179 294.607 452.966 264.82 482.752 235.034C512.538 205.248 542.325 175.461 572.111 145.675C601.897 115.889 631.684 86.1023 661.47 56.316C691.256 26.5297 721.043 -3.25664 750.829 -33.043C780.615 -62.8293 810.402 -92.6156 825.295 -107.509L840.188 -122.402L685.947 -276.643Z" fill="#1AB248"/>
</g>
</svg>
