<svg width="61" height="56" viewBox="0 0 61 56" fill="none" xmlns="http://www.w3.org/2000/svg">
<path d="M32.95 13.9H40.55C40.802 13.9 41.0436 13.7999 41.2218 13.6218C41.3999 13.4436 41.5 13.202 41.5 12.95C41.5 12.698 41.3999 12.4564 41.2218 12.2782C41.0436 12.1001 40.802 12 40.55 12H32.95C32.698 12 32.4564 12.1001 32.2782 12.2782C32.1001 12.4564 32 12.698 32 12.95C32 13.202 32.1001 13.4436 32.2782 13.6218C32.4564 13.7999 32.698 13.9 32.95 13.9Z" fill="#1AB248"/>
<path d="M32 16.7508C32 17.0027 32.1001 17.2444 32.2782 17.4225C32.4564 17.6007 32.698 17.7008 32.95 17.7008H50.05C50.302 17.7008 50.5436 17.6007 50.7218 17.4225C50.8999 17.2444 51 17.0027 51 16.7508C51 16.4988 50.8999 16.2572 50.7218 16.079C50.5436 15.9009 50.302 15.8008 50.05 15.8008H32.95C32.698 15.8008 32.4564 15.9009 32.2782 16.079C32.1001 16.2572 32 16.4988 32 16.7508Z" fill="#1AB248"/>
<path d="M32 23.95C32 24.202 32.1001 24.4436 32.2782 24.6218C32.4564 24.7999 32.698 24.9 32.95 24.9H50.05C50.302 24.9 50.5436 24.7999 50.7218 24.6218C50.8999 24.4436 51 24.202 51 23.95C51 23.698 50.8999 23.4564 50.7218 23.2782C50.5436 23.1001 50.302 23 50.05 23H32.95C32.698 23 32.4564 23.1001 32.2782 23.2782C32.1001 23.4564 32 23.698 32 23.95Z" fill="#1AB248"/>
<path d="M32.95 21.5006H40.55C40.802 21.5006 41.0436 21.4005 41.2218 21.2223C41.3999 21.0442 41.5 20.8025 41.5 20.5506C41.5 20.2986 41.3999 20.057 41.2218 19.8788C41.0436 19.7007 40.802 19.6006 40.55 19.6006H32.95C32.698 19.6006 32.4564 19.7007 32.2782 19.8788C32.1001 20.057 32 20.2986 32 20.5506C32 20.8025 32.1001 21.0442 32.2782 21.2223C32.4564 21.4005 32.698 21.5006 32.95 21.5006Z" fill="#1AB248"/>
<path d="M32.95 29.1002H40.55C40.802 29.1002 41.0436 29.0001 41.2218 28.8219C41.3999 28.6438 41.5 28.4022 41.5 28.1502C41.5 27.8982 41.3999 27.6566 41.2218 27.4784C41.0436 27.3003 40.802 27.2002 40.55 27.2002H32.95C32.698 27.2002 32.4564 27.3003 32.2782 27.4784C32.1001 27.6566 32 27.8982 32 28.1502C32 28.4022 32.1001 28.6438 32.2782 28.8219C32.4564 29.0001 32.698 29.1002 32.95 29.1002Z" fill="#1AB248"/>
<path d="M32.95 32.9H40.55C40.802 32.9 41.0436 32.7999 41.2218 32.6218C41.3999 32.4436 41.5 32.202 41.5 31.95C41.5 31.698 41.3999 31.4564 41.2218 31.2782C41.0436 31.1001 40.802 31 40.55 31H32.95C32.698 31 32.4564 31.1001 32.2782 31.2782C32.1001 31.4564 32 31.698 32 31.95C32 32.202 32.1001 32.4436 32.2782 32.6218C32.4564 32.7999 32.698 32.9 32.95 32.9Z" fill="#1AB248"/>
<path d="M10 21.5C10 26.7383 14.2617 31 19.5 31C24.7585 31 29 26.7342 29 21.5C29 16.2617 24.7383 12 19.5 12C14.2617 12 10 16.2618 10 21.5ZM23.0637 21.5C23.0637 23.4596 21.4735 25.0637 19.5 25.0637C17.5349 25.0637 15.9363 23.4651 15.9363 21.5C15.9363 19.5349 17.5349 17.9363 19.5 17.9363C21.4651 17.9363 23.0637 19.535 23.0637 21.5ZM19.5 29.4182C15.1339 29.4182 11.5818 25.8661 11.5818 21.5C11.5818 17.4006 14.7127 14.0189 18.7091 13.621V16.4152C16.2461 16.7968 14.3546 18.9317 14.3546 21.5C14.3546 24.3371 16.6629 26.6454 19.5 26.6454C20.5642 26.6454 21.5856 26.3208 22.4442 25.7195L24.4194 27.7033C23.0239 28.8144 21.3048 29.4182 19.5 29.4182ZM25.5541 26.6013L23.5869 24.6254C24.0822 23.9803 24.4145 23.2318 24.5602 22.4323H27.3618C27.1818 23.9741 26.5576 25.414 25.5541 26.6013ZM20.2909 13.6211C24.0742 13.9978 27.0819 17.0482 27.3919 20.8506H24.6046C24.3173 18.579 22.543 16.7643 20.2909 16.4153V13.6211Z" fill="#1AB248"/>
<path d="M55.8147 1H5.18516C2.8775 1 1 2.8775 1 5.18516V39.524C1 41.8318 2.8775 43.7093 5.18516 43.7093H24.2724V46.2188C24.2724 47.2718 23.7658 48.2638 22.9498 48.8081L20.7897 50.2489H19.0724C17.9605 50.2489 17.0559 51.1535 17.0559 52.2654V53.5557C17.0559 54.6676 17.9605 55.5722 19.0724 55.5722H41.9275C43.0394 55.5722 43.9439 54.6676 43.9439 53.5557V52.2654C43.9439 51.1535 43.0394 50.2489 41.9275 50.2489H40.2102L38.0501 48.8081C37.2342 48.2638 36.7273 47.2718 36.7273 46.2188V43.7093H55.8146C58.1224 43.7093 59.9999 41.8318 59.9999 39.524V24.3712C59.9999 23.8938 59.613 23.5069 59.1356 23.5069C58.6582 23.5069 58.2714 23.8938 58.2714 24.3712V39.524C58.2714 40.8787 57.1693 41.9808 55.8146 41.9808C54.4958 41.9808 6.55713 41.9808 5.18516 41.9808C3.83048 41.9808 2.7285 40.8787 2.7285 39.524V5.18516C2.7285 3.83048 3.83048 2.7285 5.18516 2.7285H55.8146C57.1693 2.7285 58.2714 3.83048 58.2714 5.18516V20.338C58.2714 20.8154 58.6582 21.2023 59.1356 21.2023C59.613 21.2023 59.9999 20.8154 59.9999 20.338V5.18516C60 2.8775 58.1225 1 55.8147 1ZM41.9275 51.9776C42.0863 51.9776 42.2154 52.1067 42.2154 52.2655V53.5558C42.2154 53.7146 42.0863 53.8438 41.9275 53.8438H19.0725C18.9137 53.8438 18.7846 53.7146 18.7846 53.5558V52.2655C18.7846 52.1067 18.9137 51.9776 19.0725 51.9776H41.9275ZM26.0009 46.2189V43.7094H34.9989V46.2189C34.9989 47.8668 35.781 49.3724 37.0909 50.2461L37.0953 50.2489H23.9047L23.9091 50.2461C25.219 49.3724 26.0009 47.867 26.0009 46.2189Z" fill="#1AB248" stroke="#1AB248" stroke-width="0.1"/>
<rect x="5.75" y="5.75" width="49.5" height="33.5" rx="2.25" stroke="#1AB248" stroke-width="1.5"/>
</svg>
