<svg width="241" height="458" viewBox="0 0 241 458" fill="none" xmlns="http://www.w3.org/2000/svg">
<mask id="mask0" mask-type="alpha" maskUnits="userSpaceOnUse" x="0" y="0" width="241" height="458">
<rect width="241" height="458" fill="#C4C4C4"/>
</mask>
<g mask="url(#mask0)">
<path fill-rule="evenodd" clip-rule="evenodd" d="M428.726 756.869L395.213 749.865C361.7 742.861 294.673 728.853 286.176 690.324C277.679 651.795 327.712 588.745 332.221 544.767C336.731 500.789 295.717 475.883 248.2 453.701C200.684 431.52 146.664 412.063 131.663 376.258C116.663 340.454 140.682 288.302 145.192 244.324C149.702 200.346 134.701 164.542 113.198 131.462C91.6941 98.382 63.6871 68.0267 61.6934 26.7732C59.6997 -14.4804 83.7192 -66.6322 114.242 -121.509C144.765 -176.385 181.791 -233.986 179.797 -275.239C177.803 -316.493 136.79 -341.399 116.283 -353.852L95.7764 -366.305L173.816 -399L181.316 -381.098C188.816 -363.196 203.817 -327.391 218.817 -291.587C233.817 -255.782 248.818 -219.978 263.818 -184.174C278.818 -148.369 293.818 -112.565 308.819 -76.7604C323.819 -40.956 338.819 -5.15157 353.82 30.6528C368.82 66.4572 383.82 102.262 398.821 138.066C413.821 173.87 428.821 209.675 443.822 245.479C458.822 281.284 473.822 317.088 488.822 352.892C503.823 388.697 518.823 424.501 533.823 460.306C548.824 496.11 563.824 531.914 578.824 567.719C593.825 603.523 608.825 639.328 616.325 657.23L623.825 675.132L428.726 756.869Z" fill="#1AB248"/>
</g>
</svg>
