<svg width="44" height="44" viewBox="0 0 44 44" fill="none" xmlns="http://www.w3.org/2000/svg">
<g clip-path="url(#clip0)">
<path d="M36.6667 10.9081V17.1781C35.2183 16.7381 33.6783 16.4997 32.0833 16.4997C23.485 16.4997 16.5 23.4847 16.5 32.0831C16.5 33.6781 16.7383 35.2181 17.1783 36.6664H1.63167C0.733333 36.6664 0 35.9331 0 35.0348V10.9081H36.6667Z" fill="#E9C79C"/>
<path d="M36.6667 10.901H0L5.49083 1.01017C5.82633 0.396 6.501 0 7.21417 0H29.4525C30.1657 0 30.8403 0.396 31.1758 1.01017L36.6667 10.901Z" fill="#E2B782"/>
<path d="M19.8202 0L21.8021 10.901H14.8647L16.8466 0H19.8202Z" fill="#795548"/>
<path d="M18.3333 10.9081H0V35.0348C0 35.9331 0.733333 36.6664 1.63167 36.6664H17.1783C16.7383 35.2181 16.5 33.6781 16.5 32.0831C16.5 29.4321 17.1637 26.9369 18.3333 24.7497V10.9081Z" fill="#D4AA76"/>
<path d="M16.8465 0H7.21417C6.501 0 5.82633 0.396 5.49083 1.01017L0 10.901H18.3333H14.8647L16.8465 0Z" fill="#BA9163"/>
<path d="M18.3334 0H16.8466L14.8647 10.901H18.3334V0Z" fill="#694A3F"/>
<path d="M32.0837 43.9997C25.513 43.9997 20.167 38.6537 20.167 32.083C20.167 25.5124 25.513 20.1664 32.0837 20.1664C38.6543 20.1664 44.0003 25.5124 44.0003 32.083C44.0003 38.6537 38.6543 43.9997 32.0837 43.9997Z" fill="#1AB248"/>
<path d="M30.2504 37.1249C29.8855 37.1249 29.5354 36.98 29.2787 36.7215L26.0704 33.5132C25.5332 32.976 25.5332 32.1052 26.0704 31.568C26.6075 31.0309 27.4784 31.0309 28.0155 31.568L30.1807 33.7314L35.171 27.9729C35.6679 27.4009 36.535 27.3367 37.1107 27.8336C37.6845 28.3304 37.7469 29.1994 37.25 29.7732L31.2917 36.6482C31.0405 36.936 30.683 37.1084 30.3017 37.1212L30.2504 37.1249Z" fill="white"/>
<path d="M32.0836 20.1664C25.513 20.1664 20.167 25.5124 20.167 32.083C20.167 38.6537 25.513 43.9997 32.0836 43.9997V35.7332L31.2898 36.6499C31.0386 36.9377 30.6811 37.11 30.2998 37.1229H30.2503C29.8855 37.1229 29.5353 36.978 29.2786 36.7195L26.0703 33.5112C25.5332 32.974 25.5332 32.1032 26.0703 31.566C26.338 31.2984 26.69 31.1627 27.042 31.1627C27.394 31.1627 27.746 31.2965 28.0136 31.566L30.1788 33.7294L32.0836 31.5312V20.1664Z" fill="#269449"/>
<path d="M27.042 31.1664C26.69 31.1664 26.338 31.3002 26.0704 31.5697C25.5332 32.1069 25.5332 32.9777 26.0704 33.5149L29.2787 36.7232C29.5372 36.9817 29.8874 37.1265 30.2504 37.1265H30.2999C30.6812 37.1137 31.0387 36.9414 31.2899 36.6535L32.0837 35.7369V31.5367L30.1789 33.733L28.0137 31.5697C27.746 31.3002 27.394 31.1664 27.042 31.1664Z" fill="#DEDEDE"/>
</g>
<defs>
<clipPath id="clip0">
<rect width="44" height="44" fill="white"/>
</clipPath>
</defs>
</svg>
