<svg width="40" height="40" viewBox="0 0 40 40" fill="none" xmlns="http://www.w3.org/2000/svg">
<path d="M1.74844 11.8111C4.87734 4.84858 11.8727 0.000141144 20 0.000141144C20.7219 0.000141144 21.4344 0.0384254 22.1367 0.113422C23.107 0.216549 24.4609 1.75561 24.4609 1.75561C24.4609 1.75561 26.882 1.18999 27.7852 1.57202C34.9633 4.60874 40 11.7166 40 20.0002L28.3312 32.6931C28.3312 32.6931 23.9156 34.6806 20 36.4431C16.8797 37.847 14.0773 39.108 14.0773 39.1088V39.108C12.0922 38.4939 10.2391 37.5783 8.57109 36.415V36.4142L1.74844 11.8111Z" fill="#00B3FF"/>
<path d="M1.74844 11.8111C4.87734 4.84858 11.8727 0.000141144 20 0.000141144V36.4431C16.8797 37.847 14.0773 39.108 14.0773 39.1088V39.108C12.0922 38.4939 10.2391 37.5783 8.57109 36.415V36.4142L1.74844 11.8111Z" fill="#0174F9"/>
<path d="M-0.00019455 20.0005C-0.00019455 17.0825 0.624805 14.3106 1.74824 11.8114L5.71387 20.0005L11.4287 22.8575V28.5716L8.5709 31.4294V36.4146C3.38965 32.8013 -0.00019455 26.7966 -0.00019455 20.0005Z" fill="#56C125"/>
<path d="M11.4289 11.4289V8.5711L17.1422 5.71407H19.3359L20 4.38594L22.1367 0.113285C24.1203 0.323441 26.018 0.824223 27.7852 1.57188L25.7141 5.71407L28.5711 8.56953V13.9805L34.2859 20H40C40 31.0453 31.0453 40 20 40C17.9383 40 15.9492 39.6875 14.0773 39.1086V39.1078L14.3922 34.3641L20 32.9102L25.7141 31.4289V28.5711L28.5711 25.7141V22.857L22.857 20H17.143L11.4289 11.4289Z" fill="#ABE233"/>
<path d="M14.3922 34.3641L20 32.9102V40C17.9383 40 15.9492 39.6875 14.0773 39.1086V39.1078L14.3922 34.3641Z" fill="#56C125"/>
<path d="M11.4289 11.4289V8.57109L17.1422 5.71406H19.3359L20 4.38594V20H17.143L11.4289 11.4289Z" fill="#56C125"/>
</svg>
