<svg width="44" height="43" viewBox="0 0 44 43" fill="none" xmlns="http://www.w3.org/2000/svg">
<path d="M31.7284 41.2086H19.1826V8.58398H32.9045V35.8458L31.7284 37.638V41.2086Z" fill="#EB8D00"/>
<path d="M21.3523 3.58691H19.1828L17.3906 17.9154L19.1832 40.7838L21.3523 40.4793V3.58691Z" fill="#FDAE02"/>
<path d="M2.04581 0V3.58705H0V40.4795L11.5656 41.8524L19.1829 40.7839V0H2.04581Z" fill="#FFDA44"/>
<path d="M6.27246 8.61133H8.79265V12.1958H6.27246V8.61133Z" fill="#F3FFFB"/>
<path d="M12.5454 8.61133H15.0656V12.1958H12.5454V8.61133Z" fill="#F3FFFB"/>
<path d="M6.27246 15.7802H8.79265V19.3646H6.27246V15.7802Z" fill="#F3FFFB"/>
<path d="M12.5454 15.7802H15.0656V19.3646H12.5454V15.7802Z" fill="#F3FFFB"/>
<path d="M6.27246 22.9491H8.79265V26.5335H6.27246V22.9491Z" fill="#F3FFFB"/>
<path d="M12.5454 22.9491H15.0656V26.5335H12.5454V22.9491Z" fill="#F3FFFB"/>
<path d="M6.27246 30.1179H8.79265V33.7023H6.27246V30.1179Z" fill="#F3FFFB"/>
<path d="M12.5454 30.1179H15.0656V33.7023H12.5454V30.1179Z" fill="#F3FFFB"/>
<path d="M24.5879 15.7803H27.1081V19.3647H24.5879V15.7803Z" fill="#FFD27B"/>
<path d="M24.5879 22.9492H27.1081V26.5336H24.5879V22.9492Z" fill="#FFD27B"/>
<path d="M33.3032 35.4111H35.8237V41.684H33.3032V35.4111Z" fill="#8F4D24"/>
<path d="M34.5635 38.4079C31.5292 38.4079 29.0605 35.9392 29.0605 32.905C29.0605 29.8707 31.5292 27.4023 34.5635 27.4023C37.5978 27.4023 40.0661 29.8707 40.0661 32.905C40.0661 35.9392 37.5978 38.4079 34.5635 38.4079Z" fill="#A8D32A"/>
<path d="M43.2861 40.4805H19.4764L18.2861 41.7805L19.4764 42.4805H43.2861V40.4805Z" fill="#222222"/>
<path d="M0 40.4805H19.1826V42.4805H0V40.4805Z" fill="#555555"/>
</svg>
