<svg width="63" height="62" viewBox="0 0 63 62" fill="none" xmlns="http://www.w3.org/2000/svg">
<g clip-path="url(#clip0)">
<path d="M32.1426 46.9L33.2426 37.7L54.5426 10.6L62.0426 16.5L40.7426 43.5L32.1426 46.9Z" fill="#1AB248"/>
<path d="M59.7428 16.4C59.7428 16.2 59.6428 16 59.4428 15.9L51.9428 10C51.6428 9.7 51.1428 9.8 50.8428 10.1L29.6428 37.2C29.5428 37.3 29.5428 37.4 29.4428 37.6L28.3428 46.8C28.3428 47.1 28.4428 47.3 28.6428 47.5C28.7428 47.6 28.9428 47.7 29.1428 47.7C29.2428 47.7 29.3428 47.7 29.4428 47.6L38.0428 44.3C38.1428 44.3 38.2428 44.2 38.3428 44.1L45.2428 35.3V59.6H1.84277V1.5L45.1428 1.6V10.1C45.1428 10.5 45.4428 10.9 45.9428 10.9C46.3428 10.9 46.7428 10.6 46.7428 10.1V0.9C46.7428 0.8 46.7428 0.8 46.7428 0.8V0.7L46.6428 0.6C46.6428 0.6 46.6428 0.5 46.5428 0.5L46.4428 0.4L46.3428 0.3H46.2428H46.1428L1.14277 0C0.942773 0 0.742773 0.1 0.642773 0.2C0.442773 0.4 0.342773 0.6 0.342773 0.8V60.3C0.342773 60.6 0.542773 60.9 0.942773 61C1.04277 61 1.14277 61.1 1.24277 61.1H46.0428C46.4428 61.1 46.8428 60.8 46.8428 60.3V33.3L59.7428 16.9C59.7428 16.8 59.7428 16.6 59.7428 16.4ZM38.2428 41.7L34.0428 38.4C33.7428 38.1 33.2428 38.2 32.9428 38.5C32.6428 38.8 32.7428 39.3 33.0428 39.6L37.2428 42.9L29.9428 45.7L30.9428 37.9L48.0428 16.1L52.6428 19.7C52.7428 19.8 52.9428 19.9 53.1428 19.9C53.3428 19.9 53.5428 19.8 53.7428 19.6C54.0428 19.3 53.9428 18.8 53.6428 18.5L48.9428 15L51.5428 11.6L57.8428 16.6L38.2428 41.7Z" fill="#13182B"/>
<path d="M39.243 10.1C39.243 9.7 38.943 9.3 38.443 9.3H8.34297C7.94297 9.3 7.54297 9.6 7.54297 10.1C7.54297 10.5 7.84297 10.9 8.34297 10.9H38.543C38.943 10.9 39.243 10.5 39.243 10.1Z" fill="#13182B"/>
<path d="M34.543 18.2C34.543 17.8 34.243 17.4 33.743 17.4H8.34297C7.94297 17.4 7.54297 17.7 7.54297 18.2C7.64297 18.7 7.94297 19 8.34297 19H33.843C34.243 19 34.543 18.7 34.543 18.2Z" fill="#13182B"/>
<path d="M29.843 26.4C29.843 26 29.543 25.6 29.043 25.6H8.34297C7.94297 25.6 7.54297 25.9 7.54297 26.4C7.54297 26.8 7.84297 27.2 8.34297 27.2H29.043C29.543 27.1 29.843 26.8 29.843 26.4Z" fill="#13182B"/>
<path d="M24.443 33.7H8.34297C7.94297 33.7 7.54297 34 7.54297 34.5C7.54297 34.9 7.84297 35.3 8.34297 35.3H24.343C24.743 35.3 25.143 35 25.143 34.5C25.143 34.1 24.843 33.7 24.443 33.7Z" fill="#13182B"/>
<path d="M8.34297 43.4H20.843C21.243 43.4 21.643 43.1 21.643 42.6C21.643 42.2 21.343 41.8 20.843 41.8H8.34297C7.94297 41.8 7.54297 42.1 7.54297 42.6C7.64297 43 7.94297 43.4 8.34297 43.4Z" fill="#13182B"/>
<path d="M8.34297 51.5H24.343C24.743 51.5 25.143 51.2 25.143 50.7C25.143 50.3 24.843 49.9 24.343 49.9H8.34297C7.94297 49.9 7.54297 50.2 7.54297 50.7C7.64297 51.1 7.94297 51.5 8.34297 51.5Z" fill="#13182B"/>
</g>
<defs>
<clipPath id="clip0">
<rect width="61.7" height="61.1" fill="white" transform="translate(0.342773)"/>
</clipPath>
</defs>
</svg>
