<svg width="73" height="68" viewBox="0 0 73 68" fill="none" xmlns="http://www.w3.org/2000/svg">
<g clip-path="url(#clip0)">
<path d="M37.6002 17.3V0.700012H40.5002V19.7H46.0002L39.1002 31.7L32.2002 19.7H37.6002V17.3Z" fill="#1AB248"/>
<path d="M36.1004 32.4C35.8004 32.4 35.6004 32.3 35.5004 32L28.6004 20C28.5004 19.8 28.5004 19.5 28.6004 19.2C28.7004 19 29.0004 18.8 29.2004 18.8H34.7004C35.1004 18.8 35.5004 19.1 35.5004 19.6C35.5004 20 35.2004 20.4 34.7004 20.4H30.5004L36.1004 30.1L41.7004 20.4H37.5004C37.1004 20.4 36.7004 20.1 36.7004 19.6C36.7004 19.2 37.0004 18.8 37.5004 18.8H43.0004C43.3004 18.8 43.5004 18.9 43.6004 19.2C43.7004 19.4 43.7004 19.7 43.6004 20L36.7004 32C36.6004 32.3 36.4004 32.4 36.1004 32.4Z" fill="#13182B"/>
<path d="M37.5002 20.4C37.1002 20.4 36.7002 20.1 36.7002 19.6V1.5H35.3002V17.3C35.3002 17.7 35.0002 18.1 34.5002 18.1C34.1002 18.1 33.7002 17.8 33.7002 17.3V0.8C33.7002 0.4 34.0002 0 34.5002 0H37.4002C37.8002 0 38.2002 0.3 38.2002 0.8V19.7C38.3002 20.1 38.0002 20.4 37.5002 20.4Z" fill="#13182B"/>
<path d="M36.0997 36.8C35.9997 36.8 35.8997 36.8 35.8997 36.8L7.5997 27.5C7.1997 27.4 6.9997 26.9 7.0997 26.6C7.1997 26.2 7.5997 26 7.9997 26.1L35.9997 35.3L63.9997 26.1C64.3997 26 64.7997 26.2 64.8997 26.6C64.9997 27 64.7997 27.4 64.3997 27.5L36.1997 36.8C36.1997 36.8 36.1997 36.8 36.0997 36.8Z" fill="#13182B"/>
<path d="M7.89984 27.5C7.59984 27.5 7.29984 27.3 7.19984 27C7.09984 26.6 7.29984 26.2 7.59984 26L25.4998 19.5C25.8998 19.4 26.2998 19.6 26.4998 19.9C26.5998 20.3 26.3998 20.7 26.0998 20.9L8.09984 27.5C7.99984 27.5 7.89984 27.5 7.89984 27.5Z" fill="#13182B"/>
<path d="M64.3003 27.5C64.2003 27.5 64.1003 27.5 64.1003 27.5L46.2003 21.3C45.8003 21.2 45.6003 20.7 45.7003 20.3C45.8003 19.9 46.3003 19.7 46.7003 19.8L64.6003 26C65.0003 26.1 65.2003 26.6 65.1003 27C64.9003 27.3 64.6003 27.5 64.3003 27.5Z" fill="#13182B"/>
<path d="M36.0997 67.1C35.9997 67.1 35.8997 67.1 35.8997 67.1L7.5997 58C7.1997 57.9 6.9997 57.5 7.0997 57.1C7.1997 56.7 7.5997 56.5 7.9997 56.6L35.9997 65.6L63.9997 56.6C64.3997 56.5 64.7997 56.7 64.8997 57.1C64.9997 57.5 64.7997 57.9 64.3997 58L36.1997 67C36.1997 67.1 36.1997 67.1 36.0997 67.1Z" fill="#13182B"/>
<path d="M7.89961 58C7.49961 58 7.09961 57.7 7.09961 57.2V39.7C7.09961 39.3 7.39961 38.9 7.89961 38.9C8.29961 38.9 8.69961 39.2 8.69961 39.7V57.2C8.59961 57.7 8.29961 58 7.89961 58Z" fill="#13182B"/>
<path d="M64.3 58C63.9 58 63.5 57.7 63.5 57.2V36C63.5 35.6 63.8 35.2 64.3 35.2C64.8 35.2 65.1 35.5 65.1 36V57.3C65.1 57.7 64.7 58 64.3 58Z" fill="#13182B"/>
<path d="M36.0998 67.1C35.6998 67.1 35.2998 66.8 35.2998 66.3V36C35.2998 35.6 35.5998 35.2 36.0998 35.2C36.4998 35.2 36.8998 35.5 36.8998 36V66.3C36.7998 66.7 36.4998 67.1 36.0998 67.1Z" fill="#13182B"/>
<path d="M0.899805 34.1C0.699805 34.1 0.499805 34 0.399805 33.9C0.0998047 33.6 0.0998047 33.1 0.399805 32.8L7.3998 26.2C7.6998 25.9 8.1998 25.9 8.4998 26.2C8.7998 26.5 8.7998 27 8.4998 27.3L1.4998 33.9C1.1998 34 0.999805 34.1 0.899805 34.1Z" fill="#13182B"/>
<path d="M28.8998 43.9C28.6998 43.9 28.4998 43.8 28.3998 43.7C28.0998 43.4 28.0998 42.9 28.3998 42.6L35.5998 35.4C35.8998 35.1 36.3998 35.1 36.6998 35.4C36.9998 35.7 36.9998 36.2 36.6998 36.5L29.4998 43.7C29.1998 43.9 28.9998 43.9 28.8998 43.9Z" fill="#13182B"/>
<path d="M28.9001 43.9C28.8001 43.9 28.7001 43.9 28.7001 43.9L0.500093 34.2C0.100093 34.1 -0.0999072 33.6 9.27746e-05 33.2C0.100093 32.8 0.600093 32.6 1.00009 32.7L29.1001 42.4C29.5001 42.5 29.7001 43 29.6001 43.4C29.5001 43.8 29.2001 43.9 28.9001 43.9Z" fill="#13182B"/>
<path d="M71.3002 34.1C71.1002 34.1 70.9002 34 70.8002 33.9L63.8002 27.3C63.5002 27 63.5002 26.5 63.8002 26.2C64.1002 25.9 64.6002 25.9 64.9002 26.2L71.9002 32.8C72.2002 33.1 72.2002 33.6 71.9002 33.9C71.7002 34 71.5002 34.1 71.3002 34.1Z" fill="#13182B"/>
<path d="M43.3 43.9C43.1 43.9 42.9 43.8 42.8 43.7L35.6 36.5C35.3 36.2 35.3 35.7 35.6 35.4C35.9 35.1 36.4 35.1 36.7 35.4L43.9 42.6C44.2 42.9 44.2 43.4 43.9 43.7C43.7 43.9 43.5 43.9 43.3 43.9Z" fill="#13182B"/>
<path d="M43.2997 43.9C42.9997 43.9 42.6997 43.7 42.5997 43.4C42.4997 43 42.6997 42.6 43.0997 42.4L71.1997 32.7C71.5997 32.6 71.9997 32.8 72.1997 33.2C72.2997 33.6 72.0997 34 71.6997 34.2L43.5997 43.9C43.4997 43.9 43.3997 43.9 43.2997 43.9Z" fill="#13182B"/>
</g>
<defs>
<clipPath id="clip0">
<rect width="72.2" height="67.1" fill="white"/>
</clipPath>
</defs>
</svg>
