<svg width="53" height="79" viewBox="0 0 53 79" fill="none" xmlns="http://www.w3.org/2000/svg">
<path d="M4.14258 65.7V69.7C4.14258 74.1 7.74258 77.7 12.1426 77.7H37.5426C41.9426 77.7 45.5426 74.1 45.5426 69.7V65.7H4.14258ZM24.7426 75.1C22.9426 75.1 21.4426 73.6 21.4426 71.8C21.4426 70 22.9426 68.5 24.7426 68.5C26.5426 68.5 28.0426 70 28.0426 71.8C28.1426 73.6 26.6426 75.1 24.7426 75.1Z" fill="#1AB248"/>
<path d="M34.8428 11H8.74277C4.04277 11 0.342773 14.7 0.342773 19.4V70C0.342773 74.6 4.04277 78.4 8.74277 78.4H34.9428C39.5428 78.4 43.3428 74.7 43.3428 70V19.4C43.2428 14.7 39.4428 11 34.8428 11ZM34.8428 76.8H8.74277C4.94277 76.8 1.84277 73.7 1.84277 69.9V19.4C1.84277 15.6 4.94277 12.5 8.74277 12.5H34.9428C38.7428 12.5 41.8428 15.6 41.8428 19.4V64.8H6.34277C5.94277 64.8 5.54277 65.1 5.54277 65.6C5.54277 66 5.84277 66.4 6.34277 66.4H41.7428V70C41.7428 73.8 38.6428 76.8 34.8428 76.8Z" fill="#13182B"/>
<path d="M21.7426 68.6C20.0426 68.6 18.6426 70 18.6426 71.7C18.6426 73.4 20.0426 74.8 21.7426 74.8C23.4426 74.8 24.8426 73.4 24.8426 71.7C24.9426 70 23.5426 68.6 21.7426 68.6ZM21.7426 73.4C20.8426 73.4 20.1426 72.7 20.1426 71.8C20.1426 70.9 20.8426 70.2 21.7426 70.2C22.6426 70.2 23.3426 70.9 23.3426 71.8C23.4426 72.6 22.7426 73.4 21.7426 73.4Z" fill="#13182B"/>
<path d="M29.3428 15H14.3428C13.7905 15 13.3428 15.4477 13.3428 16C13.3428 16.5523 13.7905 17 14.3428 17H29.3428C29.8951 17 30.3428 16.5523 30.3428 16C30.3428 15.4477 29.8951 15 29.3428 15Z" fill="#13182B"/>
<path d="M32.2223 29H10.5054C8.77651 29 7.34277 30.4212 7.34277 32.135V54.7074C7.34277 54.8328 7.42711 54.9582 7.55362 55C7.59579 55 7.63795 55 7.68012 55C7.76446 55 7.8488 54.9582 7.93313 54.8746L13.4994 48.4373C13.9211 47.9357 14.5536 47.6849 15.1861 47.6849H32.1801C33.9512 47.6849 35.3849 46.2637 35.3849 44.508V32.135C35.3428 30.4212 33.9512 29 32.2223 29ZM34.7102 44.5498C34.7102 45.9711 33.5717 47.0997 32.138 47.0997H15.144C14.3006 47.0997 13.5416 47.4759 12.9934 48.1029L7.9753 53.8714V32.135C7.9753 30.7556 9.11386 29.627 10.5054 29.627H32.2223C33.6139 29.627 34.7524 30.7556 34.7524 32.135V44.5498H34.7102Z" fill="#13182B" stroke="black" stroke-width="0.8"/>
<path d="M28.6803 34.3087H14.6381C14.4695 34.3087 14.3008 34.4341 14.3008 34.6432C14.3008 34.8104 14.4273 34.9776 14.6381 34.9776H28.6803C28.849 34.9776 29.0176 34.8522 29.0176 34.6432C29.0176 34.4759 28.849 34.3087 28.6803 34.3087Z" fill="#13182B" stroke="black"/>
<path d="M28.6803 38.1125H14.6381C14.4695 38.1125 14.3008 38.2379 14.3008 38.4469C14.3008 38.6141 14.4273 38.7813 14.6381 38.7813H28.6803C28.849 38.7813 29.0176 38.6559 29.0176 38.4469C29.0176 38.2379 28.849 38.1125 28.6803 38.1125Z" fill="#13182B" stroke="black"/>
<path d="M19.1923 41.9164H14.6381C14.4695 41.9164 14.3008 42.0418 14.3008 42.2508C14.3008 42.418 14.4273 42.5434 14.6381 42.5434H19.1923C19.361 42.5434 19.5297 42.418 19.5297 42.2508C19.5297 42.0418 19.361 41.9164 19.1923 41.9164Z" fill="#13182B" stroke="black"/>
<path d="M35.8103 1.85193L36.3942 6.36856C36.4159 6.53584 36.5619 6.68705 36.7691 6.66025C36.935 6.63881 37.0431 6.49727 37.0161 6.28817L36.4322 1.77154C36.4106 1.60426 36.2646 1.45305 36.0987 1.47449C35.8915 1.50129 35.7887 1.68465 35.8103 1.85193Z" fill="#13182B" stroke="black"/>
<path d="M51.9726 11.944L47.4648 12.5926C47.2978 12.6166 47.1487 12.7647 47.1785 12.9716C47.2023 13.1371 47.3454 13.2432 47.5541 13.2132L52.0619 12.5647C52.2288 12.5406 52.3779 12.3925 52.3541 12.227C52.3243 12.0201 52.1395 11.92 51.9726 11.944Z" fill="#13182B" stroke="black"/>
<path d="M47.9292 1.32037L42.738 7.9482C42.6756 8.02781 42.712 8.18475 42.8765 8.31362C43.0082 8.41672 43.1866 8.46011 43.2645 8.36059L48.4557 1.73277C48.518 1.65316 48.4817 1.49622 48.3171 1.36735C48.1526 1.23847 47.9915 1.24076 47.9292 1.32037Z" fill="#13182B" stroke="black"/>
</svg>
