<svg width="61" height="63" viewBox="0 0 61 63" fill="none" xmlns="http://www.w3.org/2000/svg">
<path d="M44.1429 32.3H22.4429V46.4H44.1429V32.3Z" fill="#1AB248"/>
<path d="M33.4427 47.3H11.7427V61.4H33.4427V47.3Z" fill="#1AB248"/>
<path d="M55.0428 47.3H33.3428V61.4H55.0428V47.3Z" fill="#1AB248"/>
<path d="M59.9428 7.6L30.9428 0C30.8428 0 30.6428 0 30.5428 0L0.942773 7.6C0.542773 7.6 0.342773 7.9 0.342773 8.3V61.7C0.342773 62.1 0.642773 62.5 1.14277 62.5H8.94277C9.34277 62.5 9.74277 62.2 9.74277 61.7V47.7H19.5428H29.6428V60.9H14.6428C14.2428 60.9 13.8428 61.2 13.8428 61.7C13.8428 62.1 14.1428 62.5 14.6428 62.5H30.3428C30.7428 62.5 31.1428 62.2 31.1428 61.7V47.7H41.2428H51.3428V60.9H36.3428C35.9428 60.9 35.5428 61.2 35.5428 61.7C35.5428 62.1 35.8428 62.5 36.3428 62.5H51.9428H59.7428C60.1428 62.5 60.5428 62.2 60.5428 61.7V8.3C60.5428 7.9 60.3428 7.6 59.9428 7.6ZM30.3428 46.2H20.2428V33H40.4428V46.2H30.3428ZM41.9428 46.2V32.3C41.9428 31.9 41.6428 31.6 41.1428 31.6H19.4428C19.0428 31.6 18.6428 31.9 18.6428 32.3V46.2H9.64277V19.3H51.2428V46.2H41.9428ZM59.0428 60.9H52.7428V47V18.5C52.7428 18.1 52.4428 17.7 51.9428 17.7H8.84277C8.44277 17.7 8.04277 18 8.04277 18.5V60.9H1.84277V8.9L30.7428 1.6L59.0428 8.9V60.9Z" fill="#13182B"/>
</svg>
