<svg width="63" height="52" viewBox="0 0 63 52" fill="none" xmlns="http://www.w3.org/2000/svg">
<g clip-path="url(#clip0)">
<path d="M46.7996 29H15.0996V40.4H46.7996V29Z" fill="#1AB248"/>
<path d="M15.0998 28.8C14.6998 28.8 14.2998 29.1 14.2998 29.6V40.4C14.2998 40.8 14.5998 41.2 15.0998 41.2C15.4998 41.2 15.8998 40.9 15.8998 40.4V29.6C15.8998 29.2 15.4998 28.8 15.0998 28.8Z" fill="#13182B"/>
<path d="M19.5996 29.6V44C19.5996 44.4 19.8996 44.8 20.3996 44.8C20.7996 44.8 21.1996 44.5 21.1996 44V29.6C21.1996 29.2 20.8996 28.8 20.3996 28.8C19.9996 28.8 19.5996 29.2 19.5996 29.6Z" fill="#13182B"/>
<path d="M25.7004 28.8C25.3004 28.8 24.9004 29.1 24.9004 29.6V40.4C24.9004 40.8 25.2004 41.2 25.7004 41.2C26.1004 41.2 26.5004 40.9 26.5004 40.4V29.6C26.4004 29.2 26.1004 28.8 25.7004 28.8Z" fill="#13182B"/>
<path d="M31.6996 44V29.6C31.6996 29.2 31.3996 28.8 30.8996 28.8C30.4996 28.8 30.0996 29.1 30.0996 29.6V44C30.0996 44.4 30.3996 44.8 30.8996 44.8C31.3996 44.7 31.6996 44.4 31.6996 44Z" fill="#13182B"/>
<path d="M35.5 29.6V40.4C35.5 40.8 35.8 41.2 36.3 41.2C36.7 41.2 37.1 40.9 37.1 40.4V29.6C37.1 29.2 36.8 28.8 36.3 28.8C35.8 28.8 35.5 29.2 35.5 29.6Z" fill="#13182B"/>
<path d="M42.3002 44V29.6C42.3002 29.2 42.0002 28.8 41.5002 28.8C41.1002 28.8 40.7002 29.1 40.7002 29.6V44C40.7002 44.4 41.0002 44.8 41.5002 44.8C41.9002 44.7 42.3002 44.4 42.3002 44Z" fill="#13182B"/>
<path d="M46.0996 29.6V40.4C46.0996 40.8 46.3996 41.2 46.8996 41.2C47.2996 41.2 47.6996 40.9 47.6996 40.4V29.6C47.6996 29.2 47.3996 28.8 46.8996 28.8C46.3996 28.8 46.0996 29.2 46.0996 29.6Z" fill="#13182B"/>
<path d="M62 0H0.8C0.3 0 0 0.3 0 0.8V47.5C0 47.9 0.3 48.3 0.8 48.3C1.3 48.3 1.6 48 1.6 47.5V1.5H61.3V49.9H3.6C3.2 49.9 2.9 50.2 2.9 50.7C2.9 51.2 3.2 51.5 3.6 51.5H61.7H61.8H61.9C62.3 51.5 62.7 51.2 62.7 50.7V0.8C62.7 0.3 62.4 0 62 0Z" fill="#13182B"/>
<path d="M21.9812 21.05H21.9312H20.7632H20.7132V21V11.7578V11.7078H20.7632H23.353C24.267 11.7078 24.9674 11.9471 25.4453 12.4336C25.923 12.9158 26.1579 13.6202 26.1579 14.5381C26.1579 15.117 26.0292 15.6254 25.77 16.0617C25.77 16.0617 25.77 16.0617 25.77 16.0617L25.7271 16.0361C25.4774 16.4593 25.1219 16.7788 24.6606 16.9946L21.9812 21.05ZM21.9812 21.05V21V17.3112H23.5235L25.1544 21.0201L25.1676 21.05H25.2002H26.4507H26.5007V21V20.9238V20.913L26.4962 20.9031L24.7265 17.0185L21.9812 21.05ZM19.3984 12.8107H19.4484V12.7607V11.7578V11.7078H19.3984H13.3809H13.3309V11.7578V12.7607V12.8107H13.3809H15.7557V21V21.05H15.8057H16.9673H17.0173V21V12.8107H19.3984ZM24.4654 15.7608L24.4651 15.7611C24.1883 16.0624 23.8152 16.2146 23.3403 16.2146H21.9812V12.8107H23.3276C23.856 12.8107 24.2435 12.9561 24.4998 13.2387C24.757 13.5221 24.8899 13.9522 24.8899 14.5381C24.8899 15.0532 24.7469 15.4589 24.4654 15.7608ZM28.1392 21.05H28.1765L28.1871 21.0143L28.8937 18.6379H31.9424L32.6616 21.0145L32.6724 21.05H32.7095H33.9028H33.9715L33.9504 20.9846L30.967 11.7425L30.9558 11.7078H30.9194H29.9229H29.8864L29.8753 11.7425L26.8982 20.9847L26.8772 21.05H26.9458H28.1392ZM40.9288 18.0699L40.9315 18.0174H40.8789H39.7046H39.6585L39.6548 18.0633C39.5915 18.8398 39.4273 19.3652 39.1721 19.6528C38.9189 19.9382 38.5 20.0867 37.9019 20.0867C37.3134 20.0867 36.8683 19.8455 36.5604 19.3611C36.2544 18.8731 36.0983 18.1666 36.0983 17.2358V15.541C36.0983 14.5935 36.267 13.8838 36.5973 13.4049L36.5974 13.4047C36.9261 12.924 37.3947 12.6838 38.0098 12.6838C38.5457 12.6838 38.9357 12.8413 39.19 13.1481C39.4464 13.4574 39.6041 13.9817 39.6547 14.7319L39.6578 14.7785H39.7046H40.8789H40.9311L40.9289 14.7264C40.8862 13.7246 40.6174 12.948 40.1161 12.4033C39.6178 11.8532 38.9132 11.5809 38.0098 11.5809C37.027 11.5809 36.2461 11.9358 35.673 12.6468L35.6729 12.647C35.1051 13.3567 34.824 14.319 34.824 15.5283V17.2041C34.824 18.4174 35.0986 19.3857 35.6533 20.1038L35.6534 20.1039C36.2092 20.8192 36.9604 21.177 37.9019 21.177C38.834 21.177 39.5616 20.9116 40.0769 20.3746C40.5958 19.8385 40.8777 19.0679 40.9288 18.0699ZM43.6711 16.071V11.7578V11.7078H43.6211H42.4595H42.4095V11.7578V21V21.05H42.4595H43.6211H43.6711V21V17.8569L44.5225 16.8268L47.0696 21.0259L47.0842 21.05H47.1123H48.5024H48.5927L48.5448 20.9735L45.3256 15.829L48.3078 11.7875L48.3666 11.7078H48.2676H46.8711H46.8455L46.8305 11.7286L44.3429 15.1808L44.3422 15.1817L43.6711 16.071ZM30.4181 13.5569L31.6139 17.535H29.2283L30.4181 13.5569Z" fill="#13182B" stroke="#13182B" stroke-width="0.1"/>
</g>
<defs>
<clipPath id="clip0">
<rect width="62.7" height="51.4" fill="white"/>
</clipPath>
</defs>
</svg>
