<svg width="23" height="24" viewBox="0 0 23 24" fill="none" xmlns="http://www.w3.org/2000/svg">
<path d="M1.14995 10.6967C1.22265 10.2498 1.65101 9.94531 2.10669 10.0166C2.56237 10.0879 2.8728 10.5081 2.8001 10.955C2.79932 10.9599 2.79848 10.9647 2.7976 10.9696C1.94675 15.8821 5.31735 20.5409 10.326 21.3754C15.3347 22.2099 20.0848 18.9041 20.9357 13.9916C21.7865 9.07907 18.4159 4.42023 13.4072 3.58572C10.327 3.07254 7.19171 4.12782 5.08187 6.38795L8.78316 7.59746C9.22102 7.74035 9.45782 8.20428 9.31217 8.63373C9.31212 8.63382 9.31208 8.63397 9.31203 8.63406C9.16633 9.06351 8.69333 9.29576 8.25547 9.15292C8.25532 9.15287 8.25522 9.15282 8.25512 9.15282L3.24207 7.51391C2.90075 7.40242 2.67051 7.08912 2.67056 6.73625V1.81948C2.67056 1.36689 3.04463 1 3.50609 1C3.96754 1 4.34161 1.36689 4.34161 1.81948V4.81295C8.64442 0.799056 15.4502 0.966293 19.5427 5.18646C23.6352 9.40663 23.4647 16.0817 19.1618 20.0956C14.859 24.1096 8.05328 23.9423 3.96074 19.7221C1.62707 17.3156 0.585592 13.9715 1.14995 10.6967Z" fill="#1AB248" stroke="#1AB248" stroke-width="0.2"/>
</svg>
