<svg width="459" height="126" viewBox="0 0 459 126" fill="none" xmlns="http://www.w3.org/2000/svg">
<mask id="mask0" mask-type="alpha" maskUnits="userSpaceOnUse" x="0" y="0" width="459" height="126">
<rect width="459" height="126" transform="matrix(-1 0 0 1 459 0)" fill="#C4C4C4"/>
</mask>
<g mask="url(#mask0)">
<path fill-rule="evenodd" clip-rule="evenodd" d="M509.146 169.846L492.452 167.606C475.443 165.324 442.056 160.844 410.016 143.928C377.977 127.012 348.003 97.0923 312.55 105.615C277.184 113.486 237.057 159.232 205.105 141.664C173.065 124.748 149.744 45.2548 119.367 15.9454C89.0786 -14.0162 52.2774 6.94257 16.9118 14.8134C-18.4539 22.6843 -51.8414 18.204 -68.8502 15.9216L-85.544 13.6814L-110.753 201.539L-94.0588 203.78C-77.0501 206.062 -43.6625 210.542 -9.95998 215.065C23.7426 219.587 57.1301 224.068 90.8327 228.59C124.535 233.113 157.923 237.593 191.625 242.115C225.328 246.638 258.715 251.118 292.418 255.641C326.12 260.163 359.508 264.644 393.211 269.166C426.913 273.689 460.301 278.169 477.309 280.451L494.003 282.692L509.146 169.846Z" fill="#2ACC5B"/>
<path fill-rule="evenodd" clip-rule="evenodd" d="M512.021 129.913H495.155C477.971 129.913 444.239 129.913 410.188 117.383C376.138 104.853 342.405 79.1338 308.355 92.3231C274.304 104.853 240.572 155.632 206.521 142.442C172.471 129.913 138.739 54.0742 104.688 29.0145C70.6376 3.29537 36.9053 29.0145 2.85483 41.5443C-31.1957 54.0742 -64.928 54.0742 -82.1124 54.0742H-98.9785V244H-82.1124C-64.928 244 -31.1957 244 2.85483 244C36.9053 244 70.6376 244 104.688 244C138.739 244 172.471 244 206.521 244C240.572 244 274.304 244 308.355 244C342.405 244 376.138 244 410.188 244C444.239 244 477.971 244 495.155 244H512.021V129.913Z" fill="#1AB248"/>
</g>
</svg>
