<svg width="170" height="976" viewBox="0 0 170 976" fill="none" xmlns="http://www.w3.org/2000/svg">
<mask id="mask0" mask-type="alpha" maskUnits="userSpaceOnUse" x="0" y="0" width="170" height="976">
<rect width="170" height="976" transform="matrix(-1 0 0 1 170 0)" fill="#C4C4C4"/>
</mask>
<g mask="url(#mask0)">
<path fill-rule="evenodd" clip-rule="evenodd" d="M0.581181 969.086L30.4545 952.359C60.3278 935.632 120.074 902.179 116.633 862.874C113.191 823.57 46.5607 778.415 29.077 737.81C11.5934 697.205 43.2562 661.152 81.9401 625.748C120.624 590.344 166.329 555.59 169.908 516.936C173.487 478.282 134.94 435.727 117.457 395.122C99.9732 354.518 103.552 315.863 114.152 277.859C124.752 239.855 142.374 202.501 131.911 162.546C121.448 122.592 82.9016 80.037 37.3342 36.832C-8.23316 -6.37295 -60.8215 -50.2281 -71.2842 -90.1825C-81.7469 -130.137 -50.084 -166.191 -34.2526 -184.218L-18.4212 -202.245L-102.672 -210.046L-104.462 -190.719C-106.252 -171.392 -109.831 -132.737 -113.41 -94.0831C-116.989 -55.4288 -120.568 -16.7745 -124.147 21.8798C-127.726 60.5341 -131.306 99.1884 -134.885 137.843C-138.464 176.497 -142.043 215.151 -145.622 253.806C-149.201 292.46 -152.78 331.114 -156.36 369.768C-159.939 408.423 -163.518 447.077 -167.097 485.731C-170.676 524.386 -174.255 563.04 -177.835 601.694C-181.414 640.348 -184.993 679.003 -188.572 717.657C-192.151 756.311 -195.73 794.966 -199.309 833.62C-202.889 872.274 -206.468 910.928 -208.257 930.256L-210.047 949.583L0.581181 969.086Z" fill="#1AB248"/>
</g>
</svg>
