<svg width="50" height="72" viewBox="0 0 50 72" fill="none" xmlns="http://www.w3.org/2000/svg">
<path d="M25 61.4217C38.8071 61.4217 50 49.949 50 35.7968C50 21.6445 38.8071 10.1718 25 10.1718C11.1929 10.1718 0 21.6445 0 35.7968C0 49.949 11.1929 61.4217 25 61.4217Z" fill="#EBEDF0"/>
<path d="M21.0227 25.3137C27.6125 25.3137 32.9546 19.8381 32.9546 13.0836C32.9546 6.32912 27.6125 0.853516 21.0227 0.853516C14.433 0.853516 9.09093 6.32912 9.09093 13.0836C9.09093 19.8381 14.433 25.3137 21.0227 25.3137Z" fill="#1AB248"/>
<path d="M17.0568 46.8155V22.2155V11.8024C17.0568 9.61262 19.0227 7.84216 21.1477 7.84216C23.2841 7.84216 25 9.61262 25 11.8024V22.2038V33.1527C27.4091 30.0893 31.9432 32.2674 32.2045 33.9447C34.25 31.8365 38.2045 32.8615 39.3977 34.7368C43.7045 32.0694 46.5909 34.9231 46.5909 37.9049V58.1021C46.5909 59.3834 46.3409 60.653 45.8409 61.841C45.8409 61.841 45.8409 61.8527 45.8295 61.8643C43.6136 67.2456 38.4659 70.7399 32.7727 70.7399H26.2273C21.4886 70.7399 17.1136 68.189 14.7045 64.0075C12.4545 60.1172 11.2614 56.0405 9.57954 50.5544C7.36363 43.3444 3.40909 38.3941 3.40909 36.3209C3.40909 35.1328 3.98863 33.1527 6.59091 33.1527C9.53409 33.1527 11.3636 35.3774 17.0568 46.8155Z" fill="white"/>
<path d="M17.0567 46.8154L17.0454 48.6092" stroke="#13182B" stroke-width="1.5" stroke-miterlimit="10" stroke-linecap="round" stroke-linejoin="round"/>
<path d="M17.0568 46.8155C11.3636 35.3774 9.53409 33.1527 6.59091 33.1527C3.98863 33.1527 3.40909 35.1328 3.40909 36.3209C3.40909 38.3942 7.36363 43.3444 9.57954 50.5544C11.2614 56.0405 12.4545 60.1172 14.7045 64.0075C17.1136 68.189 21.4886 70.7399 26.2273 70.7399H32.7727C38.4659 70.7399 43.6136 67.2456 45.8295 61.8643C45.8409 61.8527 45.8409 61.841 45.8409 61.841C46.3409 60.653 46.5909 59.3834 46.5909 58.1021V37.9049C46.5909 34.9231 43.7045 32.0694 39.3977 34.7368C38.2045 32.8615 34.25 31.8365 32.2045 33.9447C31.9432 32.2674 27.4091 30.0893 25 33.1527V22.2038V11.8024C25 9.61262 23.2841 7.84216 21.1477 7.84216C19.0227 7.84216 17.0568 9.61262 17.0568 11.8024V22.2155V46.8155V46.8155Z" stroke="#13182B" stroke-width="1.5" stroke-miterlimit="10" stroke-linecap="round" stroke-linejoin="round"/>
<path d="M12.5001 21.6447C10.3865 19.4433 9.091 16.4149 9.091 13.0836C9.091 6.32795 14.4319 0.853516 21.0228 0.853516C27.6137 0.853516 32.9546 6.32795 32.9546 13.0836C32.9546 16.4149 31.6592 19.4433 29.5455 21.6447" stroke="#13182B" stroke-width="1.5" stroke-miterlimit="10" stroke-linecap="round" stroke-linejoin="round"/>
</svg>
