<svg width="72" height="72" viewBox="0 0 72 72" fill="none" xmlns="http://www.w3.org/2000/svg">
<path d="M29 48.2966C30.715 47.9 32.71 47.6666 34.8333 47.6666C41.2733 47.6666 46.5 49.755 46.5 52.3333C46.5 54.9116 41.2733 57 34.8333 57C28.3933 57 23.1667 54.9116 23.1667 52.3333C23.1667 51.61 23.5867 50.9216 24.3333 50.3149V50.3033C25.3483 49.4633 26.9817 48.7633 29 48.2966Z" fill="white"/>
<path d="M12.6667 46.5C19.11 46.5 24.3333 44.4106 24.3333 41.8333C24.3333 39.256 19.11 37.1666 12.6667 37.1666C6.22334 37.1666 1 39.256 1 41.8333C1 44.4106 6.22334 46.5 12.6667 46.5Z" fill="white"/>
<path d="M71 22V59.3333C71 60.6167 69.95 61.6667 68.6667 61.6667H52.3333H46.5V59.3333V52.3333C46.5 49.755 41.2733 47.6667 34.8333 47.6667C32.71 47.6667 30.715 47.9 29 48.2967V41.8333V3.33333C29 2.05 30.05 1 31.3333 1H55.8333V13.8333C55.8333 15.1167 56.8833 16.1667 58.1667 16.1667H71V22Z" fill="white"/>
<path d="M46.5 52.3334V59.3334C46.5 61.9117 41.2733 64 34.8333 64C28.3933 64 23.1667 61.9117 23.1667 59.3334V52.3334C23.1667 54.9117 28.3933 57 34.8333 57C41.2733 57 46.5 54.9117 46.5 52.3334Z" fill="#1AB248"/>
<path d="M34.8333 64C41.2733 64 46.5 61.9117 46.5 59.3334V61.6667V66.3334C46.5 68.9117 41.2733 71 34.8333 71C28.3933 71 23.1667 68.9117 23.1667 66.3334V65.26V59.3334C23.1667 61.9117 28.3933 64 34.8333 64Z" fill="#1AB248"/>
<path d="M1 62.8334V55.8334V48.8334V41.8334C1 44.4117 6.22667 46.5 12.6667 46.5C19.1067 46.5 24.3333 44.4117 24.3333 41.8334V45.3334V50.3034V50.315C23.5867 50.9217 23.1667 51.61 23.1667 52.3334V59.3334V65.26C21.8017 66.2634 18.5 66.87 18.5 66.87C16.785 67.2784 14.79 67.5 12.6667 67.5C6.22667 67.5 1 65.4117 1 62.8334Z" fill="#1AB248"/>
<path d="M71 16.1667H58.1667C56.8833 16.1667 55.8333 15.1167 55.8333 13.8333V1L71 16.1667Z" fill="#1AB248"/>
<path d="M24.3333 50.3149C23.5867 50.9216 23.1667 51.61 23.1667 52.3333C23.1667 54.9116 28.3933 57 34.8333 57C41.2733 57 46.5 54.9116 46.5 52.3333C46.5 49.755 41.2733 47.6666 34.8333 47.6666C32.71 47.6666 30.715 47.9 29 48.2966C26.9817 48.7633 25.3483 49.4633 24.3333 50.3033" stroke="#13182B" stroke-width="1.5" stroke-miterlimit="10" stroke-linecap="round" stroke-linejoin="round"/>
<path d="M23.1667 59.3334C23.1667 61.9117 28.3933 64 34.8333 64C41.2733 64 46.5 61.9117 46.5 59.3334" stroke="#13182B" stroke-width="1.5" stroke-miterlimit="10" stroke-linecap="round" stroke-linejoin="round"/>
<path d="M23.1667 52.3334V59.3334V65.26V66.3334C23.1667 68.9117 28.3933 71 34.8333 71C41.2733 71 46.5 68.9117 46.5 66.3334V61.6667V59.3334V52.3334" stroke="#13182B" stroke-width="1.5" stroke-miterlimit="10" stroke-linecap="round" stroke-linejoin="round"/>
<path d="M12.6667 46.5C19.11 46.5 24.3333 44.4106 24.3333 41.8333C24.3333 39.256 19.11 37.1666 12.6667 37.1666C6.22334 37.1666 1 39.256 1 41.8333C1 44.4106 6.22334 46.5 12.6667 46.5Z" stroke="#13182B" stroke-width="1.5" stroke-miterlimit="10" stroke-linecap="round" stroke-linejoin="round"/>
<path d="M1 48.8334C1 51.4117 6.22667 53.5 12.6667 53.5C14.79 53.5 16.785 53.2784 18.5 52.87" stroke="#13182B" stroke-width="1.5" stroke-miterlimit="10" stroke-linecap="round" stroke-linejoin="round"/>
<path d="M1 55.8334C1 58.4117 6.22667 60.5 12.6667 60.5C14.79 60.5 16.785 60.2784 18.5 59.87" stroke="#13182B" stroke-width="1.5" stroke-miterlimit="10" stroke-linecap="round" stroke-linejoin="round"/>
<path d="M24.3333 41.8334V45.3334V50.3034V50.315" stroke="#13182B" stroke-width="1.5" stroke-miterlimit="10" stroke-linecap="round" stroke-linejoin="round"/>
<path d="M1 41.8334V48.8334V55.8334V62.8334C1 65.4117 6.22667 67.5 12.6667 67.5C14.79 67.5 16.785 67.2784 18.5 66.87" stroke="#13182B" stroke-width="1.5" stroke-miterlimit="10" stroke-linecap="round" stroke-linejoin="round"/>
<path d="M55.8333 1H31.3333C30.05 1 29 2.05 29 3.33333V41.8333" stroke="#13182B" stroke-width="1.5" stroke-miterlimit="10" stroke-linecap="round" stroke-linejoin="round"/>
<path d="M71 22V59.3333C71 60.6167 69.95 61.6667 68.6667 61.6667H52.3333" stroke="#13182B" stroke-width="1.5" stroke-miterlimit="10" stroke-linecap="round" stroke-linejoin="round"/>
<path d="M71 16.1667H58.1667C56.8833 16.1667 55.8333 15.1167 55.8333 13.8333V1L71 16.1667Z" stroke="#13182B" stroke-width="1.5" stroke-miterlimit="10" stroke-linecap="round" stroke-linejoin="round"/>
<path d="M55.8333 24.3334H62.8333V31.3334" stroke="#13182B" stroke-width="1.5" stroke-miterlimit="10" stroke-linecap="round" stroke-linejoin="round"/>
<path d="M62.8333 24.3334L53.1617 34.0051C52.7067 34.4601 51.96 34.4601 51.505 34.0051L46.1617 28.6617C45.7067 28.2067 44.96 28.2067 44.505 28.6617L37.1667 36" stroke="#13182B" stroke-width="1.5" stroke-miterlimit="10" stroke-linecap="round" stroke-linejoin="round"/>
<path d="M62.8333 43H43" stroke="#13182B" stroke-width="1.5" stroke-miterlimit="10" stroke-linecap="round" stroke-linejoin="round"/>
</svg>
