<svg width="72" height="70" viewBox="0 0 72 70" fill="none" xmlns="http://www.w3.org/2000/svg">
<path d="M5.66667 35.9378C7.615 35.3516 10.0417 34.9999 12.6667 34.9999C15.6183 34.9999 18.3133 35.4454 20.3667 36.1723H20.3783C22.805 37.0282 24.3333 38.2826 24.3333 39.6895C24.3333 42.2806 19.1067 44.3792 12.6667 44.3792C6.22667 44.3792 1 42.2806 1 39.6895C1 38.1537 2.83167 36.7937 5.66667 35.9378Z" fill="white"/>
<path d="M34.8337 45.5516C41.2737 45.5516 46.5003 47.6503 46.5003 50.2413C46.5003 52.8323 41.2737 54.9309 34.8337 54.9309C28.3937 54.9309 23.167 52.8323 23.167 50.2413C23.167 49.5144 23.587 48.8227 24.3337 48.2013C26.2237 46.6303 30.2137 45.5516 34.8337 45.5516Z" fill="white"/>
<path d="M65.1667 11.5516V25.6206C62.5883 25.6206 60.5 27.7192 60.5 30.3102H16.1667C16.1667 27.7192 14.0783 25.6206 11.5 25.6206V11.5516C14.0783 11.5516 16.1667 9.45297 16.1667 6.86194H60.5C60.5 9.45297 62.5883 11.5516 65.1667 11.5516ZM44.1667 18.5861C44.1667 15.3502 41.5533 12.724 38.3333 12.724C35.1133 12.724 32.5 15.3502 32.5 18.5861C32.5 21.8219 35.1133 24.4481 38.3333 24.4481C41.5533 24.4481 44.1667 21.8219 44.1667 18.5861Z" fill="white"/>
<path d="M38.3333 24.4484C41.555 24.4484 44.1667 21.8238 44.1667 18.5863C44.1667 15.3488 41.555 12.7242 38.3333 12.7242C35.1117 12.7242 32.5 15.3488 32.5 18.5863C32.5 21.8238 35.1117 24.4484 38.3333 24.4484Z" fill="#EBEDF0"/>
<path d="M68.6667 1C69.95 1 71 2.05517 71 3.34483V33.8276C71 35.1172 69.95 36.1724 68.6667 36.1724H29H20.3783H20.3667C18.3134 35.4455 15.6183 35 12.6667 35C11.1486 35 9.69752 35.1172 8.36606 35.3297C7.69085 35.4382 7.00397 35.2418 6.48335 34.7963C5.96418 34.3508 5.66522 33.6972 5.66522 33.0113V30.3103V3.34483C5.66522 2.05517 6.71522 1 7.99856 1H68.6667ZM65.1667 25.6207V11.5517C62.5883 11.5517 60.5 9.4531 60.5 6.86207H16.1667C16.1667 9.4531 14.0783 11.5517 11.5 11.5517V25.6207C14.0783 25.6207 16.1667 27.7193 16.1667 30.3103H60.5C60.5 27.7193 62.5883 25.6207 65.1667 25.6207Z" fill="#1AB248"/>
<path d="M5.66699 30.3103V3.34483C5.66699 2.05517 6.71699 1 8.00033 1H68.667C69.9503 1 71.0003 2.05517 71.0003 3.34483V33.8276C71.0003 35.1231 69.9562 36.1724 68.667 36.1724H29.0003" stroke="#13182B" stroke-width="1.5" stroke-miterlimit="10" stroke-linecap="round" stroke-linejoin="round"/>
<path d="M11.5 11.5516C14.0783 11.5516 16.1667 9.45297 16.1667 6.86194H60.5C60.5 9.45297 62.5883 11.5516 65.1667 11.5516V25.6206C62.5883 25.6206 60.5 27.7192 60.5 30.3102H16.1667C16.1667 27.7192 14.0783 25.6206 11.5 25.6206" stroke="#13182B" stroke-width="1.5" stroke-miterlimit="10" stroke-linecap="round" stroke-linejoin="round"/>
<path d="M11.5 11.5518V25.6207" stroke="#13182B" stroke-width="1.5" stroke-miterlimit="10" stroke-linecap="round" stroke-linejoin="round"/>
<path d="M38.3333 24.4484C41.555 24.4484 44.1667 21.8238 44.1667 18.5863C44.1667 15.3488 41.555 12.7242 38.3333 12.7242C35.1117 12.7242 32.5 15.3488 32.5 18.5863C32.5 21.8238 35.1117 24.4484 38.3333 24.4484Z" stroke="#13182B" stroke-width="1.5" stroke-miterlimit="10" stroke-linecap="round" stroke-linejoin="round"/>
<path d="M52.333 18.5862H56.9997" stroke="#13182B" stroke-width="1.5" stroke-miterlimit="10" stroke-linecap="round" stroke-linejoin="round"/>
<path d="M24.3337 18.5862H19.667" stroke="#13182B" stroke-width="1.5" stroke-miterlimit="10" stroke-linecap="round" stroke-linejoin="round"/>
<path d="M46.5003 50.2413C46.5003 47.6503 41.2737 45.5516 34.8337 45.5516C30.2137 45.5516 26.2237 46.6303 24.3337 48.2013C23.587 48.8227 23.167 49.5144 23.167 50.2413C23.167 52.8323 28.3937 54.9309 34.8337 54.9309C41.2737 54.9309 46.5003 52.8323 46.5003 50.2413Z" stroke="#13182B" stroke-width="1.5" stroke-miterlimit="10" stroke-linecap="round" stroke-linejoin="round"/>
<path d="M23.167 57.2759C23.167 59.8669 28.3937 61.9655 34.8337 61.9655C41.2737 61.9655 46.5003 59.8669 46.5003 57.2759" stroke="#13182B" stroke-width="1.5" stroke-miterlimit="10" stroke-linecap="round" stroke-linejoin="round"/>
<path d="M23.167 50.2413V57.2758V63.2434V64.3103C23.167 66.9013 28.3937 69 34.8337 69C41.2737 69 46.5003 66.9013 46.5003 64.3103V57.2758V50.2413" stroke="#13182B" stroke-width="1.5" stroke-miterlimit="10" stroke-linecap="round" stroke-linejoin="round"/>
<path d="M20.3667 36.1723C18.3133 35.4454 15.6183 34.9999 12.6667 34.9999C10.0417 34.9999 7.61646 35.3516 5.66813 35.9378C5.66667 35.9378 5.66667 35.9378 5.66521 35.9393C2.83021 36.7951 1 38.1551 1 39.691C1 42.282 6.22667 44.3807 12.6667 44.3807C19.1067 44.3807 24.3333 42.282 24.3333 39.691C24.3333 38.2841 22.805 37.0296 20.3783 36.1738" stroke="#13182B" stroke-width="1.5" stroke-miterlimit="10" stroke-linecap="round" stroke-linejoin="round"/>
<path d="M1 46.7241C1 49.3152 6.22667 51.4138 12.6667 51.4138C14.79 51.4138 16.785 51.191 18.5 50.7807" stroke="#13182B" stroke-width="1.5" stroke-miterlimit="10" stroke-linecap="round" stroke-linejoin="round"/>
<path d="M1 53.7587C1 56.3497 6.22667 58.4483 12.6667 58.4483C14.79 58.4483 16.785 58.2256 18.5 57.8152" stroke="#13182B" stroke-width="1.5" stroke-miterlimit="10" stroke-linecap="round" stroke-linejoin="round"/>
<path d="M24.333 39.6897V43.2069V43.5821" stroke="#13182B" stroke-width="1.5" stroke-miterlimit="10" stroke-linecap="round" stroke-linejoin="round"/>
<path d="M1 39.6897V46.7242V53.7587V60.7931C1 63.3842 6.22667 65.4828 12.6667 65.4828C14.79 65.4828 16.785 65.26 18.5 64.8497" stroke="#13182B" stroke-width="1.5" stroke-miterlimit="10" stroke-linecap="round" stroke-linejoin="round"/>
</svg>
