<svg width="72" height="72" viewBox="0 0 72 72" fill="none" xmlns="http://www.w3.org/2000/svg">
<path d="M17.3333 3.33333C16.6917 3.33333 16.1667 3.85833 16.1667 4.5C16.1667 5.14167 16.6917 5.66667 17.3333 5.66667C17.975 5.66667 18.5 5.14167 18.5 4.5C18.5 3.85833 17.975 3.33333 17.3333 3.33333ZM8 5.66667C8.64167 5.66667 9.16667 5.14167 9.16667 4.5C9.16667 3.85833 8.64167 3.33333 8 3.33333C7.35833 3.33333 6.83333 3.85833 6.83333 4.5C6.83333 5.14167 7.35833 5.66667 8 5.66667ZM13.8333 4.5C13.8333 3.85833 13.3083 3.33333 12.6667 3.33333C12.025 3.33333 11.5 3.85833 11.5 4.5C11.5 5.14167 12.025 5.66667 12.6667 5.66667C13.3083 5.66667 13.8333 5.14167 13.8333 4.5ZM71 8H5.66667H1V4.5C1 2.56333 2.56333 1 4.5 1H67.5C69.4367 1 71 2.56333 71 4.5V8Z" fill="#1AB248"/>
<path d="M4.5 51.1667H44.1667V54.6667H39.5H4.5C2.56333 54.6667 1 53.1033 1 51.1667V8H5.66667H71V51.1667C71 53.1033 69.4367 54.6667 67.5 54.6667H61.6667H52.695L46.3017 51.1667H67.5V11.5H41.8333H30.1667H4.5V51.1667Z" fill="white"/>
<path d="M46.3017 51.1667H44.1667V50L46.3017 51.1667Z" fill="white"/>
<path d="M52.695 54.6666H44.1667V51.1666H46.3017L52.695 54.6666Z" fill="white"/>
<path d="M59.3333 58.295L54.3867 61.06L58.7617 68.235L52.9283 71L48.5417 63.825L44.1667 66.5783V54.6666H52.695L59.3333 58.295Z" fill="white"/>
<path d="M51.1667 30.1667L48.9967 43.1867C48.9033 43.7584 48.4133 44.1667 47.8417 44.1667H24.1583C23.5867 44.1667 23.0967 43.7584 23.0033 43.1867L20.8333 30.1667H19.6667V24.3334H24.3333H47.6667H52.3333V30.1667H51.1667Z" fill="white"/>
<path d="M17.3333 5.66671C17.9777 5.66671 18.5 5.14437 18.5 4.50004C18.5 3.85571 17.9777 3.33337 17.3333 3.33337C16.689 3.33337 16.1667 3.85571 16.1667 4.50004C16.1667 5.14437 16.689 5.66671 17.3333 5.66671Z" fill="#13182B"/>
<path d="M12.6667 5.66671C13.311 5.66671 13.8333 5.14437 13.8333 4.50004C13.8333 3.85571 13.311 3.33337 12.6667 3.33337C12.0223 3.33337 11.5 3.85571 11.5 4.50004C11.5 5.14437 12.0223 5.66671 12.6667 5.66671Z" fill="#13182B"/>
<path d="M7.99999 5.66671C8.64433 5.66671 9.16666 5.14437 9.16666 4.50004C9.16666 3.85571 8.64433 3.33337 7.99999 3.33337C7.35566 3.33337 6.83333 3.85571 6.83333 4.50004C6.83333 5.14437 7.35566 5.66671 7.99999 5.66671Z" fill="#13182B"/>
<path d="M52.695 54.6667L59.3333 58.295L54.3867 61.06L58.7617 68.235L52.9283 71L48.5417 63.825L44.1667 66.5783V54.6667V51.1667V50L46.3017 51.1667L52.695 54.6667Z" stroke="#13182B" stroke-width="1.5" stroke-miterlimit="10" stroke-linecap="round" stroke-linejoin="round"/>
<path d="M61.6667 54.6667H67.5C69.4367 54.6667 71 53.1033 71 51.1667V8V4.5C71 2.56333 69.4367 1 67.5 1H4.5C2.56333 1 1 2.56333 1 4.5V8V51.1667C1 53.1033 2.56333 54.6667 4.5 54.6667H39.5" stroke="#13182B" stroke-width="1.5" stroke-miterlimit="10" stroke-linecap="round" stroke-linejoin="round"/>
<path d="M71 8H5.66667" stroke="#13182B" stroke-width="1.5" stroke-miterlimit="10" stroke-linecap="round" stroke-linejoin="round"/>
<path d="M23.1667 30.1667H20.8333H19.6667V24.3334H24.3333H47.6667H52.3333V30.1667H51.1667H29" stroke="#13182B" stroke-width="1.5" stroke-miterlimit="10" stroke-linecap="round" stroke-linejoin="round"/>
<path d="M51.1667 30.1666L48.9967 43.1866C48.9033 43.7583 48.4133 44.1666 47.8417 44.1666H24.1583C23.5867 44.1666 23.0967 43.7583 23.0033 43.1866L20.8333 30.1666" stroke="#13182B" stroke-width="1.5" stroke-miterlimit="10" stroke-linecap="round" stroke-linejoin="round"/>
<path d="M36 34.8334V39.5" stroke="#13182B" stroke-width="1.5" stroke-miterlimit="10" stroke-linecap="round" stroke-linejoin="round"/>
<path d="M44.1667 34.8334L43 39.5" stroke="#13182B" stroke-width="1.5" stroke-miterlimit="10" stroke-linecap="round" stroke-linejoin="round"/>
<path d="M27.8333 34.8334L29 39.5" stroke="#13182B" stroke-width="1.5" stroke-miterlimit="10" stroke-linecap="round" stroke-linejoin="round"/>
<path d="M47.6667 24.3334L41.8333 13.8334" stroke="#13182B" stroke-width="1.5" stroke-miterlimit="10" stroke-linecap="round" stroke-linejoin="round"/>
<path d="M24.3333 24.3334L30.1667 13.8334" stroke="#13182B" stroke-width="1.5" stroke-miterlimit="10" stroke-linecap="round" stroke-linejoin="round"/>
</svg>
