<svg width="54" height="72" viewBox="0 0 54 72" fill="none" xmlns="http://www.w3.org/2000/svg">
<path d="M53 4.5V71L46.5 67.5L40 71L33.5 67.5L27 71L20.5 67.5L14 71L7.5 67.5L1 71V20.8333V15H12.8182C14.1182 15 15.1818 13.95 15.1818 12.6667V1H49.4545C51.4164 1 53 2.56333 53 4.5Z" fill="white"/>
<path d="M15.1818 1V12.6667C15.1818 13.95 14.1182 15 12.8182 15H1L15.1818 1Z" fill="#1AB248"/>
<path d="M15.1818 1L1 15H12.8182C14.1182 15 15.1818 13.95 15.1818 12.6667V1Z" stroke="#13182B" stroke-width="1.5" stroke-miterlimit="10" stroke-linecap="round" stroke-linejoin="round"/>
<path d="M15.1818 1H49.4545C51.4164 1 53 2.56333 53 4.5V71L46.5 67.5L40 71L33.5 67.5L27 71L20.5 67.5L14 71L7.5 67.5L1 71V20.8333" stroke="#13182B" stroke-width="1.5" stroke-miterlimit="10" stroke-linecap="round" stroke-linejoin="round"/>
<path d="M23.4549 15H34.0913" stroke="#13182B" stroke-width="1.5" stroke-miterlimit="10" stroke-linecap="round" stroke-linejoin="round"/>
<path d="M10.4542 26.6667H43.5451" stroke="#13182B" stroke-width="1.5" stroke-miterlimit="10" stroke-linecap="round" stroke-linejoin="round"/>
<path d="M10.4542 36H26.9997" stroke="#13182B" stroke-width="1.5" stroke-miterlimit="10" stroke-linecap="round" stroke-linejoin="round"/>
<path d="M10.4542 45.3333H26.9997" stroke="#13182B" stroke-width="1.5" stroke-miterlimit="10" stroke-linecap="round" stroke-linejoin="round"/>
<path d="M10.4542 54.6667H26.9997" stroke="#13182B" stroke-width="1.5" stroke-miterlimit="10" stroke-linecap="round" stroke-linejoin="round"/>
<path d="M38.8174 36H43.5447" stroke="#13182B" stroke-width="1.5" stroke-miterlimit="10" stroke-linecap="round" stroke-linejoin="round"/>
<path d="M38.8174 45.3333H43.5447" stroke="#13182B" stroke-width="1.5" stroke-miterlimit="10" stroke-linecap="round" stroke-linejoin="round"/>
<path d="M38.8174 54.6667H43.5447" stroke="#13182B" stroke-width="1.5" stroke-miterlimit="10" stroke-linecap="round" stroke-linejoin="round"/>
</svg>
