<svg width="65" height="72" viewBox="0 0 65 72" fill="none" xmlns="http://www.w3.org/2000/svg">
<path d="M54.6667 57.0702C64.035 59.3335 64 65.0517 64 71.0002H1C1 65.0502 0.976667 59.3335 10.3333 57.0702C11.745 56.7202 13.355 56.2769 14.9533 55.7183C18.815 61.6683 25.4183 65.1683 32.5 65.1683C39.5817 65.1683 46.185 61.6683 50.0467 55.7183C51.6567 56.2885 53.255 56.7319 54.6667 57.0702Z" fill="#1AB248"/>
<path d="M52.3332 26.6669V31.3335C52.3332 33.5035 50.8515 35.3352 48.8332 35.8485C48.4599 35.9535 48.0749 36.0002 47.6665 36.0002H47.0832C46.3015 36.0002 45.6482 35.4985 45.4382 34.7985C45.3682 34.6235 45.3332 34.4369 45.3332 34.2502V23.7502C45.3332 23.3302 45.4732 22.9452 45.7299 22.6535C45.9399 22.3852 46.2315 22.1767 46.5699 22.0833C46.7332 22.0235 46.9082 22.0016 47.0832 22.0016H47.6665C48.5299 22.0016 49.3465 22.2466 50.0465 22.655C51.4232 23.4702 52.3332 24.9635 52.3332 26.6669Z" fill="#1AB248"/>
<path d="M47.7711 54.8418C48.5178 55.167 49.2878 55.4587 50.0461 55.7168C46.1845 61.6668 39.5811 65.1668 32.4995 65.1668C25.4178 65.1668 18.8145 61.6668 14.9528 55.7168C19.6545 54.0835 24.3328 51.4702 24.3328 47.6668V43.0585C26.5611 45.1351 29.3961 46.5002 32.4995 46.5002C35.6028 46.5002 38.4378 45.1351 40.6661 43.0585C40.6661 43.8168 40.6661 44.9602 40.6661 46.5002C40.6661 46.5002 40.4795 48.2152 41.5295 50.1868C41.2378 50.0468 40.9228 49.9768 40.5845 50.0002L35.5328 50.3385C34.5995 50.3968 33.7361 50.8401 33.1761 51.5518C32.6045 52.2635 32.3828 53.1735 32.5578 54.0602L32.6395 54.4685C32.8261 55.3435 33.3861 56.1135 34.1911 56.5685C34.9845 57.0235 35.9528 57.1285 36.8395 56.8485L41.6578 55.3201C42.5926 55.0285 43.1511 54.1068 42.9645 53.1866L42.8361 52.5566L43.3261 52.4399C44.3528 53.3601 45.7878 54.2118 47.7711 54.8418Z" fill="white"/>
<path d="M45.4384 34.7985L45.3334 34.8335C44.7267 37.8435 43.0467 40.8535 40.6667 43.0585C38.4384 45.1351 35.6034 46.5001 32.5 46.5001C29.3967 46.5001 26.5617 45.1351 24.3334 43.0585C21.9534 40.8535 20.2734 37.8435 19.6667 34.8335L19.5617 34.7985C19.6317 34.6235 19.6667 34.4368 19.6667 34.2501V23.7501C19.6667 23.5751 19.6434 23.4118 19.585 23.2601C21.8484 23.2485 22.8867 22.0818 22.8867 22.0818C24.135 20.7868 25.3017 18.8735 25.5 16.1668C27.3084 17.8818 29.0117 18.5001 30.75 18.5001C33.725 18.5001 36.2334 18.5001 38.3334 18.5001C40.025 18.5001 41.4134 19.1185 42.4867 19.9118C42.4867 19.9118 45.4384 21.5568 45.73 22.6535C45.4734 22.9451 45.3334 23.3301 45.3334 23.7501V34.2501C45.3334 34.4368 45.3684 34.6235 45.4384 34.7985Z" fill="white"/>
<path d="M42.9649 53.1852C43.1516 54.1054 42.593 55.027 41.6582 55.3187L36.8399 56.847C35.9532 57.127 34.9849 57.022 34.1916 56.567C33.3866 56.112 32.8265 55.342 32.6399 54.467L32.5582 54.0587C32.3832 53.1706 32.6049 52.262 33.1765 51.5503C33.7365 50.8387 34.5999 50.3954 35.5332 50.337L40.5849 49.9987C40.9232 49.9754 41.2382 50.0454 41.5299 50.1854C41.8099 50.722 42.1832 51.2703 42.6849 51.8187L42.8365 52.5551L42.9649 53.1852Z" fill="#1AB248"/>
<path d="M19.667 23.7501V34.2501C19.667 34.4367 19.632 34.6234 19.562 34.7984C19.352 35.4984 18.6987 36.0001 17.917 36.0001H17.3337C14.7554 36.0001 12.667 33.9117 12.667 31.3334V26.6667C12.667 24.9634 13.577 23.4701 14.9537 22.6534C15.6537 22.2451 16.4704 22.0001 17.3337 22.0001H17.917C18.092 22.0001 18.2553 22.0234 18.4187 22.0817C18.9903 22.2451 19.4337 22.6884 19.5853 23.26C19.6437 23.4117 19.667 23.5751 19.667 23.7501Z" fill="#1AB248"/>
<path d="M50.0465 22.6534C51.4232 23.4701 52.3332 24.9634 52.3332 26.6667V31.3334C52.3332 33.5034 50.8515 35.3351 48.8332 35.8484C48.4599 35.9534 48.0749 36.0001 47.6665 36.0001H47.0832C46.3015 36.0001 45.6482 35.4984 45.4382 34.7984C45.3682 34.6234 45.3332 34.4367 45.3332 34.2501V23.7501C45.3332 23.3301 45.4732 22.9451 45.7299 22.6534C45.9399 22.3851 46.2315 22.1765 46.5699 22.0832C46.7332 22.0234 46.9082 22.0015 47.0832 22.0015H47.6665C48.5299 22.0001 49.3465 22.2451 50.0465 22.6534Z" stroke="#13182B" stroke-width="1.5" stroke-miterlimit="10" stroke-linecap="round" stroke-linejoin="round"/>
<path d="M14.9537 22.6533C13.577 23.4699 12.667 24.9633 12.667 26.6666V31.3333C12.667 33.9116 14.7554 35.9999 17.3337 35.9999H17.917C18.6987 35.9999 19.352 35.4983 19.562 34.7983C19.632 34.6233 19.667 34.4366 19.667 34.2499V23.7499C19.667 23.5749 19.6437 23.4116 19.5853 23.2599C19.4337 22.6883 18.9903 22.2449 18.4187 22.0816C18.2553 22.0218 18.0935 21.9999 17.917 21.9999H17.3337C16.4704 21.9999 15.6537 22.2449 14.9537 22.6533Z" stroke="#13182B" stroke-width="1.5" stroke-miterlimit="10" stroke-linecap="round" stroke-linejoin="round"/>
<path d="M19.6664 34.8334C20.273 37.8434 21.953 40.8534 24.333 43.0584C26.5614 45.135 29.3964 46.5 32.4997 46.5C35.603 46.5 38.438 45.135 40.6664 43.0584C43.0464 40.8534 44.7264 37.8434 45.3331 34.8334" stroke="#13182B" stroke-width="1.5" stroke-miterlimit="10" stroke-linecap="round" stroke-linejoin="round"/>
<path d="M18.5 18.5C18.5 11.2083 23.8433 5.66663 32.5 5.66663C41.1567 5.66663 46.5 11.2083 46.5 18.5" stroke="#13182B" stroke-width="1.5" stroke-miterlimit="10" stroke-linecap="round" stroke-linejoin="round"/>
<path d="M14.9528 22.6533C14.9528 6.18146 20.8328 1 32.4995 1C44.1661 1 50.0461 6.18 50.0461 22.6533" stroke="#13182B" stroke-width="1.5" stroke-miterlimit="10" stroke-linecap="round" stroke-linejoin="round"/>
<path d="M22.8867 22.0817C24.1351 20.7867 25.3017 18.8734 25.5001 16.1667C27.3084 17.8817 29.0117 18.5 30.7501 18.5C33.7251 18.5 36.2334 18.5 38.3334 18.5C40.0251 18.5 41.4134 19.1183 42.4867 19.9117" stroke="#13182B" stroke-width="1.5" stroke-miterlimit="10" stroke-linecap="round" stroke-linejoin="round"/>
<path d="M1 71C1 65.05 0.976667 59.3333 10.3333 57.07C11.745 56.72 13.355 56.2766 14.9533 55.7181C19.655 54.0848 24.3333 51.4714 24.3333 47.6681" stroke="#13182B" stroke-width="1.5" stroke-miterlimit="10" stroke-linecap="round" stroke-linejoin="round"/>
<path d="M47.7717 54.8416C48.5184 55.1668 49.2884 55.4584 50.0467 55.7166C51.6567 56.2868 53.255 56.7301 54.6667 57.0684C64.035 59.3318 64 65.0499 64 70.9984" stroke="#13182B" stroke-width="1.5" stroke-miterlimit="10" stroke-linecap="round" stroke-linejoin="round"/>
<path d="M40.6666 43.0583C40.6666 43.8167 40.6666 44.96 40.6666 46.5" stroke="#13182B" stroke-width="1.5" stroke-miterlimit="10" stroke-linecap="round" stroke-linejoin="round"/>
<path d="M42.8365 52.5551L42.9649 53.1851C43.1516 54.1053 42.593 55.027 41.6582 55.3186L36.8399 56.847C35.9532 57.127 34.9849 57.022 34.1916 56.567C33.3866 56.112 32.8265 55.3419 32.6399 54.4669L32.5582 54.0586C32.3832 53.1705 32.6049 52.2619 33.1765 51.5503C33.7365 50.8386 34.5999 50.3953 35.5332 50.337L40.5849 49.9986C40.9232 49.9753 41.2382 50.0453 41.5299 50.1853C42.0899 50.4186 42.5099 50.9086 42.6265 51.5153L42.6864 51.8186L42.8365 52.5551Z" stroke="#13182B" stroke-width="1.5" stroke-miterlimit="10" stroke-linecap="round" stroke-linejoin="round"/>
<path d="M48.8337 35.8483V48.39C48.8337 50.0117 47.7137 51.4233 46.127 51.7967L43.327 52.4383L42.837 52.555" stroke="#13182B" stroke-width="1.5" stroke-miterlimit="10" stroke-linecap="round" stroke-linejoin="round"/>
<path d="M50.0461 55.7166C46.1845 61.6666 39.5811 65.1666 32.4995 65.1666C25.4178 65.1666 18.8145 61.6666 14.9528 55.7166" stroke="#13182B" stroke-width="1.5" stroke-miterlimit="10" stroke-linecap="round" stroke-linejoin="round"/>
</svg>
