<svg width="72" height="72" viewBox="0 0 72 72" fill="none" xmlns="http://www.w3.org/2000/svg">
<path d="M18.5 31.3333C18.5 33.5266 24.3333 38.3333 24.3333 38.3333C21.1717 38.3333 18.5 41.8333 18.5 41.8333C17.1117 40.5266 12.6667 33.6666 12.6667 33.6666L18.5 30.1666V31.3333Z" fill="white"/>
<path d="M36 34.8333C36.945 38.3333 34.8333 41.8333 34.8333 41.8333C34.8333 41.8333 32.57 37.9717 30.1667 38.3333C31.2633 36.5717 31.695 35.1017 31.3333 32.5L36 34.8333Z" fill="white"/>
<path d="M8 71V66.3333L8.11666 61.0498C8.11666 61.0498 16.68 71 20.8333 71H8Z" fill="#1AB248"/>
<path d="M40.6667 71H20.8333C24.9867 71 38.7767 65.4584 39.5 65.4584C39.605 65.4584 40.0367 65.47 40.6667 65.5284V68.6667V71Z" fill="#1AB248"/>
<path d="M18.0567 56.2533C15.0817 58.9848 11.0217 60.3731 8.11667 61.0498C5.99187 61.5383 4.5 61.6666 4.5 61.6666C4.5 61.6666 1 52.7766 1 44.1666C1 39.7916 12.6667 33.6666 12.6667 33.6666C12.6667 33.6666 17.1117 40.5266 18.5 41.8333C18.5 41.8333 21.1717 38.3333 24.3333 38.3333L27.8333 46.5L30.1667 38.3333C32.57 37.9716 34.8333 41.8333 34.8333 41.8333C34.8333 41.8333 36.945 38.3333 36 34.8333L40.6667 36V54.6666V58.75L38.3333 59.3333L23.0967 61.6666C22.14 61.6666 18.0567 56.2533 18.0567 56.2533Z" fill="#1AB248"/>
<path d="M55.2267 61.6667L55.1669 61.7833C55.0152 61.7133 54.8417 61.6667 54.6652 61.6667H48.8319C49.4735 61.6667 49.9985 61.1417 49.9985 60.5C49.9985 59.2167 48.9485 58.1667 47.6652 58.1667H43.5702C43.1969 58.1667 42.8119 58.2133 42.4371 58.3067L40.6667 58.75V54.6667V36H52.3333V45.3333H59.3333V36H71V61.6667H60.5H55.2267Z" fill="white"/>
<path d="M43.5716 58.1666H47.6666C48.95 58.1666 50 59.2166 50 60.5C50 61.1416 49.475 61.6666 48.8333 61.6666H54.6666C54.8416 61.6666 55.0166 61.7133 55.1683 61.7833C55.565 61.97 55.8333 62.3666 55.8333 62.8333C55.8333 64.175 54.8533 65.3183 53.5233 65.5283L48.2835 66.3333L44.435 66.31C43.0816 65.82 41.6466 65.61 40.6666 65.5283C40.0366 65.4685 39.605 65.4583 39.5 65.4583C38.7766 65.4583 24.9866 71 20.8333 71C16.68 71 8.11664 61.0498 8.11664 61.0498C11.0216 60.3731 15.0831 58.9848 18.0566 56.2533C18.0566 56.2533 22.14 61.6666 23.0952 61.6666L38.3333 59.3333L40.6666 58.75L42.44 58.3066C42.8133 58.2133 43.1983 58.1666 43.5716 58.1666Z" fill="white"/>
<path d="M18.5 29V24.73C19.9583 26.3414 22.1983 27.8333 25.5 27.8333C27.39 27.8333 28.93 27.1683 30.1667 26.095V30.1666C30.1667 31.4033 31.3333 32.5 31.3333 32.5C31.695 35.1016 31.2633 36.5716 30.1667 38.3333L27.8333 46.5L24.3333 38.3333C24.3333 38.3333 18.5 33.5266 18.5 31.3333V30.1666V29Z" fill="white"/>
<path d="M14.8483 15.0116V14.9533C16.2935 14.8249 17.38 14.4049 18.2783 13.8333C20.3769 13.8333 25.3483 13.8333 26.6667 13.8333C28.2067 13.8333 28.2067 10.8831 34.25 10.3916V10.4047L34.8333 13.8347C34.8333 17.0547 33.6433 23.1214 30.1667 26.0964C28.93 27.1697 27.39 27.8347 25.5 27.8347C22.1983 27.8347 19.9583 26.3429 18.5 24.7314C16.7967 22.8647 16.1667 20.8347 16.1667 20.8347C14.895 20.4614 13.8333 19.3531 13.8333 18.0697C13.8333 15.5833 14.65 15.0933 14.8483 15.0116Z" fill="white"/>
<path d="M35.6501 9.91333C36.2684 10.1569 36.7103 10.3333 36.8751 10.4033C36.6067 10.3669 36.3034 10.3333 36.0001 10.3333C35.3584 10.3333 34.7751 10.3567 34.2501 10.3917C28.2067 10.8831 28.2067 13.8333 26.6667 13.8333C25.3484 13.8333 20.3784 13.8333 18.2784 13.8333C21.4634 11.8617 22.3953 8 29.0001 8C30.4351 8 33.8067 9.20021 35.6501 9.91333Z" fill="#1AB248"/>
<path d="M23.8317 1.04667C24.3669 1.01167 24.9167 1 25.5 1C31.31 1 33.5033 2.66833 35.65 9.91333C33.8067 9.20021 30.435 8 29 8C22.3967 8 21.4634 11.8617 18.2784 13.8333C17.38 14.405 16.2936 14.825 14.8484 14.9533C14.5334 14.9883 14.195 15 13.8334 15C12.7367 5.48 15.63 1.49 23.8317 1.04667Z" fill="#1AB248"/>
<path d="M59.3333 36H52.3333V45.3333H59.3333V36Z" fill="#1AB248"/>
<path d="M40.6667 54.6667V36H52.3333H59.3333H71V61.6667H60.5" stroke="#13182B" stroke-width="1.5" stroke-miterlimit="10" stroke-linecap="round" stroke-linejoin="round"/>
<path d="M40.6667 58.75V54.6666" stroke="#13182B" stroke-width="1.5" stroke-miterlimit="10" stroke-linecap="round" stroke-linejoin="round"/>
<path d="M52.3333 36V45.3333H59.3333V36" stroke="#13182B" stroke-width="1.5" stroke-miterlimit="10" stroke-linecap="round" stroke-linejoin="round"/>
<path d="M36.875 10.4033C36.7117 10.3333 36.2683 10.1569 35.65 9.91333C33.8067 9.20021 30.435 8 29 8C22.3967 8 21.4634 11.8617 18.2784 13.8333C17.38 14.405 16.2936 14.825 14.8484 14.9533C14.5334 14.9883 14.195 15 13.8334 15C12.7367 5.48 15.63 1.49 23.8317 1.04667C24.3669 1.01167 24.9167 1 25.5 1C31.31 1 33.5033 2.66833 35.65 9.91333C35.65 9.94687 35.6617 9.97021 35.6734 10.0067" stroke="#13182B" stroke-width="1.5" stroke-miterlimit="10" stroke-linecap="round" stroke-linejoin="round"/>
<path d="M23.8317 1.04663C23.8317 1.04663 18.8617 2.74996 18.5 7.99996" stroke="#13182B" stroke-width="1.5" stroke-miterlimit="10" stroke-linecap="round" stroke-linejoin="round"/>
<path d="M14.895 15C14.895 15 14.8833 15 14.8483 15.0117C14.65 15.0934 13.8333 15.5834 13.8333 18.0684C13.8333 19.3517 14.895 20.46 16.1667 20.8334C16.1667 20.8334 16.7967 22.8634 18.5 24.73C19.9583 26.3415 22.1983 27.8334 25.5 27.8334C27.39 27.8334 28.93 27.1684 30.1667 26.095C33.6433 23.12 34.8333 17.0534 34.8333 13.8334" stroke="#13182B" stroke-width="1.5" stroke-miterlimit="10" stroke-linecap="round" stroke-linejoin="round"/>
<path d="M18.2784 13.8334C20.3769 13.8334 25.3484 13.8334 26.6667 13.8334C28.2067 13.8334 28.2067 10.8832 34.2501 10.3917C34.7751 10.3567 35.3584 10.3334 36.0001 10.3334C36.3034 10.3334 36.6067 10.3669 36.8751 10.4034C36.9217 10.415 36.9451 10.4267 36.9451 10.4267C38.5201 10.7184 39.5001 11.745 39.5001 12.6667C39.5001 13.7634 38.3334 13.8334 38.3334 13.8334" stroke="#13182B" stroke-width="1.5" stroke-miterlimit="10" stroke-linecap="round" stroke-linejoin="round"/>
<path d="M30.1667 38.3333C32.57 37.9717 34.8333 41.8333 34.8333 41.8333C34.8333 41.8333 36.945 38.3333 36 34.8333L31.3333 32.5C31.695 35.1017 31.2633 36.5717 30.1667 38.3333ZM30.1667 38.3333L27.8333 46.5L24.3333 38.3333C24.3333 38.3333 18.5 33.5267 18.5 31.3333V30.1667V29" stroke="#13182B" stroke-width="1.5" stroke-miterlimit="10" stroke-linecap="round" stroke-linejoin="round"/>
<path d="M31.3333 32.5C31.3333 32.5 30.1667 31.4033 30.1667 30.1666" stroke="#13182B" stroke-width="1.5" stroke-miterlimit="10" stroke-linecap="round" stroke-linejoin="round"/>
<path d="M18.5 30.1666L12.6667 33.6666C12.6667 33.6666 17.1117 40.5266 18.5 41.8333C18.5 41.8333 21.1717 38.3333 24.3333 38.3333" stroke="#13182B" stroke-width="1.5" stroke-miterlimit="10" stroke-linecap="round" stroke-linejoin="round"/>
<path d="M12.6667 33.6666C12.6667 33.6666 1 39.7916 1 44.1666C1 52.7766 4.5 61.6666 4.5 61.6666C4.5 61.6666 5.99187 61.5383 8.11666 61.0498C11.0217 60.3731 15.0831 58.9848 18.0567 56.2533C18.2083 56.1148 18.36 55.9748 18.5 55.8333L15 47.6666" stroke="#13182B" stroke-width="1.5" stroke-miterlimit="10" stroke-linecap="round" stroke-linejoin="round"/>
<path d="M44.1666 61.6666H45.3333H48.8333C49.475 61.6666 50 61.1416 50 60.5C50 59.2166 48.95 58.1666 47.6666 58.1666H43.5716C43.1983 58.1666 42.8133 58.2133 42.4385 58.3066L40.6666 58.75L38.3333 59.3333L23.0966 61.6666C22.1414 61.6666 18.0581 56.2533 18.0581 56.2533" stroke="#13182B" stroke-width="1.5" stroke-miterlimit="10" stroke-linecap="round" stroke-linejoin="round"/>
<path d="M8.11664 61.0498C8.11664 61.0498 16.68 71 20.8333 71C24.9866 71 38.7766 65.4583 39.5 65.4583C39.605 65.4583 40.0366 65.47 40.6666 65.5283C41.6466 65.6085 43.0816 65.82 44.435 66.31L48.2835 66.3333L53.5219 65.5283C54.8533 65.3183 55.8333 64.175 55.8333 62.8333C55.8333 62.3667 55.565 61.97 55.1683 61.7833C55.0166 61.7133 54.8431 61.6667 54.6666 61.6667H48.8333" stroke="#13182B" stroke-width="1.5" stroke-miterlimit="10" stroke-linecap="round" stroke-linejoin="round"/>
<path d="M8 71V66.3334" stroke="#13182B" stroke-width="1.5" stroke-miterlimit="10" stroke-linecap="round" stroke-linejoin="round"/>
<path d="M40.6667 68.6666V71" stroke="#13182B" stroke-width="1.5" stroke-miterlimit="10" stroke-linecap="round" stroke-linejoin="round"/>
</svg>
