<svg width="28" height="44" viewBox="0 0 28 44" fill="none" xmlns="http://www.w3.org/2000/svg">
<path d="M11.6054 15.7C15.5731 15.7 18.7896 12.4093 18.7896 8.35C18.7896 4.29071 15.5731 1 11.6054 1C7.63762 1 4.42114 4.29071 4.42114 8.35C4.42114 12.4093 7.63762 15.7 11.6054 15.7Z" fill="#1AB248"/>
<path d="M9.21737 28.622V13.838V7.58C9.21737 6.264 10.4011 5.2 11.6805 5.2C12.9668 5.2 14 6.264 14 7.58V13.831V20.411C15.4505 18.57 18.1805 19.879 18.3379 20.887C19.5695 19.62 21.9505 20.236 22.6689 21.363C25.2621 19.76 27 21.475 27 23.267V35.405C27 36.175 26.8495 36.938 26.5484 37.652C26.5484 37.652 26.5484 37.659 26.5416 37.666C25.2074 40.9 22.1079 43 18.68 43H14.7389C11.8858 43 9.25158 41.467 7.80105 38.954C6.44632 36.616 5.7279 34.166 4.71526 30.869C3.38105 26.536 1 23.561 1 22.315C1 21.601 1.34895 20.411 2.91579 20.411C4.68789 20.411 5.78947 21.748 9.21737 28.622Z" fill="white"/>
<path d="M9.21751 28.6219L9.21069 29.6999" stroke="#13182B" stroke-miterlimit="10" stroke-linecap="round" stroke-linejoin="round"/>
<path d="M9.21737 28.622C5.78947 21.748 4.68789 20.411 2.91579 20.411C1.34895 20.411 1 21.601 1 22.315C1 23.561 3.38105 26.536 4.71526 30.869C5.7279 34.166 6.44632 36.616 7.80105 38.954C9.25158 41.467 11.8858 43 14.7389 43H18.68C22.1079 43 25.2074 40.9 26.5416 37.666C26.5484 37.659 26.5484 37.652 26.5484 37.652C26.8495 36.938 27 36.175 27 35.405V23.267C27 21.475 25.2621 19.76 22.6689 21.363C21.9505 20.236 19.5695 19.62 18.3379 20.887C18.1805 19.879 15.4505 18.57 14 20.411V13.831V7.58C14 6.264 12.9668 5.2 11.6805 5.2C10.4011 5.2 9.21737 6.264 9.21737 7.58V13.838V28.622V28.622Z" stroke="#13182B" stroke-miterlimit="10" stroke-linecap="round" stroke-linejoin="round"/>
<path d="M6.47377 13.495C5.20114 12.172 4.42114 10.352 4.42114 8.35C4.42114 4.29 7.63693 1 11.6054 1C15.5738 1 18.7896 4.29 18.7896 8.35C18.7896 10.352 18.0096 12.172 16.7369 13.495" stroke="#13182B" stroke-miterlimit="10" stroke-linecap="round" stroke-linejoin="round"/>
</svg>
