<svg width="32" height="32" viewBox="0 0 32 32" fill="none" xmlns="http://www.w3.org/2000/svg">
<path d="M31.8239 14.6016L27.0343 10.182V2.94149H21.517V5.09127L15.9997 0L0.176109 14.6016C-0.0467901 14.8078 -0.0600316 15.1548 0.147419 15.3769C0.354318 15.5984 0.703563 15.611 0.927565 15.4054L2.75876 13.7156V32H29.2418V13.7151L31.073 15.4048C31.1789 15.503 31.3141 15.5512 31.4487 15.5512C31.5971 15.5512 31.7444 15.4926 31.8526 15.3763C32.06 15.1548 32.0468 14.8078 31.8239 14.6016ZM22.6205 4.03804H25.9309V9.16385L22.6205 6.10941V4.03804ZM12.6893 30.9035V19.3552C12.6893 19.0717 12.9211 18.8414 13.2063 18.8414H18.7931C19.0784 18.8414 19.3101 19.0717 19.3101 19.3552V30.9035H12.6893ZM28.1378 30.9035H20.4136V19.3552C20.4136 18.467 19.6869 17.7449 18.7931 17.7449H13.2063C12.3125 17.7449 11.5859 18.467 11.5859 19.3552V30.9035H3.86167V12.6969L15.9997 1.49624L28.1378 12.6964V30.9035Z" fill="white"/>
</svg>
