<svg width="34" height="34" viewBox="0 0 34 34" fill="none" xmlns="http://www.w3.org/2000/svg">
<path d="M9.80118 7.40087C9.32644 7.40087 8.86237 7.54164 8.46764 7.80539C8.07291 8.06914 7.76525 8.44402 7.58358 8.88262C7.4019 9.32122 7.35437 9.80384 7.44699 10.2695C7.5396 10.7351 7.76821 11.1628 8.1039 11.4985C8.43959 11.8342 8.86729 12.0628 9.3329 12.1554C9.79852 12.248 10.2811 12.2005 10.7197 12.0188C11.1583 11.8371 11.5332 11.5295 11.797 11.1347C12.0607 10.74 12.2015 10.2759 12.2015 9.80118C12.2015 9.16458 11.9486 8.55405 11.4985 8.1039C11.0483 7.65376 10.4378 7.40087 9.80118 7.40087ZM31.596 14.9379L18.1383 1.46409C17.9888 1.31578 17.8114 1.19844 17.6165 1.11881C17.4215 1.03917 17.2127 0.998809 17.0021 1.00003H2.60024C2.17583 1.00003 1.76881 1.16862 1.46872 1.46872C1.16862 1.76881 1.00003 2.17583 1.00003 2.60024V17.0021C0.998809 17.2127 1.03917 17.4215 1.11881 17.6165C1.19844 17.8114 1.31578 17.9888 1.46409 18.1383L14.9379 31.596C15.838 32.495 17.0581 33 18.3303 33C19.6025 33 20.8226 32.495 21.7227 31.596L31.596 21.8028C32.495 20.9026 33 19.6825 33 18.4103C33 17.1381 32.495 15.918 31.596 15.0179V14.9379ZM29.3397 19.4504L19.4504 29.3237C19.1506 29.6218 18.7451 29.7891 18.3223 29.7891C17.8995 29.7891 17.494 29.6218 17.1942 29.3237L4.20045 16.346V4.20045H16.346L29.3397 17.1942C29.4881 17.3437 29.6054 17.521 29.685 17.716C29.7647 17.9109 29.805 18.1197 29.8038 18.3303C29.802 18.7501 29.6354 19.1524 29.3397 19.4504Z" fill="white" stroke="#1AB248" stroke-width="2"/>
</svg>
