<svg width="258" height="701" viewBox="0 0 258 701" fill="none" xmlns="http://www.w3.org/2000/svg">
<path fill-rule="evenodd" clip-rule="evenodd" d="M76.5928 921.78L54.3736 895.732C32.1544 869.684 -12.2841 817.588 4.57392 781.916C21.4319 746.244 99.5863 726.996 130.066 694.974C160.545 662.952 143.349 618.155 119.343 571.534C95.3369 524.912 64.5199 476.466 74.5671 438.969C84.6144 401.472 135.526 374.925 166.005 342.903C196.485 310.88 206.532 273.384 209.769 234.062C213.005 194.74 209.431 153.593 233.1 119.746C256.768 85.8991 307.68 59.3518 365.402 34.6294C423.124 9.90696 487.657 -12.9905 511.326 -46.8376C534.995 -80.6846 517.799 -125.481 509.201 -147.88L500.603 -170.278L582.332 -148.379L577.308 -129.63C572.285 -110.882 562.238 -73.3849 552.19 -35.8881C542.143 1.60886 532.096 39.1058 522.048 76.6026C512.001 114.1 501.954 151.596 491.907 189.093C481.859 226.59 471.812 264.087 461.765 301.584C451.718 339.081 441.67 376.578 431.623 414.075C421.576 451.572 411.529 489.068 401.481 526.565C391.434 564.062 381.387 601.559 371.34 639.056C361.292 676.553 351.245 714.05 341.198 751.547C331.15 789.044 321.103 826.54 311.056 864.037C301.009 901.534 290.961 939.031 285.938 957.78L280.914 976.528L76.5928 921.78Z" fill="#1AB248"/>
</svg>
