<svg width="234" height="1191" viewBox="0 0 234 1191" fill="none" xmlns="http://www.w3.org/2000/svg">
<path fill-rule="evenodd" clip-rule="evenodd" d="M234.419 1179.13L204.546 1162.4C174.672 1145.68 114.926 1112.22 118.367 1072.92C121.809 1033.62 188.439 988.46 205.923 947.856C223.407 907.251 191.744 871.197 153.06 835.794C114.376 800.39 68.6713 765.636 65.0922 726.982C61.513 688.327 100.06 645.773 117.543 605.168C135.027 564.563 131.448 525.909 120.848 487.905C110.248 449.901 92.6265 412.547 103.089 372.592C113.552 332.638 152.098 290.083 197.666 246.878C243.233 203.673 295.821 159.818 306.284 119.863C316.747 79.9089 285.084 43.855 269.253 25.828L253.421 7.80111L337.672 -3.12317e-05L339.462 19.3271C341.252 38.6542 344.831 77.3085 348.41 115.963C351.989 154.617 355.568 193.271 359.147 231.926C362.726 270.58 366.306 309.234 369.885 347.889C373.464 386.543 377.043 425.197 380.622 463.851C384.201 502.506 387.78 541.16 391.36 579.814C394.939 618.469 398.518 657.123 402.097 695.777C405.676 734.431 409.255 773.086 412.835 811.74C416.414 850.394 419.993 889.049 423.572 927.703C427.151 966.357 430.73 1005.01 434.309 1043.67C437.889 1082.32 441.468 1120.97 443.257 1140.3L445.047 1159.63L234.419 1179.13Z" fill="#1AB248"/>
</svg>
