<svg width="282" height="902" viewBox="0 0 282 902" fill="none" xmlns="http://www.w3.org/2000/svg">
<path fill-rule="evenodd" clip-rule="evenodd" d="M203.035 859.164L225.259 838.841C247.483 818.518 291.931 777.871 279.096 749.802C266.262 721.732 196.145 706.24 170.581 680.965C145.017 655.69 164.006 620.633 189.36 584.179C214.713 547.725 246.431 509.873 239.962 480.406C233.492 450.939 188.834 429.857 163.27 404.582C137.706 379.308 131.236 349.841 131.131 318.976C131.026 288.112 137.285 255.85 118.086 229.178C98.887 202.505 54.2291 181.423 3.20651 161.738C-47.816 142.053 -105.203 123.766 -124.403 97.0936C-143.602 70.4215 -124.613 35.3647 -115.118 17.8363L-105.624 0.307935L-182 17.0772L-178.765 31.8108C-175.53 46.5443 -169.06 76.0113 -162.591 105.478C-156.121 134.945 -149.651 164.412 -143.181 193.879C-136.711 223.346 -130.241 252.813 -123.771 282.28C-117.302 311.747 -110.832 341.214 -104.362 370.681C-97.8921 400.148 -91.4223 429.615 -84.9524 459.082C-78.4826 488.55 -72.0128 518.017 -65.5429 547.484C-59.0731 576.951 -52.6032 606.418 -46.1334 635.885C-39.6635 665.352 -33.1937 694.819 -26.7239 724.286C-20.254 753.753 -13.7842 783.22 -7.31433 812.687C-0.844487 842.154 5.62536 871.621 8.86028 886.354L12.0952 901.088L203.035 859.164Z" fill="#2ACC5B"/>
</svg>
