<svg width="862" height="521" viewBox="0 0 862 521" fill="none" xmlns="http://www.w3.org/2000/svg">
<path fill-rule="evenodd" clip-rule="evenodd" d="M0.406651 296.023L32.2263 289.554C64.6464 282.964 128.286 270.027 187.723 233.345C118.429 221.538 247.161 196.663 187.723 233.345C256.765 243.909 339.866 326.706 399.051 288.781C458.489 252.099 493.062 96.1814 547.697 35.8766C602.08 -25.6715 675.576 9.88042 744.618 20.4441C813.66 31.0078 877.299 18.0707 909.719 11.4801L941.539 5.01154L1014.33 363.084L982.511 369.552C950.091 376.143 886.452 389.08 822.212 402.139C757.972 415.198 694.333 428.135 630.093 441.194C565.854 454.254 502.214 467.191 437.975 480.25C373.735 493.309 310.095 506.246 245.856 519.305C181.616 532.364 300.491 459.001 236.251 472.06C172.011 485.119 108.372 498.056 75.9519 504.646L44.1322 511.115L0.406651 296.023Z" fill="#1AB248"/>
</svg>
