<svg width="74" height="66" viewBox="0 0 74 66" fill="none" xmlns="http://www.w3.org/2000/svg">
<g clip-path="url(#clip0)">
<path d="M59.1426 0.800003H24.1426V27.1H59.1426V0.800003Z" fill="#1AB248"/>
<path d="M21.1428 27.1C21.5428 27.1 21.9428 26.8 21.9428 26.3V1.5H38.4428V5C38.4428 5.4 38.7428 5.8 39.2428 5.8C39.6428 5.8 40.0428 5.5 40.0428 5V1.5H55.4428V30.2C55.4428 30.6 55.7428 31 56.2428 31C56.6428 31 57.0428 30.7 57.0428 30.2V0.8C57.0428 0.4 56.7428 0 56.2428 0H21.1428C20.7428 0 20.3428 0.3 20.3428 0.8V26.4C20.3428 26.8 20.7428 27.1 21.1428 27.1Z" fill="#13182B"/>
<path d="M72.5428 30.1C71.1428 27.9 68.4428 27.9 66.5428 28.9L42.0428 41.7H26.3428L26.2428 38.1L41.2428 37.8C42.4428 37.7 43.4428 37.2 44.2428 36.3C45.0428 35.4 45.3428 34.3 45.2428 33.1C45.1428 31.9 44.6428 30.9 43.7428 30.1C42.8428 29.3 41.7428 29 40.6428 29.1L27.8428 29L17.9428 29.1H12.3428C12.1428 29.1 11.9428 29.2 11.7428 29.3L0.642773 41.3C0.542773 41.4 0.442773 41.6 0.442773 41.8L0.342773 64.3C0.342773 64.6 0.542773 64.9 0.742773 65C0.842773 65 0.942773 65.1 1.04277 65.1C1.24277 65.1 1.44277 65 1.54277 64.9L14.4428 53.1H42.0428C42.1428 53.1 42.3428 53.1 42.4428 53L70.6428 35.9C73.0428 34.2 73.8428 31.9 72.5428 30.1ZM69.8428 34.6L41.8428 51.5H14.1428C13.9428 51.5 13.7428 51.6 13.6428 51.7L1.84277 62.6L1.94277 42.3L12.6428 30.8H17.9428L27.1428 30.7L40.6428 30.8C41.4428 30.7 42.1428 31 42.7428 31.5C43.3428 32 43.6428 32.7 43.7428 33.4C43.8428 34.2 43.5428 34.9 43.0428 35.5C42.5428 36.1 41.8428 36.4 41.1428 36.5L25.4428 36.8C25.2428 36.8 25.0428 36.9 24.9428 37C24.8428 37.1 24.7428 37.3 24.7428 37.5L24.9428 42.6C24.9428 43 25.2428 43.3 25.6428 43.3H42.1428C42.2428 43.3 42.3428 43.3 42.4428 43.2L67.1428 30.3C68.5428 29.6 70.2428 29.6 71.1428 31C72.2428 32.3 71.1428 33.7 69.8428 34.6Z" fill="#13182B"/>
</g>
<defs>
<clipPath id="clip0">
<rect width="72.8" height="65.1" fill="white" transform="translate(0.342773)"/>
</clipPath>
</defs>
</svg>
