<svg width="72" height="52" viewBox="0 0 72 52" fill="none" xmlns="http://www.w3.org/2000/svg">
<path d="M23.3426 44.2C23.3426 40.8 20.5426 38.1 17.2426 38.1C13.8426 38.1 11.1426 40.9 11.1426 44.2C11.1426 47.6 13.9426 50.3 17.2426 50.3C20.6426 50.3 23.3426 47.6 23.3426 44.2Z" fill="#1AB248"/>
<path d="M66.9432 44.2C66.9432 40.8 64.1432 38.1 60.8432 38.1C57.4432 38.1 54.7432 40.9 54.7432 44.2C54.7432 47.6 57.5432 50.3 60.8432 50.3C64.2432 50.3 66.9432 47.6 66.9432 44.2Z" fill="#1AB248"/>
<path d="M57.8428 37.3C54.3428 37.3 51.3428 40 50.9428 43.4H45.2428V0.8C45.2428 0.4 44.9428 0 44.4428 0H1.14277C0.642773 0 0.342773 0.3 0.342773 0.8V44.2C0.342773 44.6 0.642773 45 1.14277 45H7.34277C7.74277 48.4 10.6428 51.1 14.2428 51.1C18.0428 51.1 21.1428 48 21.1428 44.2C21.1428 40.4 18.0428 37.3 14.2428 37.3C10.7428 37.3 7.74277 40 7.34277 43.4H1.84277V35.6H43.7428V43.4H24.7428C24.3428 43.4 23.9428 43.7 23.9428 44.2C23.9428 44.6 24.2428 45 24.7428 45H44.5428H50.9428C51.3428 48.4 54.2428 51.1 57.8428 51.1C61.6428 51.1 64.7428 48 64.7428 44.2C64.7428 40.4 61.6428 37.3 57.8428 37.3ZM14.2428 38.8C17.2428 38.8 19.6428 41.2 19.6428 44.2C19.6428 47.2 17.2428 49.6 14.2428 49.6C11.2428 49.6 8.84277 47.2 8.84277 44.2C8.84277 41.2 11.2428 38.8 14.2428 38.8ZM1.84277 34.1V1.5H43.7428V34.1H1.84277ZM57.8428 49.6C54.8428 49.6 52.4428 47.2 52.4428 44.2C52.4428 41.2 54.8428 38.8 57.8428 38.8C60.8428 38.8 63.2428 41.2 63.2428 44.2C63.2428 47.2 60.7428 49.6 57.8428 49.6Z" fill="#13182B"/>
<path d="M71.8428 27.6V27.5L65.6428 13.5C65.6428 13.5 65.6428 13.4 65.5428 13.4C65.5428 13.3 65.4428 13.3 65.4428 13.3L65.3428 13.2L65.2428 13.1C65.1428 13.1 65.1428 13.1 65.0428 13.1C65.0428 13.1 65.0428 13.1 64.9428 13.1H48.6428C48.2428 13.1 47.8428 13.4 47.8428 13.9C47.8428 14.3 48.1428 14.7 48.6428 14.7H64.3428L69.8428 27.2H48.6428C48.2428 27.2 47.8428 27.5 47.8428 28C47.8428 28.4 48.1428 28.8 48.6428 28.8H70.3428V43.7H68.3428C67.9428 43.7 67.5428 44 67.5428 44.5C67.5428 44.9 67.8428 45.3 68.3428 45.3H71.1428C71.5428 45.3 71.9428 45 71.9428 44.5V27.8C71.8428 27.7 71.8428 27.7 71.8428 27.6Z" fill="#13182B"/>
</svg>
