<svg width="56" height="70" viewBox="0 0 56 70" fill="none" xmlns="http://www.w3.org/2000/svg">
<g clip-path="url(#clip0)">
<path d="M23.0996 54.6V44.4L30.3996 45.4L23.0996 54.6Z" fill="#1AB248"/>
<path d="M37.8 54.6V44.4L30 45.4L37.8 54.6Z" fill="#1AB248"/>
<path d="M34.1002 40.6C34.1002 39.1 32.9002 37.9 31.4002 37.9C29.9002 37.9 28.7002 39.1 28.7002 40.6C28.7002 42.1 29.9002 43.3 31.4002 43.3C32.9002 43.3 34.1002 42.1 34.1002 40.6Z" fill="#1AB248"/>
<path d="M54.9 49.5L35 43.7H34.9H34.8C34.8 43.7 34.8 43.7 34.7 43.7L27.5 44.7L23.2 44.1C23.3 43.1 23.4 42.1 23.4 41.1C23.4 40.4 23.4 39.9 23.3 39.5C23.7 39.7 24 39.8 24.4 39.9C24.5 39.9 24.6 39.9 24.6 39.9C24.9 39.9 25.2 39.7 25.3 39.4C25.4 39 25.2 38.6 24.8 38.5C18.5 36.4 14.3 26.3 14.3 18.2C14.3 17.6 14.3 17.1 14.4 16.5C16.7 14.9 19.1 14 21.5 14C23.5 14 24.9 14.6 26.6 15.3C27.9 15.9 29.5 16.5 31.6 16.9C33 17.2 34.4 17.3 35.8 17.3C37.3 17.3 38.9 17.1 40.5 16.8C40.5 17.2 40.6 17.7 40.6 18.2C40.6 24.8 37.6 32.1 33.3 36.1C33 36.4 33 36.9 33.3 37.2C33.6 37.5 34.1 37.5 34.4 37.2C39 33 42.1 25.2 42.1 18.2C42.1 12.9 40.2 8.60001 36.7 6.00001C34.2 4.10001 30.9 3.20001 27.2 3.20001C23.5 3.20001 20.2 4.20001 17.8 6.20001C14.6 8.80001 13 12.9 13 18.2C13 25.7 16.4 34.7 21.8 38.5C21.8 38.6 21.8 38.8 21.9 38.9C22 39.5 22.1 39.9 22.1 41.1C22.1 42 22 43 21.9 43.9L20.4 43.7C20.4 43.7 20.4 43.7 20.3 43.7H20.2H20.1L0.5 49.5C0.2 49.6 0 49.9 0 50.2V68.3C0 68.7 0.3 69.1 0.8 69.1H16.1H17.5H31.9H34.1H54.8C55.2 69.1 55.6 68.8 55.6 68.3V50.2C55.5 49.9 55.3 49.6 54.9 49.5ZM18.7 7.30001C20.8 5.60001 23.7 4.60001 27.1 4.60001C30.5 4.60001 33.4 5.50001 35.7 7.10001C38.2 8.90001 39.8 11.7 40.3 15.2C37.4 15.8 34.5 15.8 31.9 15.3C30 14.9 28.6 14.3 27.2 13.8C25.5 13.1 23.9 12.4 21.6 12.4C21.6 12.4 21.6 12.4 21.5 12.4C19.2 12.4 16.9 13.1 14.7 14.4C15.3 11.5 16.6 9.00001 18.7 7.30001ZM28.9 46L34.1 45.3V52.5L28.9 46ZM20.9 45.3L26 46L20.8 52.4V45.3H20.9ZM31.9 67.6H17.5H16.1H1.5V50.8L19.4 45.4V54.6C19.4 54.7 19.4 54.7 19.4 54.8V54.9L19.5 55L19.6 55.1C19.6 55.1 19.7 55.1 19.7 55.2H19.8C19.9 55.2 20 55.3 20.1 55.3C20.2 55.3 20.3 55.3 20.4 55.2C20.4 55.2 20.4 55.2 20.5 55.2C20.6 55.2 20.6 55.1 20.7 55.1L27.5 46.7L34.3 55.1C34.4 55.2 34.4 55.2 34.5 55.2C34.5 55.2 34.5 55.2 34.6 55.2C34.7 55.2 34.8 55.3 34.9 55.3C35 55.3 35.1 55.3 35.2 55.2H35.3C35.3 55.2 35.4 55.2 35.4 55.1L35.5 55L35.6 54.9V54.8C35.6 54.7 35.6 54.7 35.6 54.6V45.4L54 50.8V67.6H34.1H31.9Z" fill="#13182B"/>
<path d="M11.1 27C11.5 27 11.9 26.7 11.9 26.2V20.1V16.5C11.8 12.4 13.1 8.8 15.8 6.1C18.7 3.1 22.9 1.5 27.6 1.5C32.2 1.5 36.3 3.1 39.2 6.1C41.8 8.8 43.2 12.5 43.1 16.5C43.1 16.9 43.4 17.3 43.8 17.3C44.2 17.3 44.5 17 44.6 16.6C44.7 12.2 43.2 8.1 40.3 5.1C37 1.8 32.5 0 27.5 0C22.4 0 17.8 1.8 14.6 5.1C11.7 8.1 10.2 12.2 10.3 16.6V20.2V25.5C9 25.2 8.1 24 8.1 22.7V17.3C8.1 16.9 7.8 16.5 7.3 16.5C6.9 16.5 6.5 16.8 6.5 17.3V22.7C6.7 25 8.6 27 11.1 27Z" fill="#13182B"/>
<path d="M43.8004 21.7C43.4004 21.7 43.0004 22 43.0004 22.5V25.7C43.2004 32.4 38.5004 38.2 32.0004 39.5C31.6004 38.4 30.5004 37.7 29.3004 37.7C27.7004 37.7 26.4004 39 26.4004 40.6C26.4004 42.2 27.7004 43.5 29.3004 43.5C30.7004 43.5 31.9004 42.5 32.1004 41.1C39.0004 39.8 44.1004 33.9 44.4004 26.9C46.5004 26.6 48.1004 24.7 48.1004 22.5V17.1C48.1004 16.7 47.8004 16.3 47.3004 16.3C46.8004 16.3 46.5004 16.6 46.5004 17.1V22.5C46.5004 23.9 45.6004 25 44.3004 25.3V22.4C44.5004 22.1 44.2004 21.7 43.8004 21.7ZM29.4004 42C28.6004 42 28.0004 41.4 28.0004 40.6C28.0004 39.8 28.6004 39.2 29.4004 39.2C30.2004 39.2 30.8004 39.8 30.8004 40.6C30.7004 41.4 30.1004 42 29.4004 42Z" fill="#13182B"/>
</g>
<defs>
<clipPath id="clip0">
<rect width="55.5" height="69.1" fill="white"/>
</clipPath>
</defs>
</svg>
