<svg width="241" height="458" viewBox="0 0 241 458" fill="none" xmlns="http://www.w3.org/2000/svg">
<mask id="mask0" mask-type="alpha" maskUnits="userSpaceOnUse" x="0" y="0" width="241" height="458">
<rect width="241" height="458" transform="matrix(-1 0 0 1 241 0)" fill="#C4C4C4"/>
</mask>
<g mask="url(#mask0)">
<path fill-rule="evenodd" clip-rule="evenodd" d="M-187.726 756.869L-154.213 749.865C-120.7 742.861 -53.673 728.853 -45.176 690.324C-36.6789 651.795 -86.7116 588.745 -91.2212 544.767C-95.7308 500.789 -54.7173 475.883 -7.20047 453.701C40.3163 431.52 94.3364 412.063 109.337 376.258C124.337 340.454 100.318 288.302 95.808 244.324C91.2984 200.346 106.299 164.542 127.802 131.462C149.306 98.3819 177.313 68.0266 179.307 26.7731C181.3 -14.4805 157.281 -66.6323 126.758 -121.509C96.2353 -176.385 59.2092 -233.986 61.2029 -275.24C63.1966 -316.493 104.21 -341.399 124.717 -353.852L145.224 -366.305L67.1841 -399L59.6839 -381.098C52.1838 -363.196 37.1834 -327.391 22.1831 -291.587C7.18281 -255.782 -7.8175 -219.978 -22.8178 -184.174C-37.8181 -148.369 -52.8184 -112.565 -67.8187 -76.7605C-82.8191 -40.9561 -97.8194 -5.15169 -112.82 30.6527C-127.82 66.4571 -142.82 102.262 -157.821 138.066C-172.821 173.87 -187.821 209.675 -202.822 245.479C-217.822 281.284 -232.822 317.088 -247.822 352.892C-262.823 388.697 -277.823 424.501 -292.823 460.306C-307.824 496.11 -322.824 531.914 -337.824 567.719C-352.825 603.523 -367.825 639.328 -375.325 657.23L-382.825 675.132L-187.726 756.869Z" fill="#1AB248"/>
</g>
</svg>
