<svg width="43" height="50" viewBox="0 0 43 50" fill="none" xmlns="http://www.w3.org/2000/svg">
<path d="M42.4953 21.393C42.7438 9.45274 33.0519 0 21.3719 0C9.69192 0 0 9.45274 0 21.393C0 30.3483 5.46723 38.0597 13.1711 41.0448L10.686 45.0249H7.20681C5.96426 45.0249 4.7217 46.0199 4.7217 47.5124C4.7217 48.7562 5.71575 50 7.20681 50H35.537C36.7796 50 38.0221 49.005 38.0221 47.5124C38.0221 46.0199 36.7796 45.0249 35.537 45.0249H31.8094L29.3243 41.0448C37.0281 37.8109 42.4953 30.3483 42.4953 21.393ZM21.3719 4.72637C22.6145 4.72637 23.857 5.72139 23.857 7.21393C23.857 8.45771 22.863 9.70149 21.3719 9.70149C19.8809 9.70149 18.8868 8.70647 18.8868 7.21393C18.8868 5.72139 20.1294 4.72637 21.3719 4.72637ZM21.3719 38.0597C14.6621 38.0597 9.44341 32.5871 9.44341 26.1194C9.44341 19.6517 14.6621 14.1791 21.3719 14.1791C28.0817 14.1791 33.3004 19.403 33.3004 26.1194C33.3004 32.5871 28.0817 38.0597 21.3719 38.0597Z" fill="#222222"/>
</svg>
