<svg width="17" height="17" viewBox="0 0 17 17" fill="none" xmlns="http://www.w3.org/2000/svg">
<mask id="path-1-inside-1" fill="white">
<path fill-rule="evenodd" clip-rule="evenodd" d="M17 0H0V13.0711H7.56057L7.49903 17L13.4264 13.0711H17V0Z"/>
</mask>
<path d="M0 0V-1.5H-1.5V0H0ZM17 0H18.5V-1.5H17V0ZM0 13.0711H-1.5V14.5711H0V13.0711ZM7.56057 13.0711L9.06038 13.0946L9.08424 11.5711H7.56057V13.0711ZM7.49903 17L5.99922 16.9765L5.95463 19.8233L8.32778 18.2503L7.49903 17ZM13.4264 13.0711V11.5711H12.9744L12.5976 11.8208L13.4264 13.0711ZM17 13.0711V14.5711H18.5V13.0711H17ZM0 1.5H17V-1.5H0V1.5ZM1.5 13.0711V0H-1.5V13.0711H1.5ZM7.56057 11.5711H0V14.5711H7.56057V11.5711ZM6.06075 13.0476L5.99922 16.9765L8.99885 17.0235L9.06038 13.0946L6.06075 13.0476ZM8.32778 18.2503L14.2551 14.3213L12.5976 11.8208L6.67029 15.7497L8.32778 18.2503ZM17 11.5711H13.4264V14.5711H17V11.5711ZM15.5 0V13.0711H18.5V0H15.5Z" fill="#1AB248" mask="url(#path-1-inside-1)"/>
</svg>
