<svg width="170" height="1180" viewBox="0 0 170 1180" fill="none" xmlns="http://www.w3.org/2000/svg">
<path fill-rule="evenodd" clip-rule="evenodd" d="M170.419 1179.13L140.546 1162.4C110.672 1145.68 50.9256 1112.22 54.3673 1072.92C57.8091 1033.62 124.439 988.46 141.923 947.856C159.407 907.251 127.744 871.197 89.0599 835.794C50.3761 800.39 4.67135 765.636 1.0922 726.982C-2.48695 688.327 36.0595 645.773 53.5432 605.168C71.0268 564.563 67.4477 525.909 56.8476 487.905C46.2475 449.901 28.6265 412.547 39.0892 372.592C49.5519 332.638 88.0984 290.083 133.666 246.878C179.233 203.673 231.821 159.818 242.284 119.863C252.747 79.9089 221.084 43.855 205.253 25.828L189.421 7.80111L273.672 -3.12317e-05L275.462 19.3271C277.252 38.6542 280.831 77.3085 284.41 115.963C287.989 154.617 291.568 193.271 295.147 231.926C298.726 270.58 302.306 309.234 305.885 347.889C309.464 386.543 313.043 425.197 316.622 463.851C320.201 502.506 323.78 541.16 327.36 579.814C330.939 618.469 334.518 657.123 338.097 695.777C341.676 734.431 345.255 773.086 348.835 811.74C352.414 850.394 355.993 889.049 359.572 927.703C363.151 966.357 366.73 1005.01 370.309 1043.67C373.889 1082.32 377.468 1120.97 379.257 1140.3L381.047 1159.63L170.419 1179.13Z" fill="#1AB248"/>
</svg>
