<svg width="181" height="1040" viewBox="0 0 181 1040" fill="none" xmlns="http://www.w3.org/2000/svg">
<path fill-rule="evenodd" clip-rule="evenodd" d="M-115.184 1021.96L-112.608 992.321C-109.983 962.123 -104.831 902.845 -77.5743 844.925C-50.318 787.006 0.105373 731.663 -17.9092 669.809C-34.763 608.055 -118.991 541.008 -90.5741 483.189C-63.3179 425.27 75.3255 377.596 124.637 321.593C175.109 265.692 134.991 202.479 118.137 140.725C101.283 78.9713 106.436 19.6938 109.061 -10.5042C109.061 -10.5042 111.657 -28.5246 111.637 -40.143C111.411 -171.19 -222.671 -69.2022 -222.671 -69.2022L-225.247 -39.5634C-227.872 -9.36544 -233.024 49.9121 -238.226 109.749C-243.427 169.586 -248.579 228.863 -253.781 288.7C-258.982 348.536 -264.135 407.814 -269.336 467.651C-274.537 527.487 -279.69 586.765 -284.891 646.602C-290.092 706.438 -295.245 765.716 -300.446 825.553C-305.647 885.389 -310.8 944.667 -313.425 974.865L-316.001 1004.5L-115.184 1021.96Z" fill="#1AB248"/>
</svg>
