<svg width="58" height="55" viewBox="0 0 58 55" fill="none" xmlns="http://www.w3.org/2000/svg">
<path fill-rule="evenodd" clip-rule="evenodd" d="M2.67589 0H58.0001V50.5036C52.6342 53.1582 46.5907 54.6501 40.1987 54.6501C17.9976 54.6501 0 36.6526 0 14.4515C0 9.35746 0.947505 4.48477 2.67589 0Z" fill="#2ACC5B"/>
<path d="M45.6784 13.8372L28.3572 31.4377L19.5715 22.5104C19.2324 22.1776 18.6921 22.1871 18.3646 22.5316C18.0451 22.8677 18.0451 23.4006 18.3646 23.7368L27.7537 33.2773C28.087 33.6159 28.6273 33.6159 28.9606 33.2773L46.8853 15.0636C47.2129 14.719 47.2035 14.17 46.8644 13.8372C46.5336 13.5126 46.0092 13.5126 45.6784 13.8372Z" fill="white"/>
</svg>
