<svg width="139" height="168" viewBox="0 0 139 168" fill="none" xmlns="http://www.w3.org/2000/svg">
<path d="M62.8071 34.3101C62.8071 34.6388 64.8802 39.1859 66.3531 42.4C66.8986 43.587 68.5898 43.5139 69.0444 42.2904L71.9539 34.3101H62.8071Z" fill="#2ACC5B"/>
<path d="M73.9908 36.4102H60.498C53.3515 36.4102 47.4961 30.5299 47.4961 23.3531V13.7658C47.4961 6.58898 53.3515 0.70874 60.498 0.70874H73.9908C81.1373 0.70874 86.9927 6.58898 86.9927 13.7658V23.3531C86.9927 30.5299 81.1373 36.4102 73.9908 36.4102Z" fill="#1AB248"/>
<path d="M71.0997 36.4102H57.6068C50.4604 36.4102 44.605 30.5299 44.605 23.3531V13.7658C44.605 6.58898 50.4604 0.70874 57.6068 0.70874H71.0997C78.2644 0.70874 84.1016 6.58898 84.1016 13.7658V23.3531C84.1016 30.5299 78.2644 36.4102 71.0997 36.4102Z" fill="#2ACC5B"/>
<path d="M58.2793 15.6285L63.5164 24.7228L70.4629 11.4648" stroke="white" stroke-miterlimit="10" stroke-linecap="round" stroke-linejoin="round"/>
<path d="M67.9534 114.351L121.707 83.1782L67.9534 52.0239L14.2002 83.1782L67.9534 114.351Z" fill="#F9CA91"/>
<path d="M67.9536 114.332L121.725 83.1599L67.9718 52.0056L67.9536 114.332Z" fill="#BE8C4F"/>
<path d="M103.341 110.571L117.725 102.042V92.2908L103.341 100.801V110.571Z" fill="#A17B51"/>
<path d="M121.434 83.1598L139 72.0385L85.0286 39.8616L67.6807 52.0055L121.434 83.1598Z" fill="#D8A05E"/>
<path d="M67.9537 52.0238L53.4425 42.3269L0.0893555 73.3716L14.2005 83.1781L67.9537 52.0238Z" fill="#D8A05E"/>
<path d="M109.396 85.7897V99.5407V103.85V117.601L77.2822 136.228V122.477V98.9746V85.2236L109.396 85.7897Z" fill="#1257B3"/>
<path d="M62.4805 76.7317V85.4973L77.2826 85.2233V98.9743V122.477V136.228L62.4805 127.645V127.736L30.3486 109.11V95.3585V91.0488V77.2978L62.4805 76.7317Z" fill="#246FD1"/>
<path d="M30.2578 77.3345L62.4806 58.6528L109.487 85.8261L77.2827 104.508L30.2578 77.3345Z" fill="#3D89ED"/>
<path d="M121.561 83.1416V106.078V113.273V136.228L67.9536 167.291V144.355V114.351L121.561 83.1416Z" fill="#D8A05E"/>
<path d="M67.9539 114.351V144.355V167.291L14.3462 136.228V113.273V106.078V83.1416L67.9539 114.351Z" fill="#E7B67B"/>
<path d="M67.9537 114.351L54.8427 123.481L0.0893555 92.3088L14.2005 83.178L67.9537 114.351Z" fill="#F3C792"/>
<path d="M121.707 83.178L136.382 93.514L80.119 126.75L67.9536 114.351L121.707 83.178Z" fill="#E7B67B"/>
<path d="M34.4761 142.017L43.8047 147.477V135.735L34.4761 130.257V142.017Z" stroke="#BA8C66" stroke-width="0.8" stroke-miterlimit="10" stroke-linecap="round" stroke-linejoin="round"/>
<path d="M25.166 136.539L34.4764 142.017V130.257L25.166 124.797V136.539Z" stroke="#BA8C66" stroke-width="0.8" stroke-miterlimit="10" stroke-linecap="round" stroke-linejoin="round"/>
<path d="M15.8369 131.078L25.1655 136.539V124.796L15.8369 119.318V131.078Z" stroke="#BA8C66" stroke-width="0.8" stroke-miterlimit="10" stroke-linecap="round" stroke-linejoin="round"/>
<path d="M20.3828 125.819V131.772" stroke="#BA8C66" stroke-width="0.8" stroke-miterlimit="10" stroke-linecap="round" stroke-linejoin="round"/>
<path d="M21.5653 128.047L20.3833 125.235L19.2559 126.696" stroke="#BA8C66" stroke-width="0.8" stroke-miterlimit="10" stroke-linecap="round" stroke-linejoin="round"/>
<path d="M32.4944 135.333C32.4944 135.333 32.4398 132.083 30.3122 130.841C28.2028 129.599 28.021 132.704 28.021 132.704L32.4944 135.333Z" stroke="#BA8C66" stroke-width="0.8" stroke-miterlimit="10" stroke-linecap="round" stroke-linejoin="round"/>
<path d="M36.9131 134.694C36.9131 134.694 36.9676 137.945 39.0952 139.187C41.2046 140.429 41.3865 137.324 41.3865 137.324L36.9131 134.694Z" stroke="#BA8C66" stroke-width="0.8" stroke-miterlimit="10" stroke-linecap="round" stroke-linejoin="round"/>
<path d="M30.3847 134.986V137.397C30.3847 137.835 30.112 138.018 29.7483 137.817C29.4028 137.616 29.1118 137.086 29.1118 136.648V136.301" stroke="#BA8C66" stroke-width="0.8" stroke-miterlimit="10" stroke-linecap="round" stroke-linejoin="round"/>
<path d="M39.0771 139.187V142.748" stroke="#BA8C66" stroke-width="0.8" stroke-miterlimit="10" stroke-linecap="round" stroke-linejoin="round"/>
<path d="M40.5682 143.807L37.5859 142.072" stroke="#BA8C66" stroke-width="0.8" stroke-miterlimit="10" stroke-linecap="round" stroke-linejoin="round"/>
<path d="M43.8047 69.4821L90.4478 96.8745L98.3398 92.2908L50.9512 65.3367L43.8047 69.4821Z" fill="#529CFF"/>
<path d="M47.5327 67.3088L94.4849 94.6099" stroke="#1257B3" stroke-width="0.8" stroke-miterlimit="10" stroke-linecap="round" stroke-linejoin="round"/>
</svg>
