<svg width="142" height="133" viewBox="0 0 142 133" fill="none" xmlns="http://www.w3.org/2000/svg">
<g clip-path="url(#clip0)">
<path d="M136.167 37.96C136.063 38.9774 135.871 39.9948 135.644 40.9772C135.609 41.1175 135.574 41.2754 135.539 41.4157C135.277 42.5384 134.98 43.661 134.753 44.7837C134.334 46.8536 134.037 48.7481 133.408 51.4846C132.448 56.2909 131.488 61.0973 130.527 65.9037C129.829 69.3769 129.13 72.8502 128.449 76.3234C126.039 75.7971 123.63 75.2709 121.22 74.7096C112.332 72.6923 103.479 70.5347 94.643 68.2718C85.8423 66.009 77.0939 63.5531 68.328 61.1324C59.4748 58.6766 50.5693 56.3786 41.6812 54.0807C32.7756 51.7828 23.8875 49.4673 15.0343 46.9764C14.9994 46.9588 14.9645 46.9588 14.9121 46.9413C16.2916 40.4334 17.6711 33.9255 19.0331 27.4175L20.9714 18.2082C21.3905 16.2436 22.6652 10.5952 23.6605 10.9285C25.0225 11.3846 27.0132 11.6302 28.4101 11.9985C29.6849 12.3318 30.9596 12.6651 32.2343 12.9984C32.2343 12.9633 32.2518 12.9282 32.2518 12.8931C32.2867 12.7528 32.3216 12.5949 32.3391 12.4546C32.8804 10.0163 33.8059 6.91148 34.5393 7.1746C35.814 7.63068 37.5776 7.99905 38.8873 8.36743C41.3669 9.05155 43.8464 9.73567 46.3435 10.4198C49.7136 11.3495 53.0838 12.2792 56.4539 13.2089C60.4352 14.314 64.4165 15.4016 68.3978 16.5067C72.7284 17.6995 77.0589 18.8924 81.372 20.0852C85.7724 21.2955 90.1728 22.5059 94.5732 23.7338C98.7815 24.8916 102.99 26.0493 107.198 27.2246C110.935 28.2595 114.689 29.2945 118.426 30.3294C121.43 31.1539 124.433 31.9959 127.454 32.8203C129.008 33.2413 130.527 33.6623 132.116 33.9605C133.286 34.171 134.997 34.3114 135.871 35.2411C136.464 35.8726 136.255 37.1706 136.167 37.96Z" fill="#E3F2FF"/>
<path d="M135.643 40.9772C135.608 41.1175 135.573 41.2754 135.539 41.4157C131.173 40.2404 126.79 39.0476 122.425 37.8548C114.305 35.6446 106.185 33.3992 98.0828 31.1364C89.9805 28.8735 81.8957 26.5931 73.8283 24.2601C66.0752 22.0323 58.2872 19.9098 50.4818 17.8574C44.405 16.2611 38.3109 14.6649 32.269 12.9107C32.304 12.7704 32.3389 12.6125 32.3564 12.4722C39.376 14.5245 46.4655 16.3489 53.5551 18.2083C61.3954 20.2606 69.2009 22.4708 77.0064 24.6986C85.0912 27.0141 93.176 29.2945 101.278 31.5574C109.398 33.8202 117.518 36.048 125.638 38.2582C128.973 39.1704 132.308 40.0826 135.643 40.9772Z" fill="#9ABBD6" stroke="#9ABBD6" stroke-width="0.5"/>
<path d="M141.04 38.3108C134.614 31.8204 128.188 25.33 121.762 18.8397C118.531 15.5945 115.318 12.3317 112.088 9.08655C110.446 7.43764 108.805 5.7712 107.146 4.12229C106.308 3.2803 105.452 2.4383 104.614 1.59631C104.125 1.10514 103.724 0.403481 103.077 0.105275C102.362 -0.210473 101.541 0.315773 100.947 0.719229C100.196 1.24548 99.5676 1.9296 98.9215 2.56109C97.7865 3.68375 96.5118 4.66608 95.3418 5.73611C92.5654 8.2621 90.016 10.9986 87.3443 13.6474C84.3758 16.5768 81.3549 19.4361 78.3514 22.3129C75.0861 25.4528 71.8905 28.6454 68.695 31.8555C65.5169 35.0305 62.3389 38.2231 59.1608 41.3981C57.5369 43.0119 55.9304 44.6433 54.3064 46.2571C53.2413 47.3271 51.984 48.4498 51.3903 49.8882C51.2681 50.1689 51.1633 50.4671 51.1982 50.7653C51.2506 51.1687 51.4951 51.6423 51.6871 51.9932C52.0888 52.7475 52.665 53.414 53.2762 54.0105C53.9747 54.6946 54.708 55.3261 55.4065 55.9927C56.2272 56.782 57.0305 57.5889 57.8163 58.4134C61.0642 61.7287 64.3645 65.009 67.6298 68.3068C70.8952 71.5871 74.1431 74.8674 77.391 78.1652C80.4643 81.27 83.4852 84.4275 86.5934 87.5148C87.5538 88.4621 88.5841 89.4795 89.789 90.111C90.1731 90.3039 90.6097 90.4969 91.0462 90.3916C91.9368 90.1636 92.6352 89.3742 93.2464 88.7427C96.4943 85.4449 99.7597 82.1822 103.043 78.937C109.626 72.394 116.261 65.9212 122.862 59.3782C129.026 53.2562 135.155 47.0991 141.144 40.8192C141.406 40.5561 141.93 40.1526 141.982 39.7492C142.07 39.2054 141.354 38.6265 141.04 38.3108Z" fill="#9ABBD6"/>
<path d="M123.595 22.2603C123.595 22.2428 123.595 22.2428 123.595 22.2252C123.56 22.0673 123.455 21.9621 123.333 21.8744C123.211 21.8042 123.089 21.7691 122.966 21.7516C121.727 21.7165 120.522 22.0849 119.317 22.3831C118.164 22.6638 117.047 23.0321 115.947 23.4356C113.869 24.2074 111.826 25.0143 110.01 26.3124C109.451 26.6983 108.927 27.1193 108.403 27.5403C107.67 28.1367 106.971 28.7507 106.29 29.3997C105.365 30.2768 104.492 31.224 103.671 32.1888C103.566 32.3116 103.462 32.4344 103.357 32.5747C103.147 32.8203 102.955 33.0659 102.746 33.329C101.995 34.2763 101.296 35.241 100.633 36.2409C100.423 36.5567 100.231 36.8549 100.022 37.1706C98.8516 38.9949 97.7515 40.907 97.2975 43.047C97.2277 43.3803 97.3848 43.6435 97.6118 43.7662C97.5769 43.8539 97.5594 43.9417 97.5594 44.0118C97.5594 44.1872 97.6467 44.3276 97.769 44.4504C98.0484 44.7135 98.5548 44.7661 98.8341 44.3451C98.7294 44.503 98.8516 44.3802 98.9913 44.3451C99.1485 44.2925 99.3231 44.2574 99.4977 44.2223C99.8819 44.1346 100.266 44.0995 100.65 44.0294C101.803 43.8189 102.885 43.3803 104.02 43.0646C104.719 42.8716 105.382 42.6085 106.028 42.3103C106.5 42.0823 106.954 41.8367 107.408 41.5735C108.421 40.9771 109.434 40.3632 110.394 39.6791C112 38.5038 113.45 37.1882 114.812 35.7498C114.934 35.627 115.039 35.5042 115.161 35.3814C115.371 35.1533 115.58 34.9253 115.79 34.6973C117.012 33.3466 118.199 31.9783 119.317 30.5575C119.684 30.0838 120.05 29.5927 120.4 29.1015C121.185 27.9964 121.919 26.8737 122.495 25.6458C122.757 25.0845 123.036 24.5232 123.298 23.9618C123.525 23.418 123.7 22.8918 123.595 22.2603Z" fill="#4383B3"/>
<path d="M123.595 22.2427C122.408 23.1548 121.273 24.1196 120.138 25.102C116.191 28.5226 112.384 32.1186 108.421 35.5392C106.465 37.2232 104.422 38.837 102.466 40.5385C100.93 41.8892 99.2881 43.0996 97.7689 44.4678C97.4022 44.8011 97.053 45.1344 96.7037 45.4852C96.4942 45.6957 96.1799 45.38 96.3894 45.1695C96.7736 44.7836 97.1577 44.4152 97.5594 44.0468C98.2229 43.4504 98.8865 42.8891 99.5849 42.3278C100.72 41.4331 101.785 40.4859 102.903 39.5737C106.954 36.1882 110.97 32.7501 114.882 29.2067C117.641 26.7158 120.399 24.1898 123.316 21.8918C123.455 21.962 123.56 22.0848 123.595 22.2427Z" fill="#45322C"/>
<path d="M135.486 39.7667C135.451 39.6263 135.399 39.486 135.294 39.3632C135.294 39.3632 135.294 39.3457 135.277 39.3457C134.666 38.644 133.338 38.8019 132.518 38.837C131.697 38.872 130.876 38.9422 130.056 38.9422C129.375 38.9422 128.694 38.9247 127.995 38.9071C127.855 38.9071 127.733 38.9071 127.594 38.9071C127.157 38.9071 126.738 38.9071 126.319 38.9247C124.677 38.9598 123.071 39.1001 121.464 39.5211C121.237 39.5737 120.993 39.6439 120.766 39.714C118.967 40.2578 117.309 41.0472 115.719 42.0821C114.27 43.0294 112.873 44.0994 111.791 45.4677C110.725 46.1342 109.94 47.5376 109.887 48.7655C109.887 48.8181 109.887 48.8707 109.905 48.9058C109.94 49.0637 110.027 49.1865 110.149 49.2917C110.271 49.3794 110.411 49.432 110.568 49.4496C111.598 49.5022 112.646 49.5198 113.676 49.6601C114.707 49.8004 115.702 50.1337 116.75 50.2214C118.653 50.3793 120.679 50.1162 122.512 49.6075C125.271 48.8532 127.751 47.3095 129.986 45.5554C130.248 45.3449 130.492 45.1519 130.754 44.9239C131.383 44.3976 131.994 43.8538 132.623 43.3276C133.391 42.661 134.194 42.0295 134.84 41.2577C134.91 41.17 134.98 41.0998 135.032 41.0121C135.067 40.9595 135.102 40.9244 135.137 40.8718C135.259 40.7139 135.347 40.5385 135.416 40.3455C135.504 40.135 135.521 39.9596 135.486 39.7667Z" fill="#4383B3"/>
<path d="M135.487 39.7667C134.386 40.1 133.269 40.4333 132.169 40.7666C130.091 41.3981 128.013 42.0822 125.952 42.819C123.857 43.5733 121.831 44.4854 119.771 45.3274C118.776 45.7309 117.763 46.0817 116.75 46.4676C115.755 46.836 114.794 47.2745 113.799 47.678C112.769 48.099 111.756 48.5024 110.761 48.9936C110.568 49.0813 110.376 49.1865 110.184 49.2743C109.451 49.6426 108.717 49.9935 107.967 50.2917C107.705 50.3969 107.582 49.9584 107.844 49.8531C108.56 49.5549 109.241 49.2216 109.94 48.8883C110.359 48.6778 110.778 48.4673 111.197 48.2744C112.262 47.7657 113.362 47.3622 114.462 46.9061C116.471 46.0642 118.531 45.3625 120.539 44.5205C122.565 43.661 124.573 42.819 126.633 42.0998C129.48 41.0999 132.378 40.2228 135.277 39.3633C135.277 39.3633 135.277 39.3633 135.294 39.3808C135.399 39.4861 135.469 39.6264 135.487 39.7667Z" fill="#45322C"/>
<path d="M93.8925 30.8206C93.875 30.5399 93.8576 30.2768 93.8576 29.9962C93.8576 29.9786 93.8576 29.9611 93.8576 29.9435C93.8576 29.7857 93.8401 29.6278 93.8401 29.4699C93.8401 29.2419 93.8226 28.9963 93.8226 28.7682C93.7703 27.1018 93.5433 25.4353 93.3512 23.7864C93.3337 23.6461 93.3163 23.5233 93.2988 23.383C93.1242 21.892 92.9146 20.4185 92.6702 18.9274C92.4082 17.4364 92.3733 15.8927 91.8844 14.4368C91.5002 13.279 90.3477 14.3666 90.1033 14.9806C89.5969 16.226 89.6318 17.9276 89.6493 19.2432C89.6667 20.3132 89.7366 21.3657 89.8413 22.4182C89.9636 23.5233 90.1207 24.6109 90.3303 25.6985C90.5223 26.7159 90.8017 27.6982 91.0811 28.6805C91.1335 28.856 91.1859 29.0138 91.2208 29.1892C91.3256 29.5576 91.4304 29.926 91.5351 30.2944C91.6574 30.7504 91.7796 31.2065 91.9018 31.6626C91.9891 31.9959 92.0765 32.3467 92.286 32.6274C92.4781 32.8905 92.9321 33.0835 93.3163 33.0308C93.5782 32.9958 93.8052 32.8554 93.8576 32.5221C93.91 32.2064 93.9274 31.8906 93.91 31.5749C93.9274 31.3644 93.91 31.1013 93.8925 30.8206Z" fill="#FFDCBD"/>
<path d="M109.311 20.2605C107.827 20.5236 106.378 21.4884 105.12 22.2953C103.723 23.19 102.344 24.1372 101.052 25.1721C100.947 25.2599 100.842 25.3476 100.72 25.4353C99.6023 26.365 98.5895 27.3999 97.5418 28.3998C96.9656 28.9436 96.3719 29.4698 95.8306 30.0312C95.7083 30.1539 95.5861 30.2767 95.4813 30.3995C95.1146 30.7854 94.7828 31.2064 94.486 31.6625C94.4336 31.6976 94.3987 31.7502 94.3463 31.7853C94.1368 31.9958 93.9621 32.2414 93.8748 32.5747C93.8399 32.6975 93.8399 32.8203 93.8748 32.9255C93.9621 33.2588 94.3288 33.4518 94.713 33.3991C95.9004 33.2413 97.0354 32.6975 98.1006 32.2063C98.5895 31.9783 99.061 31.7502 99.5325 31.5222C99.7246 31.4169 99.9167 31.3292 100.109 31.224C100.475 31.031 100.825 30.8381 101.174 30.6276C101.366 30.5223 101.541 30.3995 101.733 30.2943C102.885 29.5926 103.968 28.7857 104.963 27.856C105.295 27.5403 105.627 27.207 105.941 26.8737C106.552 26.2071 107.146 25.5054 107.722 24.8038C108.229 24.1898 108.7 23.5759 109.119 22.9093C109.486 22.3304 109.957 21.7515 110.149 21.1025C110.289 20.5587 109.8 20.1903 109.311 20.2605Z" fill="#FFDCBD"/>
<path d="M90.8888 39.3106C90.8539 36.3636 90.5396 33.4166 89.9633 30.5222C89.9284 30.3819 89.911 30.2416 89.876 30.1012C89.7887 29.6452 89.684 29.1891 89.5617 28.7505C89.5268 28.5751 89.4744 28.4173 89.4395 28.2418C89.195 27.3121 88.9331 26.4 88.6886 25.4703C88.3743 24.295 88.287 22.9794 87.7632 21.8743C87.7282 21.7865 87.6758 21.7164 87.6409 21.6287C87.4139 21.2252 86.8202 21.2077 86.5408 21.541C86.4884 21.6111 86.436 21.6988 86.4011 21.8041C86.3487 22.0321 86.2964 22.2426 86.244 22.4707C86.0693 23.2951 85.9471 24.1196 85.8947 24.9616C85.8773 25.0844 85.8773 25.2247 85.8773 25.3475C85.8423 25.979 85.8423 26.6105 85.8773 27.242C85.8773 27.3998 85.8947 27.5577 85.8947 27.7156C85.9471 28.5576 86.0519 29.3996 86.1741 30.224C86.1916 30.2942 86.1916 30.3468 86.209 30.417C86.3487 31.2414 86.5234 32.0659 86.7329 32.8728C87.2044 34.6971 87.8155 36.4688 88.5664 38.1879C88.8633 38.8545 89.0903 39.7842 89.7887 40.135C90.0507 40.2753 90.3475 40.328 90.557 40.2578C90.7491 40.1876 90.8888 40.0122 90.8888 39.6965C90.8888 39.5561 90.8888 39.4334 90.8888 39.3106Z" fill="#FFDCBD"/>
<path d="M106.273 29.4348C106.186 29.4172 106.098 29.4348 106.011 29.4523C105.26 29.6803 104.544 30.0136 103.828 30.3469C103.2 30.6451 102.554 30.8907 101.908 31.1538C101.82 31.1889 101.75 31.224 101.663 31.2591C101.471 31.3468 101.261 31.4345 101.069 31.5222C100.86 31.6099 100.65 31.7152 100.458 31.8204C99.4978 32.294 98.5898 32.8378 97.7167 33.4518C95.5514 34.9428 93.4909 36.6794 91.6399 38.5564C91.605 38.5914 91.5701 38.6265 91.5177 38.6792C91.3081 38.8897 91.1161 39.1002 90.9938 39.3633C90.8716 39.6264 90.8367 39.9597 91.0637 40.2053C91.4304 40.6263 92.4956 40.8192 94.9926 40.0825C95.9006 39.8194 96.7213 39.2931 97.5595 38.8195C98.4151 38.3283 99.2358 37.8021 100.022 37.2232C100.388 36.9601 100.738 36.6794 101.087 36.3988C101.785 35.8199 102.501 35.2586 103.2 34.6797C103.584 34.3639 103.951 34.0306 104.3 33.6798C104.492 33.4869 104.701 33.2764 104.911 33.0659C105.033 32.9431 105.155 32.8203 105.278 32.6975C105.959 31.9958 106.587 31.2065 106.849 30.3118C106.954 29.8733 106.657 29.4874 106.273 29.4348Z" fill="#FFDCBD"/>
<path d="M90.0509 42.6785C90.7144 41.3102 91.151 39.8543 91.6574 38.4159C92.2161 36.8722 92.8273 35.3461 93.4734 33.8375C94.0671 32.4342 94.6782 31.0134 95.2196 29.5749C95.7958 28.0313 96.3546 26.4876 97.0007 24.9966C97.1229 24.7335 96.7213 24.5054 96.6165 24.7686C95.9879 26.207 95.464 27.6805 94.9052 29.1539C94.3465 30.6625 93.7178 32.136 93.0892 33.6095C92.478 35.0479 91.9018 36.5039 91.343 37.9773C90.7843 39.4684 90.3652 41.012 89.6492 42.4504C89.5445 42.7136 89.9286 42.9416 90.0509 42.6785Z" fill="#45322C"/>
<path d="M105.138 8.29714C105.068 8.13927 104.963 7.99894 104.789 7.91123C104.457 7.75335 104.073 7.89369 103.741 8.0691C101.663 9.2093 100.266 11.2967 99.2009 13.4368C98.5722 14.6998 98.0484 15.9803 97.5769 17.3135C97.315 18.0502 97.088 18.787 96.861 19.5237C96.861 19.5588 96.8435 19.5764 96.8435 19.6114C96.5292 20.6464 96.2673 21.6989 96.0053 22.7514C95.9704 22.9092 95.8307 23.453 95.7434 24.067C95.6037 24.9967 95.5339 26.1018 95.953 26.3649C96.0752 26.4351 96.2323 26.4351 96.4244 26.3649C96.4419 26.3649 96.4419 26.3649 96.4594 26.3474C97.1404 26.0667 97.6118 25.3651 98.0135 24.6809C98.1706 24.4003 98.3278 24.1196 98.4675 23.874C99.2183 22.611 99.9867 21.3831 100.703 20.1201C102.501 16.9977 103.689 13.6473 104.911 10.2618C105.086 9.82326 105.382 8.87601 105.138 8.29714Z" fill="#FFDCBD"/>
<path d="M86.8729 24.4002C86.8205 23.8213 86.6983 23.2776 86.4888 22.8215C86.4189 22.6636 86.3316 22.5584 86.2443 22.4531C86.1744 22.3654 86.0871 22.2952 85.9824 22.2601C85.8427 22.19 85.703 22.1549 85.5284 22.1549C84.2536 22.1374 82.3503 24.1897 81.7042 24.8914C81.4248 25.1896 81.1454 25.5053 80.8835 25.8211C80.7787 25.9439 80.674 26.0667 80.5692 26.207C80.3247 26.5052 80.0977 26.7859 79.8707 27.0841C79.6263 27.3998 79.4167 27.7331 79.2072 28.0839C78.5436 29.2066 78.0547 30.452 77.6705 31.6975C76.326 36.0478 75.9767 40.7665 77.234 45.1869C77.2515 45.222 77.2515 45.2571 77.2689 45.2922C77.2864 45.3448 77.3213 45.3974 77.3562 45.4325C77.3737 45.4501 77.3911 45.4676 77.4086 45.4851C77.3911 45.5904 77.4086 45.6781 77.4435 45.7834C77.4959 45.9237 77.5832 46.0465 77.7229 46.1342C77.7404 46.1342 77.7578 46.1517 77.7578 46.1517C78.0023 46.2745 78.369 46.2219 78.5611 46.0114C78.596 45.9763 78.6135 45.9412 78.6309 45.8886C78.6659 45.7834 78.7182 45.6956 78.7532 45.5904C79.5739 43.7661 80.7438 42.1172 81.7566 40.3806C82.8567 38.4861 83.8171 36.4863 84.6902 34.4691C85.249 33.171 85.7554 31.7852 86.1221 30.3819C86.1395 30.3293 86.157 30.2766 86.157 30.224C86.2792 29.7328 86.384 29.2241 86.4713 28.733C86.5237 28.4874 86.5586 28.2067 86.611 27.9261C86.6285 27.7857 86.6634 27.6279 86.6808 27.47C86.7507 26.9964 86.8031 26.5052 86.838 26.014C86.9078 25.4702 86.9078 24.9265 86.8729 24.4002Z" fill="#4383B3"/>
<path d="M86 22.26C85.092 24.0668 84.2189 25.9087 83.3807 27.7681C81.7393 31.4167 80.2551 35.1355 78.9454 38.907C78.2993 40.8014 78.0199 42.8363 77.8453 44.8185C77.8104 45.257 77.7755 45.6955 77.758 46.1341C77.6707 47.6953 77.6532 49.274 77.6532 50.8527C77.6532 51.1509 77.1992 51.1509 77.1992 50.8527C77.1992 49.046 77.2167 47.2392 77.3564 45.4324C77.3913 44.9237 77.4437 44.415 77.4961 43.9063C77.7056 41.9416 78.0898 40.0296 78.7533 38.1527C79.4343 36.2406 80.1503 34.3462 80.9011 32.4692C82.3156 28.9784 83.8697 25.5228 85.546 22.1548C85.7032 22.1548 85.8603 22.1899 86 22.26Z" fill="#45322C"/>
<path d="M110.132 12.2792C109.224 11.5775 107.897 12.5248 108.054 13.6124C108.211 14.7175 109.503 14.9631 110.237 14.2088C110.76 13.665 110.76 12.7704 110.132 12.2792Z" fill="#FCD1D1"/>
<path d="M100.196 5.1573C99.323 4.5258 98.2928 5.43796 98.0832 6.35012C97.8737 7.27982 98.3801 8.3674 99.4103 8.45511C100.196 8.52527 100.982 7.92886 101.209 7.17457C101.453 6.3852 100.982 5.42042 100.196 5.1573Z" fill="#FCD1D1"/>
<path d="M98.5723 18.2958C98.5549 18.2257 98.5374 18.173 98.5025 18.1029C98.0659 17.0855 96.4944 16.9276 96.18 18.1029C96.0229 18.7168 96.2848 19.3834 96.8785 19.629C97.2976 19.8044 97.7865 19.7167 98.1358 19.436C98.485 19.1554 98.6771 18.7168 98.5723 18.2958Z" fill="#FCD1D1"/>
<path d="M101.226 27.7683C101.174 27.5403 101.017 27.3473 100.772 27.2947C99.8117 27.0666 99.4625 28.6278 100.44 28.7682C100.999 28.8559 101.348 28.2595 101.226 27.7683Z" fill="#FCD1D1"/>
<path d="M87.0822 24.488C86.9774 24.4179 86.8552 24.3828 86.7155 24.3828C86.6806 24.3828 86.6282 24.3652 86.5933 24.3652C86.4186 24.3652 86.244 24.4354 86.1218 24.5582C86.017 24.6634 85.9297 24.8213 85.8948 24.9616C85.8773 25.0318 85.8599 25.1195 85.8599 25.1897C85.8599 25.2599 85.8773 25.3476 85.8948 25.4353C85.9122 25.5054 85.9472 25.5756 85.9821 25.6458C86.0519 25.751 86.1393 25.8563 86.2615 25.9264C86.4536 26.0317 86.6631 26.0668 86.8901 26.0141C86.96 25.9966 87.0473 25.9615 87.1171 25.9264C87.1695 25.8914 87.2219 25.8563 87.2743 25.8036C87.2917 25.8036 87.2918 25.7861 87.2918 25.7861C87.4314 25.6282 87.5188 25.4353 87.5188 25.2248C87.5188 24.9266 87.3267 24.6284 87.0822 24.488Z" fill="#FCD1D1"/>
<path d="M115.685 28.6981C115.423 27.6632 113.851 27.9088 113.904 28.9788C113.921 29.3296 114.148 29.6629 114.48 29.7857C115.161 30.0488 115.859 29.3998 115.685 28.6981Z" fill="#FCD1D1"/>
<path d="M136.674 56.624C137.023 54.8348 137.425 53.028 137.634 51.2037C137.722 50.4319 137.739 49.6074 137.337 48.9233C136.901 48.169 136.01 47.8357 135.277 47.4147C135.155 47.3446 134.963 47.2393 134.718 47.099C134.613 47.0288 134.491 46.9762 134.369 46.8885C133.443 46.3622 132.081 45.5904 130.807 44.8887C129.689 44.2748 128.641 43.7485 128.048 43.5205C127.454 43.2925 126.878 42.9943 126.267 42.696C126.144 42.6434 126.022 42.5733 125.882 42.5031C125.83 42.468 125.76 42.4505 125.69 42.4154C124.94 42.0646 124.154 41.7663 123.473 41.3103C122.809 40.8717 122.215 40.3104 121.5 39.9596C121.273 39.8543 121.046 39.7491 120.819 39.6789C120.19 39.4684 119.544 39.3807 118.88 39.3456C118.112 39.3105 117.326 39.3456 116.558 39.3105C115.772 39.2754 114.969 39.1877 114.183 39.2404C113.188 39.3105 112.157 39.521 111.319 40.0999C110.568 40.6086 109.975 41.2752 109.398 41.9768C108.822 42.6785 108.229 43.3275 107.548 43.9415C107.251 44.2046 106.936 44.4853 106.64 44.7484C106.5 43.9064 106.308 43.082 106.028 42.2926C105.993 42.2224 105.976 42.1347 105.941 42.0646C105.714 41.4857 105.225 40.1701 104.684 38.6615C104.631 38.5212 104.579 38.3633 104.527 38.223C104.09 37.0126 103.619 35.7321 103.234 34.6269C103.06 34.1533 102.903 33.7148 102.78 33.3289C102.641 32.9079 102.518 32.557 102.431 32.3115C102.379 32.136 102.326 32.0132 102.309 31.9431C102.291 31.8905 102.274 31.8378 102.257 31.8028C102.169 31.5221 102.064 31.294 101.942 31.1186C101.75 30.838 101.506 30.6976 101.209 30.6275C100.807 30.5398 100.301 30.5748 99.6373 30.5924C99.3579 30.6099 98.834 30.6626 98.3451 30.7152C97.7863 30.7853 97.2799 30.838 97.2799 30.838C97.2799 30.838 96.6688 30.3293 95.9703 30.0486C95.9528 30.0486 95.9354 30.0311 95.9179 30.0311C95.9004 30.0135 95.8655 30.0135 95.8481 30.0135C95.7433 29.9784 95.6211 29.9433 95.5163 29.9258C95.3941 29.9083 95.2543 29.8907 95.1321 29.8732C94.975 29.8556 94.8178 29.8732 94.6432 29.8732C94.4162 29.8907 94.2066 29.9258 93.9796 29.9609C93.9447 29.9609 93.9098 29.9784 93.8749 29.9784C93.7526 29.996 93.6129 30.0311 93.4907 30.0486C93.2288 30.1012 92.4779 30.1889 91.5874 30.3117C91.081 30.3819 90.5396 30.4345 89.9983 30.5047C88.549 30.6801 87.2044 30.838 87.187 30.838C87.152 30.8204 87.0123 30.7853 86.96 30.7678C87.0647 30.7853 86.9949 30.7678 86.9425 30.7503C86.9425 30.7327 86.925 30.7327 86.9076 30.7152C86.8901 30.6976 86.6282 30.5573 86.244 30.3819C86.2266 30.3643 86.1916 30.3643 86.1742 30.3468C85.2836 29.9433 83.7819 29.2943 82.8913 28.9259C82.7342 28.8558 82.5945 28.8031 82.4723 28.7681C82.3849 28.733 82.3151 28.7154 82.2627 28.6979C81.3198 28.3997 80.2546 27.9787 79.2593 28.0489C79.1545 28.0489 79.0497 28.0664 78.945 28.0839C77.775 28.2769 76.6574 28.7505 75.5923 29.2417C74.1604 29.8907 72.746 30.5748 71.3665 31.3116C70.0918 31.9782 66.6693 34.5743 66.6693 34.5743C66.6693 34.5743 66.5645 34.5392 66.3724 34.5041C65.7438 34.3463 64.2246 33.9954 63.1943 33.8376C59.4051 33.2938 47.304 29.0136 45.8372 29.6978C44.0561 30.5398 42.5195 31.8378 40.9828 33.0657C40.2669 33.6271 39.551 34.2059 38.7826 34.6796C38.381 34.9251 36.565 36.2934 36.1808 36.2232L35.2379 36.0303C35.2029 35.925 35.168 35.8022 35.1156 35.697C34.6791 34.5217 31.536 27.4524 30.7851 27.1367C30.0342 26.821 24.5861 25.8211 23.259 25.5404C22.6653 25.4176 22.0716 25.3124 21.4779 25.172C21.1811 25.1019 20.4302 24.8738 19.6619 24.6984C18.8761 24.523 18.0728 24.4178 17.7062 24.6283C17.1823 24.944 16.0647 27.1718 15.8552 27.7507C15.7679 28.0138 15.6806 28.2769 15.5758 28.54C15.5583 28.5576 15.5583 28.5926 15.5409 28.6102C15.5234 28.6277 15.4186 28.8733 15.4012 28.9259C15.1393 29.4873 14.9122 30.0661 14.6503 30.6275C14.5106 30.9081 14.3884 31.1888 14.2312 31.4695C14.2138 31.487 14.2138 31.5221 14.1963 31.5396C14.1439 31.6449 14.0741 31.7501 14.0042 31.8554C14.0042 31.8729 13.9868 31.8729 13.9868 31.8905C13.9693 31.9255 13.7772 32.1887 13.7772 32.2062C13.7772 32.2062 13.7947 32.1887 13.8122 32.1711C13.655 32.3816 13.5328 32.6272 13.4804 32.8728C13.3756 33.0131 13.3058 33.171 13.2708 33.3464C13.0264 34.5392 12.5898 35.7496 12.3279 36.995C12.0485 38.3107 11.7866 39.6263 11.5072 40.9419C10.669 44.994 9.83084 49.0285 9.01013 53.0806C7.97988 58.08 6.94963 63.0793 5.91938 68.0787C4.92406 72.9026 3.92873 77.7441 2.9334 82.568C2.26985 85.322 1.99046 87.2165 1.53645 89.3039C1.18721 90.9704 -1.17014 98.4431 0.78559 99.0219C1.64122 99.2851 2.53178 99.3903 3.40487 99.5657C5.81461 100.074 8.20689 100.566 10.6166 101.074C14.2312 101.829 17.8284 102.583 21.443 103.32C25.9307 104.249 30.4359 105.197 34.9236 106.126C39.97 107.179 45.0165 108.231 50.0805 109.284C55.3714 110.389 60.6449 111.476 65.9359 112.582C71.1395 113.669 76.3257 114.739 81.5293 115.827C86.3139 116.827 91.0984 117.809 95.8655 118.809C99.9167 119.651 103.95 120.493 108.002 121.335C110.988 121.949 113.973 122.58 116.942 123.194C118.514 123.527 119.037 123.58 120.609 123.966C123.787 124.72 124.66 118.774 125.079 116.792C125.708 113.704 126.354 110.617 126.983 107.547C128.624 99.5657 130.283 91.5843 131.924 83.6029C133.636 75.2707 135.364 66.956 137.076 58.6238C137.145 58.2554 137.041 57.8344 136.796 57.5362C136.726 57.4485 136.639 57.3608 136.552 57.2906C136.569 57.2029 136.587 57.1327 136.604 57.045C136.604 56.9398 136.639 56.7819 136.674 56.624Z" fill="#E7B67B"/>
<path d="M136.761 57.5887C135.295 57.3256 133.828 57.0625 132.361 56.7994C130.318 56.431 128.292 56.0451 126.249 55.6592C122.338 54.9224 118.444 54.1506 114.55 53.3788C105.365 51.5544 96.2323 49.5898 87.0648 47.7128C84.236 47.134 81.4071 46.5727 78.5783 45.9938C78.3164 45.9412 78.0545 45.8885 77.7925 45.8359C77.6703 45.8184 77.5655 45.7833 77.4433 45.7657C77.4084 45.7657 77.3734 45.7482 77.3385 45.7482C76.0289 45.4851 74.7192 45.2044 73.4096 44.9413C68.9044 43.994 64.4342 42.8714 59.929 41.9066C59.6671 41.854 59.4226 41.8013 59.1607 41.7487C50.2202 39.8192 41.2972 37.8896 32.3742 36.0126C27.5547 34.9952 22.7003 34.0304 17.8983 32.8902C16.5886 32.5745 15.279 32.2588 13.9868 31.9255C14.0567 31.8202 14.109 31.715 14.1789 31.6097C14.1964 31.5922 14.2138 31.5571 14.2138 31.5396C15.4711 31.8728 16.7283 32.1886 18.003 32.4868C23.9226 33.8901 29.9121 35.0303 35.8491 36.3108C40.4765 37.2932 45.1039 38.2755 49.7138 39.2754C52.9967 39.977 56.297 40.6085 59.5798 41.3277C60.872 41.6084 62.1467 41.9066 63.4389 42.2223C68.0313 43.3625 72.6413 44.3624 77.2861 45.2921C77.3211 45.2921 77.356 45.3097 77.3909 45.3097C77.5306 45.3447 77.6878 45.3623 77.8275 45.3974C78.1418 45.4675 78.4561 45.5202 78.7879 45.5903C82.6993 46.3797 86.6283 47.1515 90.5222 47.976C99.6897 49.9055 108.875 51.8176 118.077 53.6243C120.941 54.1857 123.787 54.747 126.651 55.2908C128.589 55.6592 130.527 56.0275 132.466 56.3784C133.845 56.6239 135.207 56.8695 136.587 57.1151C136.569 57.2028 136.552 57.273 136.534 57.3607C136.604 57.4133 136.691 57.501 136.761 57.5887Z" fill="#BA8647" stroke="#BA8647" stroke-width="0.5"/>
<path d="M133.217 94.6191C132.204 88.5322 131.191 82.4628 130.178 76.3759C128.031 63.3776 125.865 50.3969 123.717 37.3986C123.456 35.8374 123.194 34.627 121.901 34.2411C121.639 34.171 121.343 34.0833 121.011 34.1183C116.506 34.5393 112.245 35.6094 108.246 36.2935C103.182 37.1355 98.1183 37.995 93.0544 38.837C83.1186 40.5035 73.1828 42.1699 63.247 43.8364C53.4509 45.4853 43.6722 47.1166 33.8761 48.7655C28.9868 49.59 24.08 50.4144 19.1906 51.2213C15.3316 51.8704 11.7693 51.7651 12.1884 56.5014C12.3805 58.694 12.5377 60.1325 12.9218 62.2901C13.6378 66.6228 14.3537 70.938 15.0696 75.2708C16.8158 85.7957 18.562 96.3206 20.3082 106.846C20.8146 109.88 22.9449 133.018 26.1055 132.491C44.1786 129.457 62.2516 126.439 80.3247 123.405C98.3977 120.37 116.715 118.563 134.544 114.336C137.914 113.546 133.776 97.9345 133.217 94.6191ZM117.257 65.6405C117.03 65.9562 116.82 66.3071 116.541 66.5702C116.331 66.7632 115.982 66.8333 115.72 66.6754C115.545 66.5702 115.475 66.4299 115.388 66.2544C115.371 66.3948 115.423 66.5351 115.441 66.6754C115.458 66.9386 115.266 67.1841 115.039 67.3245C114.812 67.4473 114.533 67.4999 114.271 67.4999C113.048 67.5701 111.983 67.2368 111.005 66.693C111.599 66.5877 112.193 66.4649 112.804 66.3597C113.555 66.2194 114.271 66.079 114.987 65.9562C115.161 65.9212 115.336 65.8861 115.51 65.851C116.122 65.7282 116.733 65.623 117.344 65.5177C117.309 65.5528 117.291 65.6054 117.257 65.6405Z" fill="#FFDCBD"/>
<path d="M118.688 39.9596C118.636 39.8368 118.566 39.5912 118.514 39.5035C118.374 39.2053 118.164 38.9422 117.85 38.8019C116.645 38.1879 115.632 39.3632 115.528 40.4859C115.458 40.6262 115.353 40.7314 115.196 40.6437C115.126 40.6086 115.039 40.2403 114.986 40.1175C114.847 39.8193 114.637 39.5562 114.323 39.4158C113.223 38.8545 112.297 39.7842 112.053 40.8016C112.053 40.8016 112.053 40.8016 112.053 40.8191C112.053 40.8367 112.053 40.8542 112.035 40.8718C112.035 40.9069 112.018 40.9419 112.018 40.9595C112 41.1349 111.878 41.4506 111.634 41.3454C111.564 41.3103 111.477 40.9419 111.424 40.8191C111.284 40.5209 111.075 40.2578 110.761 40.1175C109.66 39.5562 108.735 40.4859 108.491 41.5033H108.473C108.473 41.5559 108.456 41.6085 108.456 41.6611C108.438 41.8366 108.316 42.1523 108.071 42.0471C108.002 42.012 107.914 41.6436 107.862 41.5208C107.722 41.2226 107.513 40.9595 107.198 40.8191C106.098 40.2578 105.173 41.1875 104.928 42.2049C104.928 42.2049 104.928 42.2049 104.928 42.2225C104.928 42.24 104.928 42.2576 104.911 42.2751C104.911 42.3102 104.893 42.3453 104.893 42.3628C104.876 42.5382 104.754 42.854 104.509 42.7487C104.439 42.7136 104.352 42.3453 104.3 42.2225C104.16 41.9243 103.95 41.6611 103.636 41.5208C102.414 40.9069 101.401 42.1172 101.314 43.2574C101.261 43.4328 101.139 43.6083 100.947 43.5205C100.877 43.4855 100.79 43.1171 100.737 42.9943C100.598 42.6961 100.388 42.433 100.074 42.2926C98.7119 41.591 97.5943 43.1873 97.769 44.4152C97.8039 44.6257 97.8912 44.766 98.0309 44.8537C98.0484 44.9063 98.0309 44.9589 98.0134 44.994C98.0309 45.0467 98.0309 45.0993 97.996 45.1519C97.961 45.2221 97.5943 45.3098 97.4721 45.3624C97.1753 45.5027 96.9133 45.7132 96.7736 46.029C96.2498 47.0815 97.0356 47.9586 97.996 48.2568V48.2743C98.0134 48.2743 98.0483 48.2743 98.0658 48.2743C98.1531 48.2918 98.2404 48.3094 98.3452 48.3269C98.4849 48.3795 98.6071 48.5023 98.5373 48.6602C98.5024 48.7304 98.1357 48.8181 98.0134 48.8707C97.7166 49.011 97.4546 49.2215 97.3149 49.5373C96.7038 50.7477 97.8563 51.7475 98.9738 51.8528C99.0961 51.9229 99.1659 52.0282 99.0961 52.1685C99.0611 52.2387 98.6944 52.3264 98.5722 52.379C98.2754 52.5193 98.0134 52.7298 97.8737 53.0456C97.3149 54.1682 98.2579 55.1155 99.3056 55.326C99.3056 55.326 99.3056 55.326 99.3056 55.3435C99.3405 55.3435 99.3929 55.3435 99.4278 55.3611C99.4628 55.3611 99.4977 55.3786 99.5326 55.3786C99.7072 55.4137 99.9517 55.5365 99.8469 55.7645C99.812 55.8347 99.4453 55.9224 99.3231 55.975C99.0262 56.1154 98.7643 56.3259 98.6246 56.6416C98.0658 57.7467 98.9913 58.6764 100.004 58.922C100.004 58.922 100.004 58.922 100.022 58.922C100.039 58.922 100.056 58.922 100.074 58.9395C100.109 58.9395 100.144 58.9571 100.161 58.9571C100.336 58.9746 100.65 59.0974 100.545 59.343C100.51 59.4132 100.144 59.5009 100.022 59.5535C99.7247 59.6938 99.4628 59.9043 99.3231 60.2201C98.7643 61.3252 99.6898 62.2549 100.703 62.5005V62.518C100.755 62.518 100.807 62.5356 100.86 62.5356C101.034 62.5531 101.349 62.6759 101.244 62.9215C101.209 62.9916 100.842 63.0793 100.72 63.132C100.423 63.2723 100.161 63.4828 100.022 63.7986C99.4628 64.9037 100.388 65.8334 101.401 66.079C101.401 66.079 101.401 66.079 101.418 66.079C101.436 66.079 101.453 66.0789 101.471 66.0965C101.506 66.0965 101.541 66.114 101.558 66.114C101.733 66.1316 102.047 66.2544 101.942 66.4999C101.907 66.5701 101.541 66.6578 101.418 66.7104C101.122 66.8508 100.86 67.0613 100.72 67.377C100.126 68.5698 101.244 69.5697 102.344 69.6925C102.396 69.8153 102.466 70.0609 102.519 70.1486C102.658 70.4468 102.868 70.7099 103.182 70.8502C104.387 71.4642 105.4 70.2889 105.505 69.1663C105.574 69.0259 105.679 68.9207 105.836 69.0084C105.906 69.0435 105.994 69.4118 106.046 69.5346C106.186 69.8328 106.395 70.096 106.709 70.2363C107.81 70.7976 108.735 69.8679 108.979 68.8505C108.979 68.8505 108.979 68.8505 108.979 68.833C108.979 68.8154 108.979 68.7979 108.997 68.7803C108.997 68.7453 109.014 68.7102 109.014 68.6926C109.032 68.5172 109.154 68.2015 109.399 68.3067C109.468 68.3418 109.556 68.7102 109.608 68.833C109.748 69.1312 109.957 69.3943 110.272 69.5346C111.372 70.096 112.297 69.1663 112.542 68.1488H112.559C112.559 68.0962 112.577 68.0436 112.577 67.991C112.594 67.8156 112.716 67.4998 112.961 67.6051C113.031 67.6401 113.118 68.0085 113.17 68.1313C113.31 68.4295 113.52 68.6926 113.834 68.833C114.934 69.3943 115.859 68.4646 116.104 67.4472C116.104 67.4472 116.104 67.4472 116.104 67.4296C116.104 67.4121 116.104 67.3946 116.121 67.377C116.121 67.3419 116.139 67.3069 116.139 67.2893C116.156 67.1139 116.279 66.7982 116.523 66.9034C116.593 66.9385 116.68 67.3069 116.733 67.4296C116.872 67.7279 117.082 67.991 117.396 68.1313C118.618 68.7453 119.631 67.5349 119.719 66.3947C119.771 66.2193 119.893 66.0439 120.085 66.1316C120.155 66.1667 120.242 66.535 120.295 66.6578C120.434 66.956 120.644 67.2191 120.958 67.3595C122.32 68.0611 123.438 66.4649 123.263 65.237C123.246 65.1317 123.211 65.044 123.176 64.9738C123.176 64.9212 123.159 64.851 123.159 64.7984C123.054 64.7283 122.966 64.6405 123.036 64.5002C123.071 64.43 123.438 64.3423 123.56 64.2897C123.857 64.1494 124.119 63.9389 124.259 63.6231C124.782 62.5706 123.997 61.6936 123.036 61.3954V61.3778C123.019 61.3778 122.984 61.3778 122.966 61.3778C122.879 61.3603 122.792 61.3427 122.687 61.3252C122.547 61.2726 122.425 61.1498 122.495 60.9919C122.53 60.9217 122.897 60.834 123.019 60.7814C123.316 60.6411 123.578 60.4306 123.717 60.1148C124.328 58.9045 123.176 57.9046 122.058 57.7993C121.936 57.7292 121.866 57.6239 121.936 57.4836C121.971 57.4134 122.338 57.3257 122.46 57.2731C122.757 57.1328 123.019 56.9223 123.159 56.6065C123.717 55.4839 122.774 54.5366 121.727 54.3261C121.727 54.3261 121.727 54.3261 121.727 54.3086C121.692 54.3086 121.639 54.3086 121.604 54.291C121.57 54.291 121.535 54.2735 121.5 54.2735C121.325 54.2384 121.081 54.1156 121.185 53.8876C121.22 53.8174 121.587 53.7297 121.709 53.6771C122.006 53.5368 122.268 53.3263 122.408 53.0105C122.966 51.9054 122.041 50.9757 121.028 50.7301C121.028 50.7301 121.028 50.7301 121.011 50.7301C120.993 50.7301 120.976 50.7301 120.958 50.7126C120.923 50.7126 120.888 50.695 120.871 50.695C120.696 50.6775 120.382 50.5547 120.487 50.3091C120.522 50.2389 120.888 50.1512 121.011 50.0986C121.308 49.9583 121.569 49.7478 121.709 49.432C122.268 48.3269 121.342 47.3972 120.33 47.1516V47.1341C120.277 47.1341 120.225 47.1166 120.173 47.1166C119.998 47.099 119.684 46.9762 119.788 46.7306C119.823 46.6605 120.19 46.5728 120.312 46.5201C120.609 46.3798 120.871 46.1693 121.011 45.8536C121.569 44.7484 120.644 43.8187 119.631 43.5732C119.631 43.5732 119.631 43.5732 119.614 43.5732C119.596 43.5732 119.579 43.5732 119.561 43.5556C119.526 43.5556 119.492 43.5381 119.474 43.5381C119.299 43.5205 118.985 43.3978 119.09 43.1522C119.125 43.082 119.492 42.9943 119.614 42.9417C119.911 42.8013 120.173 42.5908 120.312 42.2751C120.923 41.0823 119.806 40.0824 118.688 39.9596Z" fill="white"/>
<path d="M121.762 61.3252C121.482 59.7991 121.185 58.2554 120.906 56.7293C120.33 53.6596 119.771 50.5898 119.195 47.5376C118.88 45.8009 118.549 44.0643 118.234 42.3277C118.164 41.9944 118.06 41.5734 117.571 41.5033C117.344 41.4682 117.099 41.5208 116.855 41.5559C111.215 42.6259 105.557 43.696 99.8992 44.7309C99.7071 44.766 99.5325 44.8011 99.3753 44.8888C99.061 45.0642 99.0086 45.3799 99.0436 45.6782C99.0785 45.9764 99.2007 46.257 99.2356 46.4675C99.3753 47.2394 99.515 47.9936 99.6547 48.7655C99.9341 50.2916 100.214 51.8177 100.51 53.3438C101.069 56.396 101.645 59.4658 102.204 62.518C102.501 64.1143 102.798 65.6931 103.095 67.2893C103.234 68.0436 104.404 67.8682 105.155 67.7454C106.412 67.5349 107.6 67.3069 108.857 67.0788C109.573 66.956 110.272 66.8157 110.988 66.6929C111.581 66.5877 112.175 66.4649 112.786 66.3596C113.537 66.2193 114.253 66.079 114.969 65.9562C115.143 65.9211 115.318 65.886 115.493 65.8509C116.104 65.7281 116.715 65.6229 117.326 65.5176C118.531 65.2896 119.753 65.0616 121.028 64.8335C122.565 64.5353 121.884 62.0093 121.762 61.3252Z" fill="#A14D35"/>
<path d="M115.511 65.851C115.336 65.8861 115.161 65.9212 114.987 65.9563C114.812 65.7282 114.725 65.4125 114.655 65.1318C114.655 65.1143 114.655 65.0967 114.637 65.0792C114.515 64.6056 114.428 64.1319 114.288 63.6759C114.166 63.2899 114.044 62.904 113.922 62.5181C113.834 62.2374 113.747 61.9743 113.642 61.6937C113.38 60.8868 113.136 60.0798 112.961 59.2554C112.926 59.0624 112.874 58.8695 112.839 58.6765C112.769 58.2906 112.699 57.9047 112.647 57.5012C112.507 56.5189 112.42 55.5366 112.332 54.5718C112.28 53.9403 112.193 53.3088 112.158 52.6598C112.14 52.4844 112.14 52.3089 112.123 52.1335C112.105 51.7652 112.123 51.3968 112.14 51.046C112.14 50.8881 112.158 50.7302 112.158 50.5723C112.175 50.2566 112.175 49.9408 112.193 49.6251C112.193 49.3269 112.647 49.3444 112.647 49.6251C112.647 49.9233 112.629 50.204 112.629 50.5022L112.612 50.9582C112.594 51.3266 112.594 51.6774 112.594 52.0458C112.594 52.2388 112.612 52.4493 112.629 52.6422C112.664 53.1685 112.734 53.6772 112.769 54.2034C112.839 55.0454 112.926 55.905 113.014 56.7469C113.101 57.4311 113.188 58.1152 113.328 58.7993C113.398 59.1677 113.485 59.5361 113.59 59.9044C113.869 60.9218 114.218 61.9217 114.533 62.9216C114.55 62.9567 114.568 63.0093 114.568 63.0444C114.69 63.4127 114.795 63.7986 114.899 64.167C114.934 64.2898 114.952 64.4126 114.987 64.5529C115.039 64.8161 115.091 65.2546 115.249 65.5528C115.301 65.658 115.371 65.7458 115.458 65.8159C115.476 65.8335 115.493 65.851 115.511 65.851Z" fill="#45322C"/>
<path d="M115.213 58.8519C115.318 60.606 114.515 62.3251 114.462 64.0792C114.462 64.3774 114.899 64.3774 114.916 64.0792C114.951 62.3251 115.772 60.606 115.667 58.8519C115.65 58.5712 115.196 58.5712 115.213 58.8519Z" fill="#45322C"/>
<path d="M108.438 56.554C109.137 57.7819 110.027 58.8694 110.988 59.9044C111.459 60.4131 111.948 60.9218 112.507 61.3603C112.978 61.7287 113.45 62.0971 113.904 62.5005C114.113 62.6935 114.428 62.3777 114.218 62.1848C113.275 61.3428 112.28 60.6411 111.407 59.7114C110.429 58.6765 109.521 57.5714 108.822 56.3259C108.683 56.0804 108.299 56.3084 108.438 56.554Z" fill="#45322C"/>
<path d="M119.788 60.5184C119.561 61.2727 119.195 61.9743 118.88 62.676C118.566 63.3601 118.304 64.0793 117.902 64.7108C117.728 64.9915 117.536 65.2546 117.344 65.5177C116.732 65.623 116.121 65.7458 115.51 65.851C115.335 65.8861 115.161 65.9212 114.986 65.9563C114.27 66.0966 113.554 66.2194 112.804 66.3597C112.21 66.465 111.616 66.5878 111.005 66.693C110.184 66.2194 109.433 65.6054 108.7 64.9388C107.74 64.0618 106.936 62.9216 105.958 62.1673C105.277 61.641 104.3 60.9744 104.439 59.9921C104.492 59.6764 104.823 59.536 105.085 59.501C105.976 59.3957 106.936 59.8342 107.74 60.1675C108.665 60.5535 109.608 60.9394 110.516 61.3604C111.459 61.7989 112.542 62.2725 113.223 63.0794C113.764 63.6934 114.131 64.4301 114.62 65.0967C114.794 65.3248 114.969 65.5528 115.178 65.7458C115.196 65.7808 115.231 65.7984 115.248 65.8335C115.231 65.7808 115.231 65.7282 115.231 65.658C115.231 65.623 115.231 65.6054 115.231 65.5703C115.248 64.816 115.58 64.0793 115.807 63.3601C116.034 62.6584 116.331 61.9743 116.663 61.3077C117.012 60.6587 117.413 60.0272 117.885 59.4483C118.252 59.0098 118.968 58.273 119.596 58.6414C120.242 59.0098 119.945 59.957 119.788 60.5184Z" fill="#61994D"/>
<path d="M116.68 47.0641C116.401 46.4852 115.895 46.2045 115.318 46.2045C115.004 45.4502 114.341 44.9415 113.432 44.8538C112.891 44.8012 112.315 44.9064 111.861 45.2047C110.394 44.5205 108.369 46.6255 108.927 48.0639C108.334 48.8358 108.107 49.9935 108.596 50.8355C109.05 51.6073 109.94 51.9757 110.743 51.8003C111.093 52.2564 111.599 52.5896 112.158 52.6774C112.28 52.6949 112.402 52.6949 112.524 52.6774C112.559 52.6774 112.577 52.6774 112.612 52.6598C113.275 52.5546 113.59 52.0634 113.904 51.5547C114.655 51.7652 115.476 51.5547 116.034 50.9583C116.366 50.6075 116.558 50.1689 116.628 49.6953C116.68 49.3795 116.663 49.134 116.541 48.941C116.628 48.7656 116.715 48.5551 116.75 48.3972C116.855 47.9236 116.872 47.4675 116.68 47.0641Z" fill="#FFBD4A"/>
<path d="M111.809 47.1342C112.036 46.8886 112.402 46.6255 112.769 46.8009C112.961 46.9062 113.014 47.1342 113.206 47.2395C113.345 47.3272 113.45 47.2921 113.59 47.2745C114.044 47.2219 114.376 47.4324 114.323 47.9411C114.306 48.0639 114.445 48.1516 114.55 48.1692C114.742 48.1867 114.707 48.6428 114.69 48.748C114.638 48.9936 114.515 49.2217 114.341 49.4146C114.131 49.6251 114.445 49.9409 114.655 49.7304C115.109 49.2743 115.546 47.8534 114.55 47.7306C114.62 47.8008 114.707 47.8885 114.777 47.9587C114.812 47.5727 114.672 47.2044 114.358 46.9939C114.218 46.8886 114.061 46.836 113.887 46.8185C113.66 46.8009 113.52 46.9237 113.328 46.7483C113.101 46.5203 112.909 46.3448 112.56 46.3273C112.14 46.3098 111.774 46.5553 111.494 46.8535C111.285 47.029 111.599 47.3623 111.809 47.1342Z" fill="#45322C"/>
<path d="M110.761 47.6253C110.132 47.8358 109.835 48.4498 110.01 49.0988C110.08 49.3795 110.516 49.2567 110.446 48.976C110.342 48.5726 110.481 48.1866 110.883 48.0463C111.162 47.9761 111.04 47.5376 110.761 47.6253Z" fill="#45322C"/>
<path d="M110.97 50.169C110.988 50.7478 111.512 51.1162 112.088 51.0636C112.193 51.046 112.262 50.9934 112.367 50.9759C112.524 50.9583 112.681 50.9934 112.839 50.9759C113.153 50.9408 113.45 50.8355 113.694 50.6426C113.921 50.4672 113.712 50.0813 113.467 50.2567C113.293 50.3795 113.118 50.4847 112.908 50.5198C112.734 50.5549 112.559 50.4847 112.385 50.5198C112.28 50.5373 112.227 50.5724 112.123 50.59C111.843 50.6426 111.407 50.5373 111.407 50.169C111.407 49.8708 110.953 49.8708 110.97 50.169Z" fill="#45322C"/>
<path d="M111.791 55.8347C111.721 55.1681 111.354 54.3963 110.708 54.0981C110.708 54.0981 110.638 54.063 110.569 54.0455C110.569 54.028 110.551 54.0104 110.551 53.9929C110.534 53.9402 110.499 53.8701 110.464 53.8175C110.272 53.5017 109.992 53.2386 109.696 53.0281C109.102 52.6246 108.386 52.4668 107.705 52.7299C107.425 52.8351 107.181 52.993 106.971 53.186C106.884 53.1333 106.762 53.0983 106.622 53.1158C105.086 53.186 103.654 55.4839 104.876 56.589C104.754 57.1328 104.771 57.6415 105.068 58.2028C105.365 58.7642 105.854 59.2027 106.43 59.4658C107.094 59.764 107.775 59.6412 108.491 59.5711C109.084 59.5184 109.661 59.3079 110.045 58.8519C110.097 58.7817 110.15 58.7291 110.184 58.6589C110.219 58.6063 110.254 58.5361 110.289 58.4659C110.394 58.273 110.516 58.0099 110.499 57.852C110.638 57.8169 110.865 57.7292 110.9 57.7117C111.581 57.3608 111.878 56.5364 111.791 55.8347Z" fill="#FFBD4A"/>
<path d="M106.447 55.0629C106.43 55.0804 106.43 55.0804 106.413 55.098C106.535 55.1506 106.674 55.2032 106.797 55.2558C106.797 55.0102 106.814 54.9576 107.024 54.8173C107.268 54.6594 107.233 54.6945 107.478 54.7647C107.565 54.7822 107.687 54.7471 107.722 54.6594C107.967 54.1156 108.7 54.5366 108.787 54.9927C108.84 55.2734 109.259 55.1506 109.224 54.8699C109.084 54.0279 107.757 53.5192 107.338 54.4314C107.425 54.3963 107.513 54.3612 107.582 54.3261C107.251 54.2209 106.936 54.1332 106.657 54.3963C106.412 54.6068 106.325 54.9401 106.325 55.2558C106.325 55.4488 106.57 55.554 106.709 55.4137C106.727 55.3962 106.727 55.3962 106.744 55.3786C106.971 55.1857 106.657 54.8699 106.447 55.0629Z" fill="#45322C"/>
<path d="M106.186 56.3785C105.924 57.0977 106.378 57.7643 107.146 57.7643C107.426 57.7643 107.443 57.3082 107.146 57.3082C106.657 57.3082 106.465 56.9398 106.622 56.5013C106.727 56.2382 106.291 56.1154 106.186 56.3785Z" fill="#45322C"/>
<path d="M108.596 57.4661C108.892 57.3609 109.137 57.1855 109.294 56.9048C109.434 56.6592 109.05 56.4312 108.91 56.6768C108.805 56.8522 108.683 56.9574 108.491 57.0276C108.369 57.0627 108.299 57.1855 108.334 57.3082C108.351 57.4135 108.491 57.5012 108.596 57.4661Z" fill="#45322C"/>
<path d="M117.571 57.238C117.693 56.6942 117.518 56.1329 116.995 55.8171C116.715 55.6592 116.348 55.554 116.017 55.5891C115.65 55.2558 115.126 55.0804 114.69 55.133C114.113 55.2207 113.729 55.7119 113.677 56.2557C113.415 56.3434 113.188 56.5188 113.013 56.7644C112.943 56.8521 112.874 56.9573 112.821 57.0801C112.751 57.2204 112.699 57.3608 112.647 57.5011C112.594 57.659 112.577 57.8344 112.577 57.9923C112.594 58.2379 112.664 58.4834 112.821 58.6588C112.874 58.7115 113.013 58.8518 113.118 58.8869C113.135 58.9395 113.135 58.9921 113.135 58.9921C113.17 59.1851 113.223 59.3781 113.328 59.5535C113.397 59.6763 113.485 59.799 113.572 59.9043C113.747 60.0973 113.974 60.2551 114.218 60.3604C114.497 60.4832 114.794 60.5358 115.091 60.5007C115.196 60.4832 115.301 60.4656 115.388 60.4305C115.458 60.413 115.51 60.3779 115.563 60.3428C115.65 60.2902 115.737 60.2025 115.825 60.1323C117.344 60.606 118.339 58.2203 117.571 57.238Z" fill="#FFBD4A"/>
<path d="M114.445 57.659C114.428 57.5713 114.48 57.2204 114.655 57.3608C114.777 57.4836 114.969 57.4309 115.021 57.2555C115.161 56.8696 115.51 56.9398 115.79 57.1327C116.017 57.3081 116.244 56.9047 116.017 56.7468C115.493 56.3609 114.812 56.5012 114.585 57.1503C114.707 57.1152 114.829 57.0801 114.951 57.045C114.427 56.5714 113.851 57.2029 113.991 57.7818C114.078 58.0624 114.515 57.9396 114.445 57.659Z" fill="#45322C"/>
<path d="M114.253 58.6414C114.288 58.887 114.375 59.0975 114.62 59.2203C114.829 59.3255 115.056 59.3255 115.283 59.2904C115.406 59.2729 115.51 59.2027 115.51 59.0624C115.51 58.9571 115.406 58.8168 115.283 58.8343C115.091 58.8519 114.742 58.9045 114.707 58.6414C114.69 58.5186 114.62 58.4133 114.48 58.4133C114.358 58.4133 114.236 58.5186 114.253 58.6414Z" fill="#45322C"/>
<path d="M116.331 58.6941C116.314 58.7291 116.348 58.6765 116.348 58.6765C116.366 58.659 116.366 58.659 116.383 58.6414C116.418 58.6063 116.453 58.5713 116.471 58.5186C116.523 58.4485 116.575 58.3608 116.61 58.2555C116.645 58.1327 116.575 58.0099 116.453 57.9749C116.331 57.9398 116.209 58.0099 116.174 58.1327C116.156 58.1678 116.174 58.1327 116.174 58.1503C116.174 58.1678 116.156 58.1854 116.156 58.1854C116.139 58.2204 116.139 58.2204 116.104 58.2555C116.052 58.3257 115.999 58.3783 115.947 58.4485C115.877 58.5537 115.929 58.6941 116.034 58.7642C116.139 58.8519 116.261 58.7993 116.331 58.6941Z" fill="#45322C"/>
<path d="M105.277 70.6399C105.242 70.4996 105.207 70.3592 105.138 70.2365C104.963 69.8505 104.631 69.5348 104.09 69.3594C103.391 69.1313 102.518 69.0963 101.75 69.0261C98.7116 68.7279 95.6732 68.3771 92.6349 68.0613C86.6454 67.4298 80.656 66.7808 74.6666 66.1493C56.8031 64.2548 38.957 62.3428 21.0935 60.4483C20.7792 60.4132 20.4998 60.4658 20.2554 60.6061C20.1331 60.6763 20.0109 60.764 19.9061 60.8517C19.2426 61.4832 18.9806 62.676 18.8933 63.3777C17.7932 72.1134 16.4137 80.8316 15.4883 89.5848C15.0517 93.672 14.458 97.7416 13.8818 101.811C13.323 105.828 12.9738 109.88 12.2404 113.88C11.8038 116.248 11.2276 118.599 11.018 121.002C10.9831 121.405 10.9307 121.826 10.9831 122.23C11.0006 122.3 11.0006 122.37 11.0355 122.44C11.0529 122.51 11.0879 122.598 11.1228 122.668C11.5593 123.493 13.0087 123.843 13.8643 124.089C17.3043 125.089 21.0237 125.422 24.6034 125.755C25.0748 125.808 25.5638 125.843 26.0352 125.878C38.9396 127.089 51.809 128.422 64.6784 129.79C74.7364 130.86 84.7945 131.93 94.8525 133.018C95.7256 133.105 96.2669 132.948 96.6162 132.614C96.7209 132.509 96.8083 132.386 96.8781 132.246C97.1575 131.72 97.1924 130.983 97.2623 130.194C98.0131 122.195 99.4799 114.213 100.528 106.232C101.68 97.4259 102.85 88.6025 104.072 79.7966C104.369 77.867 104.614 75.9199 104.876 73.9728C105.05 73.0431 105.504 71.6749 105.277 70.6399Z" fill="#3D89ED"/>
<path d="M105.277 70.6399C104.631 71.0784 103.985 71.517 103.339 71.9555C99.1832 74.7797 95.0273 77.5688 90.8539 80.3579C86.1217 83.5154 81.3546 86.6553 76.57 89.7427C73.4444 91.7599 70.3012 93.7772 67.1057 95.7068C66.9311 95.812 66.7739 95.9173 66.5993 96.005C65.8485 96.4611 65.0976 96.9171 64.3293 97.3557C62.9672 98.1451 61.6052 98.9344 60.1733 99.6361C59.7193 99.8641 59.2653 100.075 58.7939 100.25C58.5319 100.355 58.2176 100.461 57.9208 100.461C57.6588 100.443 57.4493 100.285 57.2397 100.145C56.8905 99.8992 56.5587 99.601 56.2444 99.3203C55.1269 98.3205 54.0617 97.268 52.9965 96.1979C52.3504 95.5489 51.6869 94.8823 51.0408 94.2333C50.9011 94.093 50.7789 93.9702 50.6392 93.8298C48.0897 91.2337 45.6101 88.6024 43.1131 85.9537C39.254 81.849 35.4299 77.7267 31.6057 73.6044C28.4451 70.1663 25.2845 66.7281 22.1414 63.2724C21.3905 62.448 20.6571 61.6411 19.9062 60.8166C20.011 60.7114 20.1333 60.6237 20.2555 60.571C21.6001 62.0621 22.9621 63.5356 24.3066 65.0091C27.6942 68.7103 31.0819 72.4116 34.4869 76.0953C38.2587 80.1825 42.0479 84.2346 45.8895 88.2867C47.6706 90.1636 49.4343 92.023 51.2503 93.8649C51.2852 93.9 51.3027 93.9175 51.3376 93.9526C52.5076 95.1454 53.695 96.3383 54.8999 97.496C55.7031 98.2854 56.5238 99.0923 57.4318 99.7764C57.5715 99.8817 57.6064 99.9167 57.7461 100.004C57.7811 100.022 57.816 100.057 57.8684 100.075C57.9033 100.075 57.9731 100.092 58.0081 100.092C58.2351 100.11 58.4097 99.9869 58.6716 99.8817C59.7717 99.4607 60.8544 98.8467 61.8846 98.2854C63.5609 97.3557 65.2024 96.3734 66.8263 95.391C71.2442 92.7072 75.5747 89.9181 79.9053 87.0939C84.6549 83.989 89.3871 80.8666 94.0843 77.7091C97.7688 75.2358 101.453 72.7624 105.103 70.254C105.208 70.3592 105.242 70.4996 105.277 70.6399Z" fill="#1257B3" stroke="#1257B3" stroke-width="0.5"/>
<path d="M96.9306 132.211C96.8608 132.351 96.7735 132.474 96.6687 132.579C96.2671 132.053 95.8655 131.527 95.4638 131C92.9319 127.72 90.3824 124.422 87.833 121.142C84.8645 117.336 81.896 113.529 78.8925 109.722C76.3955 106.547 73.881 103.39 71.2966 100.268C70.4934 99.3028 69.7076 98.338 68.8519 97.4083C68.6075 97.1452 68.363 96.8645 68.1011 96.619C67.7169 96.2506 67.2105 96.1629 66.5994 96.0225C66.5644 96.0225 66.5295 96.005 66.4946 96.005C66.2152 95.9348 66.3374 95.5489 66.6168 95.6191C66.774 95.6542 66.9311 95.6893 67.1057 95.7243C67.455 95.812 67.8217 95.8998 68.1185 96.0752C68.6948 96.4435 69.1488 97.075 69.5679 97.5662C70.4934 98.6187 71.3839 99.6887 72.257 100.776C74.9287 104.039 77.548 107.354 80.1672 110.652C83.1707 114.476 86.1567 118.3 89.1426 122.124C91.6048 125.299 94.0669 128.474 96.529 131.667C96.6513 131.842 96.7909 132.035 96.9306 132.211Z" fill="#1257B3" stroke="#1257B3" stroke-width="0.5"/>
<path d="M51.1629 94.2332C51.128 94.2332 51.0931 94.2332 51.0582 94.2332C50.674 94.2332 50.2375 94.1981 49.9581 94.2683C49.05 94.4788 48.2119 94.9875 47.4261 95.426C46.0466 96.2154 44.7195 97.0925 43.4099 97.9696C39.7429 100.46 36.1981 103.092 32.6708 105.74C28.7419 108.705 24.8479 111.722 20.9888 114.774C17.8457 117.248 14.72 119.739 11.6118 122.247C11.4546 122.37 11.3149 122.493 11.1578 122.615C11.1228 122.545 11.0879 122.475 11.0705 122.387C11.053 122.317 11.0355 122.247 11.0181 122.177C11.4372 121.844 11.8562 121.51 12.2579 121.177C15.5582 118.528 18.8585 115.897 22.1937 113.283C26.1051 110.214 30.0341 107.179 34.0154 104.197C37.4204 101.653 40.843 99.1273 44.4226 96.7767C45.6101 96.0049 46.8149 95.2331 48.0896 94.5665C48.5087 94.356 48.9278 94.1455 49.3644 93.9876C49.8009 93.8298 50.2025 93.7947 50.6391 93.7947C50.7962 93.7947 50.9709 93.7947 51.1455 93.7947C51.1979 93.7947 51.2328 93.8122 51.2677 93.8298C51.3026 93.8473 51.3376 93.8824 51.355 93.9175C51.4074 94.0578 51.355 94.2332 51.1629 94.2332Z" fill="#1257B3" stroke="#1257B3" stroke-width="0.5"/>
<path d="M62.2861 88.4095C61.7448 87.55 60.3479 87.4623 59.597 88.0587C59.4224 88.199 59.2827 88.3393 59.1954 88.4972C58.9335 88.0587 58.5493 87.6903 58.0604 87.5675C57.5365 87.4447 56.9079 87.5149 56.4539 87.8306C55.6681 88.392 55.8951 89.5848 56.1396 90.3566C56.4539 91.3565 57.0476 92.2336 57.6587 93.0755C57.9556 93.4965 58.3747 94.1631 58.9858 93.9877C59.4748 93.8474 59.8415 93.4439 60.1383 93.058C60.6971 92.3213 61.1337 91.8126 61.64 91.0407C62.0417 90.4092 62.7751 89.3041 62.3909 88.5148C62.3211 88.4797 62.3036 88.4446 62.2861 88.4095Z" fill="white"/>
<path d="M89.5803 46.0818C89.5624 46.0818 89.5444 46.0997 89.5444 46.0997C89.5444 46.1175 89.5624 46.1176 89.5803 46.0818Z" fill="#45322C"/>
</g>
<defs>
<clipPath id="clip0">
<rect width="142" height="133" fill="white"/>
</clipPath>
</defs>
</svg>
