<svg width="200" height="214" viewBox="0 0 200 214" fill="none" xmlns="http://www.w3.org/2000/svg">
<path d="M115.014 81.7963H120.477L121.155 63.5048L115.877 58.3801L115.014 81.7963Z" fill="#C45D39"/>
<path d="M122.149 81.7963H116.685L115.811 58.3801L121.482 63.6141L122.149 81.7963Z" fill="#DAA76B"/>
<path d="M87.2046 52.6107C87.4996 52.9057 87.7837 53.2226 88.0459 53.5176L88.1443 53.6269C88.3956 53.9 88.6469 54.1841 88.8982 54.4682C88.9856 54.5775 89.084 54.6759 89.1714 54.7851C89.3571 55.0037 89.5429 55.2113 89.7287 55.4298C89.8161 55.5391 89.9144 55.6374 90.0018 55.7358C90.0455 55.7795 90.0783 55.8232 90.122 55.8669C90.1767 55.9106 90.2204 55.9543 90.275 55.998C90.3733 56.0854 90.4608 56.1619 90.5591 56.2384C90.8104 56.4569 91.0945 56.6318 91.3677 56.7957L91.466 56.8612C91.7501 57.0251 92.0451 57.1781 92.362 57.3201C92.6243 57.4513 92.8865 57.5496 93.1051 57.6479L93.1488 57.6589C93.3564 57.7463 93.553 57.8119 93.717 57.8774L93.7716 57.8993C94.1103 58.0195 94.3179 58.085 94.3179 58.085L94.2633 58.3254C94.2524 58.3254 94.0448 58.3036 93.6732 58.2271C93.4547 58.1834 93.2252 58.1287 93.0067 58.0632C92.7445 57.9976 92.4604 57.8993 92.1653 57.79C91.8266 57.6698 91.4879 57.5059 91.1929 57.3639C90.8651 57.189 90.5154 56.9923 90.1767 56.741C90.0455 56.6536 89.9363 56.5553 89.827 56.4569C89.7833 56.4132 89.7396 56.3695 89.6849 56.3367L89.674 56.3258C89.6303 56.2821 89.5975 56.2384 89.5538 56.2056C89.4446 56.0854 89.3353 55.9761 89.237 55.856C89.0512 55.6483 88.8654 55.4298 88.6906 55.2113C88.6032 55.102 88.5158 54.9927 88.4174 54.8944C88.2754 54.7196 88.1224 54.5447 87.9694 54.3808C87.8383 54.2388 87.7072 54.0858 87.587 53.9438C87.3138 53.616 87.0407 53.31 86.7784 53.0259C86.6801 52.9166 86.5927 52.8183 86.4943 52.709C86.3304 52.5233 86.1665 52.3375 86.0135 52.1736L85.8059 51.9551C85.6311 51.7693 85.4672 51.5945 85.3033 51.4197C85.1831 51.2885 85.0848 51.1793 84.9973 51.0481L84.8662 50.8624C84.8444 50.8187 84.8225 50.775 84.8007 50.7422L84.7679 50.6876C84.7132 50.5892 84.6586 50.48 84.604 50.3379C84.5603 50.2396 84.5275 50.1412 84.5056 50.0538L84.4947 50.032C84.4291 49.8353 84.4073 49.6823 84.3964 49.5949C84.3745 49.4965 84.3745 49.431 84.3745 49.431L84.6149 49.3982C84.6149 49.3982 84.6586 49.6058 84.7897 49.9227L84.8007 49.9445C84.8334 50.021 84.8662 50.0975 84.9209 50.1849C84.9755 50.3051 85.0301 50.3925 85.0957 50.48L85.1394 50.5346C85.1612 50.5674 85.1831 50.6001 85.2049 50.6329L85.3361 50.7968C85.3907 50.8733 85.4781 50.9607 85.5655 51.0372L85.6311 51.1028C85.7622 51.223 85.9043 51.365 86.0572 51.5071C86.1665 51.6054 86.2758 51.7038 86.3741 51.8021C86.5489 51.966 86.7238 52.1408 86.8986 52.3266C87.0079 52.414 87.1062 52.5123 87.2046 52.6107Z" fill="#FBA880"/>
<path d="M105.507 74.2568H105.463L105.092 74.3006L104.349 74.3989L102.885 74.5956C102.415 74.6502 101.912 74.7158 101.421 74.7595C101.224 74.7813 100.962 74.8032 100.688 74.8141C100.568 74.8141 100.448 74.825 100.339 74.825C100.262 74.825 100.164 74.8141 100.087 74.8032L100 74.7158C99.9345 74.4426 99.6285 72.9566 100.907 72.3446C102.863 71.4159 106.054 70.7384 106.611 71.7983C106.993 72.5195 107.081 73.1314 106.884 73.5575C106.72 73.8963 106.359 74.1366 105.824 74.2568C105.715 74.235 105.606 74.2459 105.507 74.2568Z" fill="#F9DBD3"/>
<path d="M107.168 62.7617C107.518 62.6961 107.813 62.6087 108.02 62.5322C108.042 62.6415 108.064 62.7398 108.108 62.8491C108.173 63.0239 108.261 63.166 108.326 63.2643C108.348 63.2971 108.359 63.319 108.381 63.3408C108.337 63.3517 108.272 63.3627 108.206 63.3845C108.064 63.4173 107.845 63.4501 107.638 63.461C107.529 63.461 107.441 63.461 107.365 63.4501C107.354 63.4501 107.343 63.4501 107.332 63.4392C107.31 63.4392 107.288 63.4282 107.277 63.4282L107.266 63.4173C107.223 63.4064 107.212 63.3954 107.201 63.3954C107.234 63.1769 107.234 62.9912 107.201 62.8273C107.179 62.8163 107.168 62.7945 107.168 62.7617Z" fill="#F9DBD3"/>
<path d="M111.047 67.963C111.058 67.9084 111.069 67.8537 111.08 67.7991L111.156 67.4822C111.178 67.3839 111.211 67.2746 111.244 67.1653L111.254 67.1326C111.265 67.0889 111.287 67.0451 111.298 67.0014C111.32 66.914 111.353 66.8375 111.375 66.7392C111.418 66.5753 111.418 66.4223 111.418 66.2803V66.2584C111.397 65.6793 111.265 65.1439 111.167 64.7505L111.156 64.7068C111.08 64.4446 111.025 64.2369 110.981 64.1168C111.036 64.0075 111.091 63.8982 111.134 63.778C111.364 63.2535 111.593 62.6853 111.823 62.0297C111.877 61.8658 111.932 61.7128 111.976 61.5708C112.019 61.7128 112.063 61.8658 112.14 62.0297C112.161 62.0734 112.183 62.1171 112.205 62.1718L112.238 62.2264C112.238 62.2373 112.249 62.2373 112.249 62.2483L112.26 62.2701C112.271 62.3138 112.293 62.3685 112.293 62.4449C112.314 62.7618 112.216 63.1115 112.129 63.3847C112.107 63.4611 112.074 63.5486 112.041 63.625C112.03 63.6578 112.019 63.6906 111.998 63.7234C111.976 63.7671 111.954 63.8217 111.943 63.8764C111.877 64.0621 111.845 64.2479 111.801 64.4227V64.4336C111.724 64.7833 111.67 65.1329 111.615 65.4717L111.582 65.6465C111.528 65.9634 111.484 66.2475 111.418 66.5644C111.397 66.7064 111.375 66.8375 111.353 66.9796C111.32 67.1981 111.276 67.4057 111.233 67.6133C111.178 67.8537 111.102 68.1488 110.959 68.3454L111.014 68.0832C111.036 68.0395 111.047 68.0067 111.047 67.963Z" fill="#FBA880"/>
<path d="M107.572 64.6083C107.518 64.7285 107.474 64.8487 107.43 64.958C107.419 64.9908 107.408 65.0235 107.398 65.0563C107.376 65.111 107.365 65.1547 107.354 65.1984C107.343 65.2421 107.321 65.2967 107.31 65.3295L107.004 65.3076C106.928 65.3076 106.862 65.2967 106.786 65.2967C106.786 65.2749 106.786 65.253 106.786 65.2312C106.786 65.0235 106.797 64.8596 106.808 64.6957C106.818 64.5974 106.829 64.4991 106.84 64.4116L106.851 64.3898C106.862 64.357 106.862 64.3242 106.873 64.3024C106.884 64.2805 106.884 64.2696 106.884 64.2587L106.895 64.215L106.906 64.1931C106.928 64.1494 106.96 64.0838 106.993 64.0183C107.015 63.9636 107.037 63.9199 107.048 63.8762C107.092 63.8981 107.135 63.909 107.179 63.9309L107.223 63.9418C107.343 63.9746 107.463 63.9964 107.605 64.0073C107.693 64.0183 107.78 64.0183 107.878 64.0183L107.835 64.0838C107.725 64.3024 107.638 64.4663 107.572 64.6083Z" fill="#FBA880"/>
<path d="M99.541 61.1774C99.5301 61.1337 99.5083 61.09 99.4973 61.0572V61.0463C99.4099 60.8496 99.2897 60.6201 99.1258 60.4234L99.1149 60.4016C98.9838 60.2486 98.8199 60.0629 98.5685 59.9973C98.5358 59.8989 98.4921 59.8115 98.4483 59.7351C98.3937 59.6258 98.3282 59.5056 98.2298 59.3745C98.208 59.3417 98.1752 59.3089 98.1533 59.2761L99.0493 59.7678C99.1914 59.8334 99.3225 59.899 99.4645 59.9645C99.541 59.9973 99.6066 60.0301 99.6722 60.0629C99.9672 60.2049 100.251 60.3142 100.514 60.4016C100.612 60.4344 100.699 60.4671 100.787 60.4999C100.896 60.5327 101.005 60.5655 101.104 60.5873C100.994 60.6529 100.896 60.7185 100.809 60.784C100.677 60.8933 100.568 60.9916 100.47 61.1009C100.361 61.2211 100.262 61.3522 100.175 61.4615C100.033 61.6691 99.8907 61.8986 99.7596 62.1499L99.7486 62.0734L99.6831 61.7237C99.6612 61.538 99.5957 61.3632 99.541 61.1774Z" fill="#FBA880"/>
<path d="M106.381 63.7344C106.359 63.7672 106.337 63.8109 106.305 63.8437L106.25 63.9311C106.228 63.9748 106.206 64.0076 106.195 64.0404C106.163 64.095 106.152 64.1496 106.13 64.2043L106.119 64.2371C106.086 64.3463 106.053 64.4665 106.02 64.5867C105.966 64.8162 105.933 65.0238 105.911 65.1768C105.9 65.2533 105.889 65.3297 105.878 65.3953C105.802 65.4062 105.725 65.4172 105.66 65.439C104.862 65.6248 104.054 66.0072 103.256 66.6082C102.939 66.8486 102.611 67.1108 102.262 67.4277C101.934 67.7118 101.628 68.0068 101.333 68.2909L100.404 69.176C100.339 69.2415 100.262 69.3071 100.196 69.3727C100.044 68.6734 99.9342 68.0833 99.8359 67.537C99.7485 67.0453 99.6939 66.6519 99.6501 66.2804C99.6392 66.182 99.6283 66.0837 99.6174 65.9744C99.6064 65.8652 99.6064 65.7668 99.6064 65.6794C99.6064 65.6138 99.6064 65.5264 99.6064 65.4499V65.3734L99.6501 65.0784L99.7485 64.4447C99.7813 64.248 99.8031 64.0513 99.825 63.8437C99.825 63.8218 99.8359 63.7672 99.8687 63.6798C99.8905 63.5705 99.9452 63.3957 100.011 63.199C100.131 62.8384 100.328 62.303 100.644 61.8222C100.721 61.713 100.797 61.6037 100.885 61.5054C100.961 61.4179 101.049 61.3305 101.158 61.2322C101.235 61.1666 101.333 61.0901 101.442 61.0246C101.53 60.9699 101.617 60.9262 101.715 60.8934C101.814 60.8607 101.89 60.8388 101.956 60.8279C102.01 60.817 102.054 60.817 102.087 60.806C102.109 60.806 102.131 60.806 102.152 60.7951H102.458V60.7842C102.469 60.7842 102.48 60.7842 102.491 60.7842C102.721 60.9809 102.961 61.1775 103.19 61.3742C103.464 61.6037 103.737 61.8222 103.999 62.0189L104.01 62.0298C104.141 62.1282 104.283 62.2265 104.414 62.3249L104.622 62.4669C104.676 62.4997 104.731 62.5325 104.786 62.5543C104.808 62.5653 104.84 62.5762 104.862 62.598C105.19 62.751 105.54 62.8494 105.857 62.8712C106.119 62.8931 106.381 62.8931 106.632 62.8712V62.8821C106.632 62.8931 106.632 62.9258 106.632 62.9368C106.643 63.046 106.611 63.2099 106.545 63.3848C106.512 63.4722 106.479 63.5596 106.436 63.647C106.425 63.6579 106.403 63.6907 106.381 63.7344Z" fill="#FBA880"/>
<path d="M94.0996 60.1613C94.1214 60.1067 94.1324 60.0521 94.1542 60.0083C94.1979 59.91 94.2526 59.8117 94.3072 59.7133C94.4274 59.5276 94.5694 59.3746 94.7552 59.2435C94.93 59.1233 95.1267 59.0249 95.3562 58.9594C95.4873 58.9266 95.5966 58.9047 95.6949 58.8829C95.7495 58.872 95.8151 58.861 95.8697 58.861L95.9572 58.8501H96.1211C96.2194 58.8501 96.3068 58.8501 96.3833 58.861L96.5581 58.8829L96.722 58.9266C96.7767 58.9375 96.8313 58.9484 96.875 58.9703C96.8969 58.9812 96.9187 58.9922 96.9406 58.9922C96.9733 59.0031 97.0061 59.014 97.0389 59.0249L97.0935 59.0577C97.181 59.1014 97.2574 59.1451 97.323 59.1888C97.3776 59.2216 97.4214 59.2544 97.4541 59.2872C97.476 59.2981 97.4869 59.32 97.5088 59.3309C97.5415 59.3527 97.5634 59.3746 97.5853 59.3964C97.6727 59.4729 97.7382 59.5603 97.8256 59.6587C97.9021 59.768 97.9677 59.8554 98.0114 59.9537C98.066 60.0521 98.1097 60.1504 98.1534 60.2597C98.1644 60.3361 98.219 60.7404 97.9458 61.112C97.6071 61.5709 96.9187 61.8331 95.9025 61.8987C94.9956 61.9533 94.3837 61.7894 94.0887 61.407C93.8592 61.112 93.8592 60.7404 93.892 60.511L94.8754 60.0083L94.0668 60.2269L94.0996 60.1613Z" fill="#F9DBD3"/>
<path d="M1.35786 -10C1.35786 -10 85.2816 25.3811 95.1922 31.4892C105.103 37.5973 108.654 41.4654 111.867 47.3221C115.079 53.1789 117.221 54.3153 117.221 54.3153L104.24 48.6115L90.2642 38.6025L83.9158 39.4658L80.4192 51.3214C80.7033 45.3007 47.2125 36.8652 23.3265 33.0954C-0.559562 29.3147 -9.09912 25.8837 -9.09912 25.8837" fill="#FFBDC6"/>
<path d="M80.3643 40.4601L93.2798 39.4548L101.759 49.2125L112.063 52.3594L116.04 57.353L116.303 67.362L115.123 70.8148L115.297 72.8144L115.188 75.5243L107.43 76.9448L106.72 77.0322L102.874 77.808L99.1912 75.6336L97.8363 75.721L92.8318 72.9565L92.1215 72.8581L91.3567 72.8144L86.7455 71.241L83.5221 65.5918L82.7572 64.4336L82.1344 64.2915L82.0579 63.3081L80.3643 40.4601Z" fill="#1257B3"/>
<path d="M100.087 73.3172C100.207 73.3172 100.328 73.3172 100.437 73.3062C100.699 73.2953 100.961 73.2735 101.169 73.2516C101.661 73.2079 102.163 73.1423 102.633 73.0877L104.097 72.891L104.84 72.7927L105.212 72.749H105.256C105.354 72.738 105.463 72.7271 105.573 72.738C106.119 72.6178 106.479 72.3884 106.632 72.0387C106.829 71.6126 106.742 71.0007 106.359 70.2795C105.802 69.2196 102.6 69.8971 100.655 70.8258C99.377 71.4378 99.672 72.9238 99.7485 73.197L99.8359 73.2844C99.9233 73.3172 100.011 73.3172 100.087 73.3172Z" fill="#82AAF9"/>
<path d="M106.928 61.9096C106.939 61.9096 106.95 61.9205 106.993 61.9315L107.004 61.9424C107.015 61.9424 107.037 61.9533 107.059 61.9533C107.07 61.9533 107.092 61.9642 107.092 61.9642C107.168 61.9752 107.267 61.9861 107.365 61.9752C107.572 61.9642 107.791 61.9315 107.933 61.8987C108.01 61.8878 108.064 61.8659 108.108 61.855C108.086 61.8331 108.075 61.8003 108.053 61.7785C107.988 61.6801 107.911 61.549 107.835 61.3633C107.791 61.254 107.758 61.1447 107.747 61.0464C107.54 61.1119 107.256 61.1994 106.895 61.2758C106.906 61.2977 106.906 61.3196 106.906 61.3414C106.961 61.5053 106.961 61.6911 106.928 61.9096Z" fill="#3D89ED"/>
<path d="M99.5518 73.7215C99.5628 73.7105 99.5627 73.6996 99.5737 73.6777L99.4863 73.5794C99.3551 73.5903 99.2131 73.5466 99.1038 73.4483C98.9836 73.3499 98.9181 73.2297 98.8634 73.1095C98.776 72.9238 98.7105 72.738 98.634 72.4867C98.5028 72.0387 98.4373 71.6016 98.4373 71.1646C98.4373 70.6947 98.5028 70.2467 98.6449 69.8206C98.7869 69.4054 98.9946 69.0011 99.2677 68.6077C99.3114 68.5531 99.3551 68.4984 99.3988 68.4329C99.2022 67.5806 99.0383 66.8266 98.9181 66.1273C98.8306 65.6247 98.7651 65.2095 98.7323 64.827C98.7214 64.7068 98.7105 64.5976 98.6995 64.4883C98.6886 64.3899 98.6886 64.2697 98.6886 64.1386C98.6886 64.0403 98.6886 63.9529 98.6995 63.8655L98.7105 63.778C98.7214 63.6906 98.7323 63.6251 98.7432 63.5486C98.7542 63.5158 98.7542 63.4721 98.7651 63.4284L98.8744 62.7728C98.9071 62.5652 98.9399 62.3685 98.9509 62.1718C98.9727 61.997 98.9727 61.8112 98.9727 61.6364L98.9618 61.4288C98.9508 61.2758 98.9508 61.1119 98.929 60.948L98.8962 60.6311L98.8416 60.3252C98.8197 60.1831 98.776 60.0411 98.7214 59.899C98.7105 59.8553 98.6886 59.8116 98.6777 59.7679C98.6012 59.604 98.5138 59.4292 98.4045 59.2871C98.3936 59.2762 98.3826 59.2543 98.3717 59.2434C98.328 59.4292 98.2515 59.6477 98.0876 59.8662C97.6615 60.4344 96.8638 60.7622 95.7056 60.8387C94.6348 60.9043 93.8917 60.6857 93.4984 60.1722C93.2798 59.8881 93.2033 59.5821 93.1924 59.309L93.1815 59.3199C93.1487 59.3527 93.1269 59.3745 93.105 59.4073C93.0941 59.4292 93.0722 59.451 93.0613 59.4619C93.0394 59.4838 93.0176 59.5166 93.0067 59.5384L92.9083 59.7023C92.8865 59.7351 92.8755 59.7679 92.8537 59.8007C92.8427 59.8225 92.8318 59.8444 92.8209 59.8662C92.799 59.9209 92.7772 59.9755 92.7444 60.0301C92.7007 60.1285 92.6679 60.2268 92.6351 60.3252L92.6133 60.3798C92.5696 60.5109 92.5368 60.6311 92.5149 60.7513C92.4712 60.9371 92.4385 61.1338 92.4166 61.3414V61.3523C92.5914 61.7675 92.6461 62.1827 92.6788 62.5324C92.7116 62.8602 92.7116 63.2098 92.7007 63.6578C92.6898 64.237 92.6351 64.7942 92.5805 65.3406C92.5696 65.4826 92.5587 65.6247 92.5477 65.7667L92.504 66.2584L92.4822 66.7392C92.4712 67.067 92.4603 67.3948 92.4385 67.7117C92.4275 67.8319 92.4166 67.9521 92.4057 68.0723C92.362 68.5531 92.3292 69.012 92.3292 69.4381C92.3292 69.602 92.3292 69.7769 92.3401 69.9408C92.3401 70.0282 92.351 70.1156 92.351 70.1921V70.3232C92.351 70.5308 92.362 70.7275 92.351 70.9133C92.3401 71.3613 92.2855 71.7546 92.2527 72.0715V72.0824C92.209 72.4102 92.1653 72.6616 92.1325 72.8255L92.1216 72.8582C92.2527 73.0112 92.2855 73.1751 92.3073 73.3062C92.351 73.4811 92.4057 73.6559 92.4494 73.8198C92.5696 74.1913 92.7226 74.4973 92.8974 74.7595C93.105 75.0655 93.3454 75.3058 93.6076 75.4916C93.7606 75.5899 93.9136 75.6774 94.0666 75.7429C94.2195 75.8085 94.3834 75.8631 94.5692 75.9068C94.7549 75.9505 94.9298 75.9724 95.1155 75.9942C95.1811 76.0052 95.2357 76.0052 95.3013 76.0052H95.3887C95.4433 76.0052 95.5089 76.0052 95.5854 76.0052H95.9569L96.241 75.9833C96.3612 75.9833 96.4705 75.9615 96.6016 75.9505C96.6671 75.9396 96.7327 75.9396 96.7873 75.9287L96.8748 75.9177C97.0277 75.8959 97.1807 75.8631 97.3337 75.8303C97.4102 75.8194 97.4757 75.7976 97.5522 75.7648L97.5959 75.7538C97.6724 75.732 97.738 75.7101 97.8145 75.6774L97.8363 75.6664C98.0002 75.6009 98.1532 75.5244 98.2952 75.437C98.3608 75.3933 98.4264 75.3496 98.4919 75.2949C98.5028 75.284 98.5138 75.284 98.5138 75.2731C98.5356 75.2512 98.5575 75.2294 98.5903 75.2184L98.6995 75.0655L98.623 73.645L98.9509 74.7049C99.0383 74.5737 99.1147 74.4536 99.1912 74.3443C99.3442 74.093 99.4753 73.8526 99.5518 73.6887V73.7215Z" fill="#3D89ED"/>
<path d="M106.469 75.2184L106.24 73.2953C106.163 73.2953 106.108 73.2953 106.043 73.2953C105.977 73.2953 105.89 73.2844 105.792 73.2734C105.748 73.2625 105.704 73.2625 105.649 73.2407L105.617 73.2297C105.595 73.2188 105.562 73.2079 105.529 73.186C105.442 73.186 105.344 73.197 105.267 73.197L104.906 73.2407L102.71 73.5248C102.24 73.5903 101.738 73.645 101.235 73.6996C101.027 73.7215 100.765 73.7433 100.481 73.7542C100.437 73.7542 100.394 73.7542 100.35 73.7542C100.339 73.7761 100.339 73.7979 100.328 73.8198C100.328 73.8307 100.317 73.8526 100.317 73.8635C100.295 73.9181 100.284 73.9618 100.252 74.0055L100.241 74.0274C100.12 74.2896 99.9457 74.5737 99.8145 74.7704C99.6834 74.978 99.5195 75.1966 99.3338 75.4479L99.2026 75.6227C99.2136 75.6992 99.2136 75.7757 99.2245 75.8522C99.2245 75.9287 99.2354 75.9942 99.2463 76.0707C99.2682 76.2893 99.3119 76.4969 99.3665 76.7154C99.4867 77.1634 99.6725 77.5458 99.9129 77.8627C100.164 78.1905 100.503 78.4528 100.885 78.6167C101.049 78.6932 101.235 78.7478 101.475 78.8024L101.552 78.8134C101.749 78.8571 101.956 78.8898 102.142 78.9117C102.623 78.9663 103.06 78.9773 103.453 78.9445C103.89 78.9008 104.305 78.7915 104.688 78.6167C104.874 78.5293 105.059 78.42 105.245 78.2998C105.311 78.2561 105.376 78.2124 105.431 78.1687L105.518 78.1031C105.606 78.0375 105.693 77.972 105.781 77.9064C105.966 77.7644 106.141 77.6114 106.294 77.4694C106.436 77.3382 106.611 77.1634 106.698 77.0214L106.524 75.8413C106.513 75.6555 106.491 75.437 106.469 75.2184Z" fill="#3D89ED"/>
<path d="M115.374 73.186C115.352 73.0549 115.319 72.9347 115.297 72.8036C115.254 72.6069 115.199 72.3883 115.134 72.1479C115.013 72.3556 114.882 72.5413 114.751 72.7271C114.565 72.9675 114.336 73.2516 113.997 73.4482C113.932 73.492 113.833 73.5357 113.724 73.5684C113.658 73.5903 113.615 73.6012 113.571 73.6012L113.462 73.6231C113.309 73.6449 113.145 73.6668 112.981 73.6886C112.402 73.7433 111.757 73.7214 111.069 73.6121C110.85 73.5794 110.621 73.5357 110.402 73.5029L110.151 73.4592C109.801 73.3936 109.528 73.3499 109.244 73.328C109.124 73.3062 109.015 73.3062 108.894 73.2953L108.796 73.2843C108.654 73.2734 108.512 73.2625 108.348 73.2625C108.064 73.2516 107.769 73.2516 107.441 73.2625C107.31 73.2625 107.179 73.2734 107.059 73.2734L107.222 75.1419C107.244 75.3495 107.255 75.568 107.288 75.7757L107.419 76.9339C107.43 76.9558 107.43 76.9558 107.441 76.9776L107.485 77.1415C107.518 77.2508 107.55 77.3491 107.583 77.4475C107.66 77.6441 107.758 77.8299 107.867 77.9938C108.097 78.3325 108.403 78.6166 108.774 78.7915C109.113 78.9663 109.528 79.0646 109.987 79.0974C110.435 79.1302 110.894 79.0756 111.309 79.01C111.692 78.9444 112.096 78.7915 112.478 78.562C112.817 78.3544 113.156 78.0921 113.516 77.7425C113.844 77.4365 114.15 77.0869 114.456 76.7372L114.587 76.5952C114.806 76.3548 115.024 76.1035 115.276 75.8631L115.199 75.8521V75.7429C115.199 75.7429 115.199 75.6664 115.199 75.5462L115.21 75.2621C115.21 75.1965 115.221 75.12 115.232 75.0326L115.265 74.6939C115.276 74.5737 115.297 74.4535 115.33 74.3442L115.429 73.9181C115.45 73.8198 115.439 73.6886 115.439 73.5903C115.418 73.4482 115.396 73.3171 115.374 73.186Z" fill="#3D89ED"/>
<path d="M106.753 62.5542C106.72 62.6198 106.698 62.6853 106.666 62.729L106.655 62.7509L106.644 62.7946C106.644 62.8055 106.633 62.8165 106.633 62.8383C106.622 62.8602 106.622 62.893 106.611 62.9257L106.6 62.9476C106.589 63.035 106.567 63.1224 106.567 63.2317C106.556 63.3956 106.545 63.5595 106.545 63.7671C106.545 63.7889 106.545 63.8108 106.545 63.8327C106.622 63.8327 106.687 63.8327 106.764 63.8436L107.07 63.8654C107.081 63.8217 107.092 63.778 107.114 63.7343C107.125 63.6906 107.135 63.6469 107.157 63.5923C107.168 63.5595 107.179 63.5267 107.19 63.4939C107.234 63.3847 107.278 63.2645 107.332 63.1443C107.398 62.9913 107.485 62.8383 107.605 62.6307L107.649 62.5651C107.551 62.5651 107.463 62.5651 107.376 62.5542C107.234 62.5433 107.103 62.5214 106.993 62.4887L106.95 62.4777C106.906 62.4668 106.851 62.4449 106.819 62.4231C106.786 62.4559 106.775 62.4996 106.753 62.5542Z" fill="#3D89ED"/>
<path d="M100.263 58.9157C100 58.8283 99.7053 58.7191 99.4212 58.577C99.3556 58.5442 99.2791 58.5115 99.2136 58.4787C99.0824 58.4131 98.9404 58.3585 98.7983 58.282L97.9023 57.7903C97.9242 57.8231 97.957 57.8558 97.9788 57.8886C98.0662 58.0197 98.1427 58.129 98.1974 58.2492C98.2411 58.3257 98.2739 58.4131 98.3176 58.5115C98.5689 58.577 98.7328 58.7628 98.8639 58.9157L98.8748 58.9376C99.0387 59.1343 99.148 59.3637 99.2463 59.5604V59.5714C99.2573 59.6151 99.2791 59.6588 99.2901 59.6915C99.3556 59.8664 99.4212 60.0521 99.443 60.2379L99.5086 60.5875L99.5195 60.664C99.6506 60.4127 99.7818 60.1833 99.9347 59.9756C100.022 59.8664 100.12 59.7353 100.23 59.6151C100.317 59.5167 100.437 59.4075 100.568 59.2982C100.656 59.2217 100.754 59.1561 100.864 59.1015C100.765 59.0796 100.656 59.0469 100.547 59.0141C100.448 58.9813 100.361 58.9485 100.263 58.9157Z" fill="#3D89ED"/>
<path d="M119.308 56.6647C119.275 56.4025 119.22 56.1511 119.155 55.9217L119.1 55.7468L119.024 55.5502C118.991 55.4627 118.958 55.3972 118.925 55.3207C118.903 55.277 118.893 55.2442 118.871 55.2114C118.434 54.3264 117.691 53.5615 116.969 52.8185L116.904 52.7529C116.368 52.2066 115.811 51.6602 115.276 51.1248C115.057 50.9063 114.839 50.6877 114.62 50.4692C113.79 49.4202 112.774 47.9232 111.626 45.8253C108.414 39.9685 104.862 36.1004 94.9519 29.9923C93.2473 28.9433 89.5977 27.1186 84.7353 24.8348C84.7353 24.8348 80.6705 23.1412 75.371 27.195C70.891 30.6151 69.7218 40.4711 71.6449 44.9074L79.4189 49.3505L79.8975 49.8291C79.8975 49.8291 80.3099 52.1628 80.3973 53.1681C80.4847 54.1843 80.6049 55.277 80.747 56.5008C80.889 57.659 81.042 58.7408 81.2168 59.8116C81.3152 60.358 81.4135 60.9152 81.5228 61.4507C81.5556 61.6364 81.5993 61.8112 81.632 61.9861C81.7085 62.3466 81.785 62.7291 81.8506 63.1225C81.8724 63.2645 81.8943 63.4175 81.8943 63.5814L81.9052 63.8327L81.9161 63.8655L81.9271 63.931C81.9708 64.1277 82.0691 64.2916 82.2221 64.4337C82.3095 64.5211 82.4079 64.5976 82.5062 64.6741L82.539 64.6959C82.5827 64.7287 82.6373 64.7724 82.681 64.8052C82.7138 64.827 82.7466 64.8598 82.7794 64.9035L82.8121 64.9363C82.8231 64.9472 82.834 64.9582 82.8449 64.98C82.8668 65.0019 82.8886 65.0456 82.9105 65.0784C82.9651 65.1876 82.987 65.2532 83.0088 65.3187L83.0198 65.3625C83.0416 65.4389 83.0635 65.5154 83.0853 65.581C83.129 65.723 83.1618 65.8651 83.1946 66.0071L83.282 66.4114C83.5005 67.3839 83.7081 68.3127 84.036 69.1978C84.1452 69.4709 84.2436 69.7113 84.3528 69.9189L84.5495 70.2795L84.5932 70.3451C84.6479 70.4434 84.7025 70.5308 84.7571 70.6292C85.0849 71.1646 85.4018 71.5143 85.7624 71.7656C85.8935 71.853 86.0356 71.9513 86.1776 72.0387C86.265 72.0934 86.3634 72.1589 86.4508 72.2136C86.6802 72.3556 86.8988 72.4868 87.1501 72.6288C87.4014 72.7599 87.6418 72.8801 87.8822 72.9675C88.1117 73.0549 88.3739 73.1533 88.6143 73.1861C88.6689 73.197 88.7236 73.197 88.7563 73.197L89.3682 73.1314C89.6305 73.1096 89.9146 73.0768 90.1987 73.044C90.4172 73.0112 90.7122 72.9785 90.9854 72.9129C91.0947 72.891 91.204 72.8583 91.3132 72.8255L91.3569 72.8146C91.3897 72.8036 91.4334 72.7927 91.4553 72.7818V72.7599L90.9745 72.2464L91.1384 72.0715L91.5099 72.3884C91.5318 72.2682 91.5427 72.148 91.5645 72.0278V72.0169C91.5973 71.7219 91.641 71.3504 91.6519 70.9242C91.6629 70.7603 91.6519 70.5746 91.6519 70.3888V70.2468C91.6519 70.1484 91.641 70.0501 91.641 69.9517C91.6301 69.7988 91.6192 69.6348 91.6301 69.46C91.6192 69.012 91.652 68.5422 91.6847 68.0505C91.6957 67.9303 91.6957 67.7991 91.7066 67.6789C91.7284 67.3293 91.7394 67.0233 91.7394 66.7392L91.7503 66.2257L91.8049 65.3952C91.8486 64.827 91.8814 64.237 91.8923 63.6469C91.9033 63.2426 91.8814 62.9148 91.8596 62.6198C91.8268 62.2483 91.7503 61.9314 91.6519 61.691C91.5973 61.5599 91.5318 61.4397 91.4443 61.3632C91.3788 61.2977 91.3241 61.243 91.2695 61.1884C91.2039 61.1338 91.1493 61.0791 91.0838 61.0245C90.8106 60.806 90.5374 60.6421 90.2642 60.5328C89.707 60.3033 89.0732 60.2815 88.4941 60.4782C87.9805 60.653 87.456 60.9589 86.9425 61.396C86.7021 61.6036 86.4726 61.8222 86.3087 61.997L86.0902 62.2265L86.0465 62.2811C86.0137 62.3248 85.9809 62.3685 85.9591 62.4013C85.9044 62.4778 85.8498 62.5433 85.8061 62.6089C85.5329 63.0132 85.3035 63.4503 85.1723 63.8546C85.0303 64.2479 84.9757 64.5976 84.921 64.9145V64.9363C84.8664 65.286 84.8118 65.5264 84.7571 65.6793C84.7353 65.7558 84.7025 65.8214 84.6806 65.8651L84.5932 66.0508L84.3856 65.9525L84.4512 65.7668C84.4621 65.723 84.4839 65.6793 84.4949 65.6138C84.5277 65.4717 84.5495 65.2641 84.5714 64.9145V64.8817C84.5932 64.5648 84.626 64.1824 84.7353 63.7453C84.8008 63.494 84.8773 63.2536 84.9866 63.0023C84.7353 63.1334 84.4512 63.2864 84.1561 63.4393C84.0141 63.5049 83.883 63.5814 83.7409 63.6469C83.6644 63.6797 83.5989 63.7125 83.5224 63.7562C83.3913 63.8218 83.2601 63.8764 83.1399 63.931C83.0744 63.9638 83.0198 63.9857 82.9651 64.0075C82.9105 64.0294 82.8558 64.0512 82.8012 64.0731C82.7794 64.084 82.7575 64.0949 82.7357 64.0949L82.2877 64.2588L82.1893 64.0075L82.6045 63.8108C82.6264 63.7999 82.6482 63.789 82.681 63.7781C82.7247 63.7562 82.7684 63.7344 82.8231 63.7125C82.8777 63.6797 82.9323 63.6469 82.9979 63.6251C83.1072 63.5705 83.2274 63.5049 83.3585 63.4284C83.424 63.3847 83.5005 63.3519 83.5661 63.3082C83.6972 63.2317 83.8283 63.1662 83.9595 63.0788C84.5932 62.7072 85.2051 62.3029 85.4564 62.139L85.4783 62.0953C85.5111 62.0516 85.5329 62.0079 85.5657 61.9642L85.5985 61.9205L85.8607 61.5927C86.0902 61.3195 86.2978 61.101 86.5054 60.9152C87.0955 60.358 87.6527 60.0083 88.2646 59.7898C88.658 59.6477 89.0404 59.5822 89.401 59.5822C89.7835 59.5822 90.1878 59.6587 90.5811 59.8116C90.9199 59.9428 91.2695 60.1504 91.6082 60.4126C91.6847 60.4672 91.7503 60.5328 91.8268 60.5984C91.8596 60.4563 91.9033 60.3252 91.947 60.205L91.9688 60.1613C92.0125 60.0411 92.0562 59.9209 92.1109 59.8007C92.1437 59.7351 92.1655 59.6696 92.2092 59.5931C92.2201 59.5712 92.2311 59.5494 92.242 59.5275C92.2639 59.4838 92.2857 59.4401 92.3185 59.3964L92.4387 59.2107C92.4715 59.1669 92.5042 59.1232 92.537 59.0795C92.548 59.0577 92.5698 59.0467 92.5807 59.0249C92.6244 58.9703 92.6791 58.9156 92.7228 58.8719L92.7556 58.8501C92.8102 58.7954 92.8758 58.7408 92.9522 58.6862C92.9741 58.6752 92.996 58.6643 93.0069 58.6425C93.0506 58.6097 93.1052 58.5769 93.1599 58.555L93.2363 58.5223L93.2582 58.4786C93.28 58.413 93.3128 58.3474 93.3347 58.2819C93.4002 58.1508 93.4658 58.0196 93.5532 57.8994C93.586 57.8557 93.6188 57.812 93.6516 57.7683C93.6188 57.7792 93.586 57.7792 93.5532 57.7902C92.8976 57.8994 92.3294 57.9431 91.794 57.9213C91.193 57.8885 90.6139 57.7355 90.1222 57.6044L89.9255 57.5498C89.4666 57.4296 89.0295 57.3203 88.6143 57.1892C88.5597 57.1673 88.505 57.1564 88.4395 57.1346C88.2646 57.0799 88.0789 57.0253 87.915 56.9597L87.5872 56.8395C87.5216 56.8068 87.4451 56.774 87.3796 56.7412C87.3468 56.7193 87.314 56.7084 87.2812 56.6866L86.9862 56.5445L86.7239 56.3915C86.6693 56.3587 86.6147 56.326 86.56 56.2932C86.4508 56.2276 86.3415 56.1621 86.2432 56.0965C86.1558 56.0419 86.0793 55.9872 86.0028 55.9435C85.8061 55.8124 85.6313 55.7031 85.4783 55.5939L84.9975 55.2661C84.8992 55.2005 84.8336 55.1677 84.8336 55.1677L84.7025 55.1022L84.8773 54.8508L84.9757 54.9492C84.9757 54.9492 85.0303 54.9929 85.1286 55.0585L85.6094 55.3863C85.7515 55.4846 85.9263 55.5939 86.123 55.725C86.1995 55.7796 86.2869 55.8233 86.3634 55.878C86.4836 55.9545 86.6038 56.0309 86.7458 56.1074L87.0955 56.3041L87.3796 56.4352C87.4123 56.4462 87.456 56.468 87.4888 56.4789C87.5544 56.5117 87.609 56.5336 87.6746 56.5554L88.0024 56.6756C88.1663 56.7412 88.3302 56.7849 88.505 56.8286C88.5597 56.8395 88.6143 56.8614 88.6799 56.8723C89.0951 56.9816 89.5321 57.0908 89.9911 57.1892L90.1878 57.2329C90.6904 57.3531 91.2258 57.4733 91.794 57.4951C92.2966 57.517 92.843 57.4733 93.4549 57.364C93.728 57.3203 94.0012 57.2547 94.2525 57.2001C94.4601 57.0799 94.6896 56.9816 94.9409 56.916C95.0939 56.8723 95.225 56.8505 95.3561 56.8395C95.4108 56.8286 95.4873 56.8286 95.5638 56.8177L95.684 56.8068H95.7823C95.8151 56.8068 95.8369 56.8068 95.8697 56.8068C95.968 56.8068 96.0773 56.8067 96.1975 56.8286H96.2084C95.8041 56.5554 95.3452 56.2167 94.8535 55.7796C94.5039 55.4737 94.1651 55.1349 93.8592 54.7744C93.4658 54.3154 93.1817 53.9002 92.9741 53.4741L92.69 53.2009L92.2529 52.7747C92.1327 52.6546 92.0016 52.5234 91.8486 52.3814C91.499 52.0536 91.0838 51.6493 90.6576 51.2341C90.5811 51.1576 90.5046 51.092 90.4391 51.0155C90.297 50.8735 90.1441 50.7314 89.9911 50.5894L89.1934 49.8682C88.7454 49.4639 88.2974 49.0487 87.8822 48.6444C87.4233 48.1855 87.0408 47.7812 86.7349 47.4206C86.5928 47.2567 86.4617 47.0819 86.3197 46.8852L86.265 46.7978C86.1776 46.6666 86.1011 46.5465 86.0465 46.4372L86.0137 46.3716C85.9919 46.3279 85.97 46.2951 85.9591 46.2514L85.8607 46.011L86.0902 45.9127L86.1885 46.1422C86.1995 46.1749 86.2213 46.1968 86.2432 46.2296L86.2869 46.2951C86.3415 46.3935 86.418 46.4918 86.5054 46.612L86.56 46.6885C86.7021 46.8633 86.8441 47.0272 86.9862 47.1802C87.6309 47.9014 88.6143 48.7646 89.5649 49.595L90.2861 50.2288C90.45 50.3708 90.603 50.5238 90.745 50.6659C90.8215 50.7424 90.8871 50.8079 90.9636 50.8844C91.4116 51.3215 91.8049 51.7039 92.1437 52.0536C92.2638 52.1628 92.3622 52.2721 92.4605 52.3814C92.4059 52.2175 92.3513 52.0536 92.2966 51.8897C92.2201 51.6384 92.1327 51.3433 92.0781 51.0592C92.0125 50.7751 91.9579 50.4801 91.9033 50.2069C91.8814 50.1195 91.8705 50.0321 91.8486 49.9447C91.7612 49.4858 91.6738 49.005 91.5099 48.5788C91.4334 48.3494 91.3241 48.1199 91.2149 47.9014L91.1821 47.8358C91.0728 47.6173 90.9526 47.3769 90.8106 47.1147C90.5593 46.6557 90.2861 46.2186 90.002 45.8253C89.6851 45.3991 89.401 45.0495 89.1279 44.7763C88.8219 44.4594 88.5159 44.1863 88.2865 44.0005C87.9805 43.7601 87.7511 43.5962 87.5653 43.476C87.4233 43.3777 87.2921 43.3012 87.1829 43.2466C87.1392 43.2247 87.1064 43.2028 87.0736 43.181L86.7895 43.0171L86.9097 42.7767L87.2047 42.9406C87.2375 42.9625 87.2703 42.9734 87.314 42.9952C87.4233 43.0499 87.5653 43.1264 87.7074 43.2356C87.904 43.3558 88.1444 43.5197 88.4613 43.7601C88.7017 43.9568 89.0295 44.23 89.3464 44.5578C89.6305 44.8419 89.9255 45.1915 90.2533 45.6286C90.5483 46.0329 90.8434 46.47 91.1056 46.9398C91.2477 47.2021 91.3788 47.4425 91.488 47.6719L91.5208 47.7484C91.6301 47.9779 91.7394 48.2073 91.8268 48.4587C92.0125 48.9176 92.1109 49.4093 92.1983 49.8791C92.2201 49.9666 92.2311 50.054 92.2529 50.1414C92.3076 50.4146 92.3622 50.6987 92.4278 50.9718C92.4824 51.245 92.5698 51.5182 92.6463 51.7804C92.8211 52.3268 93.0287 52.8075 93.28 53.2665C93.4767 53.6707 93.7499 54.0532 94.1323 54.4903C94.4383 54.829 94.7661 55.1568 95.0939 55.4409C95.7058 55.9763 96.2631 56.3478 96.7329 56.6538C97.1481 56.916 97.3885 57.0471 97.3995 57.0471L97.5087 57.1018C97.7382 57.2001 97.9567 57.3203 98.1643 57.4296C98.219 57.4624 98.2736 57.4951 98.3392 57.517L98.962 57.8557C99.0931 57.9213 99.2242 57.9759 99.3554 58.0306C99.4318 58.0633 99.4974 58.0961 99.5739 58.1289C99.8471 58.26 100.109 58.3584 100.372 58.4567C100.47 58.4895 100.557 58.5223 100.645 58.555C100.743 58.5878 100.852 58.6097 100.951 58.6425C101.005 58.6534 101.06 58.6752 101.104 58.6862C101.126 58.6971 101.158 58.6971 101.18 58.708C101.224 58.7189 101.257 58.7299 101.3 58.7408L101.497 58.7736C101.552 58.7845 101.595 58.7954 101.65 58.7954C101.049 58.2928 100.47 57.812 99.9782 57.4514C99.7815 57.2985 99.5848 57.1673 99.41 57.0471C99.2242 56.9269 99.0822 56.8286 98.962 56.763C98.8746 56.7084 98.7872 56.6647 98.7216 56.6319L98.5577 56.5445L98.667 56.326L98.8309 56.4025C98.8964 56.4352 98.9948 56.4789 99.0931 56.5336C99.2242 56.5991 99.3772 56.6866 99.5739 56.8068C99.7597 56.916 99.9563 57.0471 100.164 57.2001C100.754 57.6044 101.442 58.1398 102.174 58.6971C102.513 58.9593 102.852 59.2216 103.191 59.4838C103.475 59.6914 103.748 59.899 104.01 60.0848L104.054 60.1067C104.174 60.1941 104.294 60.2705 104.425 60.347L104.633 60.4782C104.666 60.5 104.71 60.5219 104.753 60.5328C104.775 60.5437 104.808 60.5546 104.83 60.5656C105.103 60.6858 105.376 60.7404 105.638 60.7513C105.901 60.7623 106.152 60.7513 106.392 60.7076H106.403C106.884 60.6311 107.277 60.5 107.54 60.4017C107.671 60.347 107.769 60.3033 107.835 60.2705L107.856 60.2596L107.966 59.9537C108.031 59.7788 108.097 59.5931 108.173 59.4183L108.315 59.0795L108.468 58.7517C108.589 58.4786 108.698 58.26 108.796 58.0743C108.84 57.9978 108.873 57.9213 108.916 57.8448C108.993 57.7028 109.069 57.5498 109.157 57.4077L109.528 56.7849C109.605 56.6538 109.692 56.5227 109.769 56.4025C109.812 56.3369 109.856 56.2713 109.9 56.2058L110.238 55.6922L110.982 54.6979L111.069 54.6105L111.255 54.7525L110.501 55.878L110.195 56.3915C110.162 56.4571 110.118 56.5227 110.075 56.5882C109.998 56.7084 109.933 56.8395 109.856 56.9707L109.528 57.6044C109.452 57.7355 109.397 57.8776 109.332 58.0306C109.299 58.107 109.266 58.1945 109.222 58.2709C109.135 58.4676 109.047 58.6643 108.938 58.9484L108.851 59.1669L108.698 59.6149C108.632 59.7898 108.578 59.9755 108.523 60.1504L108.49 60.2487C108.479 60.3033 108.457 60.358 108.436 60.4126C108.392 60.5437 108.359 60.6748 108.348 60.7513C108.348 60.8606 108.37 60.9699 108.425 61.101C108.468 61.1884 108.523 61.2758 108.589 61.3742C108.599 61.3851 108.61 61.4069 108.621 61.4179C108.731 61.3305 108.84 61.243 108.96 61.1666C109.769 60.6202 110.654 60.3252 111.266 60.1831C111.43 60.1394 111.572 60.1176 111.703 60.0848C111.67 60.1941 111.626 60.3033 111.593 60.4126C111.517 60.4345 111.43 60.4563 111.353 60.4891C110.894 60.6311 109.998 60.9589 109.244 61.549C109.091 61.6692 108.927 61.8112 108.774 61.9642C108.654 62.0844 108.545 62.2155 108.414 62.3685L108.436 62.4559L108.337 62.4669C108.315 62.4996 108.294 62.5324 108.272 62.5652C108.25 62.598 108.228 62.6198 108.217 62.6526C108.184 62.7072 108.151 62.7509 108.13 62.8056C108.108 62.8384 108.097 62.8711 108.086 62.893C107.988 63.0787 107.922 63.2208 107.878 63.3519C107.835 63.4503 107.813 63.5486 107.78 63.6469C107.769 63.6797 107.758 63.7234 107.747 63.7453C107.736 63.789 107.725 63.8327 107.714 63.8764C107.714 63.8873 107.703 63.9092 107.703 63.9201C107.791 63.931 107.878 63.9529 107.966 63.9638L108.031 63.9748C108.468 64.0731 108.894 64.2151 109.299 64.4118C109.692 64.5976 110.064 64.8598 110.413 65.1767C110.599 65.3625 110.774 65.5482 110.938 65.7449C110.916 65.8214 110.894 65.8979 110.883 65.9634L110.807 66.2803C110.796 66.324 110.785 66.3568 110.785 66.3896C110.512 66.0946 110.26 65.8651 109.998 65.6793C109.692 65.4499 109.353 65.2641 108.993 65.1221C108.654 64.98 108.283 64.8817 107.878 64.8161C107.824 64.8052 107.78 64.8052 107.725 64.7943C107.583 64.7724 107.43 64.7506 107.288 64.7396C107.255 64.7396 107.212 64.7287 107.179 64.7287C107.124 64.7287 107.059 64.7178 107.004 64.7178L106.687 64.7068C106.305 64.6959 105.933 64.7287 105.562 64.8052C105.201 64.8926 104.841 65.0237 104.491 65.1986C104.185 65.3515 103.868 65.5482 103.486 65.8214C102.863 66.2694 102.273 66.8048 101.705 67.3184L100.678 68.2362L100.601 68.3018C100.47 68.411 100.35 68.5203 100.24 68.6405C100.087 68.7826 99.9563 68.9465 99.858 69.0666C99.6176 69.3835 99.4209 69.7113 99.2898 70.0501C99.1478 70.4216 99.0603 70.804 99.0494 71.1646C99.0276 71.5361 99.0603 71.9295 99.1478 72.3228C99.1587 72.3884 99.1805 72.454 99.1915 72.5195C99.1915 71.8311 99.41 70.8914 100.437 70.3997C101.213 70.0282 102.535 69.5693 103.759 69.3726L103.824 69.3617C105.365 69.1213 106.381 69.3617 106.742 70.061C107.19 70.9133 107.288 71.6672 107.026 72.2245C106.917 72.454 106.764 72.6397 106.545 72.7927C106.829 72.7708 107.113 72.749 107.398 72.7381C107.736 72.7271 108.042 72.7162 108.337 72.7271C108.512 72.7271 108.665 72.7381 108.807 72.749L108.905 72.7599C109.026 72.7709 109.157 72.7708 109.277 72.7927C109.55 72.8146 109.856 72.8583 110.206 72.9129L110.457 72.9566C110.676 72.9894 110.894 73.0331 111.113 73.0549C111.768 73.1533 112.347 73.1642 112.883 73.0987H112.894C113.036 73.0768 113.178 73.0659 113.32 73.0331L113.44 73.0112C113.462 73.0112 113.484 73.0003 113.506 73.0003H113.517C113.571 72.9894 113.626 72.9566 113.659 72.9347C113.844 72.8255 114.03 72.6397 114.227 72.3666C114.587 71.8639 114.861 71.2957 115.079 70.804C115.516 69.7987 115.899 68.6733 116.259 67.3511L116.292 67.2309H116.303L118.39 61.3086C118.794 60.1722 119.089 59.1997 119.231 58.2054C119.351 57.67 119.362 57.1564 119.308 56.6647ZM111.637 67.4932C111.386 67.1217 111.145 66.8048 110.894 66.5098C110.894 66.5098 110.894 66.5098 110.894 66.4988C110.938 66.3677 110.982 66.2257 111.003 66.0946C111.025 66.0181 111.036 65.9307 111.047 65.8542C111.134 65.9744 111.211 66.0836 111.287 66.2038C111.506 66.5426 111.681 66.925 111.856 67.3621L112.216 68.3236L111.637 67.4932ZM111.845 60.3689C111.812 60.2706 111.779 60.1831 111.757 60.0957C112.162 60.0192 112.413 60.0083 112.424 59.9974L112.446 60.2378C112.446 60.2487 112.216 60.2815 111.845 60.3689Z" fill="#3D89ED"/>
<path d="M100.383 60.2925C100.066 60.7733 99.869 61.3087 99.7488 61.6693C99.6833 61.8769 99.6395 62.0408 99.6068 62.1501C99.5849 62.2375 99.574 62.2921 99.574 62.314C99.5631 62.5216 99.5303 62.7292 99.4975 62.9149L99.3992 63.5487L99.3554 63.8437V63.9202C99.3554 63.9967 99.3445 64.0732 99.3554 64.1497C99.3554 64.2371 99.3554 64.3354 99.3664 64.4447C99.3773 64.554 99.3773 64.6523 99.3992 64.7507C99.4429 65.1222 99.4975 65.5265 99.5849 66.0072C99.6833 66.5645 99.7925 67.1546 99.9455 67.843C100.011 67.7774 100.088 67.7118 100.153 67.6463L101.082 66.7612C101.377 66.4771 101.683 66.193 102.011 65.898C102.36 65.5811 102.688 65.3188 103.005 65.0785C103.803 64.4884 104.611 64.095 105.409 63.9093C105.474 63.8984 105.551 63.8765 105.627 63.8656C105.638 63.8 105.649 63.7235 105.66 63.647C105.682 63.4941 105.715 63.2865 105.769 63.057C105.802 62.9259 105.835 62.8166 105.868 62.7073L105.879 62.6746C105.901 62.6199 105.922 62.5653 105.944 62.5107C105.955 62.4779 105.977 62.4451 105.999 62.4014L106.054 62.314C106.086 62.2703 106.108 62.2375 106.13 62.2047C106.152 62.1719 106.174 62.1282 106.196 62.0845C106.239 61.9971 106.272 61.9097 106.305 61.8223C106.37 61.6474 106.403 61.4945 106.392 61.3743C106.392 61.3633 106.392 61.3306 106.392 61.3196V61.3087C106.141 61.3306 105.879 61.3306 105.617 61.3087C105.289 61.2868 104.95 61.1885 104.622 61.0355C104.6 61.0246 104.568 61.0137 104.546 60.9918C104.491 60.959 104.436 60.9372 104.382 60.9044L104.174 60.7624C104.043 60.6749 103.901 60.5657 103.77 60.4673L103.759 60.4564C103.497 60.2597 103.224 60.0412 102.95 59.8117C102.71 59.615 102.481 59.4184 102.251 59.2217C102.24 59.2217 102.229 59.2217 102.218 59.2217V59.2326H101.912C101.89 59.2326 101.869 59.2326 101.847 59.2435C101.803 59.2435 101.759 59.2545 101.716 59.2654C101.639 59.2763 101.563 59.2982 101.475 59.3309C101.377 59.3637 101.289 59.4074 101.202 59.4621C101.093 59.5276 101.005 59.5932 100.918 59.6697C100.809 59.768 100.721 59.8554 100.645 59.9428C100.536 60.074 100.459 60.1832 100.383 60.2925Z" fill="#3D89ED"/>
<path d="M93.8484 59.9209C94.1434 60.3033 94.7553 60.4672 95.6623 60.4126C96.6785 60.347 97.3669 60.0848 97.7056 59.6259C97.9897 59.2544 97.9351 58.8501 97.9132 58.7736C97.8804 58.6752 97.8258 58.566 97.7711 58.4676C97.7165 58.3802 97.6619 58.2819 97.5854 58.1726C97.5089 58.0743 97.4324 57.9868 97.345 57.9104C97.3232 57.8885 97.3013 57.8667 97.2685 57.8448C97.2467 57.8339 97.2357 57.812 97.2139 57.8011C97.1811 57.7683 97.1374 57.7355 97.0828 57.7027C97.0172 57.6481 96.9298 57.6153 96.8533 57.5716L96.7987 57.5388C96.7659 57.5279 96.7331 57.517 96.7003 57.5061C96.6785 57.4951 96.6566 57.4951 96.6348 57.4842C96.5911 57.4624 96.5364 57.4514 96.4818 57.4405L96.3179 57.3968L96.1431 57.3749C96.0666 57.364 95.9791 57.364 95.8808 57.364H95.7169L95.6295 57.3749C95.5749 57.3749 95.5093 57.3859 95.4547 57.3968C95.3563 57.4077 95.247 57.4296 95.1159 57.4733C94.8865 57.5388 94.6898 57.6372 94.515 57.7574C94.3401 57.8885 94.1872 58.0415 94.067 58.2272C94.0123 58.3147 93.9577 58.413 93.914 58.5223C93.8921 58.5769 93.8703 58.6315 93.8593 58.6752L93.8375 58.7408L94.6461 58.5223L93.6627 59.0249C93.619 59.2544 93.619 59.6259 93.8484 59.9209Z" fill="#6CA4F4"/>
<path d="M93.0942 59.429C93.0942 59.429 93.7936 57.3748 95.7058 57.3529C97.6179 57.3311 98.7216 59.9207 98.7216 59.9207L97.9348 61.7674L93.28 61.5707L93.0942 59.429Z" fill="#3D89ED"/>
<path d="M107.769 72.4211L106.578 72.8145L99.836 73.2952C99.836 73.2952 99.2132 72.9784 99.1804 72.3446C99.1367 71.7218 99.6502 69.9407 99.6502 69.9407L105.879 68.3345L108.567 69.744L107.769 72.4211Z" fill="#3D89ED"/>
<path d="M77.7529 81.7963H83.2273L84.0905 58.3801L78.4304 63.6141L77.7529 81.7963Z" fill="#C45D39"/>
<path d="M39.8477 179.143H156.328L152.328 81.8181L43.4644 81.829L39.8477 179.143Z" fill="#E7B67B"/>
<path d="M39.8477 179.143H156.328L152.328 81.8181L43.4644 81.829L39.8477 179.143Z" fill="#E7B67B"/>
<path d="M131 116.387L128.007 147L75 142.804L78.0896 112L131 116.387Z" fill="white"/>
<path d="M86.4108 118.415L122.735 121.335L122.655 122.332L86.3307 119.412L86.4108 118.415Z" fill="#B3B3B4"/>
<path d="M85.7365 126.951L122.061 129.871L121.981 130.868L85.6564 127.947L85.7365 126.951Z" fill="#B3B3B4"/>
<path d="M85.0646 134.81L121.389 137.731L121.309 138.727L84.9845 135.807L85.0646 134.81Z" fill="#B3B3B4"/>
<path d="M51.6923 81.8291L55.3091 179.143L49.4741 178.783V81.8291H51.6923Z" fill="#E7B67B"/>
<path d="M49.4702 81.8115H51.7037L55.3183 179.156H49.4702V81.8115Z" fill="#CC934F"/>
<path d="M84.0252 58.3801H93.2912L93.2256 58.555C93.2256 58.555 92.3405 58.8718 91.816 60.6311C91.816 60.6311 90.4611 59.2543 88.6582 59.7023C86.8553 60.1503 85.3037 62.0188 84.7355 63.7998H78.7476L84.0252 58.3801Z" fill="#CC7B58"/>
<path d="M84.8994 81.7963H79.425L78.7476 63.5048L84.0252 58.3801L84.8994 81.7963Z" fill="#DAA76B"/>
</svg>
