<svg width="45" height="45" viewBox="0 0 45 45" fill="none" xmlns="http://www.w3.org/2000/svg">
<path d="M42.8404 14.6549C42.8726 14.4591 42.8894 14.261 42.8905 14.0625C42.8891 12.8057 42.514 11.5777 41.8129 10.5346C41.1117 9.49154 40.1163 8.6805 38.953 8.20462C35.7677 4.54036 31.4508 2.0437 26.6862 1.11014C21.9216 0.176575 16.9817 0.859494 12.6491 3.05071C11.8266 2.03367 10.7089 1.29666 9.45013 0.941187C8.19132 0.585709 6.85327 0.629246 5.62023 1.0658C4.38719 1.50236 3.31983 2.31046 2.56513 3.37882C1.81043 4.44718 1.40552 5.72324 1.40616 7.03128C1.40616 8.20462 2.06885 9.88069 3.3793 12.0261C1.62205 15.2377 0.702015 18.8401 0.704105 22.501C0.706195 26.1619 1.63034 29.7632 3.39126 32.9728C5.15218 36.1823 7.69314 38.8967 10.7797 40.8653C13.8662 42.8339 17.3989 43.9933 21.0516 44.2367C24.7044 44.48 28.3597 43.7994 31.68 42.2576C35.0004 40.7158 37.879 38.3625 40.0501 35.4149C42.2212 32.4673 43.6149 29.0203 44.1025 25.3921C44.5902 21.7638 44.1562 18.0712 42.8404 14.6549ZM41.4843 14.0625C41.4817 14.2343 41.4638 14.4055 41.4307 14.5741C41.4289 14.5802 41.428 14.5881 41.4263 14.5951C40.9965 16.8372 38.1761 20.7589 36.5624 22.7909C34.8125 20.5875 31.6405 16.1596 31.6405 14.0625C31.6405 12.7572 32.1591 11.5053 33.0821 10.5822C34.0051 9.65921 35.257 9.14065 36.5624 9.14065C37.8678 9.14065 39.1197 9.65921 40.0427 10.5822C40.9657 11.5053 41.4843 12.7572 41.4843 14.0625ZM2.81241 7.03128C2.81241 5.72591 3.33096 4.47402 4.25399 3.55099C5.17702 2.62796 6.42892 2.1094 7.73428 2.1094C9.03965 2.1094 10.2915 2.62796 11.2146 3.55099C12.1376 4.47402 12.6562 5.72591 12.6562 7.03128C12.6562 9.12835 9.48419 13.5563 7.73428 15.7597C5.98438 13.5563 2.81241 9.12835 2.81241 7.03128ZM5.12745 32.5494C5.03886 32.639 4.97601 32.7507 4.94551 32.8729C3.21339 29.9405 2.24275 26.6212 2.12209 23.2176C2.00143 19.814 2.73457 16.4343 4.25469 13.3866C4.28282 13.4288 4.31094 13.4701 4.33995 13.5132C5.74971 15.5909 7.13663 17.2556 7.19464 17.3259C7.26063 17.4049 7.34316 17.4685 7.43641 17.5121C7.52966 17.5557 7.63134 17.5783 7.73428 17.5783C7.83723 17.5783 7.93891 17.5557 8.03216 17.5121C8.12541 17.4685 8.20794 17.4049 8.27393 17.3259C8.33194 17.2556 9.71885 15.5909 11.1286 13.5132C11.2224 13.3743 11.3141 13.2372 11.4037 13.1019L11.953 13.6503V15.1779L11.4556 15.6744C11.3239 15.8065 11.2499 15.9854 11.2499 16.1719C11.2499 16.3584 11.3239 16.5373 11.4556 16.6694L13.5649 18.7787C13.6421 18.856 13.7364 18.9141 13.84 18.9484L15.6163 19.5399L16.134 21.0938L15.5205 22.9333L15.0345 23.9063H13.3593C13.2501 23.9064 13.1425 23.9316 13.0446 23.9801L8.82589 26.0895C8.72621 26.1394 8.63981 26.2122 8.5738 26.302C8.50779 26.3919 8.46406 26.4961 8.44621 26.6061C8.42836 26.7161 8.4369 26.8288 8.47113 26.9349C8.50535 27.041 8.56428 27.1374 8.64307 27.2162L10.5468 29.1191V29.9435L9.42706 31.0623L8.43741 31.558L7.34581 31.0114C7.21364 30.9457 7.06423 30.9231 6.91857 30.9468C6.77291 30.9704 6.63831 31.0391 6.5337 31.1432L5.12745 32.5494ZM22.4999 42.8907C20.8319 42.8912 19.1701 42.6872 17.5517 42.2833L19.1504 41.4844H21.0937C21.2028 41.4843 21.3105 41.459 21.4083 41.4106L22.8146 40.7075C22.8819 40.6732 22.9436 40.6287 22.9974 40.5756L23.5827 39.9894L25.1226 39.4761L26.2212 40.5756C26.3532 40.7074 26.5321 40.7813 26.7187 40.7813H28.1249C28.3114 40.7813 28.4904 40.7074 28.6224 40.5756L30.2343 38.9628L31.1431 39.8725C31.1966 39.9258 31.2583 39.9704 31.3259 40.0043L32.2048 40.4429C29.225 42.0564 25.8885 42.8979 22.4999 42.8907ZM36.9184 36.9185C35.9192 37.9182 34.8197 38.8123 33.6374 39.5868L32.0571 38.7967L30.7317 37.4713C30.5997 37.3396 30.4208 37.2656 30.2343 37.2656C30.0478 37.2656 29.8689 37.3396 29.7368 37.4713L27.834 39.375H27.0096L25.8099 38.1744C25.7174 38.0822 25.6012 38.0174 25.474 37.9874C25.3469 37.9575 25.214 37.9635 25.09 38.0048L22.9807 38.7079C22.877 38.7422 22.7828 38.8003 22.7056 38.8776L22.0833 39.4998L20.9275 40.0782H18.9843C18.8751 40.0783 18.7675 40.1035 18.6696 40.152L15.597 41.6892C12.2788 40.4948 9.32728 38.4597 7.03116 35.7829V34.4532C7.03106 34.344 7.00579 34.2363 6.95733 34.1385L6.48008 33.1858L7.17003 32.4958L8.12276 32.9731C8.22054 33.0216 8.32823 33.0469 8.43741 33.0469C8.54658 33.0469 8.65428 33.0216 8.75206 32.9731L10.1583 32.2699C10.2257 32.2357 10.2873 32.1912 10.3411 32.1381L11.7474 30.7319C11.8791 30.5998 11.9531 30.4209 11.953 30.2344V28.8282C11.9531 28.6416 11.8791 28.4627 11.7474 28.3307L10.3411 26.9244L10.3271 26.9113L13.5254 25.3125H15.4687C15.5993 25.3125 15.7273 25.2762 15.8384 25.2076C15.9496 25.139 16.0394 25.0408 16.098 24.924L16.8011 23.5178C16.8159 23.488 16.8285 23.4571 16.8389 23.4255L17.542 21.3161C17.5903 21.1718 17.5903 21.0157 17.542 20.8714L16.8389 18.762C16.8043 18.6585 16.7461 18.5645 16.6689 18.4873C16.5917 18.4101 16.4977 18.3519 16.3941 18.3173L14.4421 17.6669L12.9471 16.1719L13.1536 15.9662C13.2854 15.8342 13.3594 15.6553 13.3593 15.4688V13.3594C13.3594 13.1729 13.2854 12.994 13.1536 12.8619L12.1754 11.8837C13.4278 9.80686 14.0624 8.17825 14.0624 7.03128C14.0632 6.06384 13.8409 5.10924 13.4129 4.24163C16.0017 2.95539 18.8342 2.23361 21.7228 2.12407C24.6115 2.01452 27.4905 2.5197 30.1692 3.60618L25.6429 6.43538C25.509 6.5189 25.4072 6.64503 25.3538 6.79347C25.3004 6.9419 25.2985 7.104 25.3484 7.25364L25.9593 9.08704L25.3862 10.2323C25.3034 10.3993 25.2898 10.5923 25.3484 10.7693L26.0516 12.8786C26.062 12.9103 26.0746 12.9411 26.0894 12.9709L26.636 14.0625L26.1403 15.0522L25.5181 15.6744C25.3863 15.8065 25.3123 15.9854 25.3124 16.1719V17.4639L24.7218 19.2366L22.8497 20.4847L21.4821 21.1676C21.3154 21.2512 21.1886 21.3975 21.1297 21.5745L20.4266 23.6839C20.4028 23.7556 20.3906 23.8307 20.3905 23.9063V24.6094C20.3906 24.7186 20.4159 24.8262 20.4644 24.924L21.1675 26.3303C21.2511 26.4971 21.3974 26.6238 21.5744 26.6827L23.6838 27.3859C23.796 27.4229 23.9156 27.4314 24.0318 27.4105L31.4041 26.0701L32.5493 27.2162C32.6354 27.3019 32.742 27.3639 32.8591 27.3962C32.9761 27.4286 33.0995 27.4302 33.2173 27.4008L35.644 26.7944L36.0649 27.2162C36.1187 27.2693 36.1804 27.3138 36.2478 27.3481L37.5521 28.0002L38.1743 28.6225C38.2789 28.7266 38.4135 28.7953 38.5592 28.8189C38.7049 28.8426 38.8543 28.82 38.9864 28.7543L40.2441 28.125H40.4902L40.9262 28.561L41.5959 29.6772C40.5724 32.3976 38.9773 34.8669 36.9184 36.9185ZM42.0872 27.7629C42.0574 27.7139 42.022 27.6685 41.9817 27.6276L41.2786 26.9244C41.1466 26.7927 40.9677 26.7187 40.7812 26.7188H40.078C39.9689 26.7189 39.8612 26.7441 39.7634 26.7926L38.8106 27.2698L38.4661 26.9244C38.4123 26.8714 38.3507 26.8269 38.2833 26.7926L36.979 26.1405L36.3567 25.5182C36.2707 25.4325 36.164 25.3705 36.047 25.3382C35.93 25.3059 35.8066 25.3043 35.6888 25.3336L33.2621 25.9401L32.138 24.8151C32.0575 24.7349 31.9587 24.6753 31.8502 24.6415C31.7417 24.6077 31.6267 24.6006 31.5149 24.6208L23.9571 25.9946L22.2951 25.4408L21.7968 24.4433V24.0205L22.3716 22.2952L23.5177 21.7231C23.5432 21.7099 23.5687 21.6949 23.5933 21.6791L25.7026 20.2729C25.8327 20.186 25.9302 20.0583 25.9795 19.9099L26.6826 17.8005C26.7064 17.7288 26.7186 17.6537 26.7187 17.5782V16.4628L27.2161 15.9662C27.2692 15.9124 27.3137 15.8508 27.348 15.7834L28.0511 14.3772C28.0996 14.2794 28.1249 14.1717 28.1249 14.0625C28.1249 13.9534 28.0996 13.8457 28.0511 13.7479L27.3699 12.3865L26.7749 10.6005L27.348 9.4553C27.4308 9.28827 27.4444 9.09528 27.3857 8.91829L26.8575 7.3345L31.7047 4.30491C33.4823 5.20502 35.1186 6.36043 36.5615 7.7344C34.8839 7.73652 33.2757 8.40394 32.0895 9.59026C30.9034 10.7766 30.2362 12.3849 30.2343 14.0625C30.2343 15.4943 31.2213 17.6748 33.1681 20.5445C34.5778 22.6222 35.9648 24.2868 36.0228 24.3572C36.0887 24.4362 36.1713 24.4997 36.2645 24.5433C36.3578 24.5869 36.4595 24.6095 36.5624 24.6095C36.6654 24.6095 36.767 24.5869 36.8603 24.5433C36.9535 24.4997 37.0361 24.4362 37.1021 24.3572C37.1601 24.2868 38.547 22.6222 39.9567 20.5445C40.8981 19.1567 41.6138 17.9324 42.1039 16.8715C43.1296 20.4737 43.1527 24.2875 42.1707 27.9018L42.0872 27.7629Z" fill="#222222"/>
<path d="M19.6875 33.0469H17.8693L16.669 31.8466C16.6038 31.7813 16.5262 31.7295 16.4409 31.6941C16.3556 31.6588 16.2642 31.6406 16.1719 31.6406H14.7656C14.635 31.6406 14.507 31.677 14.396 31.7456C14.2849 31.8143 14.1951 31.9125 14.1367 32.0293L12.7305 34.8418C12.6817 34.9394 12.6562 35.0471 12.6562 35.1563C12.6562 35.2654 12.6817 35.3731 12.7305 35.4707L13.4336 36.877C13.517 37.0438 13.6632 37.1706 13.8401 37.2296L15.9495 37.9327C16.1101 37.9862 16.2845 37.98 16.4409 37.9153C16.5973 37.8505 16.725 37.7315 16.8007 37.5801L17.2314 36.7192L18.7622 37.2296C18.886 37.2709 19.019 37.2769 19.1461 37.2469C19.2732 37.2169 19.3894 37.152 19.4817 37.0597L20.1848 36.3566C20.3166 36.2247 20.3907 36.0458 20.3906 35.8594V33.75C20.3906 33.5635 20.3165 33.3847 20.1847 33.2528C20.0528 33.121 19.874 33.0469 19.6875 33.0469ZM18.9844 35.5682L18.7944 35.758L17.0973 35.1923C16.9368 35.1388 16.7623 35.145 16.6059 35.2097C16.4496 35.2745 16.3218 35.3935 16.2461 35.5449L15.8155 36.4058L14.561 35.9875L14.1454 35.1563L15.2001 33.0469H15.8807L17.0809 34.2472C17.1462 34.3125 17.2237 34.3643 17.309 34.3996C17.3943 34.4349 17.4858 34.4531 17.5781 34.4531H18.9844V35.5682Z" fill="#222222"/>
<path d="M34.4531 14.0625C34.4531 14.4797 34.5768 14.8875 34.8086 15.2344C35.0404 15.5813 35.3698 15.8517 35.7553 16.0113C36.1407 16.171 36.5648 16.2127 36.974 16.1313C37.3832 16.05 37.7591 15.8491 38.0541 15.5541C38.3491 15.259 38.55 14.8832 38.6314 14.474C38.7127 14.0648 38.671 13.6407 38.5113 13.2553C38.3517 12.8698 38.0813 12.5404 37.7344 12.3086C37.3875 12.0768 36.9797 11.9531 36.5625 11.9531C36.0033 11.9538 35.4671 12.1762 35.0717 12.5717C34.6762 12.9671 34.4538 13.5033 34.4531 14.0625ZM37.2656 14.0625C37.2656 14.2016 37.2244 14.3375 37.1471 14.4531C37.0699 14.5688 36.9601 14.6589 36.8316 14.7121C36.7031 14.7653 36.5617 14.7792 36.4253 14.7521C36.2889 14.725 36.1637 14.658 36.0653 14.5597C35.967 14.4613 35.9 14.3361 35.8729 14.1997C35.8458 14.0633 35.8597 13.9219 35.9129 13.7934C35.9661 13.6649 36.0562 13.5551 36.1719 13.4779C36.2875 13.4006 36.4234 13.3594 36.5625 13.3594C36.7489 13.3596 36.9276 13.4337 37.0595 13.5655C37.1913 13.6974 37.2654 13.8761 37.2656 14.0625Z" fill="#222222"/>
<path d="M9.84375 7.03125C9.84375 6.61406 9.72003 6.20623 9.48825 5.85934C9.25647 5.51246 8.92703 5.2421 8.5416 5.08244C8.15616 4.92279 7.73203 4.88102 7.32286 4.96241C6.91368 5.0438 6.53782 5.2447 6.24282 5.5397C5.94782 5.8347 5.74692 6.21055 5.66553 6.61973C5.58414 7.02891 5.62591 7.45304 5.78557 7.83847C5.94522 8.22391 6.21558 8.55335 6.56247 8.78513C6.90935 9.01691 7.31718 9.14063 7.73437 9.14063C8.29361 9.13997 8.82976 8.91753 9.22521 8.52208C9.62065 8.12664 9.8431 7.59049 9.84375 7.03125ZM7.03125 7.03125C7.03125 6.89219 7.07249 6.75624 7.14975 6.64062C7.22701 6.52499 7.33682 6.43487 7.4653 6.38165C7.59378 6.32843 7.73515 6.31451 7.87155 6.34164C8.00794 6.36877 8.13322 6.43573 8.23156 6.53407C8.32989 6.6324 8.39686 6.75768 8.42399 6.89408C8.45112 7.03047 8.43719 7.17185 8.38398 7.30033C8.33076 7.4288 8.24064 7.53862 8.12501 7.61588C8.00938 7.69314 7.87344 7.73438 7.73437 7.73438C7.54796 7.73417 7.36924 7.66002 7.23742 7.5282C7.10561 7.39639 7.03146 7.21767 7.03125 7.03125Z" fill="#222222"/>
</svg>
