<svg width="20" height="22" viewBox="0 0 20 22" fill="none" xmlns="http://www.w3.org/2000/svg">
<path d="M15.1365 10.6187H4.86441C4.18566 10.6179 3.53492 10.3479 3.05506 9.8679C2.57519 9.38786 2.30541 8.73704 2.30493 8.05829C2.30589 7.37993 2.57591 6.72966 3.05575 6.25015C3.53559 5.77065 4.18605 5.50109 4.86441 5.50061H11.2847C11.4577 5.50061 11.6237 5.43187 11.7461 5.30951C11.8684 5.18715 11.9372 5.02119 11.9372 4.84815C11.9372 4.6751 11.8684 4.50914 11.7461 4.38678C11.6237 4.26442 11.4577 4.19568 11.2847 4.19568H4.86441C3.84011 4.19663 2.85801 4.60383 2.13355 5.32795C1.40909 6.05207 1.00143 7.03399 1 8.05829C1.00119 9.08291 1.40869 10.0652 2.13312 10.7898C2.85755 11.5144 3.83979 11.9222 4.86441 11.9236H15.1365C15.8151 11.9245 16.4656 12.1947 16.9453 12.6747C17.4249 13.1547 17.6946 13.8054 17.6951 14.484C17.6941 15.1622 17.4242 15.8123 16.9446 16.2918C16.4649 16.7713 15.8147 17.0409 15.1365 17.0416H8.65952C8.48647 17.0416 8.32051 17.1104 8.19815 17.2327C8.07579 17.3551 8.00705 17.5211 8.00705 17.6941C8.00705 17.8671 8.07579 18.0331 8.19815 18.1555C8.32051 18.2778 8.48647 18.3466 8.65952 18.3466H15.1356C16.1599 18.3456 17.142 17.9384 17.8665 17.2143C18.5909 16.4902 18.9986 15.5083 19 14.484C18.9988 13.4595 18.5914 12.4773 17.8672 11.7527C17.143 11.0282 16.161 10.6203 15.1365 10.6187Z" fill="#333333" stroke="#333333" stroke-width="0.6"/>
<path d="M4.77157 13.9549C4.0434 13.9558 3.34533 14.2455 2.83043 14.7604C2.31554 15.2753 2.02585 15.9733 2.0249 16.7015C2.0249 19.0387 4.21629 21.258 4.31079 21.3516C4.43314 21.4739 4.59904 21.5425 4.77201 21.5425C4.94499 21.5425 5.11089 21.4739 5.23324 21.3516C5.32594 21.258 7.51823 19.0387 7.51823 16.7015C7.51728 15.9733 7.22759 15.2753 6.7127 14.7604C6.1978 14.2455 5.49973 13.9558 4.77157 13.9549ZM4.77157 19.9027C4.20819 19.207 3.32984 17.9264 3.32984 16.7015C3.32984 15.9069 3.9769 15.2598 4.77157 15.2598C5.56623 15.2598 6.21239 15.9069 6.21239 16.7015C6.21239 17.9255 5.33494 19.207 4.77157 19.9027ZM15.1723 8.58752C15.2581 8.58785 15.3431 8.57116 15.4223 8.5384C15.5016 8.50565 15.5735 8.4575 15.634 8.39673C15.7276 8.30313 17.9199 6.08385 17.9199 3.74666C17.919 3.01849 17.6293 2.32042 17.1144 1.80553C16.5995 1.29064 15.9014 1.00095 15.1732 1C14.445 1.00071 13.7468 1.29032 13.2319 1.80527C12.7169 2.32021 12.4273 3.01842 12.4266 3.74666C12.4266 6.08385 14.6189 8.30314 14.7125 8.39583C14.7728 8.45657 14.8446 8.50478 14.9237 8.53768C15.0028 8.57058 15.0876 8.58751 15.1732 8.58752H15.1723ZM15.1723 2.30583C15.9679 2.30583 16.615 2.952 16.615 3.74576C16.615 4.9715 15.7366 6.25214 15.1723 6.9478C14.609 6.25214 13.7315 4.9715 13.7315 3.74666C13.7315 2.952 14.3777 2.30493 15.1723 2.30493V2.30583Z" fill="#333333" stroke="#333333" stroke-width="0.6"/>
</svg>
