<svg width="32" height="20" viewBox="0 0 32 20" fill="none" xmlns="http://www.w3.org/2000/svg">
<path d="M1.18396 10.4198L10.6016 19.326C10.8468 19.558 11.2441 19.558 11.4894 19.326C11.7346 19.0941 11.7346 18.7184 11.4894 18.4865L3.14347 10.5937H30.3721C30.7192 10.5937 31 10.3282 31 9.99996C31 9.67177 30.7192 9.4062 30.3721 9.4062H3.14347L11.4894 1.51353C11.7346 1.28158 11.7346 0.905846 11.4894 0.673948C11.3667 0.558001 11.2061 0.5 11.0454 0.5C10.8848 0.5 10.7242 0.558001 10.6015 0.673948L1.1839 9.5802C0.938688 9.8121 0.93869 10.1878 1.18396 10.4198Z" fill="white" stroke="white" stroke-width="0.4"/>
</svg>
