<svg width="197" height="259" viewBox="0 0 197 259" fill="none" xmlns="http://www.w3.org/2000/svg">
<path d="M1.3501 78.9H196V270C196 277.732 189.732 284 182 284H15.3501C7.61811 284 1.3501 277.732 1.3501 270V78.9Z" stroke="#222222" stroke-width="2"/>
<mask id="path-2-inside-1" fill="white">
<path fill-rule="evenodd" clip-rule="evenodd" d="M150.35 111.15V53.675C150.35 25.1357 127.214 2 98.675 2C70.1357 2 47 25.1356 47 53.675V111.15H45V53.675C45 24.0311 69.0311 0 98.675 0C128.319 0 152.35 24.0311 152.35 53.675V111.15H150.35Z"/>
</mask>
<path fill-rule="evenodd" clip-rule="evenodd" d="M150.35 111.15V53.675C150.35 25.1357 127.214 2 98.675 2C70.1357 2 47 25.1356 47 53.675V111.15H45V53.675C45 24.0311 69.0311 0 98.675 0C128.319 0 152.35 24.0311 152.35 53.675V111.15H150.35Z" fill="#C4C4C4"/>
<path d="M150.35 111.15H148.35V113.15H150.35V111.15ZM47 111.15V113.15H49V111.15H47ZM45 111.15H43V113.15H45V111.15ZM152.35 111.15V113.15H154.35V111.15H152.35ZM152.35 111.15V53.675H148.35V111.15H152.35ZM152.35 53.675C152.35 24.0311 128.319 0 98.675 0V4C126.11 4 148.35 26.2403 148.35 53.675H152.35ZM98.675 0C69.0311 0 45 24.0311 45 53.675H49C49 26.2402 71.2402 4 98.675 4V0ZM45 53.675V111.15H49V53.675H45ZM45 113.15H47V109.15H45V113.15ZM43 53.675V111.15H47V53.675H43ZM98.675 -2C67.9265 -2 43 22.9265 43 53.675H47C47 25.1356 70.1357 2 98.675 2V-2ZM154.35 53.675C154.35 22.9266 129.423 -2 98.675 -2V2C127.214 2 150.35 25.1357 150.35 53.675H154.35ZM154.35 111.15V53.675H150.35V111.15H154.35ZM150.35 113.15H152.35V109.15H150.35V113.15Z" fill="#222222" mask="url(#path-2-inside-1)"/>
<path d="M38.5 112.5C38.5 111.672 39.1716 111 40 111H53C53.8284 111 54.5 111.672 54.5 112.5C54.5 113.328 53.8284 114 53 114H40C39.1716 114 38.5 113.328 38.5 112.5Z" fill="#222222"/>
<path d="M143 112.5C143 111.672 143.672 111 144.5 111H157.5C158.328 111 159 111.672 159 112.5C159 113.328 158.328 114 157.5 114H144.5C143.672 114 143 113.328 143 112.5Z" fill="#222222"/>
<g filter="url(#filter0_i)">
<path d="M98.332 153.307L99.1503 154.472L99.9685 153.307C104.478 146.889 111.827 143.062 119.671 143.05C132.425 143.051 143.75 154.977 143.75 168.65C143.75 182.068 136.169 196.04 121.529 209.033C114.756 215.037 107.326 220.257 99.382 224.595C99.2359 224.667 99.0648 224.667 98.9186 224.595C90.972 220.258 83.5401 215.038 76.7649 209.034C62.1314 196.04 54.5503 182.068 54.5503 168.65C54.5503 154.977 65.8759 143.051 78.6295 143.05C86.474 143.062 93.8225 146.889 98.332 153.307Z" stroke="#222222" stroke-width="2"/>
</g>
<defs>
<filter id="filter0_i" x="53.5503" y="142.05" width="91.2" height="93.5993" filterUnits="userSpaceOnUse" color-interpolation-filters="sRGB">
<feFlood flood-opacity="0" result="BackgroundImageFix"/>
<feBlend mode="normal" in="SourceGraphic" in2="BackgroundImageFix" result="shape"/>
<feColorMatrix in="SourceAlpha" type="matrix" values="0 0 0 0 0 0 0 0 0 0 0 0 0 0 0 0 0 0 127 0" result="hardAlpha"/>
<feOffset dy="10"/>
<feGaussianBlur stdDeviation="5"/>
<feComposite in2="hardAlpha" operator="arithmetic" k2="-1" k3="1"/>
<feColorMatrix type="matrix" values="0 0 0 0 0 0 0 0 0 0 0 0 0 0 0 0 0 0 0.15 0"/>
<feBlend mode="normal" in2="shape" result="effect1_innerShadow"/>
</filter>
</defs>
</svg>
