<svg width="32" height="21" viewBox="0 0 32 21" fill="none" xmlns="http://www.w3.org/2000/svg">
<path d="M1.18396 10.9198L10.6016 19.826C10.8468 20.058 11.2441 20.058 11.4894 19.826C11.7346 19.5941 11.7346 19.2184 11.4894 18.9865L3.14347 11.0937H30.3721C30.7192 11.0937 31 10.8282 31 10.5C31 10.1718 30.7192 9.9062 30.3721 9.9062H3.14347L11.4894 2.01353C11.7346 1.78158 11.7346 1.40585 11.4894 1.17395C11.3667 1.058 11.2061 1 11.0454 1C10.8848 1 10.7242 1.058 10.6015 1.17395L1.1839 10.0802C0.938688 10.3121 0.93869 10.6878 1.18396 10.9198Z" fill="#222222" stroke="#222222" stroke-width="0.4"/>
</svg>
