<svg width="74" height="47" viewBox="0 0 74 47" fill="none" xmlns="http://www.w3.org/2000/svg">
<path d="M50.8503 19.8084C52.6198 20.3178 54.3893 20.5763 56.1106 20.5763C58.7686 20.5763 60.9866 19.9689 62.7063 19.2251C61.0484 25.2948 57.0654 35.7679 49.1313 36.9474C48.3965 37.0566 47.7943 37.588 47.5939 38.3031L45.8598 44.5055C45.7136 45.03 45.8002 45.5915 46.0994 46.0467C46.3986 46.5019 46.8794 46.8056 47.4183 46.8794C48.0038 46.9593 48.6007 47 49.1923 47C58.7159 47 68.1475 37.0597 72.1274 22.8267C74.4637 14.4765 75.1487 1.92256 69.394 -5.97922C66.1738 -10.4007 61.4757 -12.7619 55.4301 -12.9977C55.4052 -12.9985 55.3811 -12.9993 55.3562 -12.9993C47.8968 -12.9993 41.2822 -7.97558 39.27 -0.783714C38.068 3.51573 38.6114 8.02467 40.8014 11.9156C42.9681 15.7629 46.5365 18.5672 50.8503 19.8084Z" fill="#CCCCCC"/>
<path d="M2.15609 11.9149C4.32277 15.7629 7.89119 18.5672 12.205 19.8084C13.9745 20.3178 15.744 20.5763 17.4645 20.5763C20.1226 20.5763 22.3412 19.9689 24.061 19.2251C22.403 25.2948 18.4201 35.7679 10.4852 36.9474C9.75039 37.0566 9.149 37.588 8.94778 38.3031L7.21368 44.5055C7.06748 45.03 7.15415 45.5915 7.45333 46.0467C7.75177 46.5019 8.23259 46.8056 8.77218 46.8794C9.357 46.9593 9.95387 47 10.5462 47C20.0698 47 29.5014 37.0597 33.4821 22.8267C35.8176 14.4765 36.5026 1.92257 30.7472 -5.98072C27.5277 -10.4015 22.8288 -12.7634 16.784 -12.9985C16.7591 -12.9992 16.735 -13 16.7094 -13C9.25073 -13 2.6354 -7.97632 0.623219 -0.784462C-0.577312 3.51498 -0.0331955 8.02468 2.15609 11.9149Z" fill="#CCCCCC"/>
</svg>
