<svg width="63" height="19" viewBox="0 0 63 19" fill="none" xmlns="http://www.w3.org/2000/svg">
<path fill-rule="evenodd" clip-rule="evenodd" d="M43.7455 13.6265C42.817 14.6225 41.6246 15.1284 40.202 15.1284C38.7788 15.1284 37.5864 14.6225 36.6584 13.6265C35.7721 12.6777 35.2628 11.1606 35.2628 9.46563C35.2628 7.81118 35.7777 6.31487 36.6736 5.35934C37.6111 4.3633 38.7979 3.85515 40.2008 3.85121C41.606 3.85515 42.7928 4.3633 43.7298 5.35934C44.6268 6.31487 45.1405 7.81118 45.1405 9.46563C45.1405 11.1606 44.6318 12.6777 43.7455 13.6265ZM31.2865 9.46563C31.2865 9.54216 31.2899 9.61757 31.2922 9.69297C29.8684 8.39699 27.81 7.91473 26.5522 7.66318C24.2253 7.17248 22.4476 6.72341 22.4476 5.06672C22.4476 3.89791 23.4943 3.04762 25.505 3.19337C27.3423 3.32674 28.1161 4.44996 28.3282 5.53379C28.3586 5.71161 28.4408 5.84104 28.6434 5.84273L31.9478 5.87087C31.9635 5.87087 31.977 5.86918 31.9911 5.86805C31.5251 6.9547 31.2865 8.16458 31.2865 9.46563ZM25.6665 15.5443C24.0683 15.5443 22.3075 14.9765 21.9018 12.7796C21.8675 12.5697 21.7684 12.483 21.6075 12.4785L18.4128 12.4357V6.78869C18.8326 8.4437 20.2231 9.58943 23.2304 10.2664C25.2433 10.7481 28.7351 11.0542 28.7351 13.1206C28.7351 14.5612 27.6743 15.5781 25.6665 15.5443ZM9.75455 15.1307C7.17722 15.1307 4.81598 13.102 4.81598 9.46788C4.81598 6.61649 6.58635 3.85346 9.77144 3.85346C11.1513 3.85346 14.6498 4.32616 14.6498 9.46788C14.6498 14.6231 10.9971 15.1307 9.75399 15.1307H9.75455ZM49.0217 8.08073C49.755 9.05877 51.0785 9.78301 53.2288 10.267C55.2411 10.7487 58.7334 11.0548 58.7334 13.1212C58.7334 14.5618 57.6721 15.5786 55.6648 15.5449C54.0672 15.5449 52.3053 14.9771 51.9001 12.7801C51.8664 12.5702 51.7673 12.4836 51.6058 12.4791L48.6458 12.4397C48.9581 11.5185 49.1174 10.5208 49.1174 9.46619C49.1172 9.00273 49.0853 8.53982 49.0217 8.08073ZM55.4465 18.4205C58.9912 18.4205 63.1689 17.1008 62.842 12.8207C62.4807 9.02106 58.5269 8.05879 56.5506 7.66374C54.2231 7.17304 52.4454 6.72398 52.4454 5.06728C52.4454 3.89848 53.4921 3.04818 55.5033 3.19393C57.3407 3.3273 58.1144 4.45052 58.3266 5.53435C58.357 5.71218 58.4397 5.8416 58.6417 5.84329L61.9461 5.87143C62.1976 5.87312 62.2759 5.74256 62.2444 5.56361C61.5972 1.60307 58.2883 0.482666 55.2433 0.482666C52.2029 0.482666 48.5395 1.3369 48.2795 5.11905C48.2705 5.26536 48.2671 5.40942 48.2671 5.55067C47.7832 4.5445 47.0854 3.62048 46.1861 2.80227C44.526 1.30539 42.4563 0.503487 40.1992 0.483791H40.1243C39.0461 0.483791 37.991 0.682437 36.9876 1.07635C35.9677 1.47975 35.0293 2.06449 34.2178 2.80227C33.3664 3.57659 32.6939 4.44546 32.2134 5.38916C31.4976 1.57212 28.2438 0.482666 25.2444 0.482666C22.4533 0.482666 19.1365 1.20466 18.4128 4.253V1.22717C18.4127 1.14966 18.3818 1.07537 18.3269 1.02061C18.272 0.965858 18.1977 0.935106 18.1202 0.935106H15.0083C14.9307 0.935255 14.8565 0.966151 14.8017 1.02101C14.747 1.07587 14.7162 1.15022 14.7162 1.22773V2.0437C14.7162 2.181 14.6245 2.22884 14.5125 2.14893C13.4056 1.3459 11.768 0.484354 9.79732 0.484354C8.68986 0.484354 7.63248 0.679061 6.65388 1.06285C5.67472 1.44776 4.74395 2.03357 3.88972 2.80452C2.91731 3.68914 2.17675 4.69756 1.6911 5.80165C1.20546 6.90574 0.958984 8.13926 0.958984 9.46731C0.958984 10.707 1.17733 11.8696 1.60726 12.9203C2.03719 13.9709 2.69165 14.9427 3.5532 15.8094C4.41419 16.676 5.37759 17.3344 6.41471 17.7677C7.45184 18.1993 8.59475 18.4182 9.81364 18.4182C11.9081 18.4182 13.4799 17.5263 14.5097 16.7154C14.6233 16.6287 14.7162 16.6754 14.7162 16.8172V17.6743C14.7162 17.8352 14.8479 17.9669 15.0088 17.9669H18.1208C18.1982 17.9666 18.2724 17.9356 18.3271 17.8808C18.3819 17.826 18.4127 17.7517 18.4128 17.6743V14.7874C19.8799 18.237 23.6181 18.4199 25.4481 18.4199C28.5072 18.4199 32.035 17.4351 32.735 14.4143C33.0716 14.9143 33.4554 15.3807 33.8813 15.8071C35.5493 17.4857 37.7349 18.3884 40.2048 18.4154H40.3061C41.4788 18.4154 42.6105 18.1903 43.6696 17.7452C44.7388 17.2931 45.7083 16.6345 46.5226 15.8071C47.1318 15.1998 47.652 14.5094 48.0679 13.7565C49.1771 18.2038 53.4493 18.4199 55.4465 18.4199V18.4205Z" fill="#888888"/>
</svg>
