<svg width="87" height="25" viewBox="0 0 87 25" fill="none" xmlns="http://www.w3.org/2000/svg">
<path fill-rule="evenodd" clip-rule="evenodd" d="M60.1332 18.2477C58.8441 19.6305 57.1887 20.3328 55.2137 20.3328C53.2379 20.3328 51.5824 19.6305 50.2941 18.2477C49.0637 16.9305 48.3566 14.8242 48.3566 12.4711C48.3566 10.1742 49.0715 8.09688 50.3152 6.77031C51.6168 5.3875 53.2645 4.68203 55.2121 4.67656C57.1629 4.68203 58.8105 5.3875 60.1113 6.77031C61.3566 8.09688 62.0699 10.1742 62.0699 12.4711C62.0699 14.8242 61.3637 16.9305 60.1332 18.2477ZM42.8363 12.4711C42.8363 12.5773 42.841 12.682 42.8441 12.7867C40.8676 10.9875 38.0098 10.318 36.2637 9.96875C33.0332 9.2875 30.5652 8.66406 30.5652 6.36406C30.5652 4.74141 32.0184 3.56094 34.8098 3.76328C37.3605 3.94844 38.4348 5.50781 38.7293 7.0125C38.7715 7.25938 38.8855 7.43906 39.1668 7.44141L43.7543 7.48047C43.7762 7.48047 43.7949 7.47812 43.8145 7.47656C43.1676 8.98516 42.8363 10.6648 42.8363 12.4711ZM35.034 20.9102C32.8152 20.9102 30.3707 20.1219 29.8074 17.0719C29.7598 16.7805 29.6223 16.6602 29.3988 16.6539L24.9637 16.5945V8.75469C25.5465 11.0523 27.477 12.643 31.652 13.5828C34.4465 14.2516 39.2941 14.6766 39.2941 17.5453C39.2941 19.5453 37.8215 20.957 35.034 20.9102ZM12.9434 20.3359C9.36523 20.3359 6.08711 17.5195 6.08711 12.4742C6.08711 8.51562 8.54492 4.67969 12.9668 4.67969C14.8824 4.67969 19.7395 5.33594 19.7395 12.4742C19.7395 19.6313 14.6684 20.3359 12.9426 20.3359H12.9434ZM67.4582 10.5484C68.4762 11.9062 70.3137 12.9117 73.2988 13.5836C76.0926 14.2523 80.941 14.6773 80.941 17.5461C80.941 19.5461 79.4676 20.9578 76.6809 20.9109C74.4629 20.9109 72.0168 20.1227 71.4543 17.0727C71.4074 16.7812 71.2699 16.6609 71.0457 16.6547L66.9363 16.6C67.3699 15.3211 67.591 13.9359 67.591 12.4719C67.5908 11.8284 67.5464 11.1858 67.4582 10.5484ZM76.3777 24.9031C81.2988 24.9031 87.0988 23.0711 86.6449 17.1289C86.1434 11.8539 80.6543 10.518 77.9105 9.96953C74.6793 9.28828 72.2113 8.66484 72.2113 6.36484C72.2113 4.74219 73.6645 3.56172 76.4566 3.76406C79.0074 3.94922 80.0816 5.50859 80.3762 7.01328C80.4184 7.26016 80.5332 7.43984 80.8137 7.44219L85.4012 7.48125C85.7504 7.48359 85.859 7.30234 85.8152 7.05391C84.9168 1.55547 80.323 0 76.0957 0C71.8746 0 66.7887 1.18594 66.4277 6.43672C66.4152 6.63984 66.4105 6.83984 66.4105 7.03594C65.7387 5.63906 64.7699 4.35625 63.5215 3.22031C61.2168 1.14219 58.3434 0.0289063 55.2098 0.0015625H55.1059C53.609 0.0015625 52.1441 0.277344 50.7512 0.824219C49.3353 1.38426 48.0325 2.19605 46.9059 3.22031C45.7238 4.29531 44.7902 5.50156 44.123 6.81172C43.1293 1.5125 38.6121 0 34.448 0C30.573 0 25.9684 1.00234 24.9637 5.23438V1.03359C24.9635 0.925985 24.9206 0.822854 24.8444 0.746837C24.7682 0.670819 24.665 0.628125 24.5574 0.628125H20.2371C20.1295 0.628332 20.0264 0.671225 19.9504 0.747389C19.8743 0.823553 19.8316 0.926766 19.8316 1.03437V2.16719C19.8316 2.35781 19.7043 2.42422 19.5488 2.31328C18.0121 1.19844 15.7387 0.00234375 13.0027 0.00234375C11.4652 0.00234375 9.99727 0.272656 8.63867 0.805469C7.2793 1.33984 5.98711 2.15313 4.80117 3.22344C3.45117 4.45156 2.42305 5.85156 1.74883 7.38437C1.07461 8.91719 0.732422 10.6297 0.732422 12.4734C0.732422 14.1945 1.03555 15.8086 1.63242 17.2672C2.2293 18.7258 3.13789 20.075 4.33398 21.2781C5.5293 22.4813 6.8668 23.3953 8.30664 23.9969C9.74648 24.5961 11.3332 24.9 13.0254 24.9C15.9332 24.9 18.1152 23.6617 19.5449 22.5359C19.7027 22.4156 19.8316 22.4805 19.8316 22.6773V23.8672C19.8316 24.0906 20.0145 24.2734 20.2379 24.2734H24.5582C24.6657 24.273 24.7688 24.2301 24.8447 24.1539C24.9207 24.0778 24.9635 23.9747 24.9637 23.8672V19.8594C27.0004 24.6484 32.1902 24.9023 34.7309 24.9023C38.9777 24.9023 43.8754 23.5352 44.8473 19.3414C45.3145 20.0355 45.8474 20.683 46.4387 21.275C48.7543 23.6055 51.7887 24.8586 55.2176 24.8961H55.3582C56.9863 24.8961 58.5574 24.5836 60.0277 23.9656C61.5121 23.338 62.8582 22.4236 63.9887 21.275C64.8344 20.4319 65.5566 19.4735 66.134 18.4281C67.6738 24.6023 73.6051 24.9023 76.3777 24.9023V24.9031Z" fill="#888888"/>
</svg>
