<svg width="136" height="25" viewBox="0 0 136 25" fill="none" xmlns="http://www.w3.org/2000/svg">
<path d="M72.1409 12.4679C72.1409 6.25355 77.2553 1.21362 83.3166 1.21362C89.3828 1.21362 94.4921 6.25355 94.4921 12.4679C94.4921 18.6872 89.3828 23.7234 83.3166 23.7234C77.2551 23.7234 72.1409 18.6872 72.1409 12.4679ZM83.3164 0C76.5986 0 70.8242 5.58243 70.8242 12.4679C70.8242 19.3545 76.5986 24.9372 83.3164 24.9372C90.0395 24.9372 95.8164 19.3545 95.8164 12.4679C95.8164 5.58243 90.0395 0 83.3164 0Z" fill="#888888"/>
<path d="M36.0662 0.539551H34.6875L46.0215 24.9343H46.1493L57.4833 0.539551H56.1101L49.2058 15.4168L46.0895 22.3075L42.9813 15.4168L36.0662 0.539551Z" fill="#888888"/>
<path d="M113.754 24.2588H115.024V12.4679L114.956 3.03201L135.231 24.9359H135.359V0.541136H134.089V12.4679L134.157 21.8984L113.879 0H113.754V24.2588Z" fill="#888888"/>
<path d="M5.02606 16.3992L8.28704 9.37611L11.3927 2.47728L14.5477 9.39079L17.7768 16.4101L5.02606 16.3992ZM11.4664 0H11.328L0 24.2572H1.38086L4.53904 17.4521L18.253 17.4467L21.4193 24.2572H22.7939L11.4664 0Z" fill="#888888"/>
</svg>
