<svg width="75" height="30" viewBox="0 0 75 30" fill="none" xmlns="http://www.w3.org/2000/svg">
<path d="M9.59353 6.54492C4.3606 6.54492 0 8.78537 0 15.5447C0 20.8996 2.93219 24.2718 9.72865 24.2718C17.7284 24.2718 18.2412 18.9537 18.2412 18.9537H14.365C14.365 18.9537 13.5339 21.8173 9.49219 21.8173C6.20036 21.8173 3.83275 19.5731 3.83275 16.4277H18.6466V14.4538C18.6466 11.342 16.6891 6.54492 9.59353 6.54492ZM9.45841 9.06759C12.5919 9.06759 14.7281 11.0048 14.7281 13.9084H3.91848C3.91848 10.8259 6.70678 9.06759 9.45841 9.06759Z" fill="#888888"/>
<path d="M18.6434 0V20.8776C18.6434 22.0627 18.5596 23.7267 18.5596 23.7267H22.2567C22.2567 23.7267 22.3894 22.5316 22.3894 21.4394C22.3894 21.4394 24.216 24.3233 29.1828 24.3233C34.4129 24.3233 37.9656 20.6588 37.9656 15.4087C37.9656 10.5246 34.7023 6.59643 29.1912 6.59643C24.0304 6.59643 22.4267 9.40886 22.4267 9.40886V0H18.6434ZM28.2369 9.17876C31.7886 9.17876 34.0471 11.8389 34.0471 15.4087C34.0471 19.2367 31.4386 21.741 28.2622 21.741C24.4715 21.741 22.4267 18.754 22.4267 15.4428C22.4267 12.3574 24.2616 9.17876 28.2369 9.17876Z" fill="#888888"/>
<path d="M47.1531 6.54492C39.2805 6.54492 38.7757 10.8951 38.7757 11.5903H42.6941C42.6941 11.5903 42.8996 9.05054 46.8829 9.05054C49.4712 9.05054 51.4769 10.2462 51.4769 12.5448V13.3629H46.8829C40.7839 13.3629 37.5596 15.1635 37.5596 18.8174C37.5596 22.4133 40.5387 24.3698 44.5647 24.3698C50.0515 24.3698 51.819 21.3102 51.819 21.3102C51.819 22.5271 51.9119 23.7263 51.9119 23.7263H55.3954C55.3954 23.7263 55.2603 22.2399 55.2603 21.2889V13.0689C55.2603 7.67919 50.9525 6.54492 47.1531 6.54492ZM51.4769 15.8174V16.9083C51.4769 18.3311 50.607 21.8684 45.4852 21.8684C42.6806 21.8684 41.4781 20.4558 41.4781 18.8174C41.4781 15.8366 45.5276 15.8174 51.4769 15.8174Z" fill="#888888"/>
<path d="M53.1514 7.22803H57.5597L63.8862 20.0191L70.1982 7.22803H74.1915L62.6942 30.0002H58.5055L61.8232 23.6521L53.1514 7.22803Z" fill="#888888"/>
</svg>
