<svg width="162" height="25" viewBox="0 0 162 25" fill="none" xmlns="http://www.w3.org/2000/svg">
<path d="M20.965 0C20.5331 0.437672 20.1062 0.875344 19.6743 1.30804C18.8354 2.15355 17.9866 2.99408 17.1527 3.84455C16.9541 4.04349 16.7456 4.13302 16.4627 4.12804C12.6007 4.1181 8.73381 4.12307 4.87185 4.12307C4.76761 4.12307 4.66337 4.12307 4.54423 4.12307C4.54423 9.63873 4.54423 15.1295 4.54423 20.6352C10.0046 20.6352 15.45 20.6352 20.9253 20.6352C20.9253 20.5209 20.9253 20.4164 20.9253 20.312C20.9253 16.348 20.9253 12.3891 20.9203 8.42519C20.9203 8.25609 20.965 8.13672 21.0891 8.01736C22.1216 6.99281 23.1491 5.95334 24.1816 4.92878C24.4248 4.68508 24.6879 4.46127 24.961 4.21259C24.961 10.9965 24.961 17.7605 24.961 24.5643C24.8666 24.5643 24.7624 24.5643 24.6631 24.5643C16.7059 24.5643 8.7487 24.5643 0.786524 24.5643C0.677317 24.5643 0.573074 24.5693 0.463867 24.5693C0.463867 16.3829 0.463867 8.19641 0.463867 0C7.29922 0 14.1296 0 20.965 0Z" fill="#888888"/>
<path d="M63.7046 24.6188C63.7046 24.5044 63.7096 24.3851 63.7096 24.2707C63.7096 17.2431 63.7096 10.2154 63.7096 3.18782C63.7096 3.08338 63.7096 2.97396 63.7096 2.83967C63.8237 2.83967 63.923 2.83967 64.0173 2.83967C67.5467 2.83967 71.081 2.82973 74.6104 2.84465C75.6975 2.84962 76.7201 3.13809 77.6285 3.74983C78.0504 4.03333 78.4972 4.32179 78.8149 4.70973C79.49 5.52539 79.9417 6.47534 80.1204 7.5347C80.1303 7.59936 80.1253 7.66899 80.1253 7.73365C80.1253 8.56423 80.1154 9.38984 80.1303 10.2204C80.1452 11.2649 79.753 12.1601 79.1524 12.9807C78.9737 13.2244 78.7851 13.4582 78.5964 13.6969C79.2418 14.5176 79.8027 15.378 80.0459 16.4075C80.0906 16.5965 80.1204 16.7955 80.1204 16.9894C80.1303 17.825 80.1253 18.6655 80.1253 19.5011C80.1204 20.2819 79.8573 20.9882 79.48 21.6546C79.0978 22.326 78.5865 22.893 78.0256 23.4053C77.5044 23.8828 76.864 24.1613 76.179 24.3005C75.5436 24.4298 74.8884 24.4746 74.2431 24.5592C74.1835 24.5691 74.1289 24.594 74.0743 24.6139C70.6194 24.6188 67.1645 24.6188 63.7046 24.6188ZM67.1347 21.2915C67.2488 21.2915 67.3382 21.2915 67.4276 21.2915C69.6365 21.2915 71.8455 21.2965 74.0495 21.2866C74.3473 21.2866 74.6551 21.2567 74.943 21.1821C75.8216 20.9583 76.4719 20.4411 76.6406 19.521C76.8045 18.6207 76.7945 17.7056 76.5215 16.8203C76.2634 15.9798 75.5436 15.4029 74.6005 15.4078C72.2128 15.4128 69.8202 15.4078 67.4325 15.4078C67.3382 15.4078 67.2389 15.4078 67.1347 15.4078C67.1347 17.3823 67.1347 19.317 67.1347 21.2915ZM67.1396 6.26148C67.1396 8.20613 67.1396 10.116 67.1396 12.0457C67.2538 12.0457 67.3531 12.0457 67.4524 12.0457C69.567 12.0457 71.6866 12.0457 73.8013 12.0457C74.1388 12.0457 74.4764 12.0358 74.8089 11.991C75.4592 11.9065 76.035 11.6627 76.3776 11.056C76.5761 10.7078 76.6406 10.3149 76.6804 9.91206C76.7647 9.08148 76.7598 8.25587 76.4619 7.46507C76.2535 6.90306 75.8514 6.48529 75.2458 6.37089C74.7841 6.28137 74.3026 6.26645 73.8261 6.26148C71.7015 6.25153 69.5769 6.2565 67.4524 6.2565C67.3531 6.26148 67.2538 6.26148 67.1396 6.26148Z" fill="#888888"/>
<path d="M121.684 24.6191C121.684 23.9228 121.689 23.2265 121.689 22.5302C121.689 16.0894 121.689 9.6487 121.689 3.20796C121.689 3.10848 121.689 3.01399 121.689 2.88965C121.783 2.88965 121.857 2.88965 121.927 2.88965C122.88 2.88965 123.828 2.88965 124.781 2.88965C124.935 2.88965 125.029 2.92446 125.119 3.0687C126.017 4.50108 126.926 5.92849 127.829 7.36087C129.02 9.25081 130.212 11.1457 131.403 13.0357C132.485 14.7466 133.567 16.4575 134.674 18.2131C134.674 13.0904 134.674 8.00743 134.674 2.90954C135.796 2.90954 136.888 2.90954 138.005 2.90954C138.005 3.01896 138.005 3.12341 138.005 3.23282C138.005 10.2455 138.005 17.2582 138.005 24.2709C138.005 24.3853 138.01 24.5047 138.01 24.6191C136.933 24.6191 135.861 24.6191 134.783 24.6191C134.759 24.5494 134.749 24.4748 134.709 24.4152C134.381 23.8979 134.054 23.3856 133.721 22.8734C132.704 21.2967 131.681 19.7201 130.668 18.1385C129.502 16.3182 128.335 14.4979 127.169 12.6776C126.692 11.9316 126.211 11.1855 125.729 10.4445C125.516 10.1162 125.297 9.79293 125.044 9.41494C125.044 9.55917 125.044 9.63378 125.044 9.70838C125.044 14.6023 125.044 19.5013 125.044 24.3953C125.044 24.4699 125.049 24.5445 125.049 24.6191C123.932 24.6191 122.81 24.6191 121.684 24.6191Z" fill="#888888"/>
<path d="M140.993 24.6188C140.993 24.5094 140.998 24.405 140.998 24.2956C140.998 17.258 140.998 10.2254 140.998 3.18782C140.998 3.08338 140.998 2.97396 140.998 2.83967C141.112 2.83967 141.212 2.83967 141.306 2.83967C144.944 2.83967 148.583 2.82973 152.222 2.84465C153.284 2.84962 154.247 3.20274 155.106 3.83438C155.677 4.25713 156.208 4.7346 156.555 5.35132C157.037 6.20179 157.419 7.09703 157.419 8.11661C157.409 11.9263 157.419 15.7411 157.414 19.5508C157.414 20.267 157.181 20.9384 156.818 21.5402C156.501 22.0674 156.153 22.5896 155.746 23.0472C155.339 23.5048 154.803 23.8181 154.232 24.0568C153.463 24.3702 152.668 24.5542 151.834 24.5592C151.795 24.5592 151.755 24.594 151.715 24.6139C148.141 24.6188 144.567 24.6188 140.993 24.6188ZM144.418 21.2915C144.542 21.2915 144.642 21.2915 144.741 21.2915C146.975 21.2915 149.208 21.2915 151.442 21.2915C151.661 21.2915 151.889 21.2866 152.102 21.2368C152.584 21.1274 153.046 20.9384 153.368 20.5505C153.77 20.073 153.949 19.4911 153.954 18.8744C153.964 15.5073 153.959 12.1452 153.954 8.77809C153.954 8.47968 153.924 8.17132 153.85 7.87788C153.666 7.14677 153.284 6.56486 152.51 6.38581C152.093 6.29132 151.651 6.26148 151.219 6.26148C149.045 6.25153 146.866 6.2565 144.691 6.2565C144.602 6.2565 144.518 6.2565 144.423 6.2565C144.418 11.2848 144.418 16.2732 144.418 21.2915Z" fill="#888888"/>
<path d="M88.971 24.6191C88.8916 24.5992 88.8072 24.5693 88.7278 24.5644C87.3925 24.5047 86.1366 24.1864 85.0694 23.3409C84.7765 23.1071 84.5233 22.8137 84.29 22.5153C83.7936 21.8637 83.3866 21.1625 83.2476 20.3369C83.1731 19.8843 83.0788 19.4317 83.0788 18.9791C83.0639 15.4926 83.049 12.0012 83.0838 8.51473C83.0937 7.20669 83.4561 5.9633 84.3049 4.92383C84.9601 4.12309 85.7693 3.49643 86.7869 3.22785C87.596 3.00902 88.415 2.85981 89.2738 2.87971C90.8424 2.91949 92.416 2.8996 93.9896 2.88965C95.1362 2.87971 96.1389 3.27759 97.0473 3.94902C97.37 4.18277 97.6927 4.42648 97.9855 4.69505C98.472 5.14764 98.7847 5.72457 99.0429 6.33135C99.3109 6.96299 99.4003 7.62944 99.4003 8.31579C99.3953 11.9515 99.3903 15.5921 99.4003 19.2278C99.4003 20.2075 99.1322 21.0978 98.5911 21.8985C97.9905 22.7888 97.3154 23.6194 96.2779 24.0272C95.7915 24.2162 95.2752 24.3505 94.7639 24.4549C94.3569 24.5345 93.935 24.5296 93.518 24.5644C93.4783 24.5693 93.4386 24.5992 93.3988 24.6191C91.9146 24.6191 90.4453 24.6191 88.971 24.6191ZM96.0248 13.9807C96.0248 12.5035 96.0297 11.0313 96.0198 9.5542C96.0148 9.12151 95.99 8.68383 95.9156 8.25611C95.7915 7.52997 95.3944 6.98785 94.7391 6.63473C94.1881 6.34129 93.5875 6.28161 92.9868 6.26669C91.8948 6.23685 90.8027 6.25177 89.7106 6.26172C89.2688 6.26669 88.8221 6.28658 88.3902 6.36616C87.6804 6.4905 87.1294 6.85854 86.7869 7.52002C86.5486 7.98256 86.4394 8.47992 86.4394 8.97727C86.4394 12.3245 86.4543 15.6667 86.494 19.0139C86.499 19.4018 86.6528 19.8146 86.8415 20.1628C87.2783 20.9735 88.0328 21.2868 88.9263 21.2918C90.4403 21.2967 91.9543 21.2967 93.4683 21.2868C93.7662 21.2868 94.0739 21.257 94.3668 21.1824C95.0469 21.0133 95.5979 20.6502 95.8213 19.9489C95.9354 19.5908 96.0148 19.2029 96.0198 18.8249C96.0397 17.2135 96.0248 15.5971 96.0248 13.9807Z" fill="#888888"/>
<path d="M108.281 24.6192C108.201 24.5993 108.117 24.5695 108.038 24.5645C106.658 24.5048 105.367 24.1666 104.27 23.2863C104.037 23.0973 103.838 22.8536 103.649 22.6199C103.014 21.844 102.582 20.9686 102.443 19.969C102.379 19.5213 102.344 19.0687 102.339 18.6211C102.334 13.4835 102.334 8.34578 102.334 3.20313C102.334 3.09371 102.334 2.98927 102.334 2.85995C103.471 2.85995 104.598 2.85995 105.744 2.85995C105.744 2.96937 105.744 3.07382 105.744 3.18323C105.744 8.38059 105.739 13.5779 105.754 18.7753C105.754 19.5014 105.933 20.2077 106.504 20.7299C106.851 21.0482 107.268 21.2372 107.74 21.2422C109.641 21.2521 111.547 21.272 113.448 21.2372C114.456 21.2173 115.141 20.5359 115.285 19.5412C115.335 19.208 115.34 18.8698 115.34 18.5316C115.344 13.4188 115.34 8.30599 115.34 3.18821C115.34 3.08376 115.34 2.97435 115.34 2.85498C116.466 2.85498 117.568 2.85498 118.7 2.85498C118.7 2.94948 118.7 3.039 118.7 3.12853C118.7 8.29107 118.71 13.4536 118.695 18.6211C118.69 19.9043 118.412 21.1278 117.668 22.212C117.196 22.9034 116.65 23.5151 115.9 23.903C115.32 24.2014 114.694 24.3805 114.044 24.465C113.637 24.5148 113.23 24.5347 112.823 24.5695C112.783 24.5745 112.743 24.6043 112.704 24.6242C111.224 24.6192 109.755 24.6192 108.281 24.6192Z" fill="#888888"/>
<path d="M161.842 4.92348C161.708 5.21692 161.604 5.53523 161.435 5.80877C161.023 6.46528 159.975 6.7438 159.251 6.46528C158.377 6.12708 157.945 5.30644 157.98 4.56539C158.02 3.61046 158.789 2.82962 159.643 2.73512C160.283 2.66549 160.819 2.83957 161.266 3.26232C161.539 3.51597 161.728 3.84919 161.787 4.23713C161.792 4.27195 161.822 4.30179 161.842 4.33163C161.842 4.5256 161.842 4.72454 161.842 4.92348ZM158.313 4.64994C158.248 5.52528 159.087 6.29618 159.911 6.27131C160.884 6.2365 161.509 5.55512 161.534 4.65491C161.554 3.76962 160.829 3.03851 159.931 3.01861C159.042 2.99872 158.233 3.80941 158.313 4.64994Z" fill="#888888"/>
<path d="M31.6771 15.6121C31.6771 18.6111 31.6771 21.5704 31.6771 24.5446C30.3617 24.5446 29.0611 24.5446 27.7407 24.5446C27.7407 17.2882 27.7407 10.0268 27.7407 2.74055C27.845 2.74055 27.9393 2.74055 28.0386 2.74055C31.3743 2.74055 34.7051 2.73061 38.0409 2.74553C38.855 2.7505 39.6592 2.89473 40.4435 3.12352C41.2278 3.34733 41.9475 3.68055 42.5978 4.17791C43.1985 4.64045 43.6601 5.21241 44.0374 5.85897C44.4444 6.55526 44.6827 7.32119 44.777 8.11696C44.9408 9.51452 44.8266 10.8822 44.1764 12.1555C43.6452 13.1999 42.8311 13.9708 41.7986 14.5129C41.5206 14.6621 41.2327 14.7964 40.925 14.9456C42.1858 18.1337 43.4516 21.3317 44.7274 24.5545C44.2607 24.5545 43.8289 24.5545 43.3921 24.5545C42.5085 24.5545 41.6199 24.5496 40.7363 24.5595C40.5874 24.5595 40.513 24.5247 40.4534 24.3655C40.0116 23.1619 39.55 21.9633 39.0933 20.7647C38.6068 19.4815 38.1203 18.1983 37.6388 16.9152C37.5048 16.567 37.3807 16.2139 37.2566 15.8608C37.1921 15.6867 37.1127 15.5922 36.8893 15.5922C35.2413 15.6071 33.5982 15.5972 31.9502 15.5972C31.8707 15.6121 31.7863 15.6121 31.6771 15.6121ZM31.692 12.439C31.7963 12.439 31.8856 12.439 31.975 12.439C33.4642 12.439 34.9533 12.4589 36.4376 12.429C37.0283 12.4191 37.6289 12.3494 38.2047 12.2301C39.2074 12.0212 39.9868 11.4791 40.4187 10.5192C40.6669 9.96214 40.7413 9.37527 40.6867 8.75855C40.6073 7.8832 40.2251 7.18193 39.5301 6.65971C38.8153 6.12754 37.9863 5.9087 37.1027 5.9087C35.4001 5.9087 33.6975 5.9087 31.9948 5.9087C31.9005 5.9087 31.8012 5.9087 31.697 5.9087C31.692 8.09706 31.692 10.2456 31.692 12.439Z" fill="#888888"/>
<path d="M60.8056 24.5644C60.7063 24.5644 60.6169 24.5644 60.5276 24.5644C57.9712 24.5644 55.4147 24.5893 52.8583 24.5545C51.6322 24.5346 50.4309 24.3008 49.324 23.7239C48.2964 23.1917 47.5022 22.4208 46.9512 21.3913C46.4846 20.511 46.1818 19.5809 46.0875 18.5912C46.0031 17.7258 45.9237 16.8504 45.9435 15.985C45.9783 14.6123 46.2066 13.2595 46.8221 12.0062C47.4674 10.6932 48.4751 9.75318 49.8352 9.20609C50.6195 8.89275 51.4287 8.69879 52.2725 8.66397C52.9327 8.63413 53.593 8.58439 54.2482 8.62418C55.38 8.69381 56.4869 8.92757 57.5045 9.46969C58.7406 10.1312 59.5944 11.1358 60.1156 12.4339C60.4382 13.2297 60.6567 14.0553 60.7063 14.9157C60.7659 15.985 60.8056 17.0543 60.8502 18.1485C56.9238 18.1485 53.0668 18.1485 49.1304 18.1485C49.2842 18.616 49.3835 19.0487 49.5672 19.4466C50.0487 20.4911 50.9174 21.0581 52.0095 21.2868C52.4463 21.3764 52.898 21.436 53.3448 21.436C55.7275 21.451 58.1102 21.441 60.4928 21.441C60.5921 21.441 60.6864 21.441 60.7956 21.441C60.8056 22.4904 60.8056 23.515 60.8056 24.5644ZM57.579 15.0152C57.5343 14.8113 57.4996 14.6372 57.4549 14.4631C57.2464 13.6375 56.8443 12.9313 56.1345 12.4439C55.4247 11.9565 54.6056 11.7625 53.7568 11.7426C53.2604 11.7326 52.754 11.7724 52.2626 11.8371C51.0316 12.0112 50.0834 12.6229 49.5573 13.7768C49.3835 14.1597 49.2942 14.5825 49.1552 15.0152C51.9946 15.0152 54.7595 15.0152 57.579 15.0152Z" fill="#888888"/>
<path d="M16.9195 10.2108C17.5549 10.8425 18.1754 11.4642 18.8257 12.1157C16.1501 12.8369 13.5143 13.5481 10.8486 14.2643C11.5535 11.5935 12.2485 8.93759 12.9484 6.28172C13.5788 6.92828 14.2043 7.56986 14.8645 8.24627C17.2372 5.84404 19.5554 3.5015 21.8835 1.14404C22.2061 1.4723 22.5139 1.7906 22.8316 2.09896C23.1245 2.38743 23.4223 2.67092 23.7301 2.94944C23.8591 3.06881 23.8641 3.1633 23.7251 3.26775C23.7201 3.27272 23.7152 3.27769 23.7053 3.28764C21.7892 5.22235 19.878 7.15209 17.9669 9.09177C17.6145 9.44489 17.2819 9.82288 16.9195 10.2108Z" fill="#888888"/>
<path d="M159.504 4.8196C159.504 5.14288 159.504 5.44129 159.504 5.74965C159.374 5.74965 159.26 5.74965 159.136 5.74965C159.136 5.00362 159.136 4.26256 159.136 3.4668C159.588 3.49664 160.04 3.49664 160.481 3.56129C160.754 3.60108 160.908 4.01389 160.799 4.33219C160.764 4.43166 160.715 4.52119 160.7 4.556C160.764 4.98373 160.824 5.36172 160.884 5.73971C160.501 5.81431 160.491 5.80436 160.462 5.45124C160.452 5.32193 160.457 5.1777 160.402 5.06828C160.352 4.96881 160.238 4.85442 160.134 4.83452C159.94 4.78976 159.737 4.8196 159.504 4.8196ZM159.513 4.4814C159.692 4.4814 159.841 4.4814 159.99 4.4814C160.025 4.4814 160.055 4.4814 160.089 4.4814C160.278 4.46648 160.477 4.30235 160.457 4.15315C160.432 3.94923 160.288 3.86965 160.089 3.87463C159.901 3.8796 159.717 3.87463 159.518 3.87463C159.513 4.08352 159.513 4.27251 159.513 4.4814Z" fill="#888888"/>
</svg>
