<svg width="131" height="27" viewBox="0 0 131 27" fill="none" xmlns="http://www.w3.org/2000/svg">
<path d="M103.91 9.25195H105.48V13.045H109.404V9.25195H111.104V18.146H109.404V14.4837H105.48V18.146H103.91V9.25195Z" fill="#888888"/>
<path d="M49.7617 9.25195H56.3014V10.6907H51.5928V13.1758H54.8627V14.6145H51.5928V16.7072H56.3014V18.146H49.7617V9.25195Z" fill="#888888"/>
<path d="M113.981 9.25195H120.521V10.6907H115.813V13.1758H119.082V14.6145H115.813V16.7072H120.521V18.146H113.981V9.25195Z" fill="#888888"/>
<path d="M39.5596 9.25195H41.3907L43.6142 15.7917H43.745L45.9685 9.25195H47.9304L44.6606 18.146H42.8294L39.5596 9.25195Z" fill="#888888"/>
<path d="M30.4043 9.25195H32.497L34.7205 13.1758L36.944 9.25195H38.7752L35.5053 14.6145V18.146H33.805V14.6145L30.4043 9.25195Z" fill="#888888"/>
<path d="M58.002 15.3993H59.8331C59.9639 15.9225 60.0947 16.1841 60.4871 16.4457C60.8794 16.7072 61.2718 16.838 61.9258 16.838C62.449 16.838 62.8414 16.7072 63.2337 16.5765C63.4953 16.4457 63.6261 16.0533 63.6261 15.7917C63.6261 15.2685 62.8414 14.8761 61.141 14.4837H61.0102C60.0947 14.3529 59.5715 14.0914 59.1791 13.8298C58.7867 13.5682 58.6559 13.3066 58.3943 13.045C58.2635 12.6526 58.1328 12.2602 58.1328 11.8678C58.1328 10.9523 58.3943 10.2983 59.0483 9.90593C59.7023 9.51354 60.487 9.25195 61.6642 9.25195C62.7106 9.25195 63.6261 9.51354 64.1493 10.0367C64.8033 10.5599 65.0649 11.2139 65.0649 12.1294H63.2337C63.2337 11.7371 62.9722 11.3447 62.7106 11.2139C62.449 10.9523 61.9258 10.8215 61.4026 10.8215C60.8794 10.8215 60.4871 10.9523 60.2255 11.0831C59.9639 11.2139 59.8331 11.4755 59.8331 11.8678C59.8331 12.391 60.3563 12.6526 61.4026 12.9142C61.6642 12.9142 61.9258 13.045 62.0566 13.045C62.7106 13.1758 63.2337 13.3066 63.4953 13.4374C63.7569 13.5682 64.0185 13.5682 64.2801 13.699C64.6725 13.9606 64.9341 14.2221 65.0649 14.4837C65.1957 14.8761 65.3265 15.2685 65.3265 15.6609C65.3265 16.5765 65.0649 17.2304 64.4109 17.7536C63.7569 18.2768 62.8414 18.5384 61.6642 18.5384C60.487 18.5384 59.5715 18.2768 58.9175 17.7536C58.3943 17.0996 58.1327 16.3149 58.002 15.3993Z" fill="#888888"/>
<path d="M72.127 18.146V9.25195H75.92C76.9664 9.25195 77.6203 9.38275 78.1435 9.51354C78.5359 9.64434 78.9283 9.90593 79.1899 10.4291C79.4515 10.8215 79.5823 11.3447 79.713 11.8678C79.713 12.391 79.4515 13.3066 79.0591 13.699C78.7975 14.0914 78.4051 14.3529 77.8819 14.4837L79.8438 18.146H77.8819L76.0508 14.6145H73.6965V18.146H72.127ZM73.6965 13.3066H75.3968C76.3124 13.3066 76.8356 13.3066 77.0972 13.1758C77.7511 12.9142 77.8819 12.391 77.8819 11.8678C77.8819 11.6063 77.7511 11.3447 77.4895 11.0831C77.3587 10.9523 77.0972 10.8215 76.8356 10.6907C76.7048 10.6907 76.1816 10.6907 75.3968 10.6907H73.6965V13.3066Z" fill="#888888"/>
<path d="M123.137 18.146V9.25195H126.93C127.976 9.25195 128.63 9.38275 129.153 9.51354C129.546 9.64434 129.938 9.90593 130.2 10.4291C130.461 10.8215 130.592 11.3447 130.723 11.8678C130.723 12.391 130.461 13.3066 130.069 13.699C129.676 14.0914 129.415 14.3529 128.892 14.4837L130.854 18.146H128.892L127.061 14.6145H124.706V18.146H123.137ZM124.706 13.3066H126.407C127.322 13.3066 127.845 13.3066 128.107 13.1758C128.761 12.9142 128.892 12.391 128.892 11.8678C128.892 11.6063 128.761 11.3447 128.499 11.0831C128.369 10.9523 128.107 10.8215 127.845 10.6907C127.715 10.6907 127.191 10.6907 126.407 10.6907H124.706V13.3066Z" fill="#888888"/>
<path fill-rule="evenodd" clip-rule="evenodd" d="M86.1223 10.6907C87.6918 10.6907 89.1306 11.9987 89.1306 13.699C89.1306 15.2686 87.8226 16.7073 86.1223 16.7073C84.5528 16.7073 83.114 15.3993 83.114 13.699C83.114 11.9987 84.422 10.6907 86.1223 10.6907ZM86.1223 8.85962C88.7382 8.85962 90.8309 10.9523 90.8309 13.5682C90.8309 16.1841 88.7382 18.2768 86.1223 18.2768C83.5064 18.2768 81.4137 16.1841 81.4137 13.5682C81.2829 11.0831 83.5064 8.85962 86.1223 8.85962Z" fill="#888888"/>
<path fill-rule="evenodd" clip-rule="evenodd" d="M99.9863 11.9986H101.817C101.163 10.1675 99.5939 8.99037 97.5012 8.85958C95.0161 8.72878 92.7926 10.4291 92.6618 13.3066C92.4002 16.0533 94.4929 18.0152 97.1088 18.146C99.5939 18.2768 101.425 16.838 101.948 14.8761H100.117C98.2859 17.7536 94.3621 16.5765 94.4929 13.1758C94.4929 11.3447 95.8008 10.2983 97.3704 10.2983C98.2859 10.5599 99.2015 11.2139 99.9863 11.9986Z" fill="#888888"/>
<path fill-rule="evenodd" clip-rule="evenodd" d="M12.7466 0.881104C19.8096 0.881104 25.4337 6.63606 25.4337 13.5682C25.4337 20.6311 19.6788 26.2553 12.7466 26.2553C5.81453 26.386 0.0595703 20.6311 0.0595703 13.5682C0.0595703 6.63606 5.81453 0.881104 12.7466 0.881104ZM12.7466 2.71223C18.7632 2.71223 23.7334 7.68242 23.7334 13.699C23.7334 19.7155 18.7632 24.6857 12.7466 24.6857C6.73009 24.6857 1.7599 19.7155 1.7599 13.699C1.89069 7.55163 6.73009 2.71223 12.7466 2.71223Z" fill="#888888"/>
<path fill-rule="evenodd" clip-rule="evenodd" d="M3.72152 11.7365C3.06754 17.3607 5.68343 21.0229 10.2612 22.4616C10.1304 20.6305 10.392 18.5378 9.86886 16.5759C9.34568 14.4832 6.72979 11.6057 3.72152 11.7365Z" fill="#888888"/>
<path fill-rule="evenodd" clip-rule="evenodd" d="M19.5481 19.8462C17.4553 22.0697 14.9703 22.9853 12.0928 22.7237V14.6145C12.616 11.2138 14.4471 9.64426 16.5398 8.5979C16.9322 11.4754 15.3626 13.6989 12.2236 15.53C14.0547 18.2767 16.409 19.7154 19.5481 19.8462Z" fill="#888888"/>
<path fill-rule="evenodd" clip-rule="evenodd" d="M18.1087 6.24341C18.7626 11.0828 17.5855 14.3527 14.708 16.053C16.2775 17.7533 18.3703 18.2765 20.8554 18.1457C23.0789 13.6987 21.9017 9.12089 18.1087 6.24341Z" fill="#888888"/>
<path fill-rule="evenodd" clip-rule="evenodd" d="M10.3926 13.6988C8.69226 11.2137 6.73034 10.1673 4.50684 9.90573C7.38432 4.15077 13.6625 2.97362 18.1095 6.11269C13.2701 7.81302 10.9158 10.0365 10.3926 13.6988Z" fill="#888888"/>
</svg>
