<svg width="52" height="52" viewBox="0 0 52 52" fill="none" xmlns="http://www.w3.org/2000/svg">
<g clip-path="url(#clip0)">
<path fill-rule="evenodd" clip-rule="evenodd" d="M0.761719 21.9353V37.6825C0.761719 38.1175 1.11587 38.4718 1.55055 38.4718H29.3612L35.0328 28.5154L29.3612 23.6062L18.8876 17.3748L0.761719 21.9353Z" fill="#C86D35"/>
<path fill-rule="evenodd" clip-rule="evenodd" d="M0.761719 12.2925V21.935C5.62717 23.142 10.3514 23.8796 14.9406 24.1792V22.3585C14.9406 21.9983 15.2342 21.7045 15.5941 21.7045H23.1168C23.4767 21.7045 23.7704 21.9983 23.7704 22.3585V24.1792C25.6129 24.0582 27.4756 23.868 29.3613 23.6059C33.8035 23.0584 35.4272 22.2288 37.9492 21.2608V12.2925C37.9492 11.8575 37.5951 11.5032 37.1604 11.5032H28.2068H25.1609H13.55H10.504H1.55055C1.11587 11.5031 0.761719 11.8574 0.761719 12.2925Z" fill="#DC8758"/>
<path fill-rule="evenodd" clip-rule="evenodd" d="M29.3613 23.6063V38.4719V46.6767C29.3613 47.4258 29.9746 48.0394 30.7202 48.0394H40.6037H49.8767C50.6253 48.0394 51.2385 47.4258 51.2385 46.6767V40.7795V31.5433V27.4265C51.2385 27.2565 51.2385 27.098 51.2357 26.9569H47.4383C46.6927 26.9569 46.0794 26.3432 46.0794 25.5942L46.0823 21.2612H37.9493H30.7202C30.1272 21.2612 29.6176 21.6473 29.4362 22.1831C29.3872 22.3214 29.3613 22.4683 29.3613 22.6211V23.6063Z" fill="#F5F5F6"/>
<path fill-rule="evenodd" clip-rule="evenodd" d="M46.0791 25.5939C46.0791 26.343 46.6923 26.9566 47.438 26.9566H51.2353C51.2181 25.8186 51.0885 25.4499 50.1557 24.4387L48.391 22.5171C47.4928 21.5405 47.4121 21.261 46.082 21.261L46.0791 25.5939Z" fill="#B5B5B5"/>
<path fill-rule="evenodd" clip-rule="evenodd" d="M14.9404 22.3586V24.1793V26.314C14.9404 26.6741 15.234 26.9708 15.594 26.9708H23.1167C23.4766 26.9708 23.7703 26.674 23.7703 26.314V24.1793V22.3586C23.7703 21.9984 23.4767 21.7046 23.1167 21.7046H15.594C15.234 21.7046 14.9404 21.9985 14.9404 22.3586Z" fill="#F3EAE6"/>
<path fill-rule="evenodd" clip-rule="evenodd" d="M0.76182 24.4674C5.48041 25.5967 10.5819 26.3055 15.0039 26.5964C14.9608 26.5099 14.9406 26.4149 14.9406 26.314V24.1793C10.3516 23.8797 5.62717 23.1421 0.761719 21.9351V24.4674H0.76182Z" fill="#AC5D2C"/>
<path fill-rule="evenodd" clip-rule="evenodd" d="M23.7708 24.179V26.3138C23.7708 26.3973 23.7564 26.475 23.7305 26.5472C25.4924 26.4262 27.6401 26.2447 29.3617 26.0055V23.6057C27.476 23.8678 25.6132 24.058 23.7708 24.179Z" fill="#AC5D2C"/>
<path d="M51.9971 26.9584L51.9972 26.9564L51.997 26.9523C51.9761 25.668 51.8186 25.1164 50.7169 23.9233L48.9517 22.0013C48.8522 21.893 48.7628 21.7935 48.6808 21.7021C47.9323 20.868 47.54 20.4992 46.0828 20.4991H38.7109V12.2925C38.7109 11.4373 38.0152 10.7415 37.1603 10.7415H28.9685V9.40012C28.9685 5.98091 26.1884 3.19922 22.7713 3.19922H15.9395C12.5224 3.19922 9.74238 5.98091 9.74238 9.40012V10.7415H1.55055C0.695602 10.7415 0 11.4373 0 12.2926V37.6822C0 38.5375 0.695602 39.2333 1.55055 39.2333H15.9798V37.7099H1.55055C1.53664 37.7099 1.52344 37.6964 1.52344 37.6822V22.9031C5.79069 23.9119 10.0398 24.5782 14.1788 24.8886V26.314C14.1788 27.0963 14.8137 27.7327 15.5941 27.7327H23.1167C23.8971 27.7327 24.532 27.0963 24.532 26.314V24.8892C25.8793 24.788 27.2417 24.649 28.5995 24.4755V37.7099H15.9798V39.2333H28.5995V46.6765C28.5995 47.8479 29.5507 48.8009 30.72 48.8009H35.191V47.2774H30.72C30.3963 47.2774 30.1229 47.0023 30.1229 46.6765V22.6207C30.1229 22.2965 30.3963 22.0226 30.72 22.0226H37.949H45.3198L45.3175 25.5938C45.3175 26.7652 46.2687 27.7181 47.438 27.7181H50.4766V46.6764C50.4766 47.0022 50.2017 47.2773 49.8765 47.2773L35.191 47.2774V48.8009L49.8766 48.8008C51.0474 48.8008 52.0001 47.8478 52.0001 46.6764V27.426C52 27.2592 51.9993 27.1044 51.9971 26.9584ZM11.2658 9.40012C11.2658 6.82094 13.3625 4.72266 15.9395 4.72266H22.7713C25.3485 4.72266 27.445 6.82094 27.445 9.40012V10.7415H25.9225V9.40012C25.9225 7.66157 24.5089 6.24721 22.7713 6.24721H15.9395C14.202 6.24721 12.7883 7.66157 12.7883 9.40012V10.7415H11.2658V9.40012ZM24.3991 10.7415H14.3118V9.40012C14.3118 8.50159 15.042 7.77065 15.9395 7.77065H22.7713C23.6688 7.77065 24.3991 8.50159 24.3991 9.40012V10.7415ZM23.0085 26.2092H15.7023V22.4663H23.0085V26.2092ZM37.1873 20.4992H30.72C29.5507 20.4992 28.5995 21.4509 28.5995 22.6207V22.9398C27.2422 23.1167 25.8798 23.2576 24.532 23.3609V22.3585C24.532 21.5779 23.8971 20.9428 23.1167 20.9428H15.5941C14.8137 20.9428 14.1788 21.5779 14.1788 22.3585V23.3613C10.0421 23.0446 5.7917 22.3639 1.52344 21.3359V12.2926C1.52344 12.2784 1.53664 12.265 1.55055 12.265H10.5041H13.5501H25.1608H28.2067H37.1603C37.1742 12.265 37.1874 12.2784 37.1874 12.2926L37.1873 20.4992ZM47.4381 26.1947C47.1144 26.1947 46.841 25.9196 46.841 25.5943L46.8434 22.0941C47.0581 22.1755 47.2144 22.3488 47.5471 22.7196C47.6328 22.8152 47.7262 22.9193 47.8301 23.0322L49.5963 24.9553C50.112 25.5137 50.3253 25.7846 50.4139 26.1948L47.4381 26.1947Z" fill="black"/>
<path d="M46.4042 33.72H33.9873C33.5666 33.72 33.2256 34.061 33.2256 34.4817C33.2256 34.9024 33.5666 35.2434 33.9873 35.2434H46.4042C46.8249 35.2434 47.166 34.9024 47.166 34.4817C47.166 34.061 46.8249 33.72 46.4042 33.72Z" fill="black"/>
<path d="M46.4042 37.6838H33.9873C33.5666 37.6838 33.2256 38.0249 33.2256 38.4456C33.2256 38.8662 33.5666 39.2073 33.9873 39.2073H46.4042C46.8249 39.2073 47.166 38.8662 47.166 38.4456C47.166 38.0249 46.8249 37.6838 46.4042 37.6838Z" fill="black"/>
<path d="M33.9873 43.1714H46.4042C46.8249 43.1714 47.166 42.8303 47.166 42.4097C47.166 41.989 46.8249 41.6479 46.4042 41.6479H33.9873C33.5666 41.6479 33.2256 41.989 33.2256 42.4097C33.2256 42.8303 33.5666 43.1714 33.9873 43.1714Z" fill="black"/>
<path d="M37.4283 25.2756H33.8037C33.383 25.2756 33.042 25.6167 33.042 26.0373C33.042 26.458 33.383 26.7991 33.8037 26.7991H37.4283C37.8489 26.7991 38.19 26.458 38.19 26.0373C38.19 25.6167 37.849 25.2756 37.4283 25.2756Z" fill="black"/>
<path d="M33.8037 30.2305H36.2652C36.6858 30.2305 37.0269 29.8894 37.0269 29.4688C37.0269 29.0481 36.6858 28.707 36.2652 28.707H33.8037C33.383 28.707 33.042 29.0481 33.042 29.4688C33.042 29.8894 33.383 30.2305 33.8037 30.2305Z" fill="black"/>
</g>
<defs>
<clipPath id="clip0">
<rect width="52" height="52" fill="white"/>
</clipPath>
</defs>
</svg>
