<svg width="45" height="45" viewBox="0 0 45 45" fill="none" xmlns="http://www.w3.org/2000/svg">
<g clip-path="url(#clip0)">
<path d="M17.7853 28.6379L14.9835 8.97632H8.42969L11.2315 28.6379H17.7853Z" fill="#FFCB07"/>
<path d="M35.2844 28.6379L37.6274 8.97632H30.2543L29.5498 28.6379H35.2844Z" fill="#FFCB07"/>
<path d="M23.5198 28.6379L22.3565 8.97632H14.9834L17.7852 28.6379H23.5198Z" fill="#FFCB07"/>
<path d="M29.5493 28.6379L30.2538 8.97632H22.3564L23.5198 28.6379H29.5493Z" fill="#FFCB07"/>
<path d="M41.838 28.6379L44.181 8.97632H37.6272L35.2842 28.6379H41.838Z" fill="#FFCB07"/>
<path d="M42.6517 28.7345L44.9947 9.07292C45.0077 8.96079 44.997 8.84723 44.9635 8.7395C44.9519 8.71308 44.9388 8.68737 44.9242 8.66249C44.8951 8.58712 44.8552 8.51646 44.8054 8.45276C44.8005 8.44621 44.7989 8.43802 44.794 8.43228C44.7677 8.41098 44.7404 8.39102 44.712 8.37248C44.6628 8.32538 44.6077 8.28462 44.5482 8.25123C44.5038 8.23198 44.4578 8.21683 44.4106 8.20618C44.3682 8.18744 44.3239 8.17289 44.2787 8.16276C44.2615 8.16276 44.2459 8.16767 44.2287 8.16276C44.2115 8.15784 44.1976 8.15702 44.1812 8.15702H9.13689L8.38566 2.89346C8.20748 1.6856 7.1735 0.789056 5.95254 0.783936H0.819232C0.366811 0.783936 0 1.15075 0 1.60317C0 2.05559 0.366811 2.4224 0.819232 2.4224H5.95254C6.36011 2.4223 6.70572 2.72183 6.76358 3.1253L11.2759 34.7206C11.4541 35.9285 12.4881 36.825 13.709 36.8301H17.2039V37.7657C15.4515 38.2181 14.3978 40.0055 14.8502 41.7578C15.3026 43.5102 17.09 44.5639 18.8423 44.1115C20.5947 43.659 21.6484 41.8717 21.196 40.1194C20.898 38.9651 19.9966 38.0637 18.8423 37.7657V36.8301H33.5885V37.7657C31.8362 38.2181 30.7824 40.0055 31.2349 41.7578C31.6873 43.5102 33.4746 44.5639 35.227 44.1115C36.9793 43.659 38.033 41.8717 37.5806 40.1194C37.2826 38.9651 36.3813 38.0637 35.227 37.7657V36.8301H37.6847C38.1371 36.8301 38.5039 36.4633 38.5039 36.0109C38.5039 35.5585 38.1371 35.1917 37.6847 35.1917H13.709C13.3015 35.1918 12.9558 34.8922 12.898 34.4888L12.1795 29.4571H41.8357C41.9708 29.4681 42.1054 29.4303 42.215 29.3506C42.2733 29.3237 42.3283 29.2901 42.3789 29.2506C42.4072 29.2203 42.4329 29.1877 42.4559 29.1531C42.4948 29.1132 42.5294 29.0692 42.5591 29.022C42.6076 28.9328 42.639 28.8354 42.6517 28.7345ZM19.6616 40.9263C19.6661 41.8311 18.9362 42.5685 18.0313 42.573C17.1264 42.5775 16.3891 41.8476 16.3846 40.9428C16.3817 40.3545 16.6943 39.8098 17.2039 39.5156V40.9263C17.2039 41.3787 17.5707 41.7455 18.0231 41.7455C18.4755 41.7455 18.8423 41.3787 18.8423 40.9263V39.5156C19.3476 39.806 19.6598 40.3436 19.6616 40.9263ZM36.0462 40.9263C36.0507 41.8311 35.3209 42.5685 34.416 42.573C33.5112 42.5775 32.7739 41.8476 32.7694 40.9428C32.7664 40.3545 33.079 39.8098 33.5886 39.5156V40.9263C33.5886 41.3787 33.9554 41.7455 34.4078 41.7455C34.8603 41.7455 35.2271 41.3787 35.2271 40.9263V39.5156C35.7322 39.806 36.0445 40.3436 36.0462 40.9263ZM43.0654 11.4127L41.1107 27.8186H36.2101L38.3581 9.79549H43.2554L43.0654 11.4127ZM23.226 9.79549H29.4055L28.755 27.8186H24.2919L23.226 9.79549ZM22.6526 27.8186H18.4966L15.9283 9.79549H21.581L22.6526 27.8186ZM31.0489 9.79549H36.7016L34.5568 27.8186H30.3984L31.0489 9.79549ZM9.37447 9.79549H14.2727L16.841 27.8186H11.9452L9.37447 9.79549Z" fill="#222222" stroke="#222222" stroke-width="0.2"/>
<path d="M15.75 41C15.75 42.2426 16.7574 43.25 18 43.25C19.2426 43.25 20.25 42.2426 20.25 41C20.25 39.7574 19.2426 38.75 18 38.75C16.7574 38.75 15.75 39.7574 15.75 41Z" fill="white" stroke="#222222" stroke-width="1.5"/>
<path d="M32.0918 40.9805C32.0918 42.2231 33.0992 43.2305 34.3418 43.2305C35.5844 43.2305 36.5918 42.2231 36.5918 40.9805C36.5918 39.7378 35.5844 38.7305 34.3418 38.7305C33.0992 38.7305 32.0918 39.7378 32.0918 40.9805Z" fill="white" stroke="#222222" stroke-width="1.5"/>
</g>
<defs>
<clipPath id="clip0">
<rect width="45" height="45" fill="white"/>
</clipPath>
</defs>
</svg>
