<svg width="54" height="55" viewBox="0 0 54 55" fill="none" xmlns="http://www.w3.org/2000/svg">
<path d="M16.5168 18.9553H17.8566V19.4744C17.8566 22.2922 19.9432 25.4941 22.5257 27.0673L22.5255 29.6712C22.5255 29.9157 22.3661 30.1317 22.1324 30.2037L18.8472 31.8537L19.2765 32.2836C23.5251 36.5387 30.4773 36.5387 34.7258 32.2836L35.1547 31.854L31.8673 30.2037C31.6337 30.1316 31.4743 29.9157 31.4743 29.6712L31.4741 27.0461C34.058 25.4722 36.1435 22.2733 36.1435 19.4543V18.9553H37.4833C38.1911 18.9553 38.7647 18.3815 38.7647 17.6738V15.1639C38.7647 14.9089 38.6894 14.672 38.5611 14.4724H15.439C15.3107 14.6721 15.2354 14.9089 15.2354 15.1639V17.6738C15.2354 18.3815 15.8091 18.9553 16.5168 18.9553Z" fill="#FED9A8"/>
<path d="M17.8574 19.4745C17.8574 22.9597 21.0493 27.0339 24.4239 27.8847C26.6165 28.4376 27.2581 28.4413 29.4526 27.8956L29.5528 27.8707C32.9391 27.0286 36.1432 22.949 36.1432 19.4544V5.81836H17.8574V19.4745Z" fill="#FED9A8"/>
<path d="M31.4967 19.3861C31.4967 22.8805 28.2924 26.9602 24.9063 27.8023L24.5225 27.9094C26.635 28.437 27.2912 28.4328 29.4519 27.8955L29.5521 27.8707C32.9383 27.0286 36.1425 22.9489 36.1425 19.4544V5.81836H31.4967V19.3861Z" fill="#F4C892"/>
<path d="M46.8108 34.552L36.0866 30.7619C35.8697 30.6852 35.6282 30.7402 35.4656 30.903L34.7249 31.6449C30.4763 35.9 23.5241 35.9 19.2756 31.6449L18.5349 30.903C18.3722 30.7402 18.1307 30.6852 17.9139 30.7619L7.18956 34.552C4.33926 35.5594 2.36477 38.1738 2.17272 41.1949L1.70749 49.875C1.64716 50.8243 2.39968 51.6276 3.34954 51.6276H26.8927H27.1077H50.6509C51.6007 51.6276 52.3533 50.8243 52.2929 49.875L51.8277 41.1949C51.6355 38.1738 49.6611 35.5594 46.8108 34.552Z" fill="#1AB248"/>
<path d="M27.0004 1.76733H23.711C19.2109 1.76733 15.5629 5.4154 15.5629 9.91544V14.601C15.1797 14.6043 17.8576 14.6086 17.8576 14.6086V12.3207H36.1434V14.6086L38.4381 14.601V9.91555C38.4381 5.4154 34.79 1.76744 30.29 1.76744H27.0004V1.76733Z" fill="#1AB248"/>
<path d="M38.7647 14.6086C38.7647 11.6716 36.3839 9.29077 33.4469 9.29077H26.7363H20.5532C17.6162 9.29077 15.2354 11.6716 15.2354 14.6086H26.7438H38.7647Z" fill="#269449"/>
<path d="M39.0301 37.6604H14.9706C14.7349 37.6604 14.5439 37.8514 14.5439 38.087V53.8033C14.5439 54.0389 14.7349 54.2299 14.9706 54.2299H39.0301C39.2658 54.2299 39.4568 54.0389 39.4568 53.8033V38.087C39.4569 37.8514 39.2658 37.6604 39.0301 37.6604Z" fill="#AF8A82"/>
<path d="M39.0301 37.6604H34.811V52.0099C34.811 52.2455 34.62 52.4365 34.3843 52.4365H14.5439V53.8033C14.5439 54.0389 14.7349 54.2299 14.9706 54.2299H39.0301C39.2658 54.2299 39.4568 54.0389 39.4568 53.8033V38.087C39.4569 37.8514 39.2658 37.6604 39.0301 37.6604Z" fill="#927266"/>
<path d="M23.9326 37.6604V45.1025L26.9353 43.4353L30.0674 45.1025V37.6604H23.9326Z" fill="#FFB125"/>
<path d="M39.0301 36.8922H14.9705C14.3114 36.8922 13.7752 37.4284 13.7752 38.0875C13.7752 38.0875 13.775 48.2109 13.775 48.6354H15.3123L15.3125 38.4294H23.1644V45.1028C23.1644 45.3752 23.3084 45.6271 23.5431 45.7652C23.7778 45.9032 24.068 45.9069 24.3061 45.7748L26.9434 44.3103L29.7065 45.7812C29.8196 45.8414 29.9437 45.8713 30.0677 45.8713C30.2048 45.8713 30.3419 45.8346 30.4634 45.7616C30.6947 45.6226 30.8364 45.3725 30.8364 45.1026V38.4292H38.6882V53.4615H15.3123V48.6354H13.775C13.775 49.0599 13.775 50.859 13.775 50.859H11.235V41.7561C11.235 41.3316 10.8908 40.9874 10.4663 40.9874C10.0418 40.9874 9.69766 41.3316 9.69766 41.7561V50.859H3.34948C3.10521 50.859 2.87846 50.7607 2.71108 50.5824C2.54296 50.4032 2.45901 50.1694 2.47504 49.9161L2.93984 41.2437C3.1127 38.5253 4.88142 36.1831 7.44579 35.2767L18.0676 31.5228L18.7313 32.1876C20.3126 33.7714 22.2747 34.8441 24.4161 35.322C25.254 35.509 26.1194 35.6049 27.0003 35.6049C27.0981 35.6049 27.1958 35.6038 27.2933 35.6014C27.4973 35.5964 27.7004 35.586 27.9024 35.5708C30.693 35.3608 33.2815 34.1785 35.2688 32.188L35.2727 32.1841L35.933 31.5227C35.933 31.5227 45.7285 34.9848 46.1288 35.1263L46.6409 33.677C46.2407 33.5355 36.3426 30.037 36.3426 30.037C35.8494 29.8628 35.2916 29.9893 34.9216 30.3598L34.5778 30.7041L32.2429 29.532L32.2428 27.4698C34.4894 25.9612 36.2874 23.3747 36.7774 20.8079C36.7825 20.7815 36.7869 20.7553 36.7917 20.729C36.8074 20.6416 36.8223 20.5543 36.835 20.4671C36.8472 20.385 36.8581 20.3031 36.8673 20.2213C36.8711 20.1869 36.8742 20.1525 36.8775 20.1181C36.886 20.0326 36.8928 19.9473 36.8981 19.8624C36.8996 19.8389 36.9012 19.8154 36.9024 19.7919C36.9036 19.7691 36.9057 19.7462 36.9065 19.7235H37.4832C38.6137 19.7235 39.5333 18.8038 39.5333 17.6734V15.1636C39.5333 15.0464 39.5234 14.9308 39.5039 14.8171C39.5227 14.7507 39.5333 14.6808 39.5333 14.6084C39.5333 13.921 39.4171 13.2608 39.2063 12.6441V9.91555C39.2064 4.99879 35.2064 0.998779 30.2896 0.998779H23.7108C18.794 0.998779 14.794 4.99879 14.794 9.91555V12.6445C14.5831 13.2612 14.467 13.9215 14.467 14.6087C14.467 14.6812 14.4777 14.751 14.4964 14.8174C14.4769 14.9311 14.467 15.0467 14.467 15.1639V17.6737C14.467 18.8042 15.3867 19.7238 16.5171 19.7238H17.093C17.0941 19.7515 17.0964 19.7793 17.0979 19.8071C17.099 19.8307 17.1005 19.8542 17.102 19.8778C17.1074 19.9658 17.1144 20.054 17.1233 20.1425C17.1262 20.1711 17.1285 20.1997 17.1316 20.2285C17.1428 20.3289 17.1559 20.4295 17.1713 20.5305C17.1799 20.5877 17.1906 20.6451 17.2006 20.7026C17.2081 20.7451 17.2155 20.7875 17.2237 20.83C17.2376 20.9026 17.2526 20.9751 17.2685 21.0477C17.2716 21.0615 17.275 21.0754 17.278 21.0892C17.8368 23.5676 19.5885 26.0329 21.7573 27.4905L21.7571 29.5324L19.4228 30.7047L19.0787 30.3601C18.7089 29.9898 18.1511 29.8632 17.6577 30.0374L6.93342 33.8276C3.78739 34.9394 1.61768 37.8123 1.40516 41.154L0.940358 49.8264C0.898171 50.4904 1.13495 51.1495 1.59005 51.6344C2.04441 52.1186 2.68576 52.3963 3.34948 52.3963H13.7751V53.8035C13.7751 54.4626 14.3113 54.9988 14.9704 54.9988H39.0299C39.689 54.9988 40.2252 54.4626 40.2252 53.8035V52.3963H50.6508C51.3145 52.3963 51.9558 52.1186 52.4103 51.6344C52.8654 51.1495 53.1021 50.4904 53.0604 49.834L52.5947 41.1463C52.3827 37.8122 50.2129 34.9393 47.0669 33.8275C47.0669 33.8275 47.0412 33.8187 46.6409 33.677L46.1288 35.1263C46.5291 35.2678 46.5548 35.2768 46.5548 35.2768C49.1192 36.1832 50.8878 38.5254 51.0603 41.2361L51.5259 49.9238C51.5415 50.1694 51.4576 50.4033 51.2894 50.5824C51.1221 50.7607 50.8953 50.859 50.651 50.859H44.3025V41.7561C44.3025 41.3316 43.9584 40.9874 43.5339 40.9874C43.1094 40.9874 42.7652 41.3316 42.7652 41.7561V50.859H40.2252V38.0874C40.2252 37.4284 39.689 36.8922 39.0301 36.8922ZM29.299 43.823L27.2967 42.7571C27.1838 42.697 27.0596 42.667 26.9355 42.667C26.8069 42.667 26.6784 42.6993 26.5625 42.7636L24.7015 43.7969V38.4294H29.299V43.823ZM37.9962 17.6737C37.9962 17.9565 37.7661 18.1866 37.4834 18.1866H36.9116V15.3774H37.9962V17.6737ZM16.3312 9.91555C16.3312 5.84645 19.6417 2.53599 23.7108 2.53599H30.2897C34.3588 2.53599 37.6693 5.84645 37.6693 9.91555V10.2311C36.574 9.17431 35.0857 8.5223 33.4472 8.5223H20.5534C18.9148 8.5223 17.4265 9.17431 16.3312 10.2311V9.91555ZM17.0887 18.1866H16.517C16.2341 18.1866 16.0041 17.9565 16.0041 17.6737V15.3774H17.0887V18.1866ZM16.069 13.8402C16.4353 11.6965 18.3069 10.0595 20.5534 10.0595H33.4471C35.6935 10.0595 37.565 11.6965 37.9314 13.8402H16.069ZM18.6621 20.0797C18.6608 20.0688 18.6597 20.058 18.6585 20.0471C18.649 19.9611 18.6417 19.8755 18.6365 19.7902C18.6358 19.7793 18.6349 19.7684 18.6343 19.7575C18.629 19.6627 18.6259 19.5683 18.6259 19.4746V15.3774H35.3745V19.4547C35.3745 19.5482 35.3715 19.6425 35.3662 19.7372C35.3655 19.7494 35.3645 19.7617 35.3636 19.7738C35.3584 19.8571 35.3513 19.9407 35.3421 20.0246C35.3406 20.0382 35.3392 20.0517 35.3376 20.0654C34.9899 23.0493 32.2033 26.4196 29.3671 27.1249L29.2668 27.1498C27.2042 27.6628 26.6822 27.6615 24.6116 27.1396C21.7845 26.4268 19.0067 23.0557 18.6621 20.0797ZM22.4321 30.9135C22.9508 30.7206 23.2941 30.2308 23.2942 29.6714L23.2943 28.3173C23.6046 28.444 23.9189 28.5503 24.2358 28.6303C25.4056 28.9252 26.1783 29.0722 26.9527 29.0722C27.7182 29.0722 28.4852 28.9283 29.6378 28.6418L29.738 28.6169C30.0639 28.5359 30.3869 28.4274 30.7057 28.2972L30.7058 29.6715C30.7059 30.2309 31.0493 30.7208 31.5679 30.9136L33.3801 31.8232C33.3693 31.8319 33.3586 31.8404 33.3478 31.8491C33.2468 31.9302 33.1449 32.0099 33.0412 32.0868C33.0379 32.0892 33.0347 32.0916 33.0314 32.094C32.9292 32.1696 32.8254 32.2427 32.7208 32.3142C32.7035 32.326 32.6863 32.338 32.669 32.3497C32.5665 32.4188 32.4628 32.4857 32.3581 32.5508C32.3368 32.564 32.3155 32.577 32.2942 32.5901C32.1887 32.6547 32.0822 32.7174 31.9746 32.7779C31.9577 32.7874 31.9407 32.7965 31.9238 32.8059C31.8159 32.8657 31.707 32.9238 31.5971 32.9795C31.5895 32.9833 31.582 32.9874 31.5744 32.9912C31.4614 33.0482 31.347 33.1023 31.2318 33.1549C31.2109 33.1644 31.1901 33.1741 31.1691 33.1835C31.0574 33.2336 30.9448 33.2815 30.8313 33.3274C30.8086 33.3366 30.786 33.3456 30.7633 33.3545C30.6476 33.4004 30.5312 33.4446 30.4137 33.4863C30.3992 33.4914 30.3846 33.4962 30.3701 33.5013C30.2551 33.5413 30.1394 33.5794 30.0229 33.6154C30.0094 33.6195 29.9961 33.624 29.9826 33.628C29.8626 33.6645 29.7416 33.6983 29.6201 33.7302C29.5969 33.7363 29.5738 33.7425 29.5506 33.7485C29.431 33.7791 29.3108 33.8075 29.1899 33.8338C29.1675 33.8386 29.1451 33.8432 29.1226 33.8479C28.9975 33.8742 28.872 33.8988 28.7457 33.9204C28.7367 33.922 28.7276 33.9231 28.7187 33.9247C28.5951 33.9455 28.4707 33.9637 28.3459 33.9801C28.3282 33.9824 28.3107 33.985 28.293 33.9873C28.1675 34.003 28.0414 34.016 27.9149 34.0271C27.8907 34.0292 27.8667 34.0313 27.8425 34.0332C27.7165 34.0435 27.59 34.0516 27.4632 34.0572C27.4425 34.0581 27.4217 34.0587 27.401 34.0594C27.2678 34.0645 27.1342 34.0678 27 34.0678C26.8659 34.0678 26.7324 34.0646 26.5991 34.0594C26.5785 34.0587 26.5579 34.058 26.5375 34.0572C26.4104 34.0516 26.2839 34.0435 26.1578 34.0332C26.1339 34.0313 26.1101 34.0292 26.0862 34.0271C25.9592 34.0159 25.8326 34.0029 25.7067 33.987C25.6903 33.985 25.6741 33.9826 25.6577 33.9805C25.5308 33.9639 25.4042 33.9454 25.2784 33.9242C25.2713 33.923 25.2641 33.922 25.2571 33.9208C25.1286 33.8989 25.001 33.874 24.8739 33.8472C24.8543 33.8431 24.8346 33.8391 24.8149 33.8347C24.691 33.8079 24.5677 33.7787 24.4452 33.7473C24.4264 33.7425 24.4077 33.7375 24.3891 33.7327C24.2628 33.6994 24.1371 33.6644 24.0124 33.6264C24.0068 33.6248 24.0014 33.6229 23.9958 33.6212C23.8673 33.5817 23.7397 33.5399 23.613 33.4953C23.6074 33.4933 23.6017 33.4916 23.596 33.4895C23.4705 33.4453 23.3461 33.3981 23.2225 33.3489C23.2095 33.3437 23.1965 33.3385 23.1835 33.3333C23.0608 33.2838 22.939 33.232 22.8183 33.1777C22.8095 33.1737 22.8007 33.1696 22.7919 33.1657C22.5387 33.0507 22.2901 32.9255 22.0468 32.7895L22.0428 32.7873C21.9221 32.7198 21.8029 32.6496 21.6849 32.5771C21.6782 32.573 21.6715 32.5689 21.6649 32.5648C21.5471 32.4919 21.4305 32.4168 21.3155 32.3389L21.3107 32.3356C21.078 32.1778 20.8512 32.0097 20.6309 31.8318C20.6274 31.8289 20.6238 31.8262 20.6203 31.8233L22.4321 30.9135Z" fill="black"/>
</svg>
