<svg width="50" height="50" viewBox="0 0 50 50" fill="none" xmlns="http://www.w3.org/2000/svg">
<g clip-path="url(#clip0)">
<path d="M46.1475 4.0351H9.16545C8.91815 4.0351 8.69622 4.18669 8.60626 4.41705L6.65918 9.40125V41.4841C6.65918 42.3735 7.38011 43.0944 8.26948 43.0944H47.0435C47.9329 43.0944 48.6538 42.3735 48.6538 41.4841V9.40125L46.7067 4.41695C46.6168 4.18669 46.3948 4.0351 46.1475 4.0351Z" fill="#927266"/>
<path d="M47.0434 43.0944H8.26948C7.38011 43.0944 6.65918 42.3735 6.65918 41.4841V9.40125H48.6537V41.4841C48.6537 42.3734 47.9328 43.0944 47.0434 43.0944Z" fill="#82635A"/>
<path d="M44.4245 9.40125V38.3953C44.4245 39.8398 43.2535 41.0109 41.809 41.0109H8.26948C7.38011 41.0109 6.65918 40.2899 6.65918 39.4006V41.4841C6.65918 42.3735 7.38011 43.0944 8.26948 43.0944H47.0435C47.9329 43.0944 48.6538 42.3735 48.6538 41.4841V9.40125H44.4245Z" fill="#72544E"/>
<path d="M30.4195 24.6561C30.6794 25.5018 30.2041 26.3903 29.3672 26.6492L22.4305 28.7962L22.8395 28.963L27.4685 30.8505L35.1307 33.9747C36.0604 34.3538 36.5067 35.4147 36.1277 36.3443C35.7486 37.274 34.6877 37.7203 33.758 37.3413L35.535 38.0658C36.4646 38.4449 36.911 39.5058 36.5319 40.4354C36.1528 41.3651 35.092 41.8114 34.1623 41.4324L32.3854 40.7078C33.3041 41.0825 33.7509 42.1231 33.3952 43.0448C33.0284 43.9956 31.9184 44.4438 30.9747 44.0589L29.493 43.4548C30.4226 43.8338 30.869 44.8947 30.4899 45.8244C30.1108 46.754 29.0499 47.2004 28.1203 46.8213L14.6999 41.3493C13.3812 40.8116 12.2215 39.9464 11.3306 38.8354C10.4397 37.7245 9.28011 36.8591 7.96142 36.3214L2.39648 34.0523L6.28604 24.5132L11.1034 26.4775C12.716 27.1351 28.5314 23.5732 28.5314 23.5732C29.3445 23.4025 30.1754 23.8621 30.4195 24.6561Z" fill="#FED9A8"/>
<path d="M30.4195 24.6561C30.6794 25.5018 30.2041 26.3903 29.3672 26.6492L22.4305 28.7962L22.8395 28.963L27.4685 30.8505L35.1307 33.9747C36.0604 34.3538 36.5067 35.4147 36.1277 36.3443C35.7486 37.274 34.6877 37.7203 33.758 37.3413L35.535 38.0658C36.4646 38.4449 36.911 39.5058 36.5319 40.4354C36.1528 41.3651 35.092 41.8114 34.1623 41.4324L32.3854 40.7078C33.3041 41.0825 33.7509 42.1231 33.3952 43.0448C33.0284 43.9956 31.9184 44.4438 30.9747 44.0589L29.493 43.4548C30.4226 43.8338 30.869 44.8947 30.4899 45.8244C30.1108 46.754 29.0499 47.2004 28.1203 46.8213L14.6999 41.3493C13.3812 40.8116 12.2215 39.9464 11.3306 38.8354C10.4397 37.7245 9.28011 36.8591 7.96142 36.3214L2.39648 34.0523L6.28604 24.5132L11.1034 26.4775C12.716 27.1351 28.5314 23.5732 28.5314 23.5732C29.3445 23.4025 30.1754 23.8621 30.4195 24.6561Z" fill="#FED9A8"/>
<path d="M29.8216 43.6298C29.6947 43.5513 29.5697 43.4863 29.4512 43.4379L22.649 40.6644C22.2894 41.5464 22.7104 42.5532 23.5908 42.9165L28.9859 45.1434C29.5048 45.355 29.9133 45.9143 30.0796 46.4362C30.2516 46.2676 30.3928 46.0618 30.4896 45.8246C30.8207 45.0124 30.522 44.1003 29.8216 43.6298Z" fill="#F4C892"/>
<path d="M33.3951 43.0449C33.7451 42.1377 33.3179 41.1154 32.4284 40.7262C32.4224 40.7236 32.4164 40.7211 32.4104 40.7185C32.4093 40.718 32.4081 40.7175 32.407 40.7169C32.4029 40.7152 32.3987 40.7135 32.3946 40.7118C32.3915 40.7105 32.3884 40.7092 32.3852 40.7079L32.3857 40.708C32.3855 40.7079 32.3854 40.7079 32.3852 40.7079L24.022 37.2977C23.666 38.1708 24.0874 39.167 24.962 39.5195L32.3852 42.5115C32.7257 42.6502 33.0609 42.9924 33.2704 43.3032C33.3182 43.2221 33.3601 43.1358 33.3951 43.0449Z" fill="#F4C892"/>
<path d="M35.9201 36.7206C36.0022 36.6063 36.0724 36.4805 36.1279 36.3444C36.5069 35.4148 36.0606 34.3539 35.1309 33.9748L27.4688 30.8505L22.8397 28.9631L22.4307 28.7963C23.4636 30.5856 25.0627 31.9803 26.9758 32.7604L35.1309 36.0857C35.5279 36.2904 35.7554 36.514 35.9201 36.7206Z" fill="#F4C892"/>
<path d="M35.5346 38.0659L25.3944 33.9313C25.0243 34.8389 25.461 35.8747 26.3693 36.2434L35.5346 39.9629C35.799 40.0706 36.1059 40.4655 36.3319 40.8003C36.4105 40.6891 36.4778 40.5672 36.5314 40.4356C36.9106 39.5059 36.4642 38.445 35.5346 38.0659Z" fill="#F4C892"/>
<path d="M5.69948 23.1101C5.844 22.7557 6.24853 22.5855 6.60302 22.73L10.3612 24.2624C10.7157 24.4069 10.8858 24.8114 10.7413 25.1659L6.14603 36.436C6.00152 36.7905 5.59699 36.9607 5.2425 36.8161L1.48434 35.2837C1.12986 35.1392 0.9597 34.7347 1.10421 34.3801L5.69948 23.1101Z" fill="#1AB248"/>
<path d="M31.1814 4.0351H24.1313L22.8896 9.40126V20.7362C22.8896 21.0457 23.255 21.2101 23.4867 21.0049L27.4183 17.5219C27.5542 17.4015 27.7585 17.4015 27.8944 17.5219L31.826 21.0049C32.0577 21.2102 32.4231 21.0457 32.4231 20.7362V9.40126L31.1814 4.0351Z" fill="#1AB248"/>
<path d="M31.826 21.0049L27.8944 17.5219C27.7585 17.4015 27.5542 17.4015 27.4183 17.5219L23.4867 21.0049C23.255 21.2101 22.8896 21.0457 22.8896 20.7362V9.40125H32.4232V20.7362C32.423 21.0457 32.0576 21.2101 31.826 21.0049Z" fill="#1AB248"/>
<path d="M29.0362 44.5763L29.0352 44.5753V44.5763H29.0362Z" fill="#FED9A8"/>
<path d="M42.6023 3.33548L9.1655 3.33539C8.62612 3.33539 8.15086 3.66001 7.95457 4.16245L6.00749 9.14666C6.00606 9.15039 6.00529 9.15422 6.00386 9.15786C5.99658 9.17729 5.99027 9.1971 5.98472 9.21739C5.98271 9.22476 5.98079 9.23203 5.97907 9.2394C5.97467 9.25806 5.97113 9.27701 5.96826 9.29615C5.96711 9.30381 5.96567 9.31146 5.96472 9.31912C5.96232 9.33998 5.96098 9.36104 5.96041 9.38238C5.96031 9.38774 5.95964 9.3931 5.95955 9.39855L5.95945 9.40114V19.6806C5.95945 20.067 6.27269 20.3803 6.65914 20.3803C7.04558 20.3803 7.35882 20.067 7.35882 19.6806V10.1009H22.1901V20.7362C22.1901 21.1521 22.4351 21.5311 22.8144 21.7017C22.9532 21.7642 23.1011 21.7948 23.248 21.7948C23.5022 21.7948 23.7536 21.7035 23.9507 21.5287L27.6565 18.2457L31.3622 21.5286C31.6733 21.8045 32.1195 21.8724 32.4987 21.7017C32.8779 21.531 33.1229 21.1521 33.1229 20.7362V10.1009H47.9541V41.4841C47.9541 41.9862 47.5455 42.3947 47.0435 42.3947H34.2142C34.2142 42.3868 34.2133 42.3788 34.2132 42.3709C34.2124 42.3081 34.2101 42.2454 34.2047 42.1832C35.4094 42.5026 36.6965 41.8835 37.1792 40.6996C37.4331 40.0769 37.4294 39.3926 37.1686 38.7728C37.144 38.7145 37.1169 38.6578 37.0884 38.602C37.0831 38.5918 37.078 38.5814 37.0728 38.5713C37.0447 38.5181 37.0149 38.4661 36.9834 38.4155C36.9773 38.4056 36.9709 38.3961 36.9647 38.3863C36.9314 38.3343 36.8969 38.2833 36.86 38.2342L36.8579 38.2315C36.8214 38.183 36.7827 38.1363 36.7428 38.0907C36.7355 38.0823 36.7283 38.0739 36.721 38.0656C36.6814 38.0216 36.6404 37.979 36.5979 37.9379C36.5896 37.9299 36.5811 37.9221 36.5727 37.9143C36.5282 37.8725 36.4827 37.8318 36.4352 37.7934C36.4336 37.7922 36.4319 37.7909 36.4303 37.7897C36.3836 37.7521 36.3351 37.7165 36.2856 37.6822C36.2767 37.676 36.2679 37.6697 36.2588 37.6636C36.2093 37.6302 36.1586 37.5988 36.1066 37.5688C36.1022 37.5663 36.0983 37.5634 36.0939 37.561C36.3896 37.305 36.6231 36.9812 36.775 36.6085C37.0289 35.9858 37.0252 35.3015 36.7644 34.6816C36.5363 34.1393 36.1352 33.7031 35.6214 33.4324C35.548 33.3938 35.4723 33.3584 35.3945 33.3268L24.5048 28.8864L29.5738 27.3175C30.7797 26.9442 31.4589 25.6579 31.0878 24.4504C30.9493 23.9997 30.6747 23.6195 30.3201 23.3417C29.7923 22.9282 29.0868 22.7415 28.3872 22.8884C28.3839 22.8891 28.3806 22.8897 28.3773 22.8906C28.3385 22.8993 24.4526 23.773 20.3941 24.5644C20.2141 24.5995 20.0387 24.6334 19.8658 24.6667C19.7274 24.6933 19.5909 24.7195 19.457 24.745C19.4185 24.7524 19.38 24.7596 19.3418 24.7669C19.1054 24.8118 18.8764 24.8548 18.6538 24.8961C18.5642 24.9128 18.4754 24.9292 18.388 24.9453C13.2912 25.8842 11.8593 25.9011 11.462 25.8473L11.4576 25.8466C11.4516 25.8458 11.4456 25.8449 11.4401 25.844C11.4361 25.8434 11.4323 25.8427 11.4286 25.8421C11.4259 25.8417 11.423 25.8412 11.4205 25.8408C11.3957 25.8363 11.3763 25.8316 11.3614 25.8271L11.2468 25.7804L11.3896 25.43C11.5301 25.0855 11.528 24.7069 11.3838 24.364C11.3477 24.2783 11.3038 24.1973 11.2529 24.1219C11.1001 23.8957 10.8841 23.7196 10.6257 23.6143L6.86767 22.082C6.52324 21.9414 6.14454 21.9436 5.80164 22.0878C5.45864 22.232 5.19249 22.5012 5.052 22.8457L0.456628 34.1159C0.166648 34.8271 0.50936 35.6415 1.22053 35.9316L4.97869 37.464C5.15028 37.534 5.32781 37.5671 5.50266 37.5671C6.05228 37.5671 6.57425 37.2396 6.79427 36.7001L6.82882 36.6154L7.69531 36.9687L7.69684 36.9693C8.52563 37.3073 9.28924 37.7894 9.95017 38.3877C10.0704 38.4966 10.1871 38.6092 10.3003 38.7255C10.4136 38.8418 10.523 38.9618 10.6288 39.0852C10.6816 39.1469 10.7336 39.2096 10.7844 39.2731C11.7475 40.474 13.01 41.416 14.4353 41.9972L15.4101 42.3946H8.26953C7.76747 42.3946 7.35892 41.9861 7.35892 41.484V39.7136C7.35892 39.3272 7.04568 39.0139 6.65923 39.0139C6.27278 39.0139 5.95955 39.3272 5.95955 39.7136V41.484C5.95955 42.7577 6.99572 43.794 8.26953 43.794H18.8421L27.8555 47.4692C28.1658 47.5957 28.4868 47.6557 28.8029 47.6556C29.7962 47.6556 30.7396 47.0637 31.1373 46.0886C31.3003 45.6886 31.3527 45.2706 31.3088 44.8687C31.7776 44.936 32.2637 44.8743 32.7043 44.684C33.1521 44.4906 33.5232 44.1825 33.7868 43.7939H47.0436C48.3173 43.7939 49.3536 42.7577 49.3536 41.4839V9.40123L49.3535 9.39865C49.3535 9.39329 49.3528 9.38793 49.3526 9.38247C49.352 9.36113 49.3508 9.34008 49.3483 9.31921C49.3473 9.31156 49.3459 9.3039 49.3448 9.29625C49.3419 9.27701 49.3383 9.25806 49.3339 9.23949C49.3322 9.23212 49.3303 9.22485 49.3283 9.21748C49.3227 9.19729 49.3164 9.17748 49.3092 9.15796C49.3078 9.15422 49.3069 9.15039 49.3055 9.14676L47.3584 4.16236C47.1622 3.66011 46.6868 3.33548 46.1475 3.33548H42.6023V4.73485H46.0798L47.6293 8.70164H32.9796L32.0617 4.73485L42.5649 4.72895L42.6023 3.33548ZM24.6878 4.73476H30.6254L31.5432 8.70155H23.7699L24.6878 4.73476ZM22.3335 8.70155H7.68373L9.23326 4.73476H23.2513L22.3335 8.70155ZM31.7236 19.9793L28.3585 16.9981C28.1584 16.8209 27.9075 16.7323 27.6567 16.7323C27.4057 16.7323 27.1547 16.8209 26.9546 16.9981L23.5896 19.9793V10.1009H31.7237L31.7236 19.9793ZM5.50094 36.1657L1.75484 34.6383L6.34533 23.3803L10.0913 24.9078L5.50094 36.1657ZM33.454 40.3883L32.651 40.0608L32.6499 40.0603L32.6487 40.0599L24.2856 36.6499C23.9279 36.504 23.5195 36.6757 23.3736 37.0336C23.2276 37.3915 23.3994 37.7998 23.7573 37.9458L32.1206 41.3559C32.1555 41.3701 32.1893 41.3859 32.222 41.4032C32.2312 41.4081 32.2397 41.4141 32.2487 41.4191C32.2716 41.4321 32.2947 41.4452 32.3164 41.4596C32.3269 41.4666 32.3364 41.4746 32.3466 41.4819C32.3658 41.4957 32.3854 41.5093 32.4036 41.5242C32.4146 41.5332 32.4246 41.5433 32.4352 41.5526C32.4515 41.5671 32.4681 41.5811 32.4834 41.5964C32.4941 41.6069 32.5035 41.6185 32.5137 41.6294C32.5277 41.6445 32.5422 41.6593 32.5554 41.6752C32.5654 41.6874 32.5742 41.7003 32.5838 41.7128C32.5958 41.7285 32.6082 41.7439 32.6192 41.7602C32.6285 41.7738 32.6365 41.7882 32.6451 41.802C32.655 41.8181 32.6656 41.8339 32.6746 41.8505C32.6829 41.8654 32.6898 41.881 32.6973 41.8962C32.7054 41.9126 32.7141 41.9286 32.7213 41.9454C32.7283 41.9615 32.734 41.9781 32.7402 41.9945C32.7465 42.011 32.7534 42.0273 32.759 42.0442C32.7645 42.0611 32.7687 42.0784 32.7734 42.0956C32.7781 42.1125 32.7834 42.1291 32.7873 42.1463C32.7912 42.1636 32.7937 42.1812 32.7969 42.1986C32.8 42.216 32.8036 42.2333 32.8059 42.2509C32.8082 42.2685 32.8091 42.2863 32.8105 42.304C32.812 42.3218 32.8141 42.3395 32.8147 42.3573C32.8152 42.3748 32.8144 42.3925 32.8142 42.4101C32.814 42.4283 32.8143 42.4465 32.8131 42.4648C32.8121 42.4821 32.8095 42.4994 32.8076 42.5167C32.8056 42.5354 32.804 42.5541 32.801 42.5726C32.7982 42.5897 32.7939 42.6066 32.7903 42.6236C32.7863 42.6425 32.783 42.6614 32.7779 42.6801C32.7735 42.6967 32.7676 42.7131 32.7623 42.7296C32.7564 42.7483 32.7509 42.7671 32.7439 42.7856C32.738 42.7983 32.7322 42.8111 32.7267 42.824C32.7255 42.827 32.7248 42.8301 32.7236 42.8329C32.6143 43.0849 32.4124 43.2854 32.149 43.3992C31.8591 43.5243 31.5271 43.5287 31.238 43.4108L29.7563 42.8066C29.7494 42.8039 29.7424 42.8019 29.7355 42.7994C29.7285 42.7962 29.7219 42.7926 29.7148 42.7897L22.9127 40.0161C22.5546 39.8703 22.1465 40.042 22.0006 40.3999C21.8547 40.7577 22.0264 41.1661 22.3843 41.312L29.1865 44.0856C29.1937 44.0886 29.2011 44.0907 29.2085 44.0934C29.2151 44.0962 29.2212 44.0998 29.228 44.1024C29.7989 44.3353 30.074 44.9891 29.8413 45.56C29.6084 46.1311 28.9549 46.4063 28.3837 46.1733L19.2446 42.4468L19.2434 42.4462L14.9636 40.7011C14.2102 40.3939 13.5106 39.9675 12.893 39.443C12.5225 39.1282 12.1815 38.7782 11.876 38.3973C11.575 38.0221 11.2448 37.6721 10.8896 37.3504C10.108 36.6429 9.20503 36.0728 8.22512 35.6731L7.35719 35.3193L9.0853 31.0811L10.7184 27.076L10.8389 27.1251C10.9523 27.1714 11.114 27.237 11.5493 27.2535C12.0931 27.2781 12.9927 27.2213 14.6043 26.9936C15.7006 26.8388 17.0453 26.6148 18.6151 26.326C18.6538 26.3189 18.6922 26.3118 18.7312 26.3047C18.8046 26.2911 18.8788 26.2773 18.9532 26.2635C19.0111 26.2528 19.0693 26.2419 19.128 26.2309C19.1948 26.2183 19.2619 26.2058 19.3294 26.1931C19.4011 26.1796 19.4737 26.1659 19.5466 26.152C19.605 26.1409 19.6633 26.1299 19.7222 26.1187C19.8111 26.1018 19.9016 26.0845 19.9923 26.067C20.039 26.058 20.0852 26.0492 20.1323 26.0402C20.2713 26.0134 20.412 25.9863 20.5554 25.9584C24.5999 25.1717 28.5036 24.2962 28.679 24.2567C28.6966 24.2531 28.7141 24.251 28.7316 24.2484C29.181 24.1819 29.6213 24.4418 29.7502 24.8612C29.7955 25.0086 29.8008 25.1589 29.7723 25.3004C29.7096 25.6117 29.4833 25.8803 29.16 25.9803L22.2232 28.1273C21.9408 28.2148 21.7438 28.47 21.7311 28.7654C21.7183 29.0606 21.8923 29.3321 22.166 29.4437L34.8661 34.6223C35.1427 34.735 35.3588 34.9487 35.4746 35.2241C35.5904 35.4994 35.5921 35.8034 35.4793 36.0799C35.3665 36.3564 35.1529 36.5725 34.8775 36.6883C34.7399 36.7461 34.5951 36.7754 34.4501 36.7763C34.448 36.7763 34.4459 36.776 34.4438 36.776C34.4097 36.776 34.3758 36.7747 34.3418 36.7715C34.3317 36.7705 34.3218 36.7684 34.3117 36.7673C34.2858 36.7641 34.2599 36.7612 34.2341 36.7562C34.2179 36.753 34.2018 36.7482 34.1856 36.7444C34.1663 36.7398 34.1468 36.7359 34.1277 36.7303C34.1079 36.7244 34.0885 36.7167 34.0689 36.7097C34.0534 36.7041 34.0376 36.6995 34.0223 36.6933L25.6583 33.2828C25.3004 33.1369 24.8922 33.3087 24.7462 33.6666C24.6003 34.0245 24.7721 34.4328 25.13 34.5788L35.2702 38.7134C35.3394 38.7416 35.4048 38.7761 35.4657 38.8163C35.6486 38.9369 35.7919 39.1087 35.8787 39.3152C35.98 39.5561 35.994 39.8189 35.9203 40.0661C35.9098 40.1014 35.8974 40.1364 35.8834 40.171C35.8688 40.2067 35.8526 40.2412 35.8349 40.2745C35.7937 40.352 35.7435 40.4221 35.6874 40.4859C35.6525 40.5255 35.6153 40.5625 35.5757 40.5964C35.5694 40.6017 35.5636 40.6079 35.5572 40.613C35.3019 40.8218 34.9605 40.9116 34.627 40.8442C34.5593 40.8306 34.492 40.8111 34.4258 40.7841L33.454 40.3883Z" fill="black"/>
</g>
<defs>
<clipPath id="clip0">
<rect width="49" height="49" fill="white" transform="translate(0.353516 0.995483)"/>
</clipPath>
</defs>
</svg>
