<svg width="51" height="51" viewBox="0 0 51 51" fill="none" xmlns="http://www.w3.org/2000/svg">
<g clip-path="url(#clip0)">
<path d="M49.6234 50.2597H1.08398L8.2915 32.812H42.4159L49.6234 50.2597Z" fill="#A8EEFC"/>
<path d="M42.416 32.812H39.7871L46.9946 50.2597H49.6235L42.416 32.812Z" fill="#7EE5F2"/>
<path d="M46.4389 42.5516L44.8365 38.6729H25.8627L19.1608 32.812H16.4453H14.8442L12.4231 38.6729H5.86992L4.26758 42.5516H10.8208L7.63672 50.2597H11.9534L17.3219 37.2639L32.5992 50.2597H39.1119L30.2979 42.5516H46.4389Z" fill="#FFDB56"/>
<path d="M43.8103 42.5517H46.4393L44.8369 38.6729H42.208L43.8103 42.5517Z" fill="#FFBB24"/>
<path d="M12.4233 38.6729H5.87012L8.29121 32.812H14.8444L12.4233 38.6729Z" fill="#4CE166"/>
<path d="M44.8368 38.6729H25.863L19.1611 32.812H42.4157L44.8368 38.6729Z" fill="#4CE166"/>
<path d="M44.8371 38.6729L42.416 32.812H39.7871L42.2082 38.6729H44.8371Z" fill="#44C868"/>
<path d="M17.3226 37.2639L11.9541 50.2597H32.5999L17.3226 37.2639Z" fill="#4CE166"/>
<path d="M25.3534 1.7312C17.0454 1.7312 10.3105 8.51685 10.3105 16.8873C10.3105 29.6338 25.3534 41.362 25.3534 41.362C25.3534 41.362 40.3963 29.6338 40.3963 16.8872C40.3963 8.51675 33.6613 1.7312 25.3534 1.7312ZM25.3534 22.9322C22.0398 22.9322 19.3536 20.2257 19.3536 16.8873C19.3536 13.5487 22.0398 10.8423 25.3534 10.8423C28.667 10.8423 31.3532 13.5488 31.3532 16.8873C31.3532 20.2257 28.667 22.9322 25.3534 22.9322Z" fill="#1AB248"/>
<path d="M25.3531 23.6679C29.0641 23.6679 32.0831 20.6261 32.0831 16.8872C32.0831 13.1483 29.0641 10.1065 25.3531 10.1065C23.9839 10.1065 22.666 10.5184 21.5421 11.2977C21.2099 11.5281 21.1259 11.9862 21.3545 12.321C21.5832 12.6557 22.0379 12.7403 22.3701 12.51C23.2494 11.9004 24.2809 11.5781 25.3531 11.5781C28.2588 11.5781 30.6227 13.9597 30.6227 16.8872C30.6227 19.8146 28.2588 22.1963 25.3531 22.1963C22.4475 22.1963 20.0836 19.8146 20.0836 16.8872C20.0836 16.0236 20.2826 15.2004 20.6751 14.4404C20.8612 14.0798 20.7222 13.6356 20.3644 13.4481C20.0064 13.2607 19.5657 13.4006 19.3795 13.7612C18.8847 14.7194 18.623 15.8004 18.623 16.8872C18.6231 20.6261 21.6422 23.6679 25.3531 23.6679Z" fill="black"/>
<path d="M50.2984 49.977L43.0909 32.5293C42.9777 32.255 42.7117 32.0762 42.4168 32.0762H35.2345C36.6315 30.1721 37.7943 28.2756 38.7024 26.4134C40.3117 23.1132 41.1277 19.9082 41.1277 16.8873C41.1276 8.12449 34.0518 0.995483 25.3544 0.995483C16.6571 0.995483 9.58129 8.12449 9.58129 16.8872C9.58129 19.9081 10.3972 23.1132 12.0066 26.4133C12.9146 28.2755 14.0774 30.1721 15.4745 32.0761H8.29213C7.99721 32.0761 7.73119 32.255 7.61801 32.5292L2.70669 44.4184L3.10024 45.3803L2.92641 47.716L4.75571 43.2874H9.72699L7.15082 49.5239H2.17964L2.92641 47.716L3.10024 45.3803L2.70669 44.4184C2.5518 44.7935 0.410594 49.977 0.410594 49.977C0.316746 50.2041 0.341746 50.4635 0.477293 50.6679C0.612644 50.8725 0.840574 50.9955 1.08471 50.9955H49.6241C49.8682 50.9955 50.0962 50.8725 50.2317 50.6679C50.3671 50.4635 50.3921 50.2041 50.2984 49.977ZM11.0418 16.8872C11.0418 8.93582 17.4624 2.46697 25.3544 2.46697C33.2464 2.46697 39.667 8.93591 39.667 16.8872C39.667 20.2215 38.5171 25.5496 33.1978 32.3394C33.1924 32.3458 33.1876 32.3525 33.1825 32.3591C32.9109 32.7054 32.6286 33.0555 32.3348 33.4095C29.4117 36.9312 26.4537 39.5028 25.3543 40.4165C24.2581 39.5059 21.3141 36.9472 18.3931 33.4323C18.0919 33.0699 17.8031 32.7116 17.525 32.3571C17.5205 32.3514 17.5163 32.3456 17.5117 32.34C12.1925 25.5507 11.0418 20.2227 11.0418 16.8872ZM8.77914 33.5477H13.7505L11.9372 37.9372H6.96596L8.77914 33.5477ZM13.0495 49.524L17.614 38.4744L30.6036 49.524H13.0495ZM32.8676 49.524L17.7942 36.7017C17.6162 36.5503 17.3772 36.4935 17.1512 36.5488C16.925 36.604 16.7383 36.7646 16.649 36.9811L11.4676 49.5239H8.73285L11.4961 42.8343C11.59 42.6072 11.565 42.3479 11.4294 42.1433C11.2941 41.9387 11.0661 41.8158 10.8219 41.8158H5.36381L6.35815 39.4086H12.4244C12.7193 39.4086 12.9853 39.2298 13.0985 38.9555L15.3325 33.5476H16.5998C16.8199 33.824 17.0435 34.1005 17.2731 34.3768C21.0411 38.911 24.7514 41.822 24.9075 41.9438C25.0392 42.0465 25.1968 42.0976 25.3544 42.0976C25.512 42.0976 25.6698 42.0464 25.8013 41.9438C25.8871 41.8769 27.0471 40.9664 28.6991 39.4087H36.9687C37.372 39.4087 37.6989 39.0793 37.6989 38.6729C37.6989 38.2666 37.372 37.9372 36.9687 37.9372H30.2041C31.2166 36.9115 32.3233 35.7156 33.4359 34.3769C33.6655 34.1006 33.8892 33.8242 34.1091 33.5477H41.9297L43.7429 37.9372H39.8897C39.4863 37.9372 39.1594 38.2666 39.1594 38.6729C39.1594 39.0793 39.4862 39.4087 39.8897 39.4087H44.3507L45.345 41.8159H30.2991C29.9944 41.8159 29.7217 42.0065 29.615 42.2942C29.5084 42.5819 29.5903 42.906 29.8204 43.1073L37.1576 49.524H32.8676ZM39.3858 49.524L32.2545 43.2875H45.953L48.5293 49.524H39.3858Z" fill="black"/>
<circle cx="25.3535" cy="16.9955" r="6.25" fill="white" stroke="black" stroke-width="1.5"/>
</g>
<defs>
<clipPath id="clip0">
<rect width="50" height="50" fill="white" transform="translate(0.353516 0.995483)"/>
</clipPath>
</defs>
</svg>
