<svg width="21" height="24" viewBox="0 0 21 24" fill="none" xmlns="http://www.w3.org/2000/svg">
<path d="M9.57353 15.9947C9.32784 15.9945 9.09239 15.8966 8.91883 15.7225L6.44825 13.248C6.33952 13.0673 6.29558 12.8547 6.32367 12.6456C6.35176 12.4364 6.4502 12.243 6.60276 12.0974C6.75533 11.9519 6.95287 11.8626 7.16284 11.8447C7.37279 11.8266 7.5826 11.8808 7.75765 11.9984L9.52412 13.78L13.23 9.57333C13.311 9.48235 13.4093 9.40825 13.519 9.35529C13.6287 9.30231 13.7477 9.2715 13.8694 9.26461C13.9909 9.2577 14.1127 9.27487 14.2276 9.3151C14.3426 9.35534 14.4485 9.41787 14.5394 9.49911C14.6302 9.58038 14.7042 9.67875 14.757 9.78862C14.8099 9.89848 14.8408 10.0178 14.8476 10.1395C14.8545 10.2613 14.8373 10.3832 14.7972 10.4983C14.757 10.6135 14.6945 10.7197 14.6135 10.8106L10.29 15.7597C10.2086 15.8543 10.1083 15.9308 9.99551 15.9841C9.88273 16.0373 9.75994 16.0663 9.6353 16.069L9.57353 15.9947Z" fill="white"/>
<path d="M10.5 23.9999C10.3353 24.0011 10.1733 23.9584 10.0306 23.8761L0.457113 18.3332C0.316488 18.2519 0.200013 18.1345 0.119682 17.9932C0.0393514 17.8519 -0.00193172 17.6915 6.94423e-05 17.529V6.4678C-0.00193172 6.30516 0.0393514 6.14494 0.119682 6.00359C0.200013 5.86225 0.316488 5.74488 0.457113 5.66358L10.0306 0.120621C10.1722 0.0415228 10.3316 0 10.4938 0C10.656 0 10.8154 0.0415228 10.9571 0.120621L20.5305 5.66358C20.6743 5.74226 20.794 5.8587 20.8768 6.0004C20.9594 6.14209 21.002 6.30368 20.9999 6.4678V17.529C21.002 17.6931 20.9594 17.8547 20.8768 17.9964C20.794 18.1381 20.6743 18.2545 20.5305 18.3332L10.9571 23.8761C10.8194 23.9598 10.661 24.0027 10.5 23.9999ZM1.85299 16.9474L10.5 21.8965L19.147 16.9474V7.04932L10.5 2.10025L1.85299 7.04932V16.9474Z" fill="white"/>
</svg>
