<svg width="60" height="58" viewBox="0 0 60 58" fill="none" xmlns="http://www.w3.org/2000/svg">
<path d="M60 1.46233C60 2.26995 59.3453 2.92465 58.5377 2.92465C57.7301 2.92465 57.0753 2.26995 57.0753 1.46233C57.0753 0.654706 57.7301 0 58.5377 0C59.3453 0 60 0.654706 60 1.46233Z" fill="#334045"/>
<path d="M60 19.7266C60 20.5342 59.3453 21.1889 58.5377 21.1889C57.7301 21.1889 57.0753 20.5342 57.0753 19.7266C57.0753 18.9189 57.7301 18.2642 58.5377 18.2642C59.3453 18.2642 60 18.9189 60 19.7266Z" fill="#334045"/>
<path d="M60 37.9908C60 38.7984 59.3453 39.4531 58.5377 39.4531C57.7301 39.4531 57.0753 38.7984 57.0753 37.9908C57.0753 37.1832 57.7301 36.5285 58.5377 36.5285C59.3453 36.5285 60 37.1832 60 37.9908Z" fill="#334045"/>
<path d="M60 56.255C60 57.0627 59.3453 57.7174 58.5377 57.7174C57.7301 57.7174 57.0753 57.0627 57.0753 56.255C57.0753 55.4474 57.7301 54.7927 58.5377 54.7927C59.3453 54.7927 60 55.4474 60 56.255Z" fill="#334045"/>
<path d="M40.9749 1.46233C40.9749 2.26995 40.3202 2.92465 39.5126 2.92465C38.7049 2.92465 38.0502 2.26995 38.0502 1.46233C38.0502 0.654706 38.7049 0 39.5126 0C40.3202 0 40.9749 0.654706 40.9749 1.46233Z" fill="#334045"/>
<path d="M40.9749 19.7266C40.9749 20.5342 40.3202 21.1889 39.5126 21.1889C38.7049 21.1889 38.0502 20.5342 38.0502 19.7266C38.0502 18.9189 38.7049 18.2642 39.5126 18.2642C40.3202 18.2642 40.9749 18.9189 40.9749 19.7266Z" fill="#334045"/>
<path d="M40.9749 37.9908C40.9749 38.7984 40.3202 39.4531 39.5126 39.4531C38.7049 39.4531 38.0502 38.7984 38.0502 37.9908C38.0502 37.1832 38.7049 36.5285 39.5126 36.5285C40.3202 36.5285 40.9749 37.1832 40.9749 37.9908Z" fill="#334045"/>
<path d="M40.9749 56.255C40.9749 57.0627 40.3202 57.7174 39.5126 57.7174C38.7049 57.7174 38.0502 57.0627 38.0502 56.255C38.0502 55.4474 38.7049 54.7927 39.5126 54.7927C40.3202 54.7927 40.9749 55.4474 40.9749 56.255Z" fill="#334045"/>
<path d="M21.9498 1.46233C21.9498 2.26995 21.2951 2.92465 20.4875 2.92465C19.6798 2.92465 19.0251 2.26995 19.0251 1.46233C19.0251 0.654706 19.6798 0 20.4875 0C21.2951 0 21.9498 0.654706 21.9498 1.46233Z" fill="#334045"/>
<path d="M21.9498 19.7266C21.9498 20.5342 21.2951 21.1889 20.4875 21.1889C19.6798 21.1889 19.0251 20.5342 19.0251 19.7266C19.0251 18.9189 19.6798 18.2642 20.4875 18.2642C21.2951 18.2642 21.9498 18.9189 21.9498 19.7266Z" fill="#334045"/>
<path d="M21.9498 37.9908C21.9498 38.7984 21.2951 39.4531 20.4875 39.4531C19.6798 39.4531 19.0251 38.7984 19.0251 37.9908C19.0251 37.1832 19.6798 36.5285 20.4875 36.5285C21.2951 36.5285 21.9498 37.1832 21.9498 37.9908Z" fill="#334045"/>
<path d="M21.9498 56.255C21.9498 57.0627 21.2951 57.7174 20.4875 57.7174C19.6798 57.7174 19.0251 57.0627 19.0251 56.255C19.0251 55.4474 19.6798 54.7927 20.4875 54.7927C21.2951 54.7927 21.9498 55.4474 21.9498 56.255Z" fill="#334045"/>
<path d="M2.92469 1.46233C2.92469 2.26995 2.26998 2.92465 1.46236 2.92465C0.654742 2.92465 3.56207e-05 2.26995 3.56207e-05 1.46233C3.56207e-05 0.654706 0.654742 0 1.46236 0C2.26998 0 2.92469 0.654706 2.92469 1.46233Z" fill="#334045"/>
<path d="M2.92469 19.7266C2.92469 20.5342 2.26998 21.1889 1.46236 21.1889C0.654742 21.1889 3.56207e-05 20.5342 3.56207e-05 19.7266C3.56207e-05 18.9189 0.654742 18.2642 1.46236 18.2642C2.26998 18.2642 2.92469 18.9189 2.92469 19.7266Z" fill="#334045"/>
<path d="M2.92465 37.9908C2.92465 38.7984 2.26995 39.4531 1.46233 39.4531C0.654706 39.4531 0 38.7984 0 37.9908C0 37.1832 0.654706 36.5285 1.46233 36.5285C2.26995 36.5285 2.92465 37.1832 2.92465 37.9908Z" fill="#334045"/>
<path d="M2.92469 56.255C2.92469 57.0627 2.26998 57.7174 1.46236 57.7174C0.654742 57.7174 3.56207e-05 57.0627 3.56207e-05 56.255C3.56207e-05 55.4474 0.654742 54.7927 1.46236 54.7927C2.26998 54.7927 2.92469 55.4474 2.92469 56.255Z" fill="#334045"/>
</svg>
