<svg width="22" height="22" viewBox="0 0 22 22" fill="none" xmlns="http://www.w3.org/2000/svg">
<path d="M1.2366 1.23663C1.55211 0.921123 2.06363 0.921123 2.37914 1.23663L20.7634 19.6208C21.0789 19.9363 21.0789 20.4478 20.7634 20.7634C20.6056 20.9212 20.3988 21 20.1921 21C19.9853 21 19.7786 20.9211 19.6208 20.7633L1.2366 2.37913C0.921133 2.06366 0.921133 1.55214 1.2366 1.23663Z" fill="#888888"/>
<path d="M1.23661 19.6208L19.6209 1.23663C19.9363 0.921123 20.4479 0.921123 20.7634 1.23663C21.0789 1.5521 21.0789 2.06362 20.7634 2.37913L2.37911 20.7634C2.22137 20.9211 2.01458 21 1.80782 21C1.60106 21 1.39426 20.9211 1.23657 20.7634C0.921137 20.4479 0.921138 19.9363 1.23661 19.6208Z" fill="#888888"/>
<path d="M1.2366 1.23663C1.55211 0.921123 2.06363 0.921123 2.37914 1.23663L20.7634 19.6208C21.0789 19.9363 21.0789 20.4478 20.7634 20.7634C20.6056 20.9212 20.3988 21 20.1921 21C19.9853 21 19.7786 20.9211 19.6208 20.7633L1.2366 2.37913C0.921133 2.06366 0.921133 1.55214 1.2366 1.23663Z" stroke="#888888" stroke-width="0.6"/>
<path d="M1.23661 19.6208L19.6209 1.23663C19.9363 0.921123 20.4479 0.921123 20.7634 1.23663C21.0789 1.5521 21.0789 2.06362 20.7634 2.37913L2.37911 20.7634C2.22137 20.9211 2.01458 21 1.80782 21C1.60106 21 1.39426 20.9211 1.23657 20.7634C0.921137 20.4479 0.921138 19.9363 1.23661 19.6208Z" stroke="#888888" stroke-width="0.6"/>
</svg>
