<svg width="22" height="26" viewBox="0 0 22 26" fill="none" xmlns="http://www.w3.org/2000/svg">
<path d="M17.1992 5.19995H5.19922V11.2H17.1992V5.19995Z" stroke="white" stroke-width="1.3" stroke-linecap="round" stroke-linejoin="round"/>
<path d="M21.1992 24.2V2.19995C21.1992 1.64767 20.7515 1.19995 20.1992 1.19995H2.19922C1.64693 1.19995 1.19922 1.64767 1.19922 2.19995V24.2C1.19922 24.7522 1.64693 25.2 2.19922 25.2H20.1992C20.7515 25.2 21.1992 24.7522 21.1992 24.2Z" stroke="white" stroke-width="1.3" stroke-linecap="round" stroke-linejoin="round"/>
<path d="M6 17C6.82843 17 7.5 16.3284 7.5 15.5C7.5 14.6716 6.82843 14 6 14C5.17157 14 4.5 14.6716 4.5 15.5C4.5 16.3284 5.17157 17 6 17Z" fill="white"/>
<path d="M11 17C11.8284 17 12.5 16.3284 12.5 15.5C12.5 14.6716 11.8284 14 11 14C10.1716 14 9.5 14.6716 9.5 15.5C9.5 16.3284 10.1716 17 11 17Z" fill="white"/>
<path d="M16 17C16.8284 17 17.5 16.3284 17.5 15.5C17.5 14.6716 16.8284 14 16 14C15.1716 14 14.5 14.6716 14.5 15.5C14.5 16.3284 15.1716 17 16 17Z" fill="white"/>
<path d="M6 22C6.82843 22 7.5 21.3284 7.5 20.5C7.5 19.6716 6.82843 19 6 19C5.17157 19 4.5 19.6716 4.5 20.5C4.5 21.3284 5.17157 22 6 22Z" fill="white"/>
<path d="M11 22C11.8284 22 12.5 21.3284 12.5 20.5C12.5 19.6716 11.8284 19 11 19C10.1716 19 9.5 19.6716 9.5 20.5C9.5 21.3284 10.1716 22 11 22Z" fill="white"/>
<path d="M16 22C16.8284 22 17.5 21.3284 17.5 20.5C17.5 19.6716 16.8284 19 16 19C15.1716 19 14.5 19.6716 14.5 20.5C14.5 21.3284 15.1716 22 16 22Z" fill="white"/>
</svg>
