<svg width="26" height="21" viewBox="0 0 26 21" fill="none" xmlns="http://www.w3.org/2000/svg">
<path d="M10.2308 6.2772H15.7692M24.7231 13.7547L19.6808 1.83632C19.1602 1.30053 18.4574 1 17.725 1C16.9926 1 16.2898 1.30053 15.7692 1.83632V15.3991M15.7692 15.3991C15.7692 18.0506 17.8356 20.2 20.3846 20.2C22.9336 20.2 25 18.0505 25 15.399C25 12.7475 22.9336 10.5981 20.3846 10.5981C17.8356 10.5981 15.7692 12.7476 15.7692 15.3991ZM10.2306 15.3991V1.83632C9.70997 1.30053 9.00718 1 8.27482 1C7.54246 1 6.83967 1.30053 6.31905 1.83632L1.27674 13.7547M10.2306 15.3991C10.2306 18.0506 8.16439 20.2 5.61538 20.2C3.06638 20.2 1 18.0505 1 15.399C1 12.7475 3.06638 10.5981 5.61538 10.5981C8.16439 10.5981 10.2306 12.7476 10.2306 15.3991Z" stroke="white" stroke-width="1.3" stroke-linecap="round" stroke-linejoin="round"/>
</svg>
