<svg width="23" height="26" viewBox="0 0 23 26" fill="none" xmlns="http://www.w3.org/2000/svg">
<path d="M1 14.4888V11.5984C1 5.72109 5.67727 1 11.5 1C17.3227 1 22 5.72109 22 11.5984V14.4888M1 14.4888C1 12.3691 2.71818 10.6349 4.81818 10.6349V18.3428C2.71818 18.3428 1 16.6085 1 14.4888ZM22 14.4888C22 19.788 18.1818 24.22 13.1227 24.9908C12.2636 25.0872 11.5 24.4127 11.5 23.5456C11.5 22.7748 12.0727 22.1967 12.8364 22.1967C13.6955 22.1967 14.3636 22.8712 14.3636 23.7383V24.1237M22 14.4888C22 16.6085 20.2818 18.3428 18.1818 18.3428V10.6349C20.2818 10.6349 22 12.3691 22 14.4888Z" stroke="white" stroke-width="1.3" stroke-miterlimit="10" stroke-linejoin="round"/>
</svg>
