<svg width="768" height="25" viewBox="0 0 768 25" fill="none" xmlns="http://www.w3.org/2000/svg">
<g opacity="0.08">
<path d="M20.5761 0H41.6667L21.0905 24.1667H0L20.5761 0Z" fill="url(#paint0_linear_1963_3290)"/>
<path d="M62.2428 0H83.3333L62.7572 24.1667H41.6667L62.2428 0Z" fill="url(#paint1_linear_1963_3290)"/>
<path d="M103.909 0H125L104.424 24.1667H83.3333L103.909 0Z" fill="url(#paint2_linear_1963_3290)"/>
<path d="M145.576 0H166.667L146.091 24.1667H125L145.576 0Z" fill="url(#paint3_linear_1963_3290)"/>
<path d="M187.243 0H208.333L187.757 24.1667H166.667L187.243 0Z" fill="url(#paint4_linear_1963_3290)"/>
<path d="M228.909 0H250L229.424 24.1667H208.333L228.909 0Z" fill="url(#paint5_linear_1963_3290)"/>
<path d="M270.576 0H291.667L271.091 24.1667H250L270.576 0Z" fill="url(#paint6_linear_1963_3290)"/>
<path d="M312.243 0H333.333L312.757 24.1667H291.667L312.243 0Z" fill="url(#paint7_linear_1963_3290)"/>
<path d="M353.909 0H375L354.424 24.1667H333.333L353.909 0Z" fill="url(#paint8_linear_1963_3290)"/>
<path d="M395.576 0H416.667L396.091 24.1667H375L395.576 0Z" fill="url(#paint9_linear_1963_3290)"/>
<path d="M437.243 0H458.333L437.757 24.1667H416.667L437.243 0Z" fill="url(#paint10_linear_1963_3290)"/>
<path d="M478.909 0H500L479.424 24.1667H458.333L478.909 0Z" fill="url(#paint11_linear_1963_3290)"/>
<path d="M520.576 0H541.667L521.091 24.1667H500L520.576 0Z" fill="url(#paint12_linear_1963_3290)"/>
<path d="M562.243 0H583.333L562.757 24.1667H541.667L562.243 0Z" fill="url(#paint13_linear_1963_3290)"/>
<path d="M603.909 0H625L604.424 24.1667H583.333L603.909 0Z" fill="url(#paint14_linear_1963_3290)"/>
<path d="M645.576 0H666.667L646.091 24.1667H625L645.576 0Z" fill="url(#paint15_linear_1963_3290)"/>
<path d="M687.243 0H708.333L687.757 24.1667H666.667L687.243 0Z" fill="url(#paint16_linear_1963_3290)"/>
<path d="M728.909 0H750L729.424 24.1667H708.333L728.909 0Z" fill="url(#paint17_linear_1963_3290)"/>
<path d="M770.576 0H791.667L771.091 24.1667H750L770.576 0Z" fill="url(#paint18_linear_1963_3290)"/>
<path d="M812.243 0H833.333L812.757 24.1667H791.667L812.243 0Z" fill="url(#paint19_linear_1963_3290)"/>
<path d="M853.909 0H875L854.424 24.1667H833.333L853.909 0Z" fill="url(#paint20_linear_1963_3290)"/>
<path d="M895.576 0H916.667L896.09 24.1667H875L895.576 0Z" fill="url(#paint21_linear_1963_3290)"/>
<path d="M937.243 0H958.333L937.757 24.1667H916.667L937.243 0Z" fill="url(#paint22_linear_1963_3290)"/>
<path d="M978.909 0H1000L979.424 24.1667H958.333L978.909 0Z" fill="url(#paint23_linear_1963_3290)"/>
</g>
<defs>
<linearGradient id="paint0_linear_1963_3290" x1="500" y1="0" x2="500" y2="24.1667" gradientUnits="userSpaceOnUse">
<stop offset="0.416667" stop-color="white" stop-opacity="0"/>
<stop offset="1" stop-color="white"/>
</linearGradient>
<linearGradient id="paint1_linear_1963_3290" x1="500" y1="0" x2="500" y2="24.1667" gradientUnits="userSpaceOnUse">
<stop offset="0.416667" stop-color="white" stop-opacity="0"/>
<stop offset="1" stop-color="white"/>
</linearGradient>
<linearGradient id="paint2_linear_1963_3290" x1="500" y1="0" x2="500" y2="24.1667" gradientUnits="userSpaceOnUse">
<stop offset="0.416667" stop-color="white" stop-opacity="0"/>
<stop offset="1" stop-color="white"/>
</linearGradient>
<linearGradient id="paint3_linear_1963_3290" x1="500" y1="0" x2="500" y2="24.1667" gradientUnits="userSpaceOnUse">
<stop offset="0.416667" stop-color="white" stop-opacity="0"/>
<stop offset="1" stop-color="white"/>
</linearGradient>
<linearGradient id="paint4_linear_1963_3290" x1="500" y1="0" x2="500" y2="24.1667" gradientUnits="userSpaceOnUse">
<stop offset="0.416667" stop-color="white" stop-opacity="0"/>
<stop offset="1" stop-color="white"/>
</linearGradient>
<linearGradient id="paint5_linear_1963_3290" x1="500" y1="0" x2="500" y2="24.1667" gradientUnits="userSpaceOnUse">
<stop offset="0.416667" stop-color="white" stop-opacity="0"/>
<stop offset="1" stop-color="white"/>
</linearGradient>
<linearGradient id="paint6_linear_1963_3290" x1="500" y1="0" x2="500" y2="24.1667" gradientUnits="userSpaceOnUse">
<stop offset="0.416667" stop-color="white" stop-opacity="0"/>
<stop offset="1" stop-color="white"/>
</linearGradient>
<linearGradient id="paint7_linear_1963_3290" x1="500" y1="0" x2="500" y2="24.1667" gradientUnits="userSpaceOnUse">
<stop offset="0.416667" stop-color="white" stop-opacity="0"/>
<stop offset="1" stop-color="white"/>
</linearGradient>
<linearGradient id="paint8_linear_1963_3290" x1="500" y1="0" x2="500" y2="24.1667" gradientUnits="userSpaceOnUse">
<stop offset="0.416667" stop-color="white" stop-opacity="0"/>
<stop offset="1" stop-color="white"/>
</linearGradient>
<linearGradient id="paint9_linear_1963_3290" x1="500" y1="0" x2="500" y2="24.1667" gradientUnits="userSpaceOnUse">
<stop offset="0.416667" stop-color="white" stop-opacity="0"/>
<stop offset="1" stop-color="white"/>
</linearGradient>
<linearGradient id="paint10_linear_1963_3290" x1="500" y1="0" x2="500" y2="24.1667" gradientUnits="userSpaceOnUse">
<stop offset="0.416667" stop-color="white" stop-opacity="0"/>
<stop offset="1" stop-color="white"/>
</linearGradient>
<linearGradient id="paint11_linear_1963_3290" x1="500" y1="0" x2="500" y2="24.1667" gradientUnits="userSpaceOnUse">
<stop offset="0.416667" stop-color="white" stop-opacity="0"/>
<stop offset="1" stop-color="white"/>
</linearGradient>
<linearGradient id="paint12_linear_1963_3290" x1="500" y1="0" x2="500" y2="24.1667" gradientUnits="userSpaceOnUse">
<stop offset="0.416667" stop-color="white" stop-opacity="0"/>
<stop offset="1" stop-color="white"/>
</linearGradient>
<linearGradient id="paint13_linear_1963_3290" x1="500" y1="0" x2="500" y2="24.1667" gradientUnits="userSpaceOnUse">
<stop offset="0.416667" stop-color="white" stop-opacity="0"/>
<stop offset="1" stop-color="white"/>
</linearGradient>
<linearGradient id="paint14_linear_1963_3290" x1="500" y1="0" x2="500" y2="24.1667" gradientUnits="userSpaceOnUse">
<stop offset="0.416667" stop-color="white" stop-opacity="0"/>
<stop offset="1" stop-color="white"/>
</linearGradient>
<linearGradient id="paint15_linear_1963_3290" x1="500" y1="0" x2="500" y2="24.1667" gradientUnits="userSpaceOnUse">
<stop offset="0.416667" stop-color="white" stop-opacity="0"/>
<stop offset="1" stop-color="white"/>
</linearGradient>
<linearGradient id="paint16_linear_1963_3290" x1="500" y1="0" x2="500" y2="24.1667" gradientUnits="userSpaceOnUse">
<stop offset="0.416667" stop-color="white" stop-opacity="0"/>
<stop offset="1" stop-color="white"/>
</linearGradient>
<linearGradient id="paint17_linear_1963_3290" x1="500" y1="0" x2="500" y2="24.1667" gradientUnits="userSpaceOnUse">
<stop offset="0.416667" stop-color="white" stop-opacity="0"/>
<stop offset="1" stop-color="white"/>
</linearGradient>
<linearGradient id="paint18_linear_1963_3290" x1="500" y1="0" x2="500" y2="24.1667" gradientUnits="userSpaceOnUse">
<stop offset="0.416667" stop-color="white" stop-opacity="0"/>
<stop offset="1" stop-color="white"/>
</linearGradient>
<linearGradient id="paint19_linear_1963_3290" x1="500" y1="0" x2="500" y2="24.1667" gradientUnits="userSpaceOnUse">
<stop offset="0.416667" stop-color="white" stop-opacity="0"/>
<stop offset="1" stop-color="white"/>
</linearGradient>
<linearGradient id="paint20_linear_1963_3290" x1="500" y1="0" x2="500" y2="24.1667" gradientUnits="userSpaceOnUse">
<stop offset="0.416667" stop-color="white" stop-opacity="0"/>
<stop offset="1" stop-color="white"/>
</linearGradient>
<linearGradient id="paint21_linear_1963_3290" x1="500" y1="0" x2="500" y2="24.1667" gradientUnits="userSpaceOnUse">
<stop offset="0.416667" stop-color="white" stop-opacity="0"/>
<stop offset="1" stop-color="white"/>
</linearGradient>
<linearGradient id="paint22_linear_1963_3290" x1="500" y1="0" x2="500" y2="24.1667" gradientUnits="userSpaceOnUse">
<stop offset="0.416667" stop-color="white" stop-opacity="0"/>
<stop offset="1" stop-color="white"/>
</linearGradient>
<linearGradient id="paint23_linear_1963_3290" x1="500" y1="0" x2="500" y2="24.1667" gradientUnits="userSpaceOnUse">
<stop offset="0.416667" stop-color="white" stop-opacity="0"/>
<stop offset="1" stop-color="white"/>
</linearGradient>
</defs>
</svg>
