<svg width="26" height="35" viewBox="0 0 26 35" fill="none" xmlns="http://www.w3.org/2000/svg">
<path d="M13 33C12.8427 33 12.6853 32.944 12.5587 32.8333C12.0867 32.416 1 22.5253 1 13C1 6.38267 6.384 1 13 1C19.616 1 25 6.38267 25 13C25 22.5253 13.9133 32.416 13.4413 32.8333C13.3147 32.944 13.1573 33 13 33ZM13 2.33333C7.11867 2.33333 2.33333 7.11867 2.33333 13C2.33333 20.8907 10.9347 29.4773 13 31.4253C15.0653 29.4773 23.6667 20.8907 23.6667 13C23.6667 7.11867 18.8813 2.33333 13 2.33333Z" fill="#1AB248" stroke="#1AB248" stroke-width="0.5"/>
<path d="M13.0002 19.6667C9.32416 19.6667 6.3335 16.676 6.3335 13C6.3335 9.32404 9.32416 6.33337 13.0002 6.33337C16.6762 6.33337 19.6668 9.32404 19.6668 13C19.6668 16.676 16.6762 19.6667 13.0002 19.6667ZM13.0002 7.66671C10.0588 7.66671 7.66683 10.0587 7.66683 13C7.66683 15.9414 10.0588 18.3334 13.0002 18.3334C15.9415 18.3334 18.3335 15.9414 18.3335 13C18.3335 10.0587 15.9415 7.66671 13.0002 7.66671Z" fill="#1AB248" stroke="#1AB248" stroke-width="0.5"/>
</svg>
