<svg width="1920" height="80" viewBox="0 0 1920 80" fill="none" xmlns="http://www.w3.org/2000/svg">
<g opacity="0.2">
<path d="M-190.617 0H-140L-189.383 80H-240L-190.617 0Z" fill="url(#paint0_linear_1917_8041)"/>
<path d="M-90.6173 0H-40L-89.3827 80H-140L-90.6173 0Z" fill="url(#paint1_linear_1917_8041)"/>
<path d="M9.38272 0H60L10.6173 80H-40L9.38272 0Z" fill="url(#paint2_linear_1917_8041)"/>
<path d="M109.383 0H160L110.617 80H60L109.383 0Z" fill="url(#paint3_linear_1917_8041)"/>
<path d="M209.383 0H260L210.617 80H160L209.383 0Z" fill="url(#paint4_linear_1917_8041)"/>
<path d="M309.383 0H360L310.617 80H260L309.383 0Z" fill="url(#paint5_linear_1917_8041)"/>
<path d="M409.383 0H460L410.617 80H360L409.383 0Z" fill="url(#paint6_linear_1917_8041)"/>
<path d="M509.383 0H560L510.617 80H460L509.383 0Z" fill="url(#paint7_linear_1917_8041)"/>
<path d="M609.383 0H660L610.617 80H560L609.383 0Z" fill="url(#paint8_linear_1917_8041)"/>
<path d="M709.383 0H760L710.617 80H660L709.383 0Z" fill="url(#paint9_linear_1917_8041)"/>
<path d="M809.383 0H860L810.617 80H760L809.383 0Z" fill="url(#paint10_linear_1917_8041)"/>
<path d="M909.383 0H960L910.617 80H860L909.383 0Z" fill="url(#paint11_linear_1917_8041)"/>
<path d="M1009.38 0H1060L1010.62 80H960L1009.38 0Z" fill="url(#paint12_linear_1917_8041)"/>
<path d="M1109.38 0H1160L1110.62 80H1060L1109.38 0Z" fill="url(#paint13_linear_1917_8041)"/>
<path d="M1209.38 0H1260L1210.62 80H1160L1209.38 0Z" fill="url(#paint14_linear_1917_8041)"/>
<path d="M1309.38 0H1360L1310.62 80H1260L1309.38 0Z" fill="url(#paint15_linear_1917_8041)"/>
<path d="M1409.38 0H1460L1410.62 80H1360L1409.38 0Z" fill="url(#paint16_linear_1917_8041)"/>
<path d="M1509.38 0H1560L1510.62 80H1460L1509.38 0Z" fill="url(#paint17_linear_1917_8041)"/>
<path d="M1609.38 0H1660L1610.62 80H1560L1609.38 0Z" fill="url(#paint18_linear_1917_8041)"/>
<path d="M1709.38 0H1760L1710.62 80H1660L1709.38 0Z" fill="url(#paint19_linear_1917_8041)"/>
<path d="M1809.38 0H1860L1810.62 80H1760L1809.38 0Z" fill="url(#paint20_linear_1917_8041)"/>
<path d="M1909.38 0H1960L1910.62 80H1860L1909.38 0Z" fill="url(#paint21_linear_1917_8041)"/>
<path d="M2009.38 0H2060L2010.62 80H1960L2009.38 0Z" fill="url(#paint22_linear_1917_8041)"/>
<path d="M2109.38 0H2160L2110.62 80H2060L2109.38 0Z" fill="url(#paint23_linear_1917_8041)"/>
</g>
<defs>
<linearGradient id="paint0_linear_1917_8041" x1="960" y1="0" x2="960" y2="80" gradientUnits="userSpaceOnUse">
<stop offset="0.416667" stop-color="white" stop-opacity="0"/>
<stop offset="1" stop-color="white"/>
</linearGradient>
<linearGradient id="paint1_linear_1917_8041" x1="960" y1="0" x2="960" y2="80" gradientUnits="userSpaceOnUse">
<stop offset="0.416667" stop-color="white" stop-opacity="0"/>
<stop offset="1" stop-color="white"/>
</linearGradient>
<linearGradient id="paint2_linear_1917_8041" x1="960" y1="0" x2="960" y2="80" gradientUnits="userSpaceOnUse">
<stop offset="0.416667" stop-color="white" stop-opacity="0"/>
<stop offset="1" stop-color="white"/>
</linearGradient>
<linearGradient id="paint3_linear_1917_8041" x1="960" y1="0" x2="960" y2="80" gradientUnits="userSpaceOnUse">
<stop offset="0.416667" stop-color="white" stop-opacity="0"/>
<stop offset="1" stop-color="white"/>
</linearGradient>
<linearGradient id="paint4_linear_1917_8041" x1="960" y1="0" x2="960" y2="80" gradientUnits="userSpaceOnUse">
<stop offset="0.416667" stop-color="white" stop-opacity="0"/>
<stop offset="1" stop-color="white"/>
</linearGradient>
<linearGradient id="paint5_linear_1917_8041" x1="960" y1="0" x2="960" y2="80" gradientUnits="userSpaceOnUse">
<stop offset="0.416667" stop-color="white" stop-opacity="0"/>
<stop offset="1" stop-color="white"/>
</linearGradient>
<linearGradient id="paint6_linear_1917_8041" x1="960" y1="0" x2="960" y2="80" gradientUnits="userSpaceOnUse">
<stop offset="0.416667" stop-color="white" stop-opacity="0"/>
<stop offset="1" stop-color="white"/>
</linearGradient>
<linearGradient id="paint7_linear_1917_8041" x1="960" y1="0" x2="960" y2="80" gradientUnits="userSpaceOnUse">
<stop offset="0.416667" stop-color="white" stop-opacity="0"/>
<stop offset="1" stop-color="white"/>
</linearGradient>
<linearGradient id="paint8_linear_1917_8041" x1="960" y1="0" x2="960" y2="80" gradientUnits="userSpaceOnUse">
<stop offset="0.416667" stop-color="white" stop-opacity="0"/>
<stop offset="1" stop-color="white"/>
</linearGradient>
<linearGradient id="paint9_linear_1917_8041" x1="960" y1="0" x2="960" y2="80" gradientUnits="userSpaceOnUse">
<stop offset="0.416667" stop-color="white" stop-opacity="0"/>
<stop offset="1" stop-color="white"/>
</linearGradient>
<linearGradient id="paint10_linear_1917_8041" x1="960" y1="0" x2="960" y2="80" gradientUnits="userSpaceOnUse">
<stop offset="0.416667" stop-color="white" stop-opacity="0"/>
<stop offset="1" stop-color="white"/>
</linearGradient>
<linearGradient id="paint11_linear_1917_8041" x1="960" y1="0" x2="960" y2="80" gradientUnits="userSpaceOnUse">
<stop offset="0.416667" stop-color="white" stop-opacity="0"/>
<stop offset="1" stop-color="white"/>
</linearGradient>
<linearGradient id="paint12_linear_1917_8041" x1="960" y1="0" x2="960" y2="80" gradientUnits="userSpaceOnUse">
<stop offset="0.416667" stop-color="white" stop-opacity="0"/>
<stop offset="1" stop-color="white"/>
</linearGradient>
<linearGradient id="paint13_linear_1917_8041" x1="960" y1="0" x2="960" y2="80" gradientUnits="userSpaceOnUse">
<stop offset="0.416667" stop-color="white" stop-opacity="0"/>
<stop offset="1" stop-color="white"/>
</linearGradient>
<linearGradient id="paint14_linear_1917_8041" x1="960" y1="0" x2="960" y2="80" gradientUnits="userSpaceOnUse">
<stop offset="0.416667" stop-color="white" stop-opacity="0"/>
<stop offset="1" stop-color="white"/>
</linearGradient>
<linearGradient id="paint15_linear_1917_8041" x1="960" y1="0" x2="960" y2="80" gradientUnits="userSpaceOnUse">
<stop offset="0.416667" stop-color="white" stop-opacity="0"/>
<stop offset="1" stop-color="white"/>
</linearGradient>
<linearGradient id="paint16_linear_1917_8041" x1="960" y1="0" x2="960" y2="80" gradientUnits="userSpaceOnUse">
<stop offset="0.416667" stop-color="white" stop-opacity="0"/>
<stop offset="1" stop-color="white"/>
</linearGradient>
<linearGradient id="paint17_linear_1917_8041" x1="960" y1="0" x2="960" y2="80" gradientUnits="userSpaceOnUse">
<stop offset="0.416667" stop-color="white" stop-opacity="0"/>
<stop offset="1" stop-color="white"/>
</linearGradient>
<linearGradient id="paint18_linear_1917_8041" x1="960" y1="0" x2="960" y2="80" gradientUnits="userSpaceOnUse">
<stop offset="0.416667" stop-color="white" stop-opacity="0"/>
<stop offset="1" stop-color="white"/>
</linearGradient>
<linearGradient id="paint19_linear_1917_8041" x1="960" y1="0" x2="960" y2="80" gradientUnits="userSpaceOnUse">
<stop offset="0.416667" stop-color="white" stop-opacity="0"/>
<stop offset="1" stop-color="white"/>
</linearGradient>
<linearGradient id="paint20_linear_1917_8041" x1="960" y1="0" x2="960" y2="80" gradientUnits="userSpaceOnUse">
<stop offset="0.416667" stop-color="white" stop-opacity="0"/>
<stop offset="1" stop-color="white"/>
</linearGradient>
<linearGradient id="paint21_linear_1917_8041" x1="960" y1="0" x2="960" y2="80" gradientUnits="userSpaceOnUse">
<stop offset="0.416667" stop-color="white" stop-opacity="0"/>
<stop offset="1" stop-color="white"/>
</linearGradient>
<linearGradient id="paint22_linear_1917_8041" x1="960" y1="0" x2="960" y2="80" gradientUnits="userSpaceOnUse">
<stop offset="0.416667" stop-color="white" stop-opacity="0"/>
<stop offset="1" stop-color="white"/>
</linearGradient>
<linearGradient id="paint23_linear_1917_8041" x1="960" y1="0" x2="960" y2="80" gradientUnits="userSpaceOnUse">
<stop offset="0.416667" stop-color="white" stop-opacity="0"/>
<stop offset="1" stop-color="white"/>
</linearGradient>
</defs>
</svg>
