<svg width="23" height="24" viewBox="0 0 23 24" fill="none" xmlns="http://www.w3.org/2000/svg">
<path d="M21.8496 10.6967C21.7769 10.2498 21.3485 9.94531 20.8928 10.0166C20.4371 10.0879 20.1267 10.5081 20.1994 10.955C20.2002 10.9599 20.201 10.9647 20.2019 10.9696C21.0528 15.8821 17.6822 20.5409 12.6735 21.3754C7.66477 22.2099 2.91471 18.9041 2.06386 13.9916C1.21301 9.07907 4.58365 4.42023 9.5923 3.58572C12.6725 3.07254 15.8078 4.12782 17.9176 6.38795L14.2164 7.59746C13.7785 7.74035 13.5417 8.20428 13.6873 8.63373C13.6874 8.63382 13.6874 8.63397 13.6875 8.63406C13.8332 9.06351 14.3062 9.29576 14.744 9.15292C14.7442 9.15287 14.7443 9.15282 14.7444 9.15282L19.7574 7.51391C20.0988 7.40242 20.329 7.08912 20.3289 6.73625V1.81948C20.3289 1.36689 19.9549 1 19.4934 1C19.032 1 18.6579 1.36689 18.6579 1.81948V4.81295C14.3551 0.799056 7.54933 0.966293 3.45684 5.18646C-0.635651 9.40663 -0.465188 16.0817 3.83767 20.0956C8.14052 24.1096 14.9462 23.9423 19.0388 19.7221C21.3724 17.3156 22.4139 13.9715 21.8496 10.6967Z" fill="#1AB248" stroke="#1AB248" stroke-width="0.2"/>
</svg>
