<svg width="28" height="26" viewBox="0 0 28 26" fill="none" xmlns="http://www.w3.org/2000/svg">
<path d="M3.70837 4.25012C4.00753 4.25012 4.25005 4.0076 4.25005 3.70843C4.25005 3.40927 4.00753 3.16675 3.70837 3.16675C3.40921 3.16675 3.16669 3.40927 3.16669 3.70843C3.16669 4.0076 3.40921 4.25012 3.70837 4.25012Z" fill="#1AB248" stroke="#1AB248" stroke-width="0.4"/>
<path d="M5.875 4.25012C6.17416 4.25012 6.41668 4.0076 6.41668 3.70843C6.41668 3.40927 6.17416 3.16675 5.875 3.16675C5.57583 3.16675 5.33331 3.40927 5.33331 3.70843C5.33331 4.0076 5.57583 4.25012 5.875 4.25012Z" fill="#1AB248" stroke="#1AB248" stroke-width="0.4"/>
<path d="M8.04168 4.25012C8.34085 4.25012 8.58337 4.0076 8.58337 3.70843C8.58337 3.40927 8.34085 3.16675 8.04168 3.16675C7.74252 3.16675 7.5 3.40927 7.5 3.70843C7.5 4.0076 7.74252 4.25012 8.04168 4.25012Z" fill="#1AB248" stroke="#1AB248" stroke-width="0.4"/>
<path d="M5.95868 11.8334H17.8754C18.1748 11.8334 18.417 11.5911 18.417 11.2917C18.417 10.9923 18.1748 10.75 17.8754 10.75H5.95868C5.65927 10.75 5.41699 10.9923 5.41699 11.2917C5.41699 11.5911 5.65932 11.8334 5.95868 11.8334Z" fill="#1AB248" stroke="#1AB248" stroke-width="0.4"/>
<path d="M12.4587 17.25H5.95868C5.65927 17.25 5.41699 17.4923 5.41699 17.7917C5.41699 18.0911 5.65927 18.3334 5.95868 18.3334H12.4587C12.7581 18.3334 13.0004 18.0911 13.0004 17.7917C13.0004 17.4923 12.7581 17.25 12.4587 17.25Z" fill="#1AB248" stroke="#1AB248" stroke-width="0.4"/>
<path d="M12.4587 14H5.95868C5.65927 14 5.41699 14.2423 5.41699 14.5417C5.41699 14.8411 5.65927 15.0834 5.95868 15.0834H12.4587C12.7581 15.0834 13.0004 14.8411 13.0004 14.5417C13.0004 14.2423 12.7581 14 12.4587 14Z" fill="#1AB248" stroke="#1AB248" stroke-width="0.4"/>
<path d="M24.9264 7.5C24.8951 7.5 24.8646 7.50787 24.8334 7.50934V3.16668C24.8334 1.97175 23.8611 1 22.6667 1H3.16668C1.97226 1 1 1.97175 1 3.16668V22.6667C1 23.8616 1.97226 24.8334 3.16668 24.8334H22.6667C23.8611 24.8334 24.8334 23.8617 24.8334 22.6667V12.599L26.3928 11.0399C26.7789 10.6538 27 10.119 27 9.5736C27 8.42996 26.0701 7.5 24.9264 7.5ZM2.08332 3.16668C2.08332 2.5695 2.56894 2.08337 3.16663 2.08337H22.6666C23.2644 2.08337 23.75 2.5695 23.75 3.16668V5.33337H2.08332V3.16668ZM23.75 22.6667C23.75 23.2639 23.2644 23.75 22.6667 23.75H3.16668C2.56894 23.75 2.08337 23.2639 2.08337 22.6667V6.41668H23.75V7.87004C23.6472 7.94073 23.5488 8.01848 23.4601 8.10729L17.5665 14.0001L16.6974 15.0834L16.1772 17.6854C16.1413 17.8632 16.1974 18.0468 16.3254 18.1747C16.428 18.2774 16.5666 18.3334 16.7084 18.3334C16.7433 18.3334 16.7793 18.3297 16.8141 18.3229L19.5214 17.7812C19.6272 17.76 19.7235 17.7087 19.7986 17.633L23.75 13.6823V22.6667ZM19.149 16.7512L17.3992 17.1014L17.7494 15.3494L22.6664 10.4324L24.0673 11.8333L19.149 16.7512ZM25.6268 10.2739L24.8333 11.0674L23.4323 9.66638L24.226 8.87267C24.4101 8.68909 24.6651 8.58332 24.9264 8.58332C25.4723 8.58332 25.9166 9.02765 25.9166 9.57355C25.9167 9.83386 25.8109 10.0893 25.6268 10.2739Z" fill="#1AB248" stroke="#1AB248" stroke-width="0.4"/>
</svg>
