<svg width="459" height="126" viewBox="0 0 459 126" fill="none" xmlns="http://www.w3.org/2000/svg">
<mask id="mask0" mask-type="alpha" maskUnits="userSpaceOnUse" x="0" y="0" width="459" height="126">
<rect width="459" height="126" fill="#C4C4C4"/>
</mask>
<g mask="url(#mask0)">
<path fill-rule="evenodd" clip-rule="evenodd" d="M-50.1459 169.846L-33.4522 167.606C-16.4434 165.324 16.9442 160.844 48.9836 143.928C81.0231 127.012 110.997 97.0923 146.45 105.615C181.816 113.486 221.943 159.232 253.895 141.664C285.935 124.748 309.256 45.2548 339.633 15.9454C369.921 -14.0162 406.723 6.94257 442.088 14.8134C477.454 22.6843 510.841 18.204 527.85 15.9216L544.544 13.6814L569.753 201.539L553.059 203.78C536.05 206.062 502.663 210.542 468.96 215.065C435.257 219.587 401.87 224.068 368.167 228.59C334.465 233.113 301.077 237.593 267.375 242.115C233.672 246.638 200.285 251.118 166.582 255.641C132.88 260.163 99.492 264.644 65.7894 269.166C32.0869 273.689 -1.30069 278.169 -18.3094 280.451L-35.0032 282.692L-50.1459 169.846Z" fill="#2ACC5B"/>
<path fill-rule="evenodd" clip-rule="evenodd" d="M-53.0215 129.913H-36.1553C-18.971 129.913 14.7613 129.913 48.8119 117.383C82.8624 104.853 116.595 79.1338 150.645 92.3231C184.696 104.853 218.428 155.632 252.479 142.442C286.529 129.913 320.261 54.0742 354.312 29.0145C388.362 3.29537 422.095 29.0145 456.145 41.5443C490.196 54.0742 523.928 54.0742 541.112 54.0742H557.979V244H541.112C523.928 244 490.196 244 456.145 244C422.095 244 388.362 244 354.312 244C320.261 244 286.529 244 252.479 244C218.428 244 184.696 244 150.645 244C116.595 244 82.8624 244 48.8119 244C14.7613 244 -18.971 244 -36.1553 244H-53.0215L-53.0215 129.913Z" fill="#1AB248"/>
</g>
</svg>
