<svg width="1920" height="420" viewBox="0 0 1920 420" fill="none" xmlns="http://www.w3.org/2000/svg">
<mask id="mask0" mask-type="alpha" maskUnits="userSpaceOnUse" x="1563" y="226" width="357" height="194">
<rect x="1563" y="226" width="357" height="194" fill="#C4C4C4"/>
</mask>
<g mask="url(#mask0)">
<path fill-rule="evenodd" clip-rule="evenodd" d="M897.192 570.494L929.374 566.176C962.163 561.776 1026.53 553.139 1088.29 520.528C1150.06 487.918 1207.84 430.24 1276.19 446.671C1344.36 461.844 1421.72 550.032 1483.32 516.164C1545.08 483.554 1590.04 330.308 1648.6 273.806C1706.99 216.046 1777.94 256.45 1846.11 271.624C1914.29 286.797 1978.66 278.16 2011.45 273.76L2043.63 269.442L2092.22 631.592L2060.04 635.91C2027.25 640.31 1962.89 648.947 1897.92 657.666C1832.95 666.384 1768.58 675.021 1703.61 683.74C1638.64 692.458 1574.28 701.095 1509.3 709.814C1444.33 718.532 1379.97 727.169 1315 735.888C1250.03 744.606 1185.66 753.243 1120.69 761.962C1055.72 770.68 991.355 779.317 958.566 783.717L926.384 788.036L897.192 570.494Z" fill="#2ACC5B"/>
<path fill-rule="evenodd" clip-rule="evenodd" d="M892.246 492.254H924.717C957.8 492.254 1022.74 492.254 1088.29 468.148C1153.85 444.042 1218.79 394.561 1284.34 419.936C1349.9 444.042 1414.84 541.734 1480.39 516.36C1545.94 492.254 1610.89 346.349 1676.44 298.137C1741.99 248.656 1806.93 298.137 1872.49 322.243C1938.04 346.349 2002.98 346.349 2036.07 346.349H2068.54V711.745H2036.07C2002.98 711.745 1938.04 711.745 1872.49 711.745C1806.93 711.745 1741.99 711.745 1676.44 711.745C1610.89 711.745 1545.94 711.745 1480.39 711.745C1414.84 711.745 1349.9 711.745 1284.34 711.745C1218.79 711.745 1153.85 711.745 1088.29 711.745C1022.74 711.745 957.8 711.745 924.717 711.745H892.246V492.254Z" fill="#1AB248"/>
</g>
<mask id="mask1" mask-type="alpha" maskUnits="userSpaceOnUse" x="517" y="280" width="539" height="113">
<rect x="517" y="280" width="539" height="113" fill="#C4C4C4"/>
</mask>
<g mask="url(#mask1)">
<path fill-rule="evenodd" clip-rule="evenodd" d="M1398.29 437.651L1340.42 437.651C1281.46 437.651 1165.73 437.651 1048.91 389.546C932.082 341.442 816.349 242.703 699.525 293.338C582.7 341.442 466.968 536.39 350.144 485.754C233.319 437.65 117.587 146.495 0.762531 50.2865C-116.062 -48.4533 -231.794 50.2865 -348.619 98.3905C-465.443 146.495 -581.175 146.494 -640.134 146.494L-698 146.494L-698 875.65L-640.134 875.65C-581.175 875.65 -465.443 875.65 -348.619 875.65C-231.794 875.65 -116.062 875.65 0.762459 875.65C117.587 875.65 233.319 875.65 350.144 875.65C466.968 875.65 582.7 875.65 699.525 875.65C816.349 875.65 932.082 875.65 1048.91 875.65C1165.73 875.65 1281.46 875.65 1340.42 875.65L1398.29 875.65L1398.29 437.651Z" fill="#1AB248"/>
</g>
<mask id="mask2" mask-type="alpha" maskUnits="userSpaceOnUse" x="0" y="0" width="251" height="393">
<rect width="251" height="393" fill="#C4C4C4"/>
</mask>
<g mask="url(#mask2)">
<path fill-rule="evenodd" clip-rule="evenodd" d="M1398.29 437.651L1340.42 437.651C1281.46 437.651 1165.73 437.651 1048.91 389.546C932.082 341.442 816.349 242.703 699.525 293.338C582.7 341.442 466.968 536.39 350.144 485.754C233.319 437.65 117.587 146.495 0.762531 50.2865C-116.062 -48.4533 -231.794 50.2865 -348.619 98.3905C-465.443 146.495 -581.175 146.494 -640.134 146.494L-698 146.494L-698 875.65L-640.134 875.65C-581.175 875.65 -465.443 875.65 -348.619 875.65C-231.794 875.65 -116.062 875.65 0.762459 875.65C117.587 875.65 233.319 875.65 350.144 875.65C466.968 875.65 582.7 875.65 699.525 875.65C816.349 875.65 932.082 875.65 1048.91 875.65C1165.73 875.65 1281.46 875.65 1340.42 875.65L1398.29 875.65L1398.29 437.651Z" fill="#1AB248"/>
</g>
</svg>
