<svg width="35" height="33" viewBox="0 0 35 33" fill="none" xmlns="http://www.w3.org/2000/svg">
<path d="M34.0992 32.4278H0.980325C0.83129 32.4278 0.690535 32.3637 0.592213 32.2519C0.493892 32.1412 0.448353 31.9921 0.466983 31.8441L3.14961 10.796C3.18273 10.5383 3.40318 10.3438 3.66296 10.3438H31.4166C31.6764 10.3438 31.8968 10.5383 31.9299 10.796L34.6126 31.8441C34.6312 31.9921 34.5857 32.1401 34.4873 32.2519C34.389 32.3647 34.2483 32.4278 34.0992 32.4278ZM1.56819 31.3929H33.5114L30.9612 11.3797H4.11834L1.56819 31.3929Z" fill="white" stroke="white" stroke-width="0.5"/>
<path d="M17.5392 11.3792C14.6651 11.3792 12.3271 9.0412 12.3271 6.16814C12.3271 3.29404 14.6651 0.956055 17.5392 0.956055C20.4133 0.956055 22.7513 3.29404 22.7513 6.16814C22.7513 9.0412 20.4133 11.3792 17.5392 11.3792ZM17.5392 1.99102C15.2364 1.99102 13.3621 3.86534 13.3621 6.16814C13.3621 8.47094 15.2364 10.3442 17.5392 10.3442C19.842 10.3442 21.7164 8.4699 21.7164 6.16814C21.7164 3.86534 19.842 1.99102 17.5392 1.99102Z" fill="white" stroke="white" stroke-width="0.5"/>
<path d="M15.55 19.1911C15.0646 19.9838 14.4125 20.5458 13.774 20.8015C13.6849 20.8398 13.6715 20.9163 13.774 20.9546C14.515 21.2744 15.1411 21.8861 15.639 22.7037L17.2359 25.3232C17.3001 25.4122 17.2494 25.4888 17.1335 25.4888H15.8429C15.7663 25.4888 15.7156 25.464 15.6638 25.3998L14.3991 23.3547C13.7988 22.3446 12.917 21.5404 11.971 21.5404H11.6771V25.3481C11.6771 25.4371 11.6264 25.4888 11.5364 25.4888H10.3751C10.2861 25.4888 10.2344 25.4371 10.2344 25.3481V16.6989C10.2344 16.6099 10.2861 16.5581 10.3751 16.5581H11.5384C11.6274 16.5581 11.6792 16.6099 11.6792 16.6989V20.2633H11.9597C12.8797 20.2633 13.7481 19.4974 14.3101 18.5763L15.4982 16.6481C15.5489 16.5829 15.6007 16.5581 15.6773 16.5581H16.9544C17.0569 16.5581 17.1076 16.6347 17.0434 16.7247L15.55 19.1911Z" fill="white"/>
<path d="M25.0009 24.7747C25.0009 24.8647 24.9626 24.9154 24.886 24.9403L24.3375 25.1193L23.7114 25.3367C23.0345 25.554 22.5998 25.6306 21.8329 25.6306C19.3935 25.6306 17.9238 23.8546 17.9238 21.0312C17.9238 18.2078 19.3935 16.4329 21.8329 16.4329C22.5481 16.4329 23.0345 16.5219 23.7114 16.7392L24.2992 16.9431C24.3882 16.9814 24.4265 17.0466 24.3882 17.1221L24.0312 18.0805C23.9929 18.1706 23.9287 18.1954 23.8521 18.1706L23.2901 17.9781C22.7923 17.8125 22.4083 17.7483 21.8339 17.7483C20.3011 17.7483 19.3945 18.9747 19.3945 21.0312C19.3945 23.0887 20.3011 24.3017 21.8339 24.3017C22.3711 24.3017 22.7923 24.251 23.2518 24.0978L23.6099 23.9829V22.0538H22.0627C21.9602 22.0538 21.9095 21.9886 21.9343 21.9006L22.2158 20.8791C22.2417 20.8025 22.2924 20.7642 22.3825 20.7642H24.8612C24.9502 20.7642 25.002 20.8159 25.002 20.9049V24.7747H25.0009Z" fill="white"/>
</svg>
