<svg width="105" height="60" viewBox="0 0 105 60" fill="none" xmlns="http://www.w3.org/2000/svg">
<path d="M52.3447 0C39.6624 0 29.3447 10.4068 29.3447 23.1984C29.3447 27.6083 30.5344 32.2869 32.8812 37.1043C34.7382 40.9167 37.322 44.8279 40.5605 48.7294C46.055 55.3483 51.4653 59.5977 51.693 59.7755C51.8851 59.9254 52.1148 60 52.3447 60C52.5746 60 52.8045 59.9251 52.9964 59.7755C53.224 59.5977 58.6343 55.3483 64.1289 48.7294C67.3676 44.8279 69.9514 40.9167 71.8082 37.1043C74.155 32.2868 75.3447 27.6083 75.3447 23.1984C75.3447 10.4068 65.027 0 52.3447 0ZM52.3447 14.3741C57.1765 14.3741 61.0935 18.3249 61.0935 23.1984C61.0935 28.0719 57.1765 32.0227 52.3447 32.0227C47.5129 32.0227 43.5959 28.0719 43.5959 23.1984C43.5959 18.3249 47.5129 14.3741 52.3447 14.3741Z" fill="white"/>
<path d="M13.3447 26C6.17647 26 0.344727 31.8972 0.344727 39.1458C0.344727 41.6447 1.01717 44.2959 2.34363 47.0258C3.3932 49.1861 4.85363 51.4025 6.6841 53.6133C9.78966 57.364 12.8476 59.772 12.9764 59.8728C13.0849 59.9577 13.2148 60 13.3447 60C13.4747 60 13.6046 59.9576 13.7131 59.8728C13.8417 59.772 16.8997 57.364 20.0054 53.6133C21.8359 51.4025 23.2963 49.1861 24.3458 47.0258C25.6723 44.2958 26.3447 41.6447 26.3447 39.1458C26.3447 31.8972 20.513 26 13.3447 26ZM13.3447 34.1453C16.0757 34.1453 18.2897 36.3841 18.2897 39.1458C18.2897 41.9074 16.0757 44.1462 13.3447 44.1462C10.6137 44.1462 8.39976 41.9074 8.39976 39.1458C8.39976 36.3841 10.6137 34.1453 13.3447 34.1453Z" fill="white"/>
<path d="M2.79336 46.8073L2.79335 46.8073C1.493 44.1311 0.844727 41.5545 0.844727 39.1458C0.844727 32.168 6.45785 26.5 13.3447 26.5C20.2316 26.5 25.8447 32.168 25.8447 39.1458C25.8447 41.5545 25.1965 44.1311 23.8961 46.8073L23.8961 46.8073C22.8671 48.9255 21.4301 51.1086 19.6202 53.2944C16.5501 57.0023 13.5262 59.384 13.4052 59.4789C13.3866 59.4933 13.3657 59.5 13.3447 59.5C13.3235 59.5 13.3028 59.4934 13.2846 59.4791C13.1699 59.3893 10.1427 57.0064 7.06923 53.2944C5.25944 51.1086 3.82248 48.9255 2.79336 46.8073ZM18.7897 39.1458C18.7897 36.1133 16.3571 33.6453 13.3447 33.6453C10.3323 33.6453 7.89976 36.1133 7.89976 39.1458C7.89976 42.1783 10.3323 44.6462 13.3447 44.6462C16.3571 44.6462 18.7897 42.1783 18.7897 39.1458Z" stroke="white" stroke-opacity="0.5"/>
<path d="M91.3447 26C84.1765 26 78.3447 31.8972 78.3447 39.1458C78.3447 41.6447 79.0172 44.2959 80.3436 47.0258C81.3932 49.1861 82.8536 51.4025 84.6841 53.6133C87.7897 57.364 90.8476 59.772 90.9764 59.8728C91.0849 59.9577 91.2148 60 91.3447 60C91.4747 60 91.6046 59.9576 91.7131 59.8728C91.8417 59.772 94.8997 57.364 98.0054 53.6133C99.8359 51.4025 101.296 49.1861 102.346 47.0258C103.672 44.2958 104.345 41.6447 104.345 39.1458C104.345 31.8972 98.513 26 91.3447 26ZM91.3447 34.1453C94.0757 34.1453 96.2897 36.3841 96.2897 39.1458C96.2897 41.9074 94.0757 44.1462 91.3447 44.1462C88.6137 44.1462 86.3998 41.9074 86.3998 39.1458C86.3998 36.3841 88.6137 34.1453 91.3447 34.1453Z" fill="white"/>
<path d="M80.7934 46.8073L80.7934 46.8073C79.493 44.1311 78.8447 41.5545 78.8447 39.1458C78.8447 32.168 84.4578 26.5 91.3447 26.5C98.2316 26.5 103.845 32.168 103.845 39.1458C103.845 41.5545 103.196 44.1311 101.896 46.8073L101.896 46.8073C100.867 48.9255 99.4301 51.1086 97.6202 53.2944C94.5501 57.0023 91.5262 59.384 91.4052 59.4789C91.3866 59.4933 91.3657 59.5 91.3447 59.5C91.3235 59.5 91.3028 59.4934 91.2846 59.4791C91.1699 59.3893 88.1427 57.0064 85.0692 53.2944C83.2594 51.1086 81.8225 48.9255 80.7934 46.8073ZM96.7897 39.1458C96.7897 36.1133 94.3571 33.6453 91.3447 33.6453C88.3323 33.6453 85.8998 36.1133 85.8998 39.1458C85.8998 42.1783 88.3323 44.6462 91.3447 44.6462C94.3571 44.6462 96.7897 42.1783 96.7897 39.1458Z" stroke="white" stroke-opacity="0.5"/>
</svg>
