<svg width="44" height="44" viewBox="0 0 44 44" fill="none" xmlns="http://www.w3.org/2000/svg">
<circle cx="22" cy="22" r="22" fill="#F1F1F1"/>
<path d="M21.092 26.464C21.092 25.736 21.204 25.088 21.428 24.52C21.66 23.944 21.948 23.424 22.292 22.96C22.636 22.488 22.992 22.04 23.36 21.616C23.832 21.072 24.256 20.512 24.632 19.936C25.008 19.352 25.196 18.672 25.196 17.896C25.196 15.952 24.244 14.98 22.34 14.98C21.364 14.98 20.616 15.268 20.096 15.844C19.576 16.42 19.316 17.28 19.316 18.424H17C17 17.192 17.232 16.176 17.696 15.376C18.16 14.576 18.792 13.98 19.592 13.588C20.392 13.196 21.3 13 22.316 13C23.828 13 25.068 13.428 26.036 14.284C27.012 15.132 27.5 16.384 27.5 18.04C27.5 18.768 27.38 19.408 27.14 19.96C26.908 20.512 26.612 21.008 26.252 21.448C25.892 21.888 25.52 22.308 25.136 22.708C24.616 23.26 24.148 23.824 23.732 24.4C23.324 24.968 23.12 25.656 23.12 26.464H21.092ZM22.244 31.156C21.804 31.156 21.428 31.004 21.116 30.7C20.804 30.388 20.648 30.012 20.648 29.572C20.648 29.132 20.804 28.76 21.116 28.456C21.428 28.144 21.804 27.988 22.244 27.988C22.684 27.988 23.056 28.144 23.36 28.456C23.672 28.76 23.828 29.132 23.828 29.572C23.828 30.012 23.672 30.388 23.36 30.7C23.056 31.004 22.684 31.156 22.244 31.156Z" fill="black"/>
</svg>
