<svg width="1920" height="476" viewBox="0 0 1920 476" fill="none" xmlns="http://www.w3.org/2000/svg">
<mask id="mask0" mask-type="alpha" maskUnits="userSpaceOnUse" x="1691" y="4" width="229" height="472">
<rect x="1691" y="4" width="229" height="472" fill="#C4C4C4"/>
</mask>
<g mask="url(#mask0)">
<path fill-rule="evenodd" clip-rule="evenodd" d="M1699.17 903.755L1676.95 877.707C1654.73 851.659 1610.29 799.563 1627.15 763.891C1644.01 728.219 1722.16 708.971 1752.64 676.949C1783.12 644.927 1765.92 600.13 1741.92 553.509C1717.91 506.887 1687.09 458.441 1697.14 420.944C1707.19 383.447 1758.1 356.9 1788.58 324.878C1819.06 292.856 1829.11 255.359 1832.34 216.037C1835.58 176.715 1832.01 135.568 1855.67 101.721C1879.34 67.8742 1930.25 41.3269 1987.98 16.6045C2045.7 -8.11794 2110.23 -31.0154 2133.9 -64.8625C2157.57 -98.7095 2140.37 -143.506 2131.78 -165.904L2123.18 -188.303L2204.91 -166.404L2199.88 -147.655C2194.86 -128.907 2184.81 -91.4098 2174.76 -53.913C2164.72 -16.416 2154.67 21.0809 2144.62 58.5777C2134.58 96.0746 2124.53 133.572 2114.48 171.068C2104.43 208.565 2094.39 246.062 2084.34 283.559C2074.29 321.056 2064.24 358.553 2054.2 396.05C2044.15 433.547 2034.1 471.044 2024.06 508.54C2014.01 546.037 2003.96 583.534 1993.91 621.031C1983.87 658.528 1973.82 696.025 1963.77 733.522C1953.72 771.019 1943.68 808.516 1933.63 846.012C1923.58 883.509 1913.54 921.006 1908.51 939.755L1903.49 958.503L1699.17 903.755Z" fill="#1AB248"/>
</g>
<mask id="mask1" mask-type="alpha" maskUnits="userSpaceOnUse" x="-18" y="0" width="241" height="476">
<rect x="-18" width="241" height="476" fill="#C4C4C4"/>
</mask>
<g mask="url(#mask1)">
<path fill-rule="evenodd" clip-rule="evenodd" d="M185.035 703.984L207.259 683.66C229.483 663.337 273.931 622.69 261.096 594.621C248.262 566.551 178.145 551.059 152.581 525.784C127.017 500.509 146.006 465.453 171.36 428.998C196.713 392.544 228.431 354.692 221.962 325.225C215.492 295.758 170.834 274.676 145.27 249.401C119.706 224.127 113.236 194.66 113.131 163.795C113.026 132.931 119.285 100.669 100.086 73.9967C80.887 47.3245 36.2291 26.2422 -14.7935 6.55727C-65.816 -13.1276 -123.203 -31.4151 -142.403 -58.0873C-161.602 -84.7594 -142.613 -119.816 -133.118 -137.345L-123.624 -154.873L-200 -138.104L-196.765 -123.37C-193.53 -108.637 -187.06 -79.1696 -180.591 -49.7026C-174.121 -20.2356 -167.651 9.23146 -161.181 38.6984C-154.711 68.1655 -148.241 97.6325 -141.771 127.099C-135.302 156.567 -128.832 186.034 -122.362 215.501C-115.892 244.968 -109.422 274.435 -102.952 303.902C-96.4826 333.369 -90.0128 362.836 -83.5429 392.303C-77.0731 421.77 -70.6032 451.237 -64.1334 480.704C-57.6635 510.171 -51.1937 539.638 -44.7239 569.105C-38.254 598.572 -31.7842 628.039 -25.3143 657.506C-18.8445 686.973 -12.3746 716.44 -9.13972 731.173L-5.9048 745.907L185.035 703.984Z" fill="#F5F5F6"/>
<circle cx="186.341" cy="215.976" r="2.5" fill="#16B977"/>
<circle cx="186.341" cy="247.2" r="2.5" fill="#16B977"/>
<circle cx="186.341" cy="278.425" r="2.5" fill="#16B977"/>
<circle cx="186.341" cy="309.649" r="2.5" fill="#16B977"/>
<circle cx="153.814" cy="215.976" r="2.5" fill="#16B977"/>
<circle cx="153.814" cy="247.2" r="2.5" fill="#16B977"/>
<circle cx="153.814" cy="278.425" r="2.5" fill="#16B977"/>
<circle cx="153.814" cy="309.649" r="2.5" fill="#16B977"/>
<circle cx="121.289" cy="215.976" r="2.5" fill="#16B977"/>
<circle cx="121.289" cy="247.2" r="2.5" fill="#16B977"/>
<circle cx="121.289" cy="278.425" r="2.5" fill="#16B977"/>
<circle cx="121.289" cy="309.649" r="2.5" fill="#16B977"/>
<circle cx="88.7637" cy="215.976" r="2.5" fill="#16B977"/>
<circle cx="88.7637" cy="247.2" r="2.5" fill="#16B977"/>
<circle cx="88.7637" cy="278.425" r="2.5" fill="#16B977"/>
<circle cx="88.7637" cy="309.649" r="2.5" fill="#16B977"/>
</g>
</svg>
