<svg width="71" height="57" viewBox="0 0 71 57" fill="none" xmlns="http://www.w3.org/2000/svg">
<path d="M79.5118 51.7983L56.2723 28.5589C60.6802 23.1171 63.3335 16.199 63.3335 8.6668C63.3335 -8.79418 49.1276 -23 31.6666 -23C14.2057 -23 0 -8.79418 0 8.6668C0 26.1278 14.2058 40.3336 31.6668 40.3336C39.199 40.3336 46.1172 37.6802 51.5589 33.2725L74.7983 56.5119C75.4494 57.1627 76.5044 57.1627 77.1555 56.5119L79.5119 54.1553C80.1627 53.5044 80.1627 52.4491 79.5118 51.7983ZM31.6668 33.6669C17.881 33.6669 6.66674 22.4526 6.66674 8.6668C6.66674 -5.11902 17.881 -16.3333 31.6668 -16.3333C45.4526 -16.3333 56.6669 -5.11902 56.6669 8.6668C56.6669 22.4526 45.4526 33.6669 31.6668 33.6669Z" fill="#F2F2F2"/>
</svg>
