<svg width="230" height="1191" viewBox="0 0 230 1191" fill="none" xmlns="http://www.w3.org/2000/svg">
<path fill-rule="evenodd" clip-rule="evenodd" d="M233.762 1179.13L203.888 1162.41C174.015 1145.68 114.268 1112.23 117.71 1072.92C121.152 1033.62 187.782 988.462 205.266 947.857C222.749 907.252 191.087 871.199 152.403 835.795C113.719 800.391 68.0141 765.637 64.435 726.983C60.8558 688.329 99.4023 645.774 116.886 605.169C134.37 564.565 130.79 525.91 120.19 487.906C109.59 449.902 91.9693 412.548 102.432 372.593C112.895 332.639 151.441 290.084 197.009 246.879C242.576 203.674 295.164 159.819 305.627 119.864C316.09 79.91 284.427 43.8561 268.595 25.8291L252.764 7.80221L337.015 0.0010674L338.805 19.3282C340.594 38.6553 344.173 77.3096 347.753 115.964C351.332 154.618 354.911 193.273 358.49 231.927C362.069 270.581 365.648 309.235 369.227 347.89C372.807 386.544 376.386 425.198 379.965 463.853C383.544 502.507 387.123 541.161 390.702 579.815C394.282 618.47 397.861 657.124 401.44 695.778C405.019 734.433 408.598 773.087 412.177 811.741C415.756 850.395 419.336 889.05 422.915 927.704C426.494 966.358 430.073 1005.01 433.652 1043.67C437.231 1082.32 440.81 1120.98 442.6 1140.3L444.39 1159.63L233.762 1179.13Z" fill="#1AB248"/>
</svg>
