<svg width="45" height="49" viewBox="0 0 45 49" fill="none" xmlns="http://www.w3.org/2000/svg">
<path d="M7.24543 48.0167C4.00958 48.0167 1.35156 45.3587 1.35156 42.1228V14.7336H43.7643V42.1228C43.7643 45.3587 41.1063 48.0167 37.8704 48.0167H7.24543Z" fill="white"/>
<path d="M1.35156 14.7336V11.4977C1.35156 8.20408 4.00958 5.60385 7.30321 5.60385C7.361 5.60385 7.41878 5.60385 7.47656 5.60385H8.34331V7.27955C8.34331 8.1463 8.69001 8.95526 9.26784 9.47531C9.84566 9.99535 10.6546 10.3421 11.4058 10.3421C12.2148 10.3421 12.9659 9.99535 13.5438 9.41752C14.4683 8.55078 14.4683 7.85738 14.4683 6.41281V5.54606H30.6476V7.22177C30.6476 8.08852 30.9942 8.89748 31.6299 9.41752C32.2077 9.93757 33.0167 10.2843 33.7678 10.2843C34.5768 10.2843 35.328 9.93757 35.9058 9.35974C36.7725 8.493 36.8303 7.7996 36.8303 6.35503V5.48828H37.9282C41.1641 5.48828 43.8221 8.1463 43.8221 11.3821V14.618L1.35156 14.7336Z" fill="#1AB248"/>
<path d="M11.4053 10.3425C9.72957 10.3425 8.34277 8.95576 8.34277 7.28005V3.87085C8.34277 2.19514 9.72957 0.80835 11.4053 0.80835C13.081 0.80835 14.4678 2.19514 14.4678 3.87085V7.28005C14.4678 8.95576 13.081 10.3425 11.4053 10.3425Z" fill="white"/>
<path d="M33.71 10.3425C32.0343 10.3425 30.6475 8.95576 30.6475 7.28005V3.87085C30.6475 2.19514 32.0343 0.80835 33.71 0.80835C35.3857 0.80835 36.7724 2.19514 36.7724 3.87085V7.28005C36.7147 8.95576 35.3857 10.3425 33.71 10.3425Z" fill="white"/>
<path d="M2.2182 15.6004V42.1228C2.2182 44.8964 4.47174 47.15 7.24532 47.15H37.8703C40.6439 47.15 42.8974 44.8964 42.8974 42.1228V15.6004H2.2182ZM11.4057 1.73251C10.8279 1.73251 10.25 1.96365 9.84556 2.36813C9.44108 2.77261 9.20994 3.35044 9.20994 3.92827V7.33747C9.20994 8.55091 10.1923 9.53322 11.4057 9.53322C11.9835 9.53322 12.5036 9.35987 12.9081 8.95539L12.9658 8.89761C13.3703 8.49313 13.6015 7.9153 13.6015 7.33747V3.92827C13.5437 2.71483 12.6191 1.73251 11.4057 1.73251ZM33.7099 1.73251C32.4965 1.73251 31.5142 2.71483 31.5142 3.92827V7.33747C31.5142 8.55091 32.4965 9.53322 33.7099 9.53322C34.9234 9.53322 35.9057 8.55091 35.9057 7.33747V3.92827C35.9057 2.71483 34.9234 1.73251 33.7099 1.73251ZM7.47645 6.47072H7.24532C4.47174 6.47072 2.2182 8.72426 2.2182 11.4978V13.8669H42.8974V11.4978C42.8974 8.72426 40.6439 6.47072 37.8703 6.47072H37.6392V7.27968C37.6392 9.47544 35.8479 11.2089 33.7099 11.2089C31.5142 11.2089 29.7807 9.41766 29.7807 7.27968V6.47072H15.3349V7.27968C15.3349 8.31978 14.9305 9.30209 14.1793 10.0533L14.1215 10.1111C13.3703 10.8044 12.388 11.2089 11.4057 11.2089C10.3656 11.2089 9.38329 10.8044 8.63211 10.0533C7.88093 9.30209 7.47645 8.31978 7.47645 7.27968V6.47072ZM7.24532 4.73723H7.47645V3.92827C7.47645 2.88817 7.88093 1.90586 8.63211 1.15468C9.38329 0.403505 10.3656 -0.000976562 11.4057 -0.000976562C13.6015 -0.000976562 15.3349 1.7903 15.3349 3.92827V4.73723H29.7229V3.92827C29.7229 1.73251 31.5142 -0.000976562 33.6522 -0.000976562C35.8479 -0.000976562 37.5814 1.7903 37.5814 3.92827V4.73723H37.8125C41.5684 4.73723 44.5732 7.79973 44.6309 11.5556V42.1806C44.6309 45.9365 41.5684 48.9412 37.8125 48.999H7.18754C3.43164 48.999 0.426924 45.9365 0.369141 42.2384V11.6134C0.426924 7.74195 3.48942 4.73723 7.24532 4.73723Z" fill="#1E1615"/>
<path d="M18.1123 30.3086L18.8711 22.8643H26.5205V24.6177H20.481L20.0298 28.6885C20.7612 28.2578 21.5918 28.0425 22.5215 28.0425C23.8818 28.0425 24.9619 28.4937 25.7617 29.396C26.5615 30.2915 26.9614 31.5049 26.9614 33.0361C26.9614 34.5742 26.5444 35.7876 25.7104 36.6763C24.8833 37.5581 23.7246 37.999 22.2344 37.999C20.915 37.999 19.8384 37.6333 19.0044 36.9019C18.1704 36.1704 17.6953 35.1587 17.5791 33.8667H19.3735C19.4897 34.7212 19.7939 35.3672 20.2861 35.8047C20.7783 36.2354 21.4277 36.4507 22.2344 36.4507C23.1162 36.4507 23.8066 36.1499 24.3057 35.5483C24.8115 34.9468 25.0645 34.1162 25.0645 33.0566C25.0645 32.0586 24.791 31.2588 24.2441 30.6572C23.7041 30.0488 22.9829 29.7446 22.0806 29.7446C21.2534 29.7446 20.604 29.9258 20.1323 30.2881L19.6299 30.6982L18.1123 30.3086Z" fill="black"/>
</svg>
