<svg width="56" height="56" viewBox="0 0 56 56" fill="none" xmlns="http://www.w3.org/2000/svg">
<path d="M47.5975 9.3376L44.798 11.2039L40.1323 10.2707L37.3329 9.33749L33.6002 10.2707L30.8008 9.33749L32.667 5.60485H36.3996L40.0575 3.77588C42.8786 5.17205 45.4308 7.05516 47.5975 9.3376Z" fill="#03AA6F"/>
<path d="M26.1359 5.60459L25.2027 8.40405L22.4033 9.33723L19.6038 14.003L14.9381 16.8024L8.40612 17.7356V20.535L10.2724 22.4013V26.134L7.47293 24.2677L4.67348 22.4012L3.0498 17.5209C5.84466 10.861 11.1869 5.59617 17.8869 2.89844L20.537 4.67141L26.1359 5.60459Z" fill="#03AA6F"/>
<path d="M28.0023 31.7328L27.0692 36.3986L23.3366 40.1311V42.9305L19.6041 45.73V50.3957L16.8046 49.4625L14.9382 44.7968V35.4654L10.2725 34.5322L8.40625 30.7996V28.0002L10.2725 26.1339L13.072 23.3345L14.9382 27.067H21.4703L24.2698 31.7328H28.0023Z" fill="#03AA6F"/>
<path d="M51.6104 14.7774C56.7044 23.8654 56.124 35.0715 50.1173 43.5836L47.5979 41.0641V37.3316L45.7316 33.599L43.8653 29.8664V26.1338L41.0659 24.2675L37.3333 25.2007L30.8014 22.4013L29.8682 15.8693L32.6676 13.0698H38.2665L40.1328 15.8693L45.7317 16.8025L51.3306 14.9362L51.6104 14.7774Z" fill="#03AA6F"/>
<path d="M33.6008 10.2707L37.3335 9.33755L40.1329 10.2707L44.7986 11.2039L47.5981 9.33766C49.161 10.9735 50.5095 12.8015 51.6106 14.7779L51.3307 14.9365L45.7318 16.8027L40.1329 15.8695L38.2666 13.0701H32.6677L29.8683 15.8695L30.8015 22.4015L37.3335 25.201L41.066 24.2678L43.8654 26.134V29.8666L45.7317 33.5991L47.598 37.3318V41.0643L50.1174 43.5837C41.4998 55.7949 24.6146 58.7072 12.4043 50.0897C2.0342 42.771 -1.85605 29.2273 3.04942 17.521L4.67309 22.4013L7.47254 24.2676L10.272 26.1338L8.40584 28.0005V30.8L10.2721 34.5326L14.9378 35.4658V44.7973L16.8041 49.463L19.6035 50.3962V45.7304L23.3362 42.931V40.1315L27.0688 36.3989L28.002 31.7332H24.2695L21.47 27.0675H14.938L13.0718 23.3348L10.2723 26.1343V22.4016L8.40606 20.5354V17.7359L14.938 16.8027L19.6038 14.0033L22.4032 9.33755L25.2027 8.40436L26.1359 5.60491L20.5369 4.67172L17.8868 2.89875C25.0627 0.00884378 33.1326 0.327891 40.0583 3.77594L36.4004 5.60491H32.6678L30.8016 9.33755L33.6008 10.2707Z" fill="#86DAF1"/>
<path d="M28.0019 55.9947C43.4633 55.9966 55.9982 43.4654 56.0001 28.004C56.0029 12.5436 43.4707 0.00870351 28.0103 0.00585976C16.8069 0.00400039 6.68144 6.68255 2.27133 16.9817L1.92232 17.0975L2.05761 17.5033C-3.74845 31.8234 3.15311 48.1385 17.4731 53.9446C20.8176 55.3004 24.3925 55.9966 28.0019 55.9947ZM49.971 42.1169L48.5312 40.6779V37.3317C48.533 37.1871 48.5003 37.0443 48.4379 36.9146L44.7986 29.6463V26.1339C44.7986 25.8222 44.6428 25.5311 44.3833 25.3576L41.5839 23.4913C41.3646 23.3448 41.093 23.2981 40.8374 23.3626L37.409 24.2192L31.6506 21.7482L30.8583 16.1978L33.0541 14.0031H37.7673L39.3537 16.3873C39.4974 16.6019 39.7223 16.7475 39.9771 16.7895L45.576 17.7226C45.7262 17.7478 45.8801 17.7357 46.0238 17.6872L51.1804 15.9684C55.5056 24.2687 55.0427 34.2525 49.9674 42.117H49.971V42.1169ZM46.1199 9.20113L44.6026 10.2126L40.3727 9.36628L37.6282 8.45278C37.4602 8.39591 37.2792 8.38836 37.1075 8.43222L33.638 9.29913L32.1169 8.79239L33.2441 6.53795H36.4C36.5446 6.53795 36.6875 6.50438 36.8172 6.43995L40.0458 4.82558C42.2698 5.98638 44.3152 7.45988 46.1199 9.20113ZM17.7811 3.95594L20.0207 5.44902C20.1308 5.52175 20.2549 5.5713 20.3856 5.59273L24.9076 6.34677L24.4663 7.66714L22.1101 8.45377C21.8992 8.52377 21.7201 8.66749 21.6052 8.8578L18.9252 13.3238L14.6206 15.9068L8.27525 16.8129C7.81522 16.8782 7.47364 17.271 7.47277 17.7358V20.5352C7.47277 20.7825 7.57077 21.0204 7.74621 21.195L9.33904 22.7878V24.3909L5.4571 21.8023L4.049 17.5779C6.72803 11.4565 11.6383 6.58553 17.7811 3.95594ZM15.1245 34.551L10.9067 33.7065L9.33904 30.5795V28.3866L12.816 24.9097L14.1028 27.4843C14.2605 27.8006 14.5842 28.0003 14.9379 28.0003H20.9418L23.4696 32.2134C23.6385 32.4943 23.9418 32.666 24.2694 32.666H26.8635L26.2103 35.9385L22.6774 39.4714C22.502 39.6459 22.4031 39.8839 22.4031 40.1312V42.464L19.0438 44.9835C18.8086 45.1598 18.6705 45.4361 18.6705 45.73V49.1005L17.5097 48.716L15.871 44.6176V35.4653C15.871 35.0223 15.5593 34.6397 15.1245 34.551ZM3.01322 20.3708L3.78869 22.6963C3.85399 22.8931 3.98283 23.062 4.15543 23.1777L8.80714 26.2786L7.74621 27.3405C7.57077 27.515 7.47277 27.753 7.47277 28.0003V30.7997C7.47277 30.9443 7.50635 31.0872 7.57077 31.2169L9.43703 34.9495C9.56577 35.2071 9.80749 35.3909 10.0902 35.4469L14.0095 36.2298V44.797C14.0095 44.9155 14.0319 45.033 14.0757 45.1432L15.942 49.8089C16.0437 50.0636 16.2537 50.2605 16.514 50.3473L19.3135 51.2805C19.4068 51.3122 19.5048 51.3291 19.6037 51.3291C20.1187 51.3291 20.5368 50.9111 20.5368 50.3959V46.1968L23.8962 43.6773C24.1313 43.501 24.2695 43.2247 24.2695 42.9308V40.5177L27.7287 37.0585C27.8584 36.9279 27.947 36.7626 27.9834 36.5816L28.9166 31.9159C29.0173 31.4102 28.6899 30.9193 28.1841 30.8176C28.1244 30.8054 28.0628 30.7998 28.0021 30.7998H24.7976L22.2697 26.5867C22.1008 26.3058 21.7975 26.1341 21.4699 26.1341H15.5146L13.9115 22.9175C13.777 22.6488 13.5223 22.4612 13.2256 22.4136C12.9297 22.3623 12.6265 22.4603 12.4165 22.6749L11.2053 23.8814V22.4014C11.2053 22.1541 11.1073 21.9162 10.9319 21.7416L9.33904 20.1488V18.5447L15.0704 17.7264C15.1935 17.7086 15.3121 17.6666 15.4184 17.6022L20.0841 14.8028C20.2147 14.7243 20.3249 14.6143 20.4033 14.4836L23.0255 10.1136L25.4973 9.28873C25.7763 9.1973 25.9956 8.978 26.0871 8.69899L27.0203 5.89953C27.1817 5.41052 26.9167 4.88245 26.4268 4.72102C26.382 4.70603 26.3354 4.69488 26.2887 4.68645L20.8876 3.78597L19.9386 3.15334C25.8109 1.24223 32.1712 1.47838 37.8848 3.82053L36.18 4.67158H32.6676C32.312 4.66972 31.9864 4.86944 31.8278 5.18761L29.9616 8.92025C29.732 9.38127 29.9187 9.94203 30.3806 10.1716C30.4198 10.1912 30.4609 10.208 30.5019 10.222L33.3013 11.1552C33.4693 11.2121 33.6504 11.2196 33.8221 11.1758L37.2916 10.3089L39.8334 11.1552C39.8699 11.1682 39.9072 11.1785 39.9454 11.1851L44.6112 12.1183C44.8538 12.1677 45.1066 12.1183 45.3119 11.9801L47.4358 10.5636C48.4808 11.7281 49.4206 12.9833 50.2427 14.314L45.6515 15.8443L40.6807 15.0157L39.0383 12.5523C38.8657 12.2938 38.5773 12.1388 38.2665 12.137H32.6676C32.4203 12.137 32.1824 12.235 32.0079 12.4104L29.2084 15.2099C29.0003 15.418 28.9024 15.7109 28.9444 16.0021L29.8776 22.534C29.9243 22.8569 30.137 23.1322 30.4375 23.2591L36.9695 26.0585C37.157 26.1397 37.3651 26.1565 37.5629 26.1061L40.8951 25.2728L42.9323 26.6333V29.8667C42.9304 30.0112 42.9631 30.1541 43.0256 30.2838L46.6648 37.5521V41.0645C46.6648 41.3118 46.7628 41.5497 46.9382 41.7242L48.8903 43.6773C40.2327 55.2176 23.8597 57.5542 12.3194 48.8964C3.52083 42.2952 -0.199669 30.8902 3.01322 20.3708Z" fill="black"/>
</svg>
