<svg width="308" height="714" viewBox="0 0 308 714" fill="none" xmlns="http://www.w3.org/2000/svg">
<mask id="mask0" mask-type="alpha" maskUnits="userSpaceOnUse" x="-76" y="-1" width="218" height="222">
<rect x="-76" y="-0.000244141" width="218" height="221" fill="#1AB248"/>
</mask>
<g mask="url(#mask0)">
<path fill-rule="evenodd" clip-rule="evenodd" d="M-101.899 775.172L-99.5242 747.853C-97.1047 720.018 -92.3553 665.379 -67.2319 611.991C-42.1086 558.604 4.3691 507.592 -12.2358 450.578C-27.7707 393.657 -105.408 331.856 -79.2145 278.562C-54.0912 225.175 73.7031 181.231 119.156 129.611C165.678 78.0839 128.699 19.8179 113.164 -37.1035C97.6294 -94.025 102.379 -148.664 104.798 -176.499L107.173 -203.818L-200.974 -230.604L-203.349 -203.284C-205.768 -175.449 -210.518 -120.81 -215.312 -65.6559C-220.106 -10.5016 -224.856 44.1373 -229.65 99.2917C-234.444 154.446 -239.193 209.085 -243.988 264.239C-248.782 319.394 -253.531 374.033 -258.326 429.187C-263.12 484.341 -267.869 538.98 -272.663 594.135C-277.458 649.289 -282.207 703.928 -284.627 731.763L-287.001 759.082L-101.899 775.172Z" fill="#1AB248"/>
</g>
<mask id="mask1" mask-type="alpha" maskUnits="userSpaceOnUse" x="0" y="271" width="308" height="443">
<rect y="271" width="308" height="443" fill="#C4C4C4"/>
</mask>
<g mask="url(#mask1)">
<path d="M270.307 803.397C268.686 707.801 335.018 579.346 290.742 498.306C262.174 446.018 200.829 411.136 143.611 431.62C96.6107 449.954 81.3215 512.887 126.582 524.865C174.774 537.618 173.762 457.598 169.06 431.62C157.263 366.445 89.1858 302.688 33.2626 283.109C-49.9208 253.986 -129.6 318.606 -214 292.643" stroke="#BBBBBB" stroke-width="1.5" stroke-linecap="round" stroke-linejoin="round" stroke-dasharray="4 5"/>
<path d="M222 358.397C209.318 358.397 199 368.803 199 381.595C199 386.005 200.19 390.684 202.537 395.501C204.393 399.313 206.977 403.225 210.216 407.126C215.71 413.745 221.121 417.994 221.348 418.172C221.54 418.322 221.77 418.397 222 418.397C222.23 418.397 222.46 418.322 222.652 418.172C222.879 417.994 228.29 413.745 233.784 407.126C237.023 403.225 239.607 399.313 241.463 395.501C243.81 390.684 245 386.005 245 381.595C245 368.803 234.682 358.397 222 358.397ZM222 372.771C226.832 372.771 230.749 376.722 230.749 381.595C230.749 386.469 226.832 390.419 222 390.419C217.168 390.419 213.251 386.469 213.251 381.595C213.251 376.722 217.168 372.771 222 372.771Z" stroke="#1AB248" stroke-width="2"/>
<circle cx="222" cy="435.397" r="10" fill="#F5F5F6" stroke="#1AB248" stroke-width="1.5"/>
<circle cx="222" cy="435.397" r="5" stroke="#1AB248" stroke-width="1.5"/>
</g>
</svg>
