<svg width="195" height="600" viewBox="0 0 195 600" fill="none" xmlns="http://www.w3.org/2000/svg">
<mask id="mask0" mask-type="alpha" maskUnits="userSpaceOnUse" x="0" y="-1" width="196" height="601">
<rect x="0.000488281" y="-0.000244141" width="195" height="600" fill="#C4C4C4"/>
</mask>
<g mask="url(#mask0)">
<path fill-rule="evenodd" clip-rule="evenodd" d="M-185.63 919.352L-150.825 910.515C-116.02 901.678 -46.4101 884.003 -37.6163 842.17C-28.8226 800.337 -80.8452 734.346 -85.5662 687.145C-90.2872 639.944 -47.7066 611.532 1.63143 585.805C50.9694 560.077 107.065 537.034 122.616 497.886C138.167 458.737 113.174 403.483 108.453 356.282C103.732 309.08 119.283 269.932 141.592 233.467C163.9 197.003 192.966 163.223 195.002 118.706C197.039 74.1887 172.046 18.9346 140.295 -39.0037C108.545 -96.9421 70.0367 -157.565 72.073 -202.082C74.1095 -246.599 116.69 -275.01 137.98 -289.216L159.271 -303.422L78.1822 -335.633L70.4066 -316.059C62.631 -296.484 47.08 -257.336 31.5288 -218.187C15.9777 -179.039 0.426575 -139.89 -15.1245 -100.742C-30.6757 -61.593 -46.2268 -22.4444 -61.7779 16.7042C-77.329 55.8528 -92.8802 95.0014 -108.431 134.15C-123.982 173.299 -139.534 212.447 -155.085 251.596C-170.636 290.744 -186.187 329.893 -201.738 369.041C-217.289 408.19 -232.84 447.339 -248.391 486.487C-263.942 525.636 -279.494 564.784 -295.045 603.933C-310.596 643.082 -326.147 682.23 -341.698 721.379C-357.249 760.527 -372.8 799.676 -380.576 819.25L-388.351 838.825L-185.63 919.352Z" fill="#F5F5F6"/>
<circle cx="175.077" cy="438.5" r="2.5" fill="#334045"/>
<circle cx="175.077" cy="469.724" r="2.5" fill="#334045"/>
<circle cx="175.077" cy="500.948" r="2.5" fill="#334045"/>
<circle cx="175.077" cy="532.173" r="2.5" fill="#334045"/>
<circle cx="142.551" cy="438.5" r="2.5" fill="#334045"/>
<circle cx="142.551" cy="469.724" r="2.5" fill="#334045"/>
<circle cx="142.551" cy="500.948" r="2.5" fill="#334045"/>
<circle cx="142.551" cy="532.173" r="2.5" fill="#334045"/>
<circle cx="110.025" cy="438.5" r="2.5" fill="#334045"/>
<circle cx="110.025" cy="469.724" r="2.5" fill="#334045"/>
<circle cx="110.025" cy="500.949" r="2.5" fill="#334045"/>
<circle cx="110.025" cy="532.173" r="2.5" fill="#334045"/>
<circle cx="77.5" cy="438.5" r="2.5" fill="#334045"/>
<circle cx="77.5" cy="469.724" r="2.5" fill="#334045"/>
<circle cx="77.5" cy="500.949" r="2.5" fill="#334045"/>
<circle cx="77.5" cy="532.173" r="2.5" fill="#334045"/>
</g>
</svg>
