<svg width="50" height="44" viewBox="0 0 50 44" fill="none" xmlns="http://www.w3.org/2000/svg">
<path d="M37.125 12.4609C40.21 12.4609 42.7109 9.96003 42.7109 6.875C42.7109 3.78997 40.21 1.28906 37.125 1.28906C34.04 1.28906 31.5391 3.78997 31.5391 6.875C31.5391 9.96003 34.04 12.4609 37.125 12.4609Z" fill="white"/>
<path d="M45.5333 44H4.46667C3.65668 44 3 43.3284 3 42.5V25H47V42.5C47 43.3284 46.3433 44 45.5333 44Z" fill="#F0F0F0"/>
<path d="M25 44H45.5333C46.3433 44 47 43.3284 47 42.5V25H25V44Z" fill="#DFDFDF"/>
<path d="M2.57812 7.90625H18.9062V17.3594H2.57812V7.90625Z" fill="white"/>
<path d="M34.6552 39H15.3448C12.9491 39 11 36.9813 11 34.5C11 32.0187 12.9491 30 15.3448 30H34.6552C37.0509 30 39 32.0187 39 34.5C39 36.9813 37.0509 39 34.6552 39Z" fill="#1AB248"/>
<path d="M34.6552 30H25V39H34.6552C37.0509 39 39 36.9813 39 34.5C39 32.0187 37.0509 30 34.6552 30Z" fill="#269449"/>
<path d="M37.1251 13.75C35.2887 13.75 33.5622 13.0349 32.2638 11.7363C29.5833 9.05575 29.5833 4.69416 32.2638 2.0136C33.5622 0.715086 35.2887 0 37.1251 0C38.9615 0 40.688 0.715086 41.9864 2.01369C44.6669 4.69425 44.6669 9.05584 41.9864 11.7364C40.688 13.0349 38.9615 13.75 37.1251 13.75ZM37.1251 2.57812C35.9774 2.57812 34.8984 3.02509 34.0868 3.83668C32.4115 5.51203 32.4115 8.23806 34.0868 9.91341C34.8984 10.725 35.9774 11.172 37.1251 11.172C38.2728 11.172 39.3518 10.725 40.1634 9.91341C41.8387 8.23806 41.8387 5.51203 40.1634 3.83668C39.3518 3.02509 38.2728 2.57812 37.1251 2.57812Z" fill="#1AB248"/>
<path d="M37.125 8.16453C36.795 8.16453 36.4651 8.03871 36.2135 7.78692C35.7101 7.28349 35.7101 6.46735 36.2135 5.96392L37.4289 4.7486C37.9323 4.24526 38.7486 4.24526 39.2519 4.7486C39.7553 5.25202 39.7553 6.06817 39.2519 6.57159L38.0365 7.78692C37.7848 8.03863 37.4548 8.16453 37.125 8.16453Z" fill="#444444"/>
<path d="M48.5352 25.5H1.46484C0.655859 25.5 0 24.9243 0 24.2143V20.7857C0 20.0757 0.655859 19.5 1.46484 19.5H48.5352C49.3441 19.5 50 20.0757 50 20.7857V24.2143C50 24.9243 49.3441 25.5 48.5352 25.5Z" fill="#E0E0E0"/>
<path d="M48.5352 19.5H25V25.5H48.5352C49.3441 25.5 50 24.9243 50 24.2143V20.7857C50 20.0757 49.3441 19.5 48.5352 19.5Z" fill="#CDCDCD"/>
<path d="M15.8394 19.7344L19.1541 12L22.4688 19.7344H15.8394Z" fill="#FAB400"/>
<path d="M11.1647 12H19.154L15.8393 19.7344H7L9.97988 12.7813C10.183 12.3073 10.6491 12 11.1647 12Z" fill="#FFDC1E"/>
</svg>
