<svg width="38" height="44" viewBox="0 0 38 44" fill="none" xmlns="http://www.w3.org/2000/svg">
<path d="M22.5429 12.1515H20.4853V6.48553C20.4853 4.04396 18.4989 2.05752 16.0573 2.05752C14.8752 2.05752 13.7635 2.51831 12.9268 3.355C12.0899 4.19091 11.6293 5.30252 11.6293 6.48553V12.1515H9.57178V6.48553C9.57178 4.7526 10.2467 3.12391 11.4723 1.89973C12.6972 0.674867 14.3257 0 16.0573 0C19.6335 0 22.5429 2.90941 22.5429 6.48553V12.1515Z" fill="#4D4D4D"/>
<path d="M12.5192 8.85828L11.0141 43.9999H0.98877L1.02993 43.0462L2.49285 8.85828H12.5192Z" fill="#269449"/>
<path d="M13.0058 36.2651L8.82386 39.5983L3.29937 44.0004H0.98877L8.90516 37.691H8.90619L12.1077 35.1396L13.0058 36.2651Z" fill="#269449"/>
<path d="M35.5071 8.85828L37.0112 43.9999H29.3644H8.63574L10.1409 8.85828H27.8603H35.5071Z" fill="#1AB248"/>
<path d="M18.8516 25.8852C16.9612 25.8852 15.4233 24.3472 15.4233 22.457C15.4233 20.5667 16.9613 19.0286 18.8516 19.0286C20.742 19.0286 22.2799 20.5665 22.2799 22.457C22.2799 24.3474 20.742 25.8852 18.8516 25.8852ZM18.8516 20.5717C17.8121 20.5717 16.9664 21.4174 16.9664 22.457C16.9664 23.4965 17.8121 24.3421 18.8516 24.3421C19.8911 24.3421 20.7368 23.4965 20.7368 22.457C20.7368 21.4175 19.8911 20.5717 18.8516 20.5717Z" fill="white"/>
<path d="M19.0494 30.975C18.8519 30.975 18.6545 30.8997 18.5038 30.749C18.2025 30.4477 18.2025 29.9592 18.5038 29.6578L26.052 22.1096C26.3536 21.8083 26.8421 21.8084 27.1433 22.1096C27.4446 22.4109 27.4446 22.8994 27.1433 23.2008L19.595 30.749C19.4444 30.8997 19.2468 30.975 19.0494 30.975Z" fill="white"/>
<path d="M26.7964 33.8295C24.906 33.8295 23.3682 32.2916 23.3682 30.4013C23.3682 28.5109 24.9061 26.9729 26.7964 26.9729C28.6868 26.9729 30.2248 28.5108 30.2248 30.4013C30.2248 32.2917 28.6868 33.8295 26.7964 33.8295ZM26.7964 28.516C25.7569 28.516 24.9113 29.3616 24.9113 30.4012C24.9113 31.4408 25.757 32.2863 26.7964 32.2863C27.8359 32.2863 28.6816 31.4407 28.6816 30.4012C28.6816 29.3618 27.8359 28.516 26.7964 28.516Z" fill="white"/>
<path d="M28.2807 15.154C27.7126 15.154 27.2519 14.6935 27.2519 14.1252V6.48565C27.2519 4.04408 25.2655 2.05764 22.8239 2.05764C20.3823 2.05764 18.3959 4.044 18.3959 6.48565V14.1252C18.3959 14.6934 17.9352 15.1539 17.3671 15.1539C16.7991 15.1539 16.3384 14.6934 16.3384 14.1252V6.48565C16.3384 2.90954 19.2477 0.00012207 22.8239 0.00012207C26.4001 0.00012207 29.3094 2.90954 29.3094 6.48565V14.1252C29.3094 14.6934 28.8489 15.154 28.2807 15.154Z" fill="#666666"/>
</svg>
