<svg width="195" height="600" viewBox="0 0 195 600" fill="none" xmlns="http://www.w3.org/2000/svg">
<mask id="mask0" mask-type="alpha" maskUnits="userSpaceOnUse" x="0" y="-1" width="195" height="601">
<rect width="195" height="600" transform="matrix(-1 0 0 1 195 -0.000244141)" fill="#C4C4C4"/>
</mask>
<g mask="url(#mask0)">
<path fill-rule="evenodd" clip-rule="evenodd" d="M380.631 919.352L345.826 910.515C311.021 901.678 241.411 884.003 232.617 842.17C223.823 800.337 275.846 734.346 280.567 687.145C285.288 639.944 242.707 611.532 193.369 585.805C144.031 560.077 87.9357 537.034 72.3846 497.886C56.8335 458.737 81.8266 403.483 86.5476 356.282C91.2686 309.08 75.7175 269.932 53.409 233.467C31.1005 197.003 2.03462 163.223 -0.00177696 118.706C-2.03815 74.1887 22.955 18.9346 54.7055 -39.0037C86.456 -96.9421 124.964 -157.565 122.927 -202.082C120.891 -246.599 78.3104 -275.01 57.0201 -289.216L35.7298 -303.422L116.818 -335.633L124.594 -316.059C132.369 -296.484 147.921 -257.336 163.472 -218.187C179.023 -179.039 194.574 -139.89 210.125 -100.742C225.676 -61.593 241.227 -22.4444 256.778 16.7042C272.33 55.8528 287.881 95.0014 303.432 134.15C318.983 173.299 334.534 212.447 350.085 251.596C365.636 290.744 381.187 329.893 396.738 369.041C412.29 408.19 427.841 447.339 443.392 486.487C458.943 525.636 474.494 564.784 490.045 603.933C505.596 643.082 521.147 682.23 536.699 721.379C552.25 760.527 567.801 799.676 575.576 819.25L583.352 838.825L380.631 919.352Z" fill="#F5F5F6"/>
</g>
<circle r="2.5" transform="matrix(-1 0 0 1 19.9238 438.5)" fill="#334045"/>
<circle r="2.5" transform="matrix(-1 0 0 1 19.9238 469.724)" fill="#334045"/>
<circle r="2.5" transform="matrix(-1 0 0 1 19.9236 500.948)" fill="#334045"/>
<circle r="2.5" transform="matrix(-1 0 0 1 19.9238 532.173)" fill="#334045"/>
<circle r="2.5" transform="matrix(-1 0 0 1 52.4495 438.5)" fill="#334045"/>
<circle r="2.5" transform="matrix(-1 0 0 1 52.4492 469.724)" fill="#334045"/>
<circle r="2.5" transform="matrix(-1 0 0 1 52.4492 500.948)" fill="#334045"/>
<circle r="2.5" transform="matrix(-1 0 0 1 52.4495 532.173)" fill="#334045"/>
<circle r="2.5" transform="matrix(-1 0 0 1 84.9749 438.5)" fill="#334045"/>
<circle r="2.5" transform="matrix(-1 0 0 1 84.9749 469.724)" fill="#334045"/>
<circle r="2.5" transform="matrix(-1 0 0 1 84.9749 500.949)" fill="#334045"/>
<circle r="2.5" transform="matrix(-1 0 0 1 84.9749 532.173)" fill="#334045"/>
<circle r="2.5" transform="matrix(-1 0 0 1 117.5 438.5)" fill="#334045"/>
<circle r="2.5" transform="matrix(-1 0 0 1 117.5 469.724)" fill="#334045"/>
<circle r="2.5" transform="matrix(-1 0 0 1 117.5 500.949)" fill="#334045"/>
<circle r="2.5" transform="matrix(-1 0 0 1 117.5 532.173)" fill="#334045"/>
</svg>
