<svg width="148" height="209" viewBox="0 0 148 209" fill="none" xmlns="http://www.w3.org/2000/svg">
<mask id="mask0" mask-type="alpha" maskUnits="userSpaceOnUse" x="0" y="0" width="148" height="209">
<rect width="148" height="209" rx="10" fill="#F4F4F5"/>
</mask>
<g mask="url(#mask0)">
<path d="M124.53 33.8011C123.908 34.5479 123.41 35.4191 122.663 36.1659C116.067 44.5047 107.106 47.4917 102.501 46.9939C102.003 46.9939 101.505 46.8694 101.132 46.745C100.012 52.0967 99.8873 57.573 103.248 59.5643C115.445 66.783 130.256 49.6075 130.256 49.6075C130.256 49.6075 124.904 43.6335 123.784 40.522C123.535 38.904 123.908 36.2903 124.53 33.8011Z" fill="#FD995B"/>
<path d="M95.5311 40.895L94.0376 40.0238C94.0376 40.0238 82.9606 44.3799 81.0937 53.4655C79.1024 62.6755 77.111 72.3834 73.5017 77.2373C69.8923 82.0912 73.1283 95.284 74.3729 95.6574C75.6175 96.0307 98.2692 92.048 98.2692 92.048V61.9287L95.5311 40.895Z" fill="#2ACC5B"/>
<path d="M105.984 132.996L105.237 120.301C105.237 120.301 87.9371 117.189 80.4695 107.855C80.4695 107.855 75.989 149.798 78.7271 167.969C81.4652 186.265 83.7055 209.29 84.5767 217.255C85.4479 225.345 84.5767 241.276 80.8429 248.868C80.8429 248.868 95.0313 256.584 104.988 248.868L105.984 205.556V132.996Z" fill="#001B45"/>
<path d="M95.6533 117.562C95.6533 117.562 96.5245 136.106 98.267 142.454C99.636 147.557 102.374 153.157 102.499 154.526C104.117 166.972 105.361 181.161 105.983 186.388C107.228 196.718 110.962 216.632 112.082 223.726C113.202 230.696 110.215 269.029 110.215 269.029C110.215 269.029 120.172 272.639 133.116 264.176C133.116 264.176 135.232 226.091 133.987 215.885C132.742 205.679 131.124 203.19 130.502 196.096C129.88 189.375 135.48 168.59 135.356 151.29C135.232 133.991 128.884 110.343 128.884 110.343C128.884 110.343 125.399 121.793 95.6533 117.562Z" fill="#05345E"/>
<path d="M139.216 75.3704C140.336 70.1431 145.688 66.6582 144.568 64.169C142.328 59.1906 141.208 58.0705 135.98 53.9633C133.367 51.972 125.65 43.3842 125.65 43.3842C125.65 43.3842 112.831 53.2166 105.737 51.5986C98.6423 49.9806 104.243 40.0238 104.243 40.0238H94.0373C91.0503 43.5087 85.2007 57.946 84.0805 67.7784C83.0848 77.6107 86.0719 83.7092 86.0719 83.7092C86.0719 83.7092 79.351 109.472 79.2266 112.335C78.9777 115.198 78.1064 127.892 78.1064 127.892C78.1064 127.892 84.4539 137.476 98.6423 142.703C120.672 150.918 135.358 141.459 135.358 141.459C135.358 141.459 135.731 136.356 134.362 130.257C132.993 124.159 132.744 113.331 133.118 109.099C133.491 104.867 136.852 87.0696 139.216 75.3704Z" fill="url(#paint0_linear)"/>
<path d="M118.056 83.834L104.241 76.7398L107.353 67.7787L121.292 74.8729L118.056 83.834Z" fill="white"/>
<path d="M108.971 77.238L105.735 75.4956L107.727 69.8949L110.963 71.6373L108.971 77.238Z" fill="#8F9CA0"/>
<path d="M116.936 75.3711L111.833 72.7574L112.082 72.1351L117.185 74.7488L116.936 75.3711Z" fill="#758286"/>
<path d="M116.189 76.863L111.211 74.3738L111.46 73.7515L116.438 76.2407L116.189 76.863Z" fill="#758286"/>
<path d="M117.683 81.0956L114.198 79.3531L114.323 78.7308L117.808 80.4733L117.683 81.0956Z" fill="#758286"/>
<path d="M116.067 69.7707L114.075 68.775L113.204 71.3887L115.071 72.3844L116.067 69.7707Z" fill="#414E52"/>
<path d="M130.253 14.8824C129.382 7.91266 122.786 3.68102 116.936 2.68534C111.087 1.68966 102.001 5.42346 98.7651 11.1486C97.8939 12.7666 96.4004 17.1227 95.9025 19.4874C95.4047 21.7277 95.4047 21.8522 95.6536 23.2212C95.9025 24.5903 96.1514 25.586 95.7781 26.8306C95.2802 28.1996 95.2802 32.1823 95.9025 34.9204C96.5248 37.6586 97.396 38.7787 97.7694 41.019C98.0183 43.2593 98.2673 46.4952 102.748 46.993C107.228 47.4909 116.189 44.6283 122.91 36.165C122.91 36.165 122.91 36.0406 123.035 36.0406C124.528 35.4183 126.644 33.4269 127.64 31.6845C128.387 30.3154 128.511 29.1953 128.138 28.1996C130.253 23.5946 130.751 19.363 130.253 14.8824Z" fill="#F9BA8F"/>
<path d="M126.394 5.29848C120.42 -0.302215 114.197 -0.177755 107.351 2.56036C100.506 5.17402 98.6392 9.90349 98.3903 11.6459C98.1414 13.2639 97.6436 13.6373 97.6436 13.6373C97.8925 15.3797 98.5148 17.62 100.506 17.9934C103.742 18.6157 112.33 16.002 114.57 19.8603C116.686 23.7185 117.931 24.2164 118.055 26.2077C118.179 28.1991 118.428 29.5681 119.548 29.4437C120.544 29.3192 123.656 27.5768 124.278 27.2034C124.651 26.9545 125.149 26.7056 125.771 26.7056C126.892 26.7056 127.763 27.4523 128.136 28.448C128.759 27.2034 129.256 26.2077 129.63 24.9631C129.754 24.4653 130.003 24.2164 130.003 24.2164C132.119 19.3624 132.243 11.0236 126.394 5.29848Z" fill="#874C22"/>
<path d="M99.3874 42.3877C98.2673 38.9028 99.014 38.5294 99.014 38.0316C99.014 37.5337 99.014 37.1604 96.8982 36.6625C94.7824 36.1647 97.5205 31.933 98.3917 30.3151C99.2629 28.6971 99.6363 28.8216 99.3874 26.8302C99.2629 25.4611 97.0227 23.7187 95.5291 22.723C95.5291 22.8475 95.5291 22.9719 95.6536 23.2209C95.9025 24.5899 96.1514 25.5856 95.7781 26.8302C95.2802 28.1993 95.2802 32.182 95.9025 34.9201C96.5248 37.6582 97.396 38.7783 97.7694 41.0186C98.0183 42.8855 98.1428 45.4992 100.881 46.4949C100.383 45.3747 99.8852 44.0057 99.3874 42.3877Z" fill="#D88F69"/>
<path d="M105.735 4.92615C102.748 6.41967 100.135 8.53548 98.6412 11.1491C97.77 12.7671 96.2765 17.1232 95.7786 19.488C95.2808 21.7282 95.2808 21.8527 95.5297 23.2217C95.7786 24.5908 96.0276 25.5865 95.6542 26.8311C95.5297 27.2045 95.4053 27.7023 95.4053 28.3246C102.002 29.1958 115.319 29.6937 120.671 21.7282C126.022 14.0117 113.327 7.78872 105.735 4.92615Z" fill="#D88F69"/>
<path d="M129.507 25.7103C129.507 25.7103 123.906 23.3456 120.297 21.4787C108.349 15.5046 96.6494 14.7579 96.6494 14.7579C96.6494 14.7579 99.8854 5.92122 103.121 2.80973C105.237 0.818367 114.945 -2.16867 122.288 2.43635C131.249 8.03704 132.12 10.8996 132.12 15.3802C132.12 18.1183 131.249 21.4787 129.507 25.7103Z" fill="url(#paint1_linear)"/>
<path d="M120.297 21.6034C108.348 15.6293 96.6492 14.8825 96.6492 14.8825C96.6492 14.8825 96.6492 14.7581 96.7737 14.5092L88.0615 18.8653C88.0615 18.8653 82.4608 22.599 93.7867 25.5861C106.606 29.071 118.305 23.0969 120.794 21.7278C120.546 21.7278 120.421 21.6034 120.297 21.6034Z" fill="#2ACC5B"/>
<path d="M101.38 120.175L50.9736 91.6741V44.8772L101.38 73.7519V120.175Z" fill="#C1C8CC"/>
<path d="M0.692383 120.175V73.7519L50.9742 44.8772V91.6741L0.692383 120.175Z" fill="#A8AFB3"/>
<path d="M50.9742 149.176L0.692383 120.176L50.9742 91.675L101.38 120.176L50.9742 149.176Z" fill="#DAE1E5"/>
<path d="M0.692383 73.7522L50.9742 102.751V149.175L0.692383 120.176V73.7522Z" fill="#A6704E"/>
<path d="M101.38 73.7522V120.176L50.9736 149.175V102.751L101.38 73.7522Z" fill="#EBBD8C"/>
<path d="M50.9728 102.378L0.81543 73.5033L50.9728 44.5042L101.13 73.5033L50.9728 102.378Z" fill="#D8AC81"/>
<path d="M0.816843 73.5032L50.9742 102.378V102.751L0.692383 73.7521L0.816843 73.5032Z" fill="#C0A07F"/>
<path d="M101.131 73.5032L101.38 73.7521L50.9736 102.751V102.378L101.131 73.5032Z" fill="#E6C6A2"/>
<path d="M28.8214 89.8074L79.1032 60.6838L74.6226 58.1946L24.3408 87.1937L28.8214 89.8074Z" fill="#E6CFB5"/>
<path d="M28.8214 98.1461V89.8073L24.3408 87.1936V95.5324L28.8214 98.1461Z" fill="#E6CFB5"/>
<path d="M3.92871 118.557L16.2502 125.652V118.682L3.92871 111.463V118.557Z" fill="#E2E9ED"/>
<path d="M15.3788 124.282L15.1299 124.158V118.806L15.3788 118.931V124.282Z" fill="black"/>
<path d="M14.8817 124.033L14.6328 123.784V118.432L14.8817 118.681V124.033Z" fill="black"/>
<path d="M8.40908 120.299L8.16016 120.05V114.699L8.40908 114.948V120.299Z" fill="black"/>
<path d="M13.7606 123.411L13.5117 123.162V117.81L13.7606 117.934V123.411Z" fill="black"/>
<path d="M14.3842 123.66L14.2598 123.536V118.184L14.3842 118.308V123.66Z" fill="black"/>
<path d="M6.66689 119.179L6.41797 119.054V113.703L6.66689 113.827V119.179Z" fill="black"/>
<path d="M6.16884 118.93L5.91992 118.805V113.453L6.16884 113.578V118.93Z" fill="black"/>
<path d="M5.04818 112.957V118.309L4.6748 118.184V112.708L5.04818 112.957Z" fill="black"/>
<path d="M5.54536 118.557H5.4209V113.205H5.54536V118.557Z" fill="black"/>
<path d="M12.1429 122.416L11.7695 122.167V116.815L12.1429 117.064V122.416Z" fill="black"/>
<path d="M10.8993 121.668L10.6504 121.544V116.192L10.8993 116.316V121.668Z" fill="black"/>
<path d="M11.5209 122.041L11.3965 121.917V116.565L11.5209 116.689V122.041Z" fill="black"/>
<path d="M13.0151 122.913L12.8906 122.789V117.437L13.0151 117.561V122.913Z" fill="black"/>
<path d="M12.642 122.664H12.5176V117.188L12.642 117.312V122.664Z" fill="black"/>
<path d="M10.2768 121.295H10.1523V115.943H10.2768V121.295Z" fill="black"/>
<path d="M9.77876 121.046H9.6543V115.57L9.77876 115.694V121.046Z" fill="black"/>
<path d="M9.28071 120.797L9.15625 120.672V115.321L9.28071 115.445V120.797Z" fill="black"/>
<path d="M7.78798 119.801H7.53906V114.45H7.78798V119.801Z" fill="black"/>
<path d="M7.16548 119.552L7.04102 119.427V114.076L7.16548 114.2V119.552Z" fill="black"/>
<path d="M57.0727 135.112V134.863L57.3217 134.738V134.987C58.1929 134.489 58.9396 134.614 59.4375 135.236C59.313 135.236 59.1886 135.236 59.0641 135.236C58.8152 135.36 58.6907 135.609 58.5663 135.858C58.5663 135.609 58.3173 135.609 58.0684 135.734C57.8195 135.858 57.695 136.107 57.5706 136.481C57.5706 136.232 57.3217 136.232 57.0727 136.356C56.8238 136.481 56.6994 136.73 56.5749 136.978C56.5749 136.73 56.326 136.73 56.0771 136.854C55.8281 136.978 55.7037 137.227 55.5792 137.601C55.5792 137.352 55.3303 137.352 55.0814 137.476C54.9569 137.601 54.8325 137.601 54.708 137.85C55.4548 136.73 56.2015 135.734 57.0727 135.112Z" fill="black"/>
<path d="M57.3222 141.085L57.0732 141.334V136.729L57.3222 136.605V141.085Z" fill="black"/>
<path d="M57.82 141.707C58.0689 141.582 58.3178 141.085 58.3178 140.836L58.5668 140.711C58.5668 141.209 58.1934 141.707 57.82 141.956C57.4466 142.205 57.0732 141.956 57.0732 141.582L57.3222 141.458C57.3222 141.707 57.5711 141.831 57.82 141.707Z" fill="black"/>
<path d="M66.1569 129.636V132.125C66.1569 133.121 65.4101 134.365 64.5389 134.863C63.6677 135.361 62.9209 134.988 62.9209 133.992V131.503L66.1569 129.636Z" fill="black"/>
<path d="M64.413 137.601V135.36L64.7864 135.112V137.352L65.1598 137.227L66.1554 136.854V137.103L63.0439 138.845V138.721L64.0396 137.85L64.413 137.601Z" fill="black"/>
<path d="M74.248 131.875V132.497L69.5186 135.235V134.489L74.248 131.875Z" fill="black"/>
<path d="M71.0133 133.369L70.391 133.743V129.138L70.0176 129.262L70.7643 127.022L71.5111 128.515L71.0133 128.764V133.369Z" fill="black"/>
<path d="M73.129 132.124L72.6312 132.498V127.893L72.2578 128.017L72.8801 125.777L73.6269 127.27L73.129 127.519V132.124Z" fill="black"/>
<path d="M54.085 135.735L60.308 132.125V141.086L54.085 144.696V135.735ZM60.1835 132.499L54.3339 135.859V144.322L60.1835 140.962V132.499Z" fill="black"/>
<path d="M61.5537 131.377L67.7767 127.768V136.729L61.5537 140.338V131.377ZM67.5278 128.141L61.6782 131.502V139.965L67.5278 136.604V128.141Z" fill="black"/>
<path d="M68.7705 127.27L74.9935 123.66V132.622L68.7705 136.231V127.27ZM74.7446 124.034L68.895 127.394V135.857L74.7446 132.497V124.034Z" fill="black"/>
<path d="M89.9288 124.284C87.813 123.537 83.8303 125.03 79.2253 123.288C75.6159 122.043 75.367 125.155 78.8519 126.648C84.3281 129.013 83.208 130.507 80.4699 132C77.7317 133.743 67.8994 139.468 67.8994 139.468C67.8994 139.468 71.3843 141.21 73.749 141.086C76.1138 140.961 88.0619 138.348 89.5554 137.974C91.0489 137.601 100.508 131.129 100.508 131.129L97.6453 122.79C97.5209 122.666 92.6669 125.155 89.9288 124.284Z" fill="#F2A983"/>
<path d="M95.2822 123.288L97.2736 134.738C97.2736 134.738 128.886 127.769 140.461 118.559C140.461 118.559 142.328 116.318 142.701 112.958C143.697 105.988 143.697 94.5378 144.568 89.6838C145.813 82.4652 148.178 72.135 146.311 66.5343C143.822 59.3156 136.23 56.9509 130.255 65.7875C122.912 76.6156 124.779 99.7651 125.899 108.726C125.899 108.726 101.381 118.932 95.2822 123.288Z" fill="#2ACC5B"/>
<path d="M78.4799 138.472C78.1065 138.099 78.4799 138.472 76.7375 136.979C76.1152 136.481 75.8663 135.61 75.7418 134.739C72.008 136.854 67.7764 139.344 67.7764 139.344C67.7764 139.344 71.2612 141.086 73.626 140.962C74.995 140.837 79.7245 139.966 83.7072 139.095C81.4669 138.846 78.7288 138.721 78.4799 138.472Z" fill="#D88F69"/>
</g>
<defs>
<linearGradient id="paint0_linear" x1="111.414" y1="40.0238" x2="111.414" y2="146.057" gradientUnits="userSpaceOnUse">
<stop stop-color="#28AD3E"/>
<stop offset="1" stop-color="#34BB4B"/>
</linearGradient>
<linearGradient id="paint1_linear" x1="114.385" y1="0.0032959" x2="114.385" y2="25.7103" gradientUnits="userSpaceOnUse">
<stop stop-color="#28AD3E"/>
<stop offset="1" stop-color="#34BB4B"/>
</linearGradient>
</defs>
</svg>
