<svg width="190" height="136" viewBox="0 0 190 136" fill="none" xmlns="http://www.w3.org/2000/svg">
<path d="M162.059 99.3826H29.853C27.5812 99.3826 25.752 97.5591 25.752 95.2944V18.1767C25.752 14.7649 28.5253 11.9708 31.9772 11.9708H162.059C165.481 11.9708 168.284 14.7355 168.284 18.1767V93.1767C168.254 96.6179 165.481 99.3826 162.059 99.3826Z" fill="#333333"/>
<g filter="url(#filter0_d)">
<path d="M161.793 94H32.2131C31.6525 94 31.21 93.5588 31.21 93V18.5294C31.21 17.8823 31.7115 17.3823 32.3606 17.3823H161.704C162.294 17.3823 162.796 17.8823 162.796 18.4706V93.0294C162.796 93.5588 162.353 94 161.793 94Z" fill="#FFCB07"/>
</g>
<g filter="url(#filter1_d)">
<path d="M1.82466 127.853C-0.978185 131.53 3.68338 135 10.4987 135L180.203 134.912C186.901 134.912 191.562 131.177 189.468 127.971L1.82466 127.853Z" fill="#ECECEC"/>
</g>
<path d="M180.203 132.236L10.4982 132.324C3.53535 132.324 -0.418132 130.412 1.61762 128.148L25.427 101.471C26.5481 100.206 31.5343 99.177 36.4909 99.177L157.81 99.1476C162.766 99.1476 167.634 100.148 168.608 101.412L189.526 128.059C191.326 130.295 187.136 132.236 180.203 132.236Z" fill="#DCDCDC"/>
<path d="M158.547 114.971L34.3963 115.029C32.6556 115.029 31.5049 114.618 31.859 114.118L40.1495 102.471C40.415 102.088 41.8902 101.765 43.4244 101.765L150.877 101.735C152.381 101.735 153.827 102.059 154.063 102.441L161.144 114.088C161.468 114.529 160.288 114.941 158.547 114.971Z" fill="#D8D8D8"/>
<path d="M46.9657 103.118H42.9237C42.0976 103.118 41.5665 102.942 41.714 102.736L41.8615 102.53C42.0091 102.324 42.7762 102.147 43.5728 102.147H47.5557C48.3523 102.147 48.9129 102.324 48.7949 102.53L48.6769 102.736C48.5589 102.942 47.7918 103.118 46.9657 103.118Z" fill="#333333"/>
<path d="M55.0196 103.118H50.9776C50.1515 103.118 49.5909 102.942 49.7384 102.736L49.8564 102.53C49.9745 102.324 50.7415 102.147 51.5381 102.147H55.5211C56.3177 102.147 56.9078 102.324 56.7898 102.53L56.6718 102.736C56.5833 102.942 55.8162 103.118 55.0196 103.118Z" fill="#333333"/>
<path d="M63.0446 103.118H59.0027C58.1766 103.118 57.616 102.942 57.7045 102.736L57.8225 102.53C57.9405 102.324 58.6781 102.147 59.4747 102.147H63.4577C64.2543 102.147 64.8444 102.324 64.7558 102.53L64.6673 102.736C64.6083 102.942 63.8412 103.118 63.0446 103.118Z" fill="#333333"/>
<path d="M71.0699 103.118H67.0279C66.2018 103.118 65.6117 102.942 65.7002 102.736L65.7887 102.53C65.8772 102.324 66.6148 102.147 67.4114 102.147H71.3944C72.191 102.147 72.8106 102.324 72.7221 102.53L72.663 102.736C72.604 102.942 71.896 103.118 71.0699 103.118Z" fill="#333333"/>
<path d="M79.0946 103.088H75.0526C74.2265 103.088 73.6365 102.912 73.6955 102.706L73.7545 102.5C73.8135 102.294 74.5216 102.118 75.3477 102.118H79.3307C80.1273 102.118 80.7468 102.294 80.7173 102.5L80.6583 102.706C80.6288 102.941 79.9207 103.088 79.0946 103.088Z" fill="#333333"/>
<path d="M87.1493 103.088H83.1073C82.2812 103.088 81.6617 102.912 81.7207 102.706L81.7797 102.5C81.8387 102.294 82.5173 102.118 83.3139 102.118H87.2969C88.0935 102.118 88.7425 102.294 88.713 102.5L88.6835 102.706C88.654 102.941 87.9459 103.088 87.1493 103.088Z" fill="#333333"/>
<path d="M95.175 103.088H91.133C90.3069 103.088 89.6873 102.912 89.7168 102.706L89.7463 102.5C89.7758 102.294 90.4544 102.118 91.251 102.118H95.234C96.0306 102.118 96.6797 102.294 96.6797 102.5V102.706C96.6502 102.912 95.9716 103.088 95.175 103.088Z" fill="#333333"/>
<path d="M103.2 103.088H99.1578C98.3317 103.088 97.6826 102.912 97.6826 102.706V102.5C97.6826 102.294 98.3612 102.118 99.1578 102.118H103.141C103.937 102.118 104.616 102.294 104.616 102.5V102.706C104.675 102.912 103.996 103.088 103.2 103.088Z" fill="#333333"/>
<path d="M111.224 103.088H107.182C106.356 103.088 105.707 102.912 105.678 102.706V102.5C105.678 102.294 106.327 102.118 107.123 102.118H111.106C111.903 102.118 112.582 102.294 112.611 102.5L112.641 102.706C112.67 102.912 112.051 103.088 111.224 103.088Z" fill="#333333"/>
<path d="M119.249 103.088H115.207C114.381 103.088 113.703 102.912 113.673 102.706L113.644 102.5C113.614 102.294 114.263 102.118 115.06 102.118H119.043C119.839 102.118 120.547 102.294 120.577 102.5L120.636 102.706C120.695 102.912 120.075 103.088 119.249 103.088Z" fill="#333333"/>
<path d="M127.274 103.088H123.232C122.406 103.088 121.727 102.912 121.668 102.706L121.609 102.5C121.55 102.294 122.17 102.118 122.996 102.118H126.979C127.776 102.118 128.484 102.294 128.572 102.5L128.631 102.706C128.69 102.912 128.1 103.088 127.274 103.088Z" fill="#333333"/>
<path d="M135.299 103.088H131.257C130.431 103.088 129.723 102.912 129.664 102.706L129.605 102.5C129.546 102.294 130.136 102.118 130.932 102.118H134.915C135.712 102.118 136.449 102.294 136.538 102.5L136.626 102.706C136.715 102.912 136.125 103.088 135.299 103.088Z" fill="#333333"/>
<path d="M143.324 103.088H139.282C138.456 103.088 137.719 102.912 137.66 102.706L137.571 102.5C137.483 102.294 138.073 102.118 138.869 102.118H142.852C143.649 102.118 144.387 102.294 144.505 102.5L144.623 102.706C144.711 102.912 144.151 103.088 143.324 103.088Z" fill="#333333"/>
<path d="M151.349 103.088H147.307C146.481 103.088 145.743 102.912 145.625 102.706L145.507 102.5C145.389 102.294 145.979 102.118 146.776 102.118H150.759C151.555 102.118 152.323 102.294 152.441 102.5L152.559 102.706C152.736 102.912 152.175 103.088 151.349 103.088Z" fill="#333333"/>
<path d="M45.4607 105.118H41.5957C40.7696 105.118 40.2091 104.941 40.3566 104.735L41.0057 103.794C41.1532 103.588 41.9498 103.412 42.7464 103.412H46.5523C47.3784 103.412 47.939 103.588 47.7915 103.794L47.2014 104.735C47.0539 104.912 46.2868 105.118 45.4607 105.118Z" fill="#333333"/>
<path d="M53.3681 105.089H49.5031C48.677 105.089 48.1164 104.912 48.2344 104.706L48.795 103.765C48.913 103.559 49.6801 103.383 50.5062 103.383H54.3122C55.1383 103.383 55.6988 103.559 55.5808 103.765L55.0793 104.706C54.9908 104.912 54.2237 105.089 53.3681 105.089Z" fill="#333333"/>
<path d="M61.3041 105.089H57.4392C56.6131 105.089 56.023 104.912 56.141 104.706L56.6131 103.765C56.7311 103.559 57.4687 103.383 58.2948 103.383H62.1007C62.9268 103.383 63.5169 103.559 63.3989 103.765L62.9859 104.706C62.8973 104.912 62.1302 105.089 61.3041 105.089Z" fill="#333333"/>
<path d="M69.2413 105.089H65.3763C64.5502 105.089 63.9306 104.912 64.0486 104.706L64.4617 103.765C64.5502 103.559 65.2878 103.383 66.1139 103.383H69.9198C70.7459 103.383 71.336 103.559 71.277 103.765L70.9525 104.706C70.8049 104.912 70.0674 105.089 69.2413 105.089Z" fill="#333333"/>
<path d="M77.1774 105.089H73.3124C72.4863 105.089 71.8668 104.912 71.9258 104.706L72.2503 103.765C72.3093 103.559 73.0469 103.383 73.8435 103.383H77.6494C78.4755 103.383 79.0951 103.559 79.0361 103.765L78.8001 104.706C78.7411 104.912 78.0035 105.089 77.1774 105.089Z" fill="#333333"/>
<path d="M85.114 105.089H81.249C80.4229 105.089 79.7738 104.912 79.8328 104.706L80.0689 103.765C80.1279 103.559 80.8359 103.383 81.6325 103.383H85.4385C86.2646 103.383 86.8842 103.559 86.8547 103.765L86.7072 104.706C86.6482 104.912 85.9401 105.089 85.114 105.089Z" fill="#333333"/>
<path d="M93.0499 105.089H89.1849C88.3588 105.089 87.7097 104.912 87.7392 104.706L87.8868 103.765C87.9163 103.559 88.6244 103.383 89.421 103.383H93.2269C94.053 103.383 94.7021 103.559 94.6726 103.765L94.5841 104.706C94.5546 104.912 93.876 105.089 93.0499 105.089Z" fill="#333333"/>
<path d="M100.987 105.089H97.1216C96.2955 105.089 95.6169 104.912 95.6464 104.706L95.7054 103.765C95.7054 103.559 96.384 103.383 97.2101 103.383H101.016C101.842 103.383 102.491 103.559 102.491 103.765V104.706C102.491 104.912 101.813 105.089 100.987 105.089Z" fill="#333333"/>
<path d="M108.893 105.089H105.028C104.202 105.089 103.524 104.912 103.524 104.706L103.494 103.765C103.494 103.559 104.143 103.383 104.969 103.383H108.775C109.601 103.383 110.28 103.559 110.28 103.765L110.369 104.706C110.398 104.912 109.749 105.089 108.893 105.089Z" fill="#333333"/>
<path d="M116.83 105.089H112.965C112.139 105.089 111.431 104.912 111.401 104.706L111.283 103.765C111.254 103.559 111.903 103.383 112.729 103.383H116.535C117.361 103.383 118.04 103.559 118.099 103.765L118.276 104.706C118.305 104.912 117.656 105.089 116.83 105.089Z" fill="#333333"/>
<path d="M124.767 105.089H120.902C120.076 105.089 119.368 104.912 119.309 104.706L119.132 103.765C119.102 103.559 119.722 103.383 120.548 103.383H124.354C125.18 103.383 125.888 103.559 125.947 103.765L126.213 104.706C126.213 104.912 125.593 105.089 124.767 105.089Z" fill="#333333"/>
<path d="M132.703 105.089H128.838C128.012 105.089 127.275 104.912 127.216 104.706L126.95 103.765C126.891 103.559 127.511 103.383 128.307 103.383H132.113C132.939 103.383 133.648 103.559 133.736 103.765L134.09 104.706C134.12 104.912 133.529 105.089 132.703 105.089Z" fill="#333333"/>
<path d="M140.61 105.089H136.745C135.919 105.089 135.181 104.912 135.093 104.706L134.739 103.765C134.65 103.559 135.27 103.383 136.067 103.383H139.873C140.699 103.383 141.436 103.559 141.525 103.765L141.938 104.706C142.056 104.883 141.436 105.089 140.61 105.089Z" fill="#333333"/>
<path d="M56.3475 107.177H52.394C51.5384 107.177 50.9483 107 51.0959 106.765L51.6564 105.795C51.7744 105.559 52.571 105.383 53.3971 105.383H57.2916C58.1177 105.383 58.7078 105.559 58.6193 105.795L58.1472 106.765C57.9997 107 57.2031 107.177 56.3475 107.177Z" fill="#333333"/>
<path d="M64.461 107.177H60.5075C59.6519 107.177 59.0619 107 59.1504 106.765L59.6224 105.795C59.7404 105.559 60.478 105.383 61.3336 105.383H65.2281C66.0542 105.383 66.6738 105.559 66.5853 105.795L66.2017 106.765C66.0837 107 65.3166 107.177 64.461 107.177Z" fill="#333333"/>
<path d="M72.6044 107.177H68.6509C67.7953 107.177 67.1758 107 67.2643 106.765L67.6478 105.795C67.7363 105.559 68.4739 105.383 69.3 105.383H73.1945C74.0206 105.383 74.6402 105.559 74.5812 105.795L74.2861 106.765C74.1976 107 73.4305 107.177 72.6044 107.177Z" fill="#333333"/>
<path d="M80.7173 107.177H76.7638C75.9082 107.177 75.2886 107 75.3476 106.765L75.6427 105.795C75.7017 105.559 76.4393 105.383 77.2654 105.383H81.1598C81.9859 105.383 82.635 105.559 82.576 105.795L82.3695 106.765C82.3105 107 81.5729 107.177 80.7173 107.177Z" fill="#333333"/>
<path d="M88.8316 107.177H84.8781C84.0225 107.177 83.3734 107 83.4324 106.765L83.639 105.795C83.698 105.559 84.4061 105.383 85.2322 105.383H89.1267C89.9528 105.383 90.6313 105.559 90.6018 105.795L90.4838 106.765C90.3953 107 89.6872 107.177 88.8316 107.177Z" fill="#333333"/>
<path d="M96.9444 107.177H92.991C92.1353 107.177 91.4568 107 91.4863 106.765L91.6043 105.795C91.6338 105.559 92.3419 105.383 93.168 105.383H97.0625C97.8886 105.383 98.5671 105.559 98.5671 105.795L98.5376 106.765C98.5081 107 97.8 107.177 96.9444 107.177Z" fill="#333333"/>
<path d="M105.058 107.177H101.104C100.249 107.177 99.5703 107 99.5703 106.765L99.5998 105.795C99.5998 105.559 100.278 105.383 101.134 105.383H105.028C105.855 105.383 106.563 105.559 106.563 105.795L106.622 106.765C106.592 107 105.914 107.177 105.058 107.177Z" fill="#333333"/>
<path d="M113.172 107.177H109.218C108.363 107.177 107.655 107 107.655 106.765L107.596 105.795C107.596 105.559 108.245 105.383 109.071 105.383H112.965C113.791 105.383 114.5 105.559 114.529 105.795L114.677 106.765C114.706 106.971 114.027 107.177 113.172 107.177Z" fill="#333333"/>
<path d="M121.285 107.177H117.332C116.476 107.177 115.768 107 115.738 106.765L115.591 105.795C115.561 105.559 116.21 105.383 117.036 105.383H120.931C121.757 105.383 122.495 105.559 122.524 105.795L122.76 106.765C122.79 106.971 122.141 107.177 121.285 107.177Z" fill="#333333"/>
<path d="M129.399 107.177H125.446C124.59 107.177 123.852 107 123.793 106.765L123.557 105.795C123.498 105.559 124.148 105.383 124.974 105.383H128.868C129.694 105.383 130.432 105.559 130.52 105.795L130.845 106.765C130.904 106.971 130.255 107.177 129.399 107.177Z" fill="#333333"/>
<path d="M137.512 107.177H133.558C132.703 107.177 131.965 107 131.877 106.765L131.552 105.795C131.464 105.559 132.113 105.383 132.939 105.383H136.833C137.659 105.383 138.426 105.559 138.515 105.795L138.928 106.765C138.987 106.971 138.367 107.177 137.512 107.177Z" fill="#333333"/>
<path d="M57.4392 109.383H53.3677C52.5121 109.383 51.8925 109.177 52.0105 108.941L52.5711 107.912C52.6891 107.677 53.4857 107.5 54.3413 107.5H58.3243C59.1799 107.5 59.7995 107.677 59.6815 107.912L59.2094 108.941C59.1209 109.206 58.3243 109.383 57.4392 109.383Z" fill="#333333"/>
<path d="M65.7592 109.383H61.6877C60.8321 109.383 60.183 109.177 60.301 108.941L60.7731 107.912C60.8911 107.677 61.6582 107.5 62.5138 107.5H66.4967C67.3523 107.5 67.9719 107.677 67.8834 107.912L67.4999 108.941C67.4114 109.206 66.6148 109.383 65.7592 109.383Z" fill="#333333"/>
<path d="M74.0797 109.383H70.0082C69.1526 109.383 68.5036 109.177 68.5921 108.941L68.9461 107.912C69.0346 107.677 69.8017 107.5 70.6573 107.5H74.6403C75.4959 107.5 76.145 107.677 76.086 107.912L75.7909 108.941C75.7024 109.206 74.9353 109.383 74.0797 109.383Z" fill="#333333"/>
<path d="M82.3989 109.383H78.3274C77.4718 109.383 76.7932 109.177 76.8522 108.941L77.1177 107.912C77.1767 107.677 77.9143 107.5 78.7699 107.5H82.7529C83.6085 107.5 84.2576 107.677 84.2281 107.912L84.0216 108.941C84.0216 109.206 83.2545 109.383 82.3989 109.383Z" fill="#333333"/>
<path d="M90.7197 109.383H86.6482C85.7926 109.383 85.114 109.177 85.1435 108.941L85.3205 107.912C85.35 107.677 86.0876 107.5 86.9432 107.5H90.9262C91.7818 107.5 92.4604 107.677 92.4309 107.912L92.3424 108.941C92.3129 109.177 91.5753 109.383 90.7197 109.383Z" fill="#333333"/>
<path d="M99.0099 109.383H94.9384C94.0828 109.383 93.3747 109.177 93.4042 108.941L93.4927 107.912C93.5222 107.677 94.2303 107.5 95.0859 107.5H99.0689C99.9245 107.5 100.603 107.677 100.603 107.912V108.941C100.603 109.177 99.895 109.383 99.0099 109.383Z" fill="#333333"/>
<path d="M107.33 109.383H103.258C102.403 109.383 101.665 109.177 101.665 108.941V107.912C101.665 107.677 102.373 107.5 103.199 107.5H107.182C108.038 107.5 108.746 107.677 108.775 107.912L108.864 108.941C108.893 109.177 108.185 109.383 107.33 109.383Z" fill="#333333"/>
<path d="M115.65 109.383H111.578C110.723 109.383 109.985 109.177 109.956 108.941L109.867 107.912C109.838 107.677 110.516 107.5 111.372 107.5H115.355C116.21 107.5 116.948 107.677 116.977 107.912L117.155 108.941C117.184 109.177 116.505 109.383 115.65 109.383Z" fill="#333333"/>
<path d="M123.941 109.383H119.869C119.014 109.383 118.247 109.177 118.217 108.941L118.04 107.912C118.011 107.677 118.66 107.5 119.515 107.5H123.498C124.354 107.5 125.091 107.677 125.15 107.912L125.416 108.941C125.475 109.177 124.826 109.383 123.941 109.383Z" fill="#333333"/>
<path d="M132.261 109.383H128.189C127.334 109.383 126.567 109.177 126.508 108.941L126.242 107.912C126.183 107.677 126.832 107.5 127.688 107.5H131.671C132.526 107.5 133.293 107.677 133.352 107.912L133.706 108.941C133.765 109.177 133.146 109.383 132.261 109.383Z" fill="#333333"/>
<path d="M60.6548 111.706H56.4948C55.6097 111.706 54.9901 111.5 55.1082 111.236L55.6392 110.147C55.7572 109.912 56.5833 109.706 57.439 109.706H61.5105C62.3956 109.706 63.0151 109.912 62.9266 110.147L62.4841 111.236C62.3366 111.5 61.54 111.706 60.6548 111.706Z" fill="#333333"/>
<path d="M39.6488 114.471H35.3707C34.4561 114.471 33.8661 114.265 34.0431 114L35.0757 112.53C35.2527 112.265 36.1378 112.059 37.0229 112.059H41.2124C42.0976 112.059 42.7171 112.265 42.5401 112.53L41.6255 114C41.4485 114.265 40.5634 114.471 39.6488 114.471Z" fill="#333333"/>
<path d="M48.4403 114.471H44.1623C43.2477 114.471 42.6281 114.265 42.7756 114L43.6607 112.53C43.8082 112.265 44.6639 112.059 45.5785 112.059H49.768C50.6531 112.059 51.2727 112.265 51.1546 112.53L50.3875 114C50.24 114.265 49.3549 114.471 48.4403 114.471Z" fill="#333333"/>
<path d="M57.262 114.471H52.984C52.0694 114.471 51.4203 114.265 51.5678 114L52.3349 112.53C52.4529 112.265 53.3085 112.059 54.1936 112.059H58.3831C59.2682 112.059 59.9173 112.265 59.7993 112.53L59.1502 114C59.0322 114.265 58.1766 114.471 57.262 114.471Z" fill="#333333"/>
<path d="M131.759 114.441H127.481C126.567 114.441 125.77 114.235 125.711 113.971L125.357 112.5C125.298 112.235 125.977 112.029 126.862 112.029H131.022C131.907 112.029 132.704 112.235 132.792 112.5L133.264 113.971C133.353 114.235 132.674 114.441 131.759 114.441Z" fill="#333333"/>
<path d="M149.195 114.441H144.917C144.002 114.441 143.147 114.235 143.058 113.971L142.439 112.5C142.321 112.235 142.97 112.029 143.855 112.029H148.015C148.9 112.029 149.756 112.235 149.874 112.5L150.611 113.971C150.759 114.206 150.11 114.441 149.195 114.441Z" fill="#333333"/>
<path d="M157.987 114.442H153.709C152.795 114.442 151.939 114.236 151.792 113.971L151.615 113.647C151.467 113.383 152.116 113.177 153.001 113.177H157.22C158.135 113.177 158.991 113.383 159.138 113.647L159.315 113.971C159.522 114.206 158.902 114.442 157.987 114.442Z" fill="#333333"/>
<path d="M140.551 114.442H136.273C135.359 114.442 134.533 114.236 134.444 113.971L134.326 113.647C134.238 113.383 134.916 113.177 135.801 113.177H140.02C140.935 113.177 141.761 113.383 141.85 113.647L141.997 113.971C142.115 114.236 141.466 114.442 140.551 114.442Z" fill="#333333"/>
<path d="M68.208 114.471H61.7762C60.8616 114.471 60.2125 114.265 60.301 114L60.9206 112.53C61.0386 112.265 61.8352 112.059 62.7498 112.059H69.0341C69.9192 112.059 70.5978 112.265 70.5093 112.53L70.0372 114C69.9487 114.236 69.1226 114.471 68.208 114.471Z" fill="#333333"/>
<path d="M123.026 114.441H116.595C115.68 114.441 114.913 114.235 114.854 113.971L114.647 112.5C114.618 112.235 115.326 112.029 116.211 112.029H122.495C123.38 112.029 124.177 112.235 124.236 112.5L124.59 113.971C124.649 114.235 123.941 114.441 123.026 114.441Z" fill="#333333"/>
<path d="M112.051 114.441H72.8113C71.8967 114.441 71.2181 114.235 71.3066 113.971L71.7786 112.5C71.8672 112.235 72.6638 112.029 73.5489 112.029H111.845C112.73 112.029 113.497 112.235 113.526 112.5L113.703 113.971C113.703 114.235 112.966 114.441 112.051 114.441Z" fill="#333333"/>
<path d="M69.1519 111.706H64.9918C64.1067 111.706 63.4577 111.5 63.5462 111.236L63.9887 110.147C64.0772 109.912 64.8738 109.706 65.7589 109.706H69.8304C70.7155 109.706 71.3646 109.912 71.2761 110.147L70.9221 111.236C70.8631 111.5 70.0665 111.706 69.1519 111.706Z" fill="#333333"/>
<path d="M77.6791 111.706H73.5191C72.634 111.706 71.9554 111.5 72.0439 111.236L72.3684 110.147C72.457 109.912 73.224 109.706 74.0796 109.706H78.1511C79.0362 109.706 79.6853 109.912 79.6263 110.147L79.3608 111.236C79.3608 111.471 78.5642 111.706 77.6791 111.706Z" fill="#333333"/>
<path d="M86.2054 111.676H82.0454C81.1603 111.676 80.4817 111.471 80.5407 111.206L80.7767 110.118C80.8357 109.882 81.6028 109.676 82.4584 109.676H86.5299C87.415 109.676 88.0936 109.882 88.0641 110.118L87.9166 111.206C87.8576 111.471 87.0905 111.676 86.2054 111.676Z" fill="#333333"/>
<path d="M94.7324 111.676H90.5724C89.6873 111.676 88.9792 111.471 89.0087 111.206L89.1562 110.118C89.1857 109.882 89.9233 109.676 90.8084 109.676H94.8799C95.765 109.676 96.4436 109.882 96.4436 110.118L96.3846 111.206C96.3551 111.471 95.6175 111.676 94.7324 111.676Z" fill="#333333"/>
<path d="M103.229 111.676H99.0687C98.1836 111.676 97.446 111.471 97.4755 111.206L97.5345 110.118C97.5345 109.882 98.2721 109.676 99.1277 109.676H103.199C104.084 109.676 104.792 109.882 104.792 110.118L104.822 111.206C104.851 111.471 104.143 111.676 103.229 111.676Z" fill="#333333"/>
<path d="M111.755 111.676H107.595C106.71 111.676 105.972 111.471 105.943 111.206L105.884 110.118C105.884 109.882 106.592 109.676 107.447 109.676H111.519C112.404 109.676 113.142 109.882 113.171 110.118L113.319 111.206C113.348 111.471 112.64 111.676 111.755 111.676Z" fill="#333333"/>
<path d="M120.282 111.676H116.122C115.237 111.676 114.47 111.471 114.44 111.206L114.293 110.118C114.263 109.882 114.942 109.676 115.827 109.676H119.899C120.784 109.676 121.521 109.882 121.58 110.118L121.816 111.206C121.846 111.471 121.167 111.676 120.282 111.676Z" fill="#333333"/>
<path d="M128.779 111.676H124.619C123.734 111.676 122.967 111.471 122.908 111.206L122.672 110.118C122.613 109.882 123.291 109.676 124.147 109.676H128.218C129.103 109.676 129.87 109.882 129.929 110.118L130.254 111.206C130.342 111.471 129.693 111.676 128.779 111.676Z" fill="#333333"/>
<path d="M137.306 111.676H133.146C132.261 111.676 131.464 111.471 131.376 111.206L131.051 110.118C130.963 109.882 131.612 109.676 132.497 109.676H136.568C137.453 109.676 138.22 109.882 138.338 110.118L138.752 111.206C138.84 111.471 138.191 111.676 137.306 111.676Z" fill="#333333"/>
<path d="M140.581 109.383H136.509C135.653 109.383 134.857 109.177 134.768 108.941L134.414 107.912C134.326 107.677 134.975 107.5 135.801 107.5H139.784C140.64 107.5 141.407 107.677 141.525 107.912L141.967 108.941C142.056 109.177 141.436 109.383 140.581 109.383Z" fill="#333333"/>
<path d="M145.626 107.177H141.672C140.816 107.177 140.049 107 139.961 106.765L139.548 105.795C139.459 105.559 140.049 105.383 140.876 105.383H144.77C145.596 105.383 146.363 105.559 146.481 105.795L146.983 106.765C147.071 106.971 146.481 107.177 145.626 107.177Z" fill="#333333"/>
<path d="M153.739 107.147H149.786C148.93 107.147 148.133 106.971 148.045 106.735L147.543 105.765C147.425 105.53 148.015 105.353 148.842 105.353H152.736C153.562 105.353 154.359 105.53 154.477 105.765L155.067 106.735C155.185 106.971 154.595 107.147 153.739 107.147Z" fill="#333333"/>
<path d="M152.5 105.059H144.681C143.855 105.059 143.088 104.882 143 104.676L142.557 103.735C142.469 103.529 143.029 103.353 143.855 103.353H151.526C152.352 103.353 153.119 103.529 153.237 103.735L153.798 104.676C153.916 104.882 153.326 105.059 152.5 105.059Z" fill="#333333"/>
<path d="M154.949 109.353H144.829C143.973 109.353 143.147 109.147 143.059 108.912L142.587 107.882C142.469 107.647 143.088 107.471 143.944 107.471H153.857C154.713 107.471 155.509 107.647 155.657 107.882L156.276 108.912C156.424 109.176 155.834 109.353 154.949 109.353Z" fill="#333333"/>
<path d="M156.277 111.647H141.673C140.787 111.647 139.961 111.441 139.873 111.206L139.43 110.118C139.342 109.882 139.961 109.676 140.846 109.676H155.156C156.041 109.676 156.867 109.882 157.014 110.118L157.663 111.206C157.752 111.441 157.162 111.647 156.277 111.647Z" fill="#333333"/>
<path d="M48.2632 107.206H40.2678C39.4122 107.206 38.8516 107.029 38.9991 106.794L39.6777 105.824C39.8252 105.588 40.6218 105.412 41.4774 105.412H49.3254C50.1515 105.412 50.7415 105.588 50.6235 105.824L50.063 106.794C49.9155 107 49.0893 107.206 48.2632 107.206Z" fill="#333333"/>
<path d="M49.001 109.412H38.7337C37.8781 109.412 37.288 109.206 37.465 108.97L38.1731 107.941C38.3207 107.706 39.1763 107.529 40.0024 107.529H50.0336C50.8892 107.529 51.4793 107.706 51.3612 107.941L50.8007 108.97C50.6827 109.206 49.8861 109.412 49.001 109.412Z" fill="#333333"/>
<path d="M52.0693 111.706H37.229C36.3439 111.706 35.7538 111.5 35.9308 111.236L36.6684 110.147C36.8454 109.912 37.701 109.706 38.5566 109.706H53.1019C53.987 109.706 54.5771 109.912 54.4591 110.147L53.928 111.236C53.7805 111.5 52.9544 111.706 52.0693 111.706Z" fill="#333333"/>
<path d="M120.93 129.294L71.1872 129.324C69.5645 129.324 68.3549 128.883 68.5024 128.353L71.5413 118.03C71.6593 117.589 72.9575 117.236 74.4326 117.236L118.865 117.206C120.311 117.206 121.579 117.559 121.668 118L123.704 128.294C123.822 128.853 122.553 129.294 120.93 129.294Z" fill="#F4F4F5"/>
<path d="M114.026 132.294C113.731 132 112.905 131.765 111.961 131.765H80.6282C79.684 131.765 78.7989 132 78.5039 132.294H114.026Z" fill="#989898"/>
<path d="M146.009 99.1179L48.8534 99.1473L48.1748 100.206L146.569 100.177L146.009 99.1179Z" fill="#DDDDDD"/>
<path d="M157.998 94.7449H35.9979L36.029 6.46146C36.029 2.8828 38.7553 0 42.0702 0H151.957C155.303 0 157.998 2.91594 157.998 6.46146V95L157.998 94.7449Z" fill="white"/>
<path d="M148.998 10.0004H45.998C43.7889 10.0004 41.998 11.7912 41.998 14.0004V30.0004C41.998 32.2095 43.7889 34.0004 45.998 34.0004H148.998C151.207 34.0004 152.998 32.2095 152.998 30.0004V14.0004C152.998 11.7912 151.207 10.0004 148.998 10.0004Z" fill="#1AB248"/>
<g clip-path="url(#clip0)">
<path d="M54.29 30.606V21.7536L63.3982 17.5601V22.339V25.947L54.29 30.606Z" fill="#EBBD8C"/>
<path d="M54.2781 30.606V21.7536L45.1699 17.5601V22.339V25.947L54.2781 30.606Z" fill="#A6704E"/>
<path d="M45.1699 17.5558L54.275 21.7536L57.8205 20.1244L59.297 19.4435L63.3983 17.5558L54.2933 13.3666L50.4106 15.1509L48.8612 15.8577L45.1699 17.5558Z" fill="#D8AC81"/>
<path d="M49.0596 15.7774L58.0675 20.0211V24.3087L59.4953 23.6206V19.3625L50.609 15.0706L49.0596 15.7774Z" fill="#F7DFC7"/>
</g>
<path d="M67.998 16.0004C67.998 16.5679 68.4888 17.0004 69.0661 17.0004H105.93C106.536 17.0004 106.998 16.5409 106.998 16.0004C106.998 15.4328 106.507 15.0004 105.93 15.0004H69.0661C68.4599 15.0004 67.998 15.4598 67.998 16.0004Z" fill="#C0F0CF"/>
<path d="M67.998 22.0009C67.998 22.5682 68.4953 23.0004 69.0802 23.0004H145.916C146.53 23.0004 146.998 22.5412 146.998 22.0009C146.998 21.4337 146.501 21.0015 145.916 21.0015H69.0802C68.466 20.9745 67.998 21.4337 67.998 22.0009Z" fill="#C0F0CF"/>
<path d="M67.998 28.0004C67.998 28.5679 68.4953 29.0004 69.0802 29.0004H145.916C146.53 29.0004 146.998 28.5409 146.998 28.0004C146.998 27.4328 146.501 27.0004 145.916 27.0004H69.0802C68.466 27.0004 67.998 27.4328 67.998 28.0004Z" fill="#C0F0CF"/>
<path d="M67.998 43.9998C67.998 44.5673 68.4888 44.9998 69.0661 44.9998H105.93C106.536 44.9998 106.998 44.5403 106.998 43.9998C106.998 43.4322 106.507 42.9998 105.93 42.9998H69.0661C68.4599 42.9998 67.998 43.4592 67.998 43.9998Z" fill="#CCCCCC"/>
<path d="M67.998 50.0008C67.998 50.5681 68.4953 51.0002 69.0802 51.0002H145.916C146.53 51.0002 146.998 50.541 146.998 50.0008C146.998 49.4336 146.501 49.0014 145.916 49.0014H69.0802C68.466 48.9744 67.998 49.4336 67.998 50.0008Z" fill="#CCCCCC"/>
<path d="M67.998 55.9998C67.998 56.5673 68.4953 56.9998 69.0802 56.9998H145.916C146.53 56.9998 146.998 56.5403 146.998 55.9998C146.998 55.4322 146.501 54.9998 145.916 54.9998H69.0802C68.466 54.9998 67.998 55.4322 67.998 55.9998Z" fill="#CCCCCC"/>
<path d="M67.998 70.0001C67.998 70.5677 68.4888 71.0001 69.0661 71.0001H105.93C106.536 71.0001 106.998 70.5407 106.998 70.0001C106.998 69.4326 106.507 69.0001 105.93 69.0001H69.0661C68.4599 69.0001 67.998 69.4326 67.998 70.0001Z" fill="#CCCCCC"/>
<path d="M67.998 76.0001C67.998 76.5677 68.4953 77.0001 69.0802 77.0001H145.916C146.53 77.0001 146.998 76.5407 146.998 76.0001C146.998 75.4326 146.501 75.0001 145.916 75.0001H69.0802C68.466 75.0001 67.998 75.4596 67.998 76.0001Z" fill="#CCCCCC"/>
<path d="M67.998 81.0008C67.998 81.5681 68.4953 82.0002 69.0802 82.0002H145.916C146.53 82.0002 146.998 81.541 146.998 81.0008C146.998 80.4336 146.501 80.0014 145.916 80.0014H69.0802C68.466 79.9744 67.998 80.4336 67.998 81.0008Z" fill="#CCCCCC"/>
<ellipse cx="151.207" cy="5.33105" rx="1.50257" ry="1.5" fill="#333333"/>
<ellipse cx="145.491" cy="5.33105" rx="1.50258" ry="1.5" fill="#333333"/>
<ellipse cx="139.775" cy="5.33105" rx="1.50257" ry="1.5" fill="#333333"/>
<g clip-path="url(#clip1)">
<path d="M54.291 57.422V48.5696L63.3991 44.3761V49.155V52.7631L54.291 57.422Z" fill="#EBBD8C"/>
<path d="M54.279 57.422V48.5696L45.1709 44.3761V49.155V52.7631L54.279 57.422Z" fill="#A6704E"/>
<path d="M45.1709 44.3718L54.276 48.5696L57.8214 46.9405L59.2979 46.2595L63.3993 44.3718L54.2942 40.1826L50.4116 41.9669L48.8622 42.6737L45.1709 44.3718Z" fill="#D8AC81"/>
<path d="M49.0605 42.5934L58.0684 46.8372V51.1248L59.4963 50.4366V46.1785L50.61 41.8866L49.0605 42.5934Z" fill="#F7DFC7"/>
</g>
<g clip-path="url(#clip2)">
<path d="M54.291 84.2394V75.387L63.3991 71.1935V75.9724V79.5805L54.291 84.2394Z" fill="#EBBD8C"/>
<path d="M54.279 84.2394V75.387L45.1709 71.1935V75.9724V79.5805L54.279 84.2394Z" fill="#A6704E"/>
<path d="M45.1709 71.1892L54.276 75.387L57.8214 73.7579L59.2979 73.0769L63.3993 71.1892L54.2942 67L50.4116 68.7843L48.8622 69.4911L45.1709 71.1892Z" fill="#D8AC81"/>
<path d="M49.0605 69.4108L58.0684 73.6546V77.9422L59.4963 77.254V72.9959L50.61 68.704L49.0605 69.4108Z" fill="#F7DFC7"/>
</g>
<defs>
<filter id="filter0_d" x="27.21" y="17.3823" width="139.586" height="84.6176" filterUnits="userSpaceOnUse" color-interpolation-filters="sRGB">
<feFlood flood-opacity="0" result="BackgroundImageFix"/>
<feColorMatrix in="SourceAlpha" type="matrix" values="0 0 0 0 0 0 0 0 0 0 0 0 0 0 0 0 0 0 127 0"/>
<feOffset dy="4"/>
<feGaussianBlur stdDeviation="2"/>
<feColorMatrix type="matrix" values="0 0 0 0 0 0 0 0 0 0 0 0 0 0 0 0 0 0 0.25 0"/>
<feBlend mode="normal" in2="BackgroundImageFix" result="effect1_dropShadow"/>
<feBlend mode="normal" in="SourceGraphic" in2="effect1_dropShadow" result="shape"/>
</filter>
<filter id="filter1_d" x="0.996094" y="127.853" width="188.978" height="8.14706" filterUnits="userSpaceOnUse" color-interpolation-filters="sRGB">
<feFlood flood-opacity="0" result="BackgroundImageFix"/>
<feColorMatrix in="SourceAlpha" type="matrix" values="0 0 0 0 0 0 0 0 0 0 0 0 0 0 0 0 0 0 127 0"/>
<feOffset dy="1"/>
<feColorMatrix type="matrix" values="0 0 0 0 0 0 0 0 0 0 0 0 0 0 0 0 0 0 0.25 0"/>
<feBlend mode="normal" in2="BackgroundImageFix" result="effect1_dropShadow"/>
<feBlend mode="normal" in="SourceGraphic" in2="effect1_dropShadow" result="shape"/>
</filter>
<clipPath id="clip0">
<rect width="18.2284" height="17.2394" fill="white" transform="translate(45.1699 13.3666)"/>
</clipPath>
<clipPath id="clip1">
<rect width="18.2284" height="17.2394" fill="white" transform="translate(45.1709 40.1826)"/>
</clipPath>
<clipPath id="clip2">
<rect width="18.2284" height="17.2394" fill="white" transform="translate(45.1709 67)"/>
</clipPath>
</defs>
</svg>
