<svg width="150" height="157" viewBox="0 0 150 157" fill="none" xmlns="http://www.w3.org/2000/svg">
<path d="M141.19 116.887C146.59 106.559 149.648 94.8127 149.648 82.3507C149.648 41.1237 116.227 7.70288 75.0004 7.70288C33.7734 7.70288 0.352539 41.1241 0.352539 82.3507C0.352539 94.813 3.41069 106.559 8.81097 116.888L141.19 116.887Z" fill="url(#paint0_linear)"/>
<path d="M69.4029 1.34724C52.5951 3.63727 50.9976 13.1667 50.99 16.6633C50.9885 17.3963 50.5823 18.0761 49.923 18.3966C41.1803 22.6498 45.8938 43.1479 45.8938 43.1479C46.7719 43.2064 47.6909 43.562 48.3761 43.8941C48.544 42.8496 48.8179 41.8213 49.2049 40.8271C49.4998 40.0697 49.8682 39.3046 50.3292 38.5816C51.1287 37.3272 51.4928 35.8476 51.3843 34.3681C51.0702 30.0918 51.2213 21.6653 56.8662 19.1258C61.6483 16.9741 67.5141 18.2199 71.2551 19.464C73.6844 20.2717 76.3159 20.2717 78.7455 19.464C82.4862 18.2199 88.3523 16.9741 93.1344 19.1258C98.7629 21.6583 98.9295 30.0439 98.6188 34.3315C98.5109 35.822 98.8653 37.3171 99.6709 38.5813C100.146 39.3274 100.524 40.1187 100.823 40.8999C101.196 41.8713 101.461 42.8749 101.624 43.8938C102.488 43.4752 103.723 43.0194 104.779 43.1686C104.908 38.6864 105.322 33.8547 105.322 33.8547C110.303 9.45985 87.5001 -1.1186 69.4029 1.34724Z" fill="#4E4E4E"/>
<path d="M69.4027 1.34729C52.5949 3.63732 50.9974 13.1667 50.9901 16.663C50.9886 17.3964 50.5825 18.0759 49.9231 18.3964C41.1801 22.6495 45.8939 43.1477 45.8939 43.1477C46.772 43.2062 47.691 43.5617 48.3762 43.8939C48.5441 42.8494 48.818 41.8211 49.205 40.8269C49.4999 40.0694 49.8686 39.3043 50.3293 38.5813C51.1288 37.3269 51.4929 35.8474 51.3844 34.3678C51.0703 30.0915 51.2214 21.6651 56.866 19.1255C61.4162 17.078 66.9463 18.1069 70.6943 19.2833C70.6608 19.2215 70.6303 19.1581 70.5953 19.0969C64.3361 8.15431 74.9261 1.2504 75.3091 1.00543C73.3134 0.971306 71.3311 1.08465 69.4027 1.34729Z" fill="#4E4E4E"/>
<path d="M106.668 43.7507C105.359 42.5509 102.752 43.159 101.624 43.8936C101.871 45.4317 101.885 47.0054 101.672 48.5593L100.341 58.2496C100.341 59.0308 100.317 59.7971 100.271 60.5503C103.516 61.5289 105.127 58.6161 105.399 56.6174C105.516 55.7569 105.707 54.909 105.972 54.0815C106.835 51.3859 109.948 46.7565 106.668 43.7507Z" fill="#FCAD6D"/>
<path d="M103.851 51.9088C102.919 51.9088 102.051 51.6406 101.312 51.1836L100.341 58.2499C100.341 59.0311 100.317 59.7974 100.271 60.5506C103.516 61.5293 105.127 58.6165 105.399 56.6177C105.516 55.7573 105.707 54.9093 105.972 54.0815C106.309 53.0273 106.991 51.6763 107.5 50.243C106.612 51.2619 105.309 51.9088 103.851 51.9088Z" fill="#FD995B"/>
<path d="M43.3324 43.7507C44.6413 42.5509 47.2491 43.159 48.3765 43.8936C48.1294 45.4317 48.1154 47.0054 48.3289 48.5593L49.6595 58.2496C49.6595 59.0308 49.6842 59.7971 49.7293 60.5503C46.485 61.5289 44.8735 58.6161 44.6017 56.6174C44.485 55.7569 44.294 54.909 44.0289 54.0815C43.1657 51.3859 40.0524 46.7565 43.3324 43.7507Z" fill="#FCAD6D"/>
<path d="M48.6412 50.8368C47.8106 51.5062 46.7561 51.9087 45.6065 51.9087C44.5523 51.9087 43.5794 51.568 42.7842 50.9955C43.24 52.1454 43.7506 53.214 44.0285 54.0814C44.2936 54.9089 44.4846 55.7572 44.6013 56.6176C44.8728 58.6164 46.4843 61.5292 49.7289 60.5505C49.6835 59.7977 49.6588 59.0311 49.6588 58.2498L48.6412 50.8368Z" fill="#FD995B"/>
<path d="M58.4488 96.9877C60.2307 101.307 63.3924 105.373 67.8469 109.071C68.3926 109.524 68.7202 110.191 68.7461 110.901L68.7616 111.33H81.2401L81.2556 110.902C81.2815 110.191 81.6094 109.524 82.1548 109.071C86.6093 105.373 89.7713 101.307 91.5531 96.9877C92.7844 94.003 93.1287 91.4445 93.1582 89.5987C92.1689 86.6807 91.8265 83.3709 91.7363 80.7476C90.0459 82.7164 88.2717 84.3633 86.5767 85.6798C83.2742 88.2444 79.1984 89.6374 75.001 89.6374C70.8033 89.6374 66.7278 88.2444 63.4253 85.6798C61.73 84.3633 59.9558 82.7164 58.2657 80.7476C58.1755 83.3706 57.8328 86.6801 56.8438 89.5984C56.873 91.4445 57.2179 94.003 58.4488 96.9877Z" fill="#FCAD6D"/>
<path d="M75 89.6374C70.8026 89.6374 66.7268 88.2444 63.4243 85.6798C61.729 84.3633 59.9548 82.7164 58.2648 80.7476C58.1743 83.3706 57.8318 86.6801 56.8428 89.5984C56.8726 91.4445 57.2172 94.003 58.4482 96.9877C60.23 101.307 63.3917 105.373 67.8462 109.071C67.8874 109.105 67.9246 109.143 67.9629 109.179C74.5908 102.973 75 89.6374 75 89.6374Z" fill="#FD995B"/>
<path d="M74.7133 110.295C68.0119 110.295 62.0999 103.687 58.5785 97.4187C57.4385 105.089 56.5025 112.954 55.7412 120.302C60.6682 132.146 66.3598 144.116 72.9212 156.008C73.4994 156.015 74.0756 156.035 74.6551 156.035C75.2359 156.035 75.8121 156.016 76.391 156.008C83.2592 143.56 89.1771 131.026 94.2597 118.641C93.4925 111.448 92.5579 103.787 91.427 96.3317C87.9978 103.208 81.7954 110.295 74.7133 110.295Z" fill="white"/>
<path d="M87.3163 120.495C88.4449 121.971 90.6822 121.931 91.7523 120.412C92.6596 119.124 93.7766 117.487 94.9597 115.637C97.6178 105.089 98.5142 96.7125 98.8673 92.4658L93.8248 88.0688C93.3732 87.6749 92.6724 88.0146 92.7005 88.613C92.8622 92.0755 91.9921 100.326 81.8703 108.729C80.6595 109.735 80.4526 111.515 81.4084 112.766L87.3163 120.495Z" fill="white"/>
<path d="M55.0429 115.64C56.2251 117.489 57.3411 119.125 58.2482 120.412C59.3182 121.931 61.5559 121.971 62.6841 120.495L68.5917 112.765C69.5475 111.515 69.3406 109.734 68.1298 108.729C58.0084 100.326 57.1379 92.0751 57.2997 88.6126C57.3277 88.0142 56.6269 87.6745 56.1754 88.0685L51.1328 92.4654C51.4866 96.7125 52.3839 105.091 55.0429 115.64Z" fill="white"/>
<path d="M64.7554 105.597C57.8077 98.3398 57.159 91.6428 57.3007 88.6126C57.3287 88.0142 56.6282 87.6745 56.1764 88.0685L51.1338 92.4654C51.437 96.111 52.142 102.802 54.017 111.295C55.1563 111.083 56.1892 110.423 56.868 109.434C60.6931 103.857 64.7554 105.597 64.7554 105.597Z" fill="white"/>
<path d="M45.5563 138.115C45.1751 137.677 45.1358 137.035 45.4603 136.552L50.7293 128.705C51.1092 128.139 51.203 127.444 50.9861 126.798C50.7695 126.151 50.2756 125.653 49.6312 125.43L40.8236 122.39C40.3479 122.226 40.0088 121.794 39.9595 121.29C39.089 112.43 39.6688 104.644 40.0917 100.792C40.1645 100.128 40.3967 99.4945 40.7507 98.9373C38.5162 99.9464 36.316 101.068 34.129 102.301C31.5839 103.736 30.4349 104.574 28.2753 104.75C18.4446 105.554 12.3773 110.44 8.65039 116.582C19.6021 137.766 40.3997 153.031 64.9896 156.328C55.3654 149.04 47.9469 140.864 45.5563 138.115Z" fill="#30144A"/>
<path d="M52.1403 91.7663C52.0595 90.7484 50.881 90.228 50.0723 90.8514L41.4887 97.4695C40.4555 98.2662 39.7916 99.4466 39.6493 100.743C39.2529 104.353 38.6301 112.311 39.5164 121.334C39.5829 122.011 40.035 122.588 40.6779 122.81L49.4858 125.85C50.5617 126.222 50.9943 127.512 50.3597 128.456L45.0904 136.304C44.6535 136.955 44.7056 137.816 45.2202 138.407C47.6102 141.154 54.7597 149.032 64.0849 156.201C67.5611 156.71 71.1144 156.981 74.7289 156.994C55.8559 129.088 52.8045 100.139 52.1403 91.7663Z" fill="#30144A"/>
<path d="M52.1405 91.7663C52.0598 90.7484 50.8813 90.228 50.0726 90.8514L41.489 97.4695C40.4558 98.2662 39.7919 99.4466 39.6496 100.743C39.333 103.626 38.8729 109.282 39.1514 116.038C44.2126 111.033 49.434 110.82 52.5354 111.316C53.4221 111.457 54.3063 111.316 55.0869 110.948C53.0872 102.09 52.4129 95.1986 52.1405 91.7663Z" fill="#30144A"/>
<path d="M85.0713 156.32C109.635 153.007 130.408 137.749 141.35 116.583C137.624 110.441 131.556 105.555 121.726 104.751C119.566 104.575 118.417 103.737 115.872 102.302C113.685 101.068 111.485 99.9469 109.25 98.9377C109.604 99.495 109.836 100.128 109.909 100.792C110.332 104.645 110.912 112.431 110.042 121.291C109.992 121.794 109.653 122.226 109.178 122.391L100.37 125.431C99.7252 125.653 99.2313 126.152 99.0147 126.798C98.7981 127.444 98.8916 128.139 99.2716 128.705L104.541 136.552C104.865 137.035 104.825 137.678 104.445 138.116C97.7213 145.844 90.9819 151.828 85.0713 156.32Z" fill="#30144A"/>
<path d="M108.512 97.4695L99.9279 90.8514C99.1193 90.228 97.9407 90.7484 97.86 91.7663C97.1958 100.139 94.1471 129.088 75.2744 156.994C78.8883 156.981 82.4413 156.71 85.9168 156.201C95.2412 149.032 102.39 141.154 104.78 138.407C105.294 137.816 105.347 136.955 104.91 136.304L99.6406 128.457C99.0059 127.512 99.4386 126.222 100.514 125.851L109.322 122.81C109.965 122.589 110.417 122.011 110.484 121.334C111.37 112.311 110.747 104.353 110.351 100.744C110.209 99.4466 109.545 98.2662 108.512 97.4695Z" fill="#30144A"/>
<path d="M100.962 40.8469C100.016 38.3774 98.5487 37.3552 98.7668 34.3421C99.5511 23.519 95.6124 20.0782 93.1953 18.9904C88.4556 16.8579 82.6964 17.9941 78.6995 19.3228C76.3144 20.1162 73.6868 20.1162 71.3017 19.3228C67.3048 17.9941 61.5465 16.8576 56.8059 18.9904C54.3839 20.08 50.4401 23.5287 51.2371 34.379C51.4544 37.3311 50.0092 38.353 49.0677 40.7728C48.1214 43.2049 47.8149 45.9035 48.182 48.5771L49.5114 58.2494C49.5114 74.2269 59.1779 83.458 63.3341 86.685C70.1521 91.9801 79.7994 92.0185 86.6668 86.685C90.823 83.4577 100.49 74.2263 100.488 58.2698L101.819 48.5795C102.183 45.9327 101.886 43.2585 100.962 40.8469Z" fill="#F9BA8F"/>
<path d="M77.3496 86.6855C73.1934 83.4585 63.5269 74.2274 63.5269 58.2499L62.1975 48.5776C61.8304 45.9039 62.1369 43.2053 63.0832 40.7733C64.0247 38.3535 65.4698 37.3316 65.2526 34.3795C64.4796 23.8592 68.1636 20.2974 70.5962 19.0972C66.6469 17.8751 61.2746 16.9806 56.8058 18.9909C54.3838 20.0805 50.4399 23.5292 51.237 34.3795C51.4542 37.3316 50.0091 38.3535 49.0676 40.7733C48.1212 43.2053 47.815 45.9039 48.1819 48.5776L49.5115 58.2499C49.5115 74.2274 59.1781 83.4585 63.3343 86.6855C68.7163 90.8655 75.8606 91.7667 82.0098 89.3384C80.3651 88.69 78.7935 87.807 77.3496 86.6855Z" fill="#FCAD6D"/>
<defs>
<linearGradient id="paint0_linear" x1="75.0004" y1="7.70288" x2="75.0004" y2="116.888" gradientUnits="userSpaceOnUse">
<stop stop-color="#28AD3E"/>
<stop offset="1" stop-color="#34BB4B"/>
</linearGradient>
</defs>
</svg>
