<svg width="333" height="714" viewBox="0 0 333 714" fill="none" xmlns="http://www.w3.org/2000/svg">
<mask id="mask0" mask-type="alpha" maskUnits="userSpaceOnUse" x="166" y="-1" width="218" height="222">
<rect width="218" height="221" transform="matrix(-1 0 0 1 384 -0.000244141)" fill="#1AB248"/>
</mask>
<g mask="url(#mask0)">
<path fill-rule="evenodd" clip-rule="evenodd" d="M409.899 775.172L407.524 747.853C405.104 720.018 400.355 665.379 375.232 611.991C350.108 558.604 303.631 507.592 320.236 450.578C335.77 393.657 413.408 331.856 387.214 278.562C362.091 225.175 234.297 181.231 188.844 129.611C142.322 78.0839 179.3 19.8179 194.835 -37.1035C210.37 -94.025 205.621 -148.664 203.201 -176.499L200.827 -203.818L508.974 -230.604L511.349 -203.284C513.768 -175.449 518.517 -120.81 523.312 -65.6559C528.106 -10.5016 532.855 44.1373 537.65 99.2917C542.444 154.446 547.193 209.085 551.987 264.239C556.782 319.394 561.531 374.033 566.325 429.187C571.119 484.341 575.869 538.98 580.663 594.135C585.457 649.289 590.207 703.928 592.626 731.763L595.001 759.082L409.899 775.172Z" fill="#1AB248"/>
</g>
<mask id="mask1" mask-type="alpha" maskUnits="userSpaceOnUse" x="0" y="271" width="308" height="443">
<rect width="308" height="443" transform="matrix(-1 0 0 1 308 271)" fill="#C4C4C4"/>
</mask>
<g mask="url(#mask1)">
<path d="M37.6932 803.397C39.3139 707.801 -27.0178 579.346 17.2584 498.306C45.8263 446.018 107.171 411.136 164.389 431.62C211.389 449.954 226.678 512.887 181.418 524.865C133.226 537.618 134.238 457.598 138.94 431.62C150.737 366.445 218.814 302.688 274.737 283.109C357.921 253.986 437.6 318.606 522 292.643" stroke="#BBBBBB" stroke-width="1.5" stroke-linecap="round" stroke-linejoin="round" stroke-dasharray="4 5"/>
<path d="M85.3483 418.172L85.8094 417.581C85.8664 417.625 85.9331 417.647 86 417.647C86.0672 417.647 86.1335 417.625 86.1902 417.581C86.3968 417.42 91.7608 413.208 97.2071 406.647C100.415 402.783 102.963 398.922 104.789 395.173L104.789 395.173C107.097 390.436 108.25 385.869 108.25 381.595C108.25 369.212 98.262 359.147 86 359.147C73.738 359.147 63.75 369.212 63.75 381.595C63.75 385.869 64.9033 390.436 67.2108 395.173L67.2108 395.173C69.0368 398.922 71.5853 402.783 74.7929 406.647C80.2393 413.208 85.6033 417.42 85.81 417.581L85.3483 418.172ZM85.3483 418.172C85.1207 417.994 79.7104 413.745 74.2158 407.126C70.9771 403.225 68.3933 399.313 66.5365 395.501L97.7842 407.126C92.2897 413.745 86.8795 417.994 86.6517 418.172C86.4597 418.322 86.2299 418.397 86 418.397C85.7701 418.397 85.5402 418.322 85.3483 418.172ZM76.5012 381.595C76.5012 376.314 80.7479 372.021 86 372.021C91.2521 372.021 95.4988 376.314 95.4988 381.595C95.4988 386.877 91.2521 391.169 86 391.169C80.7479 391.169 76.5012 386.877 76.5012 381.595Z" stroke="#1AB248" stroke-width="1.5"/>
<circle r="9.25" transform="matrix(-1 0 0 1 86 435.397)" fill="#F5F5F6" stroke="#1AB248" stroke-width="1.5"/>
<circle r="4.25" transform="matrix(-1 0 0 1 86 435.397)" stroke="#1AB248" stroke-width="1.5"/>
</g>
</svg>
